<svg width="48" height="48" viewBox="0 0 48 48" fill="none" xmlns="http://www.w3.org/2000/svg">
<path fill-rule="evenodd" clip-rule="evenodd" d="M24 48C37.2549 48 48 37.2549 48 24C48 10.7451 37.2549 0 24 0C10.7451 0 0 10.7451 0 24C0 37.2549 10.7451 48 24 48ZM37.6963 19.6963C38.8682 18.5248 38.8682 16.6252 37.6963 15.4537C36.5254 14.2821 34.626 14.2821 33.4541 15.4537L22.5752 26.3322L15.9434 19.6993C14.7715 18.5277 12.8721 18.5277 11.7002 19.6993C10.5283 20.8708 10.5283 22.7704 11.7002 23.942L20.4541 32.696L22.5752 34.8174L24.6973 32.696L37.6963 19.6963Z" fill="white"/>
</svg>
