<svg width="48" height="48" viewBox="0 0 48 48" fill="none" xmlns="http://www.w3.org/2000/svg">
<path fill-rule="evenodd" clip-rule="evenodd" d="M48 24C48 37.2549 37.2549 48 24 48C10.7451 48 0 37.2549 0 24C0 10.7451 10.7451 0 24 0C37.2549 0 48 10.7451 48 24ZM15.1211 15.1215C16.293 13.9498 18.1924 13.9498 19.3643 15.1215L24.3135 20.071L29.2637 15.1213C30.4346 13.9497 32.335 13.9497 33.5059 15.1213C34.6777 16.2928 34.6777 18.1924 33.5059 19.364L28.5566 24.3137L33.5059 29.2635C34.6777 30.4351 34.6777 32.3346 33.5059 33.5062C32.335 34.6777 30.4346 34.6777 29.2637 33.5062L24.3135 28.5564L19.3643 33.5061C18.1924 34.6776 16.293 34.6776 15.1211 33.5061C13.9502 32.3345 13.9502 30.4351 15.1211 29.2634L20.0713 24.3137L15.1211 19.364C13.9502 18.1925 13.9502 16.293 15.1211 15.1215Z" fill="white"/>
</svg>
