<svg width="1440" height="800" viewBox="0 0 1440 800" fill="none" xmlns="http://www.w3.org/2000/svg">
<g style="mix-blend-mode:lighten" opacity="0.3">
<mask id="mask0_427_16669" style="mask-type:alpha" maskUnits="userSpaceOnUse" x="0" y="-173" width="1441" height="1028">
<path d="M1440.9 854.724L1440.9 -172.444L0.00012207 -172.444L0.00012207 854.724L1440.9 854.724Z" fill="url(#paint0_radial_427_16669)"/>
</mask>
<g mask="url(#mask0_427_16669)">
<path d="M669.173 -502.552L720.458 433.421L771.742 -502.552H669.173Z" fill="white"/>
<path d="M475.695 -471.432L720.459 433.421L576.016 -492.754L475.695 -471.432Z" fill="white"/>
<path d="M292.919 -400.771L720.458 433.421L386.614 -442.493L292.919 -400.771Z" fill="white"/>
<path d="M128.815 -293.656L720.458 433.421L211.79 -353.932L128.815 -293.656Z" fill="white"/>
<path d="M-9.41943 -154.749L720.459 433.421L59.2116 -230.98L-9.41943 -154.749Z" fill="white"/>
<path d="M-115.763 9.841L720.459 433.421L-64.4786 -78.9717L-115.763 9.841Z" fill="white"/>
<path d="M-185.552 192.969L720.458 433.421L-153.862 95.416L-185.552 192.969Z" fill="white"/>
<path d="M-215.749 386.582L720.458 433.421L-205.029 284.583L-215.749 386.582Z" fill="white"/>
<path d="M-205.029 582.259L720.458 433.421L-215.749 480.26L-205.029 582.259Z" fill="white"/>
<path d="M-153.862 771.426L720.458 433.421L-185.552 673.873L-153.862 771.426Z" fill="white"/>
<path d="M-64.4786 945.83L720.459 433.421L-115.763 857.001L-64.4786 945.83Z" fill="white"/>
<path d="M59.2116 1097.82L720.459 433.421L-9.41943 1021.61L59.2116 1097.82Z" fill="white"/>
<path d="M211.79 1220.79L720.458 433.421L128.815 1160.5L211.79 1220.79Z" fill="white"/>
<path d="M386.614 1309.34L720.458 433.421L292.919 1267.61L386.614 1309.34Z" fill="white"/>
<path d="M576.016 1359.61L720.459 433.421L475.695 1338.27L576.016 1359.61Z" fill="white"/>
<path d="M771.742 1369.39L720.458 433.421L669.173 1369.39H771.742Z" fill="white"/>
<path d="M965.222 1338.27L720.458 433.421L864.901 1359.61L965.222 1338.27Z" fill="white"/>
<path d="M1148 1267.61L720.458 433.421L1054.3 1309.34L1148 1267.61Z" fill="white"/>
<path d="M1312.1 1160.5L720.458 433.421L1229.13 1220.79L1312.1 1160.5Z" fill="white"/>
<path d="M1450.34 1021.61L720.458 433.421L1381.71 1097.82L1450.34 1021.61Z" fill="white"/>
<path d="M1556.68 857.001L720.458 433.421L1505.4 945.83L1556.68 857.001Z" fill="white"/>
<path d="M1626.47 673.873L720.458 433.421L1594.78 771.426L1626.47 673.873Z" fill="white"/>
<path d="M1656.67 480.26L720.458 433.421L1645.95 582.259L1656.67 480.26Z" fill="white"/>
<path d="M1645.95 284.583L720.458 433.421L1656.67 386.582L1645.95 284.583Z" fill="white"/>
<path d="M1594.78 95.416L720.458 433.421L1626.47 192.969L1594.78 95.416Z" fill="white"/>
<path d="M1505.4 -78.9717L720.458 433.421L1556.68 9.841L1505.4 -78.9717Z" fill="white"/>
<path d="M1381.71 -230.98L720.458 433.421L1450.34 -154.749L1381.71 -230.98Z" fill="white"/>
<path d="M1229.13 -353.932L720.458 433.421L1312.1 -293.656L1229.13 -353.932Z" fill="white"/>
<path d="M1054.3 -442.493L720.458 433.421L1148 -400.771L1054.3 -442.493Z" fill="white"/>
<path d="M864.901 -492.754L720.458 433.421L965.222 -471.432L864.901 -492.754Z" fill="white"/>
</g>
</g>
<defs>
<radialGradient id="paint0_radial_427_16669" cx="0" cy="0" r="1" gradientUnits="userSpaceOnUse" gradientTransform="translate(720.45 341.14) rotate(90) scale(513.584 720.45)">
<stop/>
<stop offset="1" stop-color="#666666" stop-opacity="0"/>
</radialGradient>
</defs>
</svg>
