<svg width="50" height="53" viewBox="0 0 50 53" fill="none" xmlns="http://www.w3.org/2000/svg">
<g id="Close bt">
<circle id="Ellipse 64" cx="25" cy="27.6187" r="25" fill="url(#paint0_linear_427_17644)"/>
<circle id="Ellipse 60" cx="25" cy="25.6187" r="25" fill="url(#paint1_linear_427_17644)"/>
<path id="Ellipse 65" d="M3 14.6187C6.56568 6.69795 16.758 1.11865 25 1.11865C33.242 1.11865 43.4343 6.69795 47 14.6187C33.6697 -1.38135 16.3306 -1.38135 3 14.6187Z" fill="#FFF2BD"/>
<circle id="Ellipse 61" cx="25" cy="25.6187" r="22" fill="url(#paint2_linear_427_17644)"/>
<circle id="Ellipse 62" cx="25" cy="25.6187" r="21" fill="url(#paint3_linear_427_17644)"/>
<circle id="Ellipse 63" cx="25" cy="25.6187" r="18" fill="url(#paint4_linear_427_17644)"/>
<g id="Union" filter="url(#filter0_i_427_17644)">
<path fill-rule="evenodd" clip-rule="evenodd" d="M32.7992 15.0331C32.0181 14.252 30.7518 14.252 29.9707 15.0331L25.0209 19.9829L20.0713 15.0332C19.2902 14.2521 18.0239 14.2521 17.2428 15.0332L14.4144 17.8616C13.6334 18.6426 13.6334 19.909 14.4144 20.69L19.3641 25.6397L14.4144 30.5894C13.6334 31.3704 13.6334 32.6368 14.4144 33.4178L17.2428 36.2463C18.0239 37.0273 19.2902 37.0273 20.0713 36.2463L25.0209 31.2966L29.9707 36.2464C30.7518 37.0274 32.0181 37.0274 32.7992 36.2464L35.6276 33.4179C36.4087 32.6369 36.4087 31.3706 35.6276 30.5895L30.6778 25.6397L35.6276 20.6899C36.4087 19.9089 36.4087 18.6425 35.6276 17.8615L32.7992 15.0331Z" fill="#754B01"/>
</g>
</g>
<defs>
<filter id="filter0_i_427_17644" x="13.8286" y="14.4473" width="22.3848" height="23.3848" filterUnits="userSpaceOnUse" color-interpolation-filters="sRGB">
<feFlood flood-opacity="0" result="BackgroundImageFix"/>
<feBlend mode="normal" in="SourceGraphic" in2="BackgroundImageFix" result="shape"/>
<feColorMatrix in="SourceAlpha" type="matrix" values="0 0 0 0 0 0 0 0 0 0 0 0 0 0 0 0 0 0 127 0" result="hardAlpha"/>
<feOffset dy="1"/>
<feGaussianBlur stdDeviation="0.85"/>
<feComposite in2="hardAlpha" operator="arithmetic" k2="-1" k3="1"/>
<feColorMatrix type="matrix" values="0 0 0 0 0.381934 0 0 0 0 0.24459 0 0 0 0 0.00260466 0 0 0 1 0"/>
<feBlend mode="normal" in2="shape" result="effect1_innerShadow_427_17644"/>
</filter>
<linearGradient id="paint0_linear_427_17644" x1="25" y1="2.61865" x2="25" y2="52.6187" gradientUnits="userSpaceOnUse">
<stop stop-color="#FFEA38"/>
<stop offset="1" stop-color="#805700"/>
</linearGradient>
<linearGradient id="paint1_linear_427_17644" x1="25" y1="0.618652" x2="25" y2="50.6187" gradientUnits="userSpaceOnUse">
<stop stop-color="#FFEA38"/>
<stop offset="1" stop-color="#BB8600"/>
</linearGradient>
<linearGradient id="paint2_linear_427_17644" x1="25" y1="3.61865" x2="25" y2="47.6187" gradientUnits="userSpaceOnUse">
<stop stop-color="#AC7E00"/>
<stop offset="1" stop-color="#744900"/>
</linearGradient>
<linearGradient id="paint3_linear_427_17644" x1="25" y1="4.61865" x2="25" y2="46.6187" gradientUnits="userSpaceOnUse">
<stop stop-color="#FFEA38"/>
<stop offset="1" stop-color="#DAA000"/>
</linearGradient>
<linearGradient id="paint4_linear_427_17644" x1="25" y1="7.61865" x2="25" y2="43.6187" gradientUnits="userSpaceOnUse">
<stop stop-color="#DAA000"/>
<stop offset="1" stop-color="#FFEA38"/>
</linearGradient>
</defs>
</svg>
