<svg width="380" height="90" fill="none" xmlns="http://www.w3.org/2000/svg"><path d="M.987 8.883C.461 4.145 4.17 0 8.938 0h362.113c4.772 0 8.483 4.151 7.95 8.893l-8.105 72.134a9 9 0 0 1-8.919 7.995l-343.9.956a9 9 0 0 1-8.97-8.006L.988 8.883z" fill="#8A4500"/><path d="M1.038 8.924C.485 4.172 4.2 0 8.984 0h362.032c4.784 0 8.499 4.172 7.946 8.924l-8.139 70A8 8 0 0 1 362.876 86H17.124a8 8 0 0 1-7.947-7.076l-8.14-70z" fill="url(#a)"/><g style="mix-blend-mode:multiply" opacity=".58" filter="url(#b)"><path d="M8.057 10.19A1.5 1.5 0 0 1 9.545 8.5h360.91a1.5 1.5 0 0 1 1.488 1.69l-8.712 68a1.5 1.5 0 0 1-1.488 1.31H18.257a1.5 1.5 0 0 1-1.488-1.31l-8.712-68z" stroke="url(#c)" stroke-width="5"/></g><path d="M5.508 8.404A3.5 3.5 0 0 1 8.984 4.5h362.032a3.5 3.5 0 0 1 3.476 3.904l-8.139 70a3.5 3.5 0 0 1-3.477 3.096H17.124a3.5 3.5 0 0 1-3.477-3.096l-8.14-70z" stroke="url(#d)" stroke-width="9"/><path d="M4.018 8.578A5 5 0 0 1 8.984 3h362.032a5 5 0 0 1 4.966 5.578l-8.139 70A5 5 0 0 1 362.876 83H17.124a5 5 0 0 1-4.967-4.422l-8.14-70z" stroke="url(#e)" stroke-width="6"/><g filter="url(#f)"><path d="M3.7 8.618A5 5 0 0 1 8.662 3h362.676a5 5 0 0 1 4.962 5.618l-8.596 69A5 5 0 0 1 362.742 82H17.258a5 5 0 0 1-4.962-4.382l-8.596-69z" stroke="url(#g)" stroke-width="3"/></g><g filter="url(#h)"><path d="M3.7 8.618A5 5 0 0 1 8.662 3h362.676a5 5 0 0 1 4.962 5.618l-8.596 69A5 5 0 0 1 362.742 82H17.258a5 5 0 0 1-4.962-4.382l-8.596-69z" stroke="url(#i)"/></g><defs><linearGradient id="a" x1="190" y1="0" x2="190" y2="86" gradientUnits="userSpaceOnUse"><stop stop-color="#FFF8BF"/><stop offset="1" stop-color="#FCF191"/></linearGradient><linearGradient id="c" x1="190" y1="6" x2="190" y2="82" gradientUnits="userSpaceOnUse"><stop stop-color="#966905"/><stop offset="1" stop-color="#C09407"/></linearGradient><linearGradient id="d" x1="190" y1="0" x2="190" y2="86" gradientUnits="userSpaceOnUse"><stop stop-color="#BC8307"/><stop offset="1" stop-color="#FFD95E"/></linearGradient><linearGradient id="e" x1="190" y1="0" x2="190" y2="86" gradientUnits="userSpaceOnUse"><stop stop-color="#F6C424"/><stop offset="1" stop-color="#E8A208"/></linearGradient><linearGradient id="g" x1="190" y1="3" x2="190" y2="82" gradientUnits="userSpaceOnUse"><stop stop-color="#FFEAA6"/><stop offset="1" stop-color="#FFC340"/></linearGradient><linearGradient id="i" x1="190" y1="3" x2="190" y2="82" gradientUnits="userSpaceOnUse"><stop stop-color="#FFF2C8"/><stop offset="1" stop-color="#FFC340"/></linearGradient><filter id="b" x="1.544" y="2" width="376.911" height="84" filterUnits="userSpaceOnUse" color-interpolation-filters="sRGB"><feFlood flood-opacity="0" result="BackgroundImageFix"/><feBlend in="SourceGraphic" in2="BackgroundImageFix" result="shape"/><feGaussianBlur stdDeviation="2" result="effect1_foregroundBlur_2001_9747"/></filter><filter id="f" x=".961" y=".3" width="378.079" height="84.4" filterUnits="userSpaceOnUse" color-interpolation-filters="sRGB"><feFlood flood-opacity="0" result="BackgroundImageFix"/><feBlend in="SourceGraphic" in2="BackgroundImageFix" result="shape"/><feGaussianBlur stdDeviation=".6" result="effect1_foregroundBlur_2001_9747"/></filter><filter id="h" x="2.461" y="1.8" width="375.079" height="81.4" filterUnits="userSpaceOnUse" color-interpolation-filters="sRGB"><feFlood flood-opacity="0" result="BackgroundImageFix"/><feBlend in="SourceGraphic" in2="BackgroundImageFix" result="shape"/><feGaussianBlur stdDeviation=".35" result="effect1_foregroundBlur_2001_9747"/></filter></defs></svg>