<svg width="385" height="88" fill="none" xmlns="http://www.w3.org/2000/svg"><path d="M1.95 7.625c.363-2.73 2.605-4.759 5.355-4.904C21.43 1.977 70.413 0 192.064 0 313.867 0 362.82 1.982 376.876 2.724c2.725.144 4.954 2.144 5.328 4.847 1.05 7.582 2.75 23.505 1.299 39.429-1.431 15.698-4.902 28.34-6.774 34.296-.713 2.269-2.764 3.786-5.139 3.894-14.474.66-70.058 2.81-179.526 2.81-109.129 0-164.707-2.137-179.39-2.804-2.438-.11-4.544-1.707-5.24-4.046C5.57 74.891 2.064 61.72.625 47-.838 32.04.902 15.482 1.95 7.625z" fill="url(#a)"/><path d="M2.547 7.97c.192-2.885 2.474-5.113 5.362-5.264C22.38 1.951 71.435 0 192.064 0c120.754 0 169.785 1.955 184.2 2.709 2.866.15 5.138 2.342 5.334 5.205.452 6.587.932 19.19-.423 34.086-1.404 15.43-4.284 28.4-5.879 34.771-.635 2.534-2.871 4.267-5.483 4.32C350.712 81.485 271.767 83 192.064 83c-79.571 0-158.386-1.51-177.654-1.906-2.66-.055-4.922-1.85-5.539-4.44C7.285 69.993 4.368 56.498 2.953 42c-1.372-14.057-.862-27.174-.406-34.03z" fill="url(#b)"/><path d="M192.064 76c23.882 0 154.821-1.905 172-2 0 0-50.5 4-172 4s-172-4-172-4c17.179.095 148.118 2 172 2z" fill="url(#c)" style="mix-blend-mode:screen"/><path d="M4.064 9.274c.381-2.568 2.514-4.399 5.106-4.54C22.675 4.002 70.642 2 192.064 2c121.527 0 169.472 2.004 182.929 2.736 2.576.14 4.697 1.954 5.081 4.505.918 6.1 1.98 18.234-.79 32.759 1.633-17.127-2.061-28.268-3.48-31.795-.324-.805-.923-1.364-1.778-1.511C368.595 7.758 340.037 5 192.064 5 44.535 5 15.706 7.741 10.152 8.685c-.888.151-1.506.735-1.833 1.575C6.897 13.908 3.213 25.3 4.844 42c-2.78-14.23-1.7-26.531-.78-32.726z" fill="url(#d)" style="mix-blend-mode:screen"/><path d="M9.452 14.647c.218-2.743 2.394-4.795 5.142-4.952C27.99 8.932 73.61 7 192.064 7 310.806 7 356.36 8.942 369.632 9.701c2.7.154 4.847 2.151 5.067 4.847.412 5.06.73 14.292-.524 27.452-1.346 14.118-4.048 23.716-5.674 28.49-.742 2.178-2.79 3.545-5.09 3.596C346.184 74.468 272.189 76 192.064 76c-79.851 0-153.613-1.521-171.168-1.91-2.4-.053-4.505-1.534-5.236-3.82-1.622-5.08-4.352-15.072-5.707-28.27-1.277-12.446-.924-22.04-.501-27.353z" fill="url(#e)"/><mask id="g" style="mask-type:alpha" maskUnits="userSpaceOnUse" x="9" y="7" width="366" height="69"><path d="M9.468 14.68c.217-2.757 2.39-4.836 5.15-4.997C27.838 8.91 72.626 7 191.954 7c119.253 0 164.06 1.909 177.309 2.681 2.773.162 4.953 2.258 5.168 5.028.432 5.572.823 15.586-.477 27.291-1.365 12.28-4.125 22.699-5.742 28.08-.715 2.378-2.866 3.958-5.348 4.013-17.817.394-91.339 1.907-170.91 1.907-79.643 0-153.225-1.515-170.958-1.908-2.457-.054-4.593-1.603-5.313-3.952-1.619-5.281-4.368-15.553-5.73-28.14-1.293-11.964-.913-21.836-.484-27.32z" fill="url(#f)"/></mask><g filter="url(#h)" mask="url(#g)"><ellipse cx="193.953" cy="81.5" rx="180" ry="23.5" fill="#01A406"/></g><path d="M13.517 16.854c.195-1.717 1.593-2.947 3.317-3.055C27.587 13.127 71.165 11 192.064 11c120.358 0 164.085 2.108 175.084 2.79 1.8.111 3.237 1.442 3.425 3.235.458 4.376.982 13.248-.399 24.975-1.468 12.474-4.553 22.256-6.091 26.58-.529 1.487-1.88 2.444-3.458 2.481C346.36 71.397 274.023 73 192.064 73c-82.415 0-155.1-1.62-168.794-1.944-1.448-.034-2.72-.85-3.268-2.192-1.553-3.798-4.594-12.69-6.049-26.864-1.342-13.08-.883-21.21-.436-25.146z" fill="url(#i)" style="mix-blend-mode:screen" opacity=".66"/><g style="mix-blend-mode:screen" opacity=".47" filter="url(#j)"><ellipse cx="192.064" cy="18.5" rx="179" ry="6.5" fill="#77FF7B"/></g><defs><linearGradient id="a" x1="192.064" y1="0" x2="192.064" y2="83" gradientUnits="userSpaceOnUse"><stop stop-color="#FDC00F"/><stop offset="1" stop-color="#955C1A"/></linearGradient><linearGradient id="b" x1="192.064" y1="0" x2="192.064" y2="83" gradientUnits="userSpaceOnUse"><stop stop-color="#FDC00F"/><stop offset="1" stop-color="#E9BA02"/></linearGradient><linearGradient id="c" x1="192.064" y1="0" x2="192.064" y2="83" gradientUnits="userSpaceOnUse"><stop stop-color="#FDC00F"/><stop offset="1" stop-color="#E9BA02"/></linearGradient><linearGradient id="d" x1="192.064" y1="0" x2="192.064" y2="83" gradientUnits="userSpaceOnUse"><stop stop-color="#FFD866"/><stop offset="1" stop-color="#FFD73B"/></linearGradient><linearGradient id="e" x1="192.064" y1="5" x2="192.064" y2="78" gradientUnits="userSpaceOnUse"><stop stop-color="#004A02"/><stop offset="1" stop-color="#008C05"/></linearGradient><linearGradient id="f" x1="191.953" y1="5" x2="191.953" y2="78" gradientUnits="userSpaceOnUse"><stop stop-color="#006403"/><stop offset="1" stop-color="#009A05"/></linearGradient><linearGradient id="i" x1="192.064" y1="5" x2="192.064" y2="78" gradientUnits="userSpaceOnUse"><stop stop-color="#009A05"/><stop offset=".485" stop-color="#006403" stop-opacity="0"/></linearGradient><filter id="h" x="6.453" y="50.5" width="375" height="62" filterUnits="userSpaceOnUse" color-interpolation-filters="sRGB"><feFlood flood-opacity="0" result="BackgroundImageFix"/><feBlend in="SourceGraphic" in2="BackgroundImageFix" result="shape"/><feGaussianBlur stdDeviation="3.75" result="effect1_foregroundBlur_2001_8846"/></filter><filter id="j" x="5.564" y="4.5" width="373" height="28" filterUnits="userSpaceOnUse" color-interpolation-filters="sRGB"><feFlood flood-opacity="0" result="BackgroundImageFix"/><feBlend in="SourceGraphic" in2="BackgroundImageFix" result="shape"/><feGaussianBlur stdDeviation="3.75" result="effect1_foregroundBlur_2001_8846"/></filter></defs></svg>