<svg width="264" height="68" fill="none" xmlns="http://www.w3.org/2000/svg"><path d="M1.17 9.763c.562-3.61 2.538-7.76 6.181-8.032C18.32.911 49.112-.007 132-.007c82.307 0 113.246.905 124.415 1.72 3.726.273 5.957 4.58 6.524 8.272.876 5.71 1.61 14.826.5 27.008-.892 9.786-2.577 16.407-4.173 20.741-1.409 3.826-7.757 8.163-11.824 8.447-12.001.838-41.791 1.812-115.442 1.812-75.558 0-104.955-1.025-116.339-1.876-3.791-.284-9.046-4.117-10.426-7.66C3.502 54.009 1.547 47.072.56 36.993-.594 25.175.25 15.683 1.17 9.763z" fill="url(#a)"/><path d="M2.157 9.477c.201-3.51 1.626-7.447 5.132-7.72C17.912.93 48.393-.007 132-.007c82.838 0 113.523.92 124.413 1.74 3.619.274 5.3 4.43 5.476 8.055.22 4.532.183 11.639-.779 22.205-1.348 14.83-4.061 22.844-5.686 26.492-.732 1.644-2.333 2.572-4.13 2.662-9.372.47-43.342 1.846-119.294 1.846-75.063 0-109.121-1.345-118.955-1.829-1.984-.098-3.738-1.203-4.486-3.043-1.627-4.001-4.325-12.357-5.67-26.128-1.024-10.492-1-17.841-.732-22.516z" fill="url(#b)"/><path d="M132 55.993c23.882 0 94.821-1.905 112-2 0 0 9.5 4-112 4s-112-4-112-4c17.179.095 88.118 2 112 2z" fill="url(#c)" style="mix-blend-mode:screen"/><path d="M4.412 8.95c.136-2.885 2.447-5.087 5.33-5.241C23.712 2.96 66.663.993 132 .993c65.365 0 108.325 1.97 122.276 2.717 2.875.154 5.181 2.345 5.316 5.221.297 6.3.296 18.071-2.372 32.062 1.368-14.344-.068-24.489-1.116-29.479-.459-2.188-2.251-3.723-4.474-3.958-9.781-1.038-41.6-3.563-119.63-3.563-77.897 0-109.74 2.516-119.58 3.557-2.249.238-4.058 1.805-4.514 4.02-1.049 5.087-2.498 15.377-1.126 29.423C4.1 27.269 4.111 15.338 4.412 8.95z" fill="url(#d)" style="mix-blend-mode:screen"/><path d="M9.24 12.665c.21-1.743 1.62-2.703 3.374-2.758 15.68-.49 94.582-2.914 119.386-2.914 25.701 0 109.481 2.603 120.833 2.96.866.027 1.576.394 1.76 1.24.431 1.983.814 7.193-.482 20.8-1.63 17.097-5.249 20.938-6.538 21.774-.291.19-.587.229-.934.237-6.732.16-84.462 1.989-114.639 1.989-29.244 0-103.147-1.718-113.815-1.97-.882-.02-1.705-.254-2.28-.923-1.563-1.814-4.571-7.033-6.016-21.107-1.122-10.94-.985-16.53-.649-19.328z" fill="url(#e)"/><mask id="g" style="mask-type:alpha" maskUnits="userSpaceOnUse" x="9" y="6" width="246" height="50"><path d="M9.235 13.032c.218-1.945 1.788-3.14 3.74-3.28 9.962-.713 45-2.76 118.914-2.76 73.377 0 108.44 2.017 118.692 2.744 2.07.146 3.747 1.45 3.967 3.514.329 3.074.451 8.752-.659 18.743-1.392 12.523-4.235 18.27-5.837 20.607-.672.98-1.787 1.444-2.973 1.519-6.974.439-35.691 1.874-113.19 1.874-78.343 0-106.836-1.466-113.41-1.888-1.056-.068-2.044-.447-2.673-1.298-1.585-2.144-4.502-7.724-5.917-20.814-1.117-10.33-.986-15.983-.654-18.961z" fill="url(#f)"/></mask><g filter="url(#h)" mask="url(#g)"><ellipse cx="134" cy="56.493" rx="114" ry="11.5" fill="#01A406"/></g><path d="M13.21 15.189c.17-.97 1.207-1.242 2.188-1.315 7.458-.556 43.018-2.881 116.602-2.881 76.577 0 111.973 2.518 117.373 2.94.502.04.943.235 1.108.711.463 1.341 1.039 5.379-.37 17.349-1.627 13.814-5.235 17.724-6.53 18.704-.297.224-.662.315-1.033.345-3.737.308-27.57 1.95-110.548 1.95-84.38 0-107.6-1.698-110.72-1.964-.269-.023-.523-.018-.782-.093-1.22-.352-4.948-2.762-6.609-18.942-1.088-10.611-.992-15.004-.678-16.804z" fill="url(#i)" style="mix-blend-mode:screen" opacity=".66"/><g style="mix-blend-mode:screen" opacity=".47" filter="url(#j)"><ellipse cx="132" cy="18.493" rx="115" ry="6.5" fill="#77FF7B"/></g><defs><linearGradient id="a" x1="132" y1="-.007" x2="132" y2="82.993" gradientUnits="userSpaceOnUse"><stop stop-color="#FDC00F"/><stop offset="1" stop-color="#955C1A"/></linearGradient><linearGradient id="b" x1="132" y1="-.007" x2="132" y2="82.993" gradientUnits="userSpaceOnUse"><stop stop-color="#FDC00F"/><stop offset="1" stop-color="#E9BA02"/></linearGradient><linearGradient id="c" x1="132" y1="-20.007" x2="132" y2="62.993" gradientUnits="userSpaceOnUse"><stop stop-color="#FDC00F"/><stop offset="1" stop-color="#E9BA02"/></linearGradient><linearGradient id="d" x1="132" y1="-.007" x2="132" y2="82.993" gradientUnits="userSpaceOnUse"><stop stop-color="#FFD866"/><stop offset="1" stop-color="#FFD73B"/></linearGradient><linearGradient id="e" x1="132" y1="4.993" x2="132" y2="77.993" gradientUnits="userSpaceOnUse"><stop stop-color="#004A02"/><stop offset="1" stop-color="#008C05"/></linearGradient><linearGradient id="f" x1="131.889" y1="4.993" x2="131.889" y2="77.993" gradientUnits="userSpaceOnUse"><stop stop-color="#006403"/><stop offset="1" stop-color="#009A05"/></linearGradient><linearGradient id="i" x1="132" y1="4.993" x2="132" y2="77.993" gradientUnits="userSpaceOnUse"><stop stop-color="#009A05"/><stop offset=".485" stop-color="#006403" stop-opacity="0"/></linearGradient><filter id="h" x="12.5" y="37.493" width="243" height="38" filterUnits="userSpaceOnUse" color-interpolation-filters="sRGB"><feFlood flood-opacity="0" result="BackgroundImageFix"/><feBlend in="SourceGraphic" in2="BackgroundImageFix" result="shape"/><feGaussianBlur stdDeviation="3.75" result="effect1_foregroundBlur_2001_13781"/></filter><filter id="j" x="9.5" y="4.493" width="245" height="28" filterUnits="userSpaceOnUse" color-interpolation-filters="sRGB"><feFlood flood-opacity="0" result="BackgroundImageFix"/><feBlend in="SourceGraphic" in2="BackgroundImageFix" result="shape"/><feGaussianBlur stdDeviation="3.75" result="effect1_foregroundBlur_2001_13781"/></filter></defs></svg>