<svg width="823" height="173" fill="none" xmlns="http://www.w3.org/2000/svg"><path d="m216.354 76.301-5.031 24.596c-.611 2.99-8.147 9.339-12.683 11.151-1.365.545-2.861.891-4.122 1.646l-16.039 9.598-3.406 13.671h472.441l-3.38-13.7-15.98-9.602c-1.282-.771-2.806-1.119-4.196-1.67-4.561-1.81-12.091-8.145-12.705-11.148l-5.02-24.542c-4.885-41.286-128.285-38.409-194.939-38.409-66.655 0-190.054-2.877-194.94 38.409z" fill="url(#a)"/><path d="m226.053 103.367.049-.13.033-.135c.268-1.13.601-3.215.989-5.649.209-1.305.433-2.71.672-4.121.71-4.197 1.57-8.61 2.596-11.617.381-1.116.996-2.188 1.764-3.392.161-.252.332-.515.509-.786.622-.955 1.314-2.017 1.884-3.107 1.488-2.846 2.854-5.431 6.484-7.965 3.73-2.601 9.997-5.237 21.47-7.561 22.953-4.65 65.906-7.9 148.79-7.9 82.885 0 125.838 3.25 148.791 7.9 11.473 2.324 17.74 4.96 21.469 7.562 3.631 2.533 4.997 5.118 6.485 7.964.57 1.09 1.262 2.152 1.883 3.106.177.272.348.535.509.787.769 1.204 1.384 2.276 1.765 3.392 1.026 3.008 1.885 7.42 2.596 11.617.239 1.411.463 2.816.671 4.12.389 2.435.722 4.52.99 5.65l.032.136.05.13c2.569 6.81 6.616 10.165 11.515 13.114 1.316.792 2.667 1.545 4.063 2.322 2.291 1.276 4.705 2.62 7.284 4.318H203.215c2.582-1.694 4.99-3.032 7.272-4.3 1.408-.782 2.767-1.537 4.09-2.333 4.89-2.943 8.903-6.29 11.476-13.122z" stroke="url(#b)" stroke-width="4.371"/><path fill-rule="evenodd" clip-rule="evenodd" d="m211.323 100.897 5.031-24.596c4.598-38.86 114.188-38.595 182.633-38.43 4.275.011 8.389.021 12.307.021 3.917 0 8.031-.01 12.306-.02 68.445-.166 178.035-.43 182.633 38.429l5.02 24.542c.614 3.003 8.144 9.338 12.705 11.148.459.182.933.342 1.408.502.963.325 1.93.652 2.788 1.168l15.98 9.602 3.38 13.7H175.073l3.406-13.671 16.039-9.598c.842-.504 1.788-.826 2.73-1.146.47-.16.938-.319 1.392-.5 4.536-1.812 12.072-8.161 12.683-11.151zm199.971-52.078c165.763 0 172.606 12.982 178.681 24.598.517.988 1.129 1.93 1.741 2.87.985 1.514 1.968 3.025 2.548 4.723 1.482 4.347 2.583 11.247 3.381 16.25.375 2.352.684 4.285.934 5.337 2.946 7.808 7.918 10.576 14.471 14.225 3.832 2.133 8.203 4.568 13.026 8.486H196.511c4.852-3.92 9.223-6.348 13.041-8.469 6.562-3.646 11.497-6.387 14.457-14.242.249-1.052.558-2.985.933-5.337.798-5.003 1.899-11.903 3.382-16.25.579-1.698 1.562-3.21 2.547-4.723.612-.94 1.224-1.882 1.741-2.87 6.075-11.616 12.918-24.598 178.682-24.598z" fill="url(#c)"/><path d="m.242 124.486 47.967 5.553 42.66 41.888 36.053-39.592 5.205-.068 5.341-4.079-9.073-15.357-39.306 30.748-34.409-32.736L.242 124.486z" fill="url(#d)"/><path d="m.241 124.486 49.646-5.245 39.51 38.015 38.107-36.027 9.655 7.164-5.033 3.874-5.204.068-36.053 39.592-42.66-41.888L.24 124.486z" fill="url(#e)"/><path d="m127.504 121.229-.582 11.106h5.307l4.93-3.942-9.655-7.164z" fill="url(#f)"/><path d="m90.87 171.927-1.472-14.671 38.107-36.027-.582 11.106-36.053 39.592z" fill="url(#g)"/><path d="m49.887 119.241-1.678 10.798-47.967-5.553 49.645-5.245z" fill="url(#h)"/><path opacity=".5" d="M61.186 117.013c-9.244-6.41-9.073 2.228 5.82 15.837 11.504 10.489 19.174 7.952 14.928 3.942-4.245-4.045-20.748-19.779-20.748-19.779z" fill="#F9A346"/><path d="M65.842 122.977c-.376.377-1.951-.48-3.526-1.954-1.575-1.473-2.568-2.982-2.226-3.359.377-.377 1.952.48 3.527 1.954 1.609 1.44 2.602 2.948 2.225 3.359z" fill="url(#i)"/><path d="M68.478 125.617c-.273.308-.992.068-1.609-.514-.616-.583-.924-1.303-.65-1.577.274-.309.993-.069 1.609.514s.924 1.268.65 1.577z" fill="url(#j)"/><path opacity=".2" d="M54.68 110.843c-7.018 2.742-6.779 5.621-4.793 8.398C35.44 121.092.242 124.52.242 124.52l54.439-13.677z" fill="url(#k)"/><path d="m69.71 138.3 19.687 17.276s18.489-15.802 17.975-15.322c-.513.48-17.975 17.002-17.975 17.002L69.71 138.3z" fill="#F9A346"/><path opacity=".8" d="M118.843 120.304c-8.115 9.701-7.053 15.768-1.336 10.352a3738.058 3738.058 0 0 0-10.716 10.112c4.828-8.227 5.718-15.562-12.77-1.097 6.094-4.765 24.822-19.367 24.822-19.367z" fill="#F9A346"/><path d="m822.466 125.095-47.933 5.484-42.695 41.889-36.018-39.592-5.205-.069-5.341-4.079 9.039-15.357 39.339 30.748 34.375-32.736 54.439 13.712z" fill="url(#l)"/><path d="m822.466 125.095-49.645-5.314-39.477 38.015-38.141-36.026-9.655 7.164 5.067 3.873 5.205.069 36.018 39.592 42.695-41.889 47.933-5.484z" fill="url(#m)"/><path d="m695.203 121.77.616 11.106h-5.341l-4.93-3.942 9.655-7.164z" fill="url(#n)"/><path d="m731.838 172.468 1.507-14.671-38.141-36.027.616 11.106 36.018 39.592z" fill="url(#o)"/><path d="m772.821 119.781 1.712 10.798 47.933-5.484-49.645-5.314z" fill="url(#p)"/><path opacity=".5" d="M761.556 117.554c9.21-6.41 9.073 2.228-5.854 15.836-11.47 10.49-19.14 7.953-14.928 3.942 4.245-4.044 20.782-19.778 20.782-19.778z" fill="#F9A346"/><path d="M756.866 123.518c.377.377 1.952-.48 3.527-1.954 1.575-1.474 2.567-2.982 2.225-3.359-.377-.377-1.952.48-3.526 1.954-1.575 1.439-2.568 2.948-2.226 3.359z" fill="url(#q)"/><path d="M754.264 126.158c.274.308.993.068 1.609-.515.616-.582.924-1.302.65-1.576-.273-.309-.992-.069-1.609.514-.65.582-.924 1.268-.65 1.577z" fill="url(#r)"/><path opacity=".2" d="M768.027 111.383c7.019 2.743 6.78 5.622 4.794 8.399 14.448 1.851 49.645 5.313 49.645 5.313l-54.439-13.712z" fill="url(#s)"/><path d="m753.031 138.841-19.687 17.276s-18.488-15.802-17.975-15.323c.514.48 17.975 17.003 17.975 17.003l19.687-18.956z" fill="#F9A346"/><path opacity=".8" d="M703.866 120.844c8.114 9.701 7.053 15.768 1.335 10.352a3577.753 3577.753 0 0 1 10.717 10.113c-4.828-8.227-5.718-15.563 12.77-1.097-6.06-4.765-24.822-19.368-24.822-19.368z" fill="#F9A346"/><path d="M127.306 118.607h1.577l19.965 33.362c5.071 1.902 51.308 4.805 59.642 1.752 4.167-5.906 12.049-26.876 12.049-34.534-4.82-4.804-14.685-12.887-19.956-24.273 2.41-5.03 5.698-10.286 7.229-13.764 4.393.425 12.727 5.03 12.727 5.03l-2.41 3.929-.879-3.078-2.936-1.051-4.669 2.377s-3.113 7.532-2.586 9.084l10.593 6.081c2.084-.35 3.464-.576 5.548-.926 3.363-6.331 7.58-14.74 10.241-20.37-3.464-4.154-20.332-15.84-28.666-14.039-7.907 3.98-22.818 20.82-30.273 34.584 5.272 6.131 14.484 15.29 14.484 15.29l-3.74 12.412h-28.114c-13.48-10.335-16.492-14.364-20.584-18.718-4.317.3-2.962.15-8.384.45-2.133 2.553-2.897 2.398-7.164 6.402h6.306z" fill="url(#t)"/><path d="M196.817 142.81c1.958-1.652 4.669-5.555 5.598-7.808-1.958 5.956-4.669 9.31-4.669 9.31s-10.794 1.551-29.645-.151c8.534.151 19.378.226 28.716-1.351z" fill="#FFE346"/><path d="m221.769 96.765-8.987-4.254 1.557-6.531-4.694 2.377s-3.113 7.532-2.586 9.084l10.593 6.081c2.084-.35 3.464-.576 5.548-.926 4.267-7.908 7.681-14.69 10.241-20.37l-4.443 2.077-7.229 12.462z" fill="url(#u)"/><path opacity=".15" d="m188.986 118.086-3.74 12.412s8.008 6.106 12.501 13.814c3.389-3.379 9.212-17.092 9.212-25.2-2.661-.15-17.973-1.026-17.973-1.026z" fill="#7A1C0B"/><path d="M197.746 144.312c-14.333 1.026-35.519-.426-44.731-1.026-20.609-15.741-4.167 8.683-4.167 8.683 5.949 1.577 51.308 4.805 59.642 1.752 4.167-5.906 12.049-26.876 12.049-34.534l-13.605-.075c-.427 7.432-5.673 19.369-9.188 25.2z" fill="url(#v)"/><path d="m153.015 143.286-4.167 8.683c5.397 2.027 49.701 4.755 59.19 1.902l.452-.15-10.744-9.409c-14.333 1.026-35.519-.426-44.731-1.026z" fill="url(#w)"/><path opacity=".5" d="M206.959 119.112c-6.577-6.131-14.911-18.793-16.216-23.748l-16.241 7.407c5.271 6.131 14.484 15.29 14.484 15.29l17.973 1.051z" fill="url(#x)"/><path d="m220.564 86.18 2.912-3.654s-8.911-5.255-16.517-7.582c-3.941 2.627-11.999 14.289-16.216 20.395l9.865-.426c2.41-5.03 5.698-10.285 7.229-13.763 4.393.425 12.727 5.03 12.727 5.03z" fill="url(#y)"/><path d="m207.06 97.441 5.698-4.93 9.011 4.254 1.431 5.831-5.547.926-10.593-6.08z" fill="url(#z)"/><path d="M223.476 82.526s-8.911-5.255-16.517-7.582l.879 6.18c4.392.426 12.726 5.03 12.726 5.03l2.912-3.628z" fill="url(#A)"/><path opacity=".5" d="M233.04 81.8c-3.514-3.753-15.312-11.961-23.797-13.513-.05 0-.075-.025-.125-.025-.126-.025-.226-.025-.352-.05-1.732-.15-5.898 2.052-1.832 6.757 4.092 1.451 14.76 6.056 16.517 7.582 2.284.476 4.92 1.276 9.589-.75z" fill="#F9A346"/><path d="M217.451 72.416c-.176.4-1.556.225-3.113-.425-1.556-.65-2.66-1.502-2.485-1.902.176-.4 1.557-.225 3.113.425 1.531.626 2.661 1.477 2.485 1.902z" fill="url(#B)"/><path d="M198.675 109.378c-3.414-5.18-5.924-10.135-7.254-14.039 2.786-4.33 9.363-14.014 10.919-15.815-6.225 5.53-11.07 13.788-12.375 16.14 1.129 3.179 6.125 10.986 8.71 13.714z" fill="#FFE346"/><path opacity=".35" d="m136.573 111.78-8.384.45s21.011 29.829 24.851 31.056c-.703-9.935 4.117-12.788 4.117-12.788-12.852-9.609-20.584-18.718-20.584-18.718z" fill="url(#C)"/><path d="M128.164 112.23 121 118.607h7.883l19.965 33.362 4.167-8.683c-15.463-17.818-24.851-31.056-24.851-31.056z" fill="url(#D)"/><path opacity=".5" d="M145.961 135.003c-8.559-12.262-9.237-21.747-.401-14.114-4.519-3.979-9.037-9.109-9.037-9.109l-8.359.45c4.242 6.406 17.797 22.773 17.797 22.773z" fill="#F9A346"/><path d="M135.318 111.855c-1.757.1-5.999.351-7.154.376.929 1.426 7.054 9.384 7.054 9.384-3.464-5.806-8.384-8.609.1-9.76zM148.371 123.391l8.761 7.107h23.62l-24.775.751-7.606-7.858z" fill="#FFE346"/><path opacity=".35" d="m187.956 121.489-2.711 9.009h-1.933l3.163-9.009h1.481zM634.986 122.432l2.662 8.858h1.933l-3.164-8.984-1.431.126z" fill="#7A1C0B"/><path d="M695.575 119.399h-1.577l-19.97 33.362c-5.071 1.902-51.319 4.805-59.655 1.752-4.168-5.906-12.051-26.876-12.051-34.534 4.82-4.804 14.687-12.887 19.96-24.273-2.41-5.03-5.699-10.286-7.231-13.764-4.394.425-12.729 5.03-12.729 5.03l2.41 3.929.879-3.053 2.937-1.051 4.695 2.377s3.114 7.532 2.586 9.084l-10.595 6.056c-2.084-.35-3.465-.576-5.549-.926-3.364-6.331-7.582-14.74-10.244-20.37 3.465-4.154 20.337-15.84 28.673-14.039 7.884 3.98 22.798 20.82 30.255 34.584-5.273 6.131-14.487 15.29-14.487 15.29l3.741 12.412h28.12c13.483-10.335 16.495-14.364 20.588-18.718 4.318.3 2.963.15 8.386.45 2.159 2.528 2.923 2.398 7.166 6.402h-6.308z" fill="url(#E)"/><path d="M626.048 143.602c-1.958-1.652-4.67-5.556-5.599-7.808 1.959 5.956 4.67 9.309 4.67 9.309s10.796 1.552 29.652-.15c-8.536.15-19.383.225-28.723-1.351z" fill="#FFE346"/><path d="m601.116 97.557 8.989-4.254-1.557-6.531 4.695 2.377s3.114 7.532 2.586 9.084l-10.595 6.081c-2.084-.351-3.465-.576-5.549-.926-4.268-7.908-7.683-14.69-10.244-20.37l4.444 2.077 7.231 12.462z" fill="url(#F)"/><path opacity=".15" d="m633.906 118.878 3.716 12.412s-8.009 6.106-12.503 13.814c-3.39-3.379-9.215-17.092-9.215-25.2 2.662-.15 18.002-1.026 18.002-1.026z" fill="#7A1C0B"/><path d="M625.119 145.103c14.336 1.026 35.527-.425 44.741-1.026 20.613-15.74 4.168 8.684 4.168 8.684-5.95 1.576-51.319 4.805-59.655 1.752-4.168-5.906-12.052-26.877-12.052-34.534l13.609-.075c.426 7.432 5.699 19.369 9.189 25.199z" fill="url(#G)"/><path d="m669.86 144.077 4.168 8.684c-5.398 2.027-49.712 4.755-59.203 1.902l-.452-.15 10.746-9.41c14.336 1.026 35.552-.425 44.741-1.026z" fill="url(#H)"/><path opacity=".5" d="M615.93 119.904c6.578-6.131 14.914-18.793 16.219-23.748l16.219 7.432c-5.272 6.131-14.486 15.29-14.486 15.29l-17.952 1.026z" fill="url(#I)"/><path d="m602.321 86.972-2.937-3.654s8.913-5.255 16.52-7.582c3.942 2.627 12.002 14.289 16.22 20.395l-9.867-.426c-2.411-5.03-5.7-10.285-7.231-13.763-4.369.425-12.705 5.03-12.705 5.03z" fill="url(#J)"/><path d="m615.804 98.233-5.7-4.93-8.988 4.254-1.431 5.831 5.548.926 10.571-6.081z" fill="url(#K)"/><path d="M599.384 83.318s8.913-5.255 16.52-7.582l-.878 6.18c-4.394.426-12.73 5.03-12.73 5.03l-2.912-3.628z" fill="url(#L)"/><path opacity=".5" d="M589.818 82.593c3.515-3.754 15.316-11.962 23.802-13.514.05 0 .076-.025.126-.025.125-.025.226-.025.351-.05 1.733-.15 5.901 2.052 1.833 6.757-4.092 1.451-14.763 6.056-16.521 7.582-2.284.476-4.921 1.276-9.591-.75z" fill="#F9A346"/><path d="M605.435 73.208c.176.4 1.557.225 3.114-.425 1.556-.651 2.661-1.502 2.485-1.902-.175-.4-1.581-.225-3.113.425-1.557.626-2.661 1.477-2.486 1.902z" fill="url(#M)"/><path d="M624.19 110.17c3.415-5.18 5.925-10.135 7.256-14.039-2.787-4.33-9.365-14.014-10.922-15.815 6.227 5.53 11.073 13.788 12.378 16.14-1.129 3.179-6.126 10.986-8.712 13.714z" fill="#FFE346"/><path opacity=".35" d="m686.331 112.572 8.386.45s-21.015 29.829-24.856 31.055c.703-9.934-4.118-12.787-4.118-12.787 12.83-9.61 20.588-18.718 20.588-18.718z" fill="url(#N)"/><path d="m694.717 113.022 7.165 6.377h-7.884l-19.97 33.362-4.168-8.683c15.467-17.818 24.857-31.056 24.857-31.056z" fill="url(#O)"/><path opacity=".5" d="M676.916 135.794c8.562-12.262 9.24-21.746.402-14.114 4.519-3.978 9.038-9.108 9.038-9.108l8.361.45c-4.243 6.406-17.801 22.772-17.801 22.772z" fill="#F9A346"/><path d="M687.562 112.647c1.757.1 6 .35 7.155.375-.929 1.426-7.055 9.384-7.055 9.384 3.49-5.805 8.386-8.608-.1-9.759zM674.53 124.183l-8.787 7.107h-23.601l24.781.751 7.607-7.858z" fill="#FFE346"/><path d="M310.383 1.047c-32.559 18.66-88.959 52.296-88.959 52.296L208.116 47.1s-10.831 1.195-13.472 1.56c9.411 9.098 19.515 18.694 25.723 20.055 20.705-8.234 59.571-27.26 85.261-41.77 30.512 4.25 77.369 19.39 105.14 31.842-19.482-15.871-66.868-42.666-100.385-57.74z" fill="url(#P)"/><path opacity=".2" d="m309.194 12.934-3.566 14.012c30.512 4.25 77.369 19.39 105.14 31.842-19.483-15.871-66.868-42.666-100.385-57.74 3.269 2.556 2.774 9.794-1.189 11.886z" fill="url(#Q)"/><path d="M216.438 67.09c1.419.73 2.608 1.294 3.929 1.593 20.704-8.235 59.571-27.26 85.261-41.77 30.512 4.25 77.369 19.39 105.14 31.842-38.271-21.682-83.081-42.268-101.573-45.82-12.912 7.902-80.176 48.742-92.757 54.154z" fill="#BC4408"/><path d="m309.194 12.934-3.566 14.012c30.512 4.25 77.369 19.391 105.14 31.842-38.272-21.715-83.082-42.3-101.574-45.854z" fill="url(#R)"/><path opacity=".8" d="M288.952 13.565c-9.114 9.463-11.987 16.137 5.085 8.6-16.147 9.662-24.237 14.41-24.237 14.41 6.274-6.309 13.671-19.723 3.929-13.88a3116.906 3116.906 0 0 0 15.223-9.13z" fill="#F9A346"/><path d="M204.748 58.157c7.067 4.682 13.308 8.5 24.403 2.292-4.557 2.755-12.68 6.64-12.68 6.64-3.831-2.125-7.397-5.18-11.723-8.931z" fill="#F9A346"/><path d="M303.251 7.522c.264.498-1.321 1.926-3.567 3.254-2.245 1.295-4.292 1.96-4.557 1.461-.264-.498 1.321-1.926 3.567-3.254 2.212-1.295 4.259-1.959 4.557-1.46z" fill="url(#S)"/><path d="m203.988 47.565 14.563 7.372 2.873-1.594-13.308-6.242-4.128.464z" fill="url(#T)"/><path opacity=".35" d="M208.116 47.1s-10.831 1.196-13.472 1.561c2.377 2.291 4.788 4.615 7.165 6.84.628-2.025 6.241-6.309 11.194-6.11l-4.887-2.29z" fill="#7A1C0B"/><path d="M511.187 1.047c32.526 18.66 88.959 52.263 88.959 52.263l13.308-6.243s10.831 1.196 13.473 1.561c-9.411 9.098-19.516 18.694-25.724 20.055-20.704-8.235-59.571-27.26-85.261-41.77-30.512 4.25-77.369 19.39-105.14 31.842 19.482-15.838 66.868-42.633 100.385-57.708z" fill="url(#U)"/><path opacity=".2" d="m512.342 12.934 3.567 14.012c-30.512 4.25-77.369 19.39-105.14 31.842 19.449-15.871 66.835-42.666 100.385-57.74-3.237 2.556-2.741 9.794 1.188 11.886z" fill="url(#V)"/><path d="M605.133 67.09c-1.42.73-2.609 1.294-3.93 1.593-20.704-8.235-59.571-27.26-85.261-41.77-30.512 4.25-77.369 19.39-105.14 31.842 38.272-21.682 83.082-42.268 101.541-45.82 12.944 7.902 80.208 48.742 92.79 54.154z" fill="#BC4408"/><path d="m512.342 12.934 3.567 14.012c-30.512 4.25-77.369 19.391-105.14 31.842 38.304-21.715 83.114-42.3 101.573-45.854z" fill="url(#W)"/><path opacity=".8" d="M532.584 13.565c9.114 9.463 11.987 16.137-5.085 8.6 16.147 9.662 24.238 14.41 24.238 14.41-6.274-6.309-13.671-19.723-3.93-13.88-7.331-4.382-15.223-9.13-15.223-9.13z" fill="#F9A346"/><path d="M616.822 58.157c-7.067 4.682-13.308 8.5-24.403 2.292 4.557 2.755 12.68 6.64 12.68 6.64 3.831-2.125 7.397-5.18 11.723-8.931z" fill="#F9A346"/><path d="M518.319 7.522c-.264.498 1.321 1.926 3.566 3.254 2.246 1.295 4.293 1.96 4.557 1.461.264-.498-1.321-1.926-3.566-3.254-2.213-1.295-4.26-1.959-4.557-1.46z" fill="url(#X)"/><path d="m617.582 47.565-14.563 7.372-2.873-1.594 13.308-6.242 4.128.464z" fill="url(#Y)"/><path opacity=".35" d="M613.454 47.1s10.831 1.196 13.472 1.561c-2.377 2.291-4.788 4.615-7.165 6.84-.628-2.025-6.241-6.309-11.195-6.11l4.888-2.29z" fill="#7A1C0B"/><path d="m410.88 0 30.313 28.621-30.313 29.95-30.347-29.95L410.88 0z" fill="url(#Z)"/><path d="M410.88 58.57s22.422-22.544 30.314-29.949c-24.634.432-36.984-.199-60.628 0 7.926 7.438 30.314 29.95 30.314 29.95z" fill="#BC4408"/><path d="M433.301 29.053s-16.279 14.975-22.586 21.649c-6.308-6.674-13.638-13.713-22.587-21.649 8.949-7.936 22.587-21.649 22.587-21.649l22.586 21.649z" fill="#BC4408"/><path d="M410.715 7.404v2.557l19.912 19.092h2.674L410.715 7.404z" fill="url(#aa)"/><path d="M388.128 29.053h2.675l19.912 19.092V50.7l-22.587-21.648z" fill="#F9A346"/><path d="M430.627 29.053s-14.365 13.215-19.912 19.092c-5.548-5.877-12.02-12.086-19.912-19.092 7.892-7.006 19.912-19.092 19.912-19.092l19.912 19.092z" fill="url(#ab)"/><path opacity=".3" d="m410.715 48.145-19.912-19.092 13.406-.63s9.94-.134 15.884 0c7.132.165 10.501.63 10.501.63.033 0-19.879 19.092-19.879 19.092z" fill="#712020"/><path d="M420.126 28.422c-3.137 2.79-5.745 5.28-7.958 7.637-2.212-2.358-4.788-4.815-7.958-7.637 3.137-2.79 5.746-5.28 7.958-7.637 2.213 2.358 4.788 4.848 7.958 7.637z" fill="url(#ac)"/><path opacity=".5" d="m390.803 29.053 13.406-.63 7.959 7.636-1.453 12.086-19.912-19.092z" fill="#712020"/><path d="m410.715 9.96 1.453 10.858 7.958 7.604 10.501.63-19.912-19.091z" fill="url(#ad)" style="mix-blend-mode:screen"/><path d="m412.167 20.819 8.486 5.877 9.973 2.357-10.501-.63-7.958-7.604z" fill="#F9CBB2"/><path opacity=".5" d="M413.885 2.856c.594 8.168 9.939 19.922 24.634 23.275a46890.61 46890.61 0 0 0-24.634-23.275z" fill="#F9A346"/><path opacity=".5" d="M410.715 48.145v2.557l22.586-21.649s-1.981.033-2.674 0c-.694-.033-19.912 19.092-19.912 19.092z" fill="url(#ae)"/><path d="M425.31 16.203c-.198.764-2.047-.033-4.095-1.793-2.08-1.76-3.599-3.818-3.401-4.582.198-.764 2.015.033 4.095 1.793 2.08 1.76 3.599 3.818 3.401 4.582z" fill="url(#af)"/><path d="m380.533 28.621 1.255 4.118L410.88 58.57l-30.347-29.95z" fill="url(#ag)"/><path d="m441.194 28.621-1.255 4.118L410.88 58.57l30.314-29.95z" fill="url(#ah)"/><defs><linearGradient id="E" x1="645.267" y1="171.029" x2="645.267" y2="116.75" gradientUnits="userSpaceOnUse"><stop stop-color="#ED480B"/><stop offset=".986" stop-color="#F2B100"/></linearGradient><linearGradient id="a" x1="411.294" y1="9.408" x2="409.605" y2="155.528" gradientUnits="userSpaceOnUse"><stop stop-color="#D31200"/><stop offset="1" stop-color="#420600"/></linearGradient><linearGradient id="c" x1="411.294" y1="37.849" x2="411.294" y2="136.963" gradientUnits="userSpaceOnUse"><stop stop-color="#F6C424"/><stop offset="1" stop-color="#DE9900"/></linearGradient><linearGradient id="d" x1="68.853" y1="116.355" x2="68.853" y2="164.265" gradientUnits="userSpaceOnUse"><stop stop-color="#F2B100"/><stop offset="1" stop-color="#ED480B"/></linearGradient><linearGradient id="e" x1="68.71" y1="119.227" x2="68.71" y2="171.927" gradientUnits="userSpaceOnUse"><stop stop-color="#A32100"/><stop offset="1" stop-color="#D36C05"/></linearGradient><linearGradient id="f" x1="132.564" y1="130.824" x2="126.573" y2="125.555" gradientUnits="userSpaceOnUse"><stop offset=".064" stop-color="#BC4408"/><stop offset="1" stop-color="#7A1C0B"/></linearGradient><linearGradient id="g" x1="88.894" y1="164.798" x2="119.025" y2="137.816" gradientUnits="userSpaceOnUse"><stop stop-color="#7A1C0B"/><stop offset=".936" stop-color="#BC4408"/></linearGradient><linearGradient id="h" x1="44.58" y1="123.889" x2="22.27" y2="127.589" gradientUnits="userSpaceOnUse"><stop stop-color="#7A1C0B"/><stop offset=".936" stop-color="#BC4408"/></linearGradient><linearGradient id="i" x1="62.636" y1="117.431" x2="63" y2="123.223" gradientUnits="userSpaceOnUse"><stop stop-color="#FFF7C4"/><stop offset="1" stop-color="#fff"/></linearGradient><linearGradient id="j" x1="67.645" y1="122.925" x2="68.639" y2="125.583" gradientUnits="userSpaceOnUse"><stop stop-color="#FFF7C4"/><stop offset="1" stop-color="#fff"/></linearGradient><linearGradient id="k" x1=".255" y1="117.67" x2="54.688" y2="117.67" gradientUnits="userSpaceOnUse"><stop stop-color="#7A1C0B"/><stop offset=".936" stop-color="#BC4408"/></linearGradient><linearGradient id="l" x1="753.868" y1="116.895" x2="753.868" y2="164.806" gradientUnits="userSpaceOnUse"><stop stop-color="#F2B100"/><stop offset="1" stop-color="#ED480B"/></linearGradient><linearGradient id="m" x1="754.011" y1="119.767" x2="754.011" y2="172.468" gradientUnits="userSpaceOnUse"><stop stop-color="#A32100"/><stop offset="1" stop-color="#D36C05"/></linearGradient><linearGradient id="n" x1="690.156" y1="131.365" x2="696.147" y2="126.095" gradientUnits="userSpaceOnUse"><stop offset=".064" stop-color="#BC4408"/><stop offset="1" stop-color="#7A1C0B"/></linearGradient><linearGradient id="o" x1="733.827" y1="165.338" x2="703.696" y2="138.356" gradientUnits="userSpaceOnUse"><stop stop-color="#7A1C0B"/><stop offset=".936" stop-color="#BC4408"/></linearGradient><linearGradient id="p" x1="778.137" y1="124.458" x2="800.452" y2="128.159" gradientUnits="userSpaceOnUse"><stop stop-color="#7A1C0B"/><stop offset=".936" stop-color="#BC4408"/></linearGradient><linearGradient id="q" x1="760.085" y1="117.972" x2="759.722" y2="123.764" gradientUnits="userSpaceOnUse"><stop stop-color="#FFF7C4"/><stop offset="1" stop-color="#fff"/></linearGradient><linearGradient id="r" x1="755.076" y1="123.465" x2="754.082" y2="126.124" gradientUnits="userSpaceOnUse"><stop stop-color="#FFF7C4"/><stop offset="1" stop-color="#fff"/></linearGradient><linearGradient id="s" x1="822.466" y1="118.24" x2="768.033" y2="118.24" gradientUnits="userSpaceOnUse"><stop stop-color="#7A1C0B"/><stop offset=".936" stop-color="#BC4408"/></linearGradient><linearGradient id="t" x1="177.615" y1="170.237" x2="177.615" y2="115.958" gradientUnits="userSpaceOnUse"><stop stop-color="#ED480B"/><stop offset=".986" stop-color="#F2B100"/></linearGradient><linearGradient id="u" x1="219.479" y1="102.861" x2="220.241" y2="89.089" gradientUnits="userSpaceOnUse"><stop stop-color="#A32100"/><stop offset="1" stop-color="#D36C05"/></linearGradient><linearGradient id="v" x1="180.744" y1="156.393" x2="181.731" y2="124.714" gradientUnits="userSpaceOnUse"><stop stop-color="#A32100"/><stop offset="1" stop-color="#D36C05"/></linearGradient><linearGradient id="w" x1="133.5" y1="149.194" x2="193.143" y2="149.194" gradientUnits="userSpaceOnUse"><stop offset=".064" stop-color="#BC4408"/><stop offset="1" stop-color="#7A1C0B"/></linearGradient><linearGradient id="x" x1="196.003" y1="120.179" x2="186.863" y2="104.066" gradientUnits="userSpaceOnUse"><stop stop-color="#A32100"/><stop offset="1" stop-color="#D36C05"/></linearGradient><linearGradient id="y" x1="211.327" y1="82.07" x2="204.233" y2="93.675" gradientUnits="userSpaceOnUse"><stop stop-color="#A32100"/><stop offset="1" stop-color="#D36C05"/></linearGradient><linearGradient id="z" x1="211.715" y1="95.012" x2="222.055" y2="103.107" gradientUnits="userSpaceOnUse"><stop stop-color="#7A1C0B"/><stop offset=".936" stop-color="#BC4408"/></linearGradient><linearGradient id="A" x1="215.217" y1="86.271" x2="215.217" y2="79.793" gradientUnits="userSpaceOnUse"><stop stop-color="#7A1C0B"/><stop offset=".936" stop-color="#BC4408"/></linearGradient><linearGradient id="B" x1="211.939" y1="71.472" x2="217.36" y2="71.022" gradientUnits="userSpaceOnUse"><stop stop-color="#fff"/><stop offset="1" stop-color="#FFF7C4"/></linearGradient><linearGradient id="C" x1="154.322" y1="135.414" x2="140.551" y2="124.112" gradientUnits="userSpaceOnUse"><stop stop-color="#A32100"/><stop offset="1" stop-color="#fff"/></linearGradient><linearGradient id="D" x1="121.788" y1="132.103" x2="153.016" y2="132.103" gradientUnits="userSpaceOnUse"><stop stop-color="#D36C05"/><stop offset="1" stop-color="#A32100"/></linearGradient><linearGradient id="b" x1="411.293" y1="48.819" x2="411.095" y2="133.642" gradientUnits="userSpaceOnUse"><stop stop-color="#BC8307"/><stop offset="1" stop-color="#FFD95E"/></linearGradient><linearGradient id="F" x1="603.394" y1="103.653" x2="602.631" y2="89.881" gradientUnits="userSpaceOnUse"><stop stop-color="#A32100"/><stop offset="1" stop-color="#D36C05"/></linearGradient><linearGradient id="G" x1="642.137" y1="157.185" x2="641.15" y2="125.506" gradientUnits="userSpaceOnUse"><stop stop-color="#A32100"/><stop offset="1" stop-color="#D36C05"/></linearGradient><linearGradient id="H" x1="689.391" y1="149.986" x2="629.735" y2="149.986" gradientUnits="userSpaceOnUse"><stop offset=".064" stop-color="#BC4408"/><stop offset="1" stop-color="#7A1C0B"/></linearGradient><linearGradient id="I" x1="626.875" y1="120.97" x2="636.014" y2="104.856" gradientUnits="userSpaceOnUse"><stop stop-color="#A32100"/><stop offset="1" stop-color="#D36C05"/></linearGradient><linearGradient id="J" x1="611.547" y1="82.862" x2="618.641" y2="94.468" gradientUnits="userSpaceOnUse"><stop stop-color="#A32100"/><stop offset="1" stop-color="#D36C05"/></linearGradient><linearGradient id="K" x1="611.159" y1="95.804" x2="600.819" y2="103.901" gradientUnits="userSpaceOnUse"><stop stop-color="#7A1C0B"/><stop offset=".936" stop-color="#BC4408"/></linearGradient><linearGradient id="L" x1="607.657" y1="87.063" x2="607.657" y2="80.585" gradientUnits="userSpaceOnUse"><stop stop-color="#7A1C0B"/><stop offset=".936" stop-color="#BC4408"/></linearGradient><linearGradient id="M" x1="610.935" y1="72.264" x2="605.513" y2="71.813" gradientUnits="userSpaceOnUse"><stop stop-color="#fff"/><stop offset="1" stop-color="#FFF7C4"/></linearGradient><linearGradient id="N" x1="668.565" y1="136.205" x2="682.337" y2="124.9" gradientUnits="userSpaceOnUse"><stop stop-color="#A32100"/><stop offset="1" stop-color="#fff"/></linearGradient><linearGradient id="O" x1="701.106" y1="132.895" x2="669.871" y2="132.895" gradientUnits="userSpaceOnUse"><stop stop-color="#D36C05"/><stop offset="1" stop-color="#A32100"/></linearGradient><linearGradient id="P" x1="302.699" y1="64.068" x2="302.699" y2="23.433" gradientUnits="userSpaceOnUse"><stop stop-color="#ED480B"/><stop offset=".986" stop-color="#F2B100"/></linearGradient><linearGradient id="Q" x1="358.191" y1="54.83" x2="358.191" y2="20.152" gradientUnits="userSpaceOnUse"><stop stop-color="#7A1C0B"/><stop offset=".936" stop-color="#BC4408"/></linearGradient><linearGradient id="R" x1="314.254" y1="21.904" x2="380.104" y2="45.457" gradientUnits="userSpaceOnUse"><stop stop-color="#7A1C0B"/><stop offset=".936" stop-color="#BC4408"/></linearGradient><linearGradient id="S" x1="294.796" y1="9.342" x2="303.363" y2="8.453" gradientUnits="userSpaceOnUse"><stop stop-color="#fff"/><stop offset="1" stop-color="#FFF7C4"/></linearGradient><linearGradient id="T" x1="203.991" y1="51.013" x2="221.428" y2="51.013" gradientUnits="userSpaceOnUse"><stop offset=".064" stop-color="#BC4408"/><stop offset="1" stop-color="#7A1C0B"/></linearGradient><linearGradient id="U" x1="518.87" y1="64.068" x2="518.87" y2="23.433" gradientUnits="userSpaceOnUse"><stop stop-color="#ED480B"/><stop offset=".986" stop-color="#F2B100"/></linearGradient><linearGradient id="V" x1="463.377" y1="54.83" x2="463.377" y2="20.152" gradientUnits="userSpaceOnUse"><stop stop-color="#7A1C0B"/><stop offset=".936" stop-color="#BC4408"/></linearGradient><linearGradient id="W" x1="507.477" y1="23.237" x2="454.362" y2="37.591" gradientUnits="userSpaceOnUse"><stop stop-color="#7A1C0B"/><stop offset=".936" stop-color="#BC4408"/></linearGradient><linearGradient id="X" x1="526.772" y1="9.342" x2="518.206" y2="8.453" gradientUnits="userSpaceOnUse"><stop stop-color="#fff"/><stop offset="1" stop-color="#FFF7C4"/></linearGradient><linearGradient id="Y" x1="617.578" y1="51.013" x2="600.141" y2="51.013" gradientUnits="userSpaceOnUse"><stop offset=".064" stop-color="#BC4408"/><stop offset="1" stop-color="#7A1C0B"/></linearGradient><linearGradient id="Z" x1="410.867" y1="58.586" x2="410.867" y2="0" gradientUnits="userSpaceOnUse"><stop stop-color="#ED480B"/><stop offset=".986" stop-color="#F2B100"/></linearGradient><linearGradient id="aa" x1="411.127" y1="9.127" x2="426.229" y2="23.38" gradientUnits="userSpaceOnUse"><stop stop-color="#7A1C0B"/><stop offset=".936" stop-color="#BC4408"/></linearGradient><linearGradient id="ag" x1="395.706" y1="58.586" x2="395.706" y2="28.628" gradientUnits="userSpaceOnUse"><stop offset=".064" stop-color="#BC4408"/><stop offset="1" stop-color="#7A1C0B"/></linearGradient><linearGradient id="af" x1="417.691" y1="10.047" x2="426.362" y2="13.72" gradientUnits="userSpaceOnUse"><stop stop-color="#fff"/><stop offset="1" stop-color="#FFF7C4"/></linearGradient><linearGradient id="ad" x1="410.715" y1="19.509" x2="430.619" y2="19.509" gradientUnits="userSpaceOnUse"><stop stop-color="#400900"/><stop offset="1" stop-color="#FB8A77"/></linearGradient><linearGradient id="ae" x1="422.001" y1="50.7" x2="422.001" y2="29.054" gradientUnits="userSpaceOnUse"><stop stop-color="#7A1C0B"/><stop offset=".936" stop-color="#BC4408"/></linearGradient><linearGradient id="ah" x1="426.027" y1="58.586" x2="426.027" y2="28.628" gradientUnits="userSpaceOnUse"><stop offset=".064" stop-color="#BC4408"/><stop offset="1" stop-color="#7A1C0B"/></linearGradient><radialGradient id="ac" cx="0" cy="0" r="1" gradientUnits="userSpaceOnUse" gradientTransform="matrix(12.4716 0 0 13.0848 407.428 32.668)"><stop stop-color="#FF6333"/><stop offset="1" stop-color="#C91300"/></radialGradient><radialGradient id="ab" cx="0" cy="0" r="1" gradientUnits="userSpaceOnUse" gradientTransform="matrix(24.5293 0 0 25.7355 419.421 19.773)"><stop stop-color="#FF6333"/><stop offset="1" stop-color="#DE1500"/></radialGradient></defs></svg>