<svg width="655" height="78" fill="none" xmlns="http://www.w3.org/2000/svg"><path d="m84.4 12.117-35.333 3.89-7.814.183-6.037 10.873-6.344 2.236-5.883-8.606-11.615.122L.833 23.541H.68l.398 14.242 3.31 3.768 2.237-4.9 2.482-5.392 2.911-.49 10.266 26.065 44.25-7.412L84.4 12.117z" fill="url(#a)"/><path opacity=".5" d="M66.534 49.421 38.801 34.475l-13.575 2.389-2.942 19.97 44.25-7.413z" fill="url(#b)"/><path d="m52.683 7.89-5.117-3.033L35.4 26.726l-.184.337-6.313 2.236h-.03l-5.915-8.668-6.803.122 9.071 16.11.184-.03 5.179-.919 8.212-1.44L52.683 7.89z" fill="url(#c)"/><path opacity=".5" d="M66.534 49.422 42.142 14.597 50.538.11l31.135 17.672-15.139 31.64z" fill="url(#d)"/><path d="m12.018 30.77-.705-2.267-6.925.612V41.55l4.627-10.138.092-.153 2.911-.49z" fill="url(#e)"/><path d="m12.018 30.769 10.265 26.065 44.25-7.382S23.418 55.915 23.08 55.7c-.337-.214 1.318-13.262 1.257-12.956-.062.307-1.594 10.475-2.299 10.292-.705-.184-10.02-22.267-10.02-22.267z" fill="url(#f)"/><path opacity=".5" d="M4.388 29.115.833 23.54H.68l.398 14.242 3.31 3.767V29.115z" fill="url(#g)"/><path opacity=".5" d="M38.801 34.475s-1.9-4.319-3.401-7.75l-.184.338-6.313 2.236h-.03l-3.647 7.565.183-.03 5.18-.92 8.212-1.44z" fill="url(#h)"/><path opacity=".5" d="M9.015 31.412a167.227 167.227 0 0 1-4.535-2.235l-.123-.062V41.55l4.658-10.138z" fill="url(#i)"/><path d="m570.601 12.117 35.332 3.89 7.815.183 6.037 10.873 6.343 2.236 5.853-8.606 11.645.122 10.541 2.726h.154l-.429 14.242-3.279 3.768-2.237-4.9-2.483-5.392-2.911-.49-10.266 26.065-44.25-7.412-17.865-37.305z" fill="url(#j)"/><path opacity=".5" d="m588.466 49.421 27.733-14.946 13.575 2.389 2.942 19.97-44.25-7.413z" fill="url(#k)"/><path d="m602.317 7.89 5.118-3.033 12.166 21.869.184.337 6.312 2.236h.031l5.914-8.668 6.803.122-9.07 16.11-.184-.03-5.179-.919-8.213-1.44L602.317 7.89z" fill="url(#l)"/><path opacity=".5" d="m588.466 49.422 24.393-34.825L604.463.11l-31.135 17.672 15.138 31.64z" fill="url(#m)"/><path d="m642.982 30.77.705-2.267 6.926.612V41.55l-4.627-10.138-.092-.153-2.912-.49z" fill="url(#n)"/><path d="m642.982 30.769-10.266 26.065-44.25-7.382s43.116 6.463 43.453 6.248c.337-.214-1.317-13.262-1.256-12.956.061.307 1.593 10.475 2.298 10.292.705-.184 10.021-22.267 10.021-22.267z" fill="url(#o)"/><path opacity=".5" d="m650.612 29.115 3.555-5.574h.153l-.429 14.242-3.279 3.767V29.115z" fill="url(#p)"/><path opacity=".5" d="M616.199 34.475s1.9-4.319 3.402-7.75l.184.338 6.312 2.236h.031l3.647 7.565-.184-.03-5.179-.92-8.213-1.44z" fill="url(#q)"/><path opacity=".5" d="M645.985 31.412c1.379-.643 3.953-1.93 4.536-2.235l.122-.062V41.55l-4.658-10.138z" fill="url(#r)"/><path d="m225.639 15.577 21.052-.275c.031.03.031 0 .031 0l80.809-.98h.092l79.031.98 22.86.275C397.43 38.732 363.599 56.59 327.623 68.074h-.092c-35.946-11.485-69.808-29.342-101.892-52.497z" fill="url(#s)"/><path opacity=".5" d="m406.654 15.302-1.931 1.592c-20.102-.367-143.721-2.664-158.001-1.592 0 0 0 .03-.031 0l-21.052.275c32.084 23.155 65.915 41.012 101.892 52.497h.092c35.976-11.485 69.807-29.342 101.891-52.497l-22.86-.275zm-79.062 46.524c-17.437 0-73.117-38.684-73.117-38.684s123.435.43 149.911 0c-16.977 13.263-59.296 38.684-76.794 38.684z" fill="url(#t)"/><path d="m244.087 15.363 2.635-.03h.031l80.809-.98h.092l50.685.642c-8.703 8.178-40.021 35.927-67.325 38.653-28.162 2.787-59.603-30.107-66.927-38.285z" fill="url(#u)" style="mix-blend-mode:screen" opacity=".5"/><path d="m215.373 18.365 13.3 9.617a356.462 356.462 0 0 0 13.79 9.495c26.415 17.397 53.719 30.659 81.391 39.51 0 0 2.053.552 3.707.552 1.257 0 2.85-.337 3.463-.49l.062-.03c.153-.032.214-.062.214-.062 29.51-9.434 58.561-23.89 86.57-43.033.521-.337 1.011-.643 1.501-1.01a8.54 8.54 0 0 0 .95-.644 738.771 738.771 0 0 0 6.16-4.35l13.269-9.586 3.677.061-24.086-.306c-.123.061-.215.184-.337.245-1.165.858-2.39 1.685-3.555 2.512-27.733 19.54-56.968 34.64-87.857 44.533h-.061c-30.675-9.8-59.573-24.686-87.06-43.982-.583-.398-1.195-.796-1.778-1.225-.888-.643-1.746-1.225-2.604-1.869-.123-.06-.215-.183-.338-.245h.95l-21.328.307z" fill="url(#v)"/><path d="m229.224 18.12 6.557-.031c1.563 1.133 3.126 2.266 4.72 3.338 27.488 19.266 56.385 34.182 87.06 43.983h.061c32.36-10.353 62.851-26.432 91.749-47.26h7.354s-40.695 35.376-99.134 51.578c-51.727-12.68-98.367-51.608-98.367-51.608z" fill="url(#w)"/><path opacity=".5" d="M327.531 14.352c38.52-.52 89.297 2.113 91.841 3.798l-92.148-1.133-90.492 1.102h-.95c3.249-2.817 53.474-3.246 91.749-3.767z" fill="url(#x)"/><path d="M385.54 17.721H250.613s75.477-1.378 77.714-1.531c2.268-.123 55.803 1.5 57.213 1.531z" fill="url(#y)"/><defs><linearGradient id="m" x1="603.196" y1="77.838" x2="593.892" y2="21.056" gradientUnits="userSpaceOnUse"><stop stop-color="#E07300"/><stop offset="1" stop-color="#661200"/></linearGradient><linearGradient id="a" x1="51.21" y1="1.096" x2="12.311" y2="79.394" gradientUnits="userSpaceOnUse"><stop stop-color="#BF4A00"/><stop offset=".74" stop-color="#FFAF06"/><stop offset="1" stop-color="#FF9404"/></linearGradient><linearGradient id="c" x1="33.829" y1=".099" x2="35.129" y2="31.386" gradientUnits="userSpaceOnUse"><stop stop-color="#AF4B00"/><stop offset="1" stop-color="#661200"/></linearGradient><linearGradient id="d" x1="61.914" y1="79.764" x2="61.914" y2="37.411" gradientUnits="userSpaceOnUse"><stop stop-color="#E07300"/><stop offset="1" stop-color="#661200"/></linearGradient><linearGradient id="e" x1="8.906" y1="28.515" x2=".417" y2="45.6" gradientUnits="userSpaceOnUse"><stop stop-color="#AF4B00"/><stop offset="1" stop-color="#661200"/></linearGradient><linearGradient id="f" x1="38.398" y1="33.635" x2="33.615" y2="-1.891" gradientUnits="userSpaceOnUse"><stop stop-color="#F1D0D0"/><stop offset="1" stop-color="#FFEF89"/></linearGradient><linearGradient id="g" x1="1.958" y1="27.703" x2="-1.268" y2="3.736" gradientUnits="userSpaceOnUse"><stop stop-color="#F9B900"/><stop offset="1" stop-color="#FFEB67"/></linearGradient><linearGradient id="h" x1="25.207" y1="-5.129" x2="31.602" y2="33.247" gradientUnits="userSpaceOnUse"><stop stop-color="#E07300"/><stop offset="1" stop-color="#661200"/></linearGradient><linearGradient id="i" x1="6.507" y1="31.057" x2=".09" y2="43.972" gradientUnits="userSpaceOnUse"><stop stop-color="#E07300"/><stop offset="1" stop-color="#661200"/></linearGradient><linearGradient id="j" x1="603.79" y1="1.096" x2="642.689" y2="79.394" gradientUnits="userSpaceOnUse"><stop stop-color="#BF4A00"/><stop offset=".74" stop-color="#FFAF06"/><stop offset="1" stop-color="#FF9404"/></linearGradient><linearGradient id="k" x1="624.579" y1="23.366" x2="614.808" y2="44.188" gradientUnits="userSpaceOnUse"><stop stop-color="#F9B900"/><stop offset="1" stop-color="#FFEB67"/></linearGradient><linearGradient id="l" x1="621.171" y1=".099" x2="619.871" y2="31.386" gradientUnits="userSpaceOnUse"><stop stop-color="#AF4B00"/><stop offset="1" stop-color="#661200"/></linearGradient><linearGradient id="b" x1="30.421" y1="23.366" x2="40.192" y2="44.188" gradientUnits="userSpaceOnUse"><stop stop-color="#F9B900"/><stop offset="1" stop-color="#FFEB67"/></linearGradient><linearGradient id="n" x1="646.097" y1="28.515" x2="654.583" y2="45.6" gradientUnits="userSpaceOnUse"><stop stop-color="#AF4B00"/><stop offset="1" stop-color="#661200"/></linearGradient><linearGradient id="o" x1="616.601" y1="33.635" x2="621.385" y2="-1.891" gradientUnits="userSpaceOnUse"><stop stop-color="#F1D0D0"/><stop offset="1" stop-color="#FFEF89"/></linearGradient><linearGradient id="p" x1="653.042" y1="27.703" x2="656.268" y2="3.736" gradientUnits="userSpaceOnUse"><stop stop-color="#F9B900"/><stop offset="1" stop-color="#FFEB67"/></linearGradient><linearGradient id="q" x1="629.793" y1="-5.129" x2="623.398" y2="33.247" gradientUnits="userSpaceOnUse"><stop stop-color="#E07300"/><stop offset="1" stop-color="#661200"/></linearGradient><linearGradient id="r" x1="648.494" y1="31.057" x2="654.91" y2="43.972" gradientUnits="userSpaceOnUse"><stop stop-color="#E07300"/><stop offset="1" stop-color="#661200"/></linearGradient><linearGradient id="s" x1="327.585" y1="81.031" x2="327.585" y2="18.892" gradientUnits="userSpaceOnUse"><stop stop-color="#F9B900"/><stop offset="1" stop-color="#FF9601"/></linearGradient><linearGradient id="t" x1="326.572" y1="5.011" x2="334.186" y2="84.52" gradientUnits="userSpaceOnUse"><stop stop-color="#B41D00"/><stop offset="1" stop-color="#F1D0D0"/></linearGradient><linearGradient id="u" x1="333.879" y1="65.911" x2="315.096" y2="23.85" gradientUnits="userSpaceOnUse"><stop stop-color="#F9B900"/><stop offset="1"/></linearGradient><linearGradient id="v" x1="329.411" y1="-109.756" x2="329.411" y2="85.967" gradientUnits="userSpaceOnUse"><stop stop-color="#933500"/><stop offset=".389" stop-color="#BF4A00"/><stop offset="1" stop-color="#FF9404"/></linearGradient><linearGradient id="w" x1="327.974" y1="-5.488" x2="327.974" y2="80.642" gradientUnits="userSpaceOnUse"><stop stop-color="#AF4B00"/><stop offset="1" stop-color="#661200"/></linearGradient><linearGradient id="x" x1="327.585" y1="12.503" x2="327.585" y2="18.949" gradientUnits="userSpaceOnUse"><stop stop-color="#F9B900"/><stop offset="1" stop-color="#FFEB67"/></linearGradient><linearGradient id="y" x1="385.533" y1="16.957" x2="250.609" y2="16.957" gradientUnits="userSpaceOnUse"><stop stop-color="#F1D0D0"/><stop offset="1" stop-color="#FFEF89"/></linearGradient></defs></svg>