<svg width="1180" height="530" viewBox="0 0 1180 530" fill="none" xmlns="http://www.w3.org/2000/svg">
<g filter="url(#filter0_f_444_19973)">
<path d="M26.5 40C26.5 31.9919 32.9919 25.5 41 25.5H1139C1147.01 25.5 1153.5 31.9919 1153.5 40V489C1153.5 497.008 1147.01 503.5 1139 503.5H41C32.9919 503.5 26.5 497.008 26.5 489V40Z" stroke="url(#paint0_linear_444_19973)" stroke-width="11"/>
</g>
<path d="M19.5 40C19.5 28.1259 29.1259 18.5 41 18.5H1139C1150.87 18.5 1160.5 28.1259 1160.5 40V490C1160.5 501.874 1150.87 511.5 1139 511.5H41C29.1258 511.5 19.5 501.874 19.5 490V40Z" stroke="url(#paint1_linear_444_19973)" stroke-width="7"/>
<path d="M8 40C8 22.3269 22.3269 8 40 8H1140C1157.67 8 1172 22.3269 1172 40V490C1172 507.673 1157.67 522 1140 522H40C22.3269 522 8 507.673 8 490V40Z" stroke="url(#paint2_linear_444_19973)" stroke-width="16"/>
<defs>
<filter id="filter0_f_444_19973" x="5.9" y="4.9" width="1168.2" height="519.2" filterUnits="userSpaceOnUse" color-interpolation-filters="sRGB">
<feFlood flood-opacity="0" result="BackgroundImageFix"/>
<feBlend mode="normal" in="SourceGraphic" in2="BackgroundImageFix" result="shape"/>
<feGaussianBlur stdDeviation="7.55" result="effect1_foregroundBlur_444_19973"/>
</filter>
<linearGradient id="paint0_linear_444_19973" x1="590" y1="6.00069e-07" x2="590" y2="566.676" gradientUnits="userSpaceOnUse">
<stop stop-color="#890000"/>
<stop offset="1" stop-color="#440000"/>
</linearGradient>
<linearGradient id="paint1_linear_444_19973" x1="589.999" y1="-5" x2="589.999" y2="572.848" gradientUnits="userSpaceOnUse">
<stop stop-color="#DE9900"/>
<stop offset="1" stop-color="#F6C424"/>
</linearGradient>
<linearGradient id="paint2_linear_444_19973" x1="590" y1="-20" x2="590" y2="588.293" gradientUnits="userSpaceOnUse">
<stop stop-color="#F6C424"/>
<stop offset="1" stop-color="#C48200"/>
</linearGradient>
</defs>
</svg>
