<svg width="565" height="91" fill="none" xmlns="http://www.w3.org/2000/svg"><path d="m381.726 34.062 1.593-1.133 2.023-1.44 2.972-2.175 1.869-1.347 4.597-3.308 9.04 1.286 1.502.245 20.868 2.94 9.715 1.348 9.622 1.348 1.961.276L494.19.952 513.833.34l.122.03 40.359 3.645 5.148 2.39 5.117 7.87-26.292-.06-5.547 7.687-17.099 23.645-20.808 28.791L482.821 91l-51.268-7.136-15.72-15.743-34.107-34.06z" fill="url(#a)"/><path opacity=".5" d="m463.699 21.29 25.557-17.06c2.299 5.482 4.413 11.822 5.179 17.366 1.808 13.262 5.915 14.242 16.089 21.562a15.041 15.041 0 0 0 5.117 2.39l-20.807 28.79c-4.811-4.9-9.776-10.413-10.266-17.948-.766-12.65 1.593-19.97-13.851-29.25-2.605-1.562-4.934-3.584-7.018-5.85z" fill="url(#b)"/><path opacity=".5" d="m381.726 34.062 1.593-1.133 6.895-4.962 4.597-3.308 9.04 1.286 1.471.215 30.583 4.288c7.63 4.165 14.004 10.873 14.004 10.873l-18.356 42.481-49.827-49.74z" fill="url(#c)"/><path d="m447.488 32.102-1.961-.276-9.622-1.348-9.714-1.347-20.869-2.94-1.502-.246-9.04-1.286-4.596 3.308 59.633 13.384-2.298-9.25h-.031z" fill="url(#d)"/><path d="m513.955.37-.122-.03-19.643.612-46.671 31.15 2.298 9.25.092.03L513.955.37z" fill="url(#e)"/><path d="m538.287 14.214 7.324-4.992 8.703-5.207 5.148 2.39 5.118 7.87-26.293-.06z" fill="url(#f)"/><path d="m538.287 14.214 13.238-3.798 4.229.735 1.624 3.094-19.091-.03z" fill="url(#g)"/><path opacity=".5" d="M538.286 14.214 482.82 91l49.491-82.911 12.932-4.9 9.07.826-16.027 10.2z" fill="url(#h)"/><path d="M532.311 22.484 482.821 91l-51.237-7.136s47.928 4.716 50.379 3.89c2.421-.828 50.348-65.27 50.348-65.27z" fill="url(#i)"/><path d="m381.726 34.062 1.593-1.133 2.053-1.47 2.973-2.175 1.869-1.348 4.597-3.308 9.04 1.287 1.471.214 20.868 2.94-4.964 5.79c-17.62 6.217-13.943 18.958-5.393 33.2l-34.107-33.997z" fill="url(#j)" style="mix-blend-mode:lighten" opacity=".5"/><path d="m183.274 34.062-1.594-1.133-2.022-1.44-2.973-2.175-1.869-1.347-4.597-3.308-9.04 1.286-1.501.245-20.869 2.94-9.714 1.348-9.622 1.348-1.962.276L70.81.952 51.167.34l-.123.03-40.358 3.645-5.149 2.39-5.117 7.87 26.293-.06 5.546 7.687 17.1 23.645 20.807 28.791L82.18 91l51.267-7.136 15.721-15.743 34.107-34.06z" fill="url(#k)"/><path opacity=".5" d="M101.3 21.29 75.743 4.23c-2.298 5.482-4.413 11.822-5.179 17.366-1.808 13.262-5.914 14.242-16.088 21.562a15.051 15.051 0 0 1-5.118 2.39l20.808 28.79c4.81-4.9 9.775-10.413 10.266-17.948.766-12.65-1.594-19.97 13.85-29.25 2.606-1.562 4.934-3.584 7.018-5.85z" fill="url(#l)"/><path opacity=".5" d="m183.274 34.062-1.593-1.133-6.895-4.962-4.597-3.308-9.04 1.286-1.471.215-30.583 4.288c-7.63 4.165-14.004 10.873-14.004 10.873l18.325 42.543 49.858-49.802z" fill="url(#m)"/><path d="M117.511 32.102 70.809.952 51.167.34l-.123.03 64.046 40.981 2.513-9.25h-.092z" fill="url(#n)"/><path d="m174.816 27.967-4.596-3.308-9.04 1.286-1.502.245-20.869 2.94-9.714 1.348-9.622 1.348-1.869.276-2.513 9.25v.03l59.725-13.415z" fill="url(#o)"/><path d="m26.713 14.214-7.324-4.992-8.703-5.207-5.149 2.39-5.117 7.87 26.293-.06z" fill="url(#p)"/><path d="m26.712 14.214-13.238-3.798-4.229.735-1.777 3.094 19.244-.03z" fill="url(#q)"/><path opacity=".5" d="M26.713 14.214 82.179 91l-49.49-77.858-10.45-10.168-10.388 1.041 14.862 10.2z" fill="url(#r)"/><path d="M32.688 22.484 82.178 91l51.238-7.136s-47.928 4.716-50.38 3.89c-2.42-.828-50.348-65.27-50.348-65.27z" fill="url(#s)"/><path d="m183.274 34.062-1.593-1.133-2.053-1.47-2.973-2.175-1.869-1.348-4.597-3.308-9.04 1.287-1.471.214-20.868 3.002 4.964 5.788c17.62 6.218 13.943 18.96 5.393 33.202l34.107-34.06z" fill="url(#t)" style="mix-blend-mode:lighten" opacity=".5"/><path d="M167.154 31.06c0-6.218 5.057-11.272 11.277-11.272 6.221 0 11.277 5.054 11.277 11.272 0 6.217-5.056 11.27-11.277 11.27-6.22.032-11.277-5.022-11.277-11.27z" fill="url(#u)"/><path opacity=".5" d="M170.832 39.36c-1.44-1.593-2.329-3.675-2.329-6.003a8.97 8.97 0 0 1 8.979-8.974 8.97 8.97 0 0 1 8.979 8.974c0 4.809-3.77 8.698-8.52 8.943.154 0 .307.062.46.062 6.221 0 11.277-5.054 11.277-11.272 0-6.217-5.056-11.27-11.277-11.27-6.221 0-11.277 5.053-11.277 11.27.031 3.278 1.471 6.218 3.708 8.27z" fill="url(#v)"/><path d="M175.613 39.605c2.114.521 3.861-3.001 1.164-4.012-2.696-1.01-3.217-2.848-3.677-.827-.46 2.022.337 4.288 2.513 4.84z" fill="url(#w)"/><path d="M397.844 31.06c0-6.218-5.056-11.271-11.277-11.271-6.221 0-11.277 5.053-11.277 11.27 0 6.218 5.056 11.272 11.277 11.272 6.221.03 11.277-5.023 11.277-11.271z" fill="url(#x)"/><path opacity=".5" d="M394.166 39.36c1.441-1.593 2.329-3.675 2.329-6.003a8.969 8.969 0 0 0-8.978-8.974 8.97 8.97 0 0 0-8.979 8.974c0 4.809 3.769 8.698 8.519 8.943-.153 0-.306.062-.46.062-6.22 0-11.277-5.054-11.277-11.272 0-6.217 5.057-11.27 11.277-11.27 6.221 0 11.277 5.053 11.277 11.27-.03 3.278-1.47 6.218-3.708 8.27z" fill="url(#y)"/><path d="M389.386 39.605c-2.114.521-3.861-3.001-1.164-4.012 2.697-1.01 3.218-2.848 3.677-.827.46 2.022-.337 4.288-2.513 4.84z" fill="url(#z)"/><defs><linearGradient id="n" x1="105.632" y1="27.613" x2="48.884" y2="-1.287" gradientUnits="userSpaceOnUse"><stop stop-color="#AF4B00"/><stop offset="1" stop-color="#661200"/></linearGradient><linearGradient id="a" x1="425.757" y1="88.07" x2="480.435" y2="14.273" gradientUnits="userSpaceOnUse"><stop stop-color="#BF4A00"/><stop offset=".729" stop-color="#FFAF06"/><stop offset="1" stop-color="#FF9404"/></linearGradient><linearGradient id="c" x1="473.755" y1="59.949" x2="367.68" y2="49.978" gradientUnits="userSpaceOnUse"><stop stop-color="#B41D00"/><stop offset="1" stop-color="#F1D0D0"/></linearGradient><linearGradient id="d" x1="415.109" y1="32.086" x2="381.732" y2="27.808" gradientUnits="userSpaceOnUse"><stop stop-color="#AF4B00"/><stop offset="1" stop-color="#661200"/></linearGradient><linearGradient id="e" x1="474.941" y1="19.966" x2="441" y2="15.616" gradientUnits="userSpaceOnUse"><stop stop-color="#AF4B00"/><stop offset="1" stop-color="#661200"/></linearGradient><linearGradient id="f" x1="551.542" y1="-8.813" x2="551.41" y2="18.699" gradientUnits="userSpaceOnUse"><stop stop-color="#AF4B00"/><stop offset="1" stop-color="#661200"/></linearGradient><linearGradient id="g" x1="547.942" y1="12.16" x2="548.719" y2="-3.065" gradientUnits="userSpaceOnUse"><stop stop-color="#550900"/><stop offset="1" stop-color="#961E00"/></linearGradient><linearGradient id="h" x1="519.308" y1="-106.641" x2="518.169" y2="129" gradientUnits="userSpaceOnUse"><stop stop-color="#F9B900"/><stop offset="1" stop-color="#FFEB67"/></linearGradient><linearGradient id="i" x1="517.31" y1="-22.12" x2="484.099" y2="48.647" gradientUnits="userSpaceOnUse"><stop stop-color="#F9B900"/><stop offset="1" stop-color="#FFEB67"/></linearGradient><linearGradient id="j" x1="403.453" y1="35.338" x2="410.535" y2="-17.261" gradientUnits="userSpaceOnUse"><stop stop-color="#B41D00"/><stop offset="1" stop-color="#F1D0D0"/></linearGradient><linearGradient id="k" x1="160.287" y1="5.39" x2="66.549" y2="46.383" gradientUnits="userSpaceOnUse"><stop stop-color="#BF4A00"/><stop offset=".729" stop-color="#FFAF06"/><stop offset="1" stop-color="#FF9404"/></linearGradient><linearGradient id="l" x1="55.174" y1="-9.471" x2="75.811" y2="34.503" gradientUnits="userSpaceOnUse"><stop stop-color="#F9B900"/><stop offset="1" stop-color="#FFEB67"/></linearGradient><linearGradient id="m" x1="91.244" y1="59.949" x2="197.322" y2="49.978" gradientUnits="userSpaceOnUse"><stop stop-color="#B41D00"/><stop offset="1" stop-color="#F1D0D0"/></linearGradient><linearGradient id="b" x1="509.825" y1="-9.471" x2="489.187" y2="34.503" gradientUnits="userSpaceOnUse"><stop stop-color="#F9B900"/><stop offset="1" stop-color="#FFEB67"/></linearGradient><linearGradient id="o" x1="177.781" y1="21.044" x2="102.496" y2="42.503" gradientUnits="userSpaceOnUse"><stop stop-color="#AF4B00"/><stop offset="1" stop-color="#661200"/></linearGradient><linearGradient id="p" x1="13.452" y1="-8.813" x2="13.583" y2="18.699" gradientUnits="userSpaceOnUse"><stop stop-color="#AF4B00"/><stop offset="1" stop-color="#661200"/></linearGradient><linearGradient id="q" x1="16.976" y1="12.163" x2="16.202" y2="-3.062" gradientUnits="userSpaceOnUse"><stop stop-color="#550900"/><stop offset="1" stop-color="#961E00"/></linearGradient><linearGradient id="r" x1="46.275" y1="-107.123" x2="47.414" y2="129.09" gradientUnits="userSpaceOnUse"><stop stop-color="#F9B900"/><stop offset="1" stop-color="#FFEB67"/></linearGradient><linearGradient id="s" x1="47.69" y1="-22.12" x2="80.901" y2="48.647" gradientUnits="userSpaceOnUse"><stop stop-color="#F9B900"/><stop offset="1" stop-color="#FFEB67"/></linearGradient><linearGradient id="t" x1="161.547" y1="35.338" x2="154.464" y2="-17.261" gradientUnits="userSpaceOnUse"><stop stop-color="#B41D00"/><stop offset="1" stop-color="#F1D0D0"/></linearGradient><linearGradient id="y" x1="384.949" y1="21.624" x2="387.726" y2="37.904" gradientUnits="userSpaceOnUse"><stop stop-color="#B41D00"/><stop offset="1" stop-color="#F1D0D0"/></linearGradient><linearGradient id="v" x1="180.049" y1="21.624" x2="177.272" y2="37.904" gradientUnits="userSpaceOnUse"><stop stop-color="#B41D00"/><stop offset="1" stop-color="#F1D0D0"/></linearGradient><linearGradient id="w" x1="178.146" y1="36.759" x2="172.963" y2="36.759" gradientUnits="userSpaceOnUse"><stop stop-color="#F1D0D0"/><stop offset="1" stop-color="#FFEF89"/></linearGradient><linearGradient id="z" x1="386.853" y1="36.759" x2="392.039" y2="36.759" gradientUnits="userSpaceOnUse"><stop stop-color="#F1D0D0"/><stop offset="1" stop-color="#FFEF89"/></linearGradient><radialGradient id="x" cx="0" cy="0" r="1" gradientUnits="userSpaceOnUse" gradientTransform="matrix(-18.3635 0 0 -18.3541 390.635 37.979)"><stop offset=".162" stop-color="#FFAF06"/><stop offset=".715" stop-color="#AF4B00"/><stop offset="1" stop-color="#661200"/></radialGradient><radialGradient id="u" cx="0" cy="0" r="1" gradientUnits="userSpaceOnUse" gradientTransform="matrix(18.3635 0 0 18.3541 174.363 37.979)"><stop offset=".162" stop-color="#FFAF06"/><stop offset=".715" stop-color="#AF4B00"/><stop offset="1" stop-color="#661200"/></radialGradient></defs></svg>