<svg width="978" height="600" fill="none" xmlns="http://www.w3.org/2000/svg"><mask id="b" style="mask-type:alpha" maskUnits="userSpaceOnUse" x="10" y="11" width="958" height="579"><path d="M10 41c0-16.569 13.431-30 30-30h898c16.569 0 30 13.431 30 30v519c0 16.569-13.431 30-30 30H40c-16.569 0-30-13.431-30-30V41z" fill="url(#a)"/></mask><g mask="url(#b)"><ellipse cx="489.064" cy="545" rx="843" ry="99" fill="url(#c)"/></g><g opacity=".55" filter="url(#d)"><path d="M34 34h910v532H34V34z" stroke="#000" stroke-width="16"/></g><path d="M43 29c-7.732 0-14 6.268-14 14v514c0 7.732 6.268 14 14 14h892c7.732 0 14-6.268 14-14V43c0-7.732-6.268-14-14-14H43z" stroke="url(#e)" stroke-width="6"/><path d="M43 13c-16.569 0-30 13.431-30 30v514c0 16.569 13.431 30 30 30h892c16.569 0 30-13.431 30-30V43c0-16.569-13.431-30-30-30H43z" stroke="url(#f)" stroke-width="26" stroke-linejoin="round"/><path d="M1 42C1 19.356 19.356 1 42 1h894c22.644 0 41 18.356 41 41v516c0 22.644-18.356 41-41 41H42c-22.644 0-41-18.356-41-41V42z" stroke="url(#g)" stroke-width="2" stroke-linejoin="round"/><defs><linearGradient id="a" x1="489" y1="-79.5" x2="489" y2="590" gradientUnits="userSpaceOnUse"><stop stop-color="#4A0093"/><stop offset="1" stop-color="#120041"/></linearGradient><linearGradient id="e" x1="489" y1="-9.31" x2="475.393" y2="567.679" gradientUnits="userSpaceOnUse"><stop stop-color="#5E0002"/><stop offset="1" stop-color="#C7282B"/></linearGradient><linearGradient id="f" x1="489" y1="-13.638" x2="475.077" y2="573.67" gradientUnits="userSpaceOnUse"><stop stop-color="#FF0C10"/><stop offset="1" stop-color="#7A0002"/></linearGradient><linearGradient id="g" x1="489" y1="-41.451" x2="473.259" y2="599.613" gradientUnits="userSpaceOnUse"><stop stop-color="#FF6568"/><stop offset="1" stop-color="#1A0000"/></linearGradient><radialGradient id="c" cx="0" cy="0" r="1" gradientUnits="userSpaceOnUse" gradientTransform="matrix(843 0 0 99 489.064 545)"><stop stop-color="#0B0020"/><stop offset="1" stop-color="#1C0150" stop-opacity="0"/></radialGradient><filter id="d" x="5.1" y="5.1" width="967.8" height="589.8" filterUnits="userSpaceOnUse" color-interpolation-filters="sRGB"><feFlood flood-opacity="0" result="BackgroundImageFix"/><feBlend in="SourceGraphic" in2="BackgroundImageFix" result="shape"/><feGaussianBlur stdDeviation="10.45" result="effect1_foregroundBlur_2001_10130"/></filter></defs></svg>