<svg xmlns="http://www.w3.org/2000/svg" width="108" height="110" fill="none"><path fill="#E37908" d="M106.008 52.67 57.81 4.473c-2.1-2.1-5.482-2.1-7.563 0L2.05 52.67c-2.1 2.1-2.1 5.483 0 7.563l48.198 48.198c2.1 2.1 5.483 2.1 7.563 0l48.198-48.197c2.1-2.08 2.1-5.464 0-7.564Zm-2.061 5.503L55.749 106.37a2.442 2.442 0 0 1-3.46 0L4.09 58.173a2.444 2.444 0 0 1 0-3.46L52.289 6.513a2.41 2.41 0 0 1 1.73-.72 2.41 2.41 0 0 1 1.73.72l48.198 48.198c.467.466.72 1.07.72 1.73 0 .661-.253 1.283-.72 1.73Z"/><path fill="#2F2626" d="M55.516 7.37c0 .778-.622 1.4-1.4 1.4-.778 0-1.4-.622-1.4-1.4V1.635c0-.778.622-1.4 1.4-1.4.778 0 1.4.622 1.4 1.4V7.37Z"/><path fill="#2F2626" d="M57.616 4.416a3.51 3.51 0 0 1-3.5 3.5 3.51 3.51 0 0 1-3.5-3.5v-1.03c.37-1.536 1.848-2.47 3.5-2.47 1.672 0 3.13.759 3.5 2.314v1.186Z"/><path fill="#615050" d="M57.616 3.5c0 1.945-1.575 3.5-3.5 3.5a3.497 3.497 0 0 1-3.5-3.5c0-1.943 1.575-3.499 3.5-3.499 1.945 0 3.5 1.556 3.5 3.5Z"/></svg>