<svg xmlns="http://www.w3.org/2000/svg" width="193" height="235" fill="none"><path fill="#39818A" d="M192.302 229.771a4.912 4.912 0 0 1-4.919 4.919H5.307a4.912 4.912 0 0 1-4.919-4.919V5.735A4.912 4.912 0 0 1 5.308.816h182.075a4.912 4.912 0 0 1 4.919 4.92V229.77Z"/><path fill="#2C757A" d="M190.94 2.333s-1.711 1.556-4.647 4.492C157.401 35.697 1.884 233.31 1.826 233.252a4.893 4.893 0 0 0 3.48 1.438h182.076a4.912 4.912 0 0 0 4.918-4.919V5.736a4.96 4.96 0 0 0-1.36-3.402Z"/><path fill="#43A4AB" d="M77.262 96.824c30.097-30.097 78.936-59.903 109.014-90l4.627-4.51a4.904 4.904 0 0 0-3.539-1.517H5.308c-1.108 0-2.138.37-2.955.992l-.544.467 4.607 4.55 70.846 90.018Z"/><path fill="#28676B" d="M104.881 97.64c-31.419 31.418-67.065 99.545-98.504 131.022 0 0-4.49 4.511-4.569 4.569.895.933 1.925 1.439 3.306 1.439h182.619c1.167-.059 2.509-.7 3.247-1.595l-4.724-4.413-81.375-131.023Z"/><path fill="#39818A" d="M186.294 6.824H6.396v221.858h179.898V6.824Z"/><path fill="#28676B" d="M6.396 228.682V6.824h179.898l-7.136 7.136L6.396 228.682Z"/><path fill="#2C757A" d="M6.396 228.682V6.824l7.116 7.136 119.454 83.272L13.512 221.547l-7.116 7.135Z"/><path fill="#43A4AB" d="m6.396 228.683 7.116-7.135L104.84 97.233l74.317 124.315 7.136 7.135H6.396Z"/><path fill="#23BE62" d="M179.162 13.96H13.516v207.606h165.646V13.959Z"/><path fill="#0F8D38" d="M155.828 37.293H36.844v160.945h118.984V37.293Z"/><path fill="#0D0D0D" d="M36.845 198.217V37.292H155.83l-2.916 2.916L36.845 198.217Z" opacity=".2"/><path fill="#F4F1F3" d="M152.911 40.207H39.759v155.112h113.152V40.207Z"/><path fill="#0D0D0D" d="M18.509 19.503h160.65V13.96H13.512v207.587h4.997V19.502Z" opacity=".2"/><path fill="#4CC7CB" d="M105.938 3.597c0 .622-.505 1.147-1.147 1.147H7.057A1.15 1.15 0 0 1 5.91 3.597 1.15 1.15 0 0 1 7.057 2.45h97.734c.622.02 1.147.525 1.147 1.147Z"/><path fill="#43A4AB" d="M2.603 128.222a1.149 1.149 0 0 1-1.147-1.147V9.254a1.15 1.15 0 0 1 1.147-1.147 1.15 1.15 0 0 1 1.148 1.147v117.821c0 .622-.525 1.147-1.148 1.147Z"/><path fill="#4CC7CB" d="M184.232 3.85a1.15 1.15 0 0 1-1.147 1.147h-36.23a1.15 1.15 0 0 1-1.147-1.147 1.15 1.15 0 0 1 1.147-1.147h36.249c.622 0 1.128.506 1.128 1.147ZM99.757 224.851c0-1.03.836-1.886 1.886-1.886h74.442c1.031 0 1.886.836 1.886 1.886a1.887 1.887 0 0 1-1.886 1.886h-74.461a1.871 1.871 0 0 1-1.867-1.886Z"/><path fill="#28676B" d="M189.27 62.391a1.15 1.15 0 0 1 1.147 1.147v163.686a1.15 1.15 0 0 1-1.147 1.147 1.149 1.149 0 0 1-1.147-1.147V63.538c.019-.641.525-1.147 1.147-1.147Z"/><path fill="#225260" d="M186.314 231.869c0 .622-.505 1.147-1.147 1.147H99.604a1.15 1.15 0 0 1-1.147-1.147 1.15 1.15 0 0 1 1.147-1.147h85.563c.622 0 1.147.505 1.147 1.147Z"/><path fill="#4CC7CB" d="M32.897 224.851c0-1.03.836-1.886 1.885-1.886h57.764c1.03 0 1.886.836 1.886 1.886a1.887 1.887 0 0 1-1.886 1.886H34.782a1.888 1.888 0 0 1-1.885-1.886Z"/><path fill="#0D0D0D" d="M47.05 47.498h105.861v-7.291H39.759v155.092h7.291V47.498Z" opacity=".2"/><path fill="#000" d="M13.374 13.499h166v208h-166z"/></svg>