<svg xmlns="http://www.w3.org/2000/svg" width="193" height="194" fill="none"><path fill="#1A663C" d="M192.928 188.672a4.911 4.911 0 0 1-4.919 4.918H5.017a4.911 4.911 0 0 1-4.92-4.918V5.679A4.912 4.912 0 0 1 5.018.76h182.992a4.912 4.912 0 0 1 4.919 4.92v182.992Z"/><path fill="#105227" d="M191.548 2.277c-.058.02-189.952 189.953-190.03 189.875a4.89 4.89 0 0 0 3.48 1.439H187.99a4.912 4.912 0 0 0 4.919-4.919V5.68c.02-1.322-.505-2.508-1.361-3.403Z"/><path fill="#248647" d="m97.036 96.767 94.49-94.49A4.903 4.903 0 0 0 187.988.76H4.996c-1.109 0-2.14.37-2.956.992l94.996 95.015Z"/><path fill="#0F4322" d="M96.533 97.583c-31.497 31.497-63.518 63.071-95.015 94.568.894.933 1.925 1.439 3.305 1.439H188.38c1.167-.058 2.508-.7 3.247-1.594L96.533 97.583Z"/><path fill="#1A663C" d="M179.785 13.886H13.202v166.583h166.583V13.886Z"/><path fill="#0F4322" d="M13.202 180.469V13.886h166.583L13.202 180.469Z"/><path fill="#105227" d="M13.202 180.469V13.886l83.291 83.291-83.291 83.292Z"/><path fill="#248647" d="m13.202 180.466 83.291-83.291 83.292 83.291H13.202Z"/><path fill="#E8E3E3" d="M171.581 22.09H21.407v150.173h150.174V22.089Z"/><path fill="#000" d="M30.738 31.42H171.58v-9.333H21.406v150.174h9.332V31.42Z" opacity=".2"/><path fill="#2CA751" d="M144.497 6.227a2.195 2.195 0 0 1-2.197 2.197H12.657a2.195 2.195 0 0 1-2.197-2.197c0-1.205.973-2.197 2.197-2.197H142.32c1.206 0 2.178.992 2.178 2.197ZM180.157 6.227a2.195 2.195 0 0 1-2.197 2.197h-25.1a2.195 2.195 0 0 1-2.197-2.197c0-1.205.972-2.197 2.197-2.197h25.1c1.225 0 2.197.992 2.197 2.197ZM65.892 176.949c0-.953.778-1.731 1.73-1.731h102.754c.953 0 1.73.778 1.73 1.731 0 .952-.777 1.73-1.73 1.73H67.623c-.953 0-1.73-.778-1.73-1.73Z"/><path fill="#0B3618" d="M12.97 189.703c0-.953.778-1.73 1.73-1.73h165.631c.952 0 1.73.777 1.73 1.73s-.778 1.73-1.73 1.73H14.701c-.953.02-1.731-.758-1.731-1.73Z"/><path fill="#0F4322" d="M186.864 104.701c.952 0 1.73.778 1.73 1.731v74.231c0 .953-.778 1.73-1.73 1.73a1.734 1.734 0 0 1-1.731-1.73v-74.231c0-.953.778-1.731 1.731-1.731Z"/><path fill="#2CA751" d="M37.644 176.949c0-.953.778-1.731 1.73-1.731h19.89c.953 0 1.73.778 1.73 1.731 0 .952-.777 1.73-1.73 1.73h-19.89c-.952 0-1.73-.778-1.73-1.73Z"/><path fill="#248647" d="M7.487 138.667a2.195 2.195 0 0 1-2.197-2.197V15.344c0-1.205.973-2.197 2.197-2.197 1.206 0 2.197.972 2.197 2.197V136.47a2.195 2.195 0 0 1-2.197 2.197Z"/><path fill="#111" d="M20.75 21.424h152v152h-152z"/></svg>