<svg xmlns="http://www.w3.org/2000/svg" width="184" height="250" fill="none"><path fill="#82301B" d="M183.844 244.28a4.912 4.912 0 0 1-4.919 4.918H4.913a4.912 4.912 0 0 1-4.919-4.918V5.037A4.912 4.912 0 0 1 4.914.118h174.011a4.912 4.912 0 0 1 4.919 4.92V244.28Z"/><path fill="#722110" d="M182.482 1.635c-.059.02-180.992 246.203-181.05 246.125a4.89 4.89 0 0 0 3.48 1.439h174.012a4.912 4.912 0 0 0 4.919-4.919V5.038a4.961 4.961 0 0 0-1.361-3.403Z"/><path fill="#9C3621" d="M93.591 139.618s46.099-94.84 77.129-126.376c0 0 11.724-11.587 11.744-11.626a4.905 4.905 0 0 0-3.539-1.517H4.914c-1.109 0-2.139.37-2.956.992l11.16 12.132 80.473 126.395Z"/><path fill="#682111" d="M96.43 153.191c-31.497 31.497-63.518 63.072-95.015 94.568.894.934 1.925 1.439 3.305 1.439h174.595c1.166-.058 2.508-.7 3.247-1.594l-11.841-11.529-74.29-82.884Z"/><path fill="#82301B" d="M7.52 241.674 8.027 7.739l168.179.078.039 233.935-168.723-.078Z"/><path fill="#682111" d="M13.12 236.074 8.026 7.739l168.179.078-13.688 13.63L13.12 236.073Z"/><path fill="#722110" d="M7.52 241.674 8.027 7.739 131.318 137.41 7.521 241.674Z"/><path fill="#9C3621" d="m7.52 241.674 88.892-88.891 66.106 75.087 13.726 13.882-168.723-.078Z"/><path fill="#FFA098" d="M162.516 21.447H21.323v206.424h141.193V21.447Z"/><path fill="#E76861" d="M141.128 42.833h-98.42v163.65h98.42V42.833Z"/><path fill="#C74040" d="M42.709 206.483V42.833h98.419l-1.944 1.944-94.531 159.761-1.944 1.945Z"/><path fill="#E8E3E3" d="M139.184 44.779h-94.53V204.54h94.53V44.779Z"/><path fill="#000" d="M23.832 24.595h138.684v-3.15H21.324V227.87h2.508V24.595Z" opacity=".2"/><path fill="#BB3821" d="M128.296 2.393c0 .797-.642 1.439-1.439 1.439H7.634a1.435 1.435 0 0 1-1.439-1.44c0-.796.642-1.438 1.44-1.438h119.222c.797 0 1.439.642 1.439 1.439ZM136.801 236.598a2.124 2.124 0 0 1-2.119 2.119H23.158a2.124 2.124 0 0 1-2.119-2.119c0-1.166.953-2.119 2.12-2.119h111.523c1.166 0 2.119.933 2.119 2.119Z"/><path fill="#5D190D" d="M135.276 13.63c0 1.166-.952 2.119-2.119 2.119H21.634a2.124 2.124 0 0 1-2.12-2.12c0-1.166.953-2.119 2.12-2.119h111.523c1.167 0 2.119.934 2.119 2.12ZM175.93 245.6c0 .797-.642 1.439-1.439 1.439H55.269a1.436 1.436 0 0 1-1.439-1.439c0-.797.642-1.439 1.439-1.439H174.49c.797 0 1.439.642 1.439 1.439ZM43.468 245.6c0 .797-.642 1.439-1.439 1.439H16.093a1.436 1.436 0 0 1-1.439-1.439c0-.797.642-1.439 1.44-1.439h25.935c.797 0 1.44.642 1.44 1.439Z"/><path fill="#9C3621" d="M2.987 171.641a1.435 1.435 0 0 1-1.439-1.439V7.797c0-.798.642-1.44 1.439-1.44S4.426 7 4.426 7.798v162.405c-.02.798-.661 1.439-1.44 1.439Z"/><path fill="#BB3821" d="M175.523 2.277c0 .797-.642 1.438-1.439 1.438h-31.03a1.436 1.436 0 0 1-1.439-1.438c0-.798.642-1.44 1.439-1.44h31.03c.797 0 1.439.642 1.439 1.44Z"/><path fill="#682111" d="M180.15 59.377c.952 0 1.73.778 1.73 1.73v123.285c0 .953-.778 1.73-1.73 1.73a1.734 1.734 0 0 1-1.731-1.73V61.107c-.019-.952.758-1.73 1.731-1.73Z"/><path fill="#000" d="M50.48 50.606h88.698v-5.833h-94.53v159.762h5.832V50.605Z" opacity=".2"/><path fill="#000" d="M20.502 21.419h142v208h-142z"/></svg>