<svg width="1284" height="89" viewBox="0 0 1284 89" fill="none" xmlns="http://www.w3.org/2000/svg">
<g style="mix-blend-mode:screen">
<path d="M563.982 78.2325C579.319 78.2325 591.753 65.7989 591.753 50.4611C591.753 35.1234 579.319 22.6897 563.982 22.6897C548.644 22.6897 536.21 35.1234 536.21 50.4611C536.21 65.7989 548.644 78.2325 563.982 78.2325Z" fill="url(#paint0_radial_496_21019)"/>
</g>
<g style="mix-blend-mode:screen">
<path d="M260.136 89C283.616 89 302.651 69.9657 302.651 46.4857C302.651 23.0057 283.616 3.97144 260.136 3.97144C236.656 3.97144 217.622 23.0057 217.622 46.4857C217.622 69.9657 236.656 89 260.136 89Z" fill="url(#paint1_radial_496_21019)"/>
</g>
<g style="mix-blend-mode:screen">
<path d="M134.871 86.0286C158.351 86.0286 177.385 66.9943 177.385 43.5143C177.385 20.0343 158.351 1 134.871 1C111.391 1 92.3567 20.0343 92.3567 43.5143C92.3567 66.9943 111.391 86.0286 134.871 86.0286Z" fill="url(#paint2_radial_496_21019)"/>
</g>
<g style="mix-blend-mode:screen">
<path d="M1149.11 85.4983C1172.59 85.4983 1191.62 66.464 1191.62 42.984C1191.62 19.504 1172.59 0.469727 1149.11 0.469727C1125.63 0.469727 1106.59 19.504 1106.59 42.984C1106.59 66.464 1125.63 85.4983 1149.11 85.4983Z" fill="url(#paint3_radial_496_21019)"/>
</g>
<g style="mix-blend-mode:screen">
<path d="M1015.33 86.2656C1037.39 86.2656 1055.27 68.3826 1055.27 46.3227C1055.27 24.2629 1037.39 6.37988 1015.33 6.37988C993.268 6.37988 975.385 24.2629 975.385 46.3227C975.385 68.3826 993.268 86.2656 1015.33 86.2656Z" fill="url(#paint4_radial_496_21019)"/>
</g>
<path fill-rule="evenodd" clip-rule="evenodd" d="M36.5894 57.331C36.5894 57.9187 28.5323 60.0004 18.6139 60.0004C8.67103 60.0004 0.613892 57.7473 0.613892 57.331C0.613892 56.6943 9.74859 53.9024 9.74859 53.9024C9.74859 53.9024 26.7935 53.0698 28.4098 53.3147C29.3159 53.4616 36.5894 56.9391 36.5894 57.331Z" fill="url(#paint5_radial_496_21019)"/>
<path fill-rule="evenodd" clip-rule="evenodd" d="M10.8749 55.6165L9.23413 59.5348C9.23413 59.5348 18.9321 60.7103 26.5729 59.4858V56.1552L10.8749 55.6165Z" fill="#7F668D"/>
<path fill-rule="evenodd" clip-rule="evenodd" d="M29.3159 49.1022C29.3159 51.7961 28.2873 54.294 26.573 56.1308C18.7118 58.3838 11.2179 56.0083 10.8996 55.6165C9.45468 53.8287 8.59753 51.5757 8.59753 49.1022C8.59753 43.3716 13.2506 38.7185 18.9567 38.7185C24.6628 38.743 29.3159 43.3716 29.3159 49.1022Z" fill="#FFFFA9"/>
<path d="M33.8219 58.3597C29.9525 54.3434 27.479 59.3148 27.479 59.3148C27.479 59.3148 29.0463 59.1923 31.2015 58.8985C33.3321 58.6291 33.8219 58.3597 33.8219 58.3597Z" fill="white"/>
<path fill-rule="evenodd" clip-rule="evenodd" d="M152.528 57.9143C152.528 58.502 144.471 60.5836 134.528 60.5836C124.585 60.5836 116.528 58.3306 116.528 57.9143C116.528 57.2775 125.663 54.4857 125.663 54.4857C125.663 54.4857 142.708 53.653 144.324 53.8979C145.255 54.0449 152.528 57.5224 152.528 57.9143Z" fill="url(#paint6_radial_496_21019)"/>
<path fill-rule="evenodd" clip-rule="evenodd" d="M126.814 56.1994L125.173 60.1178C125.173 60.1178 134.871 61.2933 142.512 60.0688V56.7382L126.814 56.1994Z" fill="#7F668D"/>
<path fill-rule="evenodd" clip-rule="evenodd" d="M145.255 49.6855C145.255 52.4038 144.226 54.8773 142.512 56.714C134.651 58.9671 127.157 56.5916 126.838 56.1997C125.393 54.412 124.536 52.1589 124.536 49.6855C124.536 43.9548 129.189 39.3018 134.895 39.3018C140.602 39.3263 145.255 43.9548 145.255 49.6855Z" fill="#FFFFA9"/>
<path d="M149.761 58.9426C145.891 54.9263 143.418 59.8977 143.418 59.8977C143.418 59.8977 144.985 59.7753 147.14 59.4814C149.295 59.1875 149.761 58.9426 149.761 58.9426Z" fill="white"/>
<path fill-rule="evenodd" clip-rule="evenodd" d="M278.822 58.9025C278.822 59.4903 270.765 61.5719 260.822 61.5719C250.879 61.5719 242.822 59.3189 242.822 58.9025C242.822 58.2658 251.957 55.474 251.957 55.474C251.957 55.474 269.002 54.6413 270.618 54.8862C271.549 55.0331 278.822 58.5107 278.822 58.9025Z" fill="url(#paint7_radial_496_21019)"/>
<path fill-rule="evenodd" clip-rule="evenodd" d="M253.108 57.1877L251.467 61.1061C251.467 61.1061 261.165 62.2816 268.806 61.0571V57.7265L253.108 57.1877Z" fill="#7F668D"/>
<path fill-rule="evenodd" clip-rule="evenodd" d="M271.549 50.6981C271.549 53.392 270.52 55.89 268.806 57.7267C260.945 59.9798 253.451 57.6043 253.132 57.2124C251.687 55.4247 250.83 53.1716 250.83 50.6981C250.83 44.9675 255.483 40.3145 261.189 40.3145C266.896 40.3145 271.549 44.9675 271.549 50.6981Z" fill="#FFFFA9"/>
<path d="M276.055 59.9309C272.185 55.9146 269.712 60.886 269.712 60.886C269.712 60.886 271.279 60.7636 273.434 60.4697C275.565 60.2248 276.055 59.9309 276.055 59.9309Z" fill="white"/>
<path fill-rule="evenodd" clip-rule="evenodd" d="M430.047 59.5716C430.047 60.1593 421.99 62.241 412.047 62.241C402.104 62.241 394.047 59.9879 394.047 59.5716C394.047 58.9349 403.181 56.143 403.181 56.143C403.181 56.143 420.226 55.3104 421.843 55.5553C422.749 55.7022 430.047 59.1797 430.047 59.5716Z" fill="url(#paint8_radial_496_21019)"/>
<path fill-rule="evenodd" clip-rule="evenodd" d="M404.332 57.8568L402.692 61.7751C402.692 61.7751 412.389 62.9506 420.03 61.7262V58.3955L404.332 57.8568Z" fill="#7F668D"/>
<path fill-rule="evenodd" clip-rule="evenodd" d="M422.749 51.3428C422.749 54.0367 421.72 56.5346 420.006 58.3714C412.145 60.6244 404.651 58.2489 404.332 57.8571C402.887 56.0693 402.03 53.8163 402.03 51.3428C402.03 45.6122 406.683 40.9591 412.389 40.9591C418.12 40.9836 422.749 45.6122 422.749 51.3428Z" fill="#FFFFA9"/>
<path d="M427.255 60.6C423.385 56.5836 420.912 61.5551 420.912 61.5551C420.912 61.5551 422.479 61.4326 424.634 61.1388C426.765 60.8694 427.255 60.6 427.255 60.6Z" fill="white"/>
<path fill-rule="evenodd" clip-rule="evenodd" d="M580.512 59.5716C580.512 60.1593 572.455 62.241 562.512 62.241C552.569 62.241 544.536 59.9879 544.536 59.5716C544.536 58.9349 553.671 56.143 553.671 56.143C553.671 56.143 570.716 55.3104 572.332 55.5553C573.238 55.7022 580.512 59.1797 580.512 59.5716Z" fill="url(#paint9_radial_496_21019)"/>
<path fill-rule="evenodd" clip-rule="evenodd" d="M554.798 57.8568L553.157 61.7751C553.157 61.7751 562.855 62.9506 570.496 61.7262V58.3955L554.798 57.8568Z" fill="#7F668D"/>
<path fill-rule="evenodd" clip-rule="evenodd" d="M573.238 51.3428C573.238 54.0367 572.21 56.5346 570.495 58.3714C562.634 60.6244 555.14 58.2489 554.822 57.8571C553.377 56.0693 552.52 53.8163 552.52 51.3428C552.52 45.6122 557.173 40.9591 562.879 40.9591C568.61 40.9836 573.238 45.6122 573.238 51.3428Z" fill="#FFFFA9"/>
<path d="M577.744 60.6C573.875 56.5836 571.401 61.5551 571.401 61.5551C571.401 61.5551 572.969 61.4326 575.124 61.1388C577.255 60.8694 577.744 60.6 577.744 60.6Z" fill="white"/>
<path fill-rule="evenodd" clip-rule="evenodd" d="M731.345 60.5716C731.345 61.1593 723.288 63.241 713.369 63.241C703.426 63.241 695.369 60.9879 695.369 60.5716C695.369 59.9349 704.504 57.143 704.504 57.143C704.504 57.143 721.549 56.3104 723.165 56.5553C724.071 56.7022 731.345 60.1797 731.345 60.5716Z" fill="url(#paint10_radial_496_21019)"/>
<path fill-rule="evenodd" clip-rule="evenodd" d="M705.63 58.8568L703.99 62.7751C703.99 62.7751 713.688 63.9506 721.328 62.7262V59.3955L705.63 58.8568Z" fill="#7F668D"/>
<path fill-rule="evenodd" clip-rule="evenodd" d="M724.071 52.3428C724.071 55.0367 723.043 57.5346 721.328 59.3714C713.467 61.6244 705.973 59.2489 705.655 58.8571C704.21 57.0693 703.353 54.8163 703.353 52.3428C703.353 46.6122 708.006 41.9591 713.712 41.9591C719.418 41.9836 724.071 46.6122 724.071 52.3428Z" fill="#FFFFA9"/>
<path d="M728.577 61.6C724.708 57.5836 722.234 62.5551 722.234 62.5551C722.234 62.5551 723.802 62.4326 725.957 62.1388C728.112 61.8449 728.577 61.6 728.577 61.6Z" fill="white"/>
<path fill-rule="evenodd" clip-rule="evenodd" d="M882.153 59.5716C882.153 60.1593 874.095 62.241 864.153 62.241C854.21 62.241 846.153 59.9879 846.153 59.5716C846.153 58.9349 855.287 56.143 855.287 56.143C855.287 56.143 872.332 55.3104 873.948 55.5553C874.879 55.7022 882.153 59.1797 882.153 59.5716Z" fill="url(#paint11_radial_496_21019)"/>
<path fill-rule="evenodd" clip-rule="evenodd" d="M856.438 57.8568L854.798 61.7751C854.798 61.7751 864.496 62.9506 872.136 61.7262V58.3955L856.438 57.8568Z" fill="#7F668D"/>
<path fill-rule="evenodd" clip-rule="evenodd" d="M874.879 51.3428C874.879 54.0367 873.85 56.5346 872.136 58.3714C864.275 60.6244 856.781 58.2489 856.463 57.8571C855.018 56.0693 854.161 53.8163 854.161 51.3428C854.161 45.6122 858.814 40.9591 864.52 40.9591C870.25 40.9836 874.879 45.6122 874.879 51.3428Z" fill="#FFFFA9"/>
<path d="M879.385 60.6C875.516 56.5836 873.042 61.5551 873.042 61.5551C873.042 61.5551 874.61 61.4326 876.765 61.1388C878.895 60.8694 879.385 60.6 879.385 60.6Z" fill="white"/>
<path fill-rule="evenodd" clip-rule="evenodd" d="M1032.99 58.1024C1032.99 58.6902 1024.93 60.7718 1015.01 60.7718C1005.07 60.7718 997.01 58.5188 997.01 58.1024C997.01 57.4657 1006.14 54.6739 1006.14 54.6739C1006.14 54.6739 1023.19 53.8412 1024.81 54.0861C1025.71 54.233 1032.99 57.7106 1032.99 58.1024Z" fill="url(#paint12_radial_496_21019)"/>
<path fill-rule="evenodd" clip-rule="evenodd" d="M1007.27 56.3879L1005.63 60.3063C1005.63 60.3063 1015.33 61.4818 1022.97 60.2573V56.9267L1007.27 56.3879Z" fill="#7F668D"/>
<path fill-rule="evenodd" clip-rule="evenodd" d="M1025.71 49.8736C1025.71 52.5675 1024.68 55.0655 1022.97 56.9022C1015.11 59.1553 1007.61 56.7798 1007.3 56.3879C1005.85 54.6002 1004.99 52.3471 1004.99 49.8736C1004.99 44.143 1009.65 39.49 1015.35 39.49C1021.06 39.5145 1025.71 44.143 1025.71 49.8736Z" fill="#FFFFA9"/>
<path d="M1030.22 59.1308C1026.35 55.1145 1023.88 60.0859 1023.88 60.0859C1023.88 60.0859 1025.44 59.9635 1027.6 59.6696C1029.73 59.4002 1030.22 59.1308 1030.22 59.1308Z" fill="white"/>
<path fill-rule="evenodd" clip-rule="evenodd" d="M1167.79 57.7264C1167.79 58.3142 1159.74 60.3958 1149.79 60.3958C1139.85 60.3958 1131.79 58.1428 1131.79 57.7264C1131.79 57.0897 1140.93 54.2979 1140.93 54.2979C1140.93 54.2979 1157.97 53.4652 1159.59 53.7101C1160.52 53.857 1167.79 57.3346 1167.79 57.7264Z" fill="url(#paint13_radial_496_21019)"/>
<path fill-rule="evenodd" clip-rule="evenodd" d="M1142.08 56.0116L1140.44 59.93C1140.44 59.93 1150.14 61.1055 1157.78 59.881V56.5504L1142.08 56.0116Z" fill="#7F668D"/>
<path fill-rule="evenodd" clip-rule="evenodd" d="M1160.52 49.4977C1160.52 52.216 1159.49 54.6895 1157.78 56.5262C1149.92 58.7793 1142.42 56.4038 1142.1 56.0119C1140.66 54.2242 1139.8 51.9711 1139.8 49.4977C1139.8 43.767 1144.45 39.114 1150.16 39.114C1155.89 39.1385 1160.52 43.767 1160.52 49.4977Z" fill="#FFFFA9"/>
<path d="M1165.03 58.7548C1161.16 54.7385 1158.68 59.7099 1158.68 59.7099C1158.68 59.7099 1160.25 59.5875 1162.41 59.2936C1164.54 59.0242 1165.03 58.7548 1165.03 58.7548Z" fill="white"/>
<path fill-rule="evenodd" clip-rule="evenodd" d="M1283.74 58.682C1283.74 59.2697 1275.68 61.3514 1265.76 61.3514C1255.82 61.3514 1247.76 59.0983 1247.76 58.682C1247.76 58.0452 1256.9 55.2534 1256.9 55.2534C1256.9 55.2534 1273.94 54.4208 1275.56 54.6657C1276.46 54.8126 1283.74 58.2901 1283.74 58.682Z" fill="url(#paint14_radial_496_21019)"/>
<path fill-rule="evenodd" clip-rule="evenodd" d="M1258.02 56.9919L1256.38 60.9102C1256.38 60.9102 1266.08 62.0857 1273.72 60.8613V57.5306L1258.02 56.9919Z" fill="#7F668D"/>
<path fill-rule="evenodd" clip-rule="evenodd" d="M1276.46 50.4776C1276.46 53.1715 1275.43 55.6694 1273.72 57.5062C1265.86 59.7592 1258.36 57.3837 1258.05 56.9919C1256.6 55.2041 1255.74 52.9511 1255.74 50.4776C1255.74 44.747 1260.4 40.0939 1266.1 40.0939C1271.81 40.0939 1276.46 44.747 1276.46 50.4776Z" fill="#FFFFA9"/>
<path d="M1280.97 59.7104C1277.1 55.694 1274.63 60.6655 1274.63 60.6655C1274.63 60.6655 1276.19 60.543 1278.35 60.2491C1280.48 60.0042 1280.97 59.7104 1280.97 59.7104Z" fill="white"/>
<defs>
<radialGradient id="paint0_radial_496_21019" cx="0" cy="0" r="1" gradientUnits="userSpaceOnUse" gradientTransform="translate(563.97 50.4628) scale(27.7668 27.7668)">
<stop stop-color="#FC8F00"/>
<stop offset="0.0472" stop-color="#E88300"/>
<stop offset="0.1985" stop-color="#AB6100"/>
<stop offset="0.349" stop-color="#774400"/>
<stop offset="0.495" stop-color="#4C2B00"/>
<stop offset="0.6358" stop-color="#2B1900"/>
<stop offset="0.7698" stop-color="#130B00"/>
<stop offset="0.8943" stop-color="#050300"/>
<stop offset="1"/>
</radialGradient>
<radialGradient id="paint1_radial_496_21019" cx="0" cy="0" r="1" gradientUnits="userSpaceOnUse" gradientTransform="translate(260.133 46.4948) scale(42.5087 42.5087)">
<stop stop-color="#FC8F00"/>
<stop offset="0.0472" stop-color="#E88300"/>
<stop offset="0.1985" stop-color="#AB6100"/>
<stop offset="0.349" stop-color="#774400"/>
<stop offset="0.495" stop-color="#4C2B00"/>
<stop offset="0.6358" stop-color="#2B1900"/>
<stop offset="0.7698" stop-color="#130B00"/>
<stop offset="0.8943" stop-color="#050300"/>
<stop offset="1"/>
</radialGradient>
<radialGradient id="paint2_radial_496_21019" cx="0" cy="0" r="1" gradientUnits="userSpaceOnUse" gradientTransform="translate(134.876 43.5087) scale(42.5086 42.5087)">
<stop stop-color="#FC8F00"/>
<stop offset="0.0472" stop-color="#E88300"/>
<stop offset="0.1985" stop-color="#AB6100"/>
<stop offset="0.349" stop-color="#774400"/>
<stop offset="0.495" stop-color="#4C2B00"/>
<stop offset="0.6358" stop-color="#2B1900"/>
<stop offset="0.7698" stop-color="#130B00"/>
<stop offset="0.8943" stop-color="#050300"/>
<stop offset="1"/>
</radialGradient>
<radialGradient id="paint3_radial_496_21019" cx="0" cy="0" r="1" gradientUnits="userSpaceOnUse" gradientTransform="translate(1149.11 42.9821) scale(42.5087 42.5087)">
<stop stop-color="#FC8F00"/>
<stop offset="0.0472" stop-color="#E88300"/>
<stop offset="0.1985" stop-color="#AB6100"/>
<stop offset="0.349" stop-color="#774400"/>
<stop offset="0.495" stop-color="#4C2B00"/>
<stop offset="0.6358" stop-color="#2B1900"/>
<stop offset="0.7698" stop-color="#130B00"/>
<stop offset="0.8943" stop-color="#050300"/>
<stop offset="1"/>
</radialGradient>
<radialGradient id="paint4_radial_496_21019" cx="0" cy="0" r="1" gradientUnits="userSpaceOnUse" gradientTransform="translate(1015.33 46.3105) scale(39.9365 39.9365)">
<stop stop-color="#FC8F00"/>
<stop offset="0.0472" stop-color="#E88300"/>
<stop offset="0.1985" stop-color="#AB6100"/>
<stop offset="0.349" stop-color="#774400"/>
<stop offset="0.495" stop-color="#4C2B00"/>
<stop offset="0.6358" stop-color="#2B1900"/>
<stop offset="0.7698" stop-color="#130B00"/>
<stop offset="0.8943" stop-color="#050300"/>
<stop offset="1"/>
</radialGradient>
<radialGradient id="paint5_radial_496_21019" cx="0" cy="0" r="1" gradientUnits="userSpaceOnUse" gradientTransform="translate(18.6016 56.6404) scale(13.0247 11.0514)">
<stop stop-color="#DDDBF1"/>
<stop offset="1" stop-color="#B7A3BC"/>
</radialGradient>
<radialGradient id="paint6_radial_496_21019" cx="0" cy="0" r="1" gradientUnits="userSpaceOnUse" gradientTransform="translate(134.536 57.2224) scale(13.0247 11.0514)">
<stop stop-color="#DDDBF1"/>
<stop offset="1" stop-color="#B7A3BC"/>
</radialGradient>
<radialGradient id="paint7_radial_496_21019" cx="0" cy="0" r="1" gradientUnits="userSpaceOnUse" gradientTransform="translate(260.837 58.2192) scale(13.0247 11.0514)">
<stop stop-color="#DDDBF1"/>
<stop offset="1" stop-color="#B7A3BC"/>
</radialGradient>
<radialGradient id="paint8_radial_496_21019" cx="0" cy="0" r="1" gradientUnits="userSpaceOnUse" gradientTransform="translate(412.051 58.8869) scale(13.0247 11.0514)">
<stop stop-color="#DDDBF1"/>
<stop offset="1" stop-color="#B7A3BC"/>
</radialGradient>
<radialGradient id="paint9_radial_496_21019" cx="0" cy="0" r="1" gradientUnits="userSpaceOnUse" gradientTransform="translate(562.532 58.8869) scale(13.0247 11.0514)">
<stop stop-color="#DDDBF1"/>
<stop offset="1" stop-color="#B7A3BC"/>
</radialGradient>
<radialGradient id="paint10_radial_496_21019" cx="0" cy="0" r="1" gradientUnits="userSpaceOnUse" gradientTransform="translate(713.352 59.8869) scale(13.0247 11.0514)">
<stop stop-color="#DDDBF1"/>
<stop offset="1" stop-color="#B7A3BC"/>
</radialGradient>
<radialGradient id="paint11_radial_496_21019" cx="0" cy="0" r="1" gradientUnits="userSpaceOnUse" gradientTransform="translate(864.173 58.8869) scale(13.0246 11.0514)">
<stop stop-color="#DDDBF1"/>
<stop offset="1" stop-color="#B7A3BC"/>
</radialGradient>
<radialGradient id="paint12_radial_496_21019" cx="0" cy="0" r="1" gradientUnits="userSpaceOnUse" gradientTransform="translate(1014.99 57.4141) scale(13.0247 11.0514)">
<stop stop-color="#DDDBF1"/>
<stop offset="1" stop-color="#B7A3BC"/>
</radialGradient>
<radialGradient id="paint13_radial_496_21019" cx="0" cy="0" r="1" gradientUnits="userSpaceOnUse" gradientTransform="translate(1149.81 57.0379) scale(13.0247 11.0514)">
<stop stop-color="#DDDBF1"/>
<stop offset="1" stop-color="#B7A3BC"/>
</radialGradient>
<radialGradient id="paint14_radial_496_21019" cx="0" cy="0" r="1" gradientUnits="userSpaceOnUse" gradientTransform="translate(1265.75 57.9991) scale(13.0247 11.0514)">
<stop stop-color="#DDDBF1"/>
<stop offset="1" stop-color="#B7A3BC"/>
</radialGradient>
</defs>
</svg>
