<svg width="556" height="113" fill="none" xmlns="http://www.w3.org/2000/svg"><path d="M514.826 91.688a8 8 0 0 1-7.491 5.19H48.423a8 8 0 0 1-7.49-5.19l-24-64c-1.962-5.23 1.904-10.81 7.49-10.81h506.912c5.586 0 9.452 5.58 7.491 10.81l-24 64z" fill="url(#a)"/><path d="m511.907 89.24 6.919 2.653a14.001 14.001 0 0 1-13.072 8.986H49.004a14 14 0 0 1-13.072-8.986l-23.397-61c-3.516-9.169 3.252-19.014 13.072-19.014H529.15c9.82 0 16.588 9.845 13.072 19.014m-30.316 58.346 30.316-58.346m-30.316 58.346 6.919 2.654m-6.919-2.654 6.919 2.654m23.397-61-23.397 61m23.397-61-23.397 61" stroke="url(#b)" stroke-width="16"/><path d="M507.335 104.879a16 16 0 0 0 14.981-10.382l24-64c3.923-10.46-3.81-21.618-14.981-21.618H24.423c-11.171 0-18.904 11.158-14.981 21.618l24 64a16 16 0 0 0 14.98 10.382h458.913z" stroke="url(#c)" stroke-width="16"/><defs><linearGradient id="a" x1="277.879" y1="106.879" x2="277.879" y2="16.879" gradientUnits="userSpaceOnUse"><stop stop-color="#640800"/><stop offset="1" stop-color="#AA0E00"/></linearGradient><linearGradient id="b" x1="277.879" y1="106.879" x2="277.879" y2="16.879" gradientUnits="userSpaceOnUse"><stop stop-color="#CD1100"/><stop offset="1" stop-color="#5D0700"/></linearGradient><linearGradient id="c" x1="277.879" y1="106.879" x2="277.879" y2="16.879" gradientUnits="userSpaceOnUse"><stop stop-color="#850B00"/><stop offset="1" stop-color="#CD1100"/></linearGradient></defs></svg>