<svg xmlns="http://www.w3.org/2000/svg" width="508" height="461" fill="none"><path fill="url(#a)" d="M82.366 4.922a4.661 4.661 0 0 1-4.66 4.66 4.661 4.661 0 0 1-4.66-4.66 4.661 4.661 0 0 1 4.66-4.66 4.661 4.661 0 0 1 4.66 4.66Z"/><path fill="url(#b)" d="M52.448 4.922a4.661 4.661 0 0 1-4.66 4.66 4.661 4.661 0 0 1-4.66-4.66 4.661 4.661 0 0 1 4.66-4.66 4.661 4.661 0 0 1 4.66 4.66Z"/><path fill="url(#c)" d="M182.675 4.922a4.66 4.66 0 0 1-4.659 4.66 4.662 4.662 0 0 1-4.66-4.66 4.662 4.662 0 0 1 4.66-4.66 4.66 4.66 0 0 1 4.659 4.66Z"/><path fill="url(#d)" d="M152.757 4.922a4.662 4.662 0 0 1-4.66 4.66 4.66 4.66 0 0 1-4.659-4.66 4.66 4.66 0 0 1 4.659-4.66 4.662 4.662 0 0 1 4.66 4.66Z"/><path fill="url(#e)" d="M272.984 4.922a4.66 4.66 0 0 1-4.659 4.66 4.662 4.662 0 0 1-4.66-4.66 4.662 4.662 0 0 1 4.66-4.66 4.66 4.66 0 0 1 4.659 4.66Z"/><path fill="url(#f)" d="M243.066 4.922a4.662 4.662 0 0 1-4.66 4.66 4.66 4.66 0 0 1-4.659-4.66 4.66 4.66 0 0 1 4.659-4.66 4.662 4.662 0 0 1 4.66 4.66Z"/><path fill="url(#g)" d="M363.293 4.922a4.66 4.66 0 0 1-4.659 4.66 4.662 4.662 0 0 1-4.66-4.66 4.662 4.662 0 0 1 4.66-4.66 4.66 4.66 0 0 1 4.659 4.66Z"/><path fill="url(#h)" d="M333.375 4.922a4.662 4.662 0 0 1-4.66 4.66 4.66 4.66 0 0 1-4.659-4.66 4.66 4.66 0 0 1 4.659-4.66 4.662 4.662 0 0 1 4.66 4.66Z"/><path fill="url(#i)" d="M463.602 4.922a4.66 4.66 0 0 1-4.659 4.66 4.662 4.662 0 0 1-4.66-4.66 4.662 4.662 0 0 1 4.66-4.66 4.66 4.66 0 0 1 4.659 4.66Z"/><path fill="url(#j)" d="M433.684 4.922a4.662 4.662 0 0 1-4.66 4.66 4.66 4.66 0 0 1-4.659-4.66 4.66 4.66 0 0 1 4.659-4.66 4.662 4.662 0 0 1 4.66 4.66Z"/><path fill="url(#k)" d="M4.772 154.872a4.662 4.662 0 0 1-4.66-4.66 4.66 4.66 0 0 1 4.66-4.659 4.66 4.66 0 0 1 4.66 4.659 4.662 4.662 0 0 1-4.66 4.66Z"/><path fill="url(#l)" d="M4.772 124.954a4.662 4.662 0 0 1-4.66-4.66 4.662 4.662 0 0 1 4.66-4.66 4.662 4.662 0 0 1 4.66 4.66 4.662 4.662 0 0 1-4.66 4.66Z"/><path fill="url(#m)" d="M502.916 154.872a4.662 4.662 0 0 1-4.66-4.66 4.66 4.66 0 1 1 4.66 4.66Z"/><path fill="url(#n)" d="M502.916 124.954a4.662 4.662 0 0 1-4.66-4.66 4.662 4.662 0 0 1 4.66-4.66 4.661 4.661 0 0 1 4.659 4.66 4.661 4.661 0 0 1-4.659 4.66Z"/><path fill="url(#o)" d="M4.774 65.255a4.661 4.661 0 0 1-4.66-4.66 4.661 4.661 0 0 1 4.66-4.659 4.661 4.661 0 0 1 4.66 4.66 4.661 4.661 0 0 1-4.66 4.66Z"/><path fill="url(#p)" d="M502.916 65.255a4.662 4.662 0 0 1-4.66-4.66 4.662 4.662 0 0 1 4.66-4.659 4.66 4.66 0 0 1 4.659 4.66 4.66 4.66 0 0 1-4.659 4.66Z"/><path fill="url(#q)" d="M4.807 246.335a4.662 4.662 0 0 1-4.66-4.66 4.66 4.66 0 0 1 4.66-4.659 4.66 4.66 0 0 1 4.66 4.659 4.662 4.662 0 0 1-4.66 4.66Z"/><path fill="url(#r)" d="M4.807 216.416a4.66 4.66 0 0 1-4.66-4.659 4.662 4.662 0 0 1 4.66-4.66 4.662 4.662 0 0 1 4.66 4.66 4.66 4.66 0 0 1-4.66 4.659Z"/><path fill="url(#s)" d="M502.95 246.335a4.662 4.662 0 0 1-4.66-4.66 4.66 4.66 0 1 1 4.66 4.66Z"/><path fill="url(#t)" d="M502.95 216.416a4.661 4.661 0 0 1-4.66-4.659 4.662 4.662 0 0 1 4.66-4.66 4.66 4.66 0 0 1 0 9.319Z"/><path fill="url(#u)" d="M4.841 337.797a4.66 4.66 0 0 1-4.66-4.659 4.662 4.662 0 0 1 4.66-4.66 4.662 4.662 0 0 1 4.66 4.66 4.66 4.66 0 0 1-4.66 4.659Z"/><path fill="url(#v)" d="M4.841 307.879a4.662 4.662 0 0 1-4.66-4.66 4.66 4.66 0 0 1 4.66-4.659 4.66 4.66 0 0 1 4.66 4.659 4.662 4.662 0 0 1-4.66 4.66Z"/><path fill="url(#w)" d="M4.841 426.236a4.662 4.662 0 0 1-4.66-4.66 4.66 4.66 0 0 1 4.66-4.659 4.66 4.66 0 0 1 4.66 4.659 4.662 4.662 0 0 1-4.66 4.66Z"/><path fill="url(#x)" d="M4.841 396.317a4.66 4.66 0 0 1-4.66-4.659 4.662 4.662 0 0 1 4.66-4.66 4.662 4.662 0 0 1 4.66 4.66 4.66 4.66 0 0 1-4.66 4.659Z"/><path fill="url(#y)" d="M502.985 337.797a4.661 4.661 0 0 1-4.66-4.659 4.662 4.662 0 0 1 4.66-4.66 4.662 4.662 0 0 1 4.66 4.66 4.661 4.661 0 0 1-4.66 4.659Z"/><path fill="url(#z)" d="M502.985 307.879a4.662 4.662 0 0 1-4.66-4.66 4.661 4.661 0 0 1 4.66-4.659 4.661 4.661 0 0 1 4.66 4.659 4.662 4.662 0 0 1-4.66 4.66Z"/><path fill="url(#A)" d="M502.985 426.236a4.662 4.662 0 0 1-4.66-4.66 4.661 4.661 0 0 1 4.66-4.659 4.661 4.661 0 0 1 4.66 4.659 4.662 4.662 0 0 1-4.66 4.66Z"/><path fill="url(#B)" d="M502.985 396.317a4.661 4.661 0 0 1-4.66-4.659 4.662 4.662 0 0 1 4.66-4.66 4.662 4.662 0 0 1 4.66 4.66 4.661 4.661 0 0 1-4.66 4.659Z"/><path fill="url(#C)" d="M99.399 455.511a4.66 4.66 0 0 1-4.66 4.659 4.66 4.66 0 0 1-4.66-4.659 4.662 4.662 0 0 1 4.66-4.66 4.662 4.662 0 0 1 4.66 4.66Z"/><path fill="url(#D)" d="M69.48 455.511a4.66 4.66 0 0 1-4.66 4.659 4.66 4.66 0 0 1-4.659-4.659 4.662 4.662 0 0 1 4.66-4.66 4.662 4.662 0 0 1 4.66 4.66Z"/><path fill="url(#E)" d="M189.707 455.511a4.66 4.66 0 0 1-9.319 0 4.662 4.662 0 0 1 4.66-4.66 4.661 4.661 0 0 1 4.659 4.66Z"/><path fill="url(#F)" d="M159.789 455.511a4.66 4.66 0 1 1-4.66-4.66 4.662 4.662 0 0 1 4.66 4.66Z"/><path fill="url(#G)" d="M280.017 455.511a4.66 4.66 0 1 1-4.66-4.66 4.662 4.662 0 0 1 4.66 4.66Z"/><path fill="url(#H)" d="M250.099 455.511a4.661 4.661 0 0 1-4.66 4.659 4.661 4.661 0 0 1-4.66-4.659 4.662 4.662 0 0 1 4.66-4.66 4.662 4.662 0 0 1 4.66 4.66Z"/><path fill="url(#I)" d="M370.326 455.511a4.66 4.66 0 1 1-4.66-4.66 4.662 4.662 0 0 1 4.66 4.66Z"/><path fill="url(#J)" d="M340.408 455.511a4.661 4.661 0 0 1-4.66 4.659 4.661 4.661 0 0 1-4.66-4.659 4.662 4.662 0 0 1 4.66-4.66 4.662 4.662 0 0 1 4.66 4.66Z"/><path fill="url(#K)" d="M460.635 455.511a4.66 4.66 0 0 1-9.319 0 4.662 4.662 0 0 1 4.66-4.66 4.661 4.661 0 0 1 4.659 4.66Z"/><path fill="url(#L)" d="M430.717 455.511a4.661 4.661 0 0 1-4.66 4.659 4.661 4.661 0 0 1-4.66-4.659 4.662 4.662 0 0 1 4.66-4.66 4.662 4.662 0 0 1 4.66 4.66Z"/><defs><radialGradient id="a" cx="0" cy="0" r="1" gradientTransform="matrix(4.66378 0 0 4.66377 77.698 4.923)" gradientUnits="userSpaceOnUse"><stop stop-color="#FFFFB0"/><stop offset=".152" stop-color="#FFF591"/><stop offset=".482" stop-color="#FFDD42"/><stop offset=".743" stop-color="#FFC900"/><stop offset="1" stop-color="#FFCE00"/></radialGradient><radialGradient id="b" cx="0" cy="0" r="1" gradientTransform="matrix(4.66378 0 0 4.66377 47.786 4.923)" gradientUnits="userSpaceOnUse"><stop stop-color="#FFFFB0"/><stop offset=".152" stop-color="#FFF591"/><stop offset=".482" stop-color="#FFDD42"/><stop offset=".743" stop-color="#FFC900"/><stop offset="1" stop-color="#FFCE00"/></radialGradient><radialGradient id="c" cx="0" cy="0" r="1" gradientTransform="matrix(4.66378 0 0 4.66377 178.007 4.923)" gradientUnits="userSpaceOnUse"><stop stop-color="#FFFFB0"/><stop offset=".152" stop-color="#FFF591"/><stop offset=".482" stop-color="#FFDD42"/><stop offset=".743" stop-color="#FFC900"/><stop offset="1" stop-color="#FFCE00"/></radialGradient><radialGradient id="d" cx="0" cy="0" r="1" gradientTransform="matrix(4.66378 0 0 4.66377 148.095 4.923)" gradientUnits="userSpaceOnUse"><stop stop-color="#FFFFB0"/><stop offset=".152" stop-color="#FFF591"/><stop offset=".482" stop-color="#FFDD42"/><stop offset=".743" stop-color="#FFC900"/><stop offset="1" stop-color="#FFCE00"/></radialGradient><radialGradient id="e" cx="0" cy="0" r="1" gradientTransform="matrix(4.66378 0 0 4.66377 268.316 4.923)" gradientUnits="userSpaceOnUse"><stop stop-color="#FFFFB0"/><stop offset=".152" stop-color="#FFF591"/><stop offset=".482" stop-color="#FFDD42"/><stop offset=".743" stop-color="#FFC900"/><stop offset="1" stop-color="#FFCE00"/></radialGradient><radialGradient id="f" cx="0" cy="0" r="1" gradientTransform="matrix(4.66378 0 0 4.66377 238.404 4.923)" gradientUnits="userSpaceOnUse"><stop stop-color="#FFFFB0"/><stop offset=".152" stop-color="#FFF591"/><stop offset=".482" stop-color="#FFDD42"/><stop offset=".743" stop-color="#FFC900"/><stop offset="1" stop-color="#FFCE00"/></radialGradient><radialGradient id="g" cx="0" cy="0" r="1" gradientTransform="matrix(4.66378 0 0 4.66377 358.625 4.923)" gradientUnits="userSpaceOnUse"><stop stop-color="#FFFFB0"/><stop offset=".152" stop-color="#FFF591"/><stop offset=".482" stop-color="#FFDD42"/><stop offset=".743" stop-color="#FFC900"/><stop offset="1" stop-color="#FFCE00"/></radialGradient><radialGradient id="h" cx="0" cy="0" r="1" gradientTransform="matrix(4.66378 0 0 4.66377 328.713 4.923)" gradientUnits="userSpaceOnUse"><stop stop-color="#FFFFB0"/><stop offset=".152" stop-color="#FFF591"/><stop offset=".482" stop-color="#FFDD42"/><stop offset=".743" stop-color="#FFC900"/><stop offset="1" stop-color="#FFCE00"/></radialGradient><radialGradient id="i" cx="0" cy="0" r="1" gradientTransform="matrix(4.66378 0 0 4.66377 458.934 4.923)" gradientUnits="userSpaceOnUse"><stop stop-color="#FFFFB0"/><stop offset=".152" stop-color="#FFF591"/><stop offset=".482" stop-color="#FFDD42"/><stop offset=".743" stop-color="#FFC900"/><stop offset="1" stop-color="#FFCE00"/></radialGradient><radialGradient id="j" cx="0" cy="0" r="1" gradientTransform="matrix(4.66378 0 0 4.66377 429.022 4.923)" gradientUnits="userSpaceOnUse"><stop stop-color="#FFFFB0"/><stop offset=".152" stop-color="#FFF591"/><stop offset=".482" stop-color="#FFDD42"/><stop offset=".743" stop-color="#FFC900"/><stop offset="1" stop-color="#FFCE00"/></radialGradient><radialGradient id="k" cx="0" cy="0" r="1" gradientTransform="matrix(0 4.66378 -4.66377 0 4.771 150.204)" gradientUnits="userSpaceOnUse"><stop stop-color="#FFFFB0"/><stop offset=".152" stop-color="#FFF591"/><stop offset=".482" stop-color="#FFDD42"/><stop offset=".743" stop-color="#FFC900"/><stop offset="1" stop-color="#FFCE00"/></radialGradient><radialGradient id="l" cx="0" cy="0" r="1" gradientTransform="matrix(0 4.66378 -4.66377 0 4.771 120.291)" gradientUnits="userSpaceOnUse"><stop stop-color="#FFFFB0"/><stop offset=".152" stop-color="#FFF591"/><stop offset=".482" stop-color="#FFDD42"/><stop offset=".743" stop-color="#FFC900"/><stop offset="1" stop-color="#FFCE00"/></radialGradient><radialGradient id="m" cx="0" cy="0" r="1" gradientTransform="matrix(0 4.66378 -4.66377 0 502.915 150.204)" gradientUnits="userSpaceOnUse"><stop stop-color="#FFFFB0"/><stop offset=".152" stop-color="#FFF591"/><stop offset=".482" stop-color="#FFDD42"/><stop offset=".743" stop-color="#FFC900"/><stop offset="1" stop-color="#FFCE00"/></radialGradient><radialGradient id="n" cx="0" cy="0" r="1" gradientTransform="matrix(0 4.66378 -4.66377 0 502.915 120.291)" gradientUnits="userSpaceOnUse"><stop stop-color="#FFFFB0"/><stop offset=".152" stop-color="#FFF591"/><stop offset=".482" stop-color="#FFDD42"/><stop offset=".743" stop-color="#FFC900"/><stop offset="1" stop-color="#FFCE00"/></radialGradient><radialGradient id="o" cx="0" cy="0" r="1" gradientTransform="matrix(0 4.66378 -4.66377 0 4.772 60.587)" gradientUnits="userSpaceOnUse"><stop stop-color="#FFFFB0"/><stop offset=".152" stop-color="#FFF591"/><stop offset=".482" stop-color="#FFDD42"/><stop offset=".743" stop-color="#FFC900"/><stop offset="1" stop-color="#FFCE00"/></radialGradient><radialGradient id="p" cx="0" cy="0" r="1" gradientTransform="matrix(0 4.66378 -4.66377 0 502.915 60.587)" gradientUnits="userSpaceOnUse"><stop stop-color="#FFFFB0"/><stop offset=".152" stop-color="#FFF591"/><stop offset=".482" stop-color="#FFDD42"/><stop offset=".743" stop-color="#FFC900"/><stop offset="1" stop-color="#FFCE00"/></radialGradient><radialGradient id="q" cx="0" cy="0" r="1" gradientTransform="matrix(0 4.66378 -4.66377 0 4.806 241.667)" gradientUnits="userSpaceOnUse"><stop stop-color="#FFFFB0"/><stop offset=".152" stop-color="#FFF591"/><stop offset=".482" stop-color="#FFDD42"/><stop offset=".743" stop-color="#FFC900"/><stop offset="1" stop-color="#FFCE00"/></radialGradient><radialGradient id="r" cx="0" cy="0" r="1" gradientTransform="matrix(0 4.66378 -4.66377 0 4.806 211.754)" gradientUnits="userSpaceOnUse"><stop stop-color="#FFFFB0"/><stop offset=".152" stop-color="#FFF591"/><stop offset=".482" stop-color="#FFDD42"/><stop offset=".743" stop-color="#FFC900"/><stop offset="1" stop-color="#FFCE00"/></radialGradient><radialGradient id="s" cx="0" cy="0" r="1" gradientTransform="matrix(0 4.66378 -4.66377 0 502.949 241.667)" gradientUnits="userSpaceOnUse"><stop stop-color="#FFFFB0"/><stop offset=".152" stop-color="#FFF591"/><stop offset=".482" stop-color="#FFDD42"/><stop offset=".743" stop-color="#FFC900"/><stop offset="1" stop-color="#FFCE00"/></radialGradient><radialGradient id="t" cx="0" cy="0" r="1" gradientTransform="matrix(0 4.66378 -4.66377 0 502.949 211.754)" gradientUnits="userSpaceOnUse"><stop stop-color="#FFFFB0"/><stop offset=".152" stop-color="#FFF591"/><stop offset=".482" stop-color="#FFDD42"/><stop offset=".743" stop-color="#FFC900"/><stop offset="1" stop-color="#FFCE00"/></radialGradient><radialGradient id="u" cx="0" cy="0" r="1" gradientTransform="matrix(0 4.66378 -4.66377 0 4.84 333.129)" gradientUnits="userSpaceOnUse"><stop stop-color="#FFFFB0"/><stop offset=".152" stop-color="#FFF591"/><stop offset=".482" stop-color="#FFDD42"/><stop offset=".743" stop-color="#FFC900"/><stop offset="1" stop-color="#FFCE00"/></radialGradient><radialGradient id="v" cx="0" cy="0" r="1" gradientTransform="matrix(0 4.66378 -4.66377 0 4.84 303.217)" gradientUnits="userSpaceOnUse"><stop stop-color="#FFFFB0"/><stop offset=".152" stop-color="#FFF591"/><stop offset=".482" stop-color="#FFDD42"/><stop offset=".743" stop-color="#FFC900"/><stop offset="1" stop-color="#FFCE00"/></radialGradient><radialGradient id="w" cx="0" cy="0" r="1" gradientTransform="matrix(0 4.66378 -4.66377 0 4.84 421.567)" gradientUnits="userSpaceOnUse"><stop stop-color="#FFFFB0"/><stop offset=".152" stop-color="#FFF591"/><stop offset=".482" stop-color="#FFDD42"/><stop offset=".743" stop-color="#FFC900"/><stop offset="1" stop-color="#FFCE00"/></radialGradient><radialGradient id="x" cx="0" cy="0" r="1" gradientTransform="matrix(0 4.66378 -4.66377 0 4.84 391.655)" gradientUnits="userSpaceOnUse"><stop stop-color="#FFFFB0"/><stop offset=".152" stop-color="#FFF591"/><stop offset=".482" stop-color="#FFDD42"/><stop offset=".743" stop-color="#FFC900"/><stop offset="1" stop-color="#FFCE00"/></radialGradient><radialGradient id="y" cx="0" cy="0" r="1" gradientTransform="matrix(0 4.66378 -4.66377 0 502.984 333.129)" gradientUnits="userSpaceOnUse"><stop stop-color="#FFFFB0"/><stop offset=".152" stop-color="#FFF591"/><stop offset=".482" stop-color="#FFDD42"/><stop offset=".743" stop-color="#FFC900"/><stop offset="1" stop-color="#FFCE00"/></radialGradient><radialGradient id="z" cx="0" cy="0" r="1" gradientTransform="matrix(0 4.66378 -4.66377 0 502.984 303.217)" gradientUnits="userSpaceOnUse"><stop stop-color="#FFFFB0"/><stop offset=".152" stop-color="#FFF591"/><stop offset=".482" stop-color="#FFDD42"/><stop offset=".743" stop-color="#FFC900"/><stop offset="1" stop-color="#FFCE00"/></radialGradient><radialGradient id="A" cx="0" cy="0" r="1" gradientTransform="matrix(0 4.66378 -4.66377 0 502.984 421.567)" gradientUnits="userSpaceOnUse"><stop stop-color="#FFFFB0"/><stop offset=".152" stop-color="#FFF591"/><stop offset=".482" stop-color="#FFDD42"/><stop offset=".743" stop-color="#FFC900"/><stop offset="1" stop-color="#FFCE00"/></radialGradient><radialGradient id="B" cx="0" cy="0" r="1" gradientTransform="matrix(0 4.66378 -4.66377 0 502.984 391.655)" gradientUnits="userSpaceOnUse"><stop stop-color="#FFFFB0"/><stop offset=".152" stop-color="#FFF591"/><stop offset=".482" stop-color="#FFDD42"/><stop offset=".743" stop-color="#FFC900"/><stop offset="1" stop-color="#FFCE00"/></radialGradient><radialGradient id="C" cx="0" cy="0" r="1" gradientTransform="matrix(4.66378 0 0 4.66377 94.73 455.512)" gradientUnits="userSpaceOnUse"><stop stop-color="#FFFFB0"/><stop offset=".152" stop-color="#FFF591"/><stop offset=".482" stop-color="#FFDD42"/><stop offset=".743" stop-color="#FFC900"/><stop offset="1" stop-color="#FFCE00"/></radialGradient><radialGradient id="D" cx="0" cy="0" r="1" gradientTransform="matrix(4.66378 0 0 4.66377 64.818 455.512)" gradientUnits="userSpaceOnUse"><stop stop-color="#FFFFB0"/><stop offset=".152" stop-color="#FFF591"/><stop offset=".482" stop-color="#FFDD42"/><stop offset=".743" stop-color="#FFC900"/><stop offset="1" stop-color="#FFCE00"/></radialGradient><radialGradient id="E" cx="0" cy="0" r="1" gradientTransform="matrix(4.66378 0 0 4.66377 185.039 455.512)" gradientUnits="userSpaceOnUse"><stop stop-color="#FFFFB0"/><stop offset=".152" stop-color="#FFF591"/><stop offset=".482" stop-color="#FFDD42"/><stop offset=".743" stop-color="#FFC900"/><stop offset="1" stop-color="#FFCE00"/></radialGradient><radialGradient id="F" cx="0" cy="0" r="1" gradientTransform="matrix(4.66378 0 0 4.66377 155.127 455.512)" gradientUnits="userSpaceOnUse"><stop stop-color="#FFFFB0"/><stop offset=".152" stop-color="#FFF591"/><stop offset=".482" stop-color="#FFDD42"/><stop offset=".743" stop-color="#FFC900"/><stop offset="1" stop-color="#FFCE00"/></radialGradient><radialGradient id="G" cx="0" cy="0" r="1" gradientTransform="matrix(4.66378 0 0 4.66377 275.349 455.512)" gradientUnits="userSpaceOnUse"><stop stop-color="#FFFFB0"/><stop offset=".152" stop-color="#FFF591"/><stop offset=".482" stop-color="#FFDD42"/><stop offset=".743" stop-color="#FFC900"/><stop offset="1" stop-color="#FFCE00"/></radialGradient><radialGradient id="H" cx="0" cy="0" r="1" gradientTransform="matrix(4.66378 0 0 4.66377 245.437 455.512)" gradientUnits="userSpaceOnUse"><stop stop-color="#FFFFB0"/><stop offset=".152" stop-color="#FFF591"/><stop offset=".482" stop-color="#FFDD42"/><stop offset=".743" stop-color="#FFC900"/><stop offset="1" stop-color="#FFCE00"/></radialGradient><radialGradient id="I" cx="0" cy="0" r="1" gradientTransform="matrix(4.66378 0 0 4.66377 365.658 455.512)" gradientUnits="userSpaceOnUse"><stop stop-color="#FFFFB0"/><stop offset=".152" stop-color="#FFF591"/><stop offset=".482" stop-color="#FFDD42"/><stop offset=".743" stop-color="#FFC900"/><stop offset="1" stop-color="#FFCE00"/></radialGradient><radialGradient id="J" cx="0" cy="0" r="1" gradientTransform="matrix(4.66378 0 0 4.66377 335.746 455.512)" gradientUnits="userSpaceOnUse"><stop stop-color="#FFFFB0"/><stop offset=".152" stop-color="#FFF591"/><stop offset=".482" stop-color="#FFDD42"/><stop offset=".743" stop-color="#FFC900"/><stop offset="1" stop-color="#FFCE00"/></radialGradient><radialGradient id="K" cx="0" cy="0" r="1" gradientTransform="matrix(4.66378 0 0 4.66377 455.967 455.512)" gradientUnits="userSpaceOnUse"><stop stop-color="#FFFFB0"/><stop offset=".152" stop-color="#FFF591"/><stop offset=".482" stop-color="#FFDD42"/><stop offset=".743" stop-color="#FFC900"/><stop offset="1" stop-color="#FFCE00"/></radialGradient><radialGradient id="L" cx="0" cy="0" r="1" gradientTransform="matrix(4.66378 0 0 4.66377 426.055 455.512)" gradientUnits="userSpaceOnUse"><stop stop-color="#FFFFB0"/><stop offset=".152" stop-color="#FFF591"/><stop offset=".482" stop-color="#FFDD42"/><stop offset=".743" stop-color="#FFC900"/><stop offset="1" stop-color="#FFCE00"/></radialGradient></defs></svg>