<svg width="818" height="311" viewBox="0 0 818 311" fill="none" xmlns="http://www.w3.org/2000/svg">
<path d="M238.238 5.54046C238.238 8.11248 236.15 10.2001 233.578 10.2001C231.006 10.2001 228.918 8.11248 228.918 5.54046C228.918 2.96844 231.006 0.880859 233.578 0.880859C236.15 0.880859 238.238 2.96844 238.238 5.54046Z" fill="url(#paint0_radial_427_17509)"/>
<path d="M208.319 5.54046C208.319 8.11248 206.232 10.2001 203.66 10.2001C201.088 10.2001 199 8.11248 199 5.54046C199 2.96844 201.088 0.880859 203.66 0.880859C206.232 0.880859 208.319 2.96844 208.319 5.54046Z" fill="url(#paint1_radial_427_17509)"/>
<path d="M132.238 5.54046C132.238 8.11248 130.15 10.2001 127.578 10.2001C125.006 10.2001 122.918 8.11248 122.918 5.54046C122.918 2.96844 125.006 0.880859 127.578 0.880859C130.15 0.880859 132.238 2.96844 132.238 5.54046Z" fill="url(#paint2_radial_427_17509)"/>
<path d="M102.319 5.54046C102.319 8.11248 100.232 10.2001 97.6596 10.2001C95.0876 10.2001 93 8.11248 93 5.54046C93 2.96844 95.0876 0.880859 97.6596 0.880859C100.232 0.880859 102.319 2.96844 102.319 5.54046Z" fill="url(#paint3_radial_427_17509)"/>
<path d="M338.547 5.54046C338.547 8.11248 336.459 10.2001 333.887 10.2001C331.315 10.2001 329.228 8.11248 329.228 5.54046C329.228 2.96844 331.315 0.880859 333.887 0.880859C336.459 0.880859 338.547 2.96844 338.547 5.54046Z" fill="url(#paint4_radial_427_17509)"/>
<path d="M308.628 5.54046C308.628 8.11248 306.541 10.2001 303.969 10.2001C301.397 10.2001 299.309 8.11248 299.309 5.54046C299.309 2.96844 301.397 0.880859 303.969 0.880859C306.541 0.880859 308.628 2.96844 308.628 5.54046Z" fill="url(#paint5_radial_427_17509)"/>
<path d="M428.856 5.54046C428.856 8.11248 426.768 10.2001 424.196 10.2001C421.624 10.2001 419.537 8.11248 419.537 5.54046C419.537 2.96844 421.624 0.880859 424.196 0.880859C426.768 0.880859 428.856 2.96844 428.856 5.54046Z" fill="url(#paint6_radial_427_17509)"/>
<path d="M398.937 5.54046C398.937 8.11248 396.85 10.2001 394.278 10.2001C391.706 10.2001 389.618 8.11248 389.618 5.54046C389.618 2.96844 391.706 0.880859 394.278 0.880859C396.85 0.880859 398.937 2.96844 398.937 5.54046Z" fill="url(#paint7_radial_427_17509)"/>
<path d="M519.164 5.54046C519.164 8.11248 517.077 10.2001 514.505 10.2001C511.933 10.2001 509.845 8.11248 509.845 5.54046C509.845 2.96844 511.933 0.880859 514.505 0.880859C517.077 0.880859 519.164 2.96844 519.164 5.54046Z" fill="url(#paint8_radial_427_17509)"/>
<path d="M489.246 5.54046C489.246 8.11248 487.159 10.2001 484.587 10.2001C482.015 10.2001 479.927 8.11248 479.927 5.54046C479.927 2.96844 482.015 0.880859 484.587 0.880859C487.159 0.880859 489.246 2.96844 489.246 5.54046Z" fill="url(#paint9_radial_427_17509)"/>
<path d="M619.474 5.54046C619.474 8.11248 617.386 10.2001 614.814 10.2001C612.242 10.2001 610.155 8.11248 610.155 5.54046C610.155 2.96844 612.242 0.880859 614.814 0.880859C617.386 0.880859 619.474 2.96844 619.474 5.54046Z" fill="url(#paint10_radial_427_17509)"/>
<path d="M589.556 5.54046C589.556 8.11248 587.468 10.2001 584.896 10.2001C582.324 10.2001 580.236 8.11248 580.236 5.54046C580.236 2.96844 582.324 0.880859 584.896 0.880859C587.468 0.880859 589.556 2.96844 589.556 5.54046Z" fill="url(#paint11_radial_427_17509)"/>
<path d="M727.238 5.54046C727.238 8.11248 725.15 10.2001 722.578 10.2001C720.006 10.2001 717.918 8.11248 717.918 5.54046C717.918 2.96844 720.006 0.880859 722.578 0.880859C725.15 0.880859 727.238 2.96844 727.238 5.54046Z" fill="url(#paint12_radial_427_17509)"/>
<path d="M697.319 5.54046C697.319 8.11248 695.232 10.2001 692.66 10.2001C690.088 10.2001 688 8.11248 688 5.54046C688 2.96844 690.088 0.880859 692.66 0.880859C695.232 0.880859 697.319 2.96844 697.319 5.54046Z" fill="url(#paint13_radial_427_17509)"/>
<path d="M4.77204 145.49C2.20002 145.49 0.112407 143.403 0.112407 140.831C0.112408 138.258 2.20002 136.171 4.77204 136.171C7.34406 136.171 9.43164 138.258 9.43164 140.831C9.43164 143.403 7.34406 145.49 4.77204 145.49Z" fill="url(#paint14_radial_427_17509)"/>
<path d="M4.77204 115.572C2.20002 115.572 0.112407 113.484 0.112407 110.912C0.112408 108.34 2.20002 106.252 4.77204 106.252C7.34406 106.252 9.43164 108.34 9.43164 110.912C9.43164 113.484 7.34406 115.572 4.77204 115.572Z" fill="url(#paint15_radial_427_17509)"/>
<path d="M812.916 145.49C810.344 145.49 808.256 143.403 808.256 140.831C808.256 138.258 810.344 136.171 812.916 136.171C815.488 136.171 817.575 138.258 817.575 140.831C817.575 143.403 815.488 145.49 812.916 145.49Z" fill="url(#paint16_radial_427_17509)"/>
<path d="M812.916 115.572C810.344 115.572 808.256 113.484 808.256 110.912C808.256 108.34 810.344 106.252 812.916 106.252C815.488 106.252 817.575 108.34 817.575 110.912C817.575 113.484 815.488 115.572 812.916 115.572Z" fill="url(#paint17_radial_427_17509)"/>
<path d="M4.77351 55.8735C2.20149 55.8734 0.113872 53.7858 0.113872 51.2138C0.113872 48.6418 2.20149 46.5542 4.77351 46.5542C7.34553 46.5542 9.43311 48.6418 9.43311 51.2138C9.43311 53.7858 7.34553 55.8735 4.77351 55.8735Z" fill="url(#paint18_radial_427_17509)"/>
<path d="M14.7735 25.8735C12.2015 25.8734 10.1139 23.7858 10.1139 21.2138C10.1139 18.6418 12.2015 16.5542 14.7735 16.5542C17.3455 16.5542 19.4331 18.6418 19.4331 21.2138C19.4331 23.7858 17.3455 25.8735 14.7735 25.8735Z" fill="url(#paint19_radial_427_17509)"/>
<path d="M812.916 55.8735C810.344 55.8734 808.256 53.7858 808.256 51.2138C808.256 48.6418 810.344 46.5542 812.916 46.5542C815.488 46.5542 817.575 48.6418 817.575 51.2138C817.575 53.7858 815.488 55.8735 812.916 55.8735Z" fill="url(#paint20_radial_427_17509)"/>
<path d="M802.916 25.8735C800.344 25.8734 798.256 23.7858 798.256 21.2138C798.256 18.6418 800.344 16.5542 802.916 16.5542C805.488 16.5542 807.575 18.6418 807.575 21.2138C807.575 23.7858 805.488 25.8735 802.916 25.8735Z" fill="url(#paint21_radial_427_17509)"/>
<path d="M4.80744 236.953C2.23542 236.953 0.147808 234.865 0.147808 232.293C0.147808 229.721 2.23542 227.634 4.80744 227.634C7.37946 227.634 9.46704 229.721 9.46704 232.293C9.46704 234.865 7.37946 236.953 4.80744 236.953Z" fill="url(#paint22_radial_427_17509)"/>
<path d="M4.8072 207.035C2.23518 207.035 0.147564 204.947 0.147564 202.375C0.147564 199.803 2.23518 197.715 4.8072 197.715C7.37922 197.715 9.4668 199.803 9.4668 202.375C9.4668 204.947 7.37922 207.035 4.8072 207.035Z" fill="url(#paint23_radial_427_17509)"/>
<path d="M812.95 236.953C810.378 236.953 808.29 234.865 808.29 232.293C808.29 229.721 810.378 227.634 812.95 227.634C815.522 227.634 817.609 229.721 817.609 232.293C817.609 234.865 815.522 236.953 812.95 236.953Z" fill="url(#paint24_radial_427_17509)"/>
<path d="M812.95 207.035C810.378 207.035 808.29 204.947 808.29 202.375C808.29 199.803 810.378 197.715 812.95 197.715C815.522 197.715 817.609 199.803 817.609 202.375C817.609 204.947 815.522 207.035 812.95 207.035Z" fill="url(#paint25_radial_427_17509)"/>
<path d="M47.8414 310.497C45.2694 310.497 43.1817 308.409 43.1817 305.837C43.1817 303.265 45.2694 301.178 47.8414 301.178C50.4134 301.178 52.501 303.265 52.501 305.837C52.501 308.409 50.4134 310.497 47.8414 310.497Z" fill="url(#paint26_radial_427_17509)"/>
<path d="M23.8414 294.497C21.2694 294.497 19.1817 292.409 19.1817 289.837C19.1817 287.265 21.2694 285.178 23.8414 285.178C26.4134 285.178 28.501 287.265 28.501 289.837C28.501 292.409 26.4134 294.497 23.8414 294.497Z" fill="url(#paint27_radial_427_17509)"/>
<path d="M760.985 310.497C758.413 310.497 756.325 308.409 756.325 305.837C756.325 303.265 758.413 301.178 760.985 301.178C763.557 301.178 765.645 303.265 765.645 305.837C765.645 308.409 763.557 310.497 760.985 310.497Z" fill="url(#paint28_radial_427_17509)"/>
<path d="M787.985 294.497C785.413 294.497 783.325 292.409 783.325 289.837C783.325 287.265 785.413 285.178 787.985 285.178C790.557 285.178 792.645 287.265 792.645 289.837C792.645 292.409 790.557 294.497 787.985 294.497Z" fill="url(#paint29_radial_427_17509)"/>
<path d="M249.398 306.129C249.398 308.701 247.311 310.788 244.739 310.788C242.167 310.788 240.079 308.701 240.079 306.129C240.079 303.557 242.167 301.469 244.739 301.469C247.311 301.469 249.398 303.557 249.398 306.129Z" fill="url(#paint30_radial_427_17509)"/>
<path d="M219.48 306.129C219.48 308.701 217.393 310.788 214.821 310.788C212.249 310.788 210.161 308.701 210.161 306.129C210.161 303.557 212.249 301.469 214.821 301.469C217.393 301.469 219.48 303.557 219.48 306.129Z" fill="url(#paint31_radial_427_17509)"/>
<path d="M152.237 306.129C152.237 308.701 150.15 310.788 147.578 310.788C145.006 310.788 142.918 308.701 142.918 306.129C142.918 303.557 145.006 301.469 147.578 301.469C150.15 301.469 152.237 303.557 152.237 306.129Z" fill="url(#paint32_radial_427_17509)"/>
<path d="M122.319 306.129C122.319 308.701 120.231 310.788 117.659 310.788C115.087 310.788 113 308.701 113 306.129C113 303.557 115.087 301.469 117.659 301.469C120.231 301.469 122.319 303.557 122.319 306.129Z" fill="url(#paint33_radial_427_17509)"/>
<path d="M339.707 306.129C339.707 308.701 337.62 310.788 335.048 310.788C332.476 310.788 330.388 308.701 330.388 306.129C330.388 303.557 332.476 301.469 335.048 301.469C337.62 301.469 339.707 303.557 339.707 306.129Z" fill="url(#paint34_radial_427_17509)"/>
<path d="M309.789 306.129C309.789 308.701 307.701 310.788 305.129 310.788C302.557 310.788 300.47 308.701 300.47 306.129C300.47 303.557 302.557 301.469 305.129 301.469C307.701 301.469 309.789 303.557 309.789 306.129Z" fill="url(#paint35_radial_427_17509)"/>
<path d="M430.017 306.129C430.017 308.701 427.929 310.788 425.357 310.788C422.785 310.788 420.698 308.701 420.698 306.129C420.698 303.557 422.785 301.469 425.357 301.469C427.929 301.469 430.017 303.557 430.017 306.129Z" fill="url(#paint36_radial_427_17509)"/>
<path d="M400.098 306.129C400.098 308.701 398.011 310.788 395.439 310.788C392.867 310.788 390.779 308.701 390.779 306.129C390.779 303.557 392.867 301.469 395.439 301.469C398.011 301.469 400.098 303.557 400.098 306.129Z" fill="url(#paint37_radial_427_17509)"/>
<path d="M520.326 306.129C520.326 308.701 518.238 310.788 515.666 310.788C513.094 310.788 511.007 308.701 511.007 306.129C511.007 303.557 513.094 301.469 515.666 301.469C518.238 301.469 520.326 303.557 520.326 306.129Z" fill="url(#paint38_radial_427_17509)"/>
<path d="M490.407 306.129C490.407 308.701 488.32 310.788 485.748 310.788C483.176 310.788 481.088 308.701 481.088 306.129C481.088 303.557 483.176 301.469 485.748 301.469C488.32 301.469 490.407 303.557 490.407 306.129Z" fill="url(#paint39_radial_427_17509)"/>
<path d="M610.635 306.129C610.635 308.701 608.547 310.788 605.975 310.788C603.403 310.788 601.316 308.701 601.316 306.129C601.316 303.557 603.403 301.469 605.975 301.469C608.547 301.469 610.635 303.557 610.635 306.129Z" fill="url(#paint40_radial_427_17509)"/>
<path d="M580.716 306.129C580.716 308.701 578.629 310.788 576.057 310.788C573.485 310.788 571.397 308.701 571.397 306.129C571.397 303.557 573.485 301.469 576.057 301.469C578.629 301.469 580.716 303.557 580.716 306.129Z" fill="url(#paint41_radial_427_17509)"/>
<path d="M701.238 306.129C701.238 308.701 699.15 310.788 696.578 310.788C694.006 310.788 691.918 308.701 691.918 306.129C691.918 303.557 694.006 301.469 696.578 301.469C699.15 301.469 701.238 303.557 701.238 306.129Z" fill="url(#paint42_radial_427_17509)"/>
<path d="M671.319 306.129C671.319 308.701 669.232 310.788 666.66 310.788C664.088 310.788 662 308.701 662 306.129C662 303.557 664.088 301.469 666.66 301.469C669.232 301.469 671.319 303.557 671.319 306.129Z" fill="url(#paint43_radial_427_17509)"/>
<defs>
<radialGradient id="paint0_radial_427_17509" cx="0" cy="0" r="1" gradientUnits="userSpaceOnUse" gradientTransform="translate(233.569 5.54151) scale(4.66378 4.66377)">
<stop stop-color="#FFFFB0"/>
<stop offset="0.1519" stop-color="#FFF591"/>
<stop offset="0.4819" stop-color="#FFDD42"/>
<stop offset="0.743" stop-color="#FFC900"/>
<stop offset="1" stop-color="#FFCE00"/>
</radialGradient>
<radialGradient id="paint1_radial_427_17509" cx="0" cy="0" r="1" gradientUnits="userSpaceOnUse" gradientTransform="translate(203.657 5.54151) scale(4.66378 4.66377)">
<stop stop-color="#FFFFB0"/>
<stop offset="0.1519" stop-color="#FFF591"/>
<stop offset="0.4819" stop-color="#FFDD42"/>
<stop offset="0.743" stop-color="#FFC900"/>
<stop offset="1" stop-color="#FFCE00"/>
</radialGradient>
<radialGradient id="paint2_radial_427_17509" cx="0" cy="0" r="1" gradientUnits="userSpaceOnUse" gradientTransform="translate(127.569 5.54151) scale(4.66378 4.66377)">
<stop stop-color="#FFFFB0"/>
<stop offset="0.1519" stop-color="#FFF591"/>
<stop offset="0.4819" stop-color="#FFDD42"/>
<stop offset="0.743" stop-color="#FFC900"/>
<stop offset="1" stop-color="#FFCE00"/>
</radialGradient>
<radialGradient id="paint3_radial_427_17509" cx="0" cy="0" r="1" gradientUnits="userSpaceOnUse" gradientTransform="translate(97.6572 5.54151) scale(4.66378 4.66377)">
<stop stop-color="#FFFFB0"/>
<stop offset="0.1519" stop-color="#FFF591"/>
<stop offset="0.4819" stop-color="#FFDD42"/>
<stop offset="0.743" stop-color="#FFC900"/>
<stop offset="1" stop-color="#FFCE00"/>
</radialGradient>
<radialGradient id="paint4_radial_427_17509" cx="0" cy="0" r="1" gradientUnits="userSpaceOnUse" gradientTransform="translate(333.879 5.54151) scale(4.66378 4.66377)">
<stop stop-color="#FFFFB0"/>
<stop offset="0.1519" stop-color="#FFF591"/>
<stop offset="0.4819" stop-color="#FFDD42"/>
<stop offset="0.743" stop-color="#FFC900"/>
<stop offset="1" stop-color="#FFCE00"/>
</radialGradient>
<radialGradient id="paint5_radial_427_17509" cx="0" cy="0" r="1" gradientUnits="userSpaceOnUse" gradientTransform="translate(303.966 5.54151) scale(4.66378 4.66377)">
<stop stop-color="#FFFFB0"/>
<stop offset="0.1519" stop-color="#FFF591"/>
<stop offset="0.4819" stop-color="#FFDD42"/>
<stop offset="0.743" stop-color="#FFC900"/>
<stop offset="1" stop-color="#FFCE00"/>
</radialGradient>
<radialGradient id="paint6_radial_427_17509" cx="0" cy="0" r="1" gradientUnits="userSpaceOnUse" gradientTransform="translate(424.188 5.54151) scale(4.66378 4.66377)">
<stop stop-color="#FFFFB0"/>
<stop offset="0.1519" stop-color="#FFF591"/>
<stop offset="0.4819" stop-color="#FFDD42"/>
<stop offset="0.743" stop-color="#FFC900"/>
<stop offset="1" stop-color="#FFCE00"/>
</radialGradient>
<radialGradient id="paint7_radial_427_17509" cx="0" cy="0" r="1" gradientUnits="userSpaceOnUse" gradientTransform="translate(394.275 5.54151) scale(4.66378 4.66377)">
<stop stop-color="#FFFFB0"/>
<stop offset="0.1519" stop-color="#FFF591"/>
<stop offset="0.4819" stop-color="#FFDD42"/>
<stop offset="0.743" stop-color="#FFC900"/>
<stop offset="1" stop-color="#FFCE00"/>
</radialGradient>
<radialGradient id="paint8_radial_427_17509" cx="0" cy="0" r="1" gradientUnits="userSpaceOnUse" gradientTransform="translate(514.496 5.54151) scale(4.66378 4.66377)">
<stop stop-color="#FFFFB0"/>
<stop offset="0.1519" stop-color="#FFF591"/>
<stop offset="0.4819" stop-color="#FFDD42"/>
<stop offset="0.743" stop-color="#FFC900"/>
<stop offset="1" stop-color="#FFCE00"/>
</radialGradient>
<radialGradient id="paint9_radial_427_17509" cx="0" cy="0" r="1" gradientUnits="userSpaceOnUse" gradientTransform="translate(484.584 5.54151) scale(4.66378 4.66377)">
<stop stop-color="#FFFFB0"/>
<stop offset="0.1519" stop-color="#FFF591"/>
<stop offset="0.4819" stop-color="#FFDD42"/>
<stop offset="0.743" stop-color="#FFC900"/>
<stop offset="1" stop-color="#FFCE00"/>
</radialGradient>
<radialGradient id="paint10_radial_427_17509" cx="0" cy="0" r="1" gradientUnits="userSpaceOnUse" gradientTransform="translate(614.806 5.54151) scale(4.66378 4.66377)">
<stop stop-color="#FFFFB0"/>
<stop offset="0.1519" stop-color="#FFF591"/>
<stop offset="0.4819" stop-color="#FFDD42"/>
<stop offset="0.743" stop-color="#FFC900"/>
<stop offset="1" stop-color="#FFCE00"/>
</radialGradient>
<radialGradient id="paint11_radial_427_17509" cx="0" cy="0" r="1" gradientUnits="userSpaceOnUse" gradientTransform="translate(584.894 5.54151) scale(4.66378 4.66377)">
<stop stop-color="#FFFFB0"/>
<stop offset="0.1519" stop-color="#FFF591"/>
<stop offset="0.4819" stop-color="#FFDD42"/>
<stop offset="0.743" stop-color="#FFC900"/>
<stop offset="1" stop-color="#FFCE00"/>
</radialGradient>
<radialGradient id="paint12_radial_427_17509" cx="0" cy="0" r="1" gradientUnits="userSpaceOnUse" gradientTransform="translate(722.569 5.54151) scale(4.66378 4.66377)">
<stop stop-color="#FFFFB0"/>
<stop offset="0.1519" stop-color="#FFF591"/>
<stop offset="0.4819" stop-color="#FFDD42"/>
<stop offset="0.743" stop-color="#FFC900"/>
<stop offset="1" stop-color="#FFCE00"/>
</radialGradient>
<radialGradient id="paint13_radial_427_17509" cx="0" cy="0" r="1" gradientUnits="userSpaceOnUse" gradientTransform="translate(692.657 5.54151) scale(4.66378 4.66377)">
<stop stop-color="#FFFFB0"/>
<stop offset="0.1519" stop-color="#FFF591"/>
<stop offset="0.4819" stop-color="#FFDD42"/>
<stop offset="0.743" stop-color="#FFC900"/>
<stop offset="1" stop-color="#FFCE00"/>
</radialGradient>
<radialGradient id="paint14_radial_427_17509" cx="0" cy="0" r="1" gradientUnits="userSpaceOnUse" gradientTransform="translate(4.77099 140.822) rotate(90) scale(4.66378 4.66377)">
<stop stop-color="#FFFFB0"/>
<stop offset="0.1519" stop-color="#FFF591"/>
<stop offset="0.4819" stop-color="#FFDD42"/>
<stop offset="0.743" stop-color="#FFC900"/>
<stop offset="1" stop-color="#FFCE00"/>
</radialGradient>
<radialGradient id="paint15_radial_427_17509" cx="0" cy="0" r="1" gradientUnits="userSpaceOnUse" gradientTransform="translate(4.77099 110.91) rotate(90) scale(4.66378 4.66377)">
<stop stop-color="#FFFFB0"/>
<stop offset="0.1519" stop-color="#FFF591"/>
<stop offset="0.4819" stop-color="#FFDD42"/>
<stop offset="0.743" stop-color="#FFC900"/>
<stop offset="1" stop-color="#FFCE00"/>
</radialGradient>
<radialGradient id="paint16_radial_427_17509" cx="0" cy="0" r="1" gradientUnits="userSpaceOnUse" gradientTransform="translate(812.915 140.822) rotate(90) scale(4.66378 4.66377)">
<stop stop-color="#FFFFB0"/>
<stop offset="0.1519" stop-color="#FFF591"/>
<stop offset="0.4819" stop-color="#FFDD42"/>
<stop offset="0.743" stop-color="#FFC900"/>
<stop offset="1" stop-color="#FFCE00"/>
</radialGradient>
<radialGradient id="paint17_radial_427_17509" cx="0" cy="0" r="1" gradientUnits="userSpaceOnUse" gradientTransform="translate(812.915 110.91) rotate(90) scale(4.66378 4.66377)">
<stop stop-color="#FFFFB0"/>
<stop offset="0.1519" stop-color="#FFF591"/>
<stop offset="0.4819" stop-color="#FFDD42"/>
<stop offset="0.743" stop-color="#FFC900"/>
<stop offset="1" stop-color="#FFCE00"/>
</radialGradient>
<radialGradient id="paint18_radial_427_17509" cx="0" cy="0" r="1" gradientUnits="userSpaceOnUse" gradientTransform="translate(4.77245 51.2052) rotate(90) scale(4.66378 4.66377)">
<stop stop-color="#FFFFB0"/>
<stop offset="0.1519" stop-color="#FFF591"/>
<stop offset="0.4819" stop-color="#FFDD42"/>
<stop offset="0.743" stop-color="#FFC900"/>
<stop offset="1" stop-color="#FFCE00"/>
</radialGradient>
<radialGradient id="paint19_radial_427_17509" cx="0" cy="0" r="1" gradientUnits="userSpaceOnUse" gradientTransform="translate(14.7725 21.2052) rotate(90) scale(4.66378 4.66377)">
<stop stop-color="#FFFFB0"/>
<stop offset="0.1519" stop-color="#FFF591"/>
<stop offset="0.4819" stop-color="#FFDD42"/>
<stop offset="0.743" stop-color="#FFC900"/>
<stop offset="1" stop-color="#FFCE00"/>
</radialGradient>
<radialGradient id="paint20_radial_427_17509" cx="0" cy="0" r="1" gradientUnits="userSpaceOnUse" gradientTransform="translate(812.915 51.2052) rotate(90) scale(4.66378 4.66377)">
<stop stop-color="#FFFFB0"/>
<stop offset="0.1519" stop-color="#FFF591"/>
<stop offset="0.4819" stop-color="#FFDD42"/>
<stop offset="0.743" stop-color="#FFC900"/>
<stop offset="1" stop-color="#FFCE00"/>
</radialGradient>
<radialGradient id="paint21_radial_427_17509" cx="0" cy="0" r="1" gradientUnits="userSpaceOnUse" gradientTransform="translate(802.915 21.2052) rotate(90) scale(4.66378 4.66377)">
<stop stop-color="#FFFFB0"/>
<stop offset="0.1519" stop-color="#FFF591"/>
<stop offset="0.4819" stop-color="#FFDD42"/>
<stop offset="0.743" stop-color="#FFC900"/>
<stop offset="1" stop-color="#FFCE00"/>
</radialGradient>
<radialGradient id="paint22_radial_427_17509" cx="0" cy="0" r="1" gradientUnits="userSpaceOnUse" gradientTransform="translate(4.80639 232.285) rotate(90) scale(4.66378 4.66377)">
<stop stop-color="#FFFFB0"/>
<stop offset="0.1519" stop-color="#FFF591"/>
<stop offset="0.4819" stop-color="#FFDD42"/>
<stop offset="0.743" stop-color="#FFC900"/>
<stop offset="1" stop-color="#FFCE00"/>
</radialGradient>
<radialGradient id="paint23_radial_427_17509" cx="0" cy="0" r="1" gradientUnits="userSpaceOnUse" gradientTransform="translate(4.80614 202.373) rotate(90) scale(4.66378 4.66377)">
<stop stop-color="#FFFFB0"/>
<stop offset="0.1519" stop-color="#FFF591"/>
<stop offset="0.4819" stop-color="#FFDD42"/>
<stop offset="0.743" stop-color="#FFC900"/>
<stop offset="1" stop-color="#FFCE00"/>
</radialGradient>
<radialGradient id="paint24_radial_427_17509" cx="0" cy="0" r="1" gradientUnits="userSpaceOnUse" gradientTransform="translate(812.949 232.285) rotate(90) scale(4.66378 4.66377)">
<stop stop-color="#FFFFB0"/>
<stop offset="0.1519" stop-color="#FFF591"/>
<stop offset="0.4819" stop-color="#FFDD42"/>
<stop offset="0.743" stop-color="#FFC900"/>
<stop offset="1" stop-color="#FFCE00"/>
</radialGradient>
<radialGradient id="paint25_radial_427_17509" cx="0" cy="0" r="1" gradientUnits="userSpaceOnUse" gradientTransform="translate(812.949 202.373) rotate(90) scale(4.66378 4.66377)">
<stop stop-color="#FFFFB0"/>
<stop offset="0.1519" stop-color="#FFF591"/>
<stop offset="0.4819" stop-color="#FFDD42"/>
<stop offset="0.743" stop-color="#FFC900"/>
<stop offset="1" stop-color="#FFCE00"/>
</radialGradient>
<radialGradient id="paint26_radial_427_17509" cx="0" cy="0" r="1" gradientUnits="userSpaceOnUse" gradientTransform="translate(47.8403 305.835) rotate(90) scale(4.66378 4.66377)">
<stop stop-color="#FFFFB0"/>
<stop offset="0.1519" stop-color="#FFF591"/>
<stop offset="0.4819" stop-color="#FFDD42"/>
<stop offset="0.743" stop-color="#FFC900"/>
<stop offset="1" stop-color="#FFCE00"/>
</radialGradient>
<radialGradient id="paint27_radial_427_17509" cx="0" cy="0" r="1" gradientUnits="userSpaceOnUse" gradientTransform="translate(23.8403 289.835) rotate(90) scale(4.66378 4.66377)">
<stop stop-color="#FFFFB0"/>
<stop offset="0.1519" stop-color="#FFF591"/>
<stop offset="0.4819" stop-color="#FFDD42"/>
<stop offset="0.743" stop-color="#FFC900"/>
<stop offset="1" stop-color="#FFCE00"/>
</radialGradient>
<radialGradient id="paint28_radial_427_17509" cx="0" cy="0" r="1" gradientUnits="userSpaceOnUse" gradientTransform="translate(760.984 305.835) rotate(90) scale(4.66378 4.66377)">
<stop stop-color="#FFFFB0"/>
<stop offset="0.1519" stop-color="#FFF591"/>
<stop offset="0.4819" stop-color="#FFDD42"/>
<stop offset="0.743" stop-color="#FFC900"/>
<stop offset="1" stop-color="#FFCE00"/>
</radialGradient>
<radialGradient id="paint29_radial_427_17509" cx="0" cy="0" r="1" gradientUnits="userSpaceOnUse" gradientTransform="translate(787.984 289.835) rotate(90) scale(4.66378 4.66377)">
<stop stop-color="#FFFFB0"/>
<stop offset="0.1519" stop-color="#FFF591"/>
<stop offset="0.4819" stop-color="#FFDD42"/>
<stop offset="0.743" stop-color="#FFC900"/>
<stop offset="1" stop-color="#FFCE00"/>
</radialGradient>
<radialGradient id="paint30_radial_427_17509" cx="0" cy="0" r="1" gradientUnits="userSpaceOnUse" gradientTransform="translate(244.73 306.13) scale(4.66378 4.66377)">
<stop stop-color="#FFFFB0"/>
<stop offset="0.1519" stop-color="#FFF591"/>
<stop offset="0.4819" stop-color="#FFDD42"/>
<stop offset="0.743" stop-color="#FFC900"/>
<stop offset="1" stop-color="#FFCE00"/>
</radialGradient>
<radialGradient id="paint31_radial_427_17509" cx="0" cy="0" r="1" gradientUnits="userSpaceOnUse" gradientTransform="translate(214.818 306.13) scale(4.66378 4.66377)">
<stop stop-color="#FFFFB0"/>
<stop offset="0.1519" stop-color="#FFF591"/>
<stop offset="0.4819" stop-color="#FFDD42"/>
<stop offset="0.743" stop-color="#FFC900"/>
<stop offset="1" stop-color="#FFCE00"/>
</radialGradient>
<radialGradient id="paint32_radial_427_17509" cx="0" cy="0" r="1" gradientUnits="userSpaceOnUse" gradientTransform="translate(147.569 306.13) scale(4.66378 4.66377)">
<stop stop-color="#FFFFB0"/>
<stop offset="0.1519" stop-color="#FFF591"/>
<stop offset="0.4819" stop-color="#FFDD42"/>
<stop offset="0.743" stop-color="#FFC900"/>
<stop offset="1" stop-color="#FFCE00"/>
</radialGradient>
<radialGradient id="paint33_radial_427_17509" cx="0" cy="0" r="1" gradientUnits="userSpaceOnUse" gradientTransform="translate(117.657 306.13) scale(4.66378 4.66377)">
<stop stop-color="#FFFFB0"/>
<stop offset="0.1519" stop-color="#FFF591"/>
<stop offset="0.4819" stop-color="#FFDD42"/>
<stop offset="0.743" stop-color="#FFC900"/>
<stop offset="1" stop-color="#FFCE00"/>
</radialGradient>
<radialGradient id="paint34_radial_427_17509" cx="0" cy="0" r="1" gradientUnits="userSpaceOnUse" gradientTransform="translate(335.039 306.13) scale(4.66378 4.66377)">
<stop stop-color="#FFFFB0"/>
<stop offset="0.1519" stop-color="#FFF591"/>
<stop offset="0.4819" stop-color="#FFDD42"/>
<stop offset="0.743" stop-color="#FFC900"/>
<stop offset="1" stop-color="#FFCE00"/>
</radialGradient>
<radialGradient id="paint35_radial_427_17509" cx="0" cy="0" r="1" gradientUnits="userSpaceOnUse" gradientTransform="translate(305.127 306.13) scale(4.66378 4.66377)">
<stop stop-color="#FFFFB0"/>
<stop offset="0.1519" stop-color="#FFF591"/>
<stop offset="0.4819" stop-color="#FFDD42"/>
<stop offset="0.743" stop-color="#FFC900"/>
<stop offset="1" stop-color="#FFCE00"/>
</radialGradient>
<radialGradient id="paint36_radial_427_17509" cx="0" cy="0" r="1" gradientUnits="userSpaceOnUse" gradientTransform="translate(425.348 306.13) scale(4.66378 4.66377)">
<stop stop-color="#FFFFB0"/>
<stop offset="0.1519" stop-color="#FFF591"/>
<stop offset="0.4819" stop-color="#FFDD42"/>
<stop offset="0.743" stop-color="#FFC900"/>
<stop offset="1" stop-color="#FFCE00"/>
</radialGradient>
<radialGradient id="paint37_radial_427_17509" cx="0" cy="0" r="1" gradientUnits="userSpaceOnUse" gradientTransform="translate(395.436 306.13) scale(4.66378 4.66377)">
<stop stop-color="#FFFFB0"/>
<stop offset="0.1519" stop-color="#FFF591"/>
<stop offset="0.4819" stop-color="#FFDD42"/>
<stop offset="0.743" stop-color="#FFC900"/>
<stop offset="1" stop-color="#FFCE00"/>
</radialGradient>
<radialGradient id="paint38_radial_427_17509" cx="0" cy="0" r="1" gradientUnits="userSpaceOnUse" gradientTransform="translate(515.658 306.13) scale(4.66378 4.66377)">
<stop stop-color="#FFFFB0"/>
<stop offset="0.1519" stop-color="#FFF591"/>
<stop offset="0.4819" stop-color="#FFDD42"/>
<stop offset="0.743" stop-color="#FFC900"/>
<stop offset="1" stop-color="#FFCE00"/>
</radialGradient>
<radialGradient id="paint39_radial_427_17509" cx="0" cy="0" r="1" gradientUnits="userSpaceOnUse" gradientTransform="translate(485.745 306.13) scale(4.66378 4.66377)">
<stop stop-color="#FFFFB0"/>
<stop offset="0.1519" stop-color="#FFF591"/>
<stop offset="0.4819" stop-color="#FFDD42"/>
<stop offset="0.743" stop-color="#FFC900"/>
<stop offset="1" stop-color="#FFCE00"/>
</radialGradient>
<radialGradient id="paint40_radial_427_17509" cx="0" cy="0" r="1" gradientUnits="userSpaceOnUse" gradientTransform="translate(605.967 306.13) scale(4.66378 4.66377)">
<stop stop-color="#FFFFB0"/>
<stop offset="0.1519" stop-color="#FFF591"/>
<stop offset="0.4819" stop-color="#FFDD42"/>
<stop offset="0.743" stop-color="#FFC900"/>
<stop offset="1" stop-color="#FFCE00"/>
</radialGradient>
<radialGradient id="paint41_radial_427_17509" cx="0" cy="0" r="1" gradientUnits="userSpaceOnUse" gradientTransform="translate(576.054 306.13) scale(4.66378 4.66377)">
<stop stop-color="#FFFFB0"/>
<stop offset="0.1519" stop-color="#FFF591"/>
<stop offset="0.4819" stop-color="#FFDD42"/>
<stop offset="0.743" stop-color="#FFC900"/>
<stop offset="1" stop-color="#FFCE00"/>
</radialGradient>
<radialGradient id="paint42_radial_427_17509" cx="0" cy="0" r="1" gradientUnits="userSpaceOnUse" gradientTransform="translate(696.569 306.13) scale(4.66378 4.66377)">
<stop stop-color="#FFFFB0"/>
<stop offset="0.1519" stop-color="#FFF591"/>
<stop offset="0.4819" stop-color="#FFDD42"/>
<stop offset="0.743" stop-color="#FFC900"/>
<stop offset="1" stop-color="#FFCE00"/>
</radialGradient>
<radialGradient id="paint43_radial_427_17509" cx="0" cy="0" r="1" gradientUnits="userSpaceOnUse" gradientTransform="translate(666.657 306.13) scale(4.66378 4.66377)">
<stop stop-color="#FFFFB0"/>
<stop offset="0.1519" stop-color="#FFF591"/>
<stop offset="0.4819" stop-color="#FFDD42"/>
<stop offset="0.743" stop-color="#FFC900"/>
<stop offset="1" stop-color="#FFCE00"/>
</radialGradient>
</defs>
</svg>
