<svg width="384" height="68" fill="none" xmlns="http://www.w3.org/2000/svg"><path d="M1.646 7.013C2.115 4.57 4.172 2.88 6.657 2.745 19.983 2.027 68.613-.007 192-.007c123.856 0 172.386 2.05 185.493 2.76 2.412.131 4.416 1.733 4.893 4.1 1.041 5.164 2.395 15.411 1.053 30.14-1.409 15.464-4.8 23.023-6.689 26.15-.763 1.26-2.112 1.893-3.584 1.963-11.433.547-66.99 2.887-181.166 2.887-112.869 0-168.453-2.286-180.756-2.867-1.702-.08-3.264-.903-4.07-2.405C5.27 59.175 1.952 51.212.56 36.993c-1.356-13.867.04-24.53 1.085-29.98z" fill="url(#a)"/><path d="M2.31 7.34c.224-2.605 2.33-4.47 4.942-4.61C20.946 2 69.668-.007 192-.007c123.012 0 171.593 2.028 184.973 2.75 2.507.134 4.516 1.875 4.737 4.376.37 4.19.577 11.94-.599 24.874-1.331 14.632-3.99 22.629-5.622 26.344-.76 1.73-2.439 2.679-4.329 2.718-16.264.34-97.312 1.938-179.16 1.938-81.294 0-161.8-1.577-178.821-1.93-2.078-.044-3.908-1.171-4.683-3.1-1.633-4.061-4.28-12.378-5.607-25.97-1.196-12.26-.962-20.228-.58-24.652z" fill="url(#b)"/><path d="M192 55.993c23.882 0 154.821-1.905 172-2 0 0-50.5 4-172 4s-172-4-172-4c17.179.095 148.118 2 172 2z" fill="url(#c)" style="mix-blend-mode:screen"/><path d="M4 9.267c.381-2.568 2.514-4.399 5.106-4.54C22.611 3.994 70.578 1.993 192 1.993c121.527 0 169.472 2.004 182.929 2.736 2.576.14 4.697 1.953 5.081 4.504.918 6.102 1.98 18.235-.79 32.76 1.633-17.128-2.061-28.268-3.48-31.795-.324-.806-.923-1.364-1.778-1.512C368.531 7.75 339.973 4.993 192 4.993c-147.529 0-176.358 2.74-181.912 3.685-.888.15-1.506.735-1.833 1.574-1.422 3.65-5.106 15.04-3.475 31.74C2 27.765 3.08 15.463 4 9.268z" fill="url(#d)" style="mix-blend-mode:screen"/><path d="M9.265 12.464c.212-1.627 1.524-2.546 3.162-2.65C22.625 9.168 66.312 6.993 192 6.993c132.795 0 174.053 2.428 180.991 2.915.754.053 1.386.383 1.563 1.118.445 1.848.892 6.957-.443 20.967-1.63 17.097-5.249 20.937-6.538 21.774-.291.19-.585.228-.932.237-6.798.158-87.057 1.989-174.641 1.989-84.914 0-162.943-1.72-173.816-1.97-.883-.02-1.704-.254-2.28-.923-1.562-1.814-4.57-7.033-6.015-21.107-1.15-11.208-.978-16.8-.624-19.529z" fill="url(#e)"/><mask id="g" style="mask-type:alpha" maskUnits="userSpaceOnUse" x="9" y="6" width="366" height="50"><path d="M9.235 13.031c.218-1.944 1.785-3.136 3.738-3.26 10.959-.693 54.275-2.778 178.916-2.778 123.86 0 167.411 2.059 178.706 2.765 2.071.13 3.733 1.428 3.953 3.492.329 3.074.451 8.752-.659 18.743-1.36 12.234-4.105 18.001-5.724 20.44-.726 1.094-1.967 1.576-3.28 1.606-13.206.3-89.794 1.954-172.996 1.954-83.715 0-160.734-1.675-173.233-1.96-1.182-.026-2.282-.426-2.968-1.388-1.608-2.258-4.418-7.88-5.8-20.652-1.116-10.33-.986-15.983-.653-18.961z" fill="url(#f)"/></mask><g filter="url(#h)" mask="url(#g)"><ellipse cx="194" cy="56.493" rx="180" ry="11.5" fill="#01A406"/></g><path d="M13.21 15.189c.17-.97 1.195-1.24 2.177-1.307 7.936-.543 49.615-2.89 176.613-2.89 131.856 0 171.741 2.53 177.378 2.944.503.037.938.232 1.103.708.463 1.341 1.039 5.379-.37 17.349-1.578 13.403-5.022 17.482-6.409 18.608-.368.3-.793.397-1.268.408-7.868.192-83.772 1.984-170.434 1.984-88.617 0-165.986-1.874-170.863-1.994-.166-.004-.326.004-.49-.028-1.03-.198-5.022-2.068-6.758-18.978-1.088-10.611-.992-15.004-.678-16.804z" fill="url(#i)" style="mix-blend-mode:screen" opacity=".66"/><g style="mix-blend-mode:screen" opacity=".47" filter="url(#j)"><ellipse cx="192" cy="18.493" rx="179" ry="6.5" fill="#77FF7B"/></g><defs><linearGradient id="a" x1="192" y1="-.007" x2="192" y2="82.993" gradientUnits="userSpaceOnUse"><stop stop-color="#FDC00F"/><stop offset="1" stop-color="#955C1A"/></linearGradient><linearGradient id="b" x1="192" y1="-.007" x2="192" y2="82.993" gradientUnits="userSpaceOnUse"><stop stop-color="#FDC00F"/><stop offset="1" stop-color="#E9BA02"/></linearGradient><linearGradient id="c" x1="192" y1="-20.007" x2="192" y2="62.993" gradientUnits="userSpaceOnUse"><stop stop-color="#FDC00F"/><stop offset="1" stop-color="#E9BA02"/></linearGradient><linearGradient id="d" x1="192" y1="-.007" x2="192" y2="82.993" gradientUnits="userSpaceOnUse"><stop stop-color="#FFD866"/><stop offset="1" stop-color="#FFD73B"/></linearGradient><linearGradient id="e" x1="192" y1="4.993" x2="192" y2="77.993" gradientUnits="userSpaceOnUse"><stop stop-color="#004A02"/><stop offset="1" stop-color="#008C05"/></linearGradient><linearGradient id="f" x1="191.889" y1="4.993" x2="191.889" y2="77.993" gradientUnits="userSpaceOnUse"><stop stop-color="#006403"/><stop offset="1" stop-color="#009A05"/></linearGradient><linearGradient id="i" x1="192" y1="4.993" x2="192" y2="77.993" gradientUnits="userSpaceOnUse"><stop stop-color="#009A05"/><stop offset=".485" stop-color="#006403" stop-opacity="0"/></linearGradient><filter id="h" x="6.5" y="37.493" width="375" height="38" filterUnits="userSpaceOnUse" color-interpolation-filters="sRGB"><feFlood flood-opacity="0" result="BackgroundImageFix"/><feBlend in="SourceGraphic" in2="BackgroundImageFix" result="shape"/><feGaussianBlur stdDeviation="3.75" result="effect1_foregroundBlur_499_23919"/></filter><filter id="j" x="5.5" y="4.493" width="373" height="28" filterUnits="userSpaceOnUse" color-interpolation-filters="sRGB"><feFlood flood-opacity="0" result="BackgroundImageFix"/><feBlend in="SourceGraphic" in2="BackgroundImageFix" result="shape"/><feGaussianBlur stdDeviation="3.75" result="effect1_foregroundBlur_499_23919"/></filter></defs></svg>