<svg width="1023" height="44" fill="none" xmlns="http://www.w3.org/2000/svg"><path d="M10.813 10.34a8 8 0 0 1 8-8h985.997c4.42 0 8 3.582 8 8v23c0 4.418-3.58 8-8 8H18.814a8 8 0 0 1-8-8v-23z" stroke="url(#a)" stroke-width="4"/><path opacity=".35" d="m9.748 12.065-1.135-1.976-.588.473 1.661 2.87.062-1.367z" fill="#7A1C0B"/><path d="M9.546 17.977v-.715s-1.218-1.367-2.69-2.949C5.141 12.473 3.151 10.3 3.007 8.92c.311-1.688.924-3.37 1.959-4.786.767-.42 3.102-.955 5.587.574.88.802 1.455 2.529 1.188 3.751-.881 1.53-2.297 3.178-3.712 2.104 1.608 2.642 2.918 5.224 3.607 6.621-.395.794-1.17 2.183-1.17 2.183l-.92-1.39z" fill="url(#b)"/><path d="M8.026 10.562 6.983 9.22l.298-1.858.438-.86 1.415.5-.328-.236c-.487-.35-.942-.583-1.53-.465l-.539.653a3.67 3.67 0 0 0-.653 2.28L7.4 11.082l4.225 6.1a83.238 83.238 0 0 0-3.598-6.621z" fill="url(#c)"/><path d="m7.407 11.083 4.225 6.1c-.688-1.397-1.998-3.979-3.607-6.621L6.982 9.22l-.89.013 1.315 1.85z" fill="url(#d)"/><path d="M3.012 8.919c.144 1.38 2.134 3.558 3.847 5.394a206.37 206.37 0 0 1 2.691 2.95v.714l.333.504.469-1.21s-6-6.63-6.113-7.971c0-1.801.727-3.576 1.836-4.593 1.262-.381 2.91-.153 3.865.614.381.994.649 1.8.688 2.717-.346.534-1.188 1.53-1.608 1.836-.767-.381-.881-.688-1.359-1.074.136-.653.364-1.415.364-1.415l1.109-.382-1.416-.5C7.07 6.812 6.61 8.306 6.531 8.8c.534 1.341 1.494 1.762 1.494 1.762 1.415 1.074 2.831-.574 3.712-2.104.267-1.227-.307-2.949-1.188-3.75-2.485-1.535-4.82-.996-5.583-.575C3.932 5.55 3.318 7.231 3.012 8.92z" fill="url(#e)"/><path d="M10.629 8.038c-.346.534-1.188 1.53-1.609 1.836l-.035 1.03c1.074-.014 2.073-1.267 2.752-2.446.268-1.227-.306-2.949-1.187-3.75l-.614.613c.386.994.658 1.796.693 2.717z" fill="#BC4408"/><path d="m9.02 9.874-.035 1.03c1.074-.014 2.073-1.267 2.752-2.446l-1.108-.42c-.342.534-1.184 1.53-1.609 1.836z" fill="url(#f)"/><path opacity=".5" d="M6.075 4.707s.25-1.1-1.109-.574C3.936 5.47 3.318 7.231 3.012 8.92c0 0 .508 1.516 1.227.38-.048-1.664.727-3.575 1.836-4.592zM6.728 8.064l-.193.736h1.13c.137-.653.365-1.415.365-1.415l-.307-.881c-.438.206-.79.947-.995 1.56z" fill="#F9A346"/><path d="M7.074 7.805c.057.014.061.202.013.421-.052.22-.14.386-.197.373-.057-.014-.061-.202-.013-.421.052-.22.14-.386.197-.373z" fill="url(#g)"/><path d="M3.622 7.214c.061.013.065.215.013.451-.053.232-.15.412-.21.399-.062-.013-.066-.215-.014-.447.053-.241.15-.42.21-.403z" fill="url(#h)"/><path opacity=".55" d="m10.352 17.271-.806-.013v.719l.337.504.47-1.21z" fill="url(#i)"/><path d="m8.612 9.637-.425-.416c-.521-.42-.473-.605-.385-.938.227-.85.385-.907.81-1.1l-.626.083L7.534 8.8l1.078.837zM4.836 10.518c-.285-.649-.741-1.385-.39-2.656.346-1.27 1.082-2.826 2.024-3.256-.565.07-1.253.618-1.906 2.406-.653 1.788-.46 2.472.272 3.506z" fill="#FFE346"/><path opacity=".5" d="M5.317 12.613c.75.7 1.18.46.228-1.091.701.911 1.907 2.397 1.907 2.397-.53-.596-1.832-.951-.741.227-.517-.534-1.394-1.533-1.394-1.533z" fill="#F9A346"/><path opacity=".35" d="m9.546 17.977.403.324 1.004.18-.487.885-.92-1.39z" fill="#7A1C0B"/><path d="M9.546 24.265v.714s-1.219 1.368-2.691 2.95c-1.71 1.836-3.699 4.01-3.843 5.394.306 1.683.92 3.366 1.954 4.781.763.425 3.098.96 5.588-.574.88-.802 1.454-2.528 1.187-3.751-.88-1.53-2.296-3.177-3.712-2.104 1.609-2.642 2.919-5.223 3.607-6.621-.394-.793-1.17-2.182-1.17-2.182l-.92 1.393z" fill="url(#j)"/><path d="m8.025 31.675-1.043 1.341.298 1.858.438.86 1.416-.5-.33.236c-.486.351-.941.583-1.529.465l-.539-.653a3.671 3.671 0 0 1-.653-2.279l1.315-1.849 4.225-6.1a83.256 83.256 0 0 1-3.598 6.622z" fill="url(#k)"/><path d="m7.407 31.154 4.225-6.1c-.688 1.398-1.998 3.98-3.607 6.622l-1.043 1.34-.89-.012 1.315-1.85z" fill="url(#l)"/><path opacity=".35" d="m9.739 30.08-1.126 2.078-.588-.478 1.661-2.87.053 1.27z" fill="#7A1C0B"/><path d="M3.012 33.323c.144-1.38 2.134-3.558 3.847-5.394 1.473-1.582 2.691-2.95 2.691-2.95v-.714l.333-.504.469 1.21s-6 6.63-6.113 7.971c0 1.797.727 3.572 1.836 4.588 1.262.381 2.91.154 3.865-.613.381-.995.649-1.801.688-2.717-.346-.535-1.188-1.53-1.608-1.837-.767.382-.881.688-1.359 1.074.136.649.364 1.416.364 1.416l1.109.38-1.416.5c-.648-.306-1.108-1.8-1.187-2.296.534-1.34 1.494-1.761 1.494-1.761 1.415-1.074 2.831.574 3.712 2.103.267 1.227-.307 2.95-1.188 3.751-2.485 1.534-4.82 1-5.583.574-1.034-1.415-1.648-3.098-1.954-4.78z" fill="url(#m)"/><path d="M10.628 34.2c-.347-.535-1.188-1.53-1.609-1.837l-.035-1.03c1.074.014 2.073 1.267 2.752 2.446.268 1.227-.306 2.95-1.187 3.751l-.614-.613c.386-.99.658-1.797.693-2.717z" fill="#BC4408"/><path d="m9.02 32.364-.036-1.03c1.074.013 2.073 1.266 2.752 2.445l-1.108.42c-.342-.534-1.183-1.529-1.609-1.835z" fill="url(#n)"/><path opacity=".5" d="M6.075 37.53s.25 1.1-1.109.574c-1.03-1.336-1.648-3.098-1.954-4.78 0 0 .508-1.517 1.227-.382-.048 1.66.727 3.572 1.836 4.588zM6.728 34.173l-.193-.736h1.13c.137.649.365 1.416.365 1.416l-.307.88c-.438-.205-.79-.946-.995-1.56z" fill="#F9A346"/><path d="M7.074 34.432c.057-.013.061-.202.013-.42-.052-.22-.14-.386-.197-.373-.057.013-.061.201-.013.42.052.22.14.386.197.373z" fill="url(#o)"/><path d="M3.62 35.024c.062-.014.067-.215.014-.447-.053-.233-.15-.412-.21-.4-.062.014-.066.216-.014.452.053.237.15.412.21.395z" fill="url(#p)"/><path opacity=".55" d="m10.352 24.97-.806.01v-.715l.337-.508.47 1.214z" fill="url(#q)"/><path d="m8.612 32.6-.425.416c-.521.421-.473.605-.385.938.227.85.385.907.81 1.1l-.626-.083-.452-1.534 1.078-.837zM4.835 31.72c-.285.648-.74 1.384-.39 2.655.346 1.271 1.082 2.827 2.024 3.256-.565-.07-1.257-.618-1.906-2.406-.649-1.788-.46-2.471.272-3.505z" fill="#FFE346"/><path opacity=".5" d="M5.316 29.625c.75-.701 1.18-.46.228 1.09.701-.91 1.907-2.396 1.907-2.396-.53.591-1.832.946-.741-.232-.517.538-1.394 1.538-1.394 1.538z" fill="#F9A346"/><path opacity=".35" d="m9.546 24.265.403-.328 1.004-.18-.487-.88-.92 1.388z" fill="#7A1C0B"/><path d="m7.844 14.853 7.011 6.35-7.011 6.358-7.012-6.357 7.012-6.351z" fill="url(#r)"/><path d="M10.034 27.558H7.843l7.011-6.354-4.82 6.354z" fill="url(#s)"/><path d="M10.034 14.85H7.843l7.011 6.354-4.82-6.354z" fill="url(#t)"/><path d="m3.372 23.555-2.559-2.28 4.821-4.294-4.206 4.327 1.944 2.247z" fill="#F9A346"/><path d="M7.843 17.26s3.03 2.846 4.382 3.944c-1.351 1.098-2.775 2.384-4.382 3.944-1.606-1.56-4.382-3.944-4.382-3.944l4.382-3.944z" fill="#BC4408"/><path d="M3.46 21.204h.44l3.925-3.506v-.438l-4.364 3.944z" fill="url(#u)"/><path d="M7.843 25.148v-.438l3.944-3.506h.438l-4.382 3.944z" fill="#F9A346"/><path d="M7.843 17.698s2.73 2.53 3.944 3.506a58.615 58.615 0 0 0-3.944 3.506C6.395 23.32 3.9 21.204 3.9 21.204l3.944-3.506z" fill="url(#v)"/><path opacity=".3" d="M11.787 21.204 7.843 24.71l-.006-2.202s-.026-1.751 0-2.8c.032-1.26.006-2.01.006-2.01l3.944 3.506z" fill="#622170"/><path opacity=".5" d="M7.843 24.71V22.51l.876-1.307h3.068L7.843 24.71z" fill="#622170"/><path d="M3.9 21.204h2.629l1.314-1.315V17.7L3.9 21.203z" fill="url(#w)" style="mix-blend-mode:overlay"/><path d="M6.528 21.204v-.438l.22-.438.438-.439.639-2.031.018 2.031-1.315 1.315z" fill="#F7B2ED"/><path d="M9.158 21.204a1.315 1.315 0 1 0-2.63 0 1.315 1.315 0 0 0 2.63 0z" fill="url(#x)"/><path opacity=".35" d="m1013.92 12.065 1.14-1.976.58.473-1.66 2.87-.06-1.367z" fill="#7A1C0B"/><path d="M1014.12 17.977v-.715s1.22-1.367 2.69-2.949c1.72-1.84 3.71-4.014 3.85-5.394-.31-1.688-.92-3.37-1.96-4.786-.77-.42-3.1-.955-5.59.574-.88.802-1.45 2.529-1.18 3.751.88 1.53 2.29 3.178 3.71 2.104-1.61 2.642-2.92 5.224-3.61 6.621.4.794 1.17 2.183 1.17 2.183l.92-1.39z" fill="url(#y)"/><path d="m1015.64 10.562 1.05-1.341-.3-1.858-.44-.86-1.42.5.33-.236c.49-.35.94-.583 1.53-.465l.54.653c.47.666.69 1.468.65 2.28l-1.31 1.848-4.23 6.1c.68-1.397 1.99-3.979 3.6-6.621z" fill="url(#z)"/><path d="m1016.26 11.083-4.22 6.1c.68-1.397 1.99-3.979 3.6-6.621l1.05-1.341.89.013-1.32 1.85z" fill="url(#A)"/><path d="M1020.66 8.919c-.15 1.38-2.14 3.558-3.85 5.394-1.47 1.582-2.69 2.95-2.69 2.95v.714l-.34.504-.46-1.21s6-6.63 6.11-7.971c0-1.801-.73-3.576-1.84-4.593-1.26-.381-2.91-.153-3.86.614-.38.994-.65 1.8-.69 2.717.35.534 1.19 1.53 1.61 1.836.77-.381.88-.688 1.36-1.074-.14-.653-.37-1.415-.37-1.415l-1.11-.382 1.42-.5c.65.308 1.11 1.802 1.19 2.297-.54 1.341-1.5 1.762-1.5 1.762-1.41 1.074-2.83-.574-3.71-2.104-.27-1.227.31-2.949 1.19-3.75 2.48-1.535 4.82-.996 5.58-.575 1.04 1.416 1.65 3.098 1.96 4.786z" fill="url(#B)"/><path d="M1013.04 8.038c.35.534 1.19 1.53 1.61 1.836l.03 1.03c-1.07-.014-2.07-1.267-2.75-2.446-.27-1.227.31-2.949 1.19-3.75l.61.613c-.38.994-.66 1.796-.69 2.717z" fill="#BC4408"/><path d="m1014.65 9.874.03 1.03c-1.07-.014-2.07-1.267-2.75-2.446l1.11-.42c.34.534 1.18 1.53 1.61 1.836z" fill="url(#C)"/><path opacity=".5" d="M1017.59 4.707s-.25-1.1 1.11-.574c1.03 1.337 1.65 3.098 1.96 4.786 0 0-.51 1.516-1.23.38.05-1.664-.73-3.575-1.84-4.592zM1016.94 8.064l.19.736H1016c-.13-.653-.36-1.415-.36-1.415l.31-.881c.43.206.78.947.99 1.56z" fill="#F9A346"/><path d="M1016.59 7.805c-.05.014-.06.202-.01.421.05.22.14.386.2.373.05-.014.06-.202.01-.421-.05-.22-.14-.386-.2-.373z" fill="url(#D)"/><path d="M1020.05 7.214c-.07.013-.07.215-.02.451.06.232.15.412.21.399.06-.013.07-.215.02-.447-.06-.241-.15-.42-.21-.403z" fill="url(#E)"/><path opacity=".55" d="m1013.32 17.271.8-.013v.719l-.34.504-.46-1.21z" fill="url(#F)"/><path d="m1015.06 9.637.42-.416c.52-.42.47-.605.39-.938-.23-.85-.39-.907-.81-1.1l.62.083.45 1.534-1.07.837zM1018.83 10.518c.29-.649.74-1.385.39-2.656-.34-1.27-1.08-2.826-2.02-3.256.56.07 1.25.618 1.9 2.406.66 1.788.46 2.472-.27 3.506z" fill="#FFE346"/><path opacity=".5" d="M1018.35 12.613c-.75.7-1.18.46-.23-1.091-.7.911-1.9 2.397-1.9 2.397.53-.596 1.83-.951.74.227.51-.534 1.39-1.533 1.39-1.533z" fill="#F9A346"/><path opacity=".35" d="m1014.12 17.977-.4.324-1 .18.48.885.92-1.39z" fill="#7A1C0B"/><path d="M1014.12 24.265v.714s1.22 1.368 2.69 2.95c1.71 1.836 3.7 4.01 3.85 5.394-.31 1.683-.92 3.366-1.96 4.781-.76.425-3.1.96-5.59-.574-.88-.802-1.45-2.528-1.18-3.751.88-1.53 2.29-3.177 3.71-2.104-1.61-2.642-2.92-5.223-3.61-6.621.4-.793 1.17-2.182 1.17-2.182l.92 1.393z" fill="url(#G)"/><path d="m1015.64 31.675 1.05 1.341-.3 1.858-.44.86-1.42-.5.33.236c.49.351.95.583 1.53.465l.54-.653a3.63 3.63 0 0 0 .65-2.279l-1.31-1.849-4.22-6.1c.67 1.398 1.98 3.979 3.59 6.622z" fill="url(#H)"/><path d="m1016.26 31.154-4.22-6.1c.68 1.398 1.99 3.98 3.6 6.622l1.05 1.34.89-.012-1.32-1.85z" fill="url(#I)"/><path opacity=".35" d="m1013.93 30.08 1.13 2.078.58-.478-1.66-2.87-.05 1.27z" fill="#7A1C0B"/><path d="M1020.66 33.323c-.15-1.38-2.14-3.558-3.85-5.394-1.47-1.582-2.69-2.95-2.69-2.95v-.714l-.34-.504-.46 1.21s6 6.63 6.11 7.971c0 1.797-.73 3.572-1.84 4.588-1.26.381-2.91.154-3.86-.613-.38-.995-.65-1.801-.69-2.717.35-.535 1.19-1.53 1.61-1.837.77.382.88.688 1.36 1.074-.14.649-.37 1.416-.37 1.416l-1.11.38 1.42.5c.65-.306 1.11-1.8 1.19-2.296-.54-1.34-1.5-1.761-1.5-1.761-1.41-1.074-2.83.574-3.71 2.103-.27 1.227.31 2.95 1.19 3.751 2.48 1.534 4.82 1 5.58.574 1.04-1.415 1.65-3.098 1.96-4.78z" fill="url(#J)"/><path d="M1013.04 34.2c.35-.535 1.19-1.53 1.61-1.837l.03-1.03c-1.07.014-2.07 1.267-2.75 2.446-.27 1.227.31 2.95 1.19 3.751l.61-.613c-.38-.99-.65-1.797-.69-2.717z" fill="#BC4408"/><path d="m1014.65 32.364.03-1.03c-1.07.013-2.07 1.266-2.75 2.445l1.11.42c.34-.534 1.18-1.529 1.61-1.835z" fill="url(#K)"/><path opacity=".5" d="M1017.59 37.53s-.25 1.1 1.11.574c1.03-1.336 1.65-3.098 1.96-4.78 0 0-.51-1.517-1.23-.382.05 1.66-.73 3.572-1.84 4.588zM1016.94 34.173l.19-.736H1016c-.13.649-.36 1.416-.36 1.416l.31.88c.43-.205.78-.946.99-1.56z" fill="#F9A346"/><path d="M1016.59 34.432c-.05-.013-.06-.202-.01-.42.05-.22.14-.386.2-.373.05.013.06.201.01.42-.05.22-.14.386-.2.373z" fill="url(#L)"/><path d="M1020.05 35.024c-.06-.014-.07-.215-.02-.447.06-.233.15-.412.21-.4.07.014.07.216.02.452-.06.237-.15.412-.21.395z" fill="url(#M)"/><path opacity=".55" d="m1013.32 24.97.8.01v-.715l-.34-.508-.46 1.214z" fill="url(#N)"/><path d="m1015.06 32.6.42.416c.52.421.47.605.39.938-.23.85-.39.907-.81 1.1l.62-.083.45-1.534-1.07-.837zM1018.83 31.72c.29.648.74 1.384.39 2.655-.34 1.271-1.08 2.827-2.02 3.256.56-.07 1.26-.618 1.9-2.406.65-1.788.47-2.471-.27-3.505z" fill="#FFE346"/><path opacity=".5" d="M1018.35 29.625c-.75-.701-1.18-.46-.23 1.09-.7-.91-1.9-2.396-1.9-2.396.53.591 1.83.946.74-.232.52.538 1.39 1.538 1.39 1.538z" fill="#F9A346"/><path opacity=".35" d="m1014.12 24.265-.4-.328-1-.18.48-.88.92 1.388z" fill="#7A1C0B"/><path d="m1015.82 14.853-7.01 6.35 7.01 6.358 7.02-6.357-7.02-6.351z" fill="url(#O)"/><path d="M1013.63 27.558h2.2l-7.02-6.354 4.82 6.354z" fill="url(#P)"/><path d="M1013.63 14.85h2.2l-7.02 6.354 4.82-6.354z" fill="url(#Q)"/><path d="m1020.3 23.555 2.55-2.28-4.82-4.294 4.21 4.327-1.94 2.247z" fill="#F9A346"/><path d="M1015.82 17.26s-3.03 2.846-4.38 3.944c1.35 1.098 2.78 2.384 4.38 3.944 1.61-1.56 4.39-3.944 4.39-3.944l-4.39-3.944z" fill="#BC4408"/><path d="M1020.21 21.204h-.44l-3.93-3.506v-.438l4.37 3.944z" fill="url(#R)"/><path d="M1015.83 25.148v-.438l-3.95-3.506h-.44l4.39 3.944z" fill="#F9A346"/><path d="M1015.82 17.698s-2.72 2.53-3.94 3.506c1.22.976 2.5 2.116 3.94 3.506 1.45-1.39 3.95-3.506 3.95-3.506l-3.95-3.506z" fill="url(#S)"/><path opacity=".3" d="m1011.88 21.204 3.94 3.506.01-2.202s.03-1.751 0-2.8c-.03-1.26-.01-2.01-.01-2.01l-3.94 3.506z" fill="#622170"/><path opacity=".5" d="M1015.83 24.71V22.51l-.88-1.307h-3.07l3.95 3.506z" fill="#622170"/><path d="M1019.77 21.204h-2.63l-1.32-1.315V17.7l3.95 3.505z" fill="url(#T)" style="mix-blend-mode:overlay"/><path d="M1017.14 21.204v-.438l-.22-.438-.44-.439-.64-2.031-.02 2.031 1.32 1.315z" fill="#F7B2ED"/><path d="M1014.51 21.204a1.315 1.315 0 1 1 2.63 0 1.315 1.315 0 0 1-2.63 0z" fill="url(#U)"/><defs><linearGradient id="b" x1="11.806" y1="11.525" x2="3.385" y2="11.525" gradientUnits="userSpaceOnUse"><stop stop-color="#ED480B"/><stop offset=".986" stop-color="#F2B100"/></linearGradient><linearGradient id="a" x1="608.813" y1=".34" x2="608.813" y2="43.34" gradientUnits="userSpaceOnUse"><stop stop-color="#F5AA23"/><stop offset="1" stop-color="#BC4408"/></linearGradient><linearGradient id="d" x1="10.043" y1="11.818" x2="8.966" y2="13.088" gradientUnits="userSpaceOnUse"><stop stop-color="#7A1C0B"/><stop offset=".936" stop-color="#BC4408"/></linearGradient><linearGradient id="e" x1="11.653" y1="11.083" x2="6.141" y2="11.083" gradientUnits="userSpaceOnUse"><stop stop-color="#ED480B"/><stop offset=".986" stop-color="#F2B100"/></linearGradient><linearGradient id="f" x1="11.477" y1="7.996" x2="9.57" y2="10.245" gradientUnits="userSpaceOnUse"><stop stop-color="#7A1C0B"/><stop offset=".936" stop-color="#BC4408"/></linearGradient><linearGradient id="g" x1="7.238" y1="8.014" x2="6.959" y2="8.221" gradientUnits="userSpaceOnUse"><stop stop-color="#fff"/><stop offset="1" stop-color="#FFF7C4"/></linearGradient><linearGradient id="h" x1="3.794" y1="7.433" x2="3.498" y2="7.654" gradientUnits="userSpaceOnUse"><stop stop-color="#fff"/><stop offset="1" stop-color="#FFF7C4"/></linearGradient><linearGradient id="i" x1="9.73" y1="18.286" x2="9.909" y2="17.457" gradientUnits="userSpaceOnUse"><stop stop-color="#A32100"/><stop offset="1" stop-color="#D36C05"/></linearGradient><linearGradient id="j" x1="11.806" y1="30.713" x2="3.385" y2="30.713" gradientUnits="userSpaceOnUse"><stop stop-color="#ED480B"/><stop offset=".986" stop-color="#F2B100"/></linearGradient><linearGradient id="k" x1="11.661" y1="33.094" x2="9.499" y2="30.544" gradientUnits="userSpaceOnUse"><stop stop-color="#7A1C0B"/><stop offset=".936" stop-color="#BC4408"/></linearGradient><linearGradient id="l" x1="10.043" y1="30.421" x2="8.966" y2="29.151" gradientUnits="userSpaceOnUse"><stop stop-color="#7A1C0B"/><stop offset=".936" stop-color="#BC4408"/></linearGradient><linearGradient id="m" x1="11.653" y1="31.155" x2="6.141" y2="31.155" gradientUnits="userSpaceOnUse"><stop stop-color="#ED480B"/><stop offset=".986" stop-color="#F2B100"/></linearGradient><linearGradient id="n" x1="11.476" y1="34.242" x2="9.569" y2="31.993" gradientUnits="userSpaceOnUse"><stop stop-color="#7A1C0B"/><stop offset=".936" stop-color="#BC4408"/></linearGradient><linearGradient id="o" x1="7.238" y1="34.225" x2="6.959" y2="34.017" gradientUnits="userSpaceOnUse"><stop stop-color="#fff"/><stop offset="1" stop-color="#FFF7C4"/></linearGradient><linearGradient id="p" x1="3.793" y1="34.805" x2="3.497" y2="34.584" gradientUnits="userSpaceOnUse"><stop stop-color="#fff"/><stop offset="1" stop-color="#FFF7C4"/></linearGradient><linearGradient id="q" x1="9.73" y1="23.952" x2="9.909" y2="24.781" gradientUnits="userSpaceOnUse"><stop stop-color="#A32100"/><stop offset="1" stop-color="#D36C05"/></linearGradient><linearGradient id="r" x1="1.583" y1="21.143" x2="109.496" y2="21.143" gradientUnits="userSpaceOnUse"><stop offset=".014" stop-color="#F2B100"/><stop offset="1" stop-color="#ED480B"/></linearGradient><linearGradient id="s" x1="11.347" y1="21.206" x2="11.347" y2="27.342" gradientUnits="userSpaceOnUse"><stop offset=".064" stop-color="#BC4408"/><stop offset="1" stop-color="#7A1C0B"/></linearGradient><linearGradient id="t" x1="11.349" y1="14.631" x2="11.349" y2="21.204" gradientUnits="userSpaceOnUse"><stop stop-color="#F09103"/><stop offset="1" stop-color="#A93909"/></linearGradient><linearGradient id="u" x1="3.916" y1="21.429" x2="6.594" y2="18.593" gradientUnits="userSpaceOnUse"><stop stop-color="#7A1C0B"/><stop offset=".936" stop-color="#BC4408"/></linearGradient><linearGradient id="w" x1="5.886" y1="21.303" x2="5.886" y2="17.808" gradientUnits="userSpaceOnUse"><stop stop-color="#400900"/><stop offset="1" stop-color="#FB8A77"/></linearGradient><linearGradient id="c" x1="11.662" y1="9.144" x2="9.5" y2="11.694" gradientUnits="userSpaceOnUse"><stop stop-color="#7A1C0B"/><stop offset=".936" stop-color="#BC4408"/></linearGradient><linearGradient id="y" x1="1011.86" y1="11.525" x2="1020.28" y2="11.525" gradientUnits="userSpaceOnUse"><stop stop-color="#ED480B"/><stop offset=".986" stop-color="#F2B100"/></linearGradient><linearGradient id="z" x1="1012.01" y1="9.144" x2="1014.17" y2="11.694" gradientUnits="userSpaceOnUse"><stop stop-color="#7A1C0B"/><stop offset=".936" stop-color="#BC4408"/></linearGradient><linearGradient id="A" x1="1013.62" y1="11.818" x2="1014.7" y2="13.088" gradientUnits="userSpaceOnUse"><stop stop-color="#7A1C0B"/><stop offset=".936" stop-color="#BC4408"/></linearGradient><linearGradient id="B" x1="1012.02" y1="11.083" x2="1017.53" y2="11.083" gradientUnits="userSpaceOnUse"><stop stop-color="#ED480B"/><stop offset=".986" stop-color="#F2B100"/></linearGradient><linearGradient id="C" x1="1012.19" y1="7.996" x2="1014.1" y2="10.245" gradientUnits="userSpaceOnUse"><stop stop-color="#7A1C0B"/><stop offset=".936" stop-color="#BC4408"/></linearGradient><linearGradient id="D" x1="1016.43" y1="8.014" x2="1016.71" y2="8.221" gradientUnits="userSpaceOnUse"><stop stop-color="#fff"/><stop offset="1" stop-color="#FFF7C4"/></linearGradient><linearGradient id="E" x1="1019.87" y1="7.433" x2="1020.17" y2="7.654" gradientUnits="userSpaceOnUse"><stop stop-color="#fff"/><stop offset="1" stop-color="#FFF7C4"/></linearGradient><linearGradient id="F" x1="1013.94" y1="18.286" x2="1013.76" y2="17.457" gradientUnits="userSpaceOnUse"><stop stop-color="#A32100"/><stop offset="1" stop-color="#D36C05"/></linearGradient><linearGradient id="G" x1="1011.86" y1="30.713" x2="1020.28" y2="30.713" gradientUnits="userSpaceOnUse"><stop stop-color="#ED480B"/><stop offset=".986" stop-color="#F2B100"/></linearGradient><linearGradient id="H" x1="1012.01" y1="33.094" x2="1014.17" y2="30.544" gradientUnits="userSpaceOnUse"><stop stop-color="#7A1C0B"/><stop offset=".936" stop-color="#BC4408"/></linearGradient><linearGradient id="I" x1="1013.62" y1="30.421" x2="1014.7" y2="29.151" gradientUnits="userSpaceOnUse"><stop stop-color="#7A1C0B"/><stop offset=".936" stop-color="#BC4408"/></linearGradient><linearGradient id="J" x1="1012.02" y1="31.155" x2="1017.53" y2="31.155" gradientUnits="userSpaceOnUse"><stop stop-color="#ED480B"/><stop offset=".986" stop-color="#F2B100"/></linearGradient><linearGradient id="K" x1="1012.19" y1="34.242" x2="1014.1" y2="31.993" gradientUnits="userSpaceOnUse"><stop stop-color="#7A1C0B"/><stop offset=".936" stop-color="#BC4408"/></linearGradient><linearGradient id="L" x1="1016.43" y1="34.225" x2="1016.71" y2="34.017" gradientUnits="userSpaceOnUse"><stop stop-color="#fff"/><stop offset="1" stop-color="#FFF7C4"/></linearGradient><linearGradient id="M" x1="1019.87" y1="34.805" x2="1020.17" y2="34.584" gradientUnits="userSpaceOnUse"><stop stop-color="#fff"/><stop offset="1" stop-color="#FFF7C4"/></linearGradient><linearGradient id="N" x1="1013.94" y1="23.952" x2="1013.76" y2="24.781" gradientUnits="userSpaceOnUse"><stop stop-color="#A32100"/><stop offset="1" stop-color="#D36C05"/></linearGradient><linearGradient id="O" x1="1022.09" y1="21.143" x2="914.172" y2="21.143" gradientUnits="userSpaceOnUse"><stop offset=".014" stop-color="#F2B100"/><stop offset="1" stop-color="#ED480B"/></linearGradient><linearGradient id="P" x1="1012.32" y1="21.206" x2="1012.32" y2="27.342" gradientUnits="userSpaceOnUse"><stop offset=".064" stop-color="#BC4408"/><stop offset="1" stop-color="#7A1C0B"/></linearGradient><linearGradient id="Q" x1="1012.32" y1="14.631" x2="1012.32" y2="21.204" gradientUnits="userSpaceOnUse"><stop stop-color="#F09103"/><stop offset="1" stop-color="#A93909"/></linearGradient><linearGradient id="R" x1="1019.75" y1="21.429" x2="1017.07" y2="18.593" gradientUnits="userSpaceOnUse"><stop stop-color="#7A1C0B"/><stop offset=".936" stop-color="#BC4408"/></linearGradient><linearGradient id="T" x1="1017.78" y1="21.303" x2="1017.78" y2="17.808" gradientUnits="userSpaceOnUse"><stop stop-color="#400900"/><stop offset="1" stop-color="#FB8A77"/></linearGradient><radialGradient id="v" cx="0" cy="0" r="1" gradientUnits="userSpaceOnUse" gradientTransform="matrix(0 -4.32194 5.32095 0 5.906 19.832)"><stop stop-color="#E733FF"/><stop offset="1" stop-color="#B900DE"/></radialGradient><radialGradient id="S" cx="0" cy="0" r="1" gradientUnits="userSpaceOnUse" gradientTransform="matrix(0 -4.32194 5.32095 0 1017.76 19.832)"><stop stop-color="#E733FF"/><stop offset="1" stop-color="#B900DE"/></radialGradient><radialGradient id="U" cx="0" cy="0" r="1" gradientUnits="userSpaceOnUse" gradientTransform="matrix(0 -2.05995 2.25813 0 1015.09 21.989)"><stop stop-color="#E733FF"/><stop offset="1" stop-color="#B900DE"/></radialGradient><radialGradient id="x" cx="0" cy="0" r="1" gradientUnits="userSpaceOnUse" gradientTransform="matrix(0 -2.05995 2.25813 0 8.578 21.989)"><stop stop-color="#E733FF"/><stop offset="1" stop-color="#B900DE"/></radialGradient></defs></svg>