<svg width="164" height="321" fill="none" xmlns="http://www.w3.org/2000/svg"><path d="M85.609 304.708 91.5 278l13.674-18 7.637 44.996c.622 3.662-2.2 7.004-5.915 7.004H91.468c-3.835 0-6.685-3.548-5.86-7.292z" fill="#D74600"/><path d="M85.609 304.708 91.5 278l13.674-18 7.637 44.996c.622 3.662-2.2 7.004-5.915 7.004H91.468c-3.835 0-6.685-3.548-5.86-7.292z" fill="#FFA600"/><mask id="a" style="mask-type:alpha" maskUnits="userSpaceOnUse" x="85" y="260" width="28" height="52"><path d="M85.41 304.664 91.5 278l13.605-18 7.696 44.988c.626 3.665-2.197 7.012-5.915 7.012H91.26c-3.854 0-6.708-3.58-5.85-7.336z" fill="#000"/><path d="M85.41 304.664 91.5 278l13.605-18 7.696 44.988c.626 3.665-2.197 7.012-5.915 7.012H91.26c-3.854 0-6.708-3.58-5.85-7.336z" fill="#FFA600"/></mask><g mask="url(#a)"><g opacity=".65" filter="url(#b)"><path d="M81.512 290.191c-4.057 3.575-2.638 11.905-.914 15.176 10.181-9.569 30.589-29.464 30.772-32.5.182-3.035 2.142-3.684 2.713-13.169-4.628 13.06-28.514 26.919-32.571 30.493z" fill="#fff"/></g><g filter="url(#c)"><path d="M108.647 265.202c2.937-2.865 2.937-9.074 1.469-11.462-2.937 11.462-22.026 22.924-23.494 27.222-1.039 3.04-1.469 1.433-1.469 8.597 2.937-10.029 20.557-21.491 23.494-24.357z" fill="#B74F00"/></g><g filter="url(#d)"><path d="M110.391 316.659c4.145-.266 8.338-24.195 8.847-26.935-4.58 14.352-32.213 17.14-36.057 14.352-2.635-1.912-2.072 10.405-6.91 15.792 8.982-5.654 29.976-2.942 34.12-3.209z" fill="#B74F00"/></g></g><path d="M95.076-290v554.61h7.703V-290h-7.703z" fill="#FFA600"/><path d="M96.773 262.378c-6.643 4.429-8.927 13.39-4.463 15.622 1.115-2.232 5.135-5.335 8.849-7.811 6.695-4.464 9.005-16.738 4.541-18.97 0 2.976-2.232 6.695-8.927 11.159z" fill="#FFA600"/><mask id="e" style="mask-type:alpha" maskUnits="userSpaceOnUse" x="90" y="251" width="18" height="27"><path d="M96.773 262.378c-6.643 4.429-8.927 13.39-4.463 15.622 1.115-2.232 5.135-5.335 8.849-7.811 6.695-4.464 9.005-16.738 4.541-18.97 0 2.976-2.232 6.695-8.927 11.159z" fill="#FFA600"/></mask><g mask="url(#e)"><g opacity=".65" filter="url(#f)"><path d="M89.135 267.957c-2.232 2.232-1.116 7.067 0 8.927 5.58-5.952 16.738-18.301 16.738-20.086 0-1.785 1.116-2.232 1.116-7.811-2.232 7.811-15.623 16.738-17.854 18.97z" fill="#fff"/></g><g filter="url(#g)"><path d="M107.932 264.609c2.232-2.231 2.232-7.067 1.116-8.927-2.232 8.927-16.738 17.854-17.854 21.202-.789 2.367-1.116 1.116-1.116 6.695 2.232-7.811 15.622-16.738 17.854-18.97z" fill="#B74F00"/></g></g><path d="M96.773 251.219c-6.643 4.429-8.927 13.391-4.463 15.623 1.115-2.232 5.135-5.336 8.849-7.812 6.695-4.463 9.005-16.738 4.541-18.969 0 2.975-2.232 6.695-8.927 11.158z" fill="#FFA600"/><mask id="h" style="mask-type:alpha" maskUnits="userSpaceOnUse" x="90" y="240" width="18" height="27"><path d="M96.773 251.219c-6.643 4.429-8.927 13.391-4.463 15.623 1.115-2.232 5.135-5.336 8.849-7.812 6.695-4.463 9.005-16.738 4.541-18.969 0 2.975-2.232 6.695-8.927 11.158z" fill="#FFA600"/></mask><g mask="url(#h)"><g opacity=".65" filter="url(#i)"><path d="M89.135 256.798c-2.232 2.232-1.116 7.068 0 8.927 5.58-5.951 16.738-18.3 16.738-20.085 0-1.786 1.116-2.232 1.116-7.812-2.232 7.812-15.623 16.739-17.854 18.97z" fill="#fff"/></g><g filter="url(#j)"><path d="M107.932 253.451c2.232-2.232 2.232-7.067 1.116-8.927-2.232 8.927-16.738 17.854-17.854 21.202-.789 2.367-1.116 1.116-1.116 6.695 2.232-7.811 15.622-16.738 17.854-18.97z" fill="#B74F00"/></g></g><path d="M96.773 240.061c-6.643 4.429-8.927 13.39-4.463 15.622 1.115-2.232 5.135-5.335 8.849-7.811 6.695-4.464 9.005-16.738 4.541-18.97 0 2.976-2.232 6.695-8.927 11.159z" fill="#FFA600"/><mask id="k" style="mask-type:alpha" maskUnits="userSpaceOnUse" x="90" y="228" width="18" height="28"><path d="M96.773 240.061c-6.643 4.429-8.927 13.39-4.463 15.622 1.115-2.232 5.135-5.335 8.849-7.811 6.695-4.464 9.005-16.738 4.541-18.97 0 2.976-2.232 6.695-8.927 11.159z" fill="#FFA600"/></mask><g mask="url(#k)"><g opacity=".65" filter="url(#l)"><path d="M89.135 245.64c-2.232 2.232-1.116 7.067 0 8.927 5.58-5.952 16.738-18.301 16.738-20.086 0-1.785 1.116-2.232 1.116-7.811-2.232 7.811-15.623 16.738-17.854 18.97z" fill="#fff"/></g><g filter="url(#m)"><path d="M107.932 242.293c2.232-2.232 2.232-7.068 1.116-8.927-2.232 8.927-16.738 17.854-17.854 21.201-.789 2.367-1.116 1.116-1.116 6.696 2.232-7.812 15.622-16.739 17.854-18.97z" fill="#B74F00"/></g></g><path d="M96.773 228.902c-6.643 4.429-8.927 13.391-4.463 15.622 1.115-2.231 5.135-5.335 8.849-7.811 6.695-4.463 9.005-16.738 4.541-18.97 0 2.976-2.232 6.696-8.927 11.159z" fill="#FFA600"/><mask id="n" style="mask-type:alpha" maskUnits="userSpaceOnUse" x="90" y="217" width="18" height="28"><path d="M96.773 228.902c-6.643 4.429-8.927 13.391-4.463 15.622 1.115-2.231 5.135-5.335 8.849-7.811 6.695-4.463 9.005-16.738 4.541-18.97 0 2.976-2.232 6.696-8.927 11.159z" fill="#FFA600"/></mask><g mask="url(#n)"><g opacity=".65" filter="url(#o)"><path d="M89.135 234.481c-2.232 2.232-1.116 7.067 0 8.927 5.58-5.951 16.738-18.3 16.738-20.086 0-1.785 1.116-2.231 1.116-7.811-2.232 7.811-15.623 16.738-17.854 18.97z" fill="#fff"/></g><g filter="url(#p)"><path d="M107.932 231.134c2.232-2.232 2.232-7.067 1.116-8.927-2.232 8.927-16.738 17.854-17.854 21.201-.789 2.368-1.116 1.116-1.116 6.696 2.232-7.811 15.622-16.738 17.854-18.97z" fill="#B74F00"/></g></g><path d="M96.773 217.744c-6.643 4.429-8.927 13.39-4.463 15.622 1.115-2.232 5.135-5.335 8.849-7.811 6.695-4.464 9.005-16.738 4.541-18.97 0 2.975-2.232 6.695-8.927 11.159z" fill="#FFA600"/><mask id="q" style="mask-type:alpha" maskUnits="userSpaceOnUse" x="90" y="206" width="18" height="28"><path d="M96.773 217.744c-6.643 4.429-8.927 13.39-4.463 15.622 1.115-2.232 5.135-5.335 8.849-7.811 6.695-4.464 9.005-16.738 4.541-18.97 0 2.975-2.232 6.695-8.927 11.159z" fill="#FFA600"/></mask><g mask="url(#q)"><g opacity=".65" filter="url(#r)"><path d="M89.135 223.323c-2.232 2.231-1.116 7.067 0 8.927 5.58-5.952 16.738-18.301 16.738-20.086 0-1.786 1.116-2.232 1.116-7.811-2.232 7.811-15.623 16.738-17.854 18.97z" fill="#fff"/></g><g filter="url(#s)"><path d="M107.932 219.975c2.232-2.231 2.232-7.067 1.116-8.927-2.232 8.927-16.738 17.854-17.854 21.202-.789 2.367-1.116 1.116-1.116 6.695 2.232-7.811 15.622-16.738 17.854-18.97z" fill="#B74F00"/></g></g><path d="M96.773 206.585c-6.643 4.429-8.927 13.391-4.463 15.622 1.115-2.231 5.135-5.335 8.849-7.811 6.695-4.463 9.005-16.738 4.541-18.97 0 2.976-2.232 6.695-8.927 11.159z" fill="#FFA600"/><mask id="t" style="mask-type:alpha" maskUnits="userSpaceOnUse" x="90" y="195" width="18" height="28"><path d="M96.773 206.585c-6.643 4.429-8.927 13.391-4.463 15.622 1.115-2.231 5.135-5.335 8.849-7.811 6.695-4.463 9.005-16.738 4.541-18.97 0 2.976-2.232 6.695-8.927 11.159z" fill="#FFA600"/></mask><g mask="url(#t)"><g opacity=".65" filter="url(#u)"><path d="M89.135 212.164c-2.232 2.232-1.116 7.067 0 8.927 5.58-5.951 16.738-18.3 16.738-20.086 0-1.785 1.116-2.232 1.116-7.811-2.232 7.811-15.623 16.738-17.854 18.97z" fill="#fff"/></g><g filter="url(#v)"><path d="M107.932 208.817c2.232-2.232 2.232-7.068 1.116-8.927-2.232 8.927-16.738 17.854-17.854 21.201-.789 2.367-1.116 1.116-1.116 6.696 2.232-7.812 15.622-16.739 17.854-18.97z" fill="#B74F00"/></g></g><path d="M96.773 195.426c-6.643 4.429-8.927 13.391-4.463 15.623 1.115-2.232 5.135-5.336 8.849-7.812 6.695-4.463 9.005-16.738 4.541-18.969 0 2.975-2.232 6.695-8.927 11.158z" fill="#FFA600"/><mask id="w" style="mask-type:alpha" maskUnits="userSpaceOnUse" x="90" y="184" width="18" height="28"><path d="M96.773 195.426c-6.643 4.429-8.927 13.391-4.463 15.623 1.115-2.232 5.135-5.336 8.849-7.812 6.695-4.463 9.005-16.738 4.541-18.969 0 2.975-2.232 6.695-8.927 11.158z" fill="#FFA600"/></mask><g mask="url(#w)"><g opacity=".65" filter="url(#x)"><path d="M89.135 201.005c-2.232 2.232-1.116 7.067 0 8.927 5.58-5.951 16.738-18.3 16.738-20.086 0-1.785 1.116-2.231 1.116-7.811-2.232 7.811-15.623 16.738-17.854 18.97z" fill="#fff"/></g><g filter="url(#y)"><path d="M107.932 197.658c2.232-2.232 2.232-7.067 1.116-8.927-2.232 8.927-16.738 17.854-17.854 21.202-.789 2.367-1.116 1.116-1.116 6.695 2.232-7.811 15.622-16.738 17.854-18.97z" fill="#B74F00"/></g></g><path d="M96.773 184.268c-6.643 4.429-8.927 13.39-4.463 15.622 1.115-2.232 5.135-5.335 8.849-7.811 6.695-4.464 9.005-16.738 4.541-18.97 0 2.976-2.232 6.695-8.927 11.159z" fill="#FFA600"/><mask id="z" style="mask-type:alpha" maskUnits="userSpaceOnUse" x="90" y="173" width="18" height="27"><path d="M96.773 184.268c-6.643 4.429-8.927 13.39-4.463 15.622 1.115-2.232 5.135-5.335 8.849-7.811 6.695-4.464 9.005-16.738 4.541-18.97 0 2.976-2.232 6.695-8.927 11.159z" fill="#FFA600"/></mask><g mask="url(#z)"><g opacity=".65" filter="url(#A)"><path d="M89.135 189.847c-2.232 2.231-1.116 7.067 0 8.927 5.58-5.952 16.738-18.301 16.738-20.086 0-1.785 1.116-2.232 1.116-7.811-2.232 7.811-15.623 16.738-17.854 18.97z" fill="#fff"/></g><g filter="url(#B)"><path d="M107.932 186.5c2.232-2.232 2.232-7.068 1.116-8.927-2.232 8.927-16.738 17.854-17.854 21.201-.789 2.367-1.116 1.116-1.116 6.695 2.232-7.811 15.622-16.738 17.854-18.969z" fill="#B74F00"/></g></g><path d="M96.773 173.109c-6.643 4.429-8.927 13.391-4.463 15.622 1.115-2.231 5.135-5.335 8.849-7.811 6.695-4.463 9.005-16.738 4.541-18.97 0 2.976-2.232 6.696-8.927 11.159z" fill="#FFA600"/><mask id="C" style="mask-type:alpha" maskUnits="userSpaceOnUse" x="90" y="161" width="18" height="28"><path d="M96.773 173.109c-6.643 4.429-8.927 13.391-4.463 15.622 1.115-2.231 5.135-5.335 8.849-7.811 6.695-4.463 9.005-16.738 4.541-18.97 0 2.976-2.232 6.696-8.927 11.159z" fill="#FFA600"/></mask><g mask="url(#C)"><g opacity=".65" filter="url(#D)"><path d="M89.135 178.688c-2.232 2.232-1.116 7.067 0 8.927 5.58-5.951 16.738-18.3 16.738-20.086 0-1.785 1.116-2.231 1.116-7.811-2.232 7.811-15.623 16.738-17.854 18.97z" fill="#fff"/></g><g filter="url(#E)"><path d="M107.932 175.341c2.232-2.232 2.232-7.067 1.116-8.927-2.232 8.927-16.738 17.854-17.854 21.202-.789 2.367-1.116 1.115-1.116 6.695 2.232-7.811 15.622-16.738 17.854-18.97z" fill="#B74F00"/></g></g><path d="M96.773 161.951c-6.643 4.429-8.927 13.39-4.463 15.622 1.115-2.232 5.135-5.335 8.849-7.811 6.695-4.464 9.005-16.738 4.541-18.97 0 2.975-2.232 6.695-8.927 11.159z" fill="#FFA600"/><mask id="F" style="mask-type:alpha" maskUnits="userSpaceOnUse" x="90" y="150" width="18" height="28"><path d="M96.773 161.951c-6.643 4.429-8.927 13.39-4.463 15.622 1.115-2.232 5.135-5.335 8.849-7.811 6.695-4.464 9.005-16.738 4.541-18.97 0 2.975-2.232 6.695-8.927 11.159z" fill="#FFA600"/></mask><g mask="url(#F)"><g opacity=".65" filter="url(#G)"><path d="M89.135 167.53c-2.232 2.231-1.116 7.067 0 8.927 5.58-5.952 16.738-18.301 16.738-20.086 0-1.786 1.116-2.232 1.116-7.811-2.232 7.811-15.623 16.738-17.854 18.97z" fill="#fff"/></g><g filter="url(#H)"><path d="M107.932 164.182c2.232-2.231 2.232-7.067 1.116-8.927-2.232 8.927-16.738 17.854-17.854 21.202-.789 2.367-1.116 1.116-1.116 6.695 2.232-7.811 15.622-16.738 17.854-18.97z" fill="#B74F00"/></g></g><path d="M96.773 150.792c-6.643 4.429-8.927 13.39-4.463 15.622 1.115-2.232 5.135-5.335 8.849-7.811 6.695-4.463 9.005-16.738 4.541-18.97 0 2.976-2.232 6.695-8.927 11.159z" fill="#FFA600"/><mask id="I" style="mask-type:alpha" maskUnits="userSpaceOnUse" x="90" y="139" width="18" height="28"><path d="M96.773 150.792c-6.643 4.429-8.927 13.39-4.463 15.622 1.115-2.232 5.135-5.335 8.849-7.811 6.695-4.463 9.005-16.738 4.541-18.97 0 2.976-2.232 6.695-8.927 11.159z" fill="#FFA600"/></mask><g mask="url(#I)"><g opacity=".65" filter="url(#J)"><path d="M89.135 156.371c-2.232 2.232-1.116 7.067 0 8.927 5.58-5.951 16.738-18.3 16.738-20.086 0-1.785 1.116-2.232 1.116-7.811-2.232 7.811-15.623 16.738-17.854 18.97z" fill="#fff"/></g><g filter="url(#K)"><path d="M107.932 153.024c2.232-2.232 2.232-7.067 1.116-8.927-2.232 8.927-16.738 17.854-17.854 21.201-.789 2.368-1.116 1.116-1.116 6.696 2.232-7.811 15.622-16.738 17.854-18.97z" fill="#B74F00"/></g></g><path d="M96.773 139.633c-6.643 4.43-8.927 13.391-4.463 15.623 1.115-2.232 5.135-5.336 8.849-7.811 6.695-4.464 9.005-16.739 4.541-18.97 0 2.975-2.232 6.695-8.927 11.158z" fill="#FFA600"/><mask id="L" style="mask-type:alpha" maskUnits="userSpaceOnUse" x="90" y="128" width="18" height="28"><path d="M96.773 139.633c-6.643 4.43-8.927 13.391-4.463 15.623 1.115-2.232 5.135-5.336 8.849-7.811 6.695-4.464 9.005-16.739 4.541-18.97 0 2.975-2.232 6.695-8.927 11.158z" fill="#FFA600"/></mask><g mask="url(#L)"><g opacity=".65" filter="url(#M)"><path d="M89.135 145.212c-2.232 2.232-1.116 7.068 0 8.927 5.58-5.951 16.738-18.3 16.738-20.085 0-1.786 1.116-2.232 1.116-7.812-2.232 7.812-15.623 16.739-17.854 18.97z" fill="#fff"/></g><g filter="url(#N)"><path d="M107.932 141.865c2.232-2.232 2.232-7.067 1.116-8.927-2.232 8.927-16.738 17.854-17.854 21.202-.789 2.367-1.116 1.116-1.116 6.695 2.232-7.811 15.622-16.738 17.854-18.97z" fill="#B74F00"/></g></g><path d="M96.773 128.475c-6.643 4.429-8.927 13.39-4.463 15.622 1.115-2.232 5.135-5.335 8.849-7.811 6.695-4.464 9.005-16.738 4.541-18.97 0 2.976-2.232 6.695-8.927 11.159z" fill="#FFA600"/><mask id="O" style="mask-type:alpha" maskUnits="userSpaceOnUse" x="90" y="117" width="18" height="28"><path d="M96.773 128.475c-6.643 4.429-8.927 13.39-4.463 15.622 1.115-2.232 5.135-5.335 8.849-7.811 6.695-4.464 9.005-16.738 4.541-18.97 0 2.976-2.232 6.695-8.927 11.159z" fill="#FFA600"/></mask><g mask="url(#O)"><g opacity=".65" filter="url(#P)"><path d="M89.135 134.054c-2.232 2.232-1.116 7.067 0 8.927 5.58-5.952 16.738-18.301 16.738-20.086 0-1.785 1.116-2.232 1.116-7.811-2.232 7.811-15.623 16.738-17.854 18.97z" fill="#fff"/></g><g filter="url(#Q)"><path d="M107.932 130.707c2.232-2.232 2.232-7.068 1.116-8.927-2.232 8.927-16.738 17.854-17.854 21.201-.789 2.367-1.116 1.116-1.116 6.696 2.232-7.812 15.622-16.739 17.854-18.97z" fill="#B74F00"/></g></g><path d="M96.773 117.316c-6.643 4.429-8.927 13.391-4.463 15.623 1.115-2.232 5.135-5.336 8.849-7.812 6.695-4.463 9.005-16.738 4.541-18.97 0 2.976-2.232 6.696-8.927 11.159z" fill="#FFA600"/><mask id="R" style="mask-type:alpha" maskUnits="userSpaceOnUse" x="90" y="106" width="18" height="27"><path d="M96.773 117.316c-6.643 4.429-8.927 13.391-4.463 15.623 1.115-2.232 5.135-5.336 8.849-7.812 6.695-4.463 9.005-16.738 4.541-18.97 0 2.976-2.232 6.696-8.927 11.159z" fill="#FFA600"/></mask><g mask="url(#R)"><g opacity=".65" filter="url(#S)"><path d="M89.135 122.895c-2.232 2.232-1.116 7.067 0 8.927 5.58-5.951 16.738-18.3 16.738-20.086 0-1.785 1.116-2.231 1.116-7.811-2.232 7.811-15.623 16.738-17.854 18.97z" fill="#fff"/></g><g filter="url(#T)"><path d="M107.932 119.548c2.232-2.232 2.232-7.067 1.116-8.927-2.232 8.927-16.738 17.854-17.854 21.202-.789 2.367-1.116 1.115-1.116 6.695 2.232-7.811 15.622-16.738 17.854-18.97z" fill="#B74F00"/></g></g><path d="M96.773 106.158c-6.643 4.429-8.927 13.39-4.463 15.622 1.115-2.232 5.135-5.335 8.849-7.811 6.695-4.464 9.005-16.738 4.541-18.97 0 2.976-2.232 6.695-8.927 11.159z" fill="#FFA600"/><mask id="U" style="mask-type:alpha" maskUnits="userSpaceOnUse" x="90" y="94" width="18" height="28"><path d="M96.773 106.158c-6.643 4.429-8.927 13.39-4.463 15.622 1.115-2.232 5.135-5.335 8.849-7.811 6.695-4.464 9.005-16.738 4.541-18.97 0 2.976-2.232 6.695-8.927 11.159z" fill="#FFA600"/></mask><g mask="url(#U)"><g opacity=".65" filter="url(#V)"><path d="M89.135 111.736c-2.232 2.232-1.116 7.068 0 8.928 5.58-5.952 16.738-18.301 16.738-20.086 0-1.786 1.116-2.232 1.116-7.811-2.232 7.811-15.623 16.738-17.854 18.969z" fill="#fff"/></g><g filter="url(#W)"><path d="M107.932 108.389c2.232-2.231 2.232-7.067 1.116-8.927-2.232 8.927-16.738 17.854-17.854 21.202-.789 2.367-1.116 1.116-1.116 6.695 2.232-7.811 15.622-16.738 17.854-18.97z" fill="#B74F00"/></g></g><path d="M96.773 94.999c-6.643 4.43-8.927 13.391-4.463 15.622 1.115-2.231 5.135-5.335 8.849-7.811 6.695-4.463 9.005-16.738 4.541-18.97 0 2.976-2.232 6.695-8.927 11.159z" fill="#FFA600"/><mask id="X" style="mask-type:alpha" maskUnits="userSpaceOnUse" x="90" y="83" width="18" height="28"><path d="M96.773 94.999c-6.643 4.43-8.927 13.391-4.463 15.622 1.115-2.231 5.135-5.335 8.849-7.811 6.695-4.463 9.005-16.738 4.541-18.97 0 2.976-2.232 6.695-8.927 11.159z" fill="#FFA600"/></mask><g mask="url(#X)"><g opacity=".65" filter="url(#Y)"><path d="M89.135 100.578c-2.232 2.232-1.116 7.067 0 8.927 5.58-5.951 16.738-18.3 16.738-20.086 0-1.785 1.116-2.232 1.116-7.811-2.232 7.811-15.623 16.738-17.854 18.97z" fill="#fff"/></g><g filter="url(#Z)"><path d="M107.932 97.23c2.232-2.231 2.232-7.067 1.116-8.926-2.232 8.927-16.738 17.854-17.854 21.201-.789 2.368-1.116 1.116-1.116 6.696 2.232-7.811 15.622-16.738 17.854-18.97z" fill="#B74F00"/></g></g><path d="M96.773 83.84c-6.643 4.43-8.927 13.39-4.463 15.623 1.115-2.232 5.135-5.336 8.849-7.811 6.695-4.464 9.005-16.739 4.541-18.97 0 2.975-2.232 6.695-8.927 11.158z" fill="#FFA600"/><mask id="aa" style="mask-type:alpha" maskUnits="userSpaceOnUse" x="90" y="72" width="18" height="28"><path d="M96.773 83.84c-6.643 4.43-8.927 13.39-4.463 15.623 1.115-2.232 5.135-5.336 8.849-7.811 6.695-4.464 9.005-16.739 4.541-18.97 0 2.975-2.232 6.695-8.927 11.158z" fill="#FFA600"/></mask><g mask="url(#aa)"><g opacity=".65" filter="url(#ab)"><path d="M89.135 89.42c-2.232 2.231-1.116 7.067 0 8.926 5.58-5.95 16.738-18.3 16.738-20.085 0-1.786 1.116-2.232 1.116-7.811-2.232 7.81-15.623 16.738-17.854 18.97z" fill="#fff"/></g><g filter="url(#ac)"><path d="M107.932 86.072c2.232-2.232 2.232-7.067 1.116-8.927C106.816 86.072 92.31 95 91.194 98.347c-.789 2.367-1.116 1.116-1.116 6.695 2.232-7.811 15.622-16.738 17.854-18.97z" fill="#B74F00"/></g></g><path d="M96.773 72.682c-6.643 4.43-8.927 13.39-4.463 15.622 1.115-2.231 5.135-5.335 8.849-7.81 6.695-4.464 9.005-16.739 4.541-18.97 0 2.975-2.232 6.695-8.927 11.158z" fill="#FFA600"/><mask id="ad" style="mask-type:alpha" maskUnits="userSpaceOnUse" x="90" y="61" width="18" height="28"><path d="M96.773 72.682c-6.643 4.43-8.927 13.39-4.463 15.622 1.115-2.231 5.135-5.335 8.849-7.81 6.695-4.464 9.005-16.739 4.541-18.97 0 2.975-2.232 6.695-8.927 11.158z" fill="#FFA600"/></mask><g mask="url(#ad)"><g opacity=".65" filter="url(#ae)"><path d="M89.135 78.26c-2.232 2.233-1.116 7.068 0 8.928 5.58-5.951 16.738-18.3 16.738-20.086 0-1.785 1.116-2.232 1.116-7.811-2.232 7.811-15.623 16.738-17.854 18.97z" fill="#fff"/></g><g filter="url(#af)"><path d="M107.932 74.914c2.232-2.232 2.232-7.068 1.116-8.927-2.232 8.927-16.738 17.854-17.854 21.201-.789 2.367-1.116 1.116-1.116 6.695 2.232-7.81 15.622-16.738 17.854-18.97z" fill="#B74F00"/></g></g><path d="M96.773 61.523c-6.643 4.43-8.927 13.39-4.463 15.622 1.115-2.231 5.135-5.335 8.849-7.81 6.695-4.464 9.005-16.739 4.541-18.97 0 2.975-2.232 6.695-8.927 11.158z" fill="#FFA600"/><mask id="ag" style="mask-type:alpha" maskUnits="userSpaceOnUse" x="90" y="50" width="18" height="28"><path d="M96.773 61.523c-6.643 4.43-8.927 13.39-4.463 15.622 1.115-2.231 5.135-5.335 8.849-7.81 6.695-4.464 9.005-16.739 4.541-18.97 0 2.975-2.232 6.695-8.927 11.158z" fill="#FFA600"/></mask><g mask="url(#ag)"><g opacity=".65" filter="url(#ah)"><path d="M89.135 67.102c-2.232 2.232-1.116 7.067 0 8.927 5.58-5.951 16.738-18.3 16.738-20.085 0-1.786 1.116-2.232 1.116-7.812-2.232 7.812-15.623 16.739-17.854 18.97z" fill="#fff"/></g><g filter="url(#ai)"><path d="M107.932 63.755c2.232-2.232 2.232-7.067 1.116-8.927-2.232 8.927-16.738 17.854-17.854 21.202-.789 2.367-1.116 1.115-1.116 6.695 2.232-7.811 15.622-16.738 17.854-18.97z" fill="#B74F00"/></g></g><path d="M96.773 50.365c-6.643 4.429-8.927 13.39-4.463 15.622 1.115-2.232 5.135-5.335 8.849-7.811 6.695-4.464 9.005-16.738 4.541-18.97 0 2.975-2.232 6.695-8.927 11.159z" fill="#FFA600"/><mask id="aj" style="mask-type:alpha" maskUnits="userSpaceOnUse" x="90" y="39" width="18" height="27"><path d="M96.773 50.365c-6.643 4.429-8.927 13.39-4.463 15.622 1.115-2.232 5.135-5.335 8.849-7.811 6.695-4.464 9.005-16.738 4.541-18.97 0 2.975-2.232 6.695-8.927 11.159z" fill="#FFA600"/></mask><g mask="url(#aj)"><g opacity=".65" filter="url(#ak)"><path d="M89.135 55.944c-2.232 2.231-1.116 7.067 0 8.927 5.58-5.952 16.738-18.3 16.738-20.086 0-1.786 1.116-2.232 1.116-7.811-2.232 7.81-15.623 16.738-17.854 18.97z" fill="#fff"/></g><g filter="url(#al)"><path d="M107.932 52.596c2.232-2.231 2.232-7.067 1.116-8.927-2.232 8.927-16.738 17.854-17.854 21.202-.789 2.367-1.116 1.116-1.116 6.695 2.232-7.81 15.622-16.738 17.854-18.97z" fill="#B74F00"/></g></g><path d="M96.773 39.206c-6.643 4.43-8.927 13.39-4.463 15.622 1.115-2.231 5.135-5.335 8.849-7.81 6.695-4.464 9.005-16.739 4.541-18.97 0 2.975-2.232 6.695-8.927 11.158z" fill="#FFA600"/><mask id="am" style="mask-type:alpha" maskUnits="userSpaceOnUse" x="90" y="28" width="18" height="27"><path d="M96.773 39.206c-6.643 4.43-8.927 13.39-4.463 15.622 1.115-2.231 5.135-5.335 8.849-7.81 6.695-4.464 9.005-16.739 4.541-18.97 0 2.975-2.232 6.695-8.927 11.158z" fill="#FFA600"/></mask><g mask="url(#am)"><g opacity=".65" filter="url(#an)"><path d="M89.135 44.785c-2.232 2.232-1.116 7.068 0 8.927 5.58-5.951 16.738-18.3 16.738-20.086 0-1.785 1.116-2.231 1.116-7.81-2.232 7.81-15.623 16.738-17.854 18.97z" fill="#fff"/></g><g filter="url(#ao)"><path d="M107.932 41.438c2.232-2.232 2.232-7.067 1.116-8.927-2.232 8.927-16.738 17.854-17.854 21.202-.789 2.367-1.116 1.115-1.116 6.695 2.232-7.811 15.622-16.738 17.854-18.97z" fill="#B74F00"/></g></g><path d="M96.773 28.048c-6.643 4.429-8.927 13.39-4.463 15.622 1.115-2.232 5.135-5.335 8.849-7.811 6.695-4.464 9.005-16.738 4.541-18.97 0 2.976-2.232 6.695-8.927 11.159z" fill="#FFA600"/><mask id="ap" style="mask-type:alpha" maskUnits="userSpaceOnUse" x="90" y="16" width="18" height="28"><path d="M96.773 28.048c-6.643 4.429-8.927 13.39-4.463 15.622 1.115-2.232 5.135-5.335 8.849-7.811 6.695-4.464 9.005-16.738 4.541-18.97 0 2.976-2.232 6.695-8.927 11.159z" fill="#FFA600"/></mask><g mask="url(#ap)"><g opacity=".65" filter="url(#aq)"><path d="M89.135 33.627c-2.232 2.231-1.116 7.067 0 8.927 5.58-5.952 16.738-18.3 16.738-20.086 0-1.786 1.116-2.232 1.116-7.811-2.232 7.81-15.623 16.738-17.854 18.97z" fill="#fff"/></g><g filter="url(#ar)"><path d="M107.932 30.28c2.232-2.233 2.232-7.068 1.116-8.928-2.232 8.927-16.738 17.854-17.854 21.202-.789 2.367-1.116 1.116-1.116 6.695 2.232-7.811 15.622-16.738 17.854-18.97z" fill="#B74F00"/></g></g><path d="M96.773 16.889c-6.643 4.43-8.927 13.39-4.463 15.622 1.115-2.232 5.135-5.335 8.849-7.81 6.695-4.464 9.005-16.74 4.541-18.97 0 2.975-2.232 6.694-8.927 11.158z" fill="#FFA600"/><mask id="as" style="mask-type:alpha" maskUnits="userSpaceOnUse" x="90" y="5" width="18" height="28"><path d="M96.773 16.889c-6.643 4.43-8.927 13.39-4.463 15.622 1.115-2.232 5.135-5.335 8.849-7.81 6.695-4.464 9.005-16.74 4.541-18.97 0 2.975-2.232 6.694-8.927 11.158z" fill="#FFA600"/></mask><g mask="url(#as)"><g opacity=".65" filter="url(#at)"><path d="M89.135 22.468c-2.232 2.232-1.116 7.067 0 8.927 5.58-5.951 16.738-18.3 16.738-20.086 0-1.785 1.116-2.232 1.116-7.811-2.232 7.811-15.623 16.738-17.854 18.97z" fill="#fff"/></g><g filter="url(#au)"><path d="M107.932 19.12c2.232-2.231 2.232-7.067 1.116-8.926-2.232 8.927-16.738 17.854-17.854 21.201-.789 2.367-1.116 1.116-1.116 6.695 2.232-7.81 15.622-16.738 17.854-18.97z" fill="#B74F00"/></g></g><path d="M96.773 5.73c-6.643 4.43-8.927 13.391-4.463 15.623 1.115-2.232 5.135-5.336 8.849-7.811 6.695-4.464 9.005-16.739 4.541-18.97 0 2.975-2.232 6.695-8.927 11.158z" fill="#FFA600"/><mask id="av" style="mask-type:alpha" maskUnits="userSpaceOnUse" x="90" y="-6" width="18" height="28"><path d="M96.773 5.73c-6.643 4.43-8.927 13.391-4.463 15.623 1.115-2.232 5.135-5.336 8.849-7.811 6.695-4.464 9.005-16.739 4.541-18.97 0 2.975-2.232 6.695-8.927 11.158z" fill="#FFA600"/></mask><g mask="url(#av)"><g opacity=".65" filter="url(#aw)"><path d="M89.135 11.31c-2.232 2.231-1.116 7.067 0 8.926 5.58-5.951 16.738-18.3 16.738-20.085 0-1.786 1.116-2.232 1.116-7.812C104.757.151 91.366 9.078 89.135 11.31z" fill="#fff"/></g><g filter="url(#ax)"><path d="M107.932 7.962c2.232-2.232 2.232-7.067 1.116-8.927-2.232 8.927-16.738 17.854-17.854 21.202-.789 2.367-1.116 1.116-1.116 6.695 2.232-7.811 15.622-16.738 17.854-18.97z" fill="#B74F00"/></g></g><path d="M96.773-5.428C90.13-1 87.846 7.962 92.31 10.194c1.115-2.232 5.135-5.335 8.849-7.811 6.695-4.464 9.005-16.738 4.541-18.97 0 2.976-2.232 6.695-8.927 11.159z" fill="#FFA600"/><mask id="ay" style="mask-type:alpha" maskUnits="userSpaceOnUse" x="90" y="-17" width="18" height="28"><path d="M96.773-5.428C90.13-1 87.846 7.962 92.31 10.194c1.115-2.232 5.135-5.335 8.849-7.811 6.695-4.464 9.005-16.738 4.541-18.97 0 2.976-2.232 6.695-8.927 11.159z" fill="#FFA600"/></mask><g mask="url(#ay)"><g opacity=".65" filter="url(#az)"><path d="M89.135.15c-2.232 2.233-1.116 7.068 0 8.928 5.58-5.952 16.738-18.3 16.738-20.086 0-1.785 1.116-2.232 1.116-7.811C104.757-11.008 91.366-2.081 89.135.15z" fill="#fff"/></g><g filter="url(#aA)"><path d="M107.932-3.196c2.232-2.232 2.232-7.068 1.116-8.927C106.816-3.197 92.31 5.73 91.194 9.078c-.789 2.367-1.116 1.116-1.116 6.696C92.31 7.962 105.7-.966 107.932-3.196z" fill="#B74F00"/></g></g><path opacity=".5" d="M127.408 314.991s11.155-6.713 15.686-7.708l-2.398-.69-17.275 7.356 3.987 1.042zM48.27 312.662s17.62 3.038 25.364 6.434l1.265-.557-22.595-7.13-4.034 1.253z" fill="#9C0E5B"/><path d="M161.595 290.23s-2.921 7.648-12.526 13.936c-9.519 6.228-32.908 10.864-32.908 10.864l-5.936-2.082s3.756-5.645 9.248-12.046l1.358 1.373s15.295-2.096 17.719-13.232c.358-1.665.523-3.217.537-4.65 1.735-.736 3.444-1.187 5.08-1.267 14.567-.763 17.428 7.104 17.428 7.104z" fill="url(#aB)"/><path d="m82.344 316.874-3.172 1.864s-4.439-.975-11.5-2.049c-16.23-2.481-46.415-5.532-67.646 1.479-.02.013-.026.013-.026.013s11.44-15.116 16.097-18.38c4.676-3.27 30.398-.789 43.891 5.088 13.334 5.81 22.356 11.985 22.356 11.985z" fill="url(#aC)"/><path d="M164 290.111c-.205 1.691-2.471 6.208-12.268 13.783-7.902 6.115-24.575 9.538-30.444 10.586-1.325.232-2.1.351-2.1.351l-4.61-.809a84.956 84.956 0 0 0 2.391-.199c29.484-2.779 44.328-18.996 41.831-23.613-2.583-4.789-7.167-6.719-20.243-1.181-11.473 4.856-24.827 19.839-27.742 23.222-.384.438-.59.69-.59.69l-7.935-1.724s-3.889-31.48 19.945-38.047c9.625-2.646 23.065 3.542 32.048 9.187 5.835 3.648 9.797 7.084 9.717 7.754z" fill="url(#aD)"/><path d="m70.474 315.501-2.809 1.194c-16.229-2.48-46.415-5.532-67.645 1.479.47-.258 8.393-2.892 24.125-5.392 16.262-2.594 46.329 2.719 46.329 2.719z" fill="#AF4057" style="mix-blend-mode:multiply" opacity=".5"/><path d="m84.146 310.016-3.676-.113s-3.451-3.276-9.208-8.099c-13.354-11.216-39.486-31.128-62.929-37.29h-.026s8.426-14.022 23.336-15.507c5.942-.591 29.166 25.496 38.434 38.245 9.055 12.463 14.07 22.764 14.07 22.764z" fill="url(#aE)"/><path d="m74.33 302.322-3.061-.511c-13.354-11.216-39.486-31.128-62.93-37.29.577.046 9.387 2.348 25.325 9.273 16.203 7.037 40.665 28.528 40.665 28.528z" fill="#AF4057" style="mix-blend-mode:multiply" opacity=".5"/><path d="m84.643 315.515-5.472 3.23s-23.793.099-34.233-4.119c-10.546-4.272-14.752-11.203-14.752-11.203s1.43-8.298 15.878-10.454c2.73-.404 5.836.166 9.069 1.347 1.397 4.338 5.822 13.418 18.6 12.722.49-.027.967-.073 1.411-.139 5.61 4.629 9.499 8.616 9.499 8.616z" fill="url(#aF)"/><path d="M127.408 314.991s-6.405 3.396-21.031 5.551c-12.427 1.831-27.676-2.374-27.676-2.374s5.816-3.237 8.625-4.358c2.815-1.121 25.205-.643 25.205-.643l14.877 1.824z" fill="#A1003D" style="mix-blend-mode:multiply" opacity=".6"/><path d="m92.135 312.238-6.094 2.66-1.398.61s-18.31-15.037-32.028-17.849c-13.818-2.839-17.984-.027-19.68 5.193-1.682 5.161 16.72 18.692 47.62 14.586l-4.384 1.711s-23.072 1.161-33.89-4.271c-10.008-5.015-13.393-8.769-14.287-10.626a2.863 2.863 0 0 1-.193-.471c-.503-1.618 21.608-26.094 38.056-24.953 24.576 1.711 26.278 33.41 26.278 33.41z" fill="url(#aG)"/><path d="M106.761 309.439s7.975-5.857 10.267-13.173c2.325-7.409 2.193-13.962-1.417-12.841-3.604 1.121-11.533 19.474-10.89 24.714l2.04 1.3z" fill="url(#aH)" style="mix-blend-mode:color-burn" opacity=".92"/><path d="M89.578 308.126s-5.57-14.692-13.791-18.665c-8.294-4-9.79-3.469-10.255-2.282-.463 1.187 8.353 11.707 12.341 16.92 3.942 5.161 9.175 7.011 9.175 7.011l2.53-2.984z" fill="url(#aI)" style="mix-blend-mode:color-burn" opacity=".92"/><path d="M164 290.111c-.205 1.691-2.471 6.208-12.268 13.783-7.902 6.115-26.947 9.923-32.816 10.971l-4.338-.836c31.378-2.786 46.719-19.196 44.222-23.806-2.583-4.788-7.167-6.719-20.243-1.18-11.473 4.855-24.827 19.839-27.742 23.222l-1.57-.843s19.654-26.08 39.645-28.78a30.877 30.877 0 0 1 5.393-.279c5.835 3.642 9.797 7.078 9.717 7.748zM86.008 314.274l.026.624-1.398.61s-18.309-15.037-32.027-17.849c-13.818-2.839-17.985-.027-19.68 5.193-1.683 5.161 16.719 18.692 47.62 14.586l-4.385 1.711s-23.072 1.161-33.889-4.271c-10.002-5.015-13.387-8.769-14.281-10.626.775-1.784 5.332-10.155 20.919-9.027 16.275 1.174 37.095 19.049 37.095 19.049z" fill="#F09868" style="mix-blend-mode:multiply" opacity=".8"/><path opacity=".36" d="M111.431 279.286s8.956-2.846 23.549 8.589c0 0 8.518-4.954 13.917-5.24 0 0-15.428-8.576-22.562-8.503-7.147.073-14.904 5.154-14.904 5.154zM67.115 278.941s-16.573 5.174-26.966 16.609c0 0 12.97-1.818 23.476 4.085 0 0-2.233-16.124 15.778-15.6-.006.007-7.28-4.471-12.288-5.094z" fill="#FFF8CD"/><path d="M111.12 318.612c-.398.445-22.767 1.592-23.198 1.42-.331-.146-1.179-2.216-1.888-3.987-.212-.497.04-.743 0-1.141-.066-.683-.152-2.334 1.007-3.807l.007-.006c1.914-2.428 4.51-5.075 4.51-5.075s8.552 1.062 10.308.312c0 0 10.115 6.434 10.651 6.845.544.411-.987 5.001-1.397 5.439z" fill="url(#aJ)"/><path opacity=".3" d="M111.12 318.612c-.398.445-22.767 1.592-23.198 1.42-.331-.146-1.842-2.547-1.974-4.451-.219-3.098.994-4.172 1.086-4.464l-.973 3.774c12.976 4.69 26.45-1.724 26.45-1.724.549.417-.981 5.007-1.391 5.445z" fill="#B11F3C"/><path opacity=".66" d="M87.041 311.117s5.1 1.665 12.162 1.837c7.048.173 10.042-1.539 10.042-1.539s2.617.942 3.279 1.752c0 0-4.71 2.752-13.288 3.316-8.578.57-13.202-1.585-13.202-1.585-.444-.869 1.007-3.781 1.007-3.781z" fill="#FFF8CD"/><defs><filter id="V" x="85.391" y="90.312" width="24.052" height="32.807" filterUnits="userSpaceOnUse" color-interpolation-filters="sRGB"><feFlood flood-opacity="0" result="BackgroundImageFix"/><feBlend in="SourceGraphic" in2="BackgroundImageFix" result="shape"/><feGaussianBlur stdDeviation="1.227" result="effect1_foregroundBlur_2001_13118"/></filter><filter id="b" x="76.428" y="257.243" width="40.111" height="50.578" filterUnits="userSpaceOnUse" color-interpolation-filters="sRGB"><feFlood flood-opacity="0" result="BackgroundImageFix"/><feBlend in="SourceGraphic" in2="BackgroundImageFix" result="shape"/><feGaussianBlur stdDeviation="1.227" result="effect1_foregroundBlur_2001_13118"/></filter><filter id="d" x="73.815" y="287.269" width="47.878" height="35.054" filterUnits="userSpaceOnUse" color-interpolation-filters="sRGB"><feFlood flood-opacity="0" result="BackgroundImageFix"/><feBlend in="SourceGraphic" in2="BackgroundImageFix" result="shape"/><feGaussianBlur stdDeviation="1.227" result="effect1_foregroundBlur_2001_13118"/></filter><filter id="f" x="85.391" y="246.532" width="24.052" height="32.807" filterUnits="userSpaceOnUse" color-interpolation-filters="sRGB"><feFlood flood-opacity="0" result="BackgroundImageFix"/><feBlend in="SourceGraphic" in2="BackgroundImageFix" result="shape"/><feGaussianBlur stdDeviation="1.227" result="effect1_foregroundBlur_2001_13118"/></filter><filter id="g" x="87.623" y="253.228" width="24.613" height="32.807" filterUnits="userSpaceOnUse" color-interpolation-filters="sRGB"><feFlood flood-opacity="0" result="BackgroundImageFix"/><feBlend in="SourceGraphic" in2="BackgroundImageFix" result="shape"/><feGaussianBlur stdDeviation="1.227" result="effect1_foregroundBlur_2001_13118"/></filter><filter id="i" x="85.391" y="235.373" width="24.052" height="32.807" filterUnits="userSpaceOnUse" color-interpolation-filters="sRGB"><feFlood flood-opacity="0" result="BackgroundImageFix"/><feBlend in="SourceGraphic" in2="BackgroundImageFix" result="shape"/><feGaussianBlur stdDeviation="1.227" result="effect1_foregroundBlur_2001_13118"/></filter><filter id="j" x="87.623" y="242.069" width="24.613" height="32.807" filterUnits="userSpaceOnUse" color-interpolation-filters="sRGB"><feFlood flood-opacity="0" result="BackgroundImageFix"/><feBlend in="SourceGraphic" in2="BackgroundImageFix" result="shape"/><feGaussianBlur stdDeviation="1.227" result="effect1_foregroundBlur_2001_13118"/></filter><filter id="l" x="85.391" y="224.215" width="24.052" height="32.807" filterUnits="userSpaceOnUse" color-interpolation-filters="sRGB"><feFlood flood-opacity="0" result="BackgroundImageFix"/><feBlend in="SourceGraphic" in2="BackgroundImageFix" result="shape"/><feGaussianBlur stdDeviation="1.227" result="effect1_foregroundBlur_2001_13118"/></filter><filter id="m" x="87.623" y="230.911" width="24.613" height="32.807" filterUnits="userSpaceOnUse" color-interpolation-filters="sRGB"><feFlood flood-opacity="0" result="BackgroundImageFix"/><feBlend in="SourceGraphic" in2="BackgroundImageFix" result="shape"/><feGaussianBlur stdDeviation="1.227" result="effect1_foregroundBlur_2001_13118"/></filter><filter id="o" x="85.391" y="213.056" width="24.052" height="32.807" filterUnits="userSpaceOnUse" color-interpolation-filters="sRGB"><feFlood flood-opacity="0" result="BackgroundImageFix"/><feBlend in="SourceGraphic" in2="BackgroundImageFix" result="shape"/><feGaussianBlur stdDeviation="1.227" result="effect1_foregroundBlur_2001_13118"/></filter><filter id="p" x="87.623" y="219.752" width="24.613" height="32.807" filterUnits="userSpaceOnUse" color-interpolation-filters="sRGB"><feFlood flood-opacity="0" result="BackgroundImageFix"/><feBlend in="SourceGraphic" in2="BackgroundImageFix" result="shape"/><feGaussianBlur stdDeviation="1.227" result="effect1_foregroundBlur_2001_13118"/></filter><filter id="r" x="85.391" y="201.898" width="24.052" height="32.807" filterUnits="userSpaceOnUse" color-interpolation-filters="sRGB"><feFlood flood-opacity="0" result="BackgroundImageFix"/><feBlend in="SourceGraphic" in2="BackgroundImageFix" result="shape"/><feGaussianBlur stdDeviation="1.227" result="effect1_foregroundBlur_2001_13118"/></filter><filter id="s" x="87.623" y="208.593" width="24.613" height="32.807" filterUnits="userSpaceOnUse" color-interpolation-filters="sRGB"><feFlood flood-opacity="0" result="BackgroundImageFix"/><feBlend in="SourceGraphic" in2="BackgroundImageFix" result="shape"/><feGaussianBlur stdDeviation="1.227" result="effect1_foregroundBlur_2001_13118"/></filter><filter id="u" x="85.391" y="190.739" width="24.052" height="32.807" filterUnits="userSpaceOnUse" color-interpolation-filters="sRGB"><feFlood flood-opacity="0" result="BackgroundImageFix"/><feBlend in="SourceGraphic" in2="BackgroundImageFix" result="shape"/><feGaussianBlur stdDeviation="1.227" result="effect1_foregroundBlur_2001_13118"/></filter><filter id="v" x="87.623" y="197.435" width="24.613" height="32.807" filterUnits="userSpaceOnUse" color-interpolation-filters="sRGB"><feFlood flood-opacity="0" result="BackgroundImageFix"/><feBlend in="SourceGraphic" in2="BackgroundImageFix" result="shape"/><feGaussianBlur stdDeviation="1.227" result="effect1_foregroundBlur_2001_13118"/></filter><filter id="x" x="85.391" y="179.58" width="24.052" height="32.807" filterUnits="userSpaceOnUse" color-interpolation-filters="sRGB"><feFlood flood-opacity="0" result="BackgroundImageFix"/><feBlend in="SourceGraphic" in2="BackgroundImageFix" result="shape"/><feGaussianBlur stdDeviation="1.227" result="effect1_foregroundBlur_2001_13118"/></filter><filter id="y" x="87.623" y="186.276" width="24.613" height="32.807" filterUnits="userSpaceOnUse" color-interpolation-filters="sRGB"><feFlood flood-opacity="0" result="BackgroundImageFix"/><feBlend in="SourceGraphic" in2="BackgroundImageFix" result="shape"/><feGaussianBlur stdDeviation="1.227" result="effect1_foregroundBlur_2001_13118"/></filter><filter id="A" x="85.391" y="168.422" width="24.052" height="32.807" filterUnits="userSpaceOnUse" color-interpolation-filters="sRGB"><feFlood flood-opacity="0" result="BackgroundImageFix"/><feBlend in="SourceGraphic" in2="BackgroundImageFix" result="shape"/><feGaussianBlur stdDeviation="1.227" result="effect1_foregroundBlur_2001_13118"/></filter><filter id="B" x="87.623" y="175.118" width="24.613" height="32.807" filterUnits="userSpaceOnUse" color-interpolation-filters="sRGB"><feFlood flood-opacity="0" result="BackgroundImageFix"/><feBlend in="SourceGraphic" in2="BackgroundImageFix" result="shape"/><feGaussianBlur stdDeviation="1.227" result="effect1_foregroundBlur_2001_13118"/></filter><filter id="D" x="85.391" y="157.263" width="24.052" height="32.807" filterUnits="userSpaceOnUse" color-interpolation-filters="sRGB"><feFlood flood-opacity="0" result="BackgroundImageFix"/><feBlend in="SourceGraphic" in2="BackgroundImageFix" result="shape"/><feGaussianBlur stdDeviation="1.227" result="effect1_foregroundBlur_2001_13118"/></filter><filter id="E" x="87.623" y="163.959" width="24.613" height="32.807" filterUnits="userSpaceOnUse" color-interpolation-filters="sRGB"><feFlood flood-opacity="0" result="BackgroundImageFix"/><feBlend in="SourceGraphic" in2="BackgroundImageFix" result="shape"/><feGaussianBlur stdDeviation="1.227" result="effect1_foregroundBlur_2001_13118"/></filter><filter id="G" x="85.391" y="146.105" width="24.052" height="32.807" filterUnits="userSpaceOnUse" color-interpolation-filters="sRGB"><feFlood flood-opacity="0" result="BackgroundImageFix"/><feBlend in="SourceGraphic" in2="BackgroundImageFix" result="shape"/><feGaussianBlur stdDeviation="1.227" result="effect1_foregroundBlur_2001_13118"/></filter><filter id="H" x="87.623" y="152.8" width="24.613" height="32.807" filterUnits="userSpaceOnUse" color-interpolation-filters="sRGB"><feFlood flood-opacity="0" result="BackgroundImageFix"/><feBlend in="SourceGraphic" in2="BackgroundImageFix" result="shape"/><feGaussianBlur stdDeviation="1.227" result="effect1_foregroundBlur_2001_13118"/></filter><filter id="J" x="85.391" y="134.946" width="24.052" height="32.807" filterUnits="userSpaceOnUse" color-interpolation-filters="sRGB"><feFlood flood-opacity="0" result="BackgroundImageFix"/><feBlend in="SourceGraphic" in2="BackgroundImageFix" result="shape"/><feGaussianBlur stdDeviation="1.227" result="effect1_foregroundBlur_2001_13118"/></filter><filter id="K" x="87.623" y="141.642" width="24.613" height="32.807" filterUnits="userSpaceOnUse" color-interpolation-filters="sRGB"><feFlood flood-opacity="0" result="BackgroundImageFix"/><feBlend in="SourceGraphic" in2="BackgroundImageFix" result="shape"/><feGaussianBlur stdDeviation="1.227" result="effect1_foregroundBlur_2001_13118"/></filter><filter id="M" x="85.391" y="123.788" width="24.052" height="32.807" filterUnits="userSpaceOnUse" color-interpolation-filters="sRGB"><feFlood flood-opacity="0" result="BackgroundImageFix"/><feBlend in="SourceGraphic" in2="BackgroundImageFix" result="shape"/><feGaussianBlur stdDeviation="1.227" result="effect1_foregroundBlur_2001_13118"/></filter><filter id="N" x="87.623" y="130.483" width="24.613" height="32.807" filterUnits="userSpaceOnUse" color-interpolation-filters="sRGB"><feFlood flood-opacity="0" result="BackgroundImageFix"/><feBlend in="SourceGraphic" in2="BackgroundImageFix" result="shape"/><feGaussianBlur stdDeviation="1.227" result="effect1_foregroundBlur_2001_13118"/></filter><filter id="P" x="85.391" y="112.629" width="24.052" height="32.807" filterUnits="userSpaceOnUse" color-interpolation-filters="sRGB"><feFlood flood-opacity="0" result="BackgroundImageFix"/><feBlend in="SourceGraphic" in2="BackgroundImageFix" result="shape"/><feGaussianBlur stdDeviation="1.227" result="effect1_foregroundBlur_2001_13118"/></filter><filter id="Q" x="87.623" y="119.325" width="24.613" height="32.807" filterUnits="userSpaceOnUse" color-interpolation-filters="sRGB"><feFlood flood-opacity="0" result="BackgroundImageFix"/><feBlend in="SourceGraphic" in2="BackgroundImageFix" result="shape"/><feGaussianBlur stdDeviation="1.227" result="effect1_foregroundBlur_2001_13118"/></filter><filter id="S" x="85.391" y="101.47" width="24.052" height="32.807" filterUnits="userSpaceOnUse" color-interpolation-filters="sRGB"><feFlood flood-opacity="0" result="BackgroundImageFix"/><feBlend in="SourceGraphic" in2="BackgroundImageFix" result="shape"/><feGaussianBlur stdDeviation="1.227" result="effect1_foregroundBlur_2001_13118"/></filter><filter id="T" x="87.623" y="108.166" width="24.613" height="32.807" filterUnits="userSpaceOnUse" color-interpolation-filters="sRGB"><feFlood flood-opacity="0" result="BackgroundImageFix"/><feBlend in="SourceGraphic" in2="BackgroundImageFix" result="shape"/><feGaussianBlur stdDeviation="1.227" result="effect1_foregroundBlur_2001_13118"/></filter><filter id="c" x="82.698" y="251.285" width="30.837" height="40.728" filterUnits="userSpaceOnUse" color-interpolation-filters="sRGB"><feFlood flood-opacity="0" result="BackgroundImageFix"/><feBlend in="SourceGraphic" in2="BackgroundImageFix" result="shape"/><feGaussianBlur stdDeviation="1.227" result="effect1_foregroundBlur_2001_13118"/></filter><filter id="W" x="87.623" y="97.007" width="24.613" height="32.807" filterUnits="userSpaceOnUse" color-interpolation-filters="sRGB"><feFlood flood-opacity="0" result="BackgroundImageFix"/><feBlend in="SourceGraphic" in2="BackgroundImageFix" result="shape"/><feGaussianBlur stdDeviation="1.227" result="effect1_foregroundBlur_2001_13118"/></filter><filter id="Y" x="85.391" y="79.153" width="24.052" height="32.807" filterUnits="userSpaceOnUse" color-interpolation-filters="sRGB"><feFlood flood-opacity="0" result="BackgroundImageFix"/><feBlend in="SourceGraphic" in2="BackgroundImageFix" result="shape"/><feGaussianBlur stdDeviation="1.227" result="effect1_foregroundBlur_2001_13118"/></filter><filter id="Z" x="87.623" y="85.849" width="24.613" height="32.807" filterUnits="userSpaceOnUse" color-interpolation-filters="sRGB"><feFlood flood-opacity="0" result="BackgroundImageFix"/><feBlend in="SourceGraphic" in2="BackgroundImageFix" result="shape"/><feGaussianBlur stdDeviation="1.227" result="effect1_foregroundBlur_2001_13118"/></filter><filter id="ab" x="85.391" y="67.995" width="24.052" height="32.807" filterUnits="userSpaceOnUse" color-interpolation-filters="sRGB"><feFlood flood-opacity="0" result="BackgroundImageFix"/><feBlend in="SourceGraphic" in2="BackgroundImageFix" result="shape"/><feGaussianBlur stdDeviation="1.227" result="effect1_foregroundBlur_2001_13118"/></filter><filter id="ac" x="87.623" y="74.69" width="24.613" height="32.807" filterUnits="userSpaceOnUse" color-interpolation-filters="sRGB"><feFlood flood-opacity="0" result="BackgroundImageFix"/><feBlend in="SourceGraphic" in2="BackgroundImageFix" result="shape"/><feGaussianBlur stdDeviation="1.227" result="effect1_foregroundBlur_2001_13118"/></filter><filter id="ae" x="85.391" y="56.836" width="24.052" height="32.807" filterUnits="userSpaceOnUse" color-interpolation-filters="sRGB"><feFlood flood-opacity="0" result="BackgroundImageFix"/><feBlend in="SourceGraphic" in2="BackgroundImageFix" result="shape"/><feGaussianBlur stdDeviation="1.227" result="effect1_foregroundBlur_2001_13118"/></filter><filter id="af" x="87.623" y="63.532" width="24.613" height="32.807" filterUnits="userSpaceOnUse" color-interpolation-filters="sRGB"><feFlood flood-opacity="0" result="BackgroundImageFix"/><feBlend in="SourceGraphic" in2="BackgroundImageFix" result="shape"/><feGaussianBlur stdDeviation="1.227" result="effect1_foregroundBlur_2001_13118"/></filter><filter id="ah" x="85.391" y="45.677" width="24.052" height="32.807" filterUnits="userSpaceOnUse" color-interpolation-filters="sRGB"><feFlood flood-opacity="0" result="BackgroundImageFix"/><feBlend in="SourceGraphic" in2="BackgroundImageFix" result="shape"/><feGaussianBlur stdDeviation="1.227" result="effect1_foregroundBlur_2001_13118"/></filter><filter id="ai" x="87.623" y="52.373" width="24.613" height="32.807" filterUnits="userSpaceOnUse" color-interpolation-filters="sRGB"><feFlood flood-opacity="0" result="BackgroundImageFix"/><feBlend in="SourceGraphic" in2="BackgroundImageFix" result="shape"/><feGaussianBlur stdDeviation="1.227" result="effect1_foregroundBlur_2001_13118"/></filter><filter id="ak" x="85.391" y="34.519" width="24.052" height="32.807" filterUnits="userSpaceOnUse" color-interpolation-filters="sRGB"><feFlood flood-opacity="0" result="BackgroundImageFix"/><feBlend in="SourceGraphic" in2="BackgroundImageFix" result="shape"/><feGaussianBlur stdDeviation="1.227" result="effect1_foregroundBlur_2001_13118"/></filter><filter id="al" x="87.623" y="41.214" width="24.613" height="32.807" filterUnits="userSpaceOnUse" color-interpolation-filters="sRGB"><feFlood flood-opacity="0" result="BackgroundImageFix"/><feBlend in="SourceGraphic" in2="BackgroundImageFix" result="shape"/><feGaussianBlur stdDeviation="1.227" result="effect1_foregroundBlur_2001_13118"/></filter><filter id="an" x="85.391" y="23.36" width="24.052" height="32.807" filterUnits="userSpaceOnUse" color-interpolation-filters="sRGB"><feFlood flood-opacity="0" result="BackgroundImageFix"/><feBlend in="SourceGraphic" in2="BackgroundImageFix" result="shape"/><feGaussianBlur stdDeviation="1.227" result="effect1_foregroundBlur_2001_13118"/></filter><filter id="ao" x="87.623" y="30.056" width="24.613" height="32.807" filterUnits="userSpaceOnUse" color-interpolation-filters="sRGB"><feFlood flood-opacity="0" result="BackgroundImageFix"/><feBlend in="SourceGraphic" in2="BackgroundImageFix" result="shape"/><feGaussianBlur stdDeviation="1.227" result="effect1_foregroundBlur_2001_13118"/></filter><filter id="aq" x="85.391" y="12.202" width="24.052" height="32.807" filterUnits="userSpaceOnUse" color-interpolation-filters="sRGB"><feFlood flood-opacity="0" result="BackgroundImageFix"/><feBlend in="SourceGraphic" in2="BackgroundImageFix" result="shape"/><feGaussianBlur stdDeviation="1.227" result="effect1_foregroundBlur_2001_13118"/></filter><filter id="ar" x="87.623" y="18.897" width="24.613" height="32.807" filterUnits="userSpaceOnUse" color-interpolation-filters="sRGB"><feFlood flood-opacity="0" result="BackgroundImageFix"/><feBlend in="SourceGraphic" in2="BackgroundImageFix" result="shape"/><feGaussianBlur stdDeviation="1.227" result="effect1_foregroundBlur_2001_13118"/></filter><filter id="at" x="85.391" y="1.043" width="24.052" height="32.807" filterUnits="userSpaceOnUse" color-interpolation-filters="sRGB"><feFlood flood-opacity="0" result="BackgroundImageFix"/><feBlend in="SourceGraphic" in2="BackgroundImageFix" result="shape"/><feGaussianBlur stdDeviation="1.227" result="effect1_foregroundBlur_2001_13118"/></filter><filter id="au" x="87.623" y="7.739" width="24.613" height="32.807" filterUnits="userSpaceOnUse" color-interpolation-filters="sRGB"><feFlood flood-opacity="0" result="BackgroundImageFix"/><feBlend in="SourceGraphic" in2="BackgroundImageFix" result="shape"/><feGaussianBlur stdDeviation="1.227" result="effect1_foregroundBlur_2001_13118"/></filter><filter id="aw" x="85.391" y="-10.116" width="24.052" height="32.807" filterUnits="userSpaceOnUse" color-interpolation-filters="sRGB"><feFlood flood-opacity="0" result="BackgroundImageFix"/><feBlend in="SourceGraphic" in2="BackgroundImageFix" result="shape"/><feGaussianBlur stdDeviation="1.227" result="effect1_foregroundBlur_2001_13118"/></filter><filter id="ax" x="87.623" y="-3.42" width="24.613" height="32.807" filterUnits="userSpaceOnUse" color-interpolation-filters="sRGB"><feFlood flood-opacity="0" result="BackgroundImageFix"/><feBlend in="SourceGraphic" in2="BackgroundImageFix" result="shape"/><feGaussianBlur stdDeviation="1.227" result="effect1_foregroundBlur_2001_13118"/></filter><filter id="az" x="85.391" y="-21.274" width="24.052" height="32.807" filterUnits="userSpaceOnUse" color-interpolation-filters="sRGB"><feFlood flood-opacity="0" result="BackgroundImageFix"/><feBlend in="SourceGraphic" in2="BackgroundImageFix" result="shape"/><feGaussianBlur stdDeviation="1.227" result="effect1_foregroundBlur_2001_13118"/></filter><filter id="aA" x="87.623" y="-14.578" width="24.613" height="32.807" filterUnits="userSpaceOnUse" color-interpolation-filters="sRGB"><feFlood flood-opacity="0" result="BackgroundImageFix"/><feBlend in="SourceGraphic" in2="BackgroundImageFix" result="shape"/><feGaussianBlur stdDeviation="1.227" result="effect1_foregroundBlur_2001_13118"/></filter><linearGradient id="aB" x1="137.048" y1="312.931" x2="134.156" y2="284.11" gradientUnits="userSpaceOnUse"><stop stop-color="#FFE900"/><stop offset=".096" stop-color="#F2CD00"/><stop offset=".238" stop-color="#E3AA00"/><stop offset=".39" stop-color="#D89100"/><stop offset=".555" stop-color="#CF7D00"/><stop offset=".742" stop-color="#CB7300"/><stop offset="1" stop-color="#C96F00"/></linearGradient><linearGradient id="aC" x1="41.67" y1="322.502" x2="39.082" y2="296.71" gradientUnits="userSpaceOnUse"><stop stop-color="#FF7A45"/><stop offset=".132" stop-color="#FF854B"/><stop offset=".306" stop-color="#FF9A4F"/><stop offset=".506" stop-color="#FFB54D"/><stop offset=".723" stop-color="#FFDE49"/><stop offset=".953" stop-color="#EEFF45"/><stop offset="1" stop-color="#E3FF44"/></linearGradient><linearGradient id="aD" x1="134.41" y1="313.309" x2="130.278" y2="272.123" gradientUnits="userSpaceOnUse"><stop stop-color="#FF7A45"/><stop offset=".132" stop-color="#FF854B"/><stop offset=".306" stop-color="#FF9A4F"/><stop offset=".506" stop-color="#FFB54D"/><stop offset=".723" stop-color="#FFDE49"/><stop offset=".953" stop-color="#EEFF45"/><stop offset="1" stop-color="#E3FF44"/></linearGradient><linearGradient id="aE" x1="43.569" y1="293.153" x2="58.315" y2="260.668" gradientUnits="userSpaceOnUse"><stop stop-color="#FF7A45"/><stop offset=".132" stop-color="#FF854B"/><stop offset=".306" stop-color="#FF9A4F"/><stop offset=".506" stop-color="#FFB54D"/><stop offset=".723" stop-color="#FFDE49"/><stop offset=".953" stop-color="#EEFF45"/><stop offset="1" stop-color="#E3FF44"/></linearGradient><linearGradient id="aF" x1="58.548" y1="320.808" x2="55.657" y2="291.991" gradientUnits="userSpaceOnUse"><stop stop-color="#FFE900"/><stop offset=".096" stop-color="#F2CD00"/><stop offset=".238" stop-color="#E3AA00"/><stop offset=".39" stop-color="#D89100"/><stop offset=".555" stop-color="#CF7D00"/><stop offset=".742" stop-color="#CB7300"/><stop offset="1" stop-color="#C96F00"/></linearGradient><linearGradient id="aG" x1="61.241" y1="320.652" x2="57.108" y2="279.463" gradientUnits="userSpaceOnUse"><stop stop-color="#FF7A45"/><stop offset=".132" stop-color="#FF854B"/><stop offset=".306" stop-color="#FF9A4F"/><stop offset=".506" stop-color="#FFB54D"/><stop offset=".723" stop-color="#FFDE49"/><stop offset=".953" stop-color="#EEFF45"/><stop offset="1" stop-color="#E3FF44"/></linearGradient><linearGradient id="aH" x1="112.776" y1="308.837" x2="110.274" y2="283.898" gradientUnits="userSpaceOnUse"><stop stop-color="#D98B98"/><stop offset=".165" stop-color="#E1A3AD"/><stop offset=".547" stop-color="#F1D4D9"/><stop offset=".838" stop-color="#FBF3F4"/><stop offset="1" stop-color="#fff"/></linearGradient><linearGradient id="aI" x1="78.964" y1="311.924" x2="76.3" y2="285.372" gradientUnits="userSpaceOnUse"><stop stop-color="#D98B98"/><stop offset=".165" stop-color="#E1A3AD"/><stop offset=".547" stop-color="#F1D4D9"/><stop offset=".838" stop-color="#FBF3F4"/><stop offset="1" stop-color="#fff"/></linearGradient><linearGradient id="aJ" x1="99.818" y1="319.832" x2="98.363" y2="305.328" gradientUnits="userSpaceOnUse"><stop stop-color="#FE6845"/><stop offset=".112" stop-color="#FE8957"/><stop offset=".378" stop-color="#FFBA55"/><stop offset=".623" stop-color="#FFD74F"/><stop offset=".838" stop-color="#FFE94A"/><stop offset="1" stop-color="#FFF049"/></linearGradient></defs></svg>