<svg width="249" height="50" viewBox="0 0 249 50" fill="none" xmlns="http://www.w3.org/2000/svg">
<mask id="mask0_740_34966" style="mask-type:alpha" maskUnits="userSpaceOnUse" x="0" y="0" width="102" height="50">
<path d="M0 0H101.064V50H0V0Z" fill="#D9D9D9"/>
</mask>
<g mask="url(#mask0_740_34966)">
<path fill-rule="evenodd" clip-rule="evenodd" d="M96.5957 0H6.38298C2.85776 0 0 2.85776 0 6.38298V18.0851C3.81895 18.0852 6.91482 21.181 6.91482 25C6.91482 28.819 3.81895 31.9149 0 31.9149V43.617C0 47.1422 2.85775 50 6.38297 50H96.5956V44.6805H100.213V50H240.426C243.951 50 246.809 47.1422 246.809 43.617L246.809 31.9151C242.99 31.9151 239.894 28.8192 239.894 25.0002C239.894 21.1812 242.99 18.0853 246.809 18.0853L246.809 6.38298C246.809 2.85776 243.951 0 240.426 0H100.213V6.38279H96.5957V0ZM96.5956 32.9786H100.213V41.4892H96.5956V32.9786ZM100.213 21.2764H96.5956V29.787H100.213V21.2764ZM96.5956 9.57418H100.213V18.0848H96.5956V9.57418Z" fill="white"/>
</g>
<path d="M17.5416 39.3326V33.5146H22.8344C23.858 33.5146 24.6795 33.2452 25.299 32.7065C25.9185 32.1409 26.2283 31.3732 26.2283 30.4036C26.2283 29.7571 26.0802 29.2049 25.7839 28.747C25.5145 28.2622 25.124 27.8986 24.6122 27.6562C24.1273 27.4137 23.5348 27.2925 22.8344 27.2925H17.5416V21.7169H22.4708C23.3328 21.7169 24.0465 21.5014 24.6122 21.0704C25.1778 20.6395 25.4606 19.9661 25.4606 19.0503C25.4606 18.1345 25.1778 17.4611 24.6122 17.0301C24.0465 16.5992 23.3328 16.3837 22.4708 16.3837H17.5416V10.5656H24.7334C26.4842 10.5656 28.006 10.9023 29.2989 11.5757C30.6188 12.2222 31.6423 13.1245 32.3696 14.2827C33.0968 15.414 33.4605 16.7204 33.4605 18.2018C33.4605 20.2489 32.7332 21.9189 31.2787 23.2118C29.8242 24.5047 27.6963 25.2454 24.895 25.434L24.8142 22.6462C27.8579 22.8347 30.1878 23.6697 31.8039 25.1512C33.4201 26.6326 34.2281 28.5316 34.2281 30.848C34.2281 32.518 33.8106 33.9994 32.9756 35.2923C32.1406 36.5583 30.9689 37.5549 29.4606 38.2822C27.9791 38.9825 26.2418 39.3326 24.2486 39.3326H17.5416ZM10.9963 39.3326V10.5656H18.9153V39.3326H10.9963Z" fill="black"/>
<path d="M44.1745 27.8582V22.2825H49.0633C50.1677 22.2825 51.0027 22.0132 51.5683 21.4745C52.1609 20.9358 52.4572 20.222 52.4572 19.3331C52.4572 18.4442 52.1609 17.7305 51.5683 17.1918C51.0027 16.653 50.1677 16.3837 49.0633 16.3837H44.1745V10.5656H50.3562C52.3494 10.5656 54.1002 10.9293 55.6086 11.6565C57.117 12.3838 58.3022 13.3939 59.1641 14.6868C60.026 15.9797 60.457 17.488 60.457 19.2119C60.457 20.9358 60.0126 22.4442 59.1237 23.7371C58.2617 25.03 57.0497 26.04 55.4874 26.7673C53.9252 27.4945 52.0801 27.8582 49.9522 27.8582H44.1745ZM37.6292 39.3326V10.5656H45.7099V39.3326H37.6292ZM53.144 39.3326L45.3058 27.0501L52.5784 25.4744L62.3155 39.3326H53.144Z" fill="black"/>
<path d="M78.6419 39.8983C76.3793 39.8983 74.2918 39.5212 72.3794 38.767C70.4939 38.0128 68.8374 36.9623 67.4098 35.6156C66.0092 34.2688 64.9183 32.6796 64.1371 30.848C63.356 29.0164 62.9655 27.0366 62.9655 24.9087C62.9655 22.7539 63.3425 20.7742 64.0967 18.9695C64.8779 17.1648 65.9687 15.5891 67.3694 14.2423C68.77 12.8956 70.4131 11.8585 72.2986 11.1313C74.211 10.3771 76.2985 10 78.5611 10C80.8236 10 82.8977 10.3771 84.7831 11.1313C86.6955 11.8585 88.3521 12.8956 89.7527 14.2423C91.1533 15.5891 92.2308 17.1783 92.9849 19.0099C93.7661 20.8146 94.1566 22.7943 94.1566 24.9491C94.1566 27.077 93.7661 29.0568 92.9849 30.8884C92.2308 32.6931 91.1533 34.2823 89.7527 35.656C88.3521 37.0027 86.709 38.0532 84.8235 38.8074C82.938 39.5347 80.8775 39.8983 78.6419 39.8983ZM78.5611 32.7873C80.0694 32.7873 81.3758 32.4641 82.4801 31.8177C83.5845 31.1712 84.433 30.2554 85.0255 29.0703C85.6181 27.8851 85.9144 26.4979 85.9144 24.9087C85.9144 23.7236 85.7393 22.6596 85.3892 21.7169C85.0659 20.7472 84.5811 19.9257 83.9347 19.2523C83.2882 18.552 82.5071 18.0267 81.5913 17.6766C80.7024 17.2995 79.6923 17.1109 78.5611 17.1109C77.0527 17.1109 75.7463 17.4342 74.6419 18.0806C73.5376 18.7001 72.6891 19.6025 72.0965 20.7876C71.504 21.9458 71.2077 23.3196 71.2077 24.9087C71.2077 26.1208 71.3693 27.2117 71.6925 28.1814C72.0427 29.1511 72.541 29.9861 73.1874 30.6864C73.8339 31.3598 74.6015 31.885 75.4904 32.2621C76.4062 32.6123 77.4298 32.7873 78.5611 32.7873Z" fill="black"/>
<path d="M118.463 38.6016V11.5456H126.063V38.6016H118.463ZM110.369 18.0056V11.5456H134.195V18.0056H110.369ZM143.14 38.6016V11.5456H150.74V38.6016H143.14ZM135.046 18.0056V11.5456H158.872V18.0056H135.046ZM161.729 38.6016V11.5456H169.329V38.6016H161.729ZM167.885 38.6016V32.2936H182.401V38.6016H167.885ZM167.885 27.8856V21.7296H180.995V27.8856H167.885ZM167.885 17.8536V11.5456H182.173V17.8536H167.885ZM192.155 27.8096V22.5656H196.753C197.792 22.5656 198.577 22.3122 199.109 21.8056C199.666 21.2989 199.945 20.6276 199.945 19.7916C199.945 18.9556 199.666 18.2842 199.109 17.7776C198.577 17.2709 197.792 17.0176 196.753 17.0176H192.155V11.5456H197.969C199.844 11.5456 201.49 11.8876 202.909 12.5716C204.328 13.2556 205.442 14.2056 206.253 15.4216C207.064 16.6376 207.469 18.0562 207.469 19.6776C207.469 21.2989 207.051 22.7176 206.215 23.9336C205.404 25.1496 204.264 26.0996 202.795 26.7836C201.326 27.4676 199.59 27.8096 197.589 27.8096H192.155ZM185.999 38.6016V11.5456H193.599V38.6016H185.999ZM200.591 38.6016L193.219 27.0496L200.059 25.5676L209.217 38.6016H200.591ZM218.328 29.2916L208.03 11.5456H216.77L224.56 26.0236H218.024L225.814 11.5456H234.364L223.99 29.2916H218.328ZM217.454 38.6016V26.5176H225.054V38.6016H217.454Z" fill="white"/>
<mask id="mask1_740_34966" style="mask-type:alpha" maskUnits="userSpaceOnUse" x="99" y="0" width="150" height="50">
<path d="M99.8936 0H248.936V50H99.8936V0Z" fill="#D9D9D9"/>
</mask>
<g mask="url(#mask1_740_34966)">
<mask id="path-6-inside-1_740_34966" fill="white">
<path fill-rule="evenodd" clip-rule="evenodd" d="M96.5954 0H8.51042C4.9852 0 2.12744 2.85776 2.12744 6.38298V18.0851C5.94637 18.0852 9.0422 21.1811 9.0422 25C9.0422 28.819 5.94637 31.9148 2.12744 31.9149V43.617C2.12744 47.1422 4.98519 50 8.51041 50H96.5954V44.6805H100.212V50H242.553C246.078 50 248.936 47.1422 248.936 43.617L248.936 31.9151C245.117 31.9151 242.021 28.8192 242.021 25.0002C242.021 21.1812 245.117 18.0853 248.936 18.0853L248.936 6.38298C248.936 2.85776 246.078 0 242.553 0H100.212V6.38279H96.5954V0ZM96.5954 32.9786H100.212V41.4892H96.5954V32.9786ZM100.212 21.2764H96.5954V29.787H100.212V21.2764ZM96.5954 9.57418H100.212V18.0848H96.5954V9.57418Z"/>
</mask>
<path d="M96.5954 0H99.7869V-3.19149H96.5954V0ZM2.12744 18.0851H-1.06405V21.2765L2.12738 21.2766L2.12744 18.0851ZM2.12744 31.9149L2.12738 28.7234L-1.06405 28.7235V31.9149H2.12744ZM96.5954 50V53.1915H99.7869V50H96.5954ZM96.5954 44.6805V41.489H93.4039V44.6805H96.5954ZM100.212 44.6805H103.404V41.489H100.212V44.6805ZM100.212 50H97.0209V53.1915H100.212V50ZM248.936 43.617H252.127V43.617L248.936 43.617ZM248.936 31.9151L252.127 31.915L252.127 28.7236H248.936V31.9151ZM248.936 18.0853V21.2768H252.127L252.127 18.0853L248.936 18.0853ZM248.936 6.38298L252.127 6.383V6.38298H248.936ZM100.212 0V-3.19149H97.021V0H100.212ZM100.212 6.38279V9.57428H103.404V6.38279H100.212ZM96.5954 6.38279H93.4039V9.57428H96.5954V6.38279ZM100.212 32.9786H103.404V29.7871H100.212V32.9786ZM96.5954 32.9786V29.7871H93.4039V32.9786H96.5954ZM100.212 41.4892V44.6807H103.404V41.4892H100.212ZM96.5954 41.4892H93.4039V44.6807H96.5954V41.4892ZM96.5954 21.2764V18.0849H93.4039V21.2764H96.5954ZM100.212 21.2764H103.404V18.0849H100.212V21.2764ZM96.5954 29.787H93.4039V32.9785H96.5954V29.787ZM100.212 29.787V32.9785H103.404V29.787H100.212ZM100.212 9.57418H103.404V6.38269H100.212V9.57418ZM96.5954 9.57418V6.38269H93.4039V9.57418H96.5954ZM100.212 18.0848V21.2763H103.404V18.0848H100.212ZM96.5954 18.0848H93.4039V21.2763H96.5954V18.0848ZM8.51042 3.19149H96.5954V-3.19149H8.51042V3.19149ZM5.31893 6.38298C5.31893 4.62037 6.74781 3.19149 8.51042 3.19149V-3.19149C3.22259 -3.19149 -1.06405 1.09515 -1.06405 6.38298H5.31893ZM5.31893 18.0851V6.38298H-1.06405V18.0851H5.31893ZM12.2337 25C12.2337 19.4185 7.70901 14.8937 2.1275 14.8936L2.12738 21.2766C4.18372 21.2766 5.85071 22.9437 5.85071 25H12.2337ZM2.1275 35.1064C7.70901 35.1063 12.2337 30.5816 12.2337 25H5.85071C5.85071 27.0564 4.18372 28.7234 2.12738 28.7234L2.1275 35.1064ZM5.31893 43.617V31.9149H-1.06405V43.617H5.31893ZM8.51041 46.8085C6.74781 46.8085 5.31893 45.3796 5.31893 43.617H-1.06405C-1.06405 48.9049 3.22258 53.1915 8.51041 53.1915V46.8085ZM96.5954 46.8085H8.51041V53.1915H96.5954V46.8085ZM99.7869 50V44.6805H93.4039V50H99.7869ZM96.5954 47.872H100.212V41.489H96.5954V47.872ZM97.0209 44.6805V50H103.404V44.6805H97.0209ZM242.553 46.8085H100.212V53.1915H242.553V46.8085ZM245.744 43.617C245.744 45.3796 244.316 46.8085 242.553 46.8085V53.1915C247.841 53.1915 252.127 48.9049 252.127 43.617H245.744ZM245.744 31.9151L245.744 43.617L252.127 43.617L252.127 31.915L245.744 31.9151ZM238.829 25.0002C238.829 30.5818 243.354 35.1066 248.936 35.1066V28.7236C246.879 28.7236 245.212 27.0566 245.212 25.0002H238.829ZM248.936 14.8938C243.354 14.8938 238.829 19.4186 238.829 25.0002H245.212C245.212 22.9438 246.879 21.2768 248.936 21.2768V14.8938ZM245.744 6.38295L245.744 18.0853L252.127 18.0853L252.127 6.383L245.744 6.38295ZM242.553 3.19149C244.316 3.19149 245.744 4.62037 245.744 6.38298H252.127C252.127 1.09515 247.841 -3.19149 242.553 -3.19149V3.19149ZM100.212 3.19149H242.553V-3.19149H100.212V3.19149ZM103.404 6.38279V0H97.021V6.38279H103.404ZM96.5954 9.57428H100.212V3.1913H96.5954V9.57428ZM93.4039 0V6.38279H99.7869V0H93.4039ZM100.212 29.7871H96.5954V36.17H100.212V29.7871ZM103.404 41.4892V32.9786H97.0209V41.4892H103.404ZM96.5954 44.6807H100.212V38.2977H96.5954V44.6807ZM93.4039 32.9786V41.4892H99.7869V32.9786H93.4039ZM96.5954 24.4679H100.212V18.0849H96.5954V24.4679ZM99.7869 29.787V21.2764H93.4039V29.787H99.7869ZM100.212 26.5955H96.5954V32.9785H100.212V26.5955ZM97.0209 21.2764V29.787H103.404V21.2764H97.0209ZM100.212 6.38269H96.5954V12.7657H100.212V6.38269ZM103.404 18.0848V9.57418H97.0209V18.0848H103.404ZM96.5954 21.2763H100.212V14.8933H96.5954V21.2763ZM93.4039 9.57418V18.0848H99.7869V9.57418H93.4039Z" fill="white" mask="url(#path-6-inside-1_740_34966)"/>
</g>
</svg>
