<svg width="114" height="114" viewBox="0 0 114 114" fill="none" xmlns="http://www.w3.org/2000/svg">
<g id="Group 25">
<g id="Group 14" filter="url(#filter0_f_379_27688)">
<rect id="Rectangle 14" x="32.7686" y="1.77997" width="84.9709" height="84.9709" rx="2.0393" transform="rotate(21.3661 32.7686 1.77997)" stroke="#D449FF" stroke-width="1.35953" stroke-linejoin="round"/>
<g id="Group 11">
<rect id="Rectangle 15" x="34.1174" y="4.86243" width="25.1514" height="25.1514" rx="0.339884" transform="rotate(21.3661 34.1174 4.86243)" stroke="#D449FF" stroke-width="1.35953" stroke-linejoin="round"/>
<rect id="Rectangle 16" x="59.7559" y="14.8926" width="25.1514" height="25.1514" rx="0.339884" transform="rotate(21.3661 59.7559 14.8926)" stroke="#D449FF" stroke-width="1.35953" stroke-linejoin="round"/>
<rect id="Rectangle 17" x="85.3943" y="24.9227" width="25.1514" height="25.1514" rx="0.339884" transform="rotate(21.3661 85.3943 24.9227)" stroke="#D449FF" stroke-width="1.35953" stroke-linejoin="round"/>
</g>
<g id="Group 12">
<rect id="Rectangle 15_2" x="24.0872" y="30.5009" width="25.1514" height="25.1514" rx="0.339884" transform="rotate(21.3661 24.0872 30.5009)" stroke="#D449FF" stroke-width="1.35953" stroke-linejoin="round"/>
<rect id="Rectangle 16_2" x="49.7256" y="40.531" width="25.1514" height="25.1514" rx="0.339884" transform="rotate(21.3661 49.7256 40.531)" stroke="#D449FF" stroke-width="1.35953" stroke-linejoin="round"/>
<rect id="Rectangle 17_2" x="75.364" y="50.5611" width="25.1514" height="25.1514" rx="0.339884" transform="rotate(21.3661 75.364 50.5611)" stroke="#D449FF" stroke-width="1.35953" stroke-linejoin="round"/>
</g>
<g id="Group 13">
<rect id="Rectangle 15_3" x="14.0571" y="56.1393" width="25.1514" height="25.1514" rx="0.339884" transform="rotate(21.3661 14.0571 56.1393)" stroke="#D449FF" stroke-width="1.35953" stroke-linejoin="round"/>
<rect id="Rectangle 16_3" x="39.6956" y="66.1694" width="25.1514" height="25.1514" rx="0.339884" transform="rotate(21.3661 39.6956 66.1694)" stroke="#D449FF" stroke-width="1.35953" stroke-linejoin="round"/>
<rect id="Rectangle 17_3" x="65.334" y="76.1995" width="25.1514" height="25.1514" rx="0.339884" transform="rotate(21.3661 65.334 76.1995)" stroke="#D449FF" stroke-width="1.35953" stroke-linejoin="round"/>
</g>
</g>
<g id="Group 16">
<rect id="Rectangle 14_2" x="32.7686" y="1.77997" width="84.9709" height="84.9709" rx="2.0393" transform="rotate(21.3661 32.7686 1.77997)" stroke="#D449FF" stroke-width="1.35953" stroke-linejoin="round"/>
<g id="Group 11_2">
<rect id="Rectangle 15_4" x="34.1174" y="4.86243" width="25.1514" height="25.1514" rx="0.339884" transform="rotate(21.3661 34.1174 4.86243)" stroke="#D449FF" stroke-width="1.35953" stroke-linejoin="round"/>
<rect id="Rectangle 16_4" x="59.7559" y="14.8926" width="25.1514" height="25.1514" rx="0.339884" transform="rotate(21.3661 59.7559 14.8926)" stroke="#D449FF" stroke-width="1.35953" stroke-linejoin="round"/>
<rect id="Rectangle 17_4" x="85.3943" y="24.9227" width="25.1514" height="25.1514" rx="0.339884" transform="rotate(21.3661 85.3943 24.9227)" stroke="#D449FF" stroke-width="1.35953" stroke-linejoin="round"/>
</g>
<g id="Group 12_2">
<rect id="Rectangle 15_5" x="24.0872" y="30.5009" width="25.1514" height="25.1514" rx="0.339884" transform="rotate(21.3661 24.0872 30.5009)" stroke="#D449FF" stroke-width="1.35953" stroke-linejoin="round"/>
<rect id="Rectangle 16_5" x="49.7256" y="40.531" width="25.1514" height="25.1514" rx="0.339884" transform="rotate(21.3661 49.7256 40.531)" stroke="#D449FF" stroke-width="1.35953" stroke-linejoin="round"/>
<rect id="Rectangle 17_5" x="75.364" y="50.5611" width="25.1514" height="25.1514" rx="0.339884" transform="rotate(21.3661 75.364 50.5611)" stroke="#D449FF" stroke-width="1.35953" stroke-linejoin="round"/>
</g>
<g id="Group 13_2">
<rect id="Rectangle 15_6" x="14.0571" y="56.1393" width="25.1514" height="25.1514" rx="0.339884" transform="rotate(21.3661 14.0571 56.1393)" stroke="#D449FF" stroke-width="1.35953" stroke-linejoin="round"/>
<rect id="Rectangle 16_6" x="39.6956" y="66.1694" width="25.1514" height="25.1514" rx="0.339884" transform="rotate(21.3661 39.6956 66.1694)" stroke="#D449FF" stroke-width="1.35953" stroke-linejoin="round"/>
<rect id="Rectangle 17_6" x="65.334" y="76.1995" width="25.1514" height="25.1514" rx="0.339884" transform="rotate(21.3661 65.334 76.1995)" stroke="#D449FF" stroke-width="1.35953" stroke-linejoin="round"/>
</g>
</g>
<g id="Group 15">
<rect id="Rectangle 14_3" x="32.7686" y="1.77997" width="84.9709" height="84.9709" rx="2.0393" transform="rotate(21.3661 32.7686 1.77997)" stroke="#EFB9FF" stroke-width="0.679767" stroke-linejoin="round"/>
<g id="Group 11_3">
<rect id="Rectangle 15_7" x="34.1174" y="4.86243" width="25.1514" height="25.1514" rx="0.339884" transform="rotate(21.3661 34.1174 4.86243)" stroke="#EFB9FF" stroke-width="0.679767" stroke-linejoin="round"/>
<rect id="Rectangle 16_7" x="59.7559" y="14.8926" width="25.1514" height="25.1514" rx="0.339884" transform="rotate(21.3661 59.7559 14.8926)" stroke="#EFB9FF" stroke-width="0.679767" stroke-linejoin="round"/>
<rect id="Rectangle 17_7" x="85.3943" y="24.9227" width="25.1514" height="25.1514" rx="0.339884" transform="rotate(21.3661 85.3943 24.9227)" stroke="#EFB9FF" stroke-width="0.679767" stroke-linejoin="round"/>
</g>
<g id="Group 12_3">
<rect id="Rectangle 15_8" x="24.0872" y="30.5009" width="25.1514" height="25.1514" rx="0.339884" transform="rotate(21.3661 24.0872 30.5009)" stroke="#EFB9FF" stroke-width="0.679767" stroke-linejoin="round"/>
<rect id="Rectangle 16_8" x="49.7256" y="40.531" width="25.1514" height="25.1514" rx="0.339884" transform="rotate(21.3661 49.7256 40.531)" stroke="#EFB9FF" stroke-width="0.679767" stroke-linejoin="round"/>
<rect id="Rectangle 17_8" x="75.364" y="50.5611" width="25.1514" height="25.1514" rx="0.339884" transform="rotate(21.3661 75.364 50.5611)" stroke="#EFB9FF" stroke-width="0.679767" stroke-linejoin="round"/>
</g>
<g id="Group 13_3">
<rect id="Rectangle 15_9" x="14.0571" y="56.1393" width="25.1514" height="25.1514" rx="0.339884" transform="rotate(21.3661 14.0571 56.1393)" stroke="#EFB9FF" stroke-width="0.679767" stroke-linejoin="round"/>
<rect id="Rectangle 16_9" x="39.6956" y="66.1694" width="25.1514" height="25.1514" rx="0.339884" transform="rotate(21.3661 39.6956 66.1694)" stroke="#EFB9FF" stroke-width="0.679767" stroke-linejoin="round"/>
<rect id="Rectangle 17_9" x="65.334" y="76.1995" width="25.1514" height="25.1514" rx="0.339884" transform="rotate(21.3661 65.334 76.1995)" stroke="#EFB9FF" stroke-width="0.679767" stroke-linejoin="round"/>
</g>
</g>
</g>
<defs>
<filter id="filter0_f_379_27688" x="0.374108" y="0.342736" width="112.963" height="112.963" filterUnits="userSpaceOnUse" color-interpolation-filters="sRGB">
<feFlood flood-opacity="0" result="BackgroundImageFix"/>
<feBlend mode="normal" in="SourceGraphic" in2="BackgroundImageFix" result="shape"/>
<feGaussianBlur stdDeviation="0.679767" result="effect1_foregroundBlur_379_27688"/>
</filter>
</defs>
</svg>
