<svg width="108" height="107" viewBox="0 0 108 107" fill="none" xmlns="http://www.w3.org/2000/svg">
<g filter="url(#filter0_f_379_27645)">
<rect x="2.32092" y="23.125" width="84.9709" height="84.9709" rx="2.0393" transform="rotate(-14.6002 2.32092 23.125)" stroke="#D449FF" stroke-width="1.35953" stroke-linejoin="round"/>
<rect x="5.22302" y="24.8276" width="25.1514" height="25.1514" rx="0.339884" transform="rotate(-14.6002 5.22302 24.8276)" stroke="#D449FF" stroke-width="1.35953" stroke-linejoin="round"/>
<rect x="31.8645" y="17.8879" width="25.1514" height="25.1514" rx="0.339884" transform="rotate(-14.6002 31.8645 17.8879)" stroke="#D449FF" stroke-width="1.35953" stroke-linejoin="round"/>
<rect x="58.5061" y="10.9482" width="25.1514" height="25.1514" rx="0.339884" transform="rotate(-14.6002 58.5061 10.9482)" stroke="#D449FF" stroke-width="1.35953" stroke-linejoin="round"/>
<rect x="12.1627" y="51.4692" width="25.1514" height="25.1514" rx="0.339884" transform="rotate(-14.6002 12.1627 51.4692)" stroke="#D449FF" stroke-width="1.35953" stroke-linejoin="round"/>
<rect x="38.8043" y="44.5294" width="25.1514" height="25.1514" rx="0.339884" transform="rotate(-14.6002 38.8043 44.5294)" stroke="#D449FF" stroke-width="1.35953" stroke-linejoin="round"/>
<rect x="65.4458" y="37.5897" width="25.1514" height="25.1514" rx="0.339884" transform="rotate(-14.6002 65.4458 37.5897)" stroke="#D449FF" stroke-width="1.35953" stroke-linejoin="round"/>
<rect x="19.1025" y="78.1108" width="25.1514" height="25.1514" rx="0.339884" transform="rotate(-14.6002 19.1025 78.1108)" stroke="#D449FF" stroke-width="1.35953" stroke-linejoin="round"/>
<rect x="45.744" y="71.1711" width="25.1514" height="25.1514" rx="0.339884" transform="rotate(-14.6002 45.744 71.1711)" stroke="#D449FF" stroke-width="1.35953" stroke-linejoin="round"/>
<rect x="72.3857" y="64.2314" width="25.1514" height="25.1514" rx="0.339884" transform="rotate(-14.6002 72.3857 64.2314)" stroke="#D449FF" stroke-width="1.35953" stroke-linejoin="round"/>
</g>
<rect x="2.32092" y="23.125" width="84.9709" height="84.9709" rx="2.0393" transform="rotate(-14.6002 2.32092 23.125)" stroke="#D449FF" stroke-width="1.35953" stroke-linejoin="round"/>
<rect x="5.22302" y="24.8276" width="25.1514" height="25.1514" rx="0.339884" transform="rotate(-14.6002 5.22302 24.8276)" stroke="#D449FF" stroke-width="1.35953" stroke-linejoin="round"/>
<rect x="31.8645" y="17.8879" width="25.1514" height="25.1514" rx="0.339884" transform="rotate(-14.6002 31.8645 17.8879)" stroke="#D449FF" stroke-width="1.35953" stroke-linejoin="round"/>
<rect x="58.5061" y="10.9482" width="25.1514" height="25.1514" rx="0.339884" transform="rotate(-14.6002 58.5061 10.9482)" stroke="#D449FF" stroke-width="1.35953" stroke-linejoin="round"/>
<rect x="12.1627" y="51.4692" width="25.1514" height="25.1514" rx="0.339884" transform="rotate(-14.6002 12.1627 51.4692)" stroke="#D449FF" stroke-width="1.35953" stroke-linejoin="round"/>
<rect x="38.8043" y="44.5294" width="25.1514" height="25.1514" rx="0.339884" transform="rotate(-14.6002 38.8043 44.5294)" stroke="#D449FF" stroke-width="1.35953" stroke-linejoin="round"/>
<rect x="65.4458" y="37.5897" width="25.1514" height="25.1514" rx="0.339884" transform="rotate(-14.6002 65.4458 37.5897)" stroke="#D449FF" stroke-width="1.35953" stroke-linejoin="round"/>
<rect x="19.1025" y="78.1108" width="25.1514" height="25.1514" rx="0.339884" transform="rotate(-14.6002 19.1025 78.1108)" stroke="#D449FF" stroke-width="1.35953" stroke-linejoin="round"/>
<rect x="45.744" y="71.1711" width="25.1514" height="25.1514" rx="0.339884" transform="rotate(-14.6002 45.744 71.1711)" stroke="#D449FF" stroke-width="1.35953" stroke-linejoin="round"/>
<rect x="72.3857" y="64.2314" width="25.1514" height="25.1514" rx="0.339884" transform="rotate(-14.6002 72.3857 64.2314)" stroke="#D449FF" stroke-width="1.35953" stroke-linejoin="round"/>
<rect x="2.32092" y="23.125" width="84.9709" height="84.9709" rx="2.0393" transform="rotate(-14.6002 2.32092 23.125)" stroke="#EFB9FF" stroke-width="0.679767" stroke-linejoin="round"/>
<rect x="5.22302" y="24.8276" width="25.1514" height="25.1514" rx="0.339884" transform="rotate(-14.6002 5.22302 24.8276)" stroke="#EFB9FF" stroke-width="0.679767" stroke-linejoin="round"/>
<rect x="31.8645" y="17.8879" width="25.1514" height="25.1514" rx="0.339884" transform="rotate(-14.6002 31.8645 17.8879)" stroke="#EFB9FF" stroke-width="0.679767" stroke-linejoin="round"/>
<rect x="58.5061" y="10.9482" width="25.1514" height="25.1514" rx="0.339884" transform="rotate(-14.6002 58.5061 10.9482)" stroke="#EFB9FF" stroke-width="0.679767" stroke-linejoin="round"/>
<rect x="12.1627" y="51.4692" width="25.1514" height="25.1514" rx="0.339884" transform="rotate(-14.6002 12.1627 51.4692)" stroke="#EFB9FF" stroke-width="0.679767" stroke-linejoin="round"/>
<rect x="38.8043" y="44.5294" width="25.1514" height="25.1514" rx="0.339884" transform="rotate(-14.6002 38.8043 44.5294)" stroke="#EFB9FF" stroke-width="0.679767" stroke-linejoin="round"/>
<rect x="65.4458" y="37.5897" width="25.1514" height="25.1514" rx="0.339884" transform="rotate(-14.6002 65.4458 37.5897)" stroke="#EFB9FF" stroke-width="0.679767" stroke-linejoin="round"/>
<rect x="19.1025" y="78.1108" width="25.1514" height="25.1514" rx="0.339884" transform="rotate(-14.6002 19.1025 78.1108)" stroke="#EFB9FF" stroke-width="0.679767" stroke-linejoin="round"/>
<rect x="45.744" y="71.1711" width="25.1514" height="25.1514" rx="0.339884" transform="rotate(-14.6002 45.744 71.1711)" stroke="#EFB9FF" stroke-width="0.679767" stroke-linejoin="round"/>
<rect x="72.3857" y="64.2314" width="25.1514" height="25.1514" rx="0.339884" transform="rotate(-14.6002 72.3857 64.2314)" stroke="#EFB9FF" stroke-width="0.679767" stroke-linejoin="round"/>
<defs>
<filter id="filter0_f_379_27645" x="0.729211" y="0.114342" width="106.829" height="106.829" filterUnits="userSpaceOnUse" color-interpolation-filters="sRGB">
<feFlood flood-opacity="0" result="BackgroundImageFix"/>
<feBlend mode="normal" in="SourceGraphic" in2="BackgroundImageFix" result="shape"/>
<feGaussianBlur stdDeviation="0.679767" result="effect1_foregroundBlur_379_27645"/>
</filter>
</defs>
</svg>
