<svg width="139" height="133" viewBox="0 0 139 133" fill="none" xmlns="http://www.w3.org/2000/svg">
<g filter="url(#filter0_f_379_27572)">
<path fill-rule="evenodd" clip-rule="evenodd" d="M9.43408 81.3158L92.9112 10L128.879 52.1014L45.402 123.417L9.43408 81.3158ZM29.6778 83.5214L69.2139 50.8928L86.047 71.2896L46.511 103.918L29.6778 83.5214ZM82.2246 31.072L92.0179 22.7854L94.6545 25.7987C92.0179 29.5654 91.6426 38.1616 96.5379 43.502C100.681 48.022 109.344 50.282 114.241 46.5153L117.631 50.6586L107.085 59.6986L82.2246 31.072Z" fill="#FBD25C" fill-opacity="0.25"/>
</g>
<g filter="url(#filter1_f_379_27572)">
<path d="M14.8014 82.1425L14.1318 81.3556C13.6972 81.7254 13.6447 82.3775 14.0146 82.8121L14.8014 82.1425ZM92.9605 15.6287L93.7473 14.9591C93.3775 14.5246 92.7254 14.4721 92.2909 14.8419L92.9605 15.6287ZM45.2077 117.872L44.4208 118.542C44.7906 118.976 45.4427 119.029 45.8773 118.659L45.2077 117.872ZM123.367 51.3586L124.036 52.1454C124.471 51.7756 124.523 51.1236 124.154 50.689L123.367 51.3586ZM115.053 41.5887L115.839 40.9191C115.662 40.7104 115.409 40.5808 115.135 40.5588C114.862 40.5368 114.592 40.6242 114.383 40.8018L115.053 41.5887ZM101.275 25.3986L101.944 26.1854C102.153 26.0078 102.283 25.7546 102.305 25.4815C102.327 25.2083 102.239 24.9377 102.062 24.729L101.275 25.3986ZM15.471 82.9293L93.6301 16.4156L92.2909 14.8419L14.1318 81.3556L15.471 82.9293ZM45.9945 117.203L15.5882 81.4729L14.0146 82.8121L44.4208 118.542L45.9945 117.203ZM122.697 50.5718L44.5381 117.085L45.8773 118.659L124.036 52.1454L122.697 50.5718ZM114.266 42.2583L122.58 52.0282L124.154 50.689L115.839 40.9191L114.266 42.2583ZM114.383 40.8018C110.347 44.2367 104.29 43.7492 100.855 39.7129L99.2817 41.0521C103.456 45.9575 110.817 46.55 115.722 42.3755L114.383 40.8018ZM100.855 39.7129C97.4206 35.6767 97.9081 29.6202 101.944 26.1854L100.605 24.6117C95.6998 28.7862 95.1073 36.1468 99.2817 41.0521L100.855 39.7129ZM92.1736 16.2983L100.488 26.0682L102.062 24.729L93.7473 14.9591L92.1736 16.2983Z" fill="#FFD24C"/>
<rect x="19.4517" y="82.5168" width="66.7095" height="40.3189" transform="rotate(-40.3979 19.4517 82.5168)" stroke="#FFD24C" stroke-width="2.06638" stroke-linejoin="round"/>
<path d="M76.4792 33.0234L103.56 64.8453" stroke="#FFD24C" stroke-width="2.06638" stroke-linecap="round" stroke-linejoin="round" stroke-dasharray="6.6 6.6"/>
</g>
<path d="M14.8014 82.1425L14.355 81.6179C14.0653 81.8644 14.0303 82.2992 14.2768 82.5889L14.8014 82.1425ZM92.9605 15.6287L93.485 15.1823C93.2385 14.8926 92.8038 14.8576 92.5141 15.1042L92.9605 15.6287ZM45.2077 117.872L44.6831 118.319C44.9296 118.608 45.3644 118.643 45.6541 118.397L45.2077 117.872ZM123.367 51.3586L123.813 51.8832C124.103 51.6366 124.138 51.2019 123.891 50.9122L123.367 51.3586ZM115.053 41.5887L115.577 41.1423C115.459 41.0031 115.29 40.9168 115.108 40.9021C114.926 40.8874 114.745 40.9457 114.606 41.0641L115.053 41.5887ZM101.275 25.3986L101.721 25.9231C101.86 25.8047 101.947 25.6359 101.961 25.4538C101.976 25.2717 101.918 25.0913 101.799 24.9522L101.275 25.3986ZM15.2478 82.667L93.4069 16.1533L92.5141 15.1042L14.355 81.6179L15.2478 82.667ZM45.7322 117.426L15.3259 81.6961L14.2768 82.5889L44.6831 118.319L45.7322 117.426ZM122.92 50.834L44.7613 117.348L45.6541 118.397L123.813 51.8832L122.92 50.834ZM114.528 42.0351L122.842 51.805L123.891 50.9122L115.577 41.1423L114.528 42.0351ZM114.606 41.0641C110.425 44.6222 104.151 44.1172 100.593 39.9361L99.544 40.8289C103.595 45.5894 110.738 46.1644 115.499 42.1132L114.606 41.0641ZM100.593 39.9361C97.035 35.7551 97.54 29.4812 101.721 25.9231L100.828 24.874C96.0678 28.9252 95.4928 36.0685 99.544 40.8289L100.593 39.9361ZM92.4359 16.0751L100.75 25.845L101.799 24.9522L93.485 15.1823L92.4359 16.0751Z" fill="#FFD24C"/>
<rect x="19.4517" y="82.5168" width="66.7095" height="40.3189" transform="rotate(-40.3979 19.4517 82.5168)" stroke="#FFD24C" stroke-width="1.37758" stroke-linejoin="round"/>
<path d="M76.4792 33.0234L103.56 64.8453" stroke="#FFD24C" stroke-width="1.37758" stroke-linecap="round" stroke-linejoin="round" stroke-dasharray="6.6 6.6"/>
<path d="M14.8014 82.1425L14.5782 81.8802C14.4333 82.0034 14.4158 82.2208 14.5391 82.3657L14.8014 82.1425ZM92.9605 15.6287L93.2228 15.4055C93.0995 15.2607 92.8821 15.2432 92.7373 15.3665L92.9605 15.6287ZM45.2077 117.872L44.9454 118.096C45.0687 118.24 45.286 118.258 45.4309 118.135L45.2077 117.872ZM123.367 51.3586L123.59 51.6209C123.735 51.4976 123.752 51.2803 123.629 51.1354L123.367 51.3586ZM115.053 41.5887L115.315 41.3655C115.256 41.2959 115.171 41.2527 115.08 41.2454C114.989 41.2381 114.899 41.2672 114.829 41.3264L115.053 41.5887ZM101.275 25.3986L101.498 25.6609C101.567 25.6017 101.611 25.5173 101.618 25.4262C101.625 25.3352 101.596 25.2449 101.537 25.1754L101.275 25.3986ZM15.0246 82.4047L93.1837 15.891L92.7373 15.3665L14.5782 81.8802L15.0246 82.4047ZM45.4699 117.649L15.0637 81.9193L14.5391 82.3657L44.9454 118.096L45.4699 117.649ZM123.144 51.0963L44.9845 117.61L45.4309 118.135L123.59 51.6209L123.144 51.0963ZM114.79 41.8119L123.104 51.5818L123.629 51.1354L115.315 41.3655L114.79 41.8119ZM114.829 41.3264C110.503 45.0078 104.012 44.4853 100.331 40.1593L99.8063 40.6057C103.734 45.2214 110.66 45.7789 115.276 41.8509L114.829 41.3264ZM100.331 40.1593C96.6495 35.8334 97.172 29.3422 101.498 25.6609L101.051 25.1363C96.4359 29.0642 95.8784 35.9901 99.8063 40.6057L100.331 40.1593ZM92.6982 15.8519L101.012 25.6218L101.537 25.1754L93.2228 15.4055L92.6982 15.8519Z" fill="#FFF5D9"/>
<rect x="19.4517" y="82.5168" width="66.7095" height="40.3189" transform="rotate(-40.3979 19.4517 82.5168)" stroke="#FFF5D9" stroke-width="0.688792" stroke-linejoin="round"/>
<path d="M76.4792 33.0234L103.56 64.8453" stroke="#FFF5D9" stroke-width="0.688792" stroke-linecap="round" stroke-linejoin="round" stroke-dasharray="6.6 6.6"/>
<defs>
<filter id="filter0_f_379_27572" x="0.243446" y="0.809364" width="137.826" height="131.798" filterUnits="userSpaceOnUse" color-interpolation-filters="sRGB">
<feFlood flood-opacity="0" result="BackgroundImageFix"/>
<feBlend mode="normal" in="SourceGraphic" in2="BackgroundImageFix" result="shape"/>
<feGaussianBlur stdDeviation="4.59532" result="effect1_foregroundBlur_379_27572"/>
</filter>
<filter id="filter1_f_379_27572" x="12.302" y="13.1294" width="113.564" height="107.242" filterUnits="userSpaceOnUse" color-interpolation-filters="sRGB">
<feFlood flood-opacity="0" result="BackgroundImageFix"/>
<feBlend mode="normal" in="SourceGraphic" in2="BackgroundImageFix" result="shape"/>
<feGaussianBlur stdDeviation="0.733071" result="effect1_foregroundBlur_379_27572"/>
</filter>
</defs>
</svg>
