<svg width="82" height="82" viewBox="0 0 82 82" fill="none" xmlns="http://www.w3.org/2000/svg">
<g filter="url(#filter0_f_379_27744)">
<path d="M44.0568 26.6857C46.0334 24.5377 49.604 26.1739 49.2675 29.0735L48.6605 34.3038C48.5101 35.6006 49.2117 36.8468 50.3985 37.3906L55.1853 39.5841C57.839 40.8001 57.3863 44.7015 54.5246 45.2776L49.3627 46.3166C48.0829 46.5742 47.1145 47.6266 46.9641 48.9233L46.3571 54.1537C46.0206 57.0533 42.1703 57.8283 40.7381 55.2847L38.1548 50.6965C37.5144 49.559 36.2143 48.9632 34.9345 49.2208L29.7726 50.2599C26.9109 50.8359 24.9839 47.4135 26.9605 45.2654L30.5259 41.3907C31.4098 40.4301 31.5747 39.0095 30.9342 37.8719L28.3509 33.2837C26.9188 30.7401 29.5782 27.8499 32.2319 29.066L37.0187 31.2595C38.2055 31.8033 39.6075 31.5211 40.4915 30.5604L44.0568 26.6857Z" stroke="#FFCD35" stroke-width="3.01332" stroke-linejoin="round"/>
<circle cx="41.0196" cy="40.6913" r="25.7219" transform="rotate(24.6191 41.0196 40.6913)" stroke="#FFCD35" stroke-width="3.01332"/>
<circle cx="41.0196" cy="40.6913" r="30.7003" transform="rotate(24.6191 41.0196 40.6913)" stroke="#FFCD35" stroke-width="3.01332"/>
</g>
<path d="M44.0568 26.6857C46.0334 24.5377 49.604 26.1739 49.2675 29.0735L48.6605 34.3038C48.5101 35.6006 49.2117 36.8468 50.3985 37.3906L55.1853 39.5841C57.839 40.8001 57.3863 44.7015 54.5246 45.2776L49.3627 46.3166C48.0829 46.5742 47.1145 47.6266 46.9641 48.9233L46.3571 54.1537C46.0206 57.0533 42.1703 57.8283 40.7381 55.2847L38.1548 50.6965C37.5144 49.559 36.2143 48.9632 34.9345 49.2208L29.7726 50.2599C26.9109 50.8359 24.9839 47.4135 26.9605 45.2654L30.5259 41.3907C31.4098 40.4301 31.5747 39.0095 30.9342 37.8719L28.3509 33.2837C26.9188 30.7401 29.5782 27.8499 32.2319 29.066L37.0187 31.2595C38.2055 31.8033 39.6075 31.5211 40.4915 30.5604L44.0568 26.6857Z" stroke="#FFCD35" stroke-width="3.01332" stroke-linejoin="round"/>
<circle cx="41.0196" cy="40.6913" r="25.7219" transform="rotate(24.6191 41.0196 40.6913)" stroke="#FFCD35" stroke-width="3.01332"/>
<circle cx="41.0196" cy="40.6913" r="30.7003" transform="rotate(24.6191 41.0196 40.6913)" stroke="#FFCD35" stroke-width="3.01332"/>
<path d="M44.0568 26.6857C46.0334 24.5377 49.604 26.1739 49.2675 29.0735L48.6605 34.3038C48.5101 35.6006 49.2117 36.8468 50.3985 37.3906L55.1853 39.5841C57.839 40.8001 57.3863 44.7015 54.5246 45.2776L49.3627 46.3166C48.0829 46.5742 47.1145 47.6266 46.9641 48.9233L46.3571 54.1537C46.0206 57.0533 42.1703 57.8283 40.7381 55.2847L38.1548 50.6965C37.5144 49.559 36.2143 48.9632 34.9345 49.2208L29.7726 50.2599C26.9109 50.8359 24.9839 47.4135 26.9605 45.2654L30.5259 41.3907C31.4098 40.4301 31.5747 39.0095 30.9342 37.8719L28.3509 33.2837C26.9188 30.7401 29.5782 27.8499 32.2319 29.066L37.0187 31.2595C38.2055 31.8033 39.6075 31.5211 40.4915 30.5604L44.0568 26.6857Z" stroke="#FFECB3" stroke-width="1.50666" stroke-linejoin="round"/>
<circle cx="41.0196" cy="40.6913" r="25.7219" transform="rotate(24.6191 41.0196 40.6913)" stroke="#FFECB3" stroke-width="1.50666"/>
<circle cx="41.0196" cy="40.6913" r="30.7003" transform="rotate(24.6191 41.0196 40.6913)" stroke="#FFECB3" stroke-width="1.50666"/>
<defs>
<filter id="filter0_f_379_27744" x="5.79149" y="5.46312" width="70.4562" height="70.4563" filterUnits="userSpaceOnUse" color-interpolation-filters="sRGB">
<feFlood flood-opacity="0" result="BackgroundImageFix"/>
<feBlend mode="normal" in="SourceGraphic" in2="BackgroundImageFix" result="shape"/>
<feGaussianBlur stdDeviation="1.50666" result="effect1_foregroundBlur_379_27744"/>
</filter>
</defs>
</svg>
