<svg xmlns="http://www.w3.org/2000/svg" width="701" height="359" fill="none"><path fill="url(#a)" d="M7.52 20.362c0-7.377 5.98-13.358 13.358-13.358h659.749c7.378 0 13.359 5.98 13.359 13.358V338.13c0 7.377-5.981 13.358-13.359 13.358H20.878c-7.377 0-13.358-5.981-13.358-13.358V20.362Z"/><path fill="#092109" d="M17.054 24.153a7.633 7.633 0 0 1 7.634-7.633h652.13a7.633 7.633 0 0 1 7.633 7.633v310.185a7.632 7.632 0 0 1-7.633 7.633H24.688a7.633 7.633 0 0 1-7.634-7.633V24.153Z"/><mask id="b" width="668" height="326" x="17" y="16" maskUnits="userSpaceOnUse" style="mask-type:alpha"><path fill="#092109" d="M17.054 24.153a7.633 7.633 0 0 1 7.634-7.633h652.13a7.633 7.633 0 0 1 7.633 7.633v310.185a7.632 7.632 0 0 1-7.633 7.633H24.688a7.633 7.633 0 0 1-7.634-7.633V24.153Z"/></mask><g mask="url(#b)"><g filter="url(#c)"><path fill="#0B2A0B" d="M17.054 20.854h667.914v13.358H17.054V20.853Z"/></g><g filter="url(#d)"><path fill="#0B2A0B" d="M17.054 48.524h667.914v13.359H17.054V48.524Z"/></g><g filter="url(#e)"><path fill="#0B2A0B" d="M17.054 76.194h667.914v13.359H17.054V76.194Z"/></g><g filter="url(#f)"><path fill="#0B2A0B" d="M17.054 103.865h667.914v13.359H17.054v-13.359Z"/></g><g filter="url(#g)"><path fill="#0B2A0B" d="M17.054 131.536h667.914v13.358H17.054v-13.358Z"/></g><g filter="url(#h)"><path fill="#0B2A0B" d="M17.054 159.207h667.914v13.358H17.054v-13.358Z"/></g><g filter="url(#i)"><path fill="#0B2A0B" d="M17.054 186.878h667.914v13.358H17.054v-13.358Z"/></g><g filter="url(#j)"><path fill="#0B2A0B" d="M17.054 214.549h667.914v13.358H17.054v-13.358Z"/></g><g filter="url(#k)"><path fill="#0B2A0B" d="M17.054 242.219h667.914v13.358H17.054v-13.358Z"/></g><g filter="url(#l)"><path fill="#0B2A0B" d="M17.054 269.89h667.914v13.358H17.054V269.89Z"/></g><g filter="url(#m)"><path fill="#0B2A0B" d="M17.054 297.561h667.914v13.358H17.054v-13.358Z"/></g><g filter="url(#n)"><path fill="#0B2A0B" d="M17.054 325.231h667.914v13.359H17.054v-13.359Z"/></g><g filter="url(#o)" opacity=".78"><path stroke="#011201" stroke-width="15.267" d="M24.688 24.153h652.13v310.185H24.688V24.153Z"/></g></g><path stroke="url(#p)" stroke-width="4.771" d="M20.878 4.619c-8.695 0-15.743 7.048-15.743 15.743V338.13c0 8.695 7.048 15.743 15.743 15.743h659.749c8.695 0 15.744-7.048 15.744-15.743V20.362c0-8.695-7.049-15.743-15.744-15.743H20.878Z"/><path stroke="url(#q)" stroke-width="1.908" d="M20.882 1.292c-10.54 0-19.083 8.544-19.083 19.083v317.742c0 10.539 8.544 19.083 19.083 19.083h659.742c10.539 0 19.083-8.544 19.083-19.083V20.375c0-10.54-8.544-19.083-19.083-19.083H20.882Z"/><path fill="#B16FFF" d="M350.752 344.827c232.216 0 326.071-2.855 326.071-2.855H24.682s93.854 2.855 326.07 2.855Z"/><defs><filter id="c" width="679.555" height="24.999" x="11.234" y="15.033" color-interpolation-filters="sRGB" filterUnits="userSpaceOnUse"><feFlood flood-opacity="0" result="BackgroundImageFix"/><feBlend in="SourceGraphic" in2="BackgroundImageFix" result="shape"/><feGaussianBlur result="effect1_foregroundBlur_715_31667" stdDeviation="2.91"/></filter><filter id="d" width="679.555" height="24.999" x="11.234" y="42.704" color-interpolation-filters="sRGB" filterUnits="userSpaceOnUse"><feFlood flood-opacity="0" result="BackgroundImageFix"/><feBlend in="SourceGraphic" in2="BackgroundImageFix" result="shape"/><feGaussianBlur result="effect1_foregroundBlur_715_31667" stdDeviation="2.91"/></filter><filter id="e" width="679.555" height="24.999" x="11.234" y="70.374" color-interpolation-filters="sRGB" filterUnits="userSpaceOnUse"><feFlood flood-opacity="0" result="BackgroundImageFix"/><feBlend in="SourceGraphic" in2="BackgroundImageFix" result="shape"/><feGaussianBlur result="effect1_foregroundBlur_715_31667" stdDeviation="2.91"/></filter><filter id="f" width="679.555" height="24.999" x="11.234" y="98.045" color-interpolation-filters="sRGB" filterUnits="userSpaceOnUse"><feFlood flood-opacity="0" result="BackgroundImageFix"/><feBlend in="SourceGraphic" in2="BackgroundImageFix" result="shape"/><feGaussianBlur result="effect1_foregroundBlur_715_31667" stdDeviation="2.91"/></filter><filter id="g" width="679.555" height="24.999" x="11.234" y="125.716" color-interpolation-filters="sRGB" filterUnits="userSpaceOnUse"><feFlood flood-opacity="0" result="BackgroundImageFix"/><feBlend in="SourceGraphic" in2="BackgroundImageFix" result="shape"/><feGaussianBlur result="effect1_foregroundBlur_715_31667" stdDeviation="2.91"/></filter><filter id="h" width="679.555" height="24.999" x="11.234" y="153.387" color-interpolation-filters="sRGB" filterUnits="userSpaceOnUse"><feFlood flood-opacity="0" result="BackgroundImageFix"/><feBlend in="SourceGraphic" in2="BackgroundImageFix" result="shape"/><feGaussianBlur result="effect1_foregroundBlur_715_31667" stdDeviation="2.91"/></filter><filter id="i" width="679.555" height="24.999" x="11.234" y="181.058" color-interpolation-filters="sRGB" filterUnits="userSpaceOnUse"><feFlood flood-opacity="0" result="BackgroundImageFix"/><feBlend in="SourceGraphic" in2="BackgroundImageFix" result="shape"/><feGaussianBlur result="effect1_foregroundBlur_715_31667" stdDeviation="2.91"/></filter><filter id="j" width="679.555" height="24.999" x="11.234" y="208.728" color-interpolation-filters="sRGB" filterUnits="userSpaceOnUse"><feFlood flood-opacity="0" result="BackgroundImageFix"/><feBlend in="SourceGraphic" in2="BackgroundImageFix" result="shape"/><feGaussianBlur result="effect1_foregroundBlur_715_31667" stdDeviation="2.91"/></filter><filter id="k" width="679.555" height="24.999" x="11.234" y="236.398" color-interpolation-filters="sRGB" filterUnits="userSpaceOnUse"><feFlood flood-opacity="0" result="BackgroundImageFix"/><feBlend in="SourceGraphic" in2="BackgroundImageFix" result="shape"/><feGaussianBlur result="effect1_foregroundBlur_715_31667" stdDeviation="2.91"/></filter><filter id="l" width="679.555" height="24.999" x="11.234" y="264.069" color-interpolation-filters="sRGB" filterUnits="userSpaceOnUse"><feFlood flood-opacity="0" result="BackgroundImageFix"/><feBlend in="SourceGraphic" in2="BackgroundImageFix" result="shape"/><feGaussianBlur result="effect1_foregroundBlur_715_31667" stdDeviation="2.91"/></filter><filter id="m" width="679.555" height="24.999" x="11.234" y="291.74" color-interpolation-filters="sRGB" filterUnits="userSpaceOnUse"><feFlood flood-opacity="0" result="BackgroundImageFix"/><feBlend in="SourceGraphic" in2="BackgroundImageFix" result="shape"/><feGaussianBlur result="effect1_foregroundBlur_715_31667" stdDeviation="2.91"/></filter><filter id="n" width="679.555" height="24.999" x="11.234" y="319.411" color-interpolation-filters="sRGB" filterUnits="userSpaceOnUse"><feFlood flood-opacity="0" result="BackgroundImageFix"/><feBlend in="SourceGraphic" in2="BackgroundImageFix" result="shape"/><feGaussianBlur result="effect1_foregroundBlur_715_31667" stdDeviation="2.91"/></filter><filter id="o" width="699.266" height="357.32" x="1.12" y=".585" color-interpolation-filters="sRGB" filterUnits="userSpaceOnUse"><feFlood flood-opacity="0" result="BackgroundImageFix"/><feBlend in="SourceGraphic" in2="BackgroundImageFix" result="shape"/><feGaussianBlur result="effect1_foregroundBlur_715_31667" stdDeviation="7.967"/></filter><linearGradient id="a" x1="350.753" x2="350.753" y1="7.004" y2="351.488" gradientUnits="userSpaceOnUse"><stop stop-color="#4F1594"/><stop offset="1" stop-color="#6928B6"/></linearGradient><linearGradient id="p" x1="350.753" x2="350.753" y1="7.004" y2="351.488" gradientUnits="userSpaceOnUse"><stop stop-color="#6928B6"/><stop offset="1" stop-color="#3C146B"/></linearGradient><linearGradient id="q" x1="350.753" x2="350.753" y1=".343" y2="358.149" gradientUnits="userSpaceOnUse"><stop stop-color="#300167"/><stop offset="1" stop-color="#1F053D"/></linearGradient></defs></svg>