<svg xmlns="http://www.w3.org/2000/svg" width="1114" height="243" fill="none"><g filter="url(#a)"><path fill="url(#b)" d="M18 38c0-11.046 8.954-20 20-20h1040c11.05 0 20 8.954 20 20v170c0 11.046-8.95 20-20 20H38c-11.046 0-20-8.954-20-20V38Z"/></g><path stroke="url(#c)" stroke-width="6" d="M42 15c-14.912 0-27 12.088-27 27v161c0 14.912 12.088 27 27 27h1032c14.91 0 27-12.088 27-27V42c0-14.912-12.09-27-27-27H42Z"/><path stroke="url(#d)" stroke-width="10" d="M42 7C22.67 7 7 22.67 7 42v159c0 19.33 15.67 35 35 35h1030c19.33 0 35-15.67 35-35V42c0-19.33-15.67-35-35-35H42Z"/><g filter="url(#e)"><path stroke="url(#f)" stroke-width="4" d="M42 7C22.118 7 6 23.118 6 43v158c0 19.882 16.118 36 36 36h1030c19.88 0 36-16.118 36-36V43c0-19.882-16.12-36-36-36H42Z"/></g><g filter="url(#g)"><path stroke="url(#h)" stroke-width="2" d="M7 41C7 22.222 22.222 7 41 7h1032c18.78 0 34 15.222 34 34v161c0 18.778-15.22 34-34 34H41c-18.778 0-34-15.222-34-34V41Z"/></g><path stroke="url(#i)" stroke-width="2" d="M42 1C19.356 1 1 19.356 1 42v159c0 22.644 18.356 41 41 41h1030c22.64 0 41-18.356 41-41V42c0-22.644-18.36-41-41-41H42Z"/><defs><linearGradient id="c" x1="547.5" x2="547.5" y1="3.321" y2="267.297" gradientUnits="userSpaceOnUse"><stop stop-color="#B97B00"/><stop offset="1" stop-color="#FFCF37"/></linearGradient><linearGradient id="d" x1="547.5" x2="547.5" y1="3.321" y2="267.297" gradientUnits="userSpaceOnUse"><stop stop-color="#F6C424"/><stop offset="1" stop-color="#C48200"/></linearGradient><linearGradient id="f" x1="514.5" x2="514.5" y1="1" y2="323" gradientUnits="userSpaceOnUse"><stop stop-color="#FFE9A3"/><stop offset="1" stop-color="#C48200" stop-opacity="0"/></linearGradient><linearGradient id="h" x1="514.421" x2="514.421" y1="-1.136" y2="326.322" gradientUnits="userSpaceOnUse"><stop stop-color="#FFE9A3"/><stop offset="1" stop-color="#C48200" stop-opacity="0"/></linearGradient><linearGradient id="i" x1="547.5" x2="547.5" y1="-7.434" y2="279.497" gradientUnits="userSpaceOnUse"><stop stop-color="#FFDF7A"/><stop offset="1" stop-color="#7C5300"/></linearGradient><filter id="a" width="1080" height="210" x="18" y="18" color-interpolation-filters="sRGB" filterUnits="userSpaceOnUse"><feFlood flood-opacity="0" result="BackgroundImageFix"/><feBlend in="SourceGraphic" in2="BackgroundImageFix" result="shape"/><feColorMatrix in="SourceAlpha" result="hardAlpha" values="0 0 0 0 0 0 0 0 0 0 0 0 0 0 0 0 0 0 127 0"/><feOffset/><feGaussianBlur stdDeviation="21.45"/><feComposite in2="hardAlpha" k2="-1" k3="1" operator="arithmetic"/><feColorMatrix values="0 0 0 0 0.0994995 0 0 0 0 0 0 0 0 0 0.22111 0 0 0 1 0"/><feBlend in2="shape" result="effect1_innerShadow_715_31731"/></filter><filter id="e" width="1114" height="242" x="0" y="1" color-interpolation-filters="sRGB" filterUnits="userSpaceOnUse"><feFlood flood-opacity="0" result="BackgroundImageFix"/><feBlend in="SourceGraphic" in2="BackgroundImageFix" result="shape"/><feGaussianBlur result="effect1_foregroundBlur_715_31731" stdDeviation="2"/></filter><filter id="g" width="1104" height="233" x="5" y="5" color-interpolation-filters="sRGB" filterUnits="userSpaceOnUse"><feFlood flood-opacity="0" result="BackgroundImageFix"/><feBlend in="SourceGraphic" in2="BackgroundImageFix" result="shape"/><feGaussianBlur result="effect1_foregroundBlur_715_31731" stdDeviation=".5"/></filter><radialGradient id="b" cx="0" cy="0" r="1" gradientTransform="matrix(0 158.5 -252.675 0 542.305 83.5)" gradientUnits="userSpaceOnUse"><stop stop-color="#652CAE"/><stop offset="1" stop-color="#490A8B"/></radialGradient></defs></svg>