<svg xmlns="http://www.w3.org/2000/svg" width="892" height="141" fill="none"><path fill="url(#a)" d="M0 70.143C.022 90.048 9.714 88.99 9.714 88.99H16V51.006H9.714S-.022 50.137 0 70.142Z"/><path fill="url(#b)" d="M15 25h27v90H15s-9-10.998-9-45 9-45 9-45Z"/><path fill="url(#c)" d="M892 70.143c-.022 19.905-9.714 18.847-9.714 18.847H876V51.006h6.286s9.736-.868 9.714 19.137Z"/><path fill="url(#d)" d="M877 25h-27v90h27s9-10.998 9-45-9-45-9-45Z"/><path fill="url(#e)" d="M31 0h830s15 12.043 15 70-15 70-15 70H31s-15-12.043-15-70S31 0 31 0Z"/><path fill="url(#f)" d="M89.701 130.212H79v9.86h10.701v-9.86Z"/><path fill="url(#g)" d="M814 130H78v10.017h736V130Z"/><path fill="url(#h)" d="M79 140v-10h12l-12 10Z" style="mix-blend-mode:multiply"/><path fill="url(#i)" d="M96.553 0H78v13h18.553V0Z"/><path fill="#BE9005" d="M814 0H78v13h736V0Z"/><path fill="url(#j)" d="M78 0v13h20.409L78 0Z" style="mix-blend-mode:multiply"/><path fill="url(#k)" d="M67.63 68.991C67.63 37.579 72.91 14.752 78 13V0h-3C65 7.5 61.87 50.234 61.87 69.124c0 25.845 3.994 60.523 13.131 70.876h4v-10c-5.448-2.636-11.37-29.597-11.37-61.009Z"/><path fill="url(#l)" d="M824.239 68.991c0-31.412-5.281-54.239-10.371-55.991V0h3C826.869 7.5 830 50.234 830 69.124c0 25.845-2.995 60.523-12.131 70.876h-4v-10c5.447-2.636 10.37-29.597 10.37-61.009Z"/><path fill="#fff" d="M78 13h736s10 5.323 10 58.5-10 58.5-10 58.5H78s-10-5.323-10-58.5S78 13 78 13Z"/><defs><linearGradient id="b" x1="26" x2="26" y1="25" y2="115" gradientUnits="userSpaceOnUse"><stop stop-color="#C89336"/><stop offset=".04" stop-color="#B5881B"/><stop offset=".136" stop-color="#CD961E"/><stop offset=".167" stop-color="#FBBB54"/><stop offset=".361" stop-color="#F4B446"/><stop offset=".408" stop-color="#C19422"/><stop offset=".478" stop-color="#4E3207"/><stop offset=".71" stop-color="#704A11"/><stop offset=".782" stop-color="#C69307"/><stop offset=".925" stop-color="#C89606"/><stop offset=".958" stop-color="#AB7317"/></linearGradient><linearGradient id="d" x1="866" x2="866" y1="25" y2="115" gradientUnits="userSpaceOnUse"><stop stop-color="#C89336"/><stop offset=".04" stop-color="#B5881B"/><stop offset=".136" stop-color="#CD961E"/><stop offset=".167" stop-color="#FBBB54"/><stop offset=".361" stop-color="#F4B446"/><stop offset=".408" stop-color="#C19422"/><stop offset=".478" stop-color="#4E3207"/><stop offset=".71" stop-color="#704A11"/><stop offset=".782" stop-color="#C69307"/><stop offset=".925" stop-color="#C89606"/><stop offset=".958" stop-color="#AB7317"/></linearGradient><linearGradient id="e" x1="405.445" x2="405.445" y1="0" y2="140" gradientUnits="userSpaceOnUse"><stop stop-color="#C89336"/><stop offset=".04" stop-color="#B5881B"/><stop offset=".136" stop-color="#CD961E"/><stop offset=".167" stop-color="#FDE7BA"/><stop offset=".329" stop-color="#FFDD9D"/><stop offset=".361" stop-color="#E4AB2E"/><stop offset=".497" stop-color="#4E3207"/><stop offset=".657" stop-color="#55370B"/><stop offset=".695" stop-color="#724B11"/><stop offset=".732" stop-color="#B18503"/><stop offset=".925" stop-color="#C89606"/><stop offset=".958" stop-color="#AB7317"/></linearGradient><linearGradient id="f" x1="79.285" x2="89.437" y1="135.139" y2="135.139" gradientUnits="userSpaceOnUse"><stop offset="0" stop-color="#9F5D14"/><stop offset=".037" stop-color="#9C5B13"/><stop offset=".384" stop-color="#85500D"/><stop offset=".712" stop-color="#784809"/><stop offset="1" stop-color="#734608"/></linearGradient><linearGradient id="g" x1="89.371" x2="502.811" y1="135.005" y2="135.005" gradientUnits="userSpaceOnUse"><stop stop-color="#805600"/><stop offset="1" stop-color="#805600"/></linearGradient><linearGradient id="h" x1="78.084" x2="83.167" y1="130.56" y2="136.478" gradientUnits="userSpaceOnUse"><stop stop-color="#A47F14"/><stop offset=".007" stop-color="#A58016"/><stop offset=".504" stop-color="#D5C492"/><stop offset=".845" stop-color="#F3EEE0"/><stop offset="1" stop-color="#fff"/></linearGradient><linearGradient id="i" x1="78.493" x2="96.095" y1="6.502" y2="6.502" gradientUnits="userSpaceOnUse"><stop offset="0" stop-color="#B27025"/><stop offset="1" stop-color="#966101"/></linearGradient><linearGradient id="j" x1="76.442" x2="82.576" y1="12.271" y2="2.929" gradientUnits="userSpaceOnUse"><stop stop-color="#A47F14"/><stop offset=".007" stop-color="#A58016"/><stop offset=".504" stop-color="#D5C492"/><stop offset=".845" stop-color="#F3EEE0"/><stop offset="1" stop-color="#fff"/></linearGradient><linearGradient id="k" x1="70.877" x2="70.877" y1="4.815" y2="135.064" gradientUnits="userSpaceOnUse"><stop stop-color="#A87504"/><stop offset="1" stop-color="#6E4101"/></linearGradient><linearGradient id="l" x1="821.159" x2="821.159" y1="4.551" y2="135.323" gradientUnits="userSpaceOnUse"><stop stop-color="#E6AD00"/><stop offset="1" stop-color="#A36A11"/></linearGradient><radialGradient id="a" cx="0" cy="0" r="1" gradientTransform="matrix(.28572 40.8843 -20.87719 .1459 13.714 70.137)" gradientUnits="userSpaceOnUse"><stop offset=".424" stop-color="#4A3001"/><stop offset=".737" stop-color="#A77828"/><stop offset=".879" stop-color="#FFBB47"/></radialGradient><radialGradient id="c" cx="0" cy="0" r="1" gradientTransform="rotate(90.4 404.319 471.153) scale(40.8853 20.8777)" gradientUnits="userSpaceOnUse"><stop offset=".424" stop-color="#4A3001"/><stop offset=".737" stop-color="#A77828"/><stop offset=".879" stop-color="#FFBB47"/></radialGradient></defs></svg>