<svg xmlns="http://www.w3.org/2000/svg" width="146" height="140" fill="none"><g filter="url(#a)" opacity=".8"><path fill="#180036" d="M7.917 14.208c.33-2.994 1.533-6.332 4.526-6.677C19.03 6.771 35.063 6 73 6c37.843 0 53.89.767 60.508 1.525 3.012.346 4.265 3.714 4.606 6.727 1.047 9.27 2.788 30.28 1.325 58.748-1.551 30.162-3.705 48.362-4.601 55.061-.249 1.86-1.232 3.596-3.08 3.921C126.784 132.857 112.691 134 73 134c-39.797 0-53.86-1.149-58.798-2.025-1.824-.324-2.778-2.047-3.013-3.885-.88-6.879-3.062-25.798-4.628-55.09-1.478-27.646.313-49.314 1.356-58.792Z"/></g><path fill="url(#b)" d="M7.917 12.208c.33-2.994 1.533-6.332 4.526-6.677C19.03 4.771 35.063 4 73 4c37.843 0 53.89.767 60.508 1.525 3.012.346 4.265 3.714 4.606 6.727 1.047 9.27 2.788 30.28 1.325 58.748-1.551 30.162-3.705 48.362-4.601 55.061-.249 1.86-1.232 3.596-3.08 3.921C126.784 130.857 112.691 132 73 132c-39.797 0-53.86-1.149-58.798-2.025-1.824-.324-2.778-2.047-3.013-3.885-.88-6.879-3.062-25.798-4.628-55.09-1.478-27.646.313-49.314 1.356-58.792Z"/><path fill="url(#c)" d="M9.173 11.395c.36-2.622 2.505-4.537 5.144-4.731C24.959 5.88 52.534 4 72 4c19.638 0 48.804 1.914 59.75 2.684 2.609.184 4.736 2.05 5.103 4.638 1.05 7.39 2.689 24.641 1.258 54.678-1.481 31.075-3.51 48.464-4.465 55.408-.306 2.219-1.893 3.937-4.11 4.257C123.4 126.548 107.862 128 72 128c-35.438 0-50.085-1.418-55.78-2.304-2.085-.324-3.527-1.964-3.805-4.056-.928-6.986-3.013-25.03-4.525-55.64-1.443-29.202.234-46.966 1.283-54.605Z"/><path fill="url(#d)" d="M73 120c23.882 0 29.821-1.905 47-2 0 0-.5 4-47 4s-47-4-47-4c17.179.095 23.118 2 47 2Z" style="mix-blend-mode:screen"/><path fill="url(#e)" d="M9.993 13.316c.383-2.588 2.547-4.437 5.157-4.608C26.655 7.954 57.928 6 73 6c15.086 0 46.402 1.958 57.881 2.71 2.594.17 4.75 2.001 5.135 4.572.917 6.115 1.968 18.226-.796 32.718 1.633-17.127-2.061-28.268-3.48-31.794-.324-.806-.907-1.446-1.735-1.71C126.623 11.423 114.407 9 73 9c-41.224 0-53.514 2.4-56.96 3.483-.86.27-1.458.937-1.785 1.777C12.833 17.908 9.149 29.3 10.78 46c-2.774-14.198-1.705-26.476-.787-32.684Z" style="mix-blend-mode:screen"/><path fill="url(#f)" d="M16.234 16.896c.343-1.847 1.708-3.204 3.561-3.508C25.136 12.51 39.234 11 73 11c33.434 0 47.585 1.48 53.045 2.362 1.945.313 3.342 1.78 3.608 3.732.759 5.569 1.891 19.545.458 48.906-1.349 27.632-2.699 41.638-3.435 47.834-.299 2.512-1.993 4.796-4.512 5.042C116.653 119.414 103.622 120 73 120c-30.14 0-43.238-.568-48.898-1.099-2.642-.247-4.595-2.668-5.011-5.289C18.06 107.127 16.245 92.76 14.89 66c-1.472-29.046.302-43.492 1.344-49.104Z"/><mask id="h" width="116" height="105" x="14" y="11" maskUnits="userSpaceOnUse" style="mask-type:alpha"><path fill="url(#g)" d="M15.737 19.366a5.932 5.932 0 0 1 5.494-5.774C32.29 12.772 57.904 11 72.89 11c14.912 0 40.349 1.754 51.494 2.58 3.12.231 5.506 2.828 5.506 5.956V66c0 13.456-3.353 33.617-5.046 42.939-.53 2.917-2.628 5.84-5.582 6.088-5.838.491-18.633.973-46.372.973-27.451 0-40.267-.472-46.188-.958-3.036-.248-5.335-3.268-5.972-6.246C18.74 99.498 14.89 79.723 14.89 66c0-13.946.568-36.416.848-46.633Z"/></mask><g filter="url(#i)" mask="url(#h)"><ellipse cx="73" cy="125.5" fill="#01A406" rx="57" ry="23.5"/></g><path fill="url(#j)" d="M19.436 19.944c.233-1.236 1.156-2.144 2.393-2.371C26.332 16.744 39.76 15 73 15c32.782 0 46.295 1.697 50.981 2.538 1.339.24 2.33 1.252 2.555 2.594.79 4.69 2.334 17.796 1.575 45.868-.839 30.976-6.584 44.43-8.433 47.99-.352.677-.948 1.141-1.699 1.281C115.033 115.817 104.963 117 73 117c-32.236 0-42.806-1.203-45.925-1.743a2.435 2.435 0 0 1-1.786-1.301c-1.723-3.35-6.579-15.569-7.4-47.956-.75-29.629.75-41.815 1.547-46.056Z" opacity=".66" style="mix-blend-mode:screen"/><g filter="url(#k)" opacity=".47" style="mix-blend-mode:screen"><ellipse cx="73" cy="22.5" fill="#77FF7B" rx="54" ry="6.5"/></g><defs><linearGradient id="b" x1="-52" x2="-52" y1="4" y2="87" gradientUnits="userSpaceOnUse"><stop stop-color="#FDC00F"/><stop offset="1" stop-color="#955C1A"/></linearGradient><linearGradient id="c" x1="-52" x2="-52" y1="4" y2="87" gradientUnits="userSpaceOnUse"><stop stop-color="#FDC00F"/><stop offset="1" stop-color="#E9BA02"/></linearGradient><linearGradient id="d" x1="-52" x2="-52" y1="44" y2="127" gradientUnits="userSpaceOnUse"><stop stop-color="#FDC00F"/><stop offset="1" stop-color="#E9BA02"/></linearGradient><linearGradient id="e" x1="-52" x2="-52" y1="4" y2="87" gradientUnits="userSpaceOnUse"><stop stop-color="#FFD866"/><stop offset="1" stop-color="#FFD73B"/></linearGradient><linearGradient id="f" x1="-52" x2="-52" y1="9" y2="82" gradientUnits="userSpaceOnUse"><stop stop-color="#004A02"/><stop offset="1" stop-color="#008C05"/></linearGradient><linearGradient id="g" x1="-52.111" x2="-52.111" y1="9" y2="82" gradientUnits="userSpaceOnUse"><stop stop-color="#006403"/><stop offset="1" stop-color="#009A05"/></linearGradient><linearGradient id="j" x1="-52" x2="-52" y1="9" y2="82" gradientUnits="userSpaceOnUse"><stop stop-color="#009A05"/><stop offset=".485" stop-color="#006403" stop-opacity="0"/></linearGradient><filter id="a" width="146" height="140" x="0" y="0" color-interpolation-filters="sRGB" filterUnits="userSpaceOnUse"><feFlood flood-opacity="0" result="BackgroundImageFix"/><feBlend in="SourceGraphic" in2="BackgroundImageFix" result="shape"/><feGaussianBlur result="effect1_foregroundBlur_2001_23968" stdDeviation="3"/></filter><filter id="i" width="129" height="62" x="8.5" y="94.5" color-interpolation-filters="sRGB" filterUnits="userSpaceOnUse"><feFlood flood-opacity="0" result="BackgroundImageFix"/><feBlend in="SourceGraphic" in2="BackgroundImageFix" result="shape"/><feGaussianBlur result="effect1_foregroundBlur_2001_23968" stdDeviation="3.75"/></filter><filter id="k" width="123" height="28" x="11.5" y="8.5" color-interpolation-filters="sRGB" filterUnits="userSpaceOnUse"><feFlood flood-opacity="0" result="BackgroundImageFix"/><feBlend in="SourceGraphic" in2="BackgroundImageFix" result="shape"/><feGaussianBlur result="effect1_foregroundBlur_2001_23968" stdDeviation="3.75"/></filter></defs></svg>