<svg xmlns="http://www.w3.org/2000/svg" width="1052" height="467" fill="none"><path fill="url(#a)" d="M.316 7.767H1051.73s-105.876-9.541-105.876 114.5v353.957H106.191V122.267C106.191-1.774.316 7.767.316 7.767Z"/><path fill="url(#b)" d="M.316 7.767H1051.73s-105.876-9.541-105.876 114.5v353.957H106.191V122.267C106.191-1.774.316 7.767.316 7.767Z"/><g filter="url(#c)" opacity=".65"><path stroke="#280004" stroke-width="9.542" d="M29.858 7.768s76.333 9.541 76.333 133.582v334.874"/></g><path stroke="url(#d)" stroke-width="9.542" d="M27.95 7.768s76.333 9.541 76.333 133.582v334.874"/><path stroke="url(#e)" stroke-width="9.542" d="M16.5 7.768s80.15 9.541 80.15 133.582v334.874"/><path stroke="url(#f)" stroke-width="1.908" d="M21.271 7.768s80.15 9.541 80.15 133.582v334.874"/><g filter="url(#g)" opacity=".65"><path stroke="#280004" stroke-width="9.542" d="M1023.14 7.768s-76.331 9.541-76.331 133.582v334.874"/></g><path stroke="url(#h)" stroke-width="9.542" d="M1025.05 7.768s-76.333 9.541-76.333 133.582v334.874"/><path stroke="url(#i)" stroke-width="9.542" d="M1036.5 7.768s-80.15 9.541-80.15 133.582v334.874"/><path stroke="url(#j)" stroke-width="1.908" d="M1031.73 7.768s-80.151 9.541-80.151 133.582v334.874"/><defs><linearGradient id="b" x1="526.023" x2="526.023" y1="7.767" y2="94.119" gradientUnits="userSpaceOnUse"><stop stop-color="#1C003B"/><stop offset="1" stop-color="#2C0042" stop-opacity="0"/></linearGradient><linearGradient id="d" x1="75.658" x2="75.658" y1="-12.747" y2="456.224" gradientUnits="userSpaceOnUse"><stop stop-color="#280004"/><stop offset="1" stop-color="#DE0019"/></linearGradient><linearGradient id="e" x1="68.025" x2="68.025" y1="-12.747" y2="456.224" gradientUnits="userSpaceOnUse"><stop stop-color="#540009"/><stop offset="1" stop-color="#B50014"/></linearGradient><linearGradient id="f" x1="72.796" x2="72.796" y1="-12.747" y2="456.224" gradientUnits="userSpaceOnUse"><stop stop-color="#540009"/><stop offset="1" stop-color="#FF001C"/></linearGradient><linearGradient id="h" x1="977.342" x2="977.342" y1="-12.747" y2="456.224" gradientUnits="userSpaceOnUse"><stop stop-color="#280004"/><stop offset="1" stop-color="#DE0019"/></linearGradient><linearGradient id="i" x1="984.975" x2="984.975" y1="-12.747" y2="456.224" gradientUnits="userSpaceOnUse"><stop stop-color="#540009"/><stop offset="1" stop-color="#B50014"/></linearGradient><linearGradient id="j" x1="980.204" x2="980.204" y1="-12.747" y2="456.224" gradientUnits="userSpaceOnUse"><stop stop-color="#540009"/><stop offset="1" stop-color="#FF001C"/></linearGradient><filter id="c" width="86.101" height="477.579" x="27.056" y=".84" color-interpolation-filters="sRGB" filterUnits="userSpaceOnUse"><feFlood flood-opacity="0" result="BackgroundImageFix"/><feBlend in="SourceGraphic" in2="BackgroundImageFix" result="shape"/><feGaussianBlur result="effect1_foregroundBlur_715_31664" stdDeviation="1.097"/></filter><filter id="g" width="86.101" height="477.579" x="939.843" y=".84" color-interpolation-filters="sRGB" filterUnits="userSpaceOnUse"><feFlood flood-opacity="0" result="BackgroundImageFix"/><feBlend in="SourceGraphic" in2="BackgroundImageFix" result="shape"/><feGaussianBlur result="effect1_foregroundBlur_715_31664" stdDeviation="1.097"/></filter><radialGradient id="a" cx="0" cy="0" r="1" gradientTransform="matrix(0 233.929 -1085.68 0 512.651 242.014)" gradientUnits="userSpaceOnUse"><stop stop-color="#652CAE"/><stop offset="1" stop-color="#490A8B"/></radialGradient></defs></svg>