<svg width="380" height="90" viewBox="0 0 380 90" fill="none" xmlns="http://www.w3.org/2000/svg">
<path d="M0.987049 8.88344C0.460501 4.14451 4.17003 0 8.93812 0H371.051C375.823 0 379.534 4.15106 379.001 8.89326L370.896 81.0272C370.385 85.5708 366.549 89.0096 361.977 89.0223L18.0779 89.9776C13.4824 89.9903 9.61543 86.5389 9.10794 81.9715L0.987049 8.88344Z" fill="#8A4500"/>
<path d="M1.03768 8.92402C0.485072 4.17162 4.19971 0 8.98413 0H371.016C375.8 0 379.515 4.1716 378.962 8.92401L370.823 78.924C370.354 82.9576 366.937 86 362.876 86H17.1236C13.0628 86 9.64624 82.9576 9.17721 78.924L1.03768 8.92402Z" fill="url(#paint0_linear_2001_9747)"/>
<g style="mix-blend-mode:multiply" opacity="0.58" filter="url(#filter0_f_2001_9747)">
<path d="M8.05732 10.1906C7.94243 9.29385 8.64107 8.5 9.54516 8.5H370.455C371.359 8.5 372.058 9.29386 371.943 10.1906L363.231 78.1906C363.135 78.9392 362.498 79.5 361.743 79.5H18.2571C17.5023 79.5 16.8651 78.9392 16.7692 78.1906L8.05732 10.1906Z" stroke="url(#paint1_linear_2001_9747)" stroke-width="5"/>
</g>
<path d="M5.50756 8.40427C5.26579 6.32508 6.89096 4.5 8.98413 4.5H371.016C373.109 4.5 374.734 6.32507 374.492 8.40425L366.353 78.4042C366.148 80.169 364.653 81.5 362.876 81.5H17.1236C15.3471 81.5 13.8523 80.169 13.6471 78.4043L5.50756 8.40427Z" stroke="url(#paint2_linear_2001_9747)" stroke-width="9"/>
<path d="M4.0176 8.57752C3.67222 5.60726 5.99388 3 8.98413 3H371.016C374.006 3 376.328 5.60725 375.982 8.5775L367.843 78.5775C367.55 81.0985 365.414 83 362.876 83H17.1236C14.5857 83 12.4503 81.0985 12.1571 78.5775L4.0176 8.57752Z" stroke="url(#paint3_linear_2001_9747)" stroke-width="6"/>
<g filter="url(#filter1_f_2001_9747)">
<path d="M3.69993 8.61813C3.32822 5.63453 5.6549 3 8.66157 3H371.338C374.345 3 376.672 5.63454 376.3 8.61814L367.704 77.6182C367.392 80.1212 365.265 82 362.742 82H17.2578C14.7355 82 12.608 80.1212 12.2962 77.6181L3.69993 8.61813Z" stroke="url(#paint4_linear_2001_9747)" stroke-width="3"/>
</g>
<g filter="url(#filter2_f_2001_9747)">
<path d="M3.69993 8.61813C3.32822 5.63453 5.6549 3 8.66157 3H371.338C374.345 3 376.672 5.63454 376.3 8.61814L367.704 77.6182C367.392 80.1212 365.265 82 362.742 82H17.2578C14.7355 82 12.608 80.1212 12.2962 77.6181L3.69993 8.61813Z" stroke="url(#paint5_linear_2001_9747)"/>
</g>
<defs>
<filter id="filter0_f_2001_9747" x="1.54443" y="2" width="376.911" height="84" filterUnits="userSpaceOnUse" color-interpolation-filters="sRGB">
<feFlood flood-opacity="0" result="BackgroundImageFix"/>
<feBlend mode="normal" in="SourceGraphic" in2="BackgroundImageFix" result="shape"/>
<feGaussianBlur stdDeviation="2" result="effect1_foregroundBlur_2001_9747"/>
</filter>
<filter id="filter1_f_2001_9747" x="0.960644" y="0.3" width="378.079" height="84.4" filterUnits="userSpaceOnUse" color-interpolation-filters="sRGB">
<feFlood flood-opacity="0" result="BackgroundImageFix"/>
<feBlend mode="normal" in="SourceGraphic" in2="BackgroundImageFix" result="shape"/>
<feGaussianBlur stdDeviation="0.6" result="effect1_foregroundBlur_2001_9747"/>
</filter>
<filter id="filter2_f_2001_9747" x="2.46064" y="1.8" width="375.079" height="81.4" filterUnits="userSpaceOnUse" color-interpolation-filters="sRGB">
<feFlood flood-opacity="0" result="BackgroundImageFix"/>
<feBlend mode="normal" in="SourceGraphic" in2="BackgroundImageFix" result="shape"/>
<feGaussianBlur stdDeviation="0.35" result="effect1_foregroundBlur_2001_9747"/>
</filter>
<linearGradient id="paint0_linear_2001_9747" x1="190" y1="0" x2="190" y2="86" gradientUnits="userSpaceOnUse">
<stop stop-color="#FFF8BF"/>
<stop offset="1" stop-color="#FCF191"/>
</linearGradient>
<linearGradient id="paint1_linear_2001_9747" x1="190" y1="6" x2="190" y2="82" gradientUnits="userSpaceOnUse">
<stop stop-color="#966905"/>
<stop offset="1" stop-color="#C09407"/>
</linearGradient>
<linearGradient id="paint2_linear_2001_9747" x1="190" y1="0" x2="190" y2="86" gradientUnits="userSpaceOnUse">
<stop stop-color="#BC8307"/>
<stop offset="1" stop-color="#FFD95E"/>
</linearGradient>
<linearGradient id="paint3_linear_2001_9747" x1="190" y1="0" x2="190" y2="86" gradientUnits="userSpaceOnUse">
<stop stop-color="#F6C424"/>
<stop offset="1" stop-color="#E8A208"/>
</linearGradient>
<linearGradient id="paint4_linear_2001_9747" x1="190" y1="3" x2="190" y2="82" gradientUnits="userSpaceOnUse">
<stop stop-color="#FFEAA6"/>
<stop offset="1" stop-color="#FFC340"/>
</linearGradient>
<linearGradient id="paint5_linear_2001_9747" x1="190" y1="3" x2="190" y2="82" gradientUnits="userSpaceOnUse">
<stop stop-color="#FFF2C8"/>
<stop offset="1" stop-color="#FFC340"/>
</linearGradient>
</defs>
</svg>
