<svg width="209" height="627" fill="none" xmlns="http://www.w3.org/2000/svg"><path d="M22.15 52c0-16.569 13.43-30 30-30H158c16.569 0 30 13.431 30 30v259.5l-2.826 259.826C184.995 587.767 171.617 601 155.175 601H49.328c-16.696 0-30.18-13.631-29.998-30.326L22.15 311.5V52z" fill="url(#a)"/><g filter="url(#b)"><path d="M25.885 313.061V56c0-18.778 15.223-34 34-34H153c18.778 0 34 15.222 34 34v257.003l-2.501 258.326C184.318 589.978 169.149 605 150.5 605H57.39c-18.907 0-34.182-15.424-34-34.329l2.495-257.61z" stroke="#000" stroke-opacity=".55" stroke-width="12"/></g><path d="M195 311.573V42c0-14.912-12.088-27-27-27H37c-14.912 0-27 12.088-27 27v269.5L7.21 580.72C7.054 595.74 19.187 608 34.208 608h130.998c14.803 0 26.845-11.918 26.999-26.72L195 311.573z" stroke="url(#c)" stroke-width="14"/><path d="M189 311.573V42c0-14.912-12.088-27-27-27H50c-14.912 0-27 12.088-27 27v269.5l-2.79 269.22C20.054 595.74 32.187 608 47.208 608h111.998c14.803 0 26.845-11.918 26.999-26.72L189 311.573z" stroke="url(#d)" stroke-width="14"/><path d="M195 311.573V42c0-14.912-12.088-27-27-27H50c-14.912 0-27 12.088-27 27v269.5l-2.79 269.22C20.054 595.74 32.187 608 47.208 608h117.998c14.803 0 26.845-11.918 26.999-26.72L195 311.573z" stroke="url(#e)" stroke-width="14"/><path d="M201 311.51V38c0-16.016-12.984-29-29-29H46C29.984 9 17 21.984 17 38v273.5l-3.556 268.049C13.192 598.501 28.487 614 47.44 614h121.836c15.904 0 28.841-12.809 28.999-28.711L201 311.51z" stroke="url(#f)" stroke-width="2"/><defs><linearGradient id="a" x1="122.919" y1="-68.5" x2="122.919" y2="601" gradientUnits="userSpaceOnUse"><stop stop-color="#4A0093"/><stop offset="1" stop-color="#120041"/></linearGradient><linearGradient id="c" x1="101" y1="-17" x2="16.69" y2="588.637" gradientUnits="userSpaceOnUse"><stop stop-color="#FF5353"/><stop offset=".31" stop-color="#5F0002"/></linearGradient><linearGradient id="d" x1="107.5" y1="-22.624" x2="15.463" y2="587.107" gradientUnits="userSpaceOnUse"><stop stop-color="#5E0002"/><stop offset="1" stop-color="#C7282B"/></linearGradient><linearGradient id="e" x1="105.5" y1="-19.881" x2="16.371" y2="587.93" gradientUnits="userSpaceOnUse"><stop stop-color="#FF0C10"/><stop offset="1" stop-color="#7A0002"/></linearGradient><linearGradient id="f" x1="107.5" y1="-18" x2="16.793" y2="587.409" gradientUnits="userSpaceOnUse"><stop stop-color="#FF5A5D"/><stop offset="1" stop-color="#6D0001"/></linearGradient><filter id="b" x="1.989" y=".6" width="206.411" height="625.8" filterUnits="userSpaceOnUse" color-interpolation-filters="sRGB"><feFlood flood-opacity="0" result="BackgroundImageFix"/><feBlend in="SourceGraphic" in2="BackgroundImageFix" result="shape"/><feGaussianBlur stdDeviation="7.7" result="effect1_foregroundBlur_2001_10401"/></filter></defs></svg>