<svg width="508" height="561" viewBox="0 0 508 561" fill="none" xmlns="http://www.w3.org/2000/svg">
<path d="M82.3661 4.92217C82.3661 7.49419 80.2785 9.58181 77.7065 9.58181C75.1345 9.58181 73.0469 7.49419 73.0469 4.92217C73.0469 2.35015 75.1345 0.262573 77.7065 0.262573C80.2785 0.262573 82.3661 2.35015 82.3661 4.92217Z" fill="url(#paint0_radial_2001_15867)"/>
<path d="M52.4477 4.92217C52.4477 7.49419 50.3601 9.58181 47.7881 9.58181C45.216 9.58181 43.1284 7.49419 43.1284 4.92217C43.1284 2.35015 45.216 0.262573 47.7881 0.262573C50.3601 0.262573 52.4477 2.35015 52.4477 4.92217Z" fill="url(#paint1_radial_2001_15867)"/>
<path d="M182.675 4.92217C182.675 7.49419 180.588 9.58181 178.016 9.58181C175.444 9.58181 173.356 7.49419 173.356 4.92217C173.356 2.35015 175.444 0.262573 178.016 0.262573C180.588 0.262573 182.675 2.35015 182.675 4.92217Z" fill="url(#paint2_radial_2001_15867)"/>
<path d="M152.757 4.92217C152.757 7.49419 150.669 9.58181 148.097 9.58181C145.525 9.58181 143.438 7.49419 143.438 4.92217C143.438 2.35015 145.525 0.262573 148.097 0.262573C150.669 0.262573 152.757 2.35015 152.757 4.92217Z" fill="url(#paint3_radial_2001_15867)"/>
<path d="M272.984 4.92217C272.984 7.49419 270.897 9.58181 268.325 9.58181C265.753 9.58181 263.665 7.49419 263.665 4.92217C263.665 2.35015 265.753 0.262573 268.325 0.262573C270.897 0.262573 272.984 2.35015 272.984 4.92217Z" fill="url(#paint4_radial_2001_15867)"/>
<path d="M243.066 4.92217C243.066 7.49419 240.978 9.58181 238.406 9.58181C235.834 9.58181 233.747 7.49419 233.747 4.92217C233.747 2.35015 235.834 0.262573 238.406 0.262573C240.978 0.262573 243.066 2.35015 243.066 4.92217Z" fill="url(#paint5_radial_2001_15867)"/>
<path d="M363.293 4.92217C363.293 7.49419 361.206 9.58181 358.634 9.58181C356.062 9.58181 353.974 7.49419 353.974 4.92217C353.974 2.35015 356.062 0.262573 358.634 0.262573C361.206 0.262573 363.293 2.35015 363.293 4.92217Z" fill="url(#paint6_radial_2001_15867)"/>
<path d="M333.375 4.92217C333.375 7.49419 331.287 9.58181 328.715 9.58181C326.143 9.58181 324.056 7.49419 324.056 4.92217C324.056 2.35015 326.143 0.262573 328.715 0.262573C331.287 0.262573 333.375 2.35015 333.375 4.92217Z" fill="url(#paint7_radial_2001_15867)"/>
<path d="M463.602 4.92217C463.602 7.49419 461.515 9.58181 458.943 9.58181C456.371 9.58181 454.283 7.49419 454.283 4.92217C454.283 2.35015 456.371 0.262573 458.943 0.262573C461.515 0.262573 463.602 2.35015 463.602 4.92217Z" fill="url(#paint8_radial_2001_15867)"/>
<path d="M433.684 4.92217C433.684 7.49419 431.596 9.58181 429.024 9.58181C426.452 9.58181 424.365 7.49419 424.365 4.92217C424.365 2.35015 426.452 0.262573 429.024 0.262573C431.596 0.262573 433.684 2.35015 433.684 4.92217Z" fill="url(#paint9_radial_2001_15867)"/>
<path d="M4.77204 154.872C2.20002 154.872 0.112407 152.784 0.112407 150.212C0.112408 147.64 2.20002 145.553 4.77204 145.553C7.34406 145.553 9.43164 147.64 9.43164 150.212C9.43164 152.784 7.34406 154.872 4.77204 154.872Z" fill="url(#paint10_radial_2001_15867)"/>
<path d="M4.77204 124.953C2.20002 124.953 0.112407 122.866 0.112407 120.294C0.112408 117.722 2.20002 115.634 4.77204 115.634C7.34406 115.634 9.43164 117.722 9.43164 120.294C9.43164 122.866 7.34406 124.953 4.77204 124.953Z" fill="url(#paint11_radial_2001_15867)"/>
<path d="M502.916 154.872C500.344 154.872 498.256 152.784 498.256 150.212C498.256 147.64 500.344 145.553 502.916 145.553C505.488 145.553 507.575 147.64 507.575 150.212C507.575 152.784 505.488 154.872 502.916 154.872Z" fill="url(#paint12_radial_2001_15867)"/>
<path d="M502.916 124.953C500.344 124.953 498.256 122.866 498.256 120.294C498.256 117.722 500.344 115.634 502.916 115.634C505.488 115.634 507.575 117.722 507.575 120.294C507.575 122.866 505.488 124.953 502.916 124.953Z" fill="url(#paint13_radial_2001_15867)"/>
<path d="M4.77351 65.2552C2.20149 65.2552 0.113872 63.1676 0.113872 60.5955C0.113872 58.0235 2.20149 55.9359 4.77351 55.9359C7.34553 55.9359 9.43311 58.0235 9.43311 60.5955C9.43311 63.1676 7.34553 65.2552 4.77351 65.2552Z" fill="url(#paint14_radial_2001_15867)"/>
<path d="M502.916 65.2552C500.344 65.2552 498.256 63.1676 498.256 60.5955C498.256 58.0235 500.344 55.9359 502.916 55.9359C505.488 55.9359 507.575 58.0235 507.575 60.5955C507.575 63.1676 505.488 65.2552 502.916 65.2552Z" fill="url(#paint15_radial_2001_15867)"/>
<path d="M4.8072 246.335C2.23518 246.335 0.147564 244.247 0.147564 241.675C0.147564 239.103 2.23518 237.015 4.8072 237.015C7.37922 237.015 9.4668 239.103 9.4668 241.675C9.4668 244.247 7.37922 246.335 4.8072 246.335Z" fill="url(#paint16_radial_2001_15867)"/>
<path d="M4.8072 216.416C2.23518 216.416 0.147564 214.329 0.147564 211.757C0.147564 209.185 2.23518 207.097 4.8072 207.097C7.37922 207.097 9.4668 209.185 9.4668 211.757C9.4668 214.329 7.37922 216.416 4.8072 216.416Z" fill="url(#paint17_radial_2001_15867)"/>
<path d="M502.95 246.335C500.378 246.335 498.29 244.247 498.29 241.675C498.29 239.103 500.378 237.015 502.95 237.015C505.522 237.015 507.609 239.103 507.609 241.675C507.609 244.247 505.522 246.335 502.95 246.335Z" fill="url(#paint18_radial_2001_15867)"/>
<path d="M502.95 216.416C500.378 216.416 498.29 214.329 498.29 211.757C498.29 209.185 500.378 207.097 502.95 207.097C505.522 207.097 507.609 209.185 507.609 211.757C507.609 214.329 505.522 216.416 502.95 216.416Z" fill="url(#paint19_radial_2001_15867)"/>
<path d="M4.84138 337.797C2.26936 337.797 0.181743 335.71 0.181743 333.138C0.181744 330.566 2.26936 328.478 4.84138 328.478C7.4134 328.478 9.50098 330.566 9.50098 333.138C9.50098 335.71 7.4134 337.797 4.84138 337.797Z" fill="url(#paint20_radial_2001_15867)"/>
<path d="M4.84138 307.879C2.26936 307.879 0.181743 305.791 0.181743 303.219C0.181744 300.647 2.26936 298.56 4.84138 298.56C7.4134 298.56 9.50098 300.647 9.50098 303.219C9.50098 305.791 7.4134 307.879 4.84138 307.879Z" fill="url(#paint21_radial_2001_15867)"/>
<path d="M4.84138 426.236C2.26936 426.236 0.181743 424.148 0.181743 421.576C0.181744 419.004 2.26936 416.916 4.84138 416.916C7.4134 416.916 9.50098 419.004 9.50098 421.576C9.50098 424.148 7.4134 426.236 4.84138 426.236Z" fill="url(#paint22_radial_2001_15867)"/>
<path d="M4.84138 396.317C2.26936 396.317 0.181743 394.23 0.181743 391.658C0.181744 389.086 2.26936 386.998 4.84138 386.998C7.4134 386.998 9.50098 389.086 9.50098 391.658C9.50098 394.23 7.4134 396.317 4.84138 396.317Z" fill="url(#paint23_radial_2001_15867)"/>
<path d="M4.84138 517.236C2.26936 517.236 0.181743 515.148 0.181743 512.576C0.181744 510.004 2.26936 507.916 4.84138 507.916C7.4134 507.916 9.50098 510.004 9.50098 512.576C9.50098 515.148 7.4134 517.236 4.84138 517.236Z" fill="url(#paint24_radial_2001_15867)"/>
<path d="M4.84138 487.317C2.26936 487.317 0.181743 485.23 0.181743 482.658C0.181744 480.086 2.26936 477.998 4.84138 477.998C7.4134 477.998 9.50098 480.086 9.50098 482.658C9.50098 485.23 7.4134 487.317 4.84138 487.317Z" fill="url(#paint25_radial_2001_15867)"/>
<path d="M502.985 337.797C500.413 337.797 498.325 335.71 498.325 333.138C498.325 330.566 500.413 328.478 502.985 328.478C505.557 328.478 507.645 330.566 507.645 333.138C507.645 335.71 505.557 337.797 502.985 337.797Z" fill="url(#paint26_radial_2001_15867)"/>
<path d="M502.985 307.879C500.413 307.879 498.325 305.791 498.325 303.219C498.325 300.647 500.413 298.56 502.985 298.56C505.557 298.56 507.645 300.647 507.645 303.219C507.645 305.791 505.557 307.879 502.985 307.879Z" fill="url(#paint27_radial_2001_15867)"/>
<path d="M502.985 426.236C500.413 426.236 498.325 424.148 498.325 421.576C498.325 419.004 500.413 416.916 502.985 416.916C505.557 416.916 507.645 419.004 507.645 421.576C507.645 424.148 505.557 426.236 502.985 426.236Z" fill="url(#paint28_radial_2001_15867)"/>
<path d="M502.985 396.317C500.413 396.317 498.325 394.23 498.325 391.658C498.325 389.086 500.413 386.998 502.985 386.998C505.557 386.998 507.645 389.086 507.645 391.658C507.645 394.23 505.557 396.317 502.985 396.317Z" fill="url(#paint29_radial_2001_15867)"/>
<path d="M502.985 517.236C500.413 517.236 498.325 515.148 498.325 512.576C498.325 510.004 500.413 507.916 502.985 507.916C505.557 507.916 507.645 510.004 507.645 512.576C507.645 515.148 505.557 517.236 502.985 517.236Z" fill="url(#paint30_radial_2001_15867)"/>
<path d="M502.985 487.317C500.413 487.317 498.325 485.23 498.325 482.658C498.325 480.086 500.413 477.998 502.985 477.998C505.557 477.998 507.645 480.086 507.645 482.658C507.645 485.23 505.557 487.317 502.985 487.317Z" fill="url(#paint31_radial_2001_15867)"/>
<path d="M99.3984 555.51C99.3984 558.082 97.3107 560.17 94.7387 560.17C92.1667 560.17 90.0791 558.082 90.0791 555.51C90.0791 552.938 92.1667 550.851 94.7387 550.851C97.3107 550.851 99.3984 552.938 99.3984 555.51Z" fill="url(#paint32_radial_2001_15867)"/>
<path d="M69.4799 555.51C69.4799 558.082 67.3923 560.17 64.8203 560.17C62.2483 560.17 60.1606 558.082 60.1606 555.51C60.1606 552.938 62.2483 550.851 64.8203 550.851C67.3923 550.851 69.4799 552.938 69.4799 555.51Z" fill="url(#paint33_radial_2001_15867)"/>
<path d="M189.707 555.51C189.707 558.082 187.619 560.17 185.047 560.17C182.475 560.17 180.388 558.082 180.388 555.51C180.388 552.938 182.475 550.851 185.047 550.851C187.619 550.851 189.707 552.938 189.707 555.51Z" fill="url(#paint34_radial_2001_15867)"/>
<path d="M159.788 555.51C159.788 558.082 157.701 560.17 155.129 560.17C152.557 560.17 150.469 558.082 150.469 555.51C150.469 552.938 152.557 550.851 155.129 550.851C157.701 550.851 159.788 552.938 159.788 555.51Z" fill="url(#paint35_radial_2001_15867)"/>
<path d="M280.017 555.51C280.017 558.082 277.929 560.17 275.357 560.17C272.785 560.17 270.697 558.082 270.697 555.51C270.697 552.938 272.785 550.851 275.357 550.851C277.929 550.851 280.017 552.938 280.017 555.51Z" fill="url(#paint36_radial_2001_15867)"/>
<path d="M250.098 555.51C250.098 558.082 248.01 560.17 245.438 560.17C242.866 560.17 240.779 558.082 240.779 555.51C240.779 552.938 242.866 550.851 245.438 550.851C248.01 550.851 250.098 552.938 250.098 555.51Z" fill="url(#paint37_radial_2001_15867)"/>
<path d="M370.326 555.51C370.326 558.082 368.238 560.17 365.666 560.17C363.094 560.17 361.006 558.082 361.006 555.51C361.006 552.938 363.094 550.851 365.666 550.851C368.238 550.851 370.326 552.938 370.326 555.51Z" fill="url(#paint38_radial_2001_15867)"/>
<path d="M340.407 555.51C340.407 558.082 338.32 560.17 335.748 560.17C333.176 560.17 331.088 558.082 331.088 555.51C331.088 552.938 333.176 550.851 335.748 550.851C338.32 550.851 340.407 552.938 340.407 555.51Z" fill="url(#paint39_radial_2001_15867)"/>
<path d="M460.635 555.51C460.635 558.082 458.547 560.17 455.975 560.17C453.403 560.17 451.315 558.082 451.315 555.51C451.315 552.938 453.403 550.851 455.975 550.851C458.547 550.851 460.635 552.938 460.635 555.51Z" fill="url(#paint40_radial_2001_15867)"/>
<path d="M430.716 555.51C430.716 558.082 428.629 560.17 426.057 560.17C423.485 560.17 421.397 558.082 421.397 555.51C421.397 552.938 423.485 550.851 426.057 550.851C428.629 550.851 430.716 552.938 430.716 555.51Z" fill="url(#paint41_radial_2001_15867)"/>
<defs>
<radialGradient id="paint0_radial_2001_15867" cx="0" cy="0" r="1" gradientUnits="userSpaceOnUse" gradientTransform="translate(77.6979 4.92323) scale(4.66378 4.66377)">
<stop stop-color="#FFFFB0"/>
<stop offset="0.1519" stop-color="#FFF591"/>
<stop offset="0.4819" stop-color="#FFDD42"/>
<stop offset="0.743" stop-color="#FFC900"/>
<stop offset="1" stop-color="#FFCE00"/>
</radialGradient>
<radialGradient id="paint1_radial_2001_15867" cx="0" cy="0" r="1" gradientUnits="userSpaceOnUse" gradientTransform="translate(47.7856 4.92323) scale(4.66378 4.66377)">
<stop stop-color="#FFFFB0"/>
<stop offset="0.1519" stop-color="#FFF591"/>
<stop offset="0.4819" stop-color="#FFDD42"/>
<stop offset="0.743" stop-color="#FFC900"/>
<stop offset="1" stop-color="#FFCE00"/>
</radialGradient>
<radialGradient id="paint2_radial_2001_15867" cx="0" cy="0" r="1" gradientUnits="userSpaceOnUse" gradientTransform="translate(178.007 4.92323) scale(4.66378 4.66377)">
<stop stop-color="#FFFFB0"/>
<stop offset="0.1519" stop-color="#FFF591"/>
<stop offset="0.4819" stop-color="#FFDD42"/>
<stop offset="0.743" stop-color="#FFC900"/>
<stop offset="1" stop-color="#FFCE00"/>
</radialGradient>
<radialGradient id="paint3_radial_2001_15867" cx="0" cy="0" r="1" gradientUnits="userSpaceOnUse" gradientTransform="translate(148.095 4.92323) scale(4.66378 4.66377)">
<stop stop-color="#FFFFB0"/>
<stop offset="0.1519" stop-color="#FFF591"/>
<stop offset="0.4819" stop-color="#FFDD42"/>
<stop offset="0.743" stop-color="#FFC900"/>
<stop offset="1" stop-color="#FFCE00"/>
</radialGradient>
<radialGradient id="paint4_radial_2001_15867" cx="0" cy="0" r="1" gradientUnits="userSpaceOnUse" gradientTransform="translate(268.316 4.92323) scale(4.66378 4.66377)">
<stop stop-color="#FFFFB0"/>
<stop offset="0.1519" stop-color="#FFF591"/>
<stop offset="0.4819" stop-color="#FFDD42"/>
<stop offset="0.743" stop-color="#FFC900"/>
<stop offset="1" stop-color="#FFCE00"/>
</radialGradient>
<radialGradient id="paint5_radial_2001_15867" cx="0" cy="0" r="1" gradientUnits="userSpaceOnUse" gradientTransform="translate(238.404 4.92323) scale(4.66378 4.66377)">
<stop stop-color="#FFFFB0"/>
<stop offset="0.1519" stop-color="#FFF591"/>
<stop offset="0.4819" stop-color="#FFDD42"/>
<stop offset="0.743" stop-color="#FFC900"/>
<stop offset="1" stop-color="#FFCE00"/>
</radialGradient>
<radialGradient id="paint6_radial_2001_15867" cx="0" cy="0" r="1" gradientUnits="userSpaceOnUse" gradientTransform="translate(358.625 4.92323) scale(4.66378 4.66377)">
<stop stop-color="#FFFFB0"/>
<stop offset="0.1519" stop-color="#FFF591"/>
<stop offset="0.4819" stop-color="#FFDD42"/>
<stop offset="0.743" stop-color="#FFC900"/>
<stop offset="1" stop-color="#FFCE00"/>
</radialGradient>
<radialGradient id="paint7_radial_2001_15867" cx="0" cy="0" r="1" gradientUnits="userSpaceOnUse" gradientTransform="translate(328.713 4.92323) scale(4.66378 4.66377)">
<stop stop-color="#FFFFB0"/>
<stop offset="0.1519" stop-color="#FFF591"/>
<stop offset="0.4819" stop-color="#FFDD42"/>
<stop offset="0.743" stop-color="#FFC900"/>
<stop offset="1" stop-color="#FFCE00"/>
</radialGradient>
<radialGradient id="paint8_radial_2001_15867" cx="0" cy="0" r="1" gradientUnits="userSpaceOnUse" gradientTransform="translate(458.934 4.92323) scale(4.66378 4.66377)">
<stop stop-color="#FFFFB0"/>
<stop offset="0.1519" stop-color="#FFF591"/>
<stop offset="0.4819" stop-color="#FFDD42"/>
<stop offset="0.743" stop-color="#FFC900"/>
<stop offset="1" stop-color="#FFCE00"/>
</radialGradient>
<radialGradient id="paint9_radial_2001_15867" cx="0" cy="0" r="1" gradientUnits="userSpaceOnUse" gradientTransform="translate(429.022 4.92323) scale(4.66378 4.66377)">
<stop stop-color="#FFFFB0"/>
<stop offset="0.1519" stop-color="#FFF591"/>
<stop offset="0.4819" stop-color="#FFDD42"/>
<stop offset="0.743" stop-color="#FFC900"/>
<stop offset="1" stop-color="#FFCE00"/>
</radialGradient>
<radialGradient id="paint10_radial_2001_15867" cx="0" cy="0" r="1" gradientUnits="userSpaceOnUse" gradientTransform="translate(4.77099 150.204) rotate(90) scale(4.66378 4.66377)">
<stop stop-color="#FFFFB0"/>
<stop offset="0.1519" stop-color="#FFF591"/>
<stop offset="0.4819" stop-color="#FFDD42"/>
<stop offset="0.743" stop-color="#FFC900"/>
<stop offset="1" stop-color="#FFCE00"/>
</radialGradient>
<radialGradient id="paint11_radial_2001_15867" cx="0" cy="0" r="1" gradientUnits="userSpaceOnUse" gradientTransform="translate(4.77099 120.291) rotate(90) scale(4.66378 4.66377)">
<stop stop-color="#FFFFB0"/>
<stop offset="0.1519" stop-color="#FFF591"/>
<stop offset="0.4819" stop-color="#FFDD42"/>
<stop offset="0.743" stop-color="#FFC900"/>
<stop offset="1" stop-color="#FFCE00"/>
</radialGradient>
<radialGradient id="paint12_radial_2001_15867" cx="0" cy="0" r="1" gradientUnits="userSpaceOnUse" gradientTransform="translate(502.915 150.204) rotate(90) scale(4.66378 4.66377)">
<stop stop-color="#FFFFB0"/>
<stop offset="0.1519" stop-color="#FFF591"/>
<stop offset="0.4819" stop-color="#FFDD42"/>
<stop offset="0.743" stop-color="#FFC900"/>
<stop offset="1" stop-color="#FFCE00"/>
</radialGradient>
<radialGradient id="paint13_radial_2001_15867" cx="0" cy="0" r="1" gradientUnits="userSpaceOnUse" gradientTransform="translate(502.915 120.291) rotate(90) scale(4.66378 4.66377)">
<stop stop-color="#FFFFB0"/>
<stop offset="0.1519" stop-color="#FFF591"/>
<stop offset="0.4819" stop-color="#FFDD42"/>
<stop offset="0.743" stop-color="#FFC900"/>
<stop offset="1" stop-color="#FFCE00"/>
</radialGradient>
<radialGradient id="paint14_radial_2001_15867" cx="0" cy="0" r="1" gradientUnits="userSpaceOnUse" gradientTransform="translate(4.77245 60.5869) rotate(90) scale(4.66378 4.66377)">
<stop stop-color="#FFFFB0"/>
<stop offset="0.1519" stop-color="#FFF591"/>
<stop offset="0.4819" stop-color="#FFDD42"/>
<stop offset="0.743" stop-color="#FFC900"/>
<stop offset="1" stop-color="#FFCE00"/>
</radialGradient>
<radialGradient id="paint15_radial_2001_15867" cx="0" cy="0" r="1" gradientUnits="userSpaceOnUse" gradientTransform="translate(502.915 60.5869) rotate(90) scale(4.66378 4.66377)">
<stop stop-color="#FFFFB0"/>
<stop offset="0.1519" stop-color="#FFF591"/>
<stop offset="0.4819" stop-color="#FFDD42"/>
<stop offset="0.743" stop-color="#FFC900"/>
<stop offset="1" stop-color="#FFCE00"/>
</radialGradient>
<radialGradient id="paint16_radial_2001_15867" cx="0" cy="0" r="1" gradientUnits="userSpaceOnUse" gradientTransform="translate(4.80614 241.666) rotate(90) scale(4.66378 4.66377)">
<stop stop-color="#FFFFB0"/>
<stop offset="0.1519" stop-color="#FFF591"/>
<stop offset="0.4819" stop-color="#FFDD42"/>
<stop offset="0.743" stop-color="#FFC900"/>
<stop offset="1" stop-color="#FFCE00"/>
</radialGradient>
<radialGradient id="paint17_radial_2001_15867" cx="0" cy="0" r="1" gradientUnits="userSpaceOnUse" gradientTransform="translate(4.80614 211.754) rotate(90) scale(4.66378 4.66377)">
<stop stop-color="#FFFFB0"/>
<stop offset="0.1519" stop-color="#FFF591"/>
<stop offset="0.4819" stop-color="#FFDD42"/>
<stop offset="0.743" stop-color="#FFC900"/>
<stop offset="1" stop-color="#FFCE00"/>
</radialGradient>
<radialGradient id="paint18_radial_2001_15867" cx="0" cy="0" r="1" gradientUnits="userSpaceOnUse" gradientTransform="translate(502.949 241.666) rotate(90) scale(4.66378 4.66377)">
<stop stop-color="#FFFFB0"/>
<stop offset="0.1519" stop-color="#FFF591"/>
<stop offset="0.4819" stop-color="#FFDD42"/>
<stop offset="0.743" stop-color="#FFC900"/>
<stop offset="1" stop-color="#FFCE00"/>
</radialGradient>
<radialGradient id="paint19_radial_2001_15867" cx="0" cy="0" r="1" gradientUnits="userSpaceOnUse" gradientTransform="translate(502.949 211.754) rotate(90) scale(4.66378 4.66377)">
<stop stop-color="#FFFFB0"/>
<stop offset="0.1519" stop-color="#FFF591"/>
<stop offset="0.4819" stop-color="#FFDD42"/>
<stop offset="0.743" stop-color="#FFC900"/>
<stop offset="1" stop-color="#FFCE00"/>
</radialGradient>
<radialGradient id="paint20_radial_2001_15867" cx="0" cy="0" r="1" gradientUnits="userSpaceOnUse" gradientTransform="translate(4.84032 333.129) rotate(90) scale(4.66378 4.66377)">
<stop stop-color="#FFFFB0"/>
<stop offset="0.1519" stop-color="#FFF591"/>
<stop offset="0.4819" stop-color="#FFDD42"/>
<stop offset="0.743" stop-color="#FFC900"/>
<stop offset="1" stop-color="#FFCE00"/>
</radialGradient>
<radialGradient id="paint21_radial_2001_15867" cx="0" cy="0" r="1" gradientUnits="userSpaceOnUse" gradientTransform="translate(4.84032 303.217) rotate(90) scale(4.66378 4.66377)">
<stop stop-color="#FFFFB0"/>
<stop offset="0.1519" stop-color="#FFF591"/>
<stop offset="0.4819" stop-color="#FFDD42"/>
<stop offset="0.743" stop-color="#FFC900"/>
<stop offset="1" stop-color="#FFCE00"/>
</radialGradient>
<radialGradient id="paint22_radial_2001_15867" cx="0" cy="0" r="1" gradientUnits="userSpaceOnUse" gradientTransform="translate(4.84032 421.567) rotate(90) scale(4.66378 4.66377)">
<stop stop-color="#FFFFB0"/>
<stop offset="0.1519" stop-color="#FFF591"/>
<stop offset="0.4819" stop-color="#FFDD42"/>
<stop offset="0.743" stop-color="#FFC900"/>
<stop offset="1" stop-color="#FFCE00"/>
</radialGradient>
<radialGradient id="paint23_radial_2001_15867" cx="0" cy="0" r="1" gradientUnits="userSpaceOnUse" gradientTransform="translate(4.84032 391.655) rotate(90) scale(4.66378 4.66377)">
<stop stop-color="#FFFFB0"/>
<stop offset="0.1519" stop-color="#FFF591"/>
<stop offset="0.4819" stop-color="#FFDD42"/>
<stop offset="0.743" stop-color="#FFC900"/>
<stop offset="1" stop-color="#FFCE00"/>
</radialGradient>
<radialGradient id="paint24_radial_2001_15867" cx="0" cy="0" r="1" gradientUnits="userSpaceOnUse" gradientTransform="translate(4.84032 512.567) rotate(90) scale(4.66378 4.66377)">
<stop stop-color="#FFFFB0"/>
<stop offset="0.1519" stop-color="#FFF591"/>
<stop offset="0.4819" stop-color="#FFDD42"/>
<stop offset="0.743" stop-color="#FFC900"/>
<stop offset="1" stop-color="#FFCE00"/>
</radialGradient>
<radialGradient id="paint25_radial_2001_15867" cx="0" cy="0" r="1" gradientUnits="userSpaceOnUse" gradientTransform="translate(4.84032 482.655) rotate(90) scale(4.66378 4.66377)">
<stop stop-color="#FFFFB0"/>
<stop offset="0.1519" stop-color="#FFF591"/>
<stop offset="0.4819" stop-color="#FFDD42"/>
<stop offset="0.743" stop-color="#FFC900"/>
<stop offset="1" stop-color="#FFCE00"/>
</radialGradient>
<radialGradient id="paint26_radial_2001_15867" cx="0" cy="0" r="1" gradientUnits="userSpaceOnUse" gradientTransform="translate(502.984 333.129) rotate(90) scale(4.66378 4.66377)">
<stop stop-color="#FFFFB0"/>
<stop offset="0.1519" stop-color="#FFF591"/>
<stop offset="0.4819" stop-color="#FFDD42"/>
<stop offset="0.743" stop-color="#FFC900"/>
<stop offset="1" stop-color="#FFCE00"/>
</radialGradient>
<radialGradient id="paint27_radial_2001_15867" cx="0" cy="0" r="1" gradientUnits="userSpaceOnUse" gradientTransform="translate(502.984 303.217) rotate(90) scale(4.66378 4.66377)">
<stop stop-color="#FFFFB0"/>
<stop offset="0.1519" stop-color="#FFF591"/>
<stop offset="0.4819" stop-color="#FFDD42"/>
<stop offset="0.743" stop-color="#FFC900"/>
<stop offset="1" stop-color="#FFCE00"/>
</radialGradient>
<radialGradient id="paint28_radial_2001_15867" cx="0" cy="0" r="1" gradientUnits="userSpaceOnUse" gradientTransform="translate(502.984 421.567) rotate(90) scale(4.66378 4.66377)">
<stop stop-color="#FFFFB0"/>
<stop offset="0.1519" stop-color="#FFF591"/>
<stop offset="0.4819" stop-color="#FFDD42"/>
<stop offset="0.743" stop-color="#FFC900"/>
<stop offset="1" stop-color="#FFCE00"/>
</radialGradient>
<radialGradient id="paint29_radial_2001_15867" cx="0" cy="0" r="1" gradientUnits="userSpaceOnUse" gradientTransform="translate(502.984 391.655) rotate(90) scale(4.66378 4.66377)">
<stop stop-color="#FFFFB0"/>
<stop offset="0.1519" stop-color="#FFF591"/>
<stop offset="0.4819" stop-color="#FFDD42"/>
<stop offset="0.743" stop-color="#FFC900"/>
<stop offset="1" stop-color="#FFCE00"/>
</radialGradient>
<radialGradient id="paint30_radial_2001_15867" cx="0" cy="0" r="1" gradientUnits="userSpaceOnUse" gradientTransform="translate(502.984 512.567) rotate(90) scale(4.66378 4.66377)">
<stop stop-color="#FFFFB0"/>
<stop offset="0.1519" stop-color="#FFF591"/>
<stop offset="0.4819" stop-color="#FFDD42"/>
<stop offset="0.743" stop-color="#FFC900"/>
<stop offset="1" stop-color="#FFCE00"/>
</radialGradient>
<radialGradient id="paint31_radial_2001_15867" cx="0" cy="0" r="1" gradientUnits="userSpaceOnUse" gradientTransform="translate(502.984 482.655) rotate(90) scale(4.66378 4.66377)">
<stop stop-color="#FFFFB0"/>
<stop offset="0.1519" stop-color="#FFF591"/>
<stop offset="0.4819" stop-color="#FFDD42"/>
<stop offset="0.743" stop-color="#FFC900"/>
<stop offset="1" stop-color="#FFCE00"/>
</radialGradient>
<radialGradient id="paint32_radial_2001_15867" cx="0" cy="0" r="1" gradientUnits="userSpaceOnUse" gradientTransform="translate(94.7301 555.511) scale(4.66378 4.66377)">
<stop stop-color="#FFFFB0"/>
<stop offset="0.1519" stop-color="#FFF591"/>
<stop offset="0.4819" stop-color="#FFDD42"/>
<stop offset="0.743" stop-color="#FFC900"/>
<stop offset="1" stop-color="#FFCE00"/>
</radialGradient>
<radialGradient id="paint33_radial_2001_15867" cx="0" cy="0" r="1" gradientUnits="userSpaceOnUse" gradientTransform="translate(64.8178 555.511) scale(4.66378 4.66377)">
<stop stop-color="#FFFFB0"/>
<stop offset="0.1519" stop-color="#FFF591"/>
<stop offset="0.4819" stop-color="#FFDD42"/>
<stop offset="0.743" stop-color="#FFC900"/>
<stop offset="1" stop-color="#FFCE00"/>
</radialGradient>
<radialGradient id="paint34_radial_2001_15867" cx="0" cy="0" r="1" gradientUnits="userSpaceOnUse" gradientTransform="translate(185.039 555.511) scale(4.66378 4.66377)">
<stop stop-color="#FFFFB0"/>
<stop offset="0.1519" stop-color="#FFF591"/>
<stop offset="0.4819" stop-color="#FFDD42"/>
<stop offset="0.743" stop-color="#FFC900"/>
<stop offset="1" stop-color="#FFCE00"/>
</radialGradient>
<radialGradient id="paint35_radial_2001_15867" cx="0" cy="0" r="1" gradientUnits="userSpaceOnUse" gradientTransform="translate(155.126 555.511) scale(4.66378 4.66377)">
<stop stop-color="#FFFFB0"/>
<stop offset="0.1519" stop-color="#FFF591"/>
<stop offset="0.4819" stop-color="#FFDD42"/>
<stop offset="0.743" stop-color="#FFC900"/>
<stop offset="1" stop-color="#FFCE00"/>
</radialGradient>
<radialGradient id="paint36_radial_2001_15867" cx="0" cy="0" r="1" gradientUnits="userSpaceOnUse" gradientTransform="translate(275.348 555.511) scale(4.66378 4.66377)">
<stop stop-color="#FFFFB0"/>
<stop offset="0.1519" stop-color="#FFF591"/>
<stop offset="0.4819" stop-color="#FFDD42"/>
<stop offset="0.743" stop-color="#FFC900"/>
<stop offset="1" stop-color="#FFCE00"/>
</radialGradient>
<radialGradient id="paint37_radial_2001_15867" cx="0" cy="0" r="1" gradientUnits="userSpaceOnUse" gradientTransform="translate(245.436 555.511) scale(4.66378 4.66377)">
<stop stop-color="#FFFFB0"/>
<stop offset="0.1519" stop-color="#FFF591"/>
<stop offset="0.4819" stop-color="#FFDD42"/>
<stop offset="0.743" stop-color="#FFC900"/>
<stop offset="1" stop-color="#FFCE00"/>
</radialGradient>
<radialGradient id="paint38_radial_2001_15867" cx="0" cy="0" r="1" gradientUnits="userSpaceOnUse" gradientTransform="translate(365.657 555.511) scale(4.66378 4.66377)">
<stop stop-color="#FFFFB0"/>
<stop offset="0.1519" stop-color="#FFF591"/>
<stop offset="0.4819" stop-color="#FFDD42"/>
<stop offset="0.743" stop-color="#FFC900"/>
<stop offset="1" stop-color="#FFCE00"/>
</radialGradient>
<radialGradient id="paint39_radial_2001_15867" cx="0" cy="0" r="1" gradientUnits="userSpaceOnUse" gradientTransform="translate(335.745 555.511) scale(4.66378 4.66377)">
<stop stop-color="#FFFFB0"/>
<stop offset="0.1519" stop-color="#FFF591"/>
<stop offset="0.4819" stop-color="#FFDD42"/>
<stop offset="0.743" stop-color="#FFC900"/>
<stop offset="1" stop-color="#FFCE00"/>
</radialGradient>
<radialGradient id="paint40_radial_2001_15867" cx="0" cy="0" r="1" gradientUnits="userSpaceOnUse" gradientTransform="translate(455.966 555.511) scale(4.66378 4.66377)">
<stop stop-color="#FFFFB0"/>
<stop offset="0.1519" stop-color="#FFF591"/>
<stop offset="0.4819" stop-color="#FFDD42"/>
<stop offset="0.743" stop-color="#FFC900"/>
<stop offset="1" stop-color="#FFCE00"/>
</radialGradient>
<radialGradient id="paint41_radial_2001_15867" cx="0" cy="0" r="1" gradientUnits="userSpaceOnUse" gradientTransform="translate(426.054 555.511) scale(4.66378 4.66377)">
<stop stop-color="#FFFFB0"/>
<stop offset="0.1519" stop-color="#FFF591"/>
<stop offset="0.4819" stop-color="#FFDD42"/>
<stop offset="0.743" stop-color="#FFC900"/>
<stop offset="1" stop-color="#FFCE00"/>
</radialGradient>
</defs>
</svg>
