<svg width="451" height="512" fill="none" xmlns="http://www.w3.org/2000/svg"><path d="M416.281.343H228.07v5.67h188.211c15.68 0 28.439 12.76 28.439 28.44v443.41c0 15.68-12.759 28.44-28.439 28.44H34.111c-15.68 0-28.44-12.76-28.44-28.44V34.453c0-15.68 12.76-28.44 28.44-28.44h194.1V.343h-194.1C15.27.343 0 15.613 0 34.453v443.41c0 18.84 15.27 34.11 34.11 34.11h382.17c18.84 0 34.11-15.27 34.11-34.11V34.453c.01-18.84-15.27-34.11-34.11-34.11z" fill="url(#a)"/><path d="M416.321 4.593h-188.25v1.42h188.25c15.68 0 28.44 12.76 28.44 28.44v443.41c0 15.68-12.76 28.44-28.44 28.44H34.151c-15.68 0-28.44-12.76-28.44-28.44V34.453c0-15.68 12.76-28.44 28.44-28.44h194.06v-1.42H34.151c-16.46 0-29.86 13.39-29.86 29.86v443.41c0 16.46 13.4 29.86 29.86 29.86h382.17c16.46 0 29.86-13.39 29.86-29.86V34.453c0-16.46-13.39-29.86-29.86-29.86z" fill="url(#b)"/><path d="M416.321.343h-188.25v1.42h188.25c18.03 0 32.69 14.67 32.69 32.69v443.41c0 18.03-14.67 32.69-32.69 32.69H34.151c-18.03 0-32.69-14.67-32.69-32.69V34.453c0-18.03 14.67-32.69 32.69-32.69h194.06V.343H34.151C15.31.343.04 15.613.04 34.453v443.41c0 18.84 15.27 34.11 34.11 34.11h382.17c18.84 0 34.11-15.27 34.11-34.11V34.453c0-18.84-15.27-34.11-34.11-34.11z" fill="url(#c)"/><defs><linearGradient id="a" x1="99.154" y1="-94.142" x2="351.243" y2="446.463" gradientUnits="userSpaceOnUse"><stop stop-color="#FFDC00"/><stop offset=".247" stop-color="#FFFF6B"/><stop offset=".595" stop-color="#FFDC00"/><stop offset="1" stop-color="orange"/></linearGradient><linearGradient id="b" x1="100.993" y1="-90.28" x2="349.48" y2="442.601" gradientUnits="userSpaceOnUse"><stop stop-color="#DA8F00"/><stop offset=".405" stop-color="#FFDC00"/><stop offset="1" stop-color="#FFFF8F"/></linearGradient><linearGradient id="c" x1="99.192" y1="-94.142" x2="351.281" y2="446.463" gradientUnits="userSpaceOnUse"><stop stop-color="#FFFF8F"/><stop offset=".595" stop-color="#FFDC00"/><stop offset="1" stop-color="#DA8F00"/></linearGradient></defs></svg>