<svg width="160" height="210" fill="none" xmlns="http://www.w3.org/2000/svg"><path d="M31.388 5c-7.917 0-14.47 6.153-14.97 14.055l-10.737 170C5.136 197.694 11.995 205 20.651 205h118.697c8.657 0 15.516-7.307 14.971-15.945l-10.737-170C143.083 11.152 136.529 5 128.612 5H31.388z" stroke="#8B5800" stroke-width="10"/><path d="M19.501 18.474A10 10 0 0 1 29.487 9h101.025a10 10 0 0 1 9.987 9.474l8.947 170c.301 5.722-4.257 10.526-9.986 10.526H20.54c-5.73 0-10.287-4.804-9.986-10.526l8.947-170z" fill="url(#a)"/><path d="M19.501 18.474A10 10 0 0 1 29.487 9h101.025a10 10 0 0 1 9.987 9.474l8.947 170c.301 5.722-4.257 10.526-9.986 10.526H20.54c-5.73 0-10.287-4.804-9.986-10.526l8.947-170z" fill="url(#b)"/><path d="M21.499 18.58A8 8 0 0 1 29.488 11h101.024a8 8 0 0 1 7.989 7.58l8.948 170c.241 4.577-3.406 8.42-7.989 8.42H20.54c-4.583 0-8.23-3.843-7.989-8.42l8.948-170z" stroke="url(#c)" stroke-width="4"/><path d="M29.488 5c-7.447 0-13.59 5.828-13.981 13.264l-8.947 170C6.138 196.274 12.52 203 20.54 203h118.92c8.021 0 14.402-6.726 13.98-14.736l-8.947-170C144.102 10.828 137.959 5 130.512 5H29.487z" stroke="url(#d)" stroke-width="8"/><path d="M26.832 18.822A3 3 0 0 1 29.827 16h100.346a3 3 0 0 1 2.995 2.822l9.814 164.875c.012.202.004.404-.025.603l-.589 4.124a3 3 0 0 1-2.97 2.576H20.602a3 3 0 0 1-2.97-2.576l-.59-4.124a2.999 2.999 0 0 1-.024-.603l9.814-164.875z" fill="url(#e)"/><path d="M26.835 18.825A3 3 0 0 1 29.83 16h100.34a3 3 0 0 1 2.995 2.825l9.649 165a3 3 0 0 1-2.995 3.175H20.181a3 3 0 0 1-2.995-3.175l9.649-165z" fill="url(#f)"/><mask id="h" style="mask-type:alpha" maskUnits="userSpaceOnUse" x="17" y="16" width="126" height="171"><path d="M26.835 18.825A3 3 0 0 1 29.83 16h100.34a3 3 0 0 1 2.995 2.825l9.649 165a3 3 0 0 1-2.995 3.175H20.181a3 3 0 0 1-2.995-3.175l9.649-165z" fill="url(#g)"/></mask><g filter="url(#i)" mask="url(#h)"><ellipse cx="80" cy="191.5" rx="66" ry="16.5" fill="#01A406"/></g><path d="M28.802 20.788A3 3 0 0 1 31.794 18h96.411a3 3 0 0 1 2.993 2.788l11.574 163a3 3 0 0 1-2.993 3.212H20.221a3 3 0 0 1-2.993-3.212l11.574-163z" fill="url(#j)" style="mix-blend-mode:screen" opacity=".66"/><g style="mix-blend-mode:screen" opacity=".47" filter="url(#k)"><ellipse cx="80" cy="27.5" rx="51" ry="6.5" fill="#77FF7B"/></g><path d="M13.845 15.897C14.2 9.027 19.83 3.819 26.706 3.645 38.076 3.358 56.868 3 80 3c23.163 0 41.976.359 53.34.646 6.856.174 12.47 5.358 12.823 12.208.337 6.518.529 15.28.057 25.146.001-11.603-1.527-20.459-2.894-26.06-1.06-4.34-4.885-7.174-9.343-7.45C124.38 6.899 105.603 6 80 6c-24.974 0-43.453.854-53.258 1.446-4.826.292-8.891 3.564-9.87 8.3-1.178 5.7-2.561 14.344-3.092 25.254-.476-9.707-.277-18.517.065-25.103z" fill="url(#l)" style="mix-blend-mode:screen"/><path d="M80 199c23.882 0 44.821.095 62 0 0 0-20.5 2-62 2s-62-2-62-2c17.179.095 38.118 0 62 0z" fill="url(#m)" style="mix-blend-mode:screen"/><defs><linearGradient id="e" x1="80" y1="10.809" x2="80" y2="200.285" gradientUnits="userSpaceOnUse"><stop stop-color="#008C05"/><stop offset="1" stop-color="#007004"/></linearGradient><linearGradient id="m" x1="80" y1="123" x2="80" y2="206" gradientUnits="userSpaceOnUse"><stop stop-color="#FDC00F"/><stop offset="1" stop-color="#E9BA02"/></linearGradient><linearGradient id="a" x1="80" y1="9" x2="80" y2="199" gradientUnits="userSpaceOnUse"><stop stop-color="#F6C424"/><stop offset="1" stop-color="#E8A208"/></linearGradient><linearGradient id="b" x1="80" y1="9" x2="80" y2="199" gradientUnits="userSpaceOnUse"><stop stop-color="#FFF8BF"/><stop offset="1" stop-color="#FCF191"/></linearGradient><linearGradient id="c" x1="80" y1="10.044" x2="80" y2="197.956" gradientUnits="userSpaceOnUse"><stop stop-color="#E8A208"/><stop offset="1" stop-color="#F6C424"/></linearGradient><linearGradient id="d" x1="80" y1="9" x2="80" y2="199" gradientUnits="userSpaceOnUse"><stop stop-color="#F6C424"/><stop offset="1" stop-color="#E8A208"/></linearGradient><linearGradient id="l" x1="80" y1="1" x2="80" y2="84" gradientUnits="userSpaceOnUse"><stop stop-color="#FFD866"/><stop offset="1" stop-color="#FFD73B"/></linearGradient><linearGradient id="f" x1="80" y1="10.928" x2="80" y2="196.072" gradientUnits="userSpaceOnUse"><stop stop-color="#004A02"/><stop offset="1" stop-color="#008C05"/></linearGradient><linearGradient id="g" x1="80" y1="10.928" x2="80" y2="196.072" gradientUnits="userSpaceOnUse"><stop stop-color="#004A02"/><stop offset="1" stop-color="#008C05"/></linearGradient><linearGradient id="j" x1="80" y1="1.258" x2="80" y2="204.952" gradientUnits="userSpaceOnUse"><stop stop-color="#009A05"/><stop offset=".316" stop-color="#006403" stop-opacity="0"/></linearGradient><filter id="k" x="21.5" y="13.5" width="117" height="28" filterUnits="userSpaceOnUse" color-interpolation-filters="sRGB"><feFlood flood-opacity="0" result="BackgroundImageFix"/><feBlend in="SourceGraphic" in2="BackgroundImageFix" result="shape"/><feGaussianBlur stdDeviation="3.75" result="effect1_foregroundBlur_359_9146"/></filter><filter id="i" x="6.5" y="167.5" width="147" height="48" filterUnits="userSpaceOnUse" color-interpolation-filters="sRGB"><feFlood flood-opacity="0" result="BackgroundImageFix"/><feBlend in="SourceGraphic" in2="BackgroundImageFix" result="shape"/><feGaussianBlur stdDeviation="3.75" result="effect1_foregroundBlur_359_9146"/></filter></defs></svg>