<svg width="1180" height="530" fill="none" xmlns="http://www.w3.org/2000/svg"><g filter="url(#a)"><path d="M26.5 40c0-8.008 6.492-14.5 14.5-14.5h1098c8.01 0 14.5 6.492 14.5 14.5v449c0 8.008-6.49 14.5-14.5 14.5H41c-8.008 0-14.5-6.492-14.5-14.5V40z" stroke="url(#b)" stroke-width="11"/></g><path d="M19.5 40c0-11.874 9.626-21.5 21.5-21.5h1098c11.87 0 21.5 9.626 21.5 21.5v450c0 11.874-9.63 21.5-21.5 21.5H41c-11.874 0-21.5-9.626-21.5-21.5V40z" stroke="url(#c)" stroke-width="7"/><path d="M8 40C8 22.327 22.327 8 40 8h1100c17.67 0 32 14.327 32 32v450c0 17.673-14.33 32-32 32H40c-17.673 0-32-14.327-32-32V40z" stroke="url(#d)" stroke-width="16"/><defs><linearGradient id="b" x1="590" y1="0" x2="590" y2="566.676" gradientUnits="userSpaceOnUse"><stop stop-color="#890000"/><stop offset="1" stop-color="#400"/></linearGradient><linearGradient id="c" x1="589.999" y1="-5" x2="589.999" y2="572.848" gradientUnits="userSpaceOnUse"><stop stop-color="#DE9900"/><stop offset="1" stop-color="#F6C424"/></linearGradient><linearGradient id="d" x1="590" y1="-20" x2="590" y2="588.293" gradientUnits="userSpaceOnUse"><stop stop-color="#F6C424"/><stop offset="1" stop-color="#C48200"/></linearGradient><filter id="a" x="5.9" y="4.9" width="1168.2" height="519.2" filterUnits="userSpaceOnUse" color-interpolation-filters="sRGB"><feFlood flood-opacity="0" result="BackgroundImageFix"/><feBlend in="SourceGraphic" in2="BackgroundImageFix" result="shape"/><feGaussianBlur stdDeviation="7.55" result="effect1_foregroundBlur_444_19973"/></filter></defs></svg>