<svg width="823" height="173" viewBox="0 0 823 173" fill="none" xmlns="http://www.w3.org/2000/svg">
<path d="M216.354 76.301L211.323 100.897C210.712 103.887 203.176 110.236 198.64 112.048C197.275 112.593 195.779 112.939 194.518 113.694L178.479 123.292L175.073 136.963H647.514L644.134 123.263L628.154 113.661C626.872 112.89 625.348 112.542 623.958 111.991C619.397 110.181 611.867 103.846 611.253 100.843L606.233 76.301C601.348 35.0149 477.948 37.8922 411.294 37.8922C344.639 37.8922 221.24 35.0149 216.354 76.301Z" fill="url(#paint0_linear_2008_8672)"/>
<path d="M226.053 103.367L226.102 103.237L226.135 103.102C226.403 101.972 226.736 99.8872 227.124 97.453C227.333 96.1483 227.557 94.7433 227.796 93.3315C228.506 89.1347 229.366 84.7229 230.392 81.7154C230.773 80.5988 231.388 79.5274 232.156 78.3235C232.317 78.0712 232.488 77.8084 232.665 77.5368C233.287 76.5823 233.979 75.5197 234.549 74.4298C236.037 71.5841 237.403 68.9985 241.033 66.4655C244.763 63.8638 251.03 61.2281 262.503 58.904C285.456 54.2547 328.409 51.0045 411.293 51.0045C494.178 51.0045 537.131 54.2547 560.084 58.904C571.557 61.2281 577.824 63.8638 581.553 66.4655C585.184 68.9985 586.55 71.5841 588.038 74.4298C588.608 75.5196 589.3 76.5821 589.921 77.5365C590.098 77.8082 590.269 78.0712 590.43 78.3235C591.199 79.5274 591.814 80.5988 592.195 81.7154C593.221 84.7229 594.08 89.1347 594.791 93.3316C595.03 94.7431 595.254 96.1478 595.462 97.4523C595.851 99.8868 596.184 101.972 596.452 103.102L596.484 103.238L596.534 103.368C599.103 110.178 603.15 113.533 608.049 116.482C609.365 117.274 610.716 118.027 612.112 118.804C614.403 120.08 616.817 121.424 619.396 123.122H411.293H203.215C205.797 121.428 208.205 120.09 210.487 118.822C211.895 118.04 213.254 117.285 214.577 116.489C219.467 113.546 223.48 110.199 226.053 103.367Z" stroke="url(#paint1_linear_2008_8672)" stroke-width="4.37079"/>
<path fill-rule="evenodd" clip-rule="evenodd" d="M211.323 100.897L216.354 76.301C220.952 37.4417 330.542 37.7065 398.987 37.8719C403.262 37.8822 407.376 37.8922 411.294 37.8922C415.211 37.8922 419.325 37.8822 423.6 37.8719C492.045 37.7065 601.635 37.4417 606.233 76.301L611.253 100.843C611.867 103.846 619.397 110.181 623.958 111.991C624.417 112.173 624.891 112.333 625.366 112.493C626.329 112.818 627.296 113.145 628.154 113.661L644.134 123.263L647.514 136.963H175.073L178.479 123.292L194.518 113.694C195.36 113.19 196.306 112.868 197.248 112.548C197.718 112.388 198.186 112.229 198.64 112.048C203.176 110.236 210.712 103.887 211.323 100.897ZM411.294 48.8191C577.057 48.8191 583.9 61.8012 589.975 73.417C590.492 74.4051 591.104 75.3467 591.716 76.2873C592.701 77.8008 593.684 79.3119 594.264 81.0099C595.746 85.3574 596.847 92.257 597.645 97.2602C598.02 99.6123 598.329 101.545 598.579 102.597C601.525 110.405 606.497 113.173 613.05 116.822C616.882 118.955 621.253 121.39 626.076 125.308H411.294H196.511C201.363 121.388 205.734 118.96 209.552 116.839C216.114 113.193 221.049 110.452 224.009 102.597C224.258 101.545 224.567 99.6122 224.942 97.2601C225.74 92.2569 226.841 85.3573 228.324 81.0099C228.903 79.3119 229.886 77.8008 230.871 76.2873C231.483 75.3466 232.095 74.405 232.612 73.417C238.687 61.8012 245.53 48.8191 411.294 48.8191Z" fill="url(#paint2_linear_2008_8672)"/>
<path d="M0.241943 124.486L48.2094 130.039L90.8699 171.927L126.922 132.335L132.127 132.267L137.468 128.188L128.395 112.831L89.0895 143.579L54.6803 110.843L0.241943 124.486Z" fill="url(#paint3_linear_2008_8672)"/>
<path d="M0.241486 124.486L49.8866 119.241L89.3972 157.256L127.504 121.229L137.159 128.393L132.126 132.267L126.922 132.335L90.8694 171.927L48.2089 130.039L0.241486 124.486Z" fill="url(#paint4_linear_2008_8672)"/>
<path d="M127.504 121.229L126.922 132.335H132.229L137.159 128.393L127.504 121.229Z" fill="url(#paint5_linear_2008_8672)"/>
<path d="M90.8702 171.927L89.398 157.256L127.505 121.229L126.923 132.335L90.8702 171.927Z" fill="url(#paint6_linear_2008_8672)"/>
<path d="M49.8867 119.241L48.2091 130.039L0.241642 124.486L49.8867 119.241Z" fill="url(#paint7_linear_2008_8672)"/>
<path opacity="0.5" d="M61.1859 117.013C51.9417 110.603 52.1129 119.241 67.0064 132.85C78.5103 143.339 86.1797 140.802 81.9341 136.792C77.6886 132.747 61.1859 117.013 61.1859 117.013Z" fill="#F9A346"/>
<path d="M65.8421 122.977C65.4655 123.354 63.8906 122.497 62.3156 121.023C60.7407 119.55 59.7478 118.041 60.0901 117.664C60.4668 117.287 62.0417 118.144 63.6167 119.618C65.2259 121.058 66.2187 122.566 65.8421 122.977Z" fill="url(#paint8_linear_2008_8672)"/>
<path d="M68.4785 125.617C68.2046 125.925 67.4856 125.685 66.8693 125.103C66.2531 124.52 65.9449 123.8 66.2188 123.526C66.4927 123.217 67.2117 123.457 67.828 124.04C68.4443 124.623 68.7524 125.308 68.4785 125.617Z" fill="url(#paint9_linear_2008_8672)"/>
<path opacity="0.2" d="M54.6807 110.843C47.6619 113.585 47.9015 116.464 49.8873 119.241C35.4389 121.092 0.24226 124.52 0.24226 124.52L54.6807 110.843Z" fill="url(#paint10_linear_2008_8672)"/>
<path d="M69.7105 138.3L89.3974 155.576C89.3974 155.576 107.886 139.774 107.372 140.254C106.859 140.734 89.3974 157.256 89.3974 157.256L69.7105 138.3Z" fill="#F9A346"/>
<path opacity="0.8" d="M118.843 120.304C110.728 130.005 111.79 136.072 117.507 130.656C111.345 136.449 106.791 140.768 106.791 140.768C111.619 132.541 112.509 125.206 94.0202 139.671C100.115 134.906 118.843 120.304 118.843 120.304Z" fill="#F9A346"/>
<path d="M822.466 125.095L774.533 130.579L731.838 172.468L695.82 132.876L690.615 132.807L685.274 128.728L694.313 113.371L733.652 144.119L768.027 111.383L822.466 125.095Z" fill="url(#paint11_linear_2008_8672)"/>
<path d="M822.466 125.095L772.821 119.781L733.344 157.796L695.203 121.77L685.548 128.934L690.615 132.807L695.82 132.876L731.838 172.468L774.533 130.579L822.466 125.095Z" fill="url(#paint12_linear_2008_8672)"/>
<path d="M695.203 121.77L695.819 132.876H690.478L685.548 128.934L695.203 121.77Z" fill="url(#paint13_linear_2008_8672)"/>
<path d="M731.838 172.468L733.345 157.797L695.204 121.77L695.82 132.876L731.838 172.468Z" fill="url(#paint14_linear_2008_8672)"/>
<path d="M772.821 119.781L774.533 130.579L822.466 125.095L772.821 119.781Z" fill="url(#paint15_linear_2008_8672)"/>
<path opacity="0.5" d="M761.556 117.554C770.766 111.144 770.629 119.782 755.702 133.39C744.232 143.88 736.562 141.343 740.774 137.332C745.019 133.288 761.556 117.554 761.556 117.554Z" fill="#F9A346"/>
<path d="M756.866 123.518C757.243 123.895 758.818 123.038 760.393 121.564C761.968 120.09 762.96 118.582 762.618 118.205C762.241 117.828 760.666 118.685 759.092 120.159C757.517 121.598 756.524 123.107 756.866 123.518Z" fill="url(#paint16_linear_2008_8672)"/>
<path d="M754.264 126.158C754.538 126.466 755.257 126.226 755.873 125.643C756.489 125.061 756.797 124.341 756.523 124.067C756.25 123.758 755.531 123.998 754.914 124.581C754.264 125.163 753.99 125.849 754.264 126.158Z" fill="url(#paint17_linear_2008_8672)"/>
<path opacity="0.2" d="M768.027 111.383C775.046 114.126 774.807 117.005 772.821 119.782C787.269 121.633 822.466 125.095 822.466 125.095L768.027 111.383Z" fill="url(#paint18_linear_2008_8672)"/>
<path d="M753.031 138.841L733.344 156.117C733.344 156.117 714.856 140.315 715.369 140.794C715.883 141.274 733.344 157.797 733.344 157.797L753.031 138.841Z" fill="#F9A346"/>
<path opacity="0.8" d="M703.866 120.844C711.98 130.545 710.919 136.612 705.201 131.196C711.364 136.989 715.918 141.309 715.918 141.309C711.09 133.082 710.2 125.746 728.688 140.212C722.628 135.447 703.866 120.844 703.866 120.844Z" fill="#F9A346"/>
<path d="M127.306 118.607H128.883L148.848 151.969C153.919 153.871 200.156 156.774 208.49 153.721C212.657 147.815 220.539 126.845 220.539 119.187C215.719 114.383 205.854 106.3 200.583 94.9135C202.993 89.8836 206.281 84.6284 207.812 81.15C212.205 81.5754 220.539 86.1799 220.539 86.1799L218.129 90.1088L217.25 87.0308L214.314 85.9797L209.645 88.3571C209.645 88.3571 206.532 95.8894 207.059 97.4409L217.652 103.522C219.736 103.172 221.116 102.946 223.2 102.596C226.563 96.2648 230.78 87.8566 233.441 82.2261C229.977 78.072 213.109 66.3856 204.775 68.1873C196.868 72.1662 181.957 89.0077 174.502 102.771C179.774 108.902 188.986 118.061 188.986 118.061L185.246 130.473H157.132C143.652 120.138 140.64 116.109 136.548 111.755C132.231 112.055 133.586 111.905 128.164 112.205C126.031 114.758 125.267 114.603 121 118.607C124.153 118.607 127.306 118.607 127.306 118.607Z" fill="url(#paint19_linear_2008_8672)"/>
<path d="M196.817 142.81C198.775 141.158 201.486 137.255 202.415 135.002C200.457 140.958 197.746 144.312 197.746 144.312C197.746 144.312 186.952 145.863 168.101 144.161C176.635 144.312 187.479 144.387 196.817 142.81Z" fill="#FFE346"/>
<path d="M221.769 96.7653L212.782 92.5111L214.339 85.9797L209.645 88.3571C209.645 88.3571 206.532 95.8894 207.059 97.441L217.652 103.522C219.736 103.172 221.116 102.946 223.2 102.596C227.467 94.6883 230.881 87.9066 233.441 82.2261L228.998 84.3031L221.769 96.7653Z" fill="url(#paint20_linear_2008_8672)"/>
<path opacity="0.15" d="M188.986 118.086L185.246 130.498C185.246 130.498 193.254 136.604 197.747 144.312C201.136 140.933 206.959 127.22 206.959 119.112C204.298 118.962 188.986 118.086 188.986 118.086Z" fill="#7A1C0B"/>
<path d="M197.746 144.312C183.413 145.338 162.227 143.886 153.015 143.286C132.406 127.545 148.848 151.969 148.848 151.969C154.797 153.546 200.156 156.774 208.49 153.721C212.657 147.815 220.539 126.845 220.539 119.187L206.934 119.112C206.507 126.544 201.261 138.481 197.746 144.312Z" fill="url(#paint21_linear_2008_8672)"/>
<path d="M153.015 143.286L148.848 151.969C154.245 153.996 198.549 156.724 208.038 153.871L208.49 153.721L197.746 144.312C183.413 145.338 162.227 143.886 153.015 143.286Z" fill="url(#paint22_linear_2008_8672)"/>
<path opacity="0.5" d="M206.959 119.112C200.382 112.981 192.048 100.319 190.743 95.364L174.502 102.771C179.773 108.902 188.986 118.061 188.986 118.061L206.959 119.112Z" fill="url(#paint23_linear_2008_8672)"/>
<path d="M220.564 86.1798L223.476 82.5263C223.476 82.5263 214.565 77.2711 206.959 74.9438C203.018 77.5714 194.96 89.2328 190.743 95.3388L200.608 94.9134C203.018 89.8835 206.306 84.6283 207.837 81.1499C212.23 81.5753 220.564 86.1798 220.564 86.1798Z" fill="url(#paint24_linear_2008_8672)"/>
<path d="M207.06 97.4411L212.758 92.5112L221.769 96.7654L223.2 102.596L217.653 103.522L207.06 97.4411Z" fill="url(#paint25_linear_2008_8672)"/>
<path d="M223.476 82.5263C223.476 82.5263 214.565 77.2711 206.959 74.9438L207.838 81.1249C212.23 81.5503 220.564 86.1548 220.564 86.1548L223.476 82.5263Z" fill="url(#paint26_linear_2008_8672)"/>
<path opacity="0.5" d="M233.04 81.8006C229.526 78.0469 217.728 69.8389 209.243 68.2873C209.193 68.2873 209.168 68.2623 209.118 68.2623C208.992 68.2373 208.892 68.2373 208.766 68.2123C207.034 68.0621 202.868 70.2643 206.934 74.9689C211.026 76.4203 221.694 81.0248 223.451 82.5513C225.735 83.0268 228.371 83.8275 233.04 81.8006Z" fill="#F9A346"/>
<path d="M217.451 72.4163C217.275 72.8167 215.895 72.6415 214.338 71.9909C212.782 71.3403 211.678 70.4894 211.853 70.089C212.029 69.6887 213.41 69.8638 214.966 70.5145C216.497 71.1401 217.627 71.9909 217.451 72.4163Z" fill="url(#paint27_linear_2008_8672)"/>
<path d="M198.675 109.378C195.261 104.198 192.751 99.243 191.421 95.3392C194.207 91.0099 200.784 81.3254 202.34 79.5237C196.115 85.0541 191.27 93.3122 189.965 95.6645C191.094 98.8426 196.09 106.65 198.675 109.378Z" fill="#FFE346"/>
<path opacity="0.35" d="M136.573 111.78L128.189 112.23C128.189 112.23 149.2 142.059 153.04 143.286C152.337 133.351 157.157 130.498 157.157 130.498C144.305 120.889 136.573 111.78 136.573 111.78Z" fill="url(#paint28_linear_2008_8672)"/>
<path d="M128.164 112.23L121 118.607H128.883L148.848 151.969L153.015 143.286C137.552 125.468 128.164 112.23 128.164 112.23Z" fill="url(#paint29_linear_2008_8672)"/>
<path opacity="0.5" d="M145.961 135.003C137.402 122.741 136.724 113.256 145.56 120.889C141.041 116.91 136.523 111.78 136.523 111.78L128.164 112.23C132.406 118.636 145.961 135.003 145.961 135.003Z" fill="#F9A346"/>
<path d="M135.318 111.855C133.561 111.955 129.319 112.206 128.164 112.231C129.093 113.657 135.218 121.615 135.218 121.615C131.754 115.809 126.834 113.006 135.318 111.855Z" fill="#FFE346"/>
<path d="M148.371 123.391L157.132 130.498H180.752L155.977 131.249L148.371 123.391Z" fill="#FFE346"/>
<path opacity="0.35" d="M187.956 121.489L185.245 130.498H183.312L186.475 121.489H187.956Z" fill="#7A1C0B"/>
<path opacity="0.35" d="M634.986 122.432L637.648 131.29H639.581L636.417 122.306L634.986 122.432Z" fill="#7A1C0B"/>
<path d="M695.575 119.399H693.998L674.028 152.761C668.957 154.663 622.709 157.566 614.373 154.513C610.205 148.607 602.322 127.637 602.322 119.979C607.142 115.175 617.009 107.092 622.282 95.7055C619.872 90.6755 616.583 85.4204 615.051 81.942C610.657 82.3674 602.322 86.9719 602.322 86.9719L604.732 90.9008L605.611 87.8478L608.548 86.7967L613.243 89.1741C613.243 89.1741 616.357 96.7064 615.829 98.258L605.234 104.314C603.15 103.964 601.769 103.738 599.685 103.388C596.321 97.0568 592.103 88.6486 589.441 83.018C592.906 78.864 609.778 67.1775 618.114 68.9793C625.998 72.9582 640.912 89.7997 648.369 103.563C643.096 109.694 633.882 118.853 633.882 118.853L637.623 131.265H665.743C679.226 120.93 682.238 116.901 686.331 112.547C690.649 112.847 689.294 112.697 694.717 112.997C696.876 115.525 697.64 115.395 701.883 119.399C698.729 119.399 695.575 119.399 695.575 119.399Z" fill="url(#paint30_linear_2008_8672)"/>
<path d="M626.048 143.602C624.09 141.95 621.378 138.046 620.449 135.794C622.408 141.75 625.119 145.103 625.119 145.103C625.119 145.103 635.915 146.655 654.771 144.953C646.235 145.103 635.388 145.178 626.048 143.602Z" fill="#FFE346"/>
<path d="M601.116 97.557L610.105 93.3029L608.548 86.7715L613.243 89.1488C613.243 89.1488 616.357 96.6812 615.829 98.2327L605.234 104.314C603.15 103.963 601.769 103.738 599.685 103.388C595.417 95.48 592.002 88.6984 589.441 83.0178L593.885 85.0949L601.116 97.557Z" fill="url(#paint31_linear_2008_8672)"/>
<path opacity="0.15" d="M633.906 118.878L637.622 131.29C637.622 131.29 629.613 137.396 625.119 145.104C621.729 141.725 615.904 128.012 615.904 119.904C618.566 119.754 633.906 118.878 633.906 118.878Z" fill="#7A1C0B"/>
<path d="M625.119 145.103C639.455 146.129 660.646 144.678 669.86 144.077C690.473 128.337 674.028 152.761 674.028 152.761C668.078 154.337 622.709 157.566 614.373 154.513C610.205 148.607 602.321 127.636 602.321 119.979L615.93 119.904C616.356 127.336 621.629 139.273 625.119 145.103Z" fill="url(#paint32_linear_2008_8672)"/>
<path d="M669.86 144.077L674.028 152.761C668.63 154.788 624.316 157.516 614.825 154.663L614.373 154.513L625.119 145.103C639.455 146.129 660.671 144.678 669.86 144.077Z" fill="url(#paint33_linear_2008_8672)"/>
<path opacity="0.5" d="M615.93 119.904C622.508 113.773 630.844 101.111 632.149 96.1558L648.368 103.588C643.096 109.719 633.882 118.878 633.882 118.878L615.93 119.904Z" fill="url(#paint34_linear_2008_8672)"/>
<path d="M602.321 86.9718L599.384 83.3183C599.384 83.3183 608.297 78.0631 615.904 75.7358C619.846 78.3634 627.906 90.0248 632.124 96.1308L622.257 95.7054C619.846 90.6755 616.557 85.4203 615.026 81.9419C610.657 82.3673 602.321 86.9718 602.321 86.9718Z" fill="url(#paint35_linear_2008_8672)"/>
<path d="M615.804 98.2328L610.104 93.303L601.116 97.5571L599.685 103.388L605.233 104.314L615.804 98.2328Z" fill="url(#paint36_linear_2008_8672)"/>
<path d="M599.384 83.3183C599.384 83.3183 608.297 78.0631 615.904 75.7358L615.026 81.9169C610.632 82.3423 602.296 86.9468 602.296 86.9468L599.384 83.3183Z" fill="url(#paint37_linear_2008_8672)"/>
<path opacity="0.5" d="M589.818 82.5925C593.333 78.8389 605.134 70.6308 613.62 69.0793C613.67 69.0793 613.696 69.0543 613.746 69.0543C613.871 69.0293 613.972 69.0293 614.097 69.0043C615.83 68.8541 619.998 71.0563 615.93 75.7609C611.838 77.2123 601.167 81.8168 599.409 83.3433C597.125 83.8187 594.488 84.6195 589.818 82.5925Z" fill="#F9A346"/>
<path d="M605.435 73.2081C605.611 73.6085 606.992 73.4333 608.549 72.7827C610.105 72.132 611.21 71.2812 611.034 70.8808C610.859 70.4804 609.453 70.6556 607.921 71.3062C606.364 71.9318 605.26 72.7827 605.435 73.2081Z" fill="url(#paint38_linear_2008_8672)"/>
<path d="M624.19 110.17C627.605 104.99 630.115 100.035 631.446 96.1311C628.659 91.8019 622.081 82.1174 620.524 80.3157C626.751 85.8461 631.597 94.1042 632.902 96.4565C631.773 99.6346 626.776 107.442 624.19 110.17Z" fill="#FFE346"/>
<path opacity="0.35" d="M686.331 112.572L694.717 113.022C694.717 113.022 673.702 142.851 669.861 144.077C670.564 134.143 665.743 131.29 665.743 131.29C678.573 121.68 686.331 112.572 686.331 112.572Z" fill="url(#paint39_linear_2008_8672)"/>
<path d="M694.717 113.022L701.882 119.399H693.998L674.028 152.761L669.86 144.078C685.327 126.26 694.717 113.022 694.717 113.022Z" fill="url(#paint40_linear_2008_8672)"/>
<path opacity="0.5" d="M676.916 135.794C685.478 123.532 686.156 114.048 677.318 121.68C681.837 117.702 686.356 112.572 686.356 112.572L694.717 113.022C690.474 119.428 676.916 135.794 676.916 135.794Z" fill="#F9A346"/>
<path d="M687.562 112.647C689.319 112.747 693.562 112.997 694.717 113.022C693.788 114.448 687.662 122.406 687.662 122.406C691.152 116.601 696.048 113.798 687.562 112.647Z" fill="#FFE346"/>
<path d="M674.53 124.183L665.743 131.29H642.142L666.923 132.041L674.53 124.183Z" fill="#FFE346"/>
<path d="M310.383 1.04736C277.824 19.7077 221.424 53.3429 221.424 53.3429L208.116 47.1006C208.116 47.1006 197.285 48.2959 194.644 48.6612C204.055 57.7589 214.159 67.3548 220.367 68.7161C241.072 60.4816 279.938 41.456 305.628 26.9461C336.14 31.1961 382.997 46.3369 410.768 58.7882C391.286 42.917 343.9 16.1218 310.383 1.04736Z" fill="url(#paint41_linear_2008_8672)"/>
<path opacity="0.2" d="M309.194 12.9342L305.628 26.9461C336.14 31.1961 382.997 46.3369 410.768 58.7882C391.285 42.917 343.9 16.1218 310.383 1.04736C313.652 3.60403 313.157 10.8424 309.194 12.9342Z" fill="url(#paint42_linear_2008_8672)"/>
<path d="M216.438 67.0892C217.857 67.8197 219.046 68.3842 220.367 68.683C241.071 60.4485 279.938 41.4229 305.628 26.913C336.14 31.163 382.997 46.3038 410.768 58.7552C372.497 37.0733 327.687 16.4871 309.195 12.9343C296.283 20.8368 229.019 61.6771 216.438 67.0892Z" fill="#BC4408"/>
<path d="M309.194 12.9343L305.628 26.9462C336.14 31.1963 382.997 46.3371 410.768 58.7884C372.496 37.0733 327.686 16.4871 309.194 12.9343Z" fill="url(#paint43_linear_2008_8672)"/>
<path opacity="0.8" d="M288.952 13.5649C279.838 23.0279 276.965 29.7018 294.037 22.1646C277.89 31.8269 269.8 36.575 269.8 36.575C276.074 30.2663 283.471 16.8521 273.729 22.6959C281.093 18.313 288.952 13.5649 288.952 13.5649Z" fill="#F9A346"/>
<path d="M204.748 58.1575C211.815 62.8392 218.056 66.6576 229.151 60.4485C224.594 63.2044 216.471 67.0892 216.471 67.0892C212.64 64.9642 209.074 61.9095 204.748 58.1575Z" fill="#F9A346"/>
<path d="M303.251 7.52219C303.515 8.02024 301.93 9.44799 299.684 10.7761C297.439 12.0711 295.392 12.7351 295.127 12.2371C294.863 11.739 296.448 10.3113 298.694 8.98314C300.906 7.68821 302.953 7.02414 303.251 7.52219Z" fill="url(#paint44_linear_2008_8672)"/>
<path d="M203.988 47.5654L218.551 54.9366L221.424 53.3428L208.116 47.1006L203.988 47.5654Z" fill="url(#paint45_linear_2008_8672)"/>
<path opacity="0.35" d="M208.116 47.1006C208.116 47.1006 197.285 48.2959 194.644 48.6611C197.021 50.9522 199.432 53.2764 201.809 55.5011C202.437 53.4757 208.05 49.1924 213.003 49.3916L208.116 47.1006Z" fill="#7A1C0B"/>
<path d="M511.187 1.04736C543.713 19.7077 600.146 53.3097 600.146 53.3097L613.454 47.0674C613.454 47.0674 624.285 48.2627 626.927 48.628C617.516 57.7257 607.411 67.3215 601.203 68.6829C580.499 60.4484 541.632 41.4228 515.942 26.9129C485.43 31.1629 438.573 46.3037 410.802 58.7551C430.284 42.917 477.67 16.1218 511.187 1.04736Z" fill="url(#paint46_linear_2008_8672)"/>
<path opacity="0.2" d="M512.342 12.9342L515.909 26.9461C485.397 31.1961 438.54 46.3369 410.769 58.7882C430.218 42.917 477.604 16.1218 511.154 1.04736C507.917 3.60403 508.413 10.8424 512.342 12.9342Z" fill="url(#paint47_linear_2008_8672)"/>
<path d="M605.133 67.0892C603.713 67.8197 602.524 68.3842 601.203 68.683C580.499 60.4485 541.632 41.4229 515.942 26.913C485.43 31.163 438.573 46.3038 410.802 58.7552C449.074 37.0733 493.884 16.4871 512.343 12.9343C525.287 20.8368 592.551 61.6771 605.133 67.0892Z" fill="#BC4408"/>
<path d="M512.342 12.9343L515.909 26.9462C485.397 31.1963 438.54 46.3371 410.769 58.7884C449.073 37.0733 493.883 16.4871 512.342 12.9343Z" fill="url(#paint48_linear_2008_8672)"/>
<path opacity="0.8" d="M532.584 13.5649C541.698 23.0279 544.571 29.7018 527.499 22.1646C543.646 31.8269 551.737 36.575 551.737 36.575C545.463 30.2663 538.066 16.8521 547.807 22.6959C540.476 18.313 532.584 13.5649 532.584 13.5649Z" fill="#F9A346"/>
<path d="M616.822 58.1575C609.755 62.8392 603.514 66.6576 592.419 60.4485C596.976 63.2044 605.099 67.0892 605.099 67.0892C608.93 64.9642 612.496 61.9095 616.822 58.1575Z" fill="#F9A346"/>
<path d="M518.319 7.52219C518.055 8.02024 519.64 9.44799 521.885 10.7761C524.131 12.0711 526.178 12.7351 526.442 12.2371C526.706 11.739 525.121 10.3113 522.876 8.98314C520.663 7.68821 518.616 7.02414 518.319 7.52219Z" fill="url(#paint49_linear_2008_8672)"/>
<path d="M617.582 47.5654L603.019 54.9366L600.146 53.3428L613.454 47.1006L617.582 47.5654Z" fill="url(#paint50_linear_2008_8672)"/>
<path opacity="0.35" d="M613.454 47.1006C613.454 47.1006 624.285 48.2959 626.926 48.6611C624.549 50.9522 622.138 53.2764 619.761 55.5011C619.133 53.4757 613.52 49.1924 608.566 49.3916L613.454 47.1006Z" fill="#7A1C0B"/>
<path d="M410.88 0L441.193 28.6214L410.88 58.571L380.533 28.6214L410.88 0Z" fill="url(#paint51_linear_2008_8672)"/>
<path d="M410.88 58.5709C410.88 58.5709 433.302 36.0258 441.194 28.6214C416.56 29.053 404.21 28.4222 380.566 28.6214C388.492 36.059 410.88 58.5709 410.88 58.5709Z" fill="#BC4408"/>
<path d="M433.301 29.053C433.301 29.053 417.022 44.0278 410.715 50.7017C404.407 44.0278 397.077 36.9886 388.128 29.053C397.077 21.1173 410.715 7.4043 410.715 7.4043L433.301 29.053Z" fill="#BC4408"/>
<path d="M410.715 7.40405V9.96072L430.627 29.0527H433.301L410.715 7.40405Z" fill="url(#paint52_linear_2008_8672)"/>
<path d="M388.128 29.0527H390.803L410.715 48.1447V50.7014L388.128 29.0527Z" fill="#F9A346"/>
<path d="M430.627 29.0527C430.627 29.0527 416.262 42.2677 410.715 48.1447C405.167 42.2677 398.695 36.0586 390.803 29.0527C398.695 22.0468 410.715 9.96069 410.715 9.96069L430.627 29.0527Z" fill="url(#paint53_radial_2008_8672)"/>
<path opacity="0.3" d="M410.715 48.1449L390.803 29.0529L404.209 28.4221C404.209 28.4221 414.149 28.2893 420.093 28.4221C427.225 28.5881 430.594 29.0529 430.594 29.0529C430.627 29.0529 410.715 48.1449 410.715 48.1449Z" fill="#712020"/>
<path d="M420.126 28.422C416.989 31.2111 414.381 33.7013 412.168 36.0588C409.956 33.7013 407.38 31.2443 404.21 28.422C407.347 25.6329 409.956 23.1426 412.168 20.7852C414.381 23.1426 416.956 25.6329 420.126 28.422Z" fill="url(#paint54_radial_2008_8672)"/>
<path opacity="0.5" d="M390.803 29.053L404.209 28.4221L412.168 36.0589L410.715 48.145L390.803 29.053Z" fill="#712020"/>
<g style="mix-blend-mode:screen">
<path d="M410.715 9.96069L412.168 20.8182L420.126 28.4218L430.627 29.0527L410.715 9.96069Z" fill="url(#paint55_linear_2008_8672)"/>
</g>
<path d="M412.167 20.8186L420.653 26.6956L430.626 29.0531L420.125 28.4222L412.167 20.8186Z" fill="#F9CBB2"/>
<path opacity="0.5" d="M413.885 2.85571C414.479 11.0238 423.824 22.7778 438.519 26.1314C433.4 21.2837 413.885 2.85571 413.885 2.85571Z" fill="#F9A346"/>
<path opacity="0.5" d="M410.715 48.145V50.7017L433.301 29.053C433.301 29.053 431.32 29.0862 430.627 29.053C429.933 29.0198 410.715 48.145 410.715 48.145Z" fill="url(#paint56_linear_2008_8672)"/>
<path d="M425.31 16.2031C425.112 16.9668 423.263 16.1699 421.215 14.4101C419.135 12.6504 417.616 10.5917 417.814 9.82805C418.012 9.06437 419.829 9.86126 421.909 11.621C423.989 13.3808 425.508 15.4394 425.31 16.2031Z" fill="url(#paint57_linear_2008_8672)"/>
<path d="M380.533 28.6213L381.788 32.7386L410.88 58.5709L380.533 28.6213Z" fill="url(#paint58_linear_2008_8672)"/>
<path d="M441.194 28.6213L439.939 32.7386L410.88 58.5709L441.194 28.6213Z" fill="url(#paint59_linear_2008_8672)"/>
<defs>
<linearGradient id="paint0_linear_2008_8672" x1="411.294" y1="9.40755" x2="409.605" y2="155.528" gradientUnits="userSpaceOnUse">
<stop stop-color="#D31200"/>
<stop offset="1" stop-color="#420600"/>
</linearGradient>
<linearGradient id="paint1_linear_2008_8672" x1="411.293" y1="48.8191" x2="411.095" y2="133.642" gradientUnits="userSpaceOnUse">
<stop stop-color="#BC8307"/>
<stop offset="1" stop-color="#FFD95E"/>
</linearGradient>
<linearGradient id="paint2_linear_2008_8672" x1="411.294" y1="37.8491" x2="411.294" y2="136.963" gradientUnits="userSpaceOnUse">
<stop stop-color="#F6C424"/>
<stop offset="1" stop-color="#DE9900"/>
</linearGradient>
<linearGradient id="paint3_linear_2008_8672" x1="68.8528" y1="116.355" x2="68.8528" y2="164.265" gradientUnits="userSpaceOnUse">
<stop stop-color="#F2B100"/>
<stop offset="1" stop-color="#ED480B"/>
</linearGradient>
<linearGradient id="paint4_linear_2008_8672" x1="68.7096" y1="119.227" x2="68.7096" y2="171.927" gradientUnits="userSpaceOnUse">
<stop stop-color="#A32100"/>
<stop offset="1" stop-color="#D36C05"/>
</linearGradient>
<linearGradient id="paint5_linear_2008_8672" x1="132.564" y1="130.824" x2="126.573" y2="125.555" gradientUnits="userSpaceOnUse">
<stop offset="0.0642" stop-color="#BC4408"/>
<stop offset="1" stop-color="#7A1C0B"/>
</linearGradient>
<linearGradient id="paint6_linear_2008_8672" x1="88.8944" y1="164.798" x2="119.025" y2="137.816" gradientUnits="userSpaceOnUse">
<stop stop-color="#7A1C0B"/>
<stop offset="0.9358" stop-color="#BC4408"/>
</linearGradient>
<linearGradient id="paint7_linear_2008_8672" x1="44.5798" y1="123.889" x2="22.2696" y2="127.589" gradientUnits="userSpaceOnUse">
<stop stop-color="#7A1C0B"/>
<stop offset="0.9358" stop-color="#BC4408"/>
</linearGradient>
<linearGradient id="paint8_linear_2008_8672" x1="62.6365" y1="117.431" x2="62.9998" y2="123.223" gradientUnits="userSpaceOnUse">
<stop stop-color="#FFF7C4"/>
<stop offset="1" stop-color="white"/>
</linearGradient>
<linearGradient id="paint9_linear_2008_8672" x1="67.645" y1="122.925" x2="68.6393" y2="125.583" gradientUnits="userSpaceOnUse">
<stop stop-color="#FFF7C4"/>
<stop offset="1" stop-color="white"/>
</linearGradient>
<linearGradient id="paint10_linear_2008_8672" x1="0.25527" y1="117.67" x2="54.6879" y2="117.67" gradientUnits="userSpaceOnUse">
<stop stop-color="#7A1C0B"/>
<stop offset="0.9358" stop-color="#BC4408"/>
</linearGradient>
<linearGradient id="paint11_linear_2008_8672" x1="753.868" y1="116.895" x2="753.868" y2="164.806" gradientUnits="userSpaceOnUse">
<stop stop-color="#F2B100"/>
<stop offset="1" stop-color="#ED480B"/>
</linearGradient>
<linearGradient id="paint12_linear_2008_8672" x1="754.011" y1="119.767" x2="754.011" y2="172.468" gradientUnits="userSpaceOnUse">
<stop stop-color="#A32100"/>
<stop offset="1" stop-color="#D36C05"/>
</linearGradient>
<linearGradient id="paint13_linear_2008_8672" x1="690.156" y1="131.365" x2="696.147" y2="126.095" gradientUnits="userSpaceOnUse">
<stop offset="0.0642" stop-color="#BC4408"/>
<stop offset="1" stop-color="#7A1C0B"/>
</linearGradient>
<linearGradient id="paint14_linear_2008_8672" x1="733.827" y1="165.338" x2="703.696" y2="138.356" gradientUnits="userSpaceOnUse">
<stop stop-color="#7A1C0B"/>
<stop offset="0.9358" stop-color="#BC4408"/>
</linearGradient>
<linearGradient id="paint15_linear_2008_8672" x1="778.137" y1="124.458" x2="800.452" y2="128.159" gradientUnits="userSpaceOnUse">
<stop stop-color="#7A1C0B"/>
<stop offset="0.9358" stop-color="#BC4408"/>
</linearGradient>
<linearGradient id="paint16_linear_2008_8672" x1="760.085" y1="117.972" x2="759.722" y2="123.764" gradientUnits="userSpaceOnUse">
<stop stop-color="#FFF7C4"/>
<stop offset="1" stop-color="white"/>
</linearGradient>
<linearGradient id="paint17_linear_2008_8672" x1="755.076" y1="123.465" x2="754.082" y2="126.124" gradientUnits="userSpaceOnUse">
<stop stop-color="#FFF7C4"/>
<stop offset="1" stop-color="white"/>
</linearGradient>
<linearGradient id="paint18_linear_2008_8672" x1="822.466" y1="118.24" x2="768.033" y2="118.24" gradientUnits="userSpaceOnUse">
<stop stop-color="#7A1C0B"/>
<stop offset="0.9358" stop-color="#BC4408"/>
</linearGradient>
<linearGradient id="paint19_linear_2008_8672" x1="177.615" y1="170.237" x2="177.615" y2="115.958" gradientUnits="userSpaceOnUse">
<stop stop-color="#ED480B"/>
<stop offset="0.986" stop-color="#F2B100"/>
</linearGradient>
<linearGradient id="paint20_linear_2008_8672" x1="219.479" y1="102.861" x2="220.241" y2="89.0893" gradientUnits="userSpaceOnUse">
<stop stop-color="#A32100"/>
<stop offset="1" stop-color="#D36C05"/>
</linearGradient>
<linearGradient id="paint21_linear_2008_8672" x1="180.744" y1="156.393" x2="181.731" y2="124.714" gradientUnits="userSpaceOnUse">
<stop stop-color="#A32100"/>
<stop offset="1" stop-color="#D36C05"/>
</linearGradient>
<linearGradient id="paint22_linear_2008_8672" x1="133.5" y1="149.194" x2="193.143" y2="149.194" gradientUnits="userSpaceOnUse">
<stop offset="0.0642" stop-color="#BC4408"/>
<stop offset="1" stop-color="#7A1C0B"/>
</linearGradient>
<linearGradient id="paint23_linear_2008_8672" x1="196.003" y1="120.179" x2="186.863" y2="104.066" gradientUnits="userSpaceOnUse">
<stop stop-color="#A32100"/>
<stop offset="1" stop-color="#D36C05"/>
</linearGradient>
<linearGradient id="paint24_linear_2008_8672" x1="211.327" y1="82.0696" x2="204.233" y2="93.6747" gradientUnits="userSpaceOnUse">
<stop stop-color="#A32100"/>
<stop offset="1" stop-color="#D36C05"/>
</linearGradient>
<linearGradient id="paint25_linear_2008_8672" x1="211.715" y1="95.0119" x2="222.055" y2="103.107" gradientUnits="userSpaceOnUse">
<stop stop-color="#7A1C0B"/>
<stop offset="0.9358" stop-color="#BC4408"/>
</linearGradient>
<linearGradient id="paint26_linear_2008_8672" x1="215.217" y1="86.2709" x2="215.217" y2="79.7931" gradientUnits="userSpaceOnUse">
<stop stop-color="#7A1C0B"/>
<stop offset="0.9358" stop-color="#BC4408"/>
</linearGradient>
<linearGradient id="paint27_linear_2008_8672" x1="211.939" y1="71.4722" x2="217.36" y2="71.0216" gradientUnits="userSpaceOnUse">
<stop stop-color="white"/>
<stop offset="1" stop-color="#FFF7C4"/>
</linearGradient>
<linearGradient id="paint28_linear_2008_8672" x1="154.322" y1="135.414" x2="140.551" y2="124.112" gradientUnits="userSpaceOnUse">
<stop stop-color="#A32100"/>
<stop offset="1" stop-color="white"/>
</linearGradient>
<linearGradient id="paint29_linear_2008_8672" x1="121.788" y1="132.103" x2="153.016" y2="132.103" gradientUnits="userSpaceOnUse">
<stop stop-color="#D36C05"/>
<stop offset="1" stop-color="#A32100"/>
</linearGradient>
<linearGradient id="paint30_linear_2008_8672" x1="645.267" y1="171.029" x2="645.267" y2="116.75" gradientUnits="userSpaceOnUse">
<stop stop-color="#ED480B"/>
<stop offset="0.986" stop-color="#F2B100"/>
</linearGradient>
<linearGradient id="paint31_linear_2008_8672" x1="603.394" y1="103.653" x2="602.631" y2="89.881" gradientUnits="userSpaceOnUse">
<stop stop-color="#A32100"/>
<stop offset="1" stop-color="#D36C05"/>
</linearGradient>
<linearGradient id="paint32_linear_2008_8672" x1="642.137" y1="157.185" x2="641.15" y2="125.506" gradientUnits="userSpaceOnUse">
<stop stop-color="#A32100"/>
<stop offset="1" stop-color="#D36C05"/>
</linearGradient>
<linearGradient id="paint33_linear_2008_8672" x1="689.391" y1="149.986" x2="629.735" y2="149.986" gradientUnits="userSpaceOnUse">
<stop offset="0.0642" stop-color="#BC4408"/>
<stop offset="1" stop-color="#7A1C0B"/>
</linearGradient>
<linearGradient id="paint34_linear_2008_8672" x1="626.875" y1="120.97" x2="636.014" y2="104.856" gradientUnits="userSpaceOnUse">
<stop stop-color="#A32100"/>
<stop offset="1" stop-color="#D36C05"/>
</linearGradient>
<linearGradient id="paint35_linear_2008_8672" x1="611.547" y1="82.8616" x2="618.641" y2="94.4681" gradientUnits="userSpaceOnUse">
<stop stop-color="#A32100"/>
<stop offset="1" stop-color="#D36C05"/>
</linearGradient>
<linearGradient id="paint36_linear_2008_8672" x1="611.159" y1="95.8037" x2="600.819" y2="103.901" gradientUnits="userSpaceOnUse">
<stop stop-color="#7A1C0B"/>
<stop offset="0.9358" stop-color="#BC4408"/>
</linearGradient>
<linearGradient id="paint37_linear_2008_8672" x1="607.657" y1="87.0629" x2="607.657" y2="80.5851" gradientUnits="userSpaceOnUse">
<stop stop-color="#7A1C0B"/>
<stop offset="0.9358" stop-color="#BC4408"/>
</linearGradient>
<linearGradient id="paint38_linear_2008_8672" x1="610.935" y1="72.2641" x2="605.513" y2="71.8132" gradientUnits="userSpaceOnUse">
<stop stop-color="white"/>
<stop offset="1" stop-color="#FFF7C4"/>
</linearGradient>
<linearGradient id="paint39_linear_2008_8672" x1="668.565" y1="136.205" x2="682.337" y2="124.9" gradientUnits="userSpaceOnUse">
<stop stop-color="#A32100"/>
<stop offset="1" stop-color="white"/>
</linearGradient>
<linearGradient id="paint40_linear_2008_8672" x1="701.106" y1="132.895" x2="669.871" y2="132.895" gradientUnits="userSpaceOnUse">
<stop stop-color="#D36C05"/>
<stop offset="1" stop-color="#A32100"/>
</linearGradient>
<linearGradient id="paint41_linear_2008_8672" x1="302.699" y1="64.0676" x2="302.699" y2="23.4325" gradientUnits="userSpaceOnUse">
<stop stop-color="#ED480B"/>
<stop offset="0.986" stop-color="#F2B100"/>
</linearGradient>
<linearGradient id="paint42_linear_2008_8672" x1="358.191" y1="54.8297" x2="358.191" y2="20.1517" gradientUnits="userSpaceOnUse">
<stop stop-color="#7A1C0B"/>
<stop offset="0.9358" stop-color="#BC4408"/>
</linearGradient>
<linearGradient id="paint43_linear_2008_8672" x1="314.254" y1="21.9043" x2="380.104" y2="45.4572" gradientUnits="userSpaceOnUse">
<stop stop-color="#7A1C0B"/>
<stop offset="0.9358" stop-color="#BC4408"/>
</linearGradient>
<linearGradient id="paint44_linear_2008_8672" x1="294.796" y1="9.34207" x2="303.363" y2="8.45257" gradientUnits="userSpaceOnUse">
<stop stop-color="white"/>
<stop offset="1" stop-color="#FFF7C4"/>
</linearGradient>
<linearGradient id="paint45_linear_2008_8672" x1="203.991" y1="51.0126" x2="221.428" y2="51.0126" gradientUnits="userSpaceOnUse">
<stop offset="0.0642" stop-color="#BC4408"/>
<stop offset="1" stop-color="#7A1C0B"/>
</linearGradient>
<linearGradient id="paint46_linear_2008_8672" x1="518.87" y1="64.0676" x2="518.87" y2="23.4325" gradientUnits="userSpaceOnUse">
<stop stop-color="#ED480B"/>
<stop offset="0.986" stop-color="#F2B100"/>
</linearGradient>
<linearGradient id="paint47_linear_2008_8672" x1="463.377" y1="54.8297" x2="463.377" y2="20.1517" gradientUnits="userSpaceOnUse">
<stop stop-color="#7A1C0B"/>
<stop offset="0.9358" stop-color="#BC4408"/>
</linearGradient>
<linearGradient id="paint48_linear_2008_8672" x1="507.477" y1="23.2367" x2="454.362" y2="37.5911" gradientUnits="userSpaceOnUse">
<stop stop-color="#7A1C0B"/>
<stop offset="0.9358" stop-color="#BC4408"/>
</linearGradient>
<linearGradient id="paint49_linear_2008_8672" x1="526.772" y1="9.34207" x2="518.206" y2="8.45261" gradientUnits="userSpaceOnUse">
<stop stop-color="white"/>
<stop offset="1" stop-color="#FFF7C4"/>
</linearGradient>
<linearGradient id="paint50_linear_2008_8672" x1="617.578" y1="51.0126" x2="600.141" y2="51.0126" gradientUnits="userSpaceOnUse">
<stop offset="0.0642" stop-color="#BC4408"/>
<stop offset="1" stop-color="#7A1C0B"/>
</linearGradient>
<linearGradient id="paint51_linear_2008_8672" x1="410.867" y1="58.5856" x2="410.867" y2="0" gradientUnits="userSpaceOnUse">
<stop stop-color="#ED480B"/>
<stop offset="0.986" stop-color="#F2B100"/>
</linearGradient>
<linearGradient id="paint52_linear_2008_8672" x1="411.127" y1="9.12665" x2="426.229" y2="23.38" gradientUnits="userSpaceOnUse">
<stop stop-color="#7A1C0B"/>
<stop offset="0.9358" stop-color="#BC4408"/>
</linearGradient>
<radialGradient id="paint53_radial_2008_8672" cx="0" cy="0" r="1" gradientUnits="userSpaceOnUse" gradientTransform="translate(419.421 19.7727) scale(24.5293 25.7355)">
<stop stop-color="#FF6333"/>
<stop offset="1" stop-color="#DE1500"/>
</radialGradient>
<radialGradient id="paint54_radial_2008_8672" cx="0" cy="0" r="1" gradientUnits="userSpaceOnUse" gradientTransform="translate(407.428 32.6683) scale(12.4716 13.0848)">
<stop stop-color="#FF6333"/>
<stop offset="1" stop-color="#C91300"/>
</radialGradient>
<linearGradient id="paint55_linear_2008_8672" x1="410.715" y1="19.5094" x2="430.619" y2="19.5094" gradientUnits="userSpaceOnUse">
<stop stop-color="#400900"/>
<stop offset="1" stop-color="#FB8A77"/>
</linearGradient>
<linearGradient id="paint56_linear_2008_8672" x1="422.001" y1="50.7" x2="422.001" y2="29.0537" gradientUnits="userSpaceOnUse">
<stop stop-color="#7A1C0B"/>
<stop offset="0.9358" stop-color="#BC4408"/>
</linearGradient>
<linearGradient id="paint57_linear_2008_8672" x1="417.691" y1="10.0473" x2="426.362" y2="13.7195" gradientUnits="userSpaceOnUse">
<stop stop-color="white"/>
<stop offset="1" stop-color="#FFF7C4"/>
</linearGradient>
<linearGradient id="paint58_linear_2008_8672" x1="395.706" y1="58.5855" x2="395.706" y2="28.628" gradientUnits="userSpaceOnUse">
<stop offset="0.0642" stop-color="#BC4408"/>
<stop offset="1" stop-color="#7A1C0B"/>
</linearGradient>
<linearGradient id="paint59_linear_2008_8672" x1="426.027" y1="58.5855" x2="426.027" y2="28.628" gradientUnits="userSpaceOnUse">
<stop offset="0.0642" stop-color="#BC4408"/>
<stop offset="1" stop-color="#7A1C0B"/>
</linearGradient>
</defs>
</svg>
