<svg xmlns="http://www.w3.org/2000/svg" fill="none" viewBox="0 0 324 160"><path stroke="url(#a)" stroke-width="2" d="M12 17a9 9 0 0 1 9-9h282a9 9 0 0 1 9 9v120a9 9 0 0 1-9 9H21a9 9 0 0 1-9-9V17Z"/><path stroke="url(#b)" stroke-width="4" d="M21 5C14.373 5 9 10.373 9 17v120c0 6.627 5.373 12 12 12h282c6.627 0 12-5.373 12-12V17c0-6.627-5.373-12-12-12H21Z"/><g filter="url(#c)"><path stroke="url(#d)" stroke-width="2" d="M9 17c0-6.627 5.373-12 12-12h282c6.627 0 12 5.373 12 12v120c0 6.627-5.373 12-12 12H21c-6.627 0-12-5.373-12-12V17Z"/></g><g filter="url(#e)"><path stroke="url(#f)" d="M9 17c0-6.627 5.373-12 12-12h282c6.627 0 12 5.373 12 12v120c0 6.627-5.373 12-12 12H21c-6.627 0-12-5.373-12-12V17Z"/></g><path fill="url(#g)" d="M13.616 76.813 2.131 70.416 0 57.314l12.606 5.169 1.01 14.31v.02Z"/><path fill="url(#h)" d="m0 57.314 10.546 6.416 2.313 12.67c-.081-.442-6.061-10.227-6.061-10.227L0 57.314Z"/><path fill="url(#i)" d="m3.03 61.79.293 6.998 6.99 3.711-5.566-5.098L3.03 61.79Z" opacity=".5"/><path fill="url(#j)" d="m13.616 76.793-.768-.402-2.373-12.52L0 57.315l12.566 5.149.04.02 1.01 14.309Z"/><path fill="url(#k)" d="M3.03 61.79c.121.12 5.233 3.047 5.233 3.047l2.05 7.662-6.182-4.384-1.1-6.325Z"/><path fill="url(#l)" d="m3.192 61.89 5.05 2.866 1.93 7.21s-2.687-6.124-2.93-6.416c-.252-.281-3.888-3.55-4.05-3.66Z" opacity=".5"/><path fill="url(#m)" d="m13.616 76.793-.768-.402-2.373-12.52 2.09-1.407.04.02 1.011 14.309Z" opacity=".5"/><path fill="url(#n)" d="m.565 57.666 9.596 6.245.768 2.353-.384-2.544-9.98-6.054Z"/><path fill="url(#o)" d="M13.616 78.492 2.131 84.887 0 98l12.606-5.169 1.01-14.32v-.02Z"/><path fill="url(#p)" d="m0 98 10.546-6.416 2.313-12.67c-.081.443-6.061 10.227-6.061 10.227L0 98Z"/><path fill="url(#q)" d="m3.03 93.525.293-6.998 6.99-3.721-5.566 5.108-1.717 5.611Z" opacity=".5"/><path fill="url(#r)" d="m13.616 78.512-.768.412-2.373 12.52L0 98l12.566-5.159.04-.01 1.01-14.32Z"/><path fill="url(#s)" d="M3.03 93.525c.121-.12 5.233-3.047 5.233-3.047l2.05-7.662L4.131 87.2l-1.1 6.325Z"/><path fill="url(#t)" d="m3.192 93.425 5.05-2.866 1.93-7.21s-2.687 6.124-2.93 6.415c-.252.282-3.888 3.55-4.05 3.66Z" opacity=".5"/><path fill="url(#u)" d="m13.616 78.512-.768.413-2.373 12.519 2.09 1.398.04-.01 1.011-14.32Z" opacity=".5"/><path fill="url(#v)" d="m.565 97.648 9.596-6.244.768-2.363-.384 2.544-9.98 6.063Z"/><path fill="url(#w)" d="M16 77.527c0-3.982-3.243-7.21-7.243-7.21s-7.242 3.228-7.242 7.21c0 3.982 3.242 7.21 7.242 7.21S16 81.51 16 77.527Z"/><path fill="url(#x)" d="M3.434 82.374c1.02.915 2.363 1.499 3.848 1.499 3.182 0 5.768-2.575 5.768-5.742 0-3.168-2.586-5.742-5.768-5.742a5.744 5.744 0 0 0-5.737 5.44c0-.1-.03-.201-.03-.302 0-3.982 3.242-7.21 7.242-7.21S16 73.545 16 77.527c0 3.982-3.242 7.21-7.242 7.21-2.111 0-4-.925-5.323-2.363Z" opacity=".5"/><path fill="url(#y)" d="M3.283 79.327c-.343-1.347 1.93-2.453 2.576-.734.646 1.72 1.838 2.062.535 2.353-1.303.292-2.757-.23-3.11-1.619Z"/><path fill="url(#z)" d="m310.384 76.813 11.485-6.396L324 57.314l-12.606 5.169-1.01 14.31v.02Z"/><path fill="url(#A)" d="m324 57.314-10.545 6.416-2.314 12.67c.081-.442 6.061-10.227 6.061-10.227L324 57.314Z"/><path fill="url(#B)" d="m320.97 61.79-.293 6.998-6.99 3.711 5.566-5.098 1.717-5.611Z" opacity=".5"/><path fill="url(#C)" d="m310.384 76.793.768-.402 2.373-12.52L324 57.315l-12.566 5.149-.04.02-1.01 14.309Z"/><path fill="url(#D)" d="M320.97 61.79c-.121.12-5.233 3.047-5.233 3.047l-2.05 7.662 6.182-4.384 1.101-6.325Z"/><path fill="url(#E)" d="m320.808 61.89-5.051 2.866-1.929 7.21s2.687-6.124 2.929-6.416c.253-.281 3.889-3.55 4.051-3.66Z" opacity=".5"/><path fill="url(#F)" d="m310.384 76.793.768-.402 2.373-12.52-2.091-1.407-.04.02-1.01 14.309Z" opacity=".5"/><path fill="url(#G)" d="m323.435 57.666-9.596 6.245-.768 2.353.384-2.544 9.98-6.054Z"/><path fill="url(#H)" d="m310.384 78.492 11.485 6.395L324 98l-12.606-5.169-1.01-14.32v-.02Z"/><path fill="url(#I)" d="m324 98-10.545-6.416-2.314-12.67c.081.443 6.061 10.227 6.061 10.227L324 98Z"/><path fill="url(#J)" d="m320.97 93.525-.293-6.998-6.99-3.721 5.566 5.108 1.717 5.611Z" opacity=".5"/><path fill="url(#K)" d="m310.384 78.512.768.412 2.373 12.52L324 98l-12.566-5.159-.04-.01-1.01-14.32Z"/><path fill="url(#L)" d="M320.97 93.525c-.121-.12-5.233-3.047-5.233-3.047l-2.05-7.662 6.182 4.384 1.101 6.325Z"/><path fill="url(#M)" d="m320.808 93.425-5.051-2.866-1.929-7.21s2.687 6.124 2.929 6.415c.253.282 3.889 3.55 4.051 3.66Z" opacity=".5"/><path fill="url(#N)" d="m310.384 78.512.768.413 2.373 12.519-2.091 1.398-.04-.01-1.01-14.32Z" opacity=".5"/><path fill="url(#O)" d="m323.435 97.648-9.596-6.244-.768-2.363.384 2.544 9.98 6.063Z"/><path fill="url(#P)" d="M308.001 77.527c0-3.982 3.242-7.21 7.242-7.21s7.242 3.228 7.242 7.21c0 3.982-3.242 7.21-7.242 7.21s-7.242-3.228-7.242-7.21Z"/><path fill="url(#Q)" d="M320.566 82.374c-1.02.915-2.363 1.499-3.848 1.499-3.182 0-5.768-2.575-5.768-5.742 0-3.168 2.586-5.742 5.768-5.742a5.744 5.744 0 0 1 5.737 5.44c0-.1.03-.201.03-.302 0-3.982-3.242-7.21-7.242-7.21s-7.242 3.228-7.242 7.21c0 3.982 3.242 7.21 7.242 7.21 2.111 0 4-.925 5.323-2.363Z" opacity=".5"/><path fill="url(#R)" d="M320.717 79.327c.343-1.347-1.929-2.453-2.576-.734-.646 1.72-1.838 2.062-.535 2.353 1.303.292 2.757-.23 3.111-1.619Z"/><path fill="#F9BB46" d="M162.5 148.728c-9.055 0-20.051.296-34.5.864-.048 0 28.203 1.256 34.5 1.256 6.305 0 34.556-1.248 34.5-1.256-14.449-.568-25.453-.864-34.5-.864Z" opacity=".5"/><path fill="url(#S)" d="M162.38 159.362v-8.137l-6.713 3.656 6.713 4.481Z"/><path fill="#F2C801" d="m162.38 159.361 6.721-4.48s-1.734-2.593-5.458-3.713c-.56 0-1.263.056-1.263.056v8.137Z"/><path fill="#F9BB46" d="m162.38 151.225.479 4.096c.144 1.265 1.111 2.041 2.542 1.593l1.67-.68-4.691 3.128v-8.137Z" opacity=".8"/><path fill="url(#T)" d="M162.356 145h-.967l-10.125 8.145s-4.052-2.096-9.319-6.745c-3.348.192-5.961.224-9.773-.072-1.399 1.08-3.597 3.041-3.597 3.041-.175.944-.104 4.337 0 5.345.871 1.328 2.965 3.88 5.131 5.209 1.958.136 4.955.072 5.938-.208a29.2 29.2 0 0 0 2.094-2.409s.559-3.912-.943-5.313a36.3 36.3 0 0 1 1.294.024s4.436 3.577 9.95 6.057c2.062-2.272 10.317-11.634 10.317-11.634V145Z"/><path fill="#7A2B0B" d="M142.433 155.234c.168-.784-.152-2.016-.344-2.224.176.008.392 0 .392 0 .328.392 1.886 2.128 1.886 2.128l2.294-.104-4.492-3.224s-1.846 0-1.846.064 1.271 3.408 1.271 3.408l.839-.048Z" opacity=".35"/><path fill="url(#U)" d="M141.722 149.089c.711 1.784 7.28 6.881 9.869 6.921-.871-.664-1.502-3.112-.311-2.864 0 0-5.131-2.849-9.319-6.746.128.769-.008 1.553-.239 2.689Z" opacity=".2"/><path fill="url(#V)" d="M151.583 156.011c-3.732-1.921-7.6-4.889-9.87-6.922-1.957.296-6.233.376-8.119.096-1.231 2.529.695 5.849 1.678 6.289 1.047 0 1.535-.08 2.725-.888-1.071.136-2.277-.136-2.277-.136s-.927-1.12-1.231-3.048c-.136 0 4.012-.032 5.163 0 1.047 1.464 1.047 3.704.383 5.905-.519.472-3.556 1.12-5.338 1.328-2.342-.768-4.611-3.393-5.307-4.193l-.903-1.936c.016.92.056 1.784.096 2.216.871 1.329 2.965 3.881 5.131 5.209 1.958.136 4.955.072 5.93-.208 1.254-1.296 2.093-2.408 2.093-2.408s.56-3.913-.943-5.313c.696 0 1.295.024 1.295.024s4.435 3.576 9.95 6.057c2.062-2.272 10.317-11.634 10.317-11.634v-.768c-2.206 2.432-9.023 9.281-10.773 10.33Z"/><path fill="#F9BB46" d="M137.997 154.594c-.336-1.024.008-3.088 1.654-3.192-1.686-.016-5.163 0-5.163 0-.351 1.192 1.231 3.056 1.231 3.056s1.079.28 2.278.136Z" opacity=".5"/><path fill="url(#W)" d="M135.272 155.474c1.047 0 1.534-.08 2.725-.888-1.071.136-2.277-.136-2.277-.136s-.927-1.12-1.231-3.049l-1.071 1.097c.392 1.48 1.287 2.72 1.854 2.976Z"/><path fill="#7A2B0B" d="m155.619 154.834 2.789-3.633 2.781-2.48h-1.206s-2.462 2.328-2.558 2.488c-.096.16-3.332 3.625-3.332 3.625h1.526Z" opacity=".35"/><path fill="url(#X)" d="m133.594 149.185.887 2.216c.12-.008 4.052-.032 5.162 0 0 0 .832.216 1.151.592.695 0 1.295.024 1.295.024l-.368-2.928c-1.958.296-6.241.376-8.127.096Z"/><path fill="url(#Y)" d="M162.356 145.664c-2.214 2.449-9.031 9.298-10.773 10.346l.456 2.064c2.061-2.272 10.317-11.634 10.317-11.634v-.776Z"/><path fill="url(#Z)" d="m134.689 158.634-.975 1.296c1.958.136 4.955.072 5.93-.208.072-.136.383-2.409.383-2.409-.519.465-3.556 1.105-5.338 1.321Z"/><path fill="#F9BB46" d="M133.593 149.185c-.655-.584-1.654-1.745-1.422-2.857 2.014.224 6.449.336 9.774.072.247.896-.232 2.689-.232 2.689-1.391.328-5.53.352-8.12.096Z" opacity=".5"/><path fill="url(#aa)" d="M140.515 146.984c.008.16-.48.312-1.095.344-.608.032-1.111-.072-1.119-.232-.008-.16.479-.311 1.095-.343.607-.024 1.111.072 1.119.231Z"/><path fill="#F9BB46" d="M128.584 149.369c1.726-1.225 3.572-2.529 3.572-2.529s4.332.048 6.306-.28c-2.526 0-4.628-.072-6.282-.232-.863.688-3.596 3.041-3.596 3.041ZM134.689 158.634c1.782-.208 4.819-.856 5.338-1.328.16-.536.288-1.08.36-1.617-.128.745-.504 1.233-1.087 1.617-1.143.416-3.045.872-4.619 1.064-1.279-.44-2.238-1.136-3.66-2.184 1.022.96 2.333 2.008 3.668 2.448ZM135.711 154.45c-.247-.632-.591-1.872-.639-2.624.328-.184 3.285-.448 3.285-.448l-3.876.016c-.016.904.951 2.896 1.23 3.056Z"/><path fill="url(#ab)" d="M162.356 145h.967l10.126 8.145s4.052-2.096 9.318-6.745c3.349.192 5.962.224 9.774-.072 1.398 1.08 3.596 3.041 3.596 3.041.176.944.104 4.337 0 5.345-.871 1.328-2.965 3.88-5.131 5.209-1.957.136-4.954.072-5.937-.208-1.255-1.297-2.094-2.409-2.094-2.409s-.56-3.912.943-5.313c-.695 0-1.287.024-1.287.024s-4.435 3.577-9.949 6.057c-2.062-2.272-10.318-11.634-10.318-11.634V145h-.008Z"/><path fill="#7A2B0B" d="M182.271 155.234c-.223-.936.16-2.016.352-2.224-.176.008-.392 0-.392 0a173.16 173.16 0 0 1-1.87 2.112l-2.221-.08 4.411-3.232s1.846 0 1.846.064-1.279 3.4-1.279 3.4l-.847-.04Z" opacity=".35"/><path fill="url(#ac)" d="M182.999 149.089c-.712 1.784-7.281 6.881-9.87 6.921.871-.664 1.502-3.112.312-2.864 0 0 5.13-2.849 9.318-6.746-.128.769.008 1.553.24 2.689Z" opacity=".2"/><path fill="url(#ad)" d="M173.137 156.011c3.732-1.921 7.6-4.889 9.87-6.922 1.958.296 6.233.376 8.119.096 1.231 2.529-.695 5.849-1.678 6.289-1.047 0-1.534-.08-2.725-.888 1.071.136 2.277-.136 2.277-.136s.927-1.12 1.231-3.048c.136 0-4.012-.032-5.162 0-1.047 1.464-1.047 3.704-.384 5.905.519.472 3.564 1.12 5.338 1.328 2.342-.768 4.612-3.393 5.307-4.193l.903-1.936c-.016.92-.056 1.784-.096 2.216-.871 1.329-2.965 3.881-5.131 5.209-1.958.136-4.955.072-5.937-.208-1.255-1.296-2.094-2.408-2.094-2.408s-.56-3.913.943-5.313c-.696 0-1.287.024-1.287.024s-4.435 3.576-9.95 6.057c-2.061-2.272-10.317-11.634-10.317-11.634v-.768c2.206 2.432 9.023 9.281 10.773 10.33Z"/><path fill="#F9BB46" d="M186.723 154.594c.335-1.024-.008-3.088-1.655-3.192 1.687-.016 5.163 0 5.163 0 .352 1.192-1.231 3.056-1.231 3.056s-1.079.28-2.277.136Z" opacity=".5"/><path fill="url(#ae)" d="M189.448 155.474c-1.047 0-1.535-.08-2.725-.888 1.071.136 2.277-.136 2.277-.136s.927-1.12 1.231-3.049l1.071 1.097c-.4 1.48-1.287 2.72-1.854 2.976Z"/><path fill="#7A2B0B" d="m169.1 154.834-2.789-3.633-2.781-2.48h1.207s2.461 2.328 2.557 2.488c.096.16 3.405 3.625 3.405 3.625H169.1Z" opacity=".35"/><path fill="url(#af)" d="m191.118 149.185-.887 2.216c-.12-.008-4.052-.032-5.163 0 0 0-.831.216-1.15.592-.696 0-1.287.024-1.287.024l.367-2.928c1.958.296 6.234.376 8.12.096Z"/><path fill="url(#ag)" d="M162.356 145.664c2.214 2.449 9.031 9.298 10.773 10.346l-.455 2.064c-2.062-2.272-10.318-11.634-10.318-11.634v-.776Z"/><path fill="url(#ah)" d="m190.023 158.634.975 1.296c-1.958.136-4.955.072-5.938-.208-.072-.136-.383-2.409-.383-2.409.527.465 3.572 1.105 5.346 1.321Z"/><path fill="#F9BB46" d="M191.119 149.185c.655-.584 1.654-1.745 1.422-2.857-2.014.224-6.449.336-9.774.072-.247.896.232 2.689.232 2.689 1.399.328 5.538.352 8.12.096Z" opacity=".5"/><path fill="url(#ai)" d="M184.205 146.984c-.008.16.48.312 1.095.344.607.032 1.111-.072 1.119-.232.008-.16-.48-.311-1.095-.343-.607-.024-1.111.072-1.119.231Z"/><path fill="#F9BB46" d="M196.136 149.369a2279.616 2279.616 0 0 0-3.572-2.529s-4.331.048-6.305-.28c2.525 0 4.627-.072 6.281-.232.855.688 3.596 3.041 3.596 3.041ZM190.022 158.634c-1.782-.208-4.819-.856-5.338-1.328-.16-.536-.288-1.08-.36-1.617.128.745.504 1.233 1.087 1.617 1.143.416 3.045.872 4.619 1.064 1.279-.44 2.238-1.136 3.66-2.184-1.015.96-2.325 2.008-3.668 2.448ZM189.001 154.45c.247-.632.591-1.872.639-2.624-.328-.184-3.285-.448-3.285-.448l3.876.016c.024.904-.951 2.896-1.23 3.056Z"/><defs><linearGradient id="a" x1="162" x2="162" y1="-1.636" y2="132" gradientUnits="userSpaceOnUse"><stop stop-color="#BC8307"/><stop offset="1" stop-color="#FFD95E"/></linearGradient><linearGradient id="b" x1="162" x2="162" y1="-1.636" y2="132" gradientUnits="userSpaceOnUse"><stop stop-color="#F6C424"/><stop offset="1" stop-color="#E8A208"/></linearGradient><linearGradient id="d" x1="162" x2="162" y1="-3.191" y2="147.192" gradientUnits="userSpaceOnUse"><stop stop-color="#FFEAA6"/><stop offset="1" stop-color="#FFC340"/></linearGradient><linearGradient id="f" x1="162" x2="162" y1="-3.191" y2="147.192" gradientUnits="userSpaceOnUse"><stop stop-color="#FFEAA6"/><stop offset="1" stop-color="#FFC340"/></linearGradient><linearGradient id="g" x1="-7.065" x2="23.457" y1="76.944" y2="55.009" gradientUnits="userSpaceOnUse"><stop stop-color="#D1641B"/><stop offset=".74" stop-color="#FFD043"/><stop offset="1" stop-color="#FFBB41"/></linearGradient><linearGradient id="h" x1="9.97" x2="3.369" y1="63.91" y2="69.45" gradientUnits="userSpaceOnUse"><stop stop-color="#D1641B"/><stop offset=".74" stop-color="#FFD043"/><stop offset="1" stop-color="#FFBB41"/></linearGradient><linearGradient id="i" x1="8.897" x2="-.38" y1="73.034" y2="60.355" gradientUnits="userSpaceOnUse"><stop stop-color="#F29F2B"/><stop offset="1" stop-color="#8D3316"/></linearGradient><linearGradient id="j" x1="12.252" x2="2.079" y1="71.105" y2="51.766" gradientUnits="userSpaceOnUse"><stop stop-color="#D1641B"/><stop offset=".74" stop-color="#FFD043"/><stop offset="1" stop-color="#FFBB41"/></linearGradient><linearGradient id="k" x1="10.285" x2="1.008" y1="72.019" y2="59.34" gradientUnits="userSpaceOnUse"><stop stop-color="#D1641B"/><stop offset=".74" stop-color="#FFD043"/><stop offset="1" stop-color="#FFBB41"/></linearGradient><linearGradient id="l" x1="11.042" x2="2.261" y1="70.858" y2="58.858" gradientUnits="userSpaceOnUse"><stop stop-color="#F2D144"/><stop offset="1" stop-color="#FFF9A4"/></linearGradient><linearGradient id="m" x1="11.432" x2="12.533" y1="62.044" y2="73.721" gradientUnits="userSpaceOnUse"><stop stop-color="#F9C541"/><stop offset="1" stop-color="#D4471D"/></linearGradient><linearGradient id="n" x1="5.26" x2="5.991" y1="56.868" y2="64.621" gradientUnits="userSpaceOnUse"><stop stop-color="#fff"/><stop offset="1" stop-color="#FFFBC6"/></linearGradient><linearGradient id="o" x1="-7.064" x2="23.457" y1="78.368" y2="100.303" gradientUnits="userSpaceOnUse"><stop stop-color="#D1641B"/><stop offset=".74" stop-color="#FFD043"/><stop offset="1" stop-color="#FFBB41"/></linearGradient><linearGradient id="p" x1="9.97" x2="3.368" y1="91.402" y2="85.862" gradientUnits="userSpaceOnUse"><stop stop-color="#D1641B"/><stop offset=".74" stop-color="#FFD043"/><stop offset="1" stop-color="#FFBB41"/></linearGradient><linearGradient id="q" x1="8.897" x2="-.38" y1="82.279" y2="94.957" gradientUnits="userSpaceOnUse"><stop stop-color="#F29F2B"/><stop offset="1" stop-color="#8D3316"/></linearGradient><linearGradient id="r" x1="12.252" x2="2.079" y1="84.208" y2="103.547" gradientUnits="userSpaceOnUse"><stop stop-color="#D1641B"/><stop offset=".74" stop-color="#FFD043"/><stop offset="1" stop-color="#FFBB41"/></linearGradient><linearGradient id="s" x1="10.285" x2="1.008" y1="83.294" y2="95.973" gradientUnits="userSpaceOnUse"><stop stop-color="#D1641B"/><stop offset=".74" stop-color="#FFD043"/><stop offset="1" stop-color="#FFBB41"/></linearGradient><linearGradient id="t" x1="11.042" x2="2.261" y1="84.454" y2="96.454" gradientUnits="userSpaceOnUse"><stop stop-color="#F2D144"/><stop offset="1" stop-color="#FFF9A4"/></linearGradient><linearGradient id="u" x1="11.432" x2="12.533" y1="93.269" y2="81.592" gradientUnits="userSpaceOnUse"><stop stop-color="#F6BA3B"/><stop offset="1" stop-color="#D4471D"/></linearGradient><linearGradient id="v" x1="5.26" x2="5.992" y1="98.444" y2="90.691" gradientUnits="userSpaceOnUse"><stop stop-color="#fff"/><stop offset="1" stop-color="#FFFBC6"/></linearGradient><linearGradient id="x" x1="8.685" x2="7.306" y1="79.715" y2="70.116" gradientUnits="userSpaceOnUse"><stop stop-color="#D4471D"/><stop offset="1" stop-color="#FFFB8F"/></linearGradient><linearGradient id="y" x1="5.112" x2="5.112" y1="77.711" y2="81.023" gradientUnits="userSpaceOnUse"><stop stop-color="#fff"/><stop offset="1" stop-color="#FFFBC6"/></linearGradient><linearGradient id="z" x1="331.065" x2="300.543" y1="76.944" y2="55.009" gradientUnits="userSpaceOnUse"><stop stop-color="#D1641B"/><stop offset=".74" stop-color="#FFD043"/><stop offset="1" stop-color="#FFBB41"/></linearGradient><linearGradient id="A" x1="314.03" x2="320.631" y1="63.91" y2="69.45" gradientUnits="userSpaceOnUse"><stop stop-color="#D1641B"/><stop offset=".74" stop-color="#FFD043"/><stop offset="1" stop-color="#FFBB41"/></linearGradient><linearGradient id="B" x1="315.103" x2="324.38" y1="73.034" y2="60.355" gradientUnits="userSpaceOnUse"><stop stop-color="#F29F2B"/><stop offset="1" stop-color="#8D3316"/></linearGradient><linearGradient id="C" x1="311.748" x2="321.921" y1="71.105" y2="51.766" gradientUnits="userSpaceOnUse"><stop stop-color="#D1641B"/><stop offset=".74" stop-color="#FFD043"/><stop offset="1" stop-color="#FFBB41"/></linearGradient><linearGradient id="D" x1="313.715" x2="322.992" y1="72.019" y2="59.34" gradientUnits="userSpaceOnUse"><stop stop-color="#D1641B"/><stop offset=".74" stop-color="#FFD043"/><stop offset="1" stop-color="#FFBB41"/></linearGradient><linearGradient id="E" x1="312.958" x2="321.739" y1="70.858" y2="58.858" gradientUnits="userSpaceOnUse"><stop stop-color="#F2D144"/><stop offset="1" stop-color="#FFF9A4"/></linearGradient><linearGradient id="F" x1="312.568" x2="311.467" y1="62.044" y2="73.721" gradientUnits="userSpaceOnUse"><stop stop-color="#F9C541"/><stop offset="1" stop-color="#D4471D"/></linearGradient><linearGradient id="G" x1="318.74" x2="318.009" y1="56.868" y2="64.621" gradientUnits="userSpaceOnUse"><stop stop-color="#fff"/><stop offset="1" stop-color="#FFFBC6"/></linearGradient><linearGradient id="H" x1="331.064" x2="300.543" y1="78.368" y2="100.303" gradientUnits="userSpaceOnUse"><stop stop-color="#D1641B"/><stop offset=".74" stop-color="#FFD043"/><stop offset="1" stop-color="#FFBB41"/></linearGradient><linearGradient id="I" x1="314.03" x2="320.632" y1="91.402" y2="85.862" gradientUnits="userSpaceOnUse"><stop stop-color="#D1641B"/><stop offset=".74" stop-color="#FFD043"/><stop offset="1" stop-color="#FFBB41"/></linearGradient><linearGradient id="J" x1="315.103" x2="324.38" y1="82.279" y2="94.957" gradientUnits="userSpaceOnUse"><stop stop-color="#F29F2B"/><stop offset="1" stop-color="#8D3316"/></linearGradient><linearGradient id="K" x1="311.749" x2="321.921" y1="84.208" y2="103.547" gradientUnits="userSpaceOnUse"><stop stop-color="#D1641B"/><stop offset=".74" stop-color="#FFD043"/><stop offset="1" stop-color="#FFBB41"/></linearGradient><linearGradient id="L" x1="313.715" x2="322.992" y1="83.294" y2="95.973" gradientUnits="userSpaceOnUse"><stop stop-color="#D1641B"/><stop offset=".74" stop-color="#FFD043"/><stop offset="1" stop-color="#FFBB41"/></linearGradient><linearGradient id="M" x1="312.958" x2="321.739" y1="84.454" y2="96.454" gradientUnits="userSpaceOnUse"><stop stop-color="#F2D144"/><stop offset="1" stop-color="#FFF9A4"/></linearGradient><linearGradient id="N" x1="312.568" x2="311.467" y1="93.269" y2="81.592" gradientUnits="userSpaceOnUse"><stop stop-color="#F6BA3B"/><stop offset="1" stop-color="#D4471D"/></linearGradient><linearGradient id="O" x1="318.74" x2="318.008" y1="98.444" y2="90.691" gradientUnits="userSpaceOnUse"><stop stop-color="#fff"/><stop offset="1" stop-color="#FFFBC6"/></linearGradient><linearGradient id="Q" x1="315.315" x2="316.694" y1="79.715" y2="70.116" gradientUnits="userSpaceOnUse"><stop stop-color="#D4471D"/><stop offset="1" stop-color="#FFFB8F"/></linearGradient><linearGradient id="R" x1="318.888" x2="318.888" y1="77.711" y2="81.023" gradientUnits="userSpaceOnUse"><stop stop-color="#fff"/><stop offset="1" stop-color="#FFFBC6"/></linearGradient><linearGradient id="S" x1="155.668" x2="162.378" y1="155.295" y2="155.295" gradientUnits="userSpaceOnUse"><stop stop-color="#7A2B0B"/><stop offset=".936" stop-color="#BC5C08"/></linearGradient><linearGradient id="T" x1="145.418" x2="145.418" y1="147.763" y2="158.576" gradientUnits="userSpaceOnUse"><stop offset=".014" stop-color="#F2D100"/><stop offset="1" stop-color="#ED660B"/></linearGradient><linearGradient id="U" x1="151.71" x2="144.131" y1="150.815" y2="151.413" gradientUnits="userSpaceOnUse"><stop stop-color="#7A2B0B"/><stop offset=".936" stop-color="#BC5C08"/></linearGradient><linearGradient id="V" x1="128.484" x2="162.359" y1="152.831" y2="152.831" gradientUnits="userSpaceOnUse"><stop stop-color="#A33700"/><stop offset="1" stop-color="#D38705"/></linearGradient><linearGradient id="W" x1="133.411" x2="137.995" y1="153.437" y2="153.437" gradientUnits="userSpaceOnUse"><stop stop-color="#7A2B0B"/><stop offset=".936" stop-color="#BC5C08"/></linearGradient><linearGradient id="X" x1="134.621" x2="143.114" y1="150.554" y2="150.554" gradientUnits="userSpaceOnUse"><stop stop-color="#7A2B0B"/><stop offset=".936" stop-color="#BC5C08"/></linearGradient><linearGradient id="Y" x1="152.067" x2="157.204" y1="156.781" y2="151.545" gradientUnits="userSpaceOnUse"><stop stop-color="#7A2B0B"/><stop offset=".936" stop-color="#BC5C08"/></linearGradient><linearGradient id="Z" x1="140.5" x2="135.195" y1="158.501" y2="158.92" gradientUnits="userSpaceOnUse"><stop stop-color="#7A2B0B"/><stop offset=".936" stop-color="#BC5C08"/></linearGradient><linearGradient id="aa" x1="138.306" x2="140.511" y1="147.169" y2="146.959" gradientUnits="userSpaceOnUse"><stop stop-color="#fff"/><stop offset="1" stop-color="#FFFFC4"/></linearGradient><linearGradient id="ab" x1="179.301" x2="179.301" y1="147.763" y2="158.576" gradientUnits="userSpaceOnUse"><stop offset=".014" stop-color="#F2D100"/><stop offset="1" stop-color="#ED660B"/></linearGradient><linearGradient id="ac" x1="173.008" x2="180.587" y1="150.815" y2="151.413" gradientUnits="userSpaceOnUse"><stop stop-color="#7A2B0B"/><stop offset=".936" stop-color="#BC5C08"/></linearGradient><linearGradient id="ad" x1="196.234" x2="162.359" y1="152.831" y2="152.831" gradientUnits="userSpaceOnUse"><stop stop-color="#A33700"/><stop offset="1" stop-color="#D38705"/></linearGradient><linearGradient id="ae" x1="191.307" x2="186.723" y1="153.437" y2="153.437" gradientUnits="userSpaceOnUse"><stop stop-color="#7A2B0B"/><stop offset=".936" stop-color="#BC5C08"/></linearGradient><linearGradient id="af" x1="190.097" x2="181.604" y1="150.554" y2="150.554" gradientUnits="userSpaceOnUse"><stop stop-color="#7A2B0B"/><stop offset=".936" stop-color="#BC5C08"/></linearGradient><linearGradient id="ag" x1="172.651" x2="167.514" y1="156.781" y2="151.545" gradientUnits="userSpaceOnUse"><stop stop-color="#7A2B0B"/><stop offset=".936" stop-color="#BC5C08"/></linearGradient><linearGradient id="ah" x1="184.218" x2="189.523" y1="158.501" y2="158.92" gradientUnits="userSpaceOnUse"><stop stop-color="#7A2B0B"/><stop offset=".936" stop-color="#BC5C08"/></linearGradient><linearGradient id="ai" x1="186.411" x2="184.206" y1="147.169" y2="146.959" gradientUnits="userSpaceOnUse"><stop stop-color="#fff"/><stop offset="1" stop-color="#FFFFC4"/></linearGradient><radialGradient id="w" cx="0" cy="0" r="1" gradientTransform="matrix(0 9.76186 -9.80576 0 4.647 76.05)" gradientUnits="userSpaceOnUse"><stop stop-color="#FFBB41"/><stop offset=".26" stop-color="#FFD043"/><stop offset="1" stop-color="#CF772D"/></radialGradient><radialGradient id="P" cx="0" cy="0" r="1" gradientTransform="matrix(0 9.76186 -9.80576 0 319.353 76.05)" gradientUnits="userSpaceOnUse"><stop stop-color="#FFBB41"/><stop offset=".26" stop-color="#FFD043"/><stop offset="1" stop-color="#CF772D"/></radialGradient><filter id="c" width="316" height="154" x="4" y="0" color-interpolation-filters="sRGB" filterUnits="userSpaceOnUse"><feFlood flood-opacity="0" result="BackgroundImageFix"/><feBlend in="SourceGraphic" in2="BackgroundImageFix" result="shape"/><feGaussianBlur result="effect1_foregroundBlur_2003_24301" stdDeviation="2"/></filter><filter id="e" width="309" height="147" x="7.5" y="3.5" color-interpolation-filters="sRGB" filterUnits="userSpaceOnUse"><feFlood flood-opacity="0" result="BackgroundImageFix"/><feBlend in="SourceGraphic" in2="BackgroundImageFix" result="shape"/><feGaussianBlur result="effect1_foregroundBlur_2003_24301" stdDeviation=".5"/></filter></defs></svg>