<svg width="324" height="184" viewBox="0 0 324 184" fill="none" xmlns="http://www.w3.org/2000/svg">
<path d="M12 17C12 12.0294 16.0294 8 21 8H303C307.971 8 312 12.0294 312 17V167C312 171.971 307.971 176 303 176H21C16.0294 176 12 171.971 12 167V17Z" stroke="url(#paint0_linear_2002_22918)" stroke-width="2"/>
<path d="M21 5C14.3726 5 9 10.3726 9 17V167C9 173.627 14.3726 179 21 179H303C309.627 179 315 173.627 315 167V17C315 10.3726 309.627 5 303 5H21Z" stroke="url(#paint1_linear_2002_22918)" stroke-width="4"/>
<g filter="url(#filter0_f_2002_22918)">
<path d="M9 17C9 10.3726 14.3726 5 21 5H303C309.627 5 315 10.3726 315 17V167C315 173.627 309.627 179 303 179H21C14.3726 179 9 173.627 9 167V17Z" stroke="url(#paint2_linear_2002_22918)" stroke-width="2"/>
</g>
<g filter="url(#filter1_f_2002_22918)">
<path d="M9 17C9 10.3726 14.3726 5 21 5H303C309.627 5 315 10.3726 315 17V167C315 173.627 309.627 179 303 179H21C14.3726 179 9 173.627 9 167V17Z" stroke="url(#paint3_linear_2002_22918)"/>
</g>
<path d="M13.6162 91.8125L2.13131 85.417L-8.52292e-07 72.3143L12.6061 77.483L13.6162 91.7924L13.6162 91.8125Z" fill="url(#paint4_linear_2002_22918)"/>
<path d="M-8.34749e-07 72.3143L10.5455 78.7299C10.5455 78.7299 12.9394 91.8426 12.8586 91.4002C12.7778 90.9577 6.79798 81.1734 6.79798 81.1734L-8.34749e-07 72.3143Z" fill="url(#paint5_linear_2002_22918)"/>
<path opacity="0.5" d="M3.03027 76.7896L3.3232 83.7884L10.3131 87.499L4.74744 82.4007L3.03027 76.7896Z" fill="url(#paint6_linear_2002_22918)"/>
<path d="M13.6162 91.793L12.8485 91.3907L10.4747 78.8713L-8.51413e-07 72.3149L12.5657 77.4635L12.6061 77.4836L13.6162 91.793Z" fill="url(#paint7_linear_2002_22918)"/>
<path d="M3.03027 76.7896C3.15149 76.9103 8.2626 79.8365 8.2626 79.8365L10.3131 87.499L4.13128 83.1147L3.03027 76.7896Z" fill="url(#paint8_linear_2002_22918)"/>
<path opacity="0.5" d="M3.19238 76.8899L8.24289 79.7558L10.1722 86.9658C10.1722 86.9658 7.48531 80.8418 7.24289 80.5502C6.99036 80.2687 3.354 77.0005 3.19238 76.8899Z" fill="url(#paint9_linear_2002_22918)"/>
<path opacity="0.5" d="M13.616 91.793L12.8483 91.3907L10.4746 78.8713L12.5655 77.4635L12.6059 77.4836L13.616 91.793Z" fill="url(#paint10_linear_2002_22918)"/>
<path d="M0.565429 72.666L10.1614 78.9106L10.9291 81.2637L10.5452 78.7196L0.565429 72.666Z" fill="url(#paint11_linear_2002_22918)"/>
<path d="M13.6162 93.4918L2.13131 99.8873L0 113L12.6061 107.831L13.6162 93.5119L13.6162 93.4918Z" fill="url(#paint12_linear_2002_22918)"/>
<path d="M0 113L10.5455 106.584C10.5455 106.584 12.9394 93.4717 12.8586 93.9141C12.7778 94.3566 6.79798 104.141 6.79798 104.141L0 113Z" fill="url(#paint13_linear_2002_22918)"/>
<path opacity="0.5" d="M3.03027 108.525L3.3232 101.527L10.3131 97.8059L4.74744 102.914L3.03027 108.525Z" fill="url(#paint14_linear_2002_22918)"/>
<path d="M13.6162 93.5119L12.8485 93.9242L10.4747 106.444L0 113L12.5657 107.841L12.6061 107.831L13.6162 93.5119Z" fill="url(#paint15_linear_2002_22918)"/>
<path d="M3.03027 108.525C3.15149 108.405 8.2626 105.478 8.2626 105.478L10.3131 97.816L4.13128 102.2L3.03027 108.525Z" fill="url(#paint16_linear_2002_22918)"/>
<path opacity="0.5" d="M3.19238 108.425L8.24289 105.559L10.1722 98.3489C10.1722 98.3489 7.48531 104.473 7.24289 104.764C6.99036 105.046 3.354 108.314 3.19238 108.425Z" fill="url(#paint17_linear_2002_22918)"/>
<path opacity="0.5" d="M13.616 93.5123L12.8483 93.9246L10.4746 106.444L12.5655 107.842L12.6059 107.832L13.616 93.5123Z" fill="url(#paint18_linear_2002_22918)"/>
<path d="M0.56543 112.648L10.1614 106.404L10.9291 104.041L10.5452 106.585L0.56543 112.648Z" fill="url(#paint19_linear_2002_22918)"/>
<path d="M15.9995 92.5273C15.9995 88.5453 12.757 85.3173 8.75707 85.3173C4.75719 85.3173 1.51465 88.5453 1.51465 92.5273C1.51465 96.5093 4.75719 99.7373 8.75707 99.7373C12.757 99.7373 15.9995 96.5093 15.9995 92.5273Z" fill="url(#paint20_radial_2002_22918)"/>
<path opacity="0.5" d="M3.43384 97.3742C4.45404 98.2893 5.79748 98.8725 7.28233 98.8725C10.4641 98.8725 13.05 96.2982 13.05 93.1307C13.05 89.9631 10.4641 87.3888 7.28233 87.3888C4.20152 87.3888 1.70657 89.8022 1.54495 92.829C1.54495 92.7284 1.51465 92.6279 1.51465 92.5273C1.51465 88.5452 4.75707 85.3173 8.75707 85.3173C12.7571 85.3173 15.9995 88.5452 15.9995 92.5273C15.9995 96.5094 12.7571 99.7373 8.75707 99.7373C6.64596 99.7373 4.75707 98.8122 3.43384 97.3742Z" fill="url(#paint21_linear_2002_22918)"/>
<path d="M3.28317 94.3274C2.93973 92.9799 5.21246 91.8738 5.85892 93.5933C6.50539 95.3129 7.69731 95.6548 6.39428 95.9464C5.09125 96.238 3.6367 95.7151 3.28317 94.3274Z" fill="url(#paint22_linear_2002_22918)"/>
<path d="M310.384 91.8125L321.869 85.417L324 72.3143L311.394 77.483L310.384 91.7924L310.384 91.8125Z" fill="url(#paint23_linear_2002_22918)"/>
<path d="M324 72.3143L313.455 78.7299C313.455 78.7299 311.061 91.8426 311.141 91.4002C311.222 90.9577 317.202 81.1734 317.202 81.1734L324 72.3143Z" fill="url(#paint24_linear_2002_22918)"/>
<path opacity="0.5" d="M320.97 76.7896L320.677 83.7884L313.687 87.499L319.253 82.4007L320.97 76.7896Z" fill="url(#paint25_linear_2002_22918)"/>
<path d="M310.384 91.793L311.152 91.3907L313.525 78.8713L324 72.3149L311.434 77.4635L311.394 77.4836L310.384 91.793Z" fill="url(#paint26_linear_2002_22918)"/>
<path d="M320.97 76.7896C320.849 76.9103 315.737 79.8365 315.737 79.8365L313.687 87.499L319.869 83.1147L320.97 76.7896Z" fill="url(#paint27_linear_2002_22918)"/>
<path opacity="0.5" d="M320.808 76.8899L315.757 79.7558L313.828 86.9658C313.828 86.9658 316.515 80.8418 316.757 80.5502C317.01 80.2687 320.646 77.0005 320.808 76.8899Z" fill="url(#paint28_linear_2002_22918)"/>
<path opacity="0.5" d="M310.384 91.793L311.152 91.3907L313.525 78.8713L311.434 77.4635L311.394 77.4836L310.384 91.793Z" fill="url(#paint29_linear_2002_22918)"/>
<path d="M323.435 72.666L313.839 78.9106L313.071 81.2637L313.455 78.7196L323.435 72.666Z" fill="url(#paint30_linear_2002_22918)"/>
<path d="M310.384 93.4918L321.869 99.8873L324 113L311.394 107.831L310.384 93.5119L310.384 93.4918Z" fill="url(#paint31_linear_2002_22918)"/>
<path d="M324 113L313.455 106.584C313.455 106.584 311.061 93.4717 311.141 93.9141C311.222 94.3566 317.202 104.141 317.202 104.141L324 113Z" fill="url(#paint32_linear_2002_22918)"/>
<path opacity="0.5" d="M320.97 108.525L320.677 101.527L313.687 97.8059L319.253 102.914L320.97 108.525Z" fill="url(#paint33_linear_2002_22918)"/>
<path d="M310.384 93.5119L311.152 93.9242L313.525 106.444L324 113L311.434 107.841L311.394 107.831L310.384 93.5119Z" fill="url(#paint34_linear_2002_22918)"/>
<path d="M320.97 108.525C320.849 108.405 315.737 105.478 315.737 105.478L313.687 97.816L319.869 102.2L320.97 108.525Z" fill="url(#paint35_linear_2002_22918)"/>
<path opacity="0.5" d="M320.808 108.425L315.757 105.559L313.828 98.3489C313.828 98.3489 316.515 104.473 316.757 104.764C317.01 105.046 320.646 108.314 320.808 108.425Z" fill="url(#paint36_linear_2002_22918)"/>
<path opacity="0.5" d="M310.384 93.5123L311.152 93.9246L313.525 106.444L311.434 107.842L311.394 107.832L310.384 93.5123Z" fill="url(#paint37_linear_2002_22918)"/>
<path d="M323.435 112.648L313.839 106.404L313.071 104.041L313.455 106.585L323.435 112.648Z" fill="url(#paint38_linear_2002_22918)"/>
<path d="M308.001 92.5273C308.001 88.5453 311.243 85.3173 315.243 85.3173C319.243 85.3173 322.485 88.5453 322.485 92.5273C322.485 96.5093 319.243 99.7373 315.243 99.7373C311.243 99.7373 308.001 96.5093 308.001 92.5273Z" fill="url(#paint39_radial_2002_22918)"/>
<path opacity="0.5" d="M320.566 97.3742C319.546 98.2893 318.203 98.8725 316.718 98.8725C313.536 98.8725 310.95 96.2982 310.95 93.1307C310.95 89.9631 313.536 87.3888 316.718 87.3888C319.798 87.3888 322.293 89.8022 322.455 92.829C322.455 92.7284 322.485 92.6279 322.485 92.5273C322.485 88.5452 319.243 85.3173 315.243 85.3173C311.243 85.3173 308.001 88.5452 308.001 92.5273C308.001 96.5094 311.243 99.7373 315.243 99.7373C317.354 99.7373 319.243 98.8122 320.566 97.3742Z" fill="url(#paint40_linear_2002_22918)"/>
<path d="M320.717 94.3274C321.06 92.9799 318.788 91.8738 318.141 93.5933C317.495 95.3129 316.303 95.6548 317.606 95.9464C318.909 96.238 320.363 95.7151 320.717 94.3274Z" fill="url(#paint41_linear_2002_22918)"/>
<defs>
<filter id="filter0_f_2002_22918" x="4" y="0" width="316" height="184" filterUnits="userSpaceOnUse" color-interpolation-filters="sRGB">
<feFlood flood-opacity="0" result="BackgroundImageFix"/>
<feBlend mode="normal" in="SourceGraphic" in2="BackgroundImageFix" result="shape"/>
<feGaussianBlur stdDeviation="2" result="effect1_foregroundBlur_2002_22918"/>
</filter>
<filter id="filter1_f_2002_22918" x="7.5" y="3.5" width="309" height="177" filterUnits="userSpaceOnUse" color-interpolation-filters="sRGB">
<feFlood flood-opacity="0" result="BackgroundImageFix"/>
<feBlend mode="normal" in="SourceGraphic" in2="BackgroundImageFix" result="shape"/>
<feGaussianBlur stdDeviation="0.5" result="effect1_foregroundBlur_2002_22918"/>
</filter>
<linearGradient id="paint0_linear_2002_22918" x1="162" y1="-1.63636" x2="162" y2="132" gradientUnits="userSpaceOnUse">
<stop stop-color="#BC8307"/>
<stop offset="1" stop-color="#FFD95E"/>
</linearGradient>
<linearGradient id="paint1_linear_2002_22918" x1="162" y1="-1.63636" x2="162" y2="132" gradientUnits="userSpaceOnUse">
<stop stop-color="#F6C424"/>
<stop offset="1" stop-color="#E8A208"/>
</linearGradient>
<linearGradient id="paint2_linear_2002_22918" x1="162" y1="-3.19149" x2="162" y2="147.192" gradientUnits="userSpaceOnUse">
<stop stop-color="#FFEAA6"/>
<stop offset="1" stop-color="#FFC340"/>
</linearGradient>
<linearGradient id="paint3_linear_2002_22918" x1="162" y1="-3.19149" x2="162" y2="147.192" gradientUnits="userSpaceOnUse">
<stop stop-color="#FFEAA6"/>
<stop offset="1" stop-color="#FFC340"/>
</linearGradient>
<linearGradient id="paint4_linear_2002_22918" x1="-7.06474" y1="91.9442" x2="23.4566" y2="70.0088" gradientUnits="userSpaceOnUse">
<stop stop-color="#D1641B"/>
<stop offset="0.7401" stop-color="#FFD043"/>
<stop offset="1" stop-color="#FFBB41"/>
</linearGradient>
<linearGradient id="paint5_linear_2002_22918" x1="9.96984" y1="78.9096" x2="3.36854" y2="84.4497" gradientUnits="userSpaceOnUse">
<stop stop-color="#D1641B"/>
<stop offset="0.7401" stop-color="#FFD043"/>
<stop offset="1" stop-color="#FFBB41"/>
</linearGradient>
<linearGradient id="paint6_linear_2002_22918" x1="8.89717" y1="88.0341" x2="-0.380299" y2="75.3555" gradientUnits="userSpaceOnUse">
<stop stop-color="#F29F2B"/>
<stop offset="1" stop-color="#8D3316"/>
</linearGradient>
<linearGradient id="paint7_linear_2002_22918" x1="12.2518" y1="86.105" x2="2.07934" y2="66.7658" gradientUnits="userSpaceOnUse">
<stop stop-color="#D1641B"/>
<stop offset="0.7401" stop-color="#FFD043"/>
<stop offset="1" stop-color="#FFBB41"/>
</linearGradient>
<linearGradient id="paint8_linear_2002_22918" x1="10.2847" y1="87.0186" x2="1.00756" y2="74.3405" gradientUnits="userSpaceOnUse">
<stop stop-color="#D1641B"/>
<stop offset="0.7401" stop-color="#FFD043"/>
<stop offset="1" stop-color="#FFBB41"/>
</linearGradient>
<linearGradient id="paint9_linear_2002_22918" x1="11.0421" y1="85.8583" x2="2.26112" y2="73.8581" gradientUnits="userSpaceOnUse">
<stop stop-color="#F2D144"/>
<stop offset="1" stop-color="#FFF9A4"/>
</linearGradient>
<linearGradient id="paint10_linear_2002_22918" x1="11.4323" y1="77.0436" x2="12.5332" y2="88.7211" gradientUnits="userSpaceOnUse">
<stop stop-color="#F9C541"/>
<stop offset="1" stop-color="#D4471D"/>
</linearGradient>
<linearGradient id="paint11_linear_2002_22918" x1="5.26005" y1="71.8683" x2="5.99127" y2="79.6212" gradientUnits="userSpaceOnUse">
<stop stop-color="white"/>
<stop offset="1" stop-color="#FFFBC6"/>
</linearGradient>
<linearGradient id="paint12_linear_2002_22918" x1="-7.06421" y1="93.3678" x2="23.4568" y2="115.303" gradientUnits="userSpaceOnUse">
<stop stop-color="#D1641B"/>
<stop offset="0.7401" stop-color="#FFD043"/>
<stop offset="1" stop-color="#FFBB41"/>
</linearGradient>
<linearGradient id="paint13_linear_2002_22918" x1="9.97037" y1="106.402" x2="3.36843" y2="100.862" gradientUnits="userSpaceOnUse">
<stop stop-color="#D1641B"/>
<stop offset="0.7401" stop-color="#FFD043"/>
<stop offset="1" stop-color="#FFBB41"/>
</linearGradient>
<linearGradient id="paint14_linear_2002_22918" x1="8.89702" y1="97.2789" x2="-0.379919" y2="109.957" gradientUnits="userSpaceOnUse">
<stop stop-color="#F29F2B"/>
<stop offset="1" stop-color="#8D3316"/>
</linearGradient>
<linearGradient id="paint15_linear_2002_22918" x1="12.2515" y1="99.2077" x2="2.07919" y2="118.547" gradientUnits="userSpaceOnUse">
<stop stop-color="#D1641B"/>
<stop offset="0.7401" stop-color="#FFD043"/>
<stop offset="1" stop-color="#FFBB41"/>
</linearGradient>
<linearGradient id="paint16_linear_2002_22918" x1="10.2852" y1="98.294" x2="1.00786" y2="110.973" gradientUnits="userSpaceOnUse">
<stop stop-color="#D1641B"/>
<stop offset="0.7401" stop-color="#FFD043"/>
<stop offset="1" stop-color="#FFBB41"/>
</linearGradient>
<linearGradient id="paint17_linear_2002_22918" x1="11.042" y1="99.4543" x2="2.26092" y2="111.454" gradientUnits="userSpaceOnUse">
<stop stop-color="#F2D144"/>
<stop offset="1" stop-color="#FFF9A4"/>
</linearGradient>
<linearGradient id="paint18_linear_2002_22918" x1="11.4323" y1="108.269" x2="12.5333" y2="96.5918" gradientUnits="userSpaceOnUse">
<stop stop-color="#F6BA3B"/>
<stop offset="1" stop-color="#D4471D"/>
</linearGradient>
<linearGradient id="paint19_linear_2002_22918" x1="5.26035" y1="113.444" x2="5.99179" y2="105.691" gradientUnits="userSpaceOnUse">
<stop stop-color="white"/>
<stop offset="1" stop-color="#FFFBC6"/>
</linearGradient>
<radialGradient id="paint20_radial_2002_22918" cx="0" cy="0" r="1" gradientUnits="userSpaceOnUse" gradientTransform="translate(4.64707 91.0491) rotate(90) scale(9.76186 9.80576)">
<stop stop-color="#FFBB41"/>
<stop offset="0.2599" stop-color="#FFD043"/>
<stop offset="1" stop-color="#CF772D"/>
</radialGradient>
<linearGradient id="paint21_linear_2002_22918" x1="8.68519" y1="94.7152" x2="7.30578" y2="85.1163" gradientUnits="userSpaceOnUse">
<stop stop-color="#D4471D"/>
<stop offset="1" stop-color="#FFFB8F"/>
</linearGradient>
<linearGradient id="paint22_linear_2002_22918" x1="5.11236" y1="92.7114" x2="5.11236" y2="96.0228" gradientUnits="userSpaceOnUse">
<stop stop-color="white"/>
<stop offset="1" stop-color="#FFFBC6"/>
</linearGradient>
<linearGradient id="paint23_linear_2002_22918" x1="331.065" y1="91.9442" x2="300.543" y2="70.0088" gradientUnits="userSpaceOnUse">
<stop stop-color="#D1641B"/>
<stop offset="0.7401" stop-color="#FFD043"/>
<stop offset="1" stop-color="#FFBB41"/>
</linearGradient>
<linearGradient id="paint24_linear_2002_22918" x1="314.03" y1="78.9096" x2="320.631" y2="84.4497" gradientUnits="userSpaceOnUse">
<stop stop-color="#D1641B"/>
<stop offset="0.7401" stop-color="#FFD043"/>
<stop offset="1" stop-color="#FFBB41"/>
</linearGradient>
<linearGradient id="paint25_linear_2002_22918" x1="315.103" y1="88.0341" x2="324.38" y2="75.3555" gradientUnits="userSpaceOnUse">
<stop stop-color="#F29F2B"/>
<stop offset="1" stop-color="#8D3316"/>
</linearGradient>
<linearGradient id="paint26_linear_2002_22918" x1="311.748" y1="86.105" x2="321.921" y2="66.7658" gradientUnits="userSpaceOnUse">
<stop stop-color="#D1641B"/>
<stop offset="0.7401" stop-color="#FFD043"/>
<stop offset="1" stop-color="#FFBB41"/>
</linearGradient>
<linearGradient id="paint27_linear_2002_22918" x1="313.715" y1="87.0186" x2="322.992" y2="74.3405" gradientUnits="userSpaceOnUse">
<stop stop-color="#D1641B"/>
<stop offset="0.7401" stop-color="#FFD043"/>
<stop offset="1" stop-color="#FFBB41"/>
</linearGradient>
<linearGradient id="paint28_linear_2002_22918" x1="312.958" y1="85.8583" x2="321.739" y2="73.8581" gradientUnits="userSpaceOnUse">
<stop stop-color="#F2D144"/>
<stop offset="1" stop-color="#FFF9A4"/>
</linearGradient>
<linearGradient id="paint29_linear_2002_22918" x1="312.568" y1="77.0436" x2="311.467" y2="88.7211" gradientUnits="userSpaceOnUse">
<stop stop-color="#F9C541"/>
<stop offset="1" stop-color="#D4471D"/>
</linearGradient>
<linearGradient id="paint30_linear_2002_22918" x1="318.74" y1="71.8683" x2="318.009" y2="79.6212" gradientUnits="userSpaceOnUse">
<stop stop-color="white"/>
<stop offset="1" stop-color="#FFFBC6"/>
</linearGradient>
<linearGradient id="paint31_linear_2002_22918" x1="331.064" y1="93.3678" x2="300.543" y2="115.303" gradientUnits="userSpaceOnUse">
<stop stop-color="#D1641B"/>
<stop offset="0.7401" stop-color="#FFD043"/>
<stop offset="1" stop-color="#FFBB41"/>
</linearGradient>
<linearGradient id="paint32_linear_2002_22918" x1="314.03" y1="106.402" x2="320.632" y2="100.862" gradientUnits="userSpaceOnUse">
<stop stop-color="#D1641B"/>
<stop offset="0.7401" stop-color="#FFD043"/>
<stop offset="1" stop-color="#FFBB41"/>
</linearGradient>
<linearGradient id="paint33_linear_2002_22918" x1="315.103" y1="97.2789" x2="324.38" y2="109.957" gradientUnits="userSpaceOnUse">
<stop stop-color="#F29F2B"/>
<stop offset="1" stop-color="#8D3316"/>
</linearGradient>
<linearGradient id="paint34_linear_2002_22918" x1="311.749" y1="99.2077" x2="321.921" y2="118.547" gradientUnits="userSpaceOnUse">
<stop stop-color="#D1641B"/>
<stop offset="0.7401" stop-color="#FFD043"/>
<stop offset="1" stop-color="#FFBB41"/>
</linearGradient>
<linearGradient id="paint35_linear_2002_22918" x1="313.715" y1="98.294" x2="322.992" y2="110.973" gradientUnits="userSpaceOnUse">
<stop stop-color="#D1641B"/>
<stop offset="0.7401" stop-color="#FFD043"/>
<stop offset="1" stop-color="#FFBB41"/>
</linearGradient>
<linearGradient id="paint36_linear_2002_22918" x1="312.958" y1="99.4543" x2="321.739" y2="111.454" gradientUnits="userSpaceOnUse">
<stop stop-color="#F2D144"/>
<stop offset="1" stop-color="#FFF9A4"/>
</linearGradient>
<linearGradient id="paint37_linear_2002_22918" x1="312.568" y1="108.269" x2="311.467" y2="96.5918" gradientUnits="userSpaceOnUse">
<stop stop-color="#F6BA3B"/>
<stop offset="1" stop-color="#D4471D"/>
</linearGradient>
<linearGradient id="paint38_linear_2002_22918" x1="318.74" y1="113.444" x2="318.008" y2="105.691" gradientUnits="userSpaceOnUse">
<stop stop-color="white"/>
<stop offset="1" stop-color="#FFFBC6"/>
</linearGradient>
<radialGradient id="paint39_radial_2002_22918" cx="0" cy="0" r="1" gradientUnits="userSpaceOnUse" gradientTransform="translate(319.353 91.0491) rotate(90) scale(9.76186 9.80576)">
<stop stop-color="#FFBB41"/>
<stop offset="0.2599" stop-color="#FFD043"/>
<stop offset="1" stop-color="#CF772D"/>
</radialGradient>
<linearGradient id="paint40_linear_2002_22918" x1="315.315" y1="94.7152" x2="316.694" y2="85.1163" gradientUnits="userSpaceOnUse">
<stop stop-color="#D4471D"/>
<stop offset="1" stop-color="#FFFB8F"/>
</linearGradient>
<linearGradient id="paint41_linear_2002_22918" x1="318.888" y1="92.7114" x2="318.888" y2="96.0228" gradientUnits="userSpaceOnUse">
<stop stop-color="white"/>
<stop offset="1" stop-color="#FFFBC6"/>
</linearGradient>
</defs>
</svg>
