<svg xmlns="http://www.w3.org/2000/svg" width="346" height="298" fill="none"><path stroke="url(#a)" stroke-width="2" d="M8 17a9 9 0 0 1 9-9h312a9 9 0 0 1 9 9v264a9 9 0 0 1-9 9H17a9 9 0 0 1-9-9V17Z"/><path stroke="url(#b)" stroke-width="4" d="M17 5C10.373 5 5 10.373 5 17v264c0 6.627 5.373 12 12 12h312c6.627 0 12-5.373 12-12V17c0-6.627-5.373-12-12-12H17Z"/><g filter="url(#c)"><path stroke="url(#d)" stroke-width="2" d="M5 17c0-6.627 5.373-12 12-12h312c6.627 0 12 5.373 12 12v264c0 6.627-5.373 12-12 12H17c-6.627 0-12-5.373-12-12V17Z"/></g><g filter="url(#e)"><path stroke="url(#f)" d="M5 17c0-6.627 5.373-12 12-12h312c6.627 0 12 5.373 12 12v264c0 6.627-5.373 12-12 12H17c-6.627 0-12-5.373-12-12V17Z"/></g><defs><linearGradient id="a" x1="173" x2="173" y1="-1.636" y2="132" gradientUnits="userSpaceOnUse"><stop stop-color="#BC8307"/><stop offset="1" stop-color="#FFD95E"/></linearGradient><linearGradient id="b" x1="173" x2="173" y1="-1.636" y2="132" gradientUnits="userSpaceOnUse"><stop stop-color="#F6C424"/><stop offset="1" stop-color="#E8A208"/></linearGradient><linearGradient id="d" x1="173" x2="173" y1="-3.191" y2="147.192" gradientUnits="userSpaceOnUse"><stop stop-color="#FFEAA6"/><stop offset="1" stop-color="#FFC340"/></linearGradient><linearGradient id="f" x1="173" x2="173" y1="-3.191" y2="147.192" gradientUnits="userSpaceOnUse"><stop stop-color="#FFEAA6"/><stop offset="1" stop-color="#FFC340"/></linearGradient><filter id="c" width="346" height="298" x="0" y="0" color-interpolation-filters="sRGB" filterUnits="userSpaceOnUse"><feFlood flood-opacity="0" result="BackgroundImageFix"/><feBlend in="SourceGraphic" in2="BackgroundImageFix" result="shape"/><feGaussianBlur result="effect1_foregroundBlur_2001_28658" stdDeviation="2"/></filter><filter id="e" width="339" height="291" x="3.5" y="3.5" color-interpolation-filters="sRGB" filterUnits="userSpaceOnUse"><feFlood flood-opacity="0" result="BackgroundImageFix"/><feBlend in="SourceGraphic" in2="BackgroundImageFix" result="shape"/><feGaussianBlur result="effect1_foregroundBlur_2001_28658" stdDeviation=".5"/></filter></defs></svg>