<svg xmlns="http://www.w3.org/2000/svg" width="145" height="149" fill="none"><path fill="#EBA000" d="M142.331 70.914 77.435 6.018c-2.827-2.827-7.382-2.827-10.183 0L2.357 70.914c-2.828 2.827-2.828 7.382 0 10.183l64.895 64.895c2.827 2.828 7.382 2.828 10.183 0l64.896-64.895c2.801-2.801 2.801-7.356 0-10.183Zm-2.775 7.434L74.66 143.244a3.246 3.246 0 0 1-2.33.968 3.29 3.29 0 0 1-2.33-.968L5.133 78.348a3.246 3.246 0 0 1-.97-2.33c0-.89.341-1.701.97-2.33L70.027 8.794a3.29 3.29 0 0 1 4.633.026l64.896 64.896c.628.628.968 1.44.968 2.33a3.23 3.23 0 0 1-.968 2.303Z"/><path fill="#36231F" d="M74.322 9.92a1.877 1.877 0 0 1-1.885 1.885 1.877 1.877 0 0 1-1.885-1.885V2.197c0-1.047.838-1.885 1.885-1.885 1.047 0 1.885.838 1.885 1.885V9.92Z"/><path fill="#36231F" d="M77.175 5.944a4.726 4.726 0 0 1-4.712 4.712 4.726 4.726 0 0 1-4.712-4.713V4.556c.497-2.068 2.487-3.325 4.712-3.325 2.251 0 4.214 1.021 4.712 3.116-.026.026 0 1.256 0 1.596Z"/><path fill="#704941" d="M77.175 4.711a4.709 4.709 0 0 1-4.712 4.712 4.71 4.71 0 0 1-4.712-4.712A4.71 4.71 0 0 1 72.463 0a4.726 4.726 0 0 1 4.712 4.712Z"/></svg>