<svg xmlns="http://www.w3.org/2000/svg" width="188" height="252" fill="none"><path fill="#BB6111" d="m166.578 1.702.914-.913c2.858 0 20.298 17.459 20.298 20.297l-.992.973-20.22-20.357Z"/><path fill="#9E4707" d="m186.777 230.62.914.914c0 2.858-17.459 20.298-20.298 20.298l-.972-.992 20.356-20.22Z"/><path fill="#BB6111" d="M21.318 1.702 20.405.79C17.547.789.107 18.248.107 21.086l.991.973 20.22-20.357Z"/><path fill="#9E4707" d="m.982 230.62-.914.933c0 2.858 17.46 20.298 20.298 20.298l.972-.991L.982 230.62Z"/><path fill="#3C427C" d="M186.737 245.919a4.912 4.912 0 0 1-4.919 4.919H5.976a4.912 4.912 0 0 1-4.92-4.919V6.677a4.912 4.912 0 0 1 4.92-4.92h175.842a4.912 4.912 0 0 1 4.919 4.92v239.242Z"/><path fill="#2C3569" d="M185.374 3.275c-.058.02-182.802 246.203-182.88 246.125a4.893 4.893 0 0 0 3.48 1.439h175.842a4.912 4.912 0 0 0 4.919-4.919V6.677a4.961 4.961 0 0 0-1.361-3.402Z"/><path fill="#4553A5" d="M98.018 97.745c28.697-28.697 42.408-54.186 75.596-82.864 0 0 8.944-8.807 11.744-11.626a4.905 4.905 0 0 0-3.539-1.517H5.977c-1.108 0-2.8.467-3.636 1.614l11.84 11.53 83.837 82.863Z"/><path fill="#282F5A" d="M97.51 98.58C66.012 130.077 33.99 217.901 2.493 249.398c.895.933 1.925 1.439 3.305 1.439h176.387c1.166-.058 2.508-.7 3.247-1.594l-11.841-11.53L97.509 98.58Z"/><path fill="#3C427C" d="M173.615 14.881H14.182v222.833h159.433V14.881Z"/><path fill="#282F5A" d="M14.182 237.714V14.881h159.433l-5.055 4.744L14.182 237.714Z"/><path fill="#2C3569" d="M14.182 237.714V14.881l83.292 111.417-78.237 106.653-5.055 4.763Z"/><path fill="#4553A5" d="m14.182 237.716 5.055-4.763L97.474 126.3l67.936 103.212 8.205 8.204H14.182Z"/><path fill="#E8E3E3" d="M168.539 19.625H19.236v213.326h149.303V19.625Z"/><path fill="#5066CA" d="M107.975 7.223a2.195 2.195 0 0 1-2.197 2.197H13.636a2.195 2.195 0 0 1-2.197-2.197c0-1.206.972-2.197 2.197-2.197h92.161c1.186 0 2.178.991 2.178 2.197ZM164.607 7.223a2.195 2.195 0 0 1-2.197 2.197h-25.101a2.195 2.195 0 0 1-2.197-2.197c0-1.206.972-2.197 2.197-2.197h25.101c1.205 0 2.197.991 2.197 2.197ZM61.269 234.974c0-.7.564-1.264 1.264-1.264h85.407c.7 0 1.264.564 1.264 1.264 0 .7-.564 1.264-1.264 1.264H62.533c-.7 0-1.264-.564-1.264-1.264Z"/><path fill="#20284D" d="M13.927 246.951c0-.953.777-1.731 1.73-1.731h139.711c.952 0 1.73.778 1.73 1.731 0 .952-.778 1.73-1.73 1.73H15.677c-.973 0-1.75-.758-1.75-1.73Z"/><path fill="#282F5A" d="M180.672 105.697c.952 0 1.73.777 1.73 1.73v74.231c0 .953-.778 1.731-1.73 1.731a1.735 1.735 0 0 1-1.731-1.731v-74.231c0-.953.778-1.73 1.731-1.73Z"/><path fill="#5066CA" d="M40.737 234.974c0-.7.564-1.264 1.264-1.264h14.446c.7 0 1.264.564 1.264 1.264 0 .7-.564 1.264-1.264 1.264H42c-.7 0-1.264-.564-1.264-1.264Z"/><path fill="#4553A5" d="M8.464 139.665a2.195 2.195 0 0 1-2.197-2.197V16.342c0-1.206.972-2.197 2.197-2.197 1.205 0 2.197.972 2.197 2.197v121.126c-.02 1.205-.992 2.197-2.197 2.197Z"/><path fill="#000" d="M1.059 6.679v14.757L20.734 1.76H5.977A4.912 4.912 0 0 0 1.06 6.679Z" opacity=".2"/><path fill="#E37908" d="M20.386.789H5.259A5.17 5.17 0 0 0 .088 5.96v15.146L20.386.789Z"/><path fill="#FFA310" d="M20.384.789H5.258c-1.167 0-2.936.486-3.81 1.691l8.748 8.516L20.384.789Z"/><path fill="#000" d="M5.939 250.876h14.757L1.02 231.201v14.756a4.925 4.925 0 0 0 4.919 4.919Z" opacity=".2"/><path fill="#9A4404" d="M.068 231.555V246.7a5.17 5.17 0 0 0 5.172 5.172h15.145L.068 231.555Z"/><path fill="#E37908" d="M.068 231.555V246.7c0 1.167.486 2.936 1.691 3.811l8.516-8.749L.068 231.555Z"/><path fill="#000" d="M186.836 6.679v14.757L167.16 1.76h14.757a4.912 4.912 0 0 1 4.919 4.919Z" opacity=".2"/><path fill="#BD6311" d="M167.491.789h15.146a5.169 5.169 0 0 1 5.171 5.171v15.146L167.491.789Z"/><path fill="#FFA310" d="M167.491.789h15.146c1.166 0 2.936.486 3.81 1.691l-8.749 8.516L167.491.789Z"/><path fill="#000" d="M181.818 250.876h-14.756l19.675-19.675v14.756a4.924 4.924 0 0 1-4.919 4.919Z" opacity=".2"/><path fill="#9A4404" d="M187.692 231.555V246.7a5.17 5.17 0 0 1-5.171 5.172h-15.146l20.317-20.317Z"/><path fill="#BD6311" d="M187.692 231.555V246.7c0 1.167-.487 2.936-1.692 3.811l-8.516-8.749 10.208-10.207Z"/><path fill="#000" d="M19.127 19.421h150v214h-150z"/></svg>