<svg xmlns="http://www.w3.org/2000/svg" width="108" height="110" fill="none"><path fill="#F60E54" d="M105.94 52.667 57.742 4.469c-2.1-2.1-5.483-2.1-7.563 0L1.981 52.667c-2.1 2.1-2.1 5.483 0 7.563l48.198 48.198c2.1 2.099 5.483 2.099 7.563 0L105.94 60.23c2.1-2.08 2.1-5.463 0-7.563Zm-2.061 5.502-48.198 48.198a2.446 2.446 0 0 1-3.46 0L4.023 58.169a2.444 2.444 0 0 1 0-3.46L52.22 6.51a2.444 2.444 0 0 1 3.46 0l48.198 48.198c.467.467.719 1.07.719 1.73 0 .662-.252 1.284-.719 1.73Z"/><path fill="#3D323B" d="M55.424 7.369c0 .777-.622 1.4-1.4 1.4-.777 0-1.4-.623-1.4-1.4V1.633c0-.777.623-1.4 1.4-1.4.778 0 1.4.623 1.4 1.4V7.37Z"/><path fill="#3D323B" d="M57.546 4.414a3.51 3.51 0 0 1-3.5 3.5 3.51 3.51 0 0 1-3.5-3.5v-1.03c.37-1.536 1.847-2.47 3.5-2.47 1.672 0 3.13.759 3.5 2.314v1.186Z"/><path fill="#6F5B6C" d="M54.046 6.999a3.5 3.5 0 1 0 0-7 3.5 3.5 0 0 0 0 7Z"/></svg>