<svg xmlns="http://www.w3.org/2000/svg" width="213" height="243" fill="none"><path fill="#CB8201" d="m183.424 1.45 1.23-1.231c3.848 0 27.33 23.508 27.33 27.33l-1.335 1.309-27.225-27.409Z"/><path fill="#A56200" d="m210.622 213.936 1.23 1.23c0 3.848-23.508 27.33-27.33 27.33l-1.309-1.335 27.409-27.225Z"/><path fill="#CB8201" d="M29.293 1.45 28.063.218C24.214.219.706 23.7.706 27.549l1.336 1.309 27.25-27.409Z"/><path fill="#A56200" d="m1.91 213.936-1.23 1.23c0 3.848 23.507 27.33 27.33 27.33l1.308-1.335L1.91 213.936Z"/><path fill="#CF232E" d="M207.948 234.516a6.614 6.614 0 0 1-6.623 6.623H8.639a6.614 6.614 0 0 1-6.623-6.623V8.128a6.614 6.614 0 0 1 6.623-6.623h192.659a6.614 6.614 0 0 1 6.623 6.623v226.388h.027Z"/><path fill="#AA2337" d="M208.711 3.572c-.078.026-204.68 235.759-204.758 235.655a6.587 6.587 0 0 0 4.685 1.937h195.283a6.614 6.614 0 0 0 6.623-6.623V8.127a6.388 6.388 0 0 0-1.833-4.555Z"/><path fill="#F52C49" d="M132.566 130.771c38.638-38.638 15.648-72.958 60.308-111.597 0 0 12.042-11.858 15.811-15.654a6.601 6.601 0 0 0-4.764-2.042H8.639c-1.492 0-3.77.628-4.896 2.173l15.943 15.523 112.88 111.597Z"/><path fill="#992333" d="M111.885 131.898C69.476 174.307 46.361 196.82 3.953 239.229c1.204 1.256 2.591 1.937 4.45 1.937h196.041c1.571-.079 3.377-.943 4.372-2.147l-15.942-15.523-80.989-91.598Z"/><path fill="#CF232E" d="M192.874 19.176H19.686v204.293h173.188V19.176Z"/><path fill="#992333" d="M19.686 223.469V19.176h173.188l-6.806 6.413L19.686 223.47Z"/><path fill="#AA2337" d="M19.686 223.469V19.176l112.147 102.147-105.314 95.759-6.833 6.387Z"/><path fill="#F52C49" d="m19.686 223.468 6.833-6.388 85.314-95.759 69.994 91.099 11.047 11.048H19.686Z"/><path fill="#000" d="M52.67 190.902V51.765h107.22l-3.927 3.927-99.366 131.283-3.927 3.927Z" opacity=".2"/><path fill="#FF5073" d="M136.444 8.859a2.955 2.955 0 0 1-2.958 2.958H18.953a2.955 2.955 0 0 1-2.958-2.958 2.955 2.955 0 0 1 2.958-2.958h114.559a2.967 2.967 0 0 1 2.932 2.958ZM197.355 8.859a2.955 2.955 0 0 1-2.958 2.958h-33.796a2.955 2.955 0 0 1-2.958-2.958 2.954 2.954 0 0 1 2.958-2.958h33.796c1.649.026 2.958 1.335 2.958 2.958ZM83.087 219.775c0-.942.76-1.701 1.702-1.701h98.79c.942 0 1.702.759 1.702 1.701 0 .943-.76 1.702-1.702 1.702h-98.79a1.698 1.698 0 0 1-1.702-1.702Z"/><path fill="#8B1D33" d="M33.77 234.486c0-1.204.994-2.199 2.199-2.199h145.308c1.204 0 2.199.995 2.199 2.199a2.213 2.213 0 0 1-2.199 2.199H35.969a2.18 2.18 0 0 1-2.2-2.199Z"/><path fill="#992333" d="M202.4 121.449a2.335 2.335 0 0 1 2.33 2.33v99.947a2.335 2.335 0 0 1-2.33 2.33 2.335 2.335 0 0 1-2.329-2.33v-99.921a2.34 2.34 0 0 1 2.329-2.356Z"/><path fill="#FF5073" d="M55.47 219.775c0-.942.76-1.701 1.702-1.701h19.45c.942 0 1.702.759 1.702 1.701 0 .943-.76 1.702-1.702 1.702h-19.45a1.698 1.698 0 0 1-1.702-1.702Z"/><path fill="#F52C49" d="M11.987 187.183a2.955 2.955 0 0 1-2.958-2.958V21.135a2.955 2.955 0 0 1 2.958-2.958 2.955 2.955 0 0 1 2.958 2.958v163.09a2.955 2.955 0 0 1-2.958 2.958Z"/><path fill="#000" d="M2.016 8.123v19.869L28.508 1.5H8.64c-3.665 0-6.623 2.984-6.623 6.623Z" opacity=".2"/><path fill="#EBA000" d="M28.063.219H7.67A6.96 6.96 0 0 0 .706 7.182v20.393L28.063.219Z"/><path fill="#FFCB10" d="M28.062.219H7.67c-1.571 0-3.953.654-5.131 2.277l11.78 11.466L28.062.22Z"/><path fill="#000" d="M8.614 241.213h19.87L1.99 214.721v19.869c0 3.639 2.958 6.623 6.623 6.623Z" opacity=".2"/><path fill="#9E5E00" d="M.68 215.168v20.393a6.96 6.96 0 0 0 6.963 6.963h20.392L.68 215.168Z"/><path fill="#EBA000" d="M.68 215.168v20.393c0 1.57.654 3.953 2.277 5.131l11.466-11.781L.679 215.168Z"/><path fill="#000" d="M210.702 8.123v19.869L184.21 1.5h19.869c3.638 0 6.623 2.984 6.623 6.623Z" opacity=".2"/><path fill="#CD8401" d="M184.655.219h20.392a6.96 6.96 0 0 1 6.964 6.963v20.393L184.655.219Z"/><path fill="#FFCB10" d="M184.655.219h20.392c1.571 0 3.953.654 5.131 2.277l-11.78 11.466L184.655.22Z"/><path fill="#000" d="M203.916 241.213h-19.869l26.492-26.492v19.869c.026 3.639-2.958 6.623-6.623 6.623Z" opacity=".2"/><path fill="#9E5E00" d="M211.85 215.168v20.393a6.96 6.96 0 0 1-6.963 6.963h-20.393l27.356-27.356Z"/><path fill="#CD8401" d="M211.851 215.168v20.393c0 1.57-.655 3.953-2.278 5.131l-11.466-11.781 13.744-13.743Z"/><path fill="#000" d="M37.302 36.369h148.764V25.584H26.516v191.492h10.786V36.369Z" opacity=".2"/><path fill="#000" d="M26 25.418h160v192H26z"/></svg>