<svg xmlns="http://www.w3.org/2000/svg" width="434" height="102" fill="none"><path fill="#400080" d="m216.998 3.384-193.4 3.677-19.12 45.592 16.913 46.328h391.213l16.178-46.328-18.384-45.592-193.4-3.677Z"/><path fill="url(#a)" fill-opacity=".4" d="m216.998 3.384-193.4 3.677-19.12 45.592 16.913 46.328h391.213l16.178-46.328-18.384-45.592-193.4-3.677Z"/><g filter="url(#b)"><path stroke="#1C0038" stroke-width="1.471" d="M216.998 6.325 25.804 10.002l-9.56 22.796 11.03 19.855-11.766 20.59 8.09 22.797h387.535l8.089-22.061-12.501-21.326 11.766-20.59-9.56-22.06-191.929-3.678Z"/></g><path fill="url(#c)" d="M415.325 101.849H19.318L1.919 52.874 21.73 4.09 217.263.56l195.636 3.53 19.811 48.784-17.384 48.975ZM27.848 87.186h378.946l13.811-34.165-16.061-34.341-187.267-6.413L30.098 18.68 14.038 53.02l13.81 34.165Z"/><path fill="url(#d)" d="m25.804 10.002 4.294 8.678 187.223-6.472 187.223 6.472 4.383-7.207-191.606-5.412-191.517 3.941Z" opacity=".7"/><path fill="url(#e)" d="m30.216 18.826-3.677-7.353L8.155 53.388l5.147.736 16.914-35.297Z" opacity=".7"/><path fill="url(#f)" d="M14.038 52.948 28.01 87.215l-3.677 6.619L4.787 52.948h9.25Z"/><path fill="url(#g)" d="m404.515 18.826 4.412-7.353 16.913 41.474h-5.147l-16.178-34.12Z" opacity=".7"/><path fill="url(#h)" d="m421.428 52.653-14.707 34.562 3.677 6.619 16.913-41.18h-5.883Z"/><path fill="url(#i)" d="M24.333 93.834h386.065l5.147 8.088H19.185l5.148-8.088Z"/><path fill="url(#j)" d="M21.73 4.09 217.277.56l195.636 3.53-3.986 7.383-191.65-5.396-190.738 5.396-4.81-7.383Z"/><path fill="url(#k)" d="M95.236 2.767c-.809 1-1.676 1.926-2.603 2.794l32.415-.632c.471-.868.912-1.78 1.294-2.721l-31.106.559Z" opacity=".5"/><path fill="url(#l)" d="m410.398 93.834 4.927 8.015 17.413-48.975h-6.162l-16.178 40.96Z" opacity=".7"/><path fill="url(#m)" d="m1.92 52.874 2.867.074 19.546 40.886-5.015 8.015L1.919 52.874Z" opacity=".7"/><path fill="url(#n)" d="m28.054 6.884 72.212-1.338s40.636-.941 40.416-.941c-.221 0-40.21-.397-40.21-.397L28.054 6.884Z"/><path fill="url(#o)" d="M73.896 99.172h142.425L127.342 97.6l-53.446 1.573Z"/><path fill="url(#p)" d="M14.14 74.597C9.068 68.23 4.656 60.493.802 52.89c3.104-8.427 8.03-15.869 13.34-23.09l.015.015c4.618 6.353 9 14.236 13.28 22.972l.03.074.014.014.015.015c-3.824 7.398-8.28 15.09-13.354 21.708Z"/><path fill="url(#q)" d="M.801 52.89c3.104-8.428 8.03-15.87 13.34-23.091l.015.015V52.36L.8 52.89Z" opacity=".5"/><path fill="url(#r)" d="M12.788 53.257c-.265.323-5.177-10.001-7.898-9.295.956-1.78 2-3.53 3.089-5.236 2.132-.662 4.662 4.25 7.147 8.368l-2.338 6.163Z" opacity=".5"/><path fill="url(#s)" d="M14.14 74.597C9.068 68.229 4.656 60.493.802 52.889l13.575-.691 13.119.662.015.014c-3.839 7.413-8.295 15.105-13.37 21.723Z"/><path fill="url(#t)" d="M23.612 52.683c-3.044-6.221-6.177-11.84-9.471-16.369-3.765 5.118-7.265 10.398-9.472 16.37 2.736 5.397 5.869 10.883 9.472 15.412 3.589-4.691 6.765-10.162 9.471-15.413Z"/><path fill="url(#u)" d="M23.612 52.683h-1.22c-2.324 4.986-4.971 9.53-8.251 13.237-3.236-3.603-5.898-8.177-8.28-13.237H4.669c2.736 5.398 5.869 10.884 9.472 15.414 3.589-4.692 6.765-10.163 9.471-15.414Z"/><path fill="url(#v)" d="M14.155 29.814c4.619 6.353 9.001 14.236 13.281 22.972l-13.28-22.973Z"/><path fill="url(#w)" d="M.801 52.89c2.765 6.03 5.869 11.486 9.34 16.236C7.022 64.037 3.86 58.61.8 52.889Z"/><path fill="url(#x)" d="M4.728 52.772c.206-.045 1.236 2.53 3.03 5.456 2.72 4.427 4.765 7.368 4.618 7.5-.162.133-3.986-5.691-5.118-7.78-1.133-2.088-2.736-5.118-2.53-5.176Z"/><path fill="url(#y)" d="M6.14 52.712c2.192 4.663 4.839 9.075 8.016 12.796v-5.574c-1.898-2.236-3.486-4.765-4.795-7.56l-3.22.338Z"/><path fill="url(#z)" d="M9.361 52.36c1.191-3 2.838-6.045 4.795-9.119v-5.148c-3.28 5.119-6.016 9.59-8.016 14.605l3.221-.339Z"/><path fill="url(#A)" d="M14.155 65.493c2.942-3.324 5.575-7.824 8.016-12.795l-3.206-.339c-1.456 2.971-3.03 5.56-4.795 7.56v5.574h-.014Z"/><path fill="url(#B)" d="M18.965 52.36a59.266 59.266 0 0 0-4.795-9.119c-1.97 3.074-3.603 6.103-4.794 9.118 1.309 2.795 2.897 5.325 4.794 7.56 1.75-1.985 3.324-4.574 4.795-7.56Z"/><path fill="url(#C)" d="M17.494 43.491a193.952 193.952 0 0 0-3.338-5.383v5.133c.573.882 1.117 1.78 1.632 2.691a57.841 57.841 0 0 1 3.162 6.427l3.206.353c-1.367-3.294-2.926-6.265-4.662-9.221Z"/><path fill="url(#D)" d="M17.597 54.948c.47-.824.912-1.53 1.353-2.427l2.118.103c0-.19-2.177-.411-2.177-.411-1.294-3.015-2.941-6.163-4.735-8.957.47.941 2.044 3.75 3.132 6.044.78 1.633 1.236 3.074 1.236 3.074s-1.398 3.412-.927 2.574Z"/><path fill="url(#E)" d="M13.111 46.388c-.117-.147-3.456 5.06-3.265 5.81.192.75 3.721 6.941 4.163 6.56.455-.369.75-10.414-.898-12.37Z" opacity=".73"/><path fill="url(#F)" d="m6.14 52.712 3.206-.353a60.532 60.532 0 0 1 3.162-6.427l-1.706-2.456c-1.72 2.971-3.28 5.942-4.662 9.236Z" opacity=".73"/><path fill="url(#G)" d="M419.869 74.597c-5.074-6.383-9.501-14.12-13.339-21.723 3.103-8.427 8.03-15.869 13.339-23.09l.015.015c4.618 6.353 9.001 14.236 13.28 22.972l.03.074.014.015.015.014c-3.838 7.413-8.295 15.105-13.354 21.723Z"/><path fill="url(#H)" d="M406.515 52.89c3.103-8.428 8.03-15.87 13.339-23.091l.015.015V52.36l-13.354.53Z" opacity=".5"/><path fill="url(#I)" d="M418.501 53.257c-.264.323-5.177-10.001-7.897-9.295.955-1.78 2-3.53 3.088-5.236 2.133-.662 4.662 4.25 7.148 8.368l-2.339 6.163Z" opacity=".5"/><path fill="url(#J)" d="M419.869 74.597c-5.074-6.383-9.501-14.119-13.339-21.723l13.574-.69 13.119.66.015.016c-3.853 7.427-8.31 15.119-13.369 21.737Z" opacity=".5"/><path fill="url(#K)" d="M429.325 52.683c-3.044-6.221-6.177-11.84-9.471-16.369-3.765 5.118-7.265 10.398-9.471 16.37 2.735 5.397 5.868 10.883 9.471 15.412 3.589-4.691 6.765-10.162 9.471-15.413Z"/><path fill="url(#L)" d="M429.325 52.683h-1.22c-2.324 4.986-4.971 9.53-8.251 13.237-3.236-3.603-5.898-8.177-8.28-13.237h-1.191c2.735 5.398 5.868 10.884 9.471 15.414 3.589-4.692 6.765-10.163 9.471-15.414Z"/><path fill="url(#M)" d="M419.869 29.814c4.618 6.353 9.001 14.236 13.281 22.972l-13.281-22.973Z"/><path fill="url(#N)" d="M406.515 52.89c2.765 6.03 5.868 11.486 9.339 16.236-3.118-5.089-6.28-10.516-9.339-16.237Z"/><path fill="url(#O)" d="M410.442 52.772c.206-.045 1.235 2.53 3.029 5.456 2.721 4.427 4.765 7.368 4.618 7.5-.161.133-3.985-5.691-5.118-7.78-1.132-2.088-2.735-5.118-2.529-5.176Z"/><path fill="url(#P)" d="M411.868 52.712c2.192 4.663 4.839 9.075 8.016 12.796v-5.574c-1.898-2.236-3.486-4.765-4.795-7.56l-3.221.338Z"/><path fill="url(#Q)" d="M415.074 52.36c1.192-3 2.839-6.045 4.795-9.119v-5.148c-3.28 5.119-6.015 9.59-8.015 14.605l3.22-.339Z"/><path fill="url(#R)" d="M419.869 65.493c2.941-3.324 5.574-7.824 8.015-12.795l-3.206-.339c-1.456 2.971-3.03 5.56-4.795 7.56v5.574h-.014Z"/><path fill="url(#S)" d="M424.678 52.36a59.286 59.286 0 0 0-4.795-9.119c-1.97 3.074-3.603 6.103-4.794 9.118 1.309 2.795 2.897 5.325 4.794 7.56 1.751-1.985 3.339-4.574 4.795-7.56Z"/><path fill="url(#T)" d="M423.207 43.491a195.352 195.352 0 0 0-3.338-5.383v5.133c.573.882 1.117 1.78 1.632 2.691a57.788 57.788 0 0 1 3.162 6.427l3.206.353c-1.367-3.294-2.926-6.265-4.662-9.221Z"/><path fill="url(#U)" d="M423.31 54.948c.471-.824.912-1.53 1.353-2.427l2.118.103c0-.19-2.177-.411-2.177-.411-1.294-3.015-2.941-6.163-4.735-8.957.47.941 2.044 3.75 3.132 6.044a26.612 26.612 0 0 1 1.236 3.074s-1.383 3.412-.927 2.574Z"/><path fill="url(#V)" d="M418.825 46.388c-.118-.147-3.457 5.06-3.265 5.81.191.75 3.706 6.941 4.162 6.56.456-.369.765-10.414-.897-12.37Z" opacity=".73"/><path fill="url(#W)" d="m411.868 52.712 3.206-.353a60.726 60.726 0 0 1 3.162-6.427l-1.706-2.456c-1.735 2.971-3.294 5.942-4.662 9.236Z" opacity=".73"/><defs><linearGradient id="c" x1="217.324" x2="217.324" y1="111.177" y2="-7.353" gradientUnits="userSpaceOnUse"><stop stop-color="#F69612"/><stop offset=".389" stop-color="#EAAB4A"/><stop offset="1" stop-color="#FFE379"/></linearGradient><linearGradient id="d" x1="217.269" x2="217.269" y1="49.264" y2="-2.233" gradientUnits="userSpaceOnUse"><stop stop-color="#FFD256"/><stop offset="1" stop-color="#CE590D"/></linearGradient><linearGradient id="e" x1="31.942" x2="-5.063" y1="16.973" y2="47.068" gradientUnits="userSpaceOnUse"><stop stop-color="#FFD256"/><stop offset="1" stop-color="#CE590D"/></linearGradient><linearGradient id="f" x1="8.002" x2="24.093" y1="56.266" y2="104.241" gradientUnits="userSpaceOnUse"><stop stop-color="#F69612"/><stop offset=".389" stop-color="#EAAB4A"/><stop offset="1" stop-color="#FFE379"/></linearGradient><linearGradient id="g" x1="402.655" x2="439.65" y1="17.055" y2="47.141" gradientUnits="userSpaceOnUse"><stop stop-color="#FFD256"/><stop offset="1" stop-color="#CE590D"/></linearGradient><linearGradient id="h" x1="426.636" x2="410.441" y1="56.291" y2="104.578" gradientUnits="userSpaceOnUse"><stop stop-color="#F69612"/><stop offset=".389" stop-color="#EAAB4A"/><stop offset="1" stop-color="#FFE379"/></linearGradient><linearGradient id="i" x1="216.998" x2="217.046" y1="102.658" y2="92.023" gradientUnits="userSpaceOnUse"><stop stop-color="#A64800"/><stop offset=".945" stop-color="#E78C00"/><stop offset="1" stop-color="#FFE379"/></linearGradient><linearGradient id="j" x1="217.324" x2="217.324" y1="37.792" y2="-29.576" gradientUnits="userSpaceOnUse"><stop stop-color="#F69612"/><stop offset=".389" stop-color="#EAAB4A"/><stop offset="1" stop-color="#FFE379"/></linearGradient><linearGradient id="k" x1="109.482" x2="109.482" y1="21.429" y2="-13.361" gradientUnits="userSpaceOnUse"><stop stop-color="#FFF96F"/><stop offset="1" stop-color="#FCFFDC"/></linearGradient><linearGradient id="l" x1="414.415" x2="428.271" y1="108.714" y2="54.183" gradientUnits="userSpaceOnUse"><stop stop-color="#FFD256"/><stop offset="1" stop-color="#CE590D"/></linearGradient><linearGradient id="m" x1="-7.31" x2="7.705" y1="85.916" y2="78.753" gradientUnits="userSpaceOnUse"><stop stop-color="#FFD256"/><stop offset="1" stop-color="#CE590D"/></linearGradient><linearGradient id="n" x1="44.222" x2="94.604" y1="-63.306" y2="23.373" gradientUnits="userSpaceOnUse"><stop stop-color="#fff"/><stop offset="1" stop-color="#FFFFFE"/></linearGradient><linearGradient id="o" x1="92.528" x2="158.525" y1="8.716" y2="122.259" gradientUnits="userSpaceOnUse"><stop stop-color="#fff"/><stop offset="1" stop-color="#FFFFFE"/></linearGradient><linearGradient id="p" x1="14.147" x2="14.147" y1="69.871" y2="42.144" gradientUnits="userSpaceOnUse"><stop stop-color="#F9972C"/><stop offset="1" stop-color="#FFE46C"/></linearGradient><linearGradient id="q" x1="8.734" x2="14.031" y1="42.361" y2="46.635" gradientUnits="userSpaceOnUse"><stop stop-color="#FFFFCD"/><stop offset="1" stop-color="#FFEB60"/></linearGradient><linearGradient id="r" x1="10.558" x2="8.634" y1="45.425" y2="43.288" gradientUnits="userSpaceOnUse"><stop stop-color="#FFEB60"/><stop offset="1" stop-color="#FFFFCD"/></linearGradient><linearGradient id="s" x1="13.776" x2="15.131" y1="46.59" y2="69.618" gradientUnits="userSpaceOnUse"><stop stop-color="#D06500"/><stop offset="1" stop-color="#BC7A00" stop-opacity="0"/></linearGradient><linearGradient id="t" x1="14.197" x2="13.907" y1="56.549" y2="33.799" gradientUnits="userSpaceOnUse"><stop stop-color="#FF9916"/><stop offset="1" stop-color="#CC4000"/></linearGradient><linearGradient id="u" x1="13.914" x2="14.701" y1="44.892" y2="71.17" gradientUnits="userSpaceOnUse"><stop stop-color="#FFC547"/><stop offset="1" stop-color="#FFEC93"/></linearGradient><linearGradient id="v" x1="25.291" x2="16.471" y1="41.319" y2="41.27" gradientUnits="userSpaceOnUse"><stop stop-color="#F8F6F6"/><stop offset="1" stop-color="#FFFFEF"/></linearGradient><linearGradient id="w" x1="8.633" x2="2.429" y1="61.02" y2="60.986" gradientUnits="userSpaceOnUse"><stop stop-color="#F8F6F6"/><stop offset="1" stop-color="#FFFFEF"/></linearGradient><linearGradient id="x" x1="11.14" x2="6.047" y1="59.27" y2="59.242" gradientUnits="userSpaceOnUse"><stop stop-color="#F8F6F6"/><stop offset="1" stop-color="#FFFFEF"/></linearGradient><linearGradient id="y" x1="16.567" x2="5.765" y1="54.758" y2="62.073" gradientUnits="userSpaceOnUse"><stop stop-color="#DFFF4F"/><stop offset="1" stop-color="#14DC55"/></linearGradient><linearGradient id="z" x1="11.794" x2="16.543" y1="47.049" y2="51.797" gradientUnits="userSpaceOnUse"><stop stop-color="#DFFF4F"/><stop offset="1" stop-color="#14DC55"/></linearGradient><linearGradient id="A" x1="16.183" x2="26.63" y1="55.405" y2="74.911" gradientUnits="userSpaceOnUse"><stop stop-color="#14DC55"/><stop offset="1" stop-color="#DFFF4F"/></linearGradient><linearGradient id="B" x1="14.158" x2="14.158" y1="60.467" y2="40.593" gradientUnits="userSpaceOnUse"><stop stop-color="#DFFF4F"/><stop offset="1" stop-color="#14DC55"/></linearGradient><linearGradient id="C" x1="23.433" x2="10.502" y1="42.52" y2="49.606" gradientUnits="userSpaceOnUse"><stop stop-color="#DFFF4F"/><stop offset="1" stop-color="#14DC55"/></linearGradient><linearGradient id="D" x1="17.613" x2="17.613" y1="43.249" y2="55.079" gradientUnits="userSpaceOnUse"><stop stop-color="#F8F6F6"/><stop offset="1" stop-color="#FFFFEF"/></linearGradient><linearGradient id="E" x1="12.301" x2="11.826" y1="57.358" y2="46.181" gradientUnits="userSpaceOnUse"><stop stop-color="#F8F6F6"/><stop offset=".882" stop-color="#C7FBBB"/></linearGradient><linearGradient id="F" x1="8.749" x2="9.334" y1="55.883" y2="49.344" gradientUnits="userSpaceOnUse"><stop stop-color="#F8F6F6"/><stop offset=".882" stop-color="#F8F6F6"/></linearGradient><linearGradient id="G" x1="419.863" x2="419.863" y1="69.871" y2="42.144" gradientUnits="userSpaceOnUse"><stop stop-color="#F9972C"/><stop offset="1" stop-color="#FFE46C"/></linearGradient><linearGradient id="H" x1="414.45" x2="419.746" y1="42.361" y2="46.635" gradientUnits="userSpaceOnUse"><stop stop-color="#FFFFCD"/><stop offset="1" stop-color="#FFEB60"/></linearGradient><linearGradient id="I" x1="416.273" x2="414.349" y1="45.425" y2="43.288" gradientUnits="userSpaceOnUse"><stop stop-color="#FFEB60"/><stop offset="1" stop-color="#FFFFCD"/></linearGradient><linearGradient id="J" x1="419.492" x2="420.846" y1="46.59" y2="69.618" gradientUnits="userSpaceOnUse"><stop stop-color="#FF5E1B"/><stop offset="1" stop-color="#F8F6F6"/></linearGradient><linearGradient id="K" x1="419.912" x2="419.622" y1="56.549" y2="33.799" gradientUnits="userSpaceOnUse"><stop stop-color="#FF9916"/><stop offset="1" stop-color="#CC4000"/></linearGradient><linearGradient id="L" x1="419.629" x2="420.417" y1="44.892" y2="71.17" gradientUnits="userSpaceOnUse"><stop stop-color="#FFC547"/><stop offset="1" stop-color="#FFEC93"/></linearGradient><linearGradient id="M" x1="431.006" x2="422.186" y1="41.319" y2="41.27" gradientUnits="userSpaceOnUse"><stop stop-color="#F8F6F6"/><stop offset="1" stop-color="#FFFFEF"/></linearGradient><linearGradient id="N" x1="414.349" x2="408.144" y1="61.02" y2="60.986" gradientUnits="userSpaceOnUse"><stop stop-color="#F8F6F6"/><stop offset="1" stop-color="#FFFFEF"/></linearGradient><linearGradient id="O" x1="416.855" x2="411.762" y1="59.27" y2="59.242" gradientUnits="userSpaceOnUse"><stop stop-color="#F8F6F6"/><stop offset="1" stop-color="#FFFFEF"/></linearGradient><linearGradient id="P" x1="422.282" x2="411.48" y1="54.758" y2="62.073" gradientUnits="userSpaceOnUse"><stop stop-color="#DFFF4F"/><stop offset="1" stop-color="#14DC55"/></linearGradient><linearGradient id="Q" x1="417.509" x2="422.258" y1="47.049" y2="51.797" gradientUnits="userSpaceOnUse"><stop stop-color="#DFFF4F"/><stop offset="1" stop-color="#14DC55"/></linearGradient><linearGradient id="R" x1="421.898" x2="432.345" y1="55.405" y2="74.911" gradientUnits="userSpaceOnUse"><stop stop-color="#14DC55"/><stop offset="1" stop-color="#DFFF4F"/></linearGradient><linearGradient id="S" x1="419.873" x2="419.873" y1="60.467" y2="40.593" gradientUnits="userSpaceOnUse"><stop stop-color="#DFFF4F"/><stop offset="1" stop-color="#14DC55"/></linearGradient><linearGradient id="T" x1="429.148" x2="416.217" y1="42.519" y2="49.606" gradientUnits="userSpaceOnUse"><stop stop-color="#DFFF4F"/><stop offset="1" stop-color="#14DC55"/></linearGradient><linearGradient id="U" x1="423.328" x2="423.328" y1="43.249" y2="55.079" gradientUnits="userSpaceOnUse"><stop stop-color="#F8F6F6"/><stop offset="1" stop-color="#FFFFEF"/></linearGradient><linearGradient id="V" x1="418.016" x2="417.541" y1="57.358" y2="46.181" gradientUnits="userSpaceOnUse"><stop stop-color="#FFEDF9"/><stop offset=".882" stop-color="#EB93DB"/></linearGradient><linearGradient id="W" x1="414.465" x2="415.049" y1="55.883" y2="49.344" gradientUnits="userSpaceOnUse"><stop stop-color="#FFEDF9"/><stop offset=".882" stop-color="#EB93DB"/></linearGradient><radialGradient id="a" cx="0" cy="0" r="1" gradientTransform="matrix(0 136.579 -555.265 0 216.63 -1.647)" gradientUnits="userSpaceOnUse"><stop stop-color="#A578FF"/><stop offset="1" stop-color="#A578FF" stop-opacity="0"/></radialGradient><filter id="b" width="412.683" height="98.539" x="11.026" y="1.913" color-interpolation-filters="sRGB" filterUnits="userSpaceOnUse"><feFlood flood-opacity="0" result="BackgroundImageFix"/><feBlend in="SourceGraphic" in2="BackgroundImageFix" result="shape"/><feGaussianBlur result="effect1_foregroundBlur_2001_18499" stdDeviation="1.838"/></filter></defs></svg>