<svg width="705" height="284" viewBox="0 0 705 284" fill="none" xmlns="http://www.w3.org/2000/svg">
<path d="M348.22 203.399C352.616 201.449 354.597 196.28 352.646 191.884C350.696 187.489 345.527 185.508 341.132 187.458C336.736 189.408 334.755 194.577 336.705 198.973C338.655 203.368 343.794 205.349 348.22 203.399Z" fill="#7F668D"/>
<path d="M349.612 214.202C356.113 211.292 359.022 203.678 356.144 197.177C353.234 190.677 345.619 187.767 339.119 190.646C332.619 193.556 329.709 201.17 332.588 207.671C335.498 214.202 343.112 217.112 349.612 214.202Z" fill="#FFFFA9"/>
<g style="mix-blend-mode:screen" opacity="0.5">
<path d="M342.803 121C297.825 121 261.363 157.462 261.363 202.44C261.363 247.418 297.825 283.879 342.803 283.879C387.78 283.879 424.242 247.418 424.242 202.44C424.242 157.462 387.781 121 342.803 121Z" fill="url(#paint0_radial_2001_11909)"/>
</g>
<path d="M245.341 203.399C249.736 201.449 251.717 196.28 249.767 191.884C247.817 187.489 242.648 185.508 238.252 187.458C233.857 189.408 231.876 194.577 233.826 198.973C235.776 203.368 240.914 205.349 245.341 203.399Z" fill="#7F668D"/>
<path d="M246.734 214.202C253.234 211.292 256.144 203.678 253.265 197.177C250.355 190.677 242.741 187.767 236.24 190.646C229.74 193.556 226.83 201.17 229.709 207.671C232.619 214.202 240.233 217.112 246.734 214.202Z" fill="#FFFFA9"/>
<g style="mix-blend-mode:screen" opacity="0.5">
<path d="M239.924 121C194.946 121 158.484 157.462 158.484 202.44C158.484 247.418 194.946 283.879 239.924 283.879C284.902 283.879 321.363 247.418 321.363 202.44C321.363 157.462 284.902 121 239.924 121Z" fill="url(#paint1_radial_2001_11909)"/>
</g>
<path d="M142.462 203.399C146.857 201.448 148.838 196.279 146.888 191.884C144.938 187.488 139.769 185.507 135.373 187.457C130.978 189.407 128.997 194.577 130.947 198.972C132.897 203.368 138.035 205.349 142.462 203.399Z" fill="#7F668D"/>
<path d="M143.854 214.202C150.355 211.292 153.264 203.677 150.386 197.177C147.476 190.677 139.861 187.767 133.361 190.646C126.861 193.555 123.951 201.17 126.83 207.67C129.739 214.202 137.354 217.111 143.854 214.202Z" fill="#FFFFA9"/>
<g style="mix-blend-mode:screen" opacity="0.5">
<path d="M137.045 121C92.0668 121 55.6051 157.462 55.6051 202.439C55.6051 247.417 92.0668 283.879 137.045 283.879C182.022 283.879 218.484 247.417 218.484 202.439C218.484 157.462 182.022 121 137.045 121Z" fill="url(#paint2_radial_2001_11909)"/>
</g>
<path d="M451.099 203.399C455.494 201.449 457.475 196.28 455.525 191.884C453.575 187.489 448.405 185.508 444.01 187.458C439.615 189.408 437.634 194.577 439.584 198.973C441.534 203.368 446.672 205.349 451.099 203.399Z" fill="#7F668D"/>
<path d="M452.491 214.202C458.992 211.292 461.901 203.678 459.023 197.177C456.113 190.677 448.498 187.767 441.998 190.646C435.498 193.556 432.588 201.17 435.467 207.671C438.376 214.202 445.991 217.112 452.491 214.202Z" fill="#FFFFA9"/>
<g style="mix-blend-mode:screen" opacity="0.5">
<path d="M445.682 121C400.704 121 364.242 157.462 364.242 202.44C364.242 247.418 400.704 283.879 445.682 283.879C490.659 283.879 527.121 247.418 527.121 202.44C527.121 157.462 490.659 121 445.682 121Z" fill="url(#paint3_radial_2001_11909)"/>
</g>
<path d="M553.977 203.399C558.373 201.449 560.354 196.28 558.404 191.884C556.454 187.489 551.284 185.508 546.889 187.458C542.494 189.408 540.512 194.577 542.463 198.973C544.413 203.368 549.551 205.349 553.977 203.399Z" fill="#7F668D"/>
<path d="M555.37 214.202C561.871 211.292 564.78 203.678 561.902 197.177C558.992 190.677 551.377 187.767 544.877 190.646C538.377 193.556 535.467 201.17 538.346 207.671C541.255 214.202 548.87 217.112 555.37 214.202Z" fill="#FFFFA9"/>
<g style="mix-blend-mode:screen" opacity="0.5">
<path d="M548.561 121C503.583 121 467.121 157.462 467.121 202.44C467.121 247.418 503.583 283.879 548.561 283.879C593.538 283.879 630 247.418 630 202.44C630 157.462 593.538 121 548.561 121Z" fill="url(#paint4_radial_2001_11909)"/>
</g>
<path d="M348.22 80.4804C352.616 82.4305 354.597 87.5998 352.647 91.9952C350.697 96.3906 345.527 98.3717 341.132 96.4216C336.736 94.4715 334.755 89.3022 336.706 84.9068C338.656 80.5113 343.794 78.5303 348.22 80.4804Z" fill="#7F668D"/>
<path d="M349.612 69.6773C356.113 72.587 359.022 80.2016 356.144 86.7019C353.234 93.2022 345.619 96.1119 339.119 93.2332C332.619 90.3235 329.709 82.7089 332.588 76.2086C335.498 69.6773 343.112 66.7677 349.612 69.6773Z" fill="#FFFFA9"/>
<g style="mix-blend-mode:screen" opacity="0.5">
<path d="M342.803 162.879C297.825 162.879 261.363 126.417 261.363 81.4395C261.363 36.4617 297.825 -1.10518e-05 342.803 -7.11967e-06C387.78 -3.18758e-06 424.242 36.4617 424.242 81.4395C424.242 126.417 387.78 162.879 342.803 162.879Z" fill="url(#paint5_radial_2001_11909)"/>
</g>
<path d="M235.341 80.4804C239.736 82.4305 241.717 87.5998 239.767 91.9952C237.817 96.3906 232.648 98.3717 228.252 96.4216C223.857 94.4715 221.876 89.3022 223.826 84.9068C225.776 80.5113 230.914 78.5303 235.341 80.4804Z" fill="#7F668D"/>
<path d="M236.734 69.6773C243.234 72.587 246.144 80.2016 243.265 86.7019C240.355 93.2022 232.741 96.1119 226.24 93.2332C219.74 90.3235 216.83 82.7089 219.709 76.2086C222.619 69.6773 230.233 66.7677 236.734 69.6773Z" fill="#FFFFA9"/>
<g style="mix-blend-mode:screen" opacity="0.5">
<path d="M229.924 162.879C184.946 162.879 148.484 126.417 148.484 81.4395C148.484 36.4617 184.946 -1.10518e-05 229.924 -7.11967e-06C274.902 -3.18758e-06 311.363 36.4617 311.363 81.4395C311.363 126.417 274.902 162.879 229.924 162.879Z" fill="url(#paint6_radial_2001_11909)"/>
</g>
<path d="M122.462 80.4804C126.857 82.4305 128.838 87.5998 126.888 91.9952C124.938 96.3906 119.769 98.3717 115.373 96.4216C110.978 94.4715 108.997 89.3022 110.947 84.9068C112.897 80.5113 118.035 78.5303 122.462 80.4804Z" fill="#7F668D"/>
<path d="M123.855 69.6773C130.355 72.587 133.264 80.2016 130.386 86.7019C127.476 93.2022 119.861 96.1119 113.361 93.2332C106.861 90.3235 103.951 82.7089 106.83 76.2086C109.74 69.6773 117.354 66.7677 123.855 69.6773Z" fill="#FFFFA9"/>
<g style="mix-blend-mode:screen" opacity="0.5">
<path d="M117.045 162.879C72.0669 162.879 35.6052 126.417 35.6052 81.4395C35.6053 36.4617 72.067 -1.10518e-05 117.045 -7.11967e-06C162.023 -3.18758e-06 198.484 36.4617 198.484 81.4395C198.484 126.417 162.023 162.879 117.045 162.879Z" fill="url(#paint7_radial_2001_11909)"/>
</g>
<path d="M461.099 80.4804C465.494 82.4305 467.475 87.5998 465.525 91.9952C463.575 96.3906 458.405 98.3717 454.01 96.4216C449.615 94.4715 447.634 89.3022 449.584 84.9068C451.534 80.5113 456.672 78.5303 461.099 80.4804Z" fill="#7F668D"/>
<path d="M462.491 69.6773C468.992 72.587 471.901 80.2016 469.023 86.7019C466.113 93.2022 458.498 96.1119 451.998 93.2332C445.498 90.3235 442.588 82.7089 445.467 76.2086C448.376 69.6773 455.991 66.7677 462.491 69.6773Z" fill="#FFFFA9"/>
<g style="mix-blend-mode:screen" opacity="0.5">
<path d="M455.682 162.879C410.704 162.879 374.242 126.417 374.242 81.4395C374.242 36.4617 410.704 -1.10518e-05 455.682 -7.11967e-06C500.659 -3.18758e-06 537.121 36.4617 537.121 81.4395C537.121 126.417 500.659 162.879 455.682 162.879Z" fill="url(#paint8_radial_2001_11909)"/>
</g>
<path d="M573.977 80.4804C578.373 82.4305 580.354 87.5998 578.404 91.9952C576.454 96.3906 571.284 98.3717 566.889 96.4216C562.494 94.4715 560.512 89.3022 562.463 84.9068C564.413 80.5113 569.551 78.5303 573.977 80.4804Z" fill="#7F668D"/>
<path d="M575.37 69.6773C581.871 72.587 584.78 80.2016 581.902 86.7019C578.992 93.2022 571.377 96.1119 564.877 93.2332C558.377 90.3235 555.467 82.7089 558.346 76.2086C561.255 69.6773 568.87 66.7677 575.37 69.6773Z" fill="#FFFFA9"/>
<g style="mix-blend-mode:screen" opacity="0.5">
<path d="M568.56 162.879C523.583 162.879 487.121 126.417 487.121 81.4395C487.121 36.4617 523.583 -1.10518e-05 568.561 -7.11967e-06C613.538 -3.18758e-06 650 36.4617 650 81.4395C650 126.417 613.538 162.879 568.56 162.879Z" fill="url(#paint9_radial_2001_11909)"/>
</g>
<path d="M624.399 149.856C622.449 154.252 617.279 156.233 612.884 154.283C608.488 152.333 606.507 147.163 608.457 142.768C610.408 138.373 615.577 136.392 619.972 138.342C624.368 140.292 626.349 145.43 624.399 149.856Z" fill="#7F668D"/>
<path d="M635.202 151.249C632.292 157.75 624.677 160.659 618.177 157.781C611.677 154.871 608.767 147.256 611.646 140.756C614.555 134.256 622.17 131.346 628.67 134.225C635.202 137.134 638.111 144.749 635.202 151.249Z" fill="#FFFFA9"/>
<g style="mix-blend-mode:screen" opacity="0.5">
<path d="M542 144.44C542 99.4617 578.462 63 623.439 63C668.417 63 704.879 99.4617 704.879 144.44C704.879 189.417 668.417 225.879 623.439 225.879C578.462 225.879 542 189.417 542 144.44Z" fill="url(#paint10_radial_2001_11909)"/>
</g>
<path d="M80.4804 149.856C82.4305 154.252 87.5998 156.233 91.9952 154.283C96.3906 152.333 98.3717 147.163 96.4216 142.768C94.4715 138.372 89.3022 136.391 84.9068 138.341C80.5113 140.292 78.5303 145.43 80.4804 149.856Z" fill="#7F668D"/>
<path d="M69.6773 151.249C72.587 157.749 80.2016 160.659 86.7019 157.78C93.2022 154.871 96.1119 147.256 93.2332 140.756C90.3235 134.256 82.7089 131.346 76.2086 134.225C69.6773 137.134 66.7677 144.749 69.6773 151.249Z" fill="#FFFFA9"/>
<g style="mix-blend-mode:screen" opacity="0.5">
<path d="M162.879 144.439C162.879 99.4616 126.417 62.9999 81.4395 62.9999C36.4617 62.9999 5.52588e-06 99.4616 3.55983e-06 144.439C1.59379e-06 189.417 36.4617 225.879 81.4395 225.879C126.417 225.879 162.879 189.417 162.879 144.439Z" fill="url(#paint11_radial_2001_11909)"/>
</g>
<defs>
<radialGradient id="paint0_radial_2001_11909" cx="0" cy="0" r="1" gradientUnits="userSpaceOnUse" gradientTransform="translate(342.793 202.446) rotate(100.404) scale(81.442)">
<stop stop-color="#FC5000"/>
<stop offset="0.0472" stop-color="#E84900"/>
<stop offset="0.1985" stop-color="#AB3600"/>
<stop offset="0.349" stop-color="#772600"/>
<stop offset="0.495" stop-color="#4C1800"/>
<stop offset="0.6358" stop-color="#2B0E00"/>
<stop offset="0.7698" stop-color="#130600"/>
<stop offset="0.8943" stop-color="#050200"/>
<stop offset="1"/>
</radialGradient>
<radialGradient id="paint1_radial_2001_11909" cx="0" cy="0" r="1" gradientUnits="userSpaceOnUse" gradientTransform="translate(239.914 202.446) rotate(100.404) scale(81.442)">
<stop stop-color="#FC5000"/>
<stop offset="0.0472" stop-color="#E84900"/>
<stop offset="0.1985" stop-color="#AB3600"/>
<stop offset="0.349" stop-color="#772600"/>
<stop offset="0.495" stop-color="#4C1800"/>
<stop offset="0.6358" stop-color="#2B0E00"/>
<stop offset="0.7698" stop-color="#130600"/>
<stop offset="0.8943" stop-color="#050200"/>
<stop offset="1"/>
</radialGradient>
<radialGradient id="paint2_radial_2001_11909" cx="0" cy="0" r="1" gradientUnits="userSpaceOnUse" gradientTransform="translate(137.035 202.446) rotate(100.404) scale(81.442)">
<stop stop-color="#FC5000"/>
<stop offset="0.0472" stop-color="#E84900"/>
<stop offset="0.1985" stop-color="#AB3600"/>
<stop offset="0.349" stop-color="#772600"/>
<stop offset="0.495" stop-color="#4C1800"/>
<stop offset="0.6358" stop-color="#2B0E00"/>
<stop offset="0.7698" stop-color="#130600"/>
<stop offset="0.8943" stop-color="#050200"/>
<stop offset="1"/>
</radialGradient>
<radialGradient id="paint3_radial_2001_11909" cx="0" cy="0" r="1" gradientUnits="userSpaceOnUse" gradientTransform="translate(445.672 202.446) rotate(100.404) scale(81.442)">
<stop stop-color="#FC5000"/>
<stop offset="0.0472" stop-color="#E84900"/>
<stop offset="0.1985" stop-color="#AB3600"/>
<stop offset="0.349" stop-color="#772600"/>
<stop offset="0.495" stop-color="#4C1800"/>
<stop offset="0.6358" stop-color="#2B0E00"/>
<stop offset="0.7698" stop-color="#130600"/>
<stop offset="0.8943" stop-color="#050200"/>
<stop offset="1"/>
</radialGradient>
<radialGradient id="paint4_radial_2001_11909" cx="0" cy="0" r="1" gradientUnits="userSpaceOnUse" gradientTransform="translate(548.551 202.446) rotate(100.404) scale(81.442)">
<stop stop-color="#FC5000"/>
<stop offset="0.0472" stop-color="#E84900"/>
<stop offset="0.1985" stop-color="#AB3600"/>
<stop offset="0.349" stop-color="#772600"/>
<stop offset="0.495" stop-color="#4C1800"/>
<stop offset="0.6358" stop-color="#2B0E00"/>
<stop offset="0.7698" stop-color="#130600"/>
<stop offset="0.8943" stop-color="#050200"/>
<stop offset="1"/>
</radialGradient>
<radialGradient id="paint5_radial_2001_11909" cx="0" cy="0" r="1" gradientUnits="userSpaceOnUse" gradientTransform="translate(342.793 81.4328) rotate(-100.404) scale(81.442)">
<stop stop-color="#FC5000"/>
<stop offset="0.0472" stop-color="#E84900"/>
<stop offset="0.1985" stop-color="#AB3600"/>
<stop offset="0.349" stop-color="#772600"/>
<stop offset="0.495" stop-color="#4C1800"/>
<stop offset="0.6358" stop-color="#2B0E00"/>
<stop offset="0.7698" stop-color="#130600"/>
<stop offset="0.8943" stop-color="#050200"/>
<stop offset="1"/>
</radialGradient>
<radialGradient id="paint6_radial_2001_11909" cx="0" cy="0" r="1" gradientUnits="userSpaceOnUse" gradientTransform="translate(229.914 81.4328) rotate(-100.404) scale(81.442)">
<stop stop-color="#FC5000"/>
<stop offset="0.0472" stop-color="#E84900"/>
<stop offset="0.1985" stop-color="#AB3600"/>
<stop offset="0.349" stop-color="#772600"/>
<stop offset="0.495" stop-color="#4C1800"/>
<stop offset="0.6358" stop-color="#2B0E00"/>
<stop offset="0.7698" stop-color="#130600"/>
<stop offset="0.8943" stop-color="#050200"/>
<stop offset="1"/>
</radialGradient>
<radialGradient id="paint7_radial_2001_11909" cx="0" cy="0" r="1" gradientUnits="userSpaceOnUse" gradientTransform="translate(117.035 81.4328) rotate(-100.404) scale(81.442)">
<stop stop-color="#FC5000"/>
<stop offset="0.0472" stop-color="#E84900"/>
<stop offset="0.1985" stop-color="#AB3600"/>
<stop offset="0.349" stop-color="#772600"/>
<stop offset="0.495" stop-color="#4C1800"/>
<stop offset="0.6358" stop-color="#2B0E00"/>
<stop offset="0.7698" stop-color="#130600"/>
<stop offset="0.8943" stop-color="#050200"/>
<stop offset="1"/>
</radialGradient>
<radialGradient id="paint8_radial_2001_11909" cx="0" cy="0" r="1" gradientUnits="userSpaceOnUse" gradientTransform="translate(455.672 81.4328) rotate(-100.404) scale(81.442)">
<stop stop-color="#FC5000"/>
<stop offset="0.0472" stop-color="#E84900"/>
<stop offset="0.1985" stop-color="#AB3600"/>
<stop offset="0.349" stop-color="#772600"/>
<stop offset="0.495" stop-color="#4C1800"/>
<stop offset="0.6358" stop-color="#2B0E00"/>
<stop offset="0.7698" stop-color="#130600"/>
<stop offset="0.8943" stop-color="#050200"/>
<stop offset="1"/>
</radialGradient>
<radialGradient id="paint9_radial_2001_11909" cx="0" cy="0" r="1" gradientUnits="userSpaceOnUse" gradientTransform="translate(568.551 81.4328) rotate(-100.404) scale(81.442)">
<stop stop-color="#FC5000"/>
<stop offset="0.0472" stop-color="#E84900"/>
<stop offset="0.1985" stop-color="#AB3600"/>
<stop offset="0.349" stop-color="#772600"/>
<stop offset="0.495" stop-color="#4C1800"/>
<stop offset="0.6358" stop-color="#2B0E00"/>
<stop offset="0.7698" stop-color="#130600"/>
<stop offset="0.8943" stop-color="#050200"/>
<stop offset="1"/>
</radialGradient>
<radialGradient id="paint10_radial_2001_11909" cx="0" cy="0" r="1" gradientUnits="userSpaceOnUse" gradientTransform="translate(623.446 144.43) rotate(-10.4043) scale(81.442)">
<stop stop-color="#FC5000"/>
<stop offset="0.0472" stop-color="#E84900"/>
<stop offset="0.1985" stop-color="#AB3600"/>
<stop offset="0.349" stop-color="#772600"/>
<stop offset="0.495" stop-color="#4C1800"/>
<stop offset="0.6358" stop-color="#2B0E00"/>
<stop offset="0.7698" stop-color="#130600"/>
<stop offset="0.8943" stop-color="#050200"/>
<stop offset="1"/>
</radialGradient>
<radialGradient id="paint11_radial_2001_11909" cx="0" cy="0" r="1" gradientUnits="userSpaceOnUse" gradientTransform="translate(81.4329 144.43) rotate(-169.596) scale(81.442)">
<stop stop-color="#FC5000"/>
<stop offset="0.0472" stop-color="#E84900"/>
<stop offset="0.1985" stop-color="#AB3600"/>
<stop offset="0.349" stop-color="#772600"/>
<stop offset="0.495" stop-color="#4C1800"/>
<stop offset="0.6358" stop-color="#2B0E00"/>
<stop offset="0.7698" stop-color="#130600"/>
<stop offset="0.8943" stop-color="#050200"/>
<stop offset="1"/>
</radialGradient>
</defs>
</svg>
