<svg xmlns="http://www.w3.org/2000/svg" width="264" height="68" fill="none"><path fill="url(#a)" d="M1.17 9.77c.562-3.61 2.538-7.76 6.181-8.032C18.32.918 49.112 0 132 0c82.307 0 113.246.905 124.415 1.721 3.726.272 5.957 4.58 6.524 8.271.876 5.71 1.61 14.826.5 27.008-.892 9.786-2.577 16.407-4.173 20.741-1.409 3.826-7.757 8.164-11.824 8.448C235.441 67.027 205.651 68 132 68c-75.558 0-104.955-1.025-116.339-1.876-3.791-.284-9.046-4.117-10.426-7.66C3.502 54.016 1.547 47.08.56 37-.594 25.182.25 15.69 1.17 9.77Z"/><path fill="url(#b)" d="M2.157 9.484c.201-3.51 1.626-7.447 5.132-7.72C17.912.937 48.393 0 132 0c82.838 0 113.523.92 124.413 1.741 3.619.273 5.3 4.429 5.476 8.054.22 4.533.183 11.639-.779 22.205-1.348 14.83-4.061 22.844-5.686 26.492-.732 1.644-2.333 2.573-4.13 2.662C241.922 61.624 207.952 63 132 63c-75.063 0-109.121-1.344-118.955-1.829-1.984-.097-3.738-1.202-4.486-3.042C6.932 54.127 4.234 45.77 2.89 32c-1.024-10.492-1-17.841-.732-22.516Z"/><path fill="url(#c)" d="M132 56c23.882 0 94.821-1.905 112-2 0 0 9.5 4-112 4S20 54 20 54c17.179.095 88.118 2 112 2Z" style="mix-blend-mode:screen"/><path fill="url(#d)" d="M4.412 8.957c.136-2.885 2.447-5.087 5.33-5.241C23.712 2.968 66.663 1 132 1c65.365 0 108.325 1.97 122.276 2.717 2.875.154 5.181 2.345 5.316 5.221.297 6.3.296 18.071-2.372 32.062 1.368-14.344-.068-24.489-1.116-29.479-.459-2.187-2.251-3.722-4.474-3.958C241.849 6.525 210.03 4 132 4 54.103 4 22.26 6.516 12.42 7.557c-2.249.238-4.058 1.805-4.514 4.02C6.857 16.664 5.408 26.954 6.78 41 4.1 27.276 4.111 15.345 4.412 8.957Z" style="mix-blend-mode:screen"/><path fill="url(#e)" d="M9.24 12.672c.21-1.743 1.62-2.703 3.374-2.758C28.294 9.424 107.196 7 132 7c25.701 0 109.481 2.603 120.833 2.96.866.027 1.576.394 1.76 1.24.431 1.983.814 7.193-.482 20.8-1.63 17.098-5.249 20.938-6.538 21.775-.291.188-.587.228-.934.236C239.907 54.171 162.177 56 132 56c-29.244 0-103.147-1.718-113.815-1.97-.882-.02-1.705-.254-2.28-.923-1.563-1.814-4.571-7.032-6.016-21.107-1.122-10.94-.985-16.529-.649-19.328Z"/><mask id="g" width="246" height="49" x="9" y="7" maskUnits="userSpaceOnUse" style="mask-type:alpha"><path fill="url(#f)" d="M9.235 13.039c.218-1.945 1.788-3.14 3.74-3.28C22.937 9.046 57.975 7 131.89 7c73.377 0 108.44 2.016 118.692 2.743 2.07.147 3.747 1.45 3.967 3.514.329 3.074.451 8.752-.659 18.743-1.392 12.524-4.235 18.27-5.837 20.608-.672.98-1.787 1.444-2.973 1.518-6.974.44-35.691 1.874-113.19 1.874-78.343 0-106.836-1.466-113.41-1.888-1.056-.068-2.044-.447-2.673-1.298C14.221 50.67 11.304 45.09 9.89 32c-1.117-10.33-.986-15.983-.654-18.961Z"/></mask><g filter="url(#h)" mask="url(#g)"><ellipse cx="134" cy="56.5" fill="#01A406" rx="114" ry="11.5"/></g><path fill="url(#i)" d="M13.21 15.196c.17-.97 1.207-1.241 2.188-1.315C22.856 13.325 58.416 11 132 11c76.577 0 111.973 2.518 117.373 2.94.502.04.943.235 1.108.711.463 1.342 1.039 5.38-.37 17.349-1.627 13.815-5.235 17.724-6.53 18.704-.297.224-.662.315-1.033.345C238.811 51.357 214.978 53 132 53c-84.38 0-107.6-1.699-110.72-1.965-.269-.023-.523-.018-.782-.093-1.22-.351-4.948-2.762-6.609-18.942-1.088-10.611-.992-15.004-.678-16.804Z" opacity=".66" style="mix-blend-mode:screen"/><g filter="url(#j)" opacity=".47" style="mix-blend-mode:screen"><ellipse cx="132" cy="18.5" fill="#77FF7B" rx="115" ry="6.5"/></g><defs><linearGradient id="a" x1="132" x2="132" y1="0" y2="83" gradientUnits="userSpaceOnUse"><stop stop-color="#FDC00F"/><stop offset="1" stop-color="#955C1A"/></linearGradient><linearGradient id="b" x1="132" x2="132" y1="0" y2="83" gradientUnits="userSpaceOnUse"><stop stop-color="#FDC00F"/><stop offset="1" stop-color="#E9BA02"/></linearGradient><linearGradient id="c" x1="132" x2="132" y1="-20" y2="63" gradientUnits="userSpaceOnUse"><stop stop-color="#FDC00F"/><stop offset="1" stop-color="#E9BA02"/></linearGradient><linearGradient id="d" x1="132" x2="132" y1="0" y2="83" gradientUnits="userSpaceOnUse"><stop stop-color="#FFD866"/><stop offset="1" stop-color="#FFD73B"/></linearGradient><linearGradient id="e" x1="132" x2="132" y1="5" y2="78" gradientUnits="userSpaceOnUse"><stop stop-color="#004A02"/><stop offset="1" stop-color="#008C05"/></linearGradient><linearGradient id="f" x1="131.889" x2="131.889" y1="5" y2="78" gradientUnits="userSpaceOnUse"><stop stop-color="#006403"/><stop offset="1" stop-color="#009A05"/></linearGradient><linearGradient id="i" x1="132" x2="132" y1="5" y2="78" gradientUnits="userSpaceOnUse"><stop stop-color="#009A05"/><stop offset=".485" stop-color="#006403" stop-opacity="0"/></linearGradient><filter id="h" width="243" height="38" x="12.5" y="37.5" color-interpolation-filters="sRGB" filterUnits="userSpaceOnUse"><feFlood flood-opacity="0" result="BackgroundImageFix"/><feBlend in="SourceGraphic" in2="BackgroundImageFix" result="shape"/><feGaussianBlur result="effect1_foregroundBlur_595_23819" stdDeviation="3.75"/></filter><filter id="j" width="245" height="28" x="9.5" y="4.5" color-interpolation-filters="sRGB" filterUnits="userSpaceOnUse"><feFlood flood-opacity="0" result="BackgroundImageFix"/><feBlend in="SourceGraphic" in2="BackgroundImageFix" result="shape"/><feGaussianBlur result="effect1_foregroundBlur_595_23819" stdDeviation="3.75"/></filter></defs></svg>