<svg xmlns="http://www.w3.org/2000/svg" width="1160" height="224" fill="none"><path stroke="url(#a)" stroke-width="6" d="M40 41c0-14.911 12.088-27 27-27h1026c14.91 0 27 12.089 27 27v116c0 14.912-12.09 27-27 27H67c-14.912 0-27-12.088-27-27V41Z"/><path stroke="url(#b)" stroke-width="10" d="M67 6C47.67 6 32 21.67 32 41v116c0 19.33 15.67 35 35 35h1026c19.33 0 35-15.67 35-35V41c0-19.33-15.67-35-35-35H67Z"/><g filter="url(#c)"><path stroke="url(#d)" stroke-width="2" d="M32 41C32 21.118 48.118 5 68 5h1024c19.88 0 36 16.118 36 36v116c0 19.882-16.12 36-36 36H68c-19.882 0-36-16.118-36-36V41Z"/></g><g filter="url(#e)"><path stroke="url(#f)" d="M32 41C32 21.118 48.118 5 68 5h1024c19.88 0 36 16.118 36 36v116c0 19.882-16.12 36-36 36H68c-19.882 0-36-16.118-36-36V41Z"/></g><path fill="url(#g)" d="M29.785 96.653 4.662 82.663 0 54l27.576 11.307 2.21 31.302v.044Z"/><path fill="url(#h)" d="m0 54 23.068 14.034 5.06 27.717c-.177-.968-13.257-22.371-13.257-22.371L0 54Z"/><path fill="url(#i)" d="m6.629 63.789.64 15.31 15.291 8.117-12.175-11.153L6.63 63.79Z" opacity=".5"/><path fill="url(#j)" d="m29.785 96.609-1.679-.88-5.193-27.387L0 54l27.487 11.263.089.044 2.21 31.302Z"/><path fill="url(#k)" d="M6.629 63.789c.265.264 11.446 6.665 11.446 6.665l4.485 16.762-13.523-9.591L6.63 63.789Z"/><path fill="url(#l)" d="m6.982 64.009 11.048 6.269 4.22 15.772s-5.877-13.396-6.407-14.034c-.553-.616-8.507-7.765-8.86-8.007Z" opacity=".5"/><path fill="url(#m)" d="m29.785 96.609-1.679-.88-5.192-27.387 4.573-3.08.089.045 2.21 31.302Z" opacity=".5"/><path fill="url(#n)" d="m1.237 54.77 20.991 13.66 1.68 5.148-.84-5.566L1.238 54.77Z"/><path fill="url(#o)" d="m29.785 100.326-25.123 13.99L0 143l27.576-11.306 2.21-31.324v-.044Z"/><path fill="url(#p)" d="m0 143 23.068-14.034 5.06-27.716c-.177.968-13.257 22.371-13.257 22.371L0 143Z"/><path fill="url(#q)" d="m6.629 133.212.64-15.31 15.291-8.139-12.175 11.174-3.756 12.275Z" opacity=".5"/><path fill="url(#r)" d="m29.785 100.37-1.679.902-5.193 27.386L0 143l27.487-11.284.089-.022 2.21-31.324Z"/><path fill="url(#s)" d="M6.629 133.212c.265-.264 11.446-6.666 11.446-6.666l4.485-16.761-13.523 9.59-2.408 13.837Z"/><path fill="url(#t)" d="m6.982 132.992 11.048-6.27 4.22-15.771s-5.877 13.396-6.407 14.034c-.553.616-8.507 7.765-8.86 8.007Z" opacity=".5"/><path fill="url(#u)" d="m29.785 100.37-1.679.902-5.192 27.386 4.573 3.058.089-.022 2.21-31.324Z" opacity=".5"/><path fill="url(#v)" d="m1.237 142.23 20.991-13.66 1.68-5.169-.84 5.565-21.83 13.264Z"/><path fill="url(#w)" d="M35 98.214c0-8.71-7.093-15.772-15.843-15.772S3.314 89.504 3.314 98.215c0 8.711 7.094 15.772 15.843 15.772 8.75 0 15.843-7.061 15.843-15.772Z"/><path fill="url(#x)" d="M7.513 108.817c2.231 2.002 5.17 3.277 8.418 3.277 6.96 0 12.617-5.631 12.617-12.56s-5.656-12.56-12.617-12.56c-6.739 0-12.197 5.28-12.55 11.9 0-.22-.067-.44-.067-.66 0-8.71 7.093-15.772 15.843-15.772S35 89.504 35 98.215c0 8.711-7.093 15.772-15.843 15.772-4.618 0-8.75-2.024-11.644-5.169Z" opacity=".5"/><path fill="url(#y)" d="M7.181 102.152c-.751-2.948 4.22-5.368 5.635-1.606 1.414 3.762 4.021 4.509 1.17 5.147-2.85.638-6.031-.506-6.805-3.541Z"/><path fill="url(#z)" d="m1130.21 96.653 25.13-13.99L1160 54l-27.58 11.307-2.21 31.302v.044Z"/><path fill="url(#A)" d="m1160 54-23.07 14.034s-5.23 28.684-5.06 27.717c.18-.968 13.26-22.371 13.26-22.371L1160 54Z"/><path fill="url(#B)" d="m1153.37 63.789-.64 15.31-15.29 8.117 12.17-11.153 3.76-12.274Z" opacity=".5"/><path fill="url(#C)" d="m1130.21 96.609 1.68-.88 5.2-27.387L1160 54l-27.49 11.263-.09.044-2.21 31.302Z"/><path fill="url(#D)" d="M1153.37 63.789c-.26.264-11.44 6.665-11.44 6.665l-4.49 16.762 13.52-9.591 2.41-13.836Z"/><path fill="url(#E)" d="m1153.02 64.009-11.05 6.269-4.22 15.772s5.88-13.396 6.41-14.034c.55-.616 8.5-7.765 8.86-8.007Z" opacity=".5"/><path fill="url(#F)" d="m1130.21 96.609 1.68-.88 5.2-27.387-4.58-3.08-.09.045-2.21 31.302Z" opacity=".5"/><path fill="url(#G)" d="m1158.76 54.77-20.99 13.66-1.68 5.148.84-5.566 21.83-13.242Z"/><path fill="url(#H)" d="m1130.21 100.326 25.13 13.99L1160 143l-27.58-11.306-2.21-31.324v-.044Z"/><path fill="url(#I)" d="m1160 143-23.07-14.034s-5.23-28.684-5.06-27.716c.18.968 13.26 22.371 13.26 22.371L1160 143Z"/><path fill="url(#J)" d="m1153.37 133.212-.64-15.31-15.29-8.139 12.17 11.174 3.76 12.275Z" opacity=".5"/><path fill="url(#K)" d="m1130.21 100.37 1.68.902 5.2 27.386L1160 143l-27.49-11.284-.09-.022-2.21-31.324Z"/><path fill="url(#L)" d="M1153.37 133.212c-.26-.264-11.44-6.666-11.44-6.666l-4.49-16.761 13.52 9.59 2.41 13.837Z"/><path fill="url(#M)" d="m1153.02 132.992-11.05-6.27-4.22-15.771s5.88 13.396 6.41 14.034c.55.616 8.5 7.765 8.86 8.007Z" opacity=".5"/><path fill="url(#N)" d="m1130.21 100.37 1.68.902 5.2 27.386-4.58 3.058-.09-.022-2.21-31.324Z" opacity=".5"/><path fill="url(#O)" d="m1158.76 142.23-20.99-13.66-1.68-5.169.84 5.565 21.83 13.264Z"/><path fill="url(#P)" d="M1125 98.214c0-8.71 7.09-15.772 15.84-15.772s15.85 7.062 15.85 15.772c0 8.711-7.1 15.772-15.85 15.772S1125 106.925 1125 98.214Z"/><path fill="url(#Q)" d="M1152.49 108.817c-2.23 2.002-5.17 3.277-8.42 3.277-6.96 0-12.62-5.631-12.62-12.56s5.66-12.56 12.62-12.56c6.74 0 12.2 5.28 12.55 11.9 0-.22.07-.44.07-.66 0-8.71-7.1-15.772-15.85-15.772S1125 89.504 1125 98.215c0 8.711 7.09 15.772 15.84 15.772 4.62 0 8.75-2.024 11.65-5.169Z" opacity=".5"/><path fill="url(#R)" d="M1152.82 102.152c.75-2.948-4.22-5.368-5.64-1.606-1.41 3.762-4.02 4.509-1.17 5.147 2.85.638 6.04-.506 6.81-3.541Z"/><path fill="#F9BB46" d="M580.17 191.915c-25.808 0-57.151.843-98.334 2.46-.136 0 80.385 3.576 98.334 3.576 17.972 0 98.493-3.553 98.334-3.576-41.183-1.617-72.549-2.46-98.334-2.46Z" opacity=".5"/><path fill="url(#S)" d="M579.829 222.187v-23.165l-19.134 10.409 19.134 12.756Z"/><path fill="#F2C801" d="m579.828 222.187 19.157-12.756s-4.943-7.38-15.558-10.569c-1.594 0-3.599.16-3.599.16v23.165Z"/><path fill="#F9BB46" d="m579.828 199.022 1.367 11.662c.41 3.599 3.166 5.809 7.244 4.533l4.76-1.936-13.371 8.906v-23.165Z" opacity=".8"/><path fill="url(#T)" d="M579.76 181.3h-2.756l-28.86 23.189s-11.549-5.968-26.56-19.203c-9.544.547-16.992.638-27.857-.205-3.987 3.076-10.251 8.656-10.251 8.656-.501 2.688-.296 12.346 0 15.216 2.483 3.781 8.451 11.048 14.624 14.829 5.581.387 14.123.205 16.924-.593 3.576-3.69 5.968-6.856 5.968-6.856s1.595-11.138-2.688-15.125c1.982 0 3.69.069 3.69.069s12.642 10.182 28.359 17.243c5.877-6.469 29.407-33.12 29.407-33.12v-4.1Z"/><path fill="#7A2B0B" d="M522.973 210.434c.479-2.233-.432-5.74-.979-6.333.501.023 1.116 0 1.116 0 .934 1.116 5.376 6.059 5.376 6.059l6.537-.296-12.801-9.179s-5.262 0-5.262.182 3.622 9.703 3.622 9.703l2.391-.136Z" opacity=".35"/><path fill="url(#U)" d="M520.946 192.94c2.028 5.08 20.751 19.589 28.131 19.703-2.482-1.89-4.282-8.861-.888-8.154 0 0-14.624-8.109-26.559-19.203.364 2.187-.023 4.419-.684 7.654Z" opacity=".2"/><path fill="url(#V)" d="M549.055 212.643c-10.637-5.466-21.662-13.917-28.131-19.703-5.581.843-17.767 1.071-23.143.274-3.508 7.198 1.982 16.65 4.784 17.903 2.984 0 4.373-.227 7.767-2.528-3.052.387-6.492-.387-6.492-.387s-2.642-3.189-3.508-8.679c-.387 0 11.435-.091 14.715 0 2.984 4.169 2.984 10.546 1.093 16.81-1.48 1.344-10.136 3.189-15.215 3.782-6.674-2.187-13.144-9.658-15.125-11.936l-2.574-5.512c.045 2.619.159 5.079.273 6.309 2.483 3.781 8.451 11.048 14.624 14.829 5.58.387 14.122.205 16.901-.592 3.576-3.691 5.968-6.857 5.968-6.857s1.595-11.138-2.688-15.124c1.982 0 3.69.068 3.69.068s12.642 10.182 28.359 17.243c5.877-6.469 29.407-33.12 29.407-33.12v-2.186c-6.287 6.924-25.717 26.422-30.705 29.406Z"/><path fill="#F9BB46" d="M510.332 208.612c-.957-2.916.023-8.793 4.715-9.089-4.806-.045-14.715 0-14.715 0-1.002 3.394 3.508 8.701 3.508 8.701s3.075.798 6.492.388Z" opacity=".5"/><path fill="url(#W)" d="M502.564 211.117c2.984 0 4.374-.228 7.768-2.528-3.053.387-6.492-.388-6.492-.388s-2.642-3.188-3.508-8.678l-3.052 3.121c1.116 4.214 3.667 7.744 5.284 8.473Z"/><path fill="#7A2B0B" d="m560.558 209.295 7.949-10.342 7.927-7.061h-3.439s-7.016 6.628-7.289 7.084c-.274.456-9.499 10.319-9.499 10.319h4.351Z" opacity=".35"/><path fill="url(#X)" d="m497.781 193.214 2.528 6.309c.342-.023 11.549-.091 14.715 0 0 0 2.369.615 3.28 1.686 1.982 0 3.69.068 3.69.068l-1.048-8.337c-5.58.843-17.789 1.071-23.165.274Z"/><path fill="url(#Y)" d="M579.76 183.191c-6.31 6.97-25.74 26.468-30.705 29.452l1.298 5.877c5.877-6.469 29.407-33.119 29.407-33.119v-2.21Z"/><path fill="url(#Z)" d="m500.901 220.114-2.779 3.69c5.581.388 14.123.205 16.902-.592.205-.387 1.093-6.856 1.093-6.856-1.48 1.321-10.136 3.143-15.216 3.758Z"/><path fill="#F9BB46" d="M497.781 193.213c-1.868-1.663-4.715-4.966-4.055-8.132 5.74.638 18.382.957 27.858.205.706 2.551-.66 7.654-.66 7.654-3.964.934-15.763 1.002-23.143.273Z" opacity=".5"/><path fill="url(#aa)" d="M517.507 186.949c.023.456-1.367.888-3.121.98-1.731.091-3.166-.205-3.189-.661-.022-.456 1.367-.888 3.121-.98 1.731-.068 3.166.205 3.189.661Z"/><path fill="#F9BB46" d="M483.499 193.737c4.92-3.485 10.182-7.198 10.182-7.198s12.346.137 17.972-.797c-7.198 0-13.189-.205-17.904-.661-2.46 1.959-10.25 8.656-10.25 8.656ZM500.902 220.115c5.079-.593 13.735-2.438 15.216-3.782.455-1.526.82-3.075 1.025-4.601-.365 2.119-1.435 3.508-3.098 4.601-3.257 1.185-8.679 2.483-13.166 3.03-3.645-1.253-6.378-3.235-10.432-6.218 2.915 2.733 6.651 5.717 10.455 6.97ZM503.817 208.201c-.706-1.799-1.685-5.33-1.822-7.471.934-.524 9.362-1.276 9.362-1.276l-11.047.046c-.046 2.574 2.71 8.246 3.507 8.701Z"/><path fill="url(#ab)" d="M579.76 181.3h2.756l28.86 23.189s11.549-5.968 26.559-19.203c9.545.547 16.993.638 27.858-.205 3.986 3.076 10.25 8.656 10.25 8.656.502 2.688.297 12.346 0 15.216-2.482 3.781-8.45 11.048-14.623 14.829-5.581.387-14.123.205-16.924-.593-3.577-3.69-5.968-6.856-5.968-6.856s-1.595-11.138 2.687-15.125c-1.981 0-3.667.069-3.667.069s-12.642 10.182-28.359 17.243c-5.877-6.469-29.406-33.12-29.406-33.12v-4.1h-.023Z"/><path fill="#7A2B0B" d="M636.523 210.434c-.637-2.665.456-5.74 1.003-6.333-.501.023-1.116 0-1.116 0-.934 1.116-5.331 6.014-5.331 6.014l-6.332-.228 12.574-9.202s5.261 0 5.261.182-3.644 9.681-3.644 9.681l-2.415-.114Z" opacity=".35"/><path fill="url(#ac)" d="M638.596 192.94c-2.027 5.08-20.751 19.589-28.131 19.703 2.483-1.89 4.282-8.861.888-8.154 0 0 14.624-8.109 26.56-19.203-.365 2.187.022 4.419.683 7.654Z" opacity=".2"/><path fill="url(#ad)" d="M610.488 212.643c10.637-5.466 21.662-13.917 28.131-19.703 5.581.843 17.767 1.071 23.143.274 3.507 7.198-1.982 16.65-4.784 17.903-2.984 0-4.373-.227-7.767-2.528 3.052.387 6.492-.387 6.492-.387s2.642-3.189 3.507-8.679c.388 0-11.434-.091-14.714 0-2.984 4.169-2.984 10.546-1.094 16.81 1.481 1.344 10.159 3.189 15.216 3.782 6.674-2.187 13.143-9.658 15.125-11.936l2.574-5.512c-.046 2.619-.159 5.079-.273 6.309-2.483 3.781-8.451 11.048-14.624 14.829-5.581.387-14.123.205-16.924-.592-3.576-3.691-5.968-6.857-5.968-6.857s-1.595-11.138 2.688-15.124c-1.982 0-3.668.068-3.668.068s-12.642 10.182-28.359 17.243c-5.876-6.469-29.406-33.12-29.406-33.12v-2.186c6.287 6.924 25.716 26.422 30.705 29.406Z"/><path fill="#F9BB46" d="M649.211 208.612c.956-2.916-.023-8.793-4.715-9.089 4.806-.045 14.714 0 14.714 0 1.003 3.394-3.507 8.701-3.507 8.701s-3.076.798-6.492.388Z" opacity=".5"/><path fill="url(#ae)" d="M656.978 211.117c-2.984 0-4.373-.228-7.767-2.528 3.052.387 6.492-.388 6.492-.388s2.642-3.188 3.508-8.678l3.052 3.121c-1.139 4.214-3.667 7.744-5.285 8.473Z"/><path fill="#7A2B0B" d="m598.985 209.295-7.95-10.342-7.927-7.061h3.44s7.015 6.628 7.289 7.084c.273.456 9.703 10.319 9.703 10.319h-4.555Z" opacity=".35"/><path fill="url(#af)" d="m661.739 193.214-2.529 6.309c-.341-.023-11.548-.091-14.714 0 0 0-2.369.615-3.28 1.686-1.982 0-3.668.068-3.668.068l1.048-8.337c5.581.843 17.767 1.071 23.143.274Z"/><path fill="url(#ag)" d="M579.76 183.191c6.309 6.97 25.739 26.468 30.705 29.452l-1.299 5.877c-5.876-6.469-29.406-33.119-29.406-33.119v-2.21Z"/><path fill="url(#ah)" d="m658.618 220.114 2.779 3.69c-5.581.388-14.123.205-16.924-.592-.205-.387-1.094-6.856-1.094-6.856 1.504 1.321 10.182 3.143 15.239 3.758Z"/><path fill="#F9BB46" d="M661.739 193.213c1.868-1.663 4.715-4.966 4.055-8.132-5.74.638-18.382.957-27.858.205-.706 2.551.661 7.654.661 7.654 3.986.934 15.785 1.002 23.142.273Z" opacity=".5"/><path fill="url(#ai)" d="M642.035 186.949c-.022.456 1.367.888 3.121.98 1.731.091 3.166-.205 3.189-.661.023-.456-1.367-.888-3.121-.98-1.731-.068-3.166.205-3.189.661Z"/><path fill="#F9BB46" d="M676.044 193.737c-4.921-3.485-10.182-7.198-10.182-7.198s-12.346.137-17.972-.797c7.198 0 13.188-.205 17.903-.661 2.438 1.959 10.251 8.656 10.251 8.656ZM658.618 220.115c-5.079-.593-13.735-2.438-15.216-3.782-.455-1.526-.82-3.075-1.025-4.601.365 2.119 1.435 3.508 3.098 4.601 3.258 1.185 8.679 2.483 13.166 3.03 3.645-1.253 6.378-3.235 10.433-6.218-2.893 2.733-6.629 5.717-10.456 6.97ZM655.703 208.201c.706-1.799 1.685-5.33 1.822-7.471-.934-.524-9.362-1.276-9.362-1.276l11.048.046c.068 2.574-2.711 8.246-3.508 8.701Z"/><defs><linearGradient id="a" x1="580" x2="580" y1="-9" y2="187" gradientUnits="userSpaceOnUse"><stop stop-color="#BC8307"/><stop offset="1" stop-color="#FFD95E"/></linearGradient><linearGradient id="b" x1="580" x2="580" y1="-9" y2="187" gradientUnits="userSpaceOnUse"><stop stop-color="#F6C424"/><stop offset="1" stop-color="#E8A208"/></linearGradient><linearGradient id="d" x1="580" x2="580" y1="-15" y2="213" gradientUnits="userSpaceOnUse"><stop stop-color="#FFEAA6"/><stop offset="1" stop-color="#FFC340"/></linearGradient><linearGradient id="f" x1="580" x2="580" y1="-15" y2="213" gradientUnits="userSpaceOnUse"><stop stop-color="#FFEAA6"/><stop offset="1" stop-color="#FFC340"/></linearGradient><linearGradient id="g" x1="-15.454" x2="51.311" y1="96.941" y2="48.957" gradientUnits="userSpaceOnUse"><stop stop-color="#D1641B"/><stop offset=".74" stop-color="#FFD043"/><stop offset="1" stop-color="#FFBB41"/></linearGradient><linearGradient id="h" x1="21.809" x2="7.369" y1="68.427" y2="80.546" gradientUnits="userSpaceOnUse"><stop stop-color="#D1641B"/><stop offset=".74" stop-color="#FFD043"/><stop offset="1" stop-color="#FFBB41"/></linearGradient><linearGradient id="i" x1="19.463" x2="-.832" y1="88.386" y2="60.652" gradientUnits="userSpaceOnUse"><stop stop-color="#F29F2B"/><stop offset="1" stop-color="#8D3316"/></linearGradient><linearGradient id="j" x1="26.801" x2="4.549" y1="84.166" y2="41.862" gradientUnits="userSpaceOnUse"><stop stop-color="#D1641B"/><stop offset=".74" stop-color="#FFD043"/><stop offset="1" stop-color="#FFBB41"/></linearGradient><linearGradient id="k" x1="22.498" x2="2.204" y1="86.165" y2="58.431" gradientUnits="userSpaceOnUse"><stop stop-color="#D1641B"/><stop offset=".74" stop-color="#FFD043"/><stop offset="1" stop-color="#FFBB41"/></linearGradient><linearGradient id="l" x1="24.154" x2="4.945" y1="83.627" y2="57.377" gradientUnits="userSpaceOnUse"><stop stop-color="#F2D144"/><stop offset="1" stop-color="#FFF9A4"/></linearGradient><linearGradient id="m" x1="25.009" x2="27.417" y1="64.344" y2="89.889" gradientUnits="userSpaceOnUse"><stop stop-color="#F9C541"/><stop offset="1" stop-color="#D4471D"/></linearGradient><linearGradient id="n" x1="11.507" x2="13.106" y1="53.025" y2="69.985" gradientUnits="userSpaceOnUse"><stop stop-color="#fff"/><stop offset="1" stop-color="#FFFBC6"/></linearGradient><linearGradient id="o" x1="-15.453" x2="51.312" y1="100.055" y2="148.039" gradientUnits="userSpaceOnUse"><stop stop-color="#D1641B"/><stop offset=".74" stop-color="#FFD043"/><stop offset="1" stop-color="#FFBB41"/></linearGradient><linearGradient id="p" x1="21.81" x2="7.368" y1="128.568" y2="116.449" gradientUnits="userSpaceOnUse"><stop stop-color="#D1641B"/><stop offset=".74" stop-color="#FFD043"/><stop offset="1" stop-color="#FFBB41"/></linearGradient><linearGradient id="q" x1="19.462" x2="-.831" y1="108.61" y2="136.342" gradientUnits="userSpaceOnUse"><stop stop-color="#F29F2B"/><stop offset="1" stop-color="#8D3316"/></linearGradient><linearGradient id="r" x1="26.8" x2="4.548" y1="112.83" y2="155.134" gradientUnits="userSpaceOnUse"><stop stop-color="#D1641B"/><stop offset=".74" stop-color="#FFD043"/><stop offset="1" stop-color="#FFBB41"/></linearGradient><linearGradient id="s" x1="22.499" x2="2.205" y1="110.83" y2="138.565" gradientUnits="userSpaceOnUse"><stop stop-color="#D1641B"/><stop offset=".74" stop-color="#FFD043"/><stop offset="1" stop-color="#FFBB41"/></linearGradient><linearGradient id="t" x1="24.153" x2="4.945" y1="113.369" y2="139.618" gradientUnits="userSpaceOnUse"><stop stop-color="#F2D144"/><stop offset="1" stop-color="#FFF9A4"/></linearGradient><linearGradient id="u" x1="25.008" x2="27.417" y1="132.65" y2="107.106" gradientUnits="userSpaceOnUse"><stop stop-color="#F6BA3B"/><stop offset="1" stop-color="#D4471D"/></linearGradient><linearGradient id="v" x1="11.508" x2="13.107" y1="143.971" y2="127.011" gradientUnits="userSpaceOnUse"><stop stop-color="#fff"/><stop offset="1" stop-color="#FFFBC6"/></linearGradient><linearGradient id="x" x1="19" x2="15.982" y1="103" y2="82.003" gradientUnits="userSpaceOnUse"><stop stop-color="#D4471D"/><stop offset="1" stop-color="#FFFB8F"/></linearGradient><linearGradient id="y" x1="11.183" x2="11.183" y1="98.617" y2="105.861" gradientUnits="userSpaceOnUse"><stop stop-color="#fff"/><stop offset="1" stop-color="#FFFBC6"/></linearGradient><linearGradient id="z" x1="1175.45" x2="1108.69" y1="96.941" y2="48.957" gradientUnits="userSpaceOnUse"><stop stop-color="#D1641B"/><stop offset=".74" stop-color="#FFD043"/><stop offset="1" stop-color="#FFBB41"/></linearGradient><linearGradient id="A" x1="1138.19" x2="1152.63" y1="68.427" y2="80.546" gradientUnits="userSpaceOnUse"><stop stop-color="#D1641B"/><stop offset=".74" stop-color="#FFD043"/><stop offset="1" stop-color="#FFBB41"/></linearGradient><linearGradient id="B" x1="1140.54" x2="1160.83" y1="88.386" y2="60.652" gradientUnits="userSpaceOnUse"><stop stop-color="#F29F2B"/><stop offset="1" stop-color="#8D3316"/></linearGradient><linearGradient id="C" x1="1133.2" x2="1155.45" y1="84.166" y2="41.862" gradientUnits="userSpaceOnUse"><stop stop-color="#D1641B"/><stop offset=".74" stop-color="#FFD043"/><stop offset="1" stop-color="#FFBB41"/></linearGradient><linearGradient id="D" x1="1137.5" x2="1157.8" y1="86.165" y2="58.431" gradientUnits="userSpaceOnUse"><stop stop-color="#D1641B"/><stop offset=".74" stop-color="#FFD043"/><stop offset="1" stop-color="#FFBB41"/></linearGradient><linearGradient id="E" x1="1135.85" x2="1155.05" y1="83.627" y2="57.377" gradientUnits="userSpaceOnUse"><stop stop-color="#F2D144"/><stop offset="1" stop-color="#FFF9A4"/></linearGradient><linearGradient id="F" x1="1134.99" x2="1132.58" y1="64.344" y2="89.889" gradientUnits="userSpaceOnUse"><stop stop-color="#F9C541"/><stop offset="1" stop-color="#D4471D"/></linearGradient><linearGradient id="G" x1="1148.49" x2="1146.89" y1="53.025" y2="69.985" gradientUnits="userSpaceOnUse"><stop stop-color="#fff"/><stop offset="1" stop-color="#FFFBC6"/></linearGradient><linearGradient id="H" x1="1175.45" x2="1108.69" y1="100.055" y2="148.039" gradientUnits="userSpaceOnUse"><stop stop-color="#D1641B"/><stop offset=".74" stop-color="#FFD043"/><stop offset="1" stop-color="#FFBB41"/></linearGradient><linearGradient id="I" x1="1138.19" x2="1152.63" y1="128.568" y2="116.449" gradientUnits="userSpaceOnUse"><stop stop-color="#D1641B"/><stop offset=".74" stop-color="#FFD043"/><stop offset="1" stop-color="#FFBB41"/></linearGradient><linearGradient id="J" x1="1140.54" x2="1160.83" y1="108.61" y2="136.342" gradientUnits="userSpaceOnUse"><stop stop-color="#F29F2B"/><stop offset="1" stop-color="#8D3316"/></linearGradient><linearGradient id="K" x1="1133.2" x2="1155.45" y1="112.83" y2="155.134" gradientUnits="userSpaceOnUse"><stop stop-color="#D1641B"/><stop offset=".74" stop-color="#FFD043"/><stop offset="1" stop-color="#FFBB41"/></linearGradient><linearGradient id="L" x1="1137.5" x2="1157.8" y1="110.83" y2="138.565" gradientUnits="userSpaceOnUse"><stop stop-color="#D1641B"/><stop offset=".74" stop-color="#FFD043"/><stop offset="1" stop-color="#FFBB41"/></linearGradient><linearGradient id="M" x1="1135.85" x2="1155.06" y1="113.369" y2="139.618" gradientUnits="userSpaceOnUse"><stop stop-color="#F2D144"/><stop offset="1" stop-color="#FFF9A4"/></linearGradient><linearGradient id="N" x1="1134.99" x2="1132.58" y1="132.65" y2="107.106" gradientUnits="userSpaceOnUse"><stop stop-color="#F6BA3B"/><stop offset="1" stop-color="#D4471D"/></linearGradient><linearGradient id="O" x1="1148.49" x2="1146.89" y1="143.971" y2="127.011" gradientUnits="userSpaceOnUse"><stop stop-color="#fff"/><stop offset="1" stop-color="#FFFBC6"/></linearGradient><linearGradient id="Q" x1="1141" x2="1144.02" y1="103" y2="82.003" gradientUnits="userSpaceOnUse"><stop stop-color="#D4471D"/><stop offset="1" stop-color="#FFFB8F"/></linearGradient><linearGradient id="R" x1="1148.82" x2="1148.82" y1="98.617" y2="105.861" gradientUnits="userSpaceOnUse"><stop stop-color="#fff"/><stop offset="1" stop-color="#FFFBC6"/></linearGradient><linearGradient id="S" x1="560.698" x2="579.824" y1="210.608" y2="210.608" gradientUnits="userSpaceOnUse"><stop stop-color="#7A2B0B"/><stop offset=".936" stop-color="#BC5C08"/></linearGradient><linearGradient id="T" x1="531.482" x2="531.482" y1="189.167" y2="219.947" gradientUnits="userSpaceOnUse"><stop offset=".014" stop-color="#F2D100"/><stop offset="1" stop-color="#ED660B"/></linearGradient><linearGradient id="U" x1="549.417" x2="527.813" y1="197.854" y2="199.56" gradientUnits="userSpaceOnUse"><stop stop-color="#7A2B0B"/><stop offset=".936" stop-color="#BC5C08"/></linearGradient><linearGradient id="V" x1="483.217" x2="579.768" y1="203.593" y2="203.593" gradientUnits="userSpaceOnUse"><stop stop-color="#A33700"/><stop offset="1" stop-color="#D38705"/></linearGradient><linearGradient id="W" x1="497.26" x2="510.326" y1="205.317" y2="205.317" gradientUnits="userSpaceOnUse"><stop stop-color="#7A2B0B"/><stop offset=".936" stop-color="#BC5C08"/></linearGradient><linearGradient id="X" x1="500.709" x2="524.915" y1="197.112" y2="197.112" gradientUnits="userSpaceOnUse"><stop stop-color="#7A2B0B"/><stop offset=".936" stop-color="#BC5C08"/></linearGradient><linearGradient id="Y" x1="550.434" x2="565.058" y1="214.839" y2="199.916" gradientUnits="userSpaceOnUse"><stop stop-color="#7A2B0B"/><stop offset=".936" stop-color="#BC5C08"/></linearGradient><linearGradient id="Z" x1="517.466" x2="502.343" y1="219.737" y2="220.931" gradientUnits="userSpaceOnUse"><stop stop-color="#7A2B0B"/><stop offset=".936" stop-color="#BC5C08"/></linearGradient><linearGradient id="aa" x1="511.213" x2="517.497" y1="187.475" y2="186.878" gradientUnits="userSpaceOnUse"><stop stop-color="#fff"/><stop offset="1" stop-color="#FFFFC4"/></linearGradient><linearGradient id="ab" x1="628.055" x2="628.055" y1="189.167" y2="219.947" gradientUnits="userSpaceOnUse"><stop offset=".014" stop-color="#F2D100"/><stop offset="1" stop-color="#ED660B"/></linearGradient><linearGradient id="ac" x1="610.12" x2="631.723" y1="197.854" y2="199.56" gradientUnits="userSpaceOnUse"><stop stop-color="#7A2B0B"/><stop offset=".936" stop-color="#BC5C08"/></linearGradient><linearGradient id="ad" x1="676.32" x2="579.768" y1="203.593" y2="203.593" gradientUnits="userSpaceOnUse"><stop stop-color="#A33700"/><stop offset="1" stop-color="#D38705"/></linearGradient><linearGradient id="ae" x1="662.277" x2="649.211" y1="205.317" y2="205.317" gradientUnits="userSpaceOnUse"><stop stop-color="#7A2B0B"/><stop offset=".936" stop-color="#BC5C08"/></linearGradient><linearGradient id="af" x1="658.828" x2="634.622" y1="197.112" y2="197.112" gradientUnits="userSpaceOnUse"><stop stop-color="#7A2B0B"/><stop offset=".936" stop-color="#BC5C08"/></linearGradient><linearGradient id="ag" x1="609.102" x2="594.478" y1="214.839" y2="199.916" gradientUnits="userSpaceOnUse"><stop stop-color="#7A2B0B"/><stop offset=".936" stop-color="#BC5C08"/></linearGradient><linearGradient id="ah" x1="642.071" x2="657.193" y1="219.737" y2="220.931" gradientUnits="userSpaceOnUse"><stop stop-color="#7A2B0B"/><stop offset=".936" stop-color="#BC5C08"/></linearGradient><linearGradient id="ai" x1="648.323" x2="642.039" y1="187.475" y2="186.878" gradientUnits="userSpaceOnUse"><stop stop-color="#fff"/><stop offset="1" stop-color="#FFFFC4"/></linearGradient><radialGradient id="w" cx="0" cy="0" r="1" gradientTransform="matrix(0 21.3541 -21.4501 0 10.167 94.98)" gradientUnits="userSpaceOnUse"><stop stop-color="#FFBB41"/><stop offset=".26" stop-color="#FFD043"/><stop offset="1" stop-color="#CF772D"/></radialGradient><radialGradient id="P" cx="0" cy="0" r="1" gradientTransform="matrix(0 21.3541 -21.4501 0 1149.83 94.98)" gradientUnits="userSpaceOnUse"><stop stop-color="#FFBB41"/><stop offset=".26" stop-color="#FFD043"/><stop offset="1" stop-color="#CF772D"/></radialGradient><filter id="c" width="1106" height="198" x="27" y="0" color-interpolation-filters="sRGB" filterUnits="userSpaceOnUse"><feFlood flood-opacity="0" result="BackgroundImageFix"/><feBlend in="SourceGraphic" in2="BackgroundImageFix" result="shape"/><feGaussianBlur result="effect1_foregroundBlur_2002_22506" stdDeviation="2"/></filter><filter id="e" width="1099" height="191" x="30.5" y="3.5" color-interpolation-filters="sRGB" filterUnits="userSpaceOnUse"><feFlood flood-opacity="0" result="BackgroundImageFix"/><feBlend in="SourceGraphic" in2="BackgroundImageFix" result="shape"/><feGaussianBlur result="effect1_foregroundBlur_2002_22506" stdDeviation=".5"/></filter></defs></svg>