<svg xmlns="http://www.w3.org/2000/svg" width="818" height="311" fill="none"><path fill="url(#a)" d="M238.238 5.54a4.662 4.662 0 0 1-4.66 4.66 4.662 4.662 0 0 1-4.66-4.66 4.662 4.662 0 0 1 4.66-4.66 4.662 4.662 0 0 1 4.66 4.66Z"/><path fill="url(#b)" d="M208.319 5.54a4.66 4.66 0 0 1-4.659 4.66A4.662 4.662 0 0 1 199 5.54a4.662 4.662 0 0 1 4.66-4.66 4.66 4.66 0 0 1 4.659 4.66Z"/><path fill="url(#c)" d="M132.238 5.54a4.662 4.662 0 0 1-4.66 4.66 4.662 4.662 0 0 1-4.66-4.66 4.662 4.662 0 0 1 4.66-4.66 4.662 4.662 0 0 1 4.66 4.66Z"/><path fill="url(#d)" d="M102.319 5.54a4.661 4.661 0 0 1-4.66 4.66A4.661 4.661 0 0 1 93 5.54 4.661 4.661 0 0 1 97.66.88a4.661 4.661 0 0 1 4.659 4.66Z"/><path fill="url(#e)" d="M338.547 5.54a4.662 4.662 0 0 1-4.66 4.66 4.66 4.66 0 0 1-4.659-4.66 4.66 4.66 0 0 1 4.659-4.66 4.662 4.662 0 0 1 4.66 4.66Z"/><path fill="url(#f)" d="M308.628 5.54a4.66 4.66 0 0 1-4.659 4.66 4.662 4.662 0 0 1-4.66-4.66 4.662 4.662 0 0 1 4.66-4.66 4.66 4.66 0 0 1 4.659 4.66Z"/><path fill="url(#g)" d="M428.856 5.54a4.662 4.662 0 0 1-4.66 4.66 4.66 4.66 0 0 1-4.659-4.66 4.66 4.66 0 0 1 4.659-4.66 4.662 4.662 0 0 1 4.66 4.66Z"/><path fill="url(#h)" d="M398.937 5.54a4.66 4.66 0 0 1-4.659 4.66 4.662 4.662 0 0 1-4.66-4.66 4.662 4.662 0 0 1 4.66-4.66 4.66 4.66 0 0 1 4.659 4.66Z"/><path fill="url(#i)" d="M519.164 5.54a4.66 4.66 0 0 1-4.659 4.66 4.662 4.662 0 0 1-4.66-4.66 4.662 4.662 0 0 1 4.66-4.66 4.66 4.66 0 0 1 4.659 4.66Z"/><path fill="url(#j)" d="M489.246 5.54a4.66 4.66 0 0 1-4.659 4.66 4.662 4.662 0 0 1-4.66-4.66 4.662 4.662 0 0 1 4.66-4.66 4.66 4.66 0 0 1 4.659 4.66Z"/><path fill="url(#k)" d="M619.474 5.54a4.662 4.662 0 0 1-4.66 4.66 4.66 4.66 0 0 1-4.659-4.66 4.66 4.66 0 0 1 4.659-4.66 4.662 4.662 0 0 1 4.66 4.66Z"/><path fill="url(#l)" d="M589.556 5.54a4.662 4.662 0 0 1-4.66 4.66 4.662 4.662 0 0 1-4.66-4.66 4.662 4.662 0 0 1 4.66-4.66 4.662 4.662 0 0 1 4.66 4.66Z"/><path fill="url(#m)" d="M727.238 5.54a4.662 4.662 0 0 1-4.66 4.66 4.662 4.662 0 0 1-4.66-4.66 4.662 4.662 0 0 1 4.66-4.66 4.662 4.662 0 0 1 4.66 4.66Z"/><path fill="url(#n)" d="M697.319 5.54a4.66 4.66 0 0 1-4.659 4.66A4.662 4.662 0 0 1 688 5.54a4.662 4.662 0 0 1 4.66-4.66 4.66 4.66 0 0 1 4.659 4.66Z"/><path fill="url(#o)" d="M4.772 145.49a4.66 4.66 0 0 1-4.66-4.659 4.661 4.661 0 0 1 4.66-4.66 4.661 4.661 0 0 1 4.66 4.66 4.66 4.66 0 0 1-4.66 4.659Z"/><path fill="url(#p)" d="M4.772 115.572a4.662 4.662 0 0 1-4.66-4.66 4.662 4.662 0 0 1 4.66-4.66 4.662 4.662 0 0 1 4.66 4.66 4.662 4.662 0 0 1-4.66 4.66Z"/><path fill="url(#q)" d="M812.916 145.49a4.661 4.661 0 0 1-4.66-4.659 4.66 4.66 0 1 1 4.66 4.659Z"/><path fill="url(#r)" d="M812.916 115.572a4.662 4.662 0 0 1-4.66-4.66 4.662 4.662 0 0 1 4.66-4.66 4.661 4.661 0 0 1 4.659 4.66 4.661 4.661 0 0 1-4.659 4.66Z"/><path fill="url(#s)" d="M4.774 55.873a4.662 4.662 0 0 1-4.66-4.66 4.661 4.661 0 0 1 4.66-4.659 4.661 4.661 0 0 1 4.66 4.66 4.661 4.661 0 0 1-4.66 4.66Z"/><path fill="url(#t)" d="M14.774 25.873a4.662 4.662 0 0 1-4.66-4.66 4.661 4.661 0 0 1 4.66-4.659 4.661 4.661 0 0 1 4.66 4.66 4.662 4.662 0 0 1-4.66 4.66Z"/><path fill="url(#u)" d="M812.916 55.873a4.662 4.662 0 0 1-4.66-4.66 4.662 4.662 0 0 1 4.66-4.659 4.66 4.66 0 0 1 4.659 4.66 4.661 4.661 0 0 1-4.659 4.66Z"/><path fill="url(#v)" d="M802.916 25.873a4.662 4.662 0 0 1-4.66-4.66 4.662 4.662 0 0 1 4.66-4.659 4.66 4.66 0 0 1 4.659 4.66 4.661 4.661 0 0 1-4.659 4.66Z"/><path fill="url(#w)" d="M4.807 236.953a4.662 4.662 0 0 1-4.66-4.66 4.66 4.66 0 0 1 4.66-4.659 4.66 4.66 0 0 1 4.66 4.659 4.662 4.662 0 0 1-4.66 4.66Z"/><path fill="url(#x)" d="M4.807 207.035a4.662 4.662 0 0 1-4.66-4.66 4.662 4.662 0 0 1 4.66-4.66 4.662 4.662 0 0 1 4.66 4.66 4.662 4.662 0 0 1-4.66 4.66Z"/><path fill="url(#y)" d="M812.95 236.953a4.662 4.662 0 0 1-4.66-4.66 4.66 4.66 0 1 1 4.66 4.66Z"/><path fill="url(#z)" d="M812.95 207.035a4.662 4.662 0 0 1-4.66-4.66 4.662 4.662 0 0 1 4.66-4.66 4.661 4.661 0 0 1 4.659 4.66 4.661 4.661 0 0 1-4.659 4.66Z"/><path fill="url(#A)" d="M47.841 310.497a4.662 4.662 0 0 1-4.66-4.66 4.661 4.661 0 0 1 4.66-4.659 4.66 4.66 0 0 1 4.66 4.659 4.662 4.662 0 0 1-4.66 4.66Z"/><path fill="url(#B)" d="M23.841 294.497a4.662 4.662 0 0 1-4.66-4.66 4.661 4.661 0 0 1 4.66-4.659 4.66 4.66 0 0 1 4.66 4.659 4.662 4.662 0 0 1-4.66 4.66Z"/><path fill="url(#C)" d="M760.985 310.497a4.662 4.662 0 0 1-4.66-4.66 4.661 4.661 0 0 1 4.66-4.659 4.661 4.661 0 0 1 4.66 4.659 4.662 4.662 0 0 1-4.66 4.66Z"/><path fill="url(#D)" d="M787.985 294.497a4.662 4.662 0 0 1-4.66-4.66 4.661 4.661 0 0 1 4.66-4.659 4.661 4.661 0 0 1 4.66 4.659 4.662 4.662 0 0 1-4.66 4.66Z"/><path fill="url(#E)" d="M249.398 306.129a4.66 4.66 0 0 1-9.319 0 4.662 4.662 0 0 1 4.66-4.66 4.661 4.661 0 0 1 4.659 4.66Z"/><path fill="url(#F)" d="M219.48 306.129a4.66 4.66 0 0 1-9.319 0 4.662 4.662 0 0 1 4.66-4.66 4.661 4.661 0 0 1 4.659 4.66Z"/><path fill="url(#G)" d="M152.237 306.129a4.66 4.66 0 0 1-9.319 0 4.662 4.662 0 0 1 4.66-4.66 4.661 4.661 0 0 1 4.659 4.66Z"/><path fill="url(#H)" d="M122.319 306.129a4.66 4.66 0 1 1-4.66-4.66 4.662 4.662 0 0 1 4.66 4.66Z"/><path fill="url(#I)" d="M339.707 306.129a4.66 4.66 0 0 1-9.319 0 4.662 4.662 0 0 1 4.66-4.66 4.661 4.661 0 0 1 4.659 4.66Z"/><path fill="url(#J)" d="M309.789 306.129a4.66 4.66 0 1 1-4.66-4.66 4.662 4.662 0 0 1 4.66 4.66Z"/><path fill="url(#K)" d="M430.017 306.129a4.66 4.66 0 1 1-4.66-4.66 4.662 4.662 0 0 1 4.66 4.66Z"/><path fill="url(#L)" d="M400.098 306.129a4.66 4.66 0 0 1-9.319 0 4.662 4.662 0 0 1 4.66-4.66 4.661 4.661 0 0 1 4.659 4.66Z"/><path fill="url(#M)" d="M520.326 306.129a4.66 4.66 0 1 1-4.66-4.66 4.662 4.662 0 0 1 4.66 4.66Z"/><path fill="url(#N)" d="M490.407 306.129a4.66 4.66 0 0 1-9.319 0 4.662 4.662 0 0 1 4.66-4.66 4.661 4.661 0 0 1 4.659 4.66Z"/><path fill="url(#O)" d="M610.635 306.129a4.66 4.66 0 1 1-4.66-4.66 4.662 4.662 0 0 1 4.66 4.66Z"/><path fill="url(#P)" d="M580.716 306.129a4.66 4.66 0 0 1-9.319 0 4.662 4.662 0 0 1 4.66-4.66 4.661 4.661 0 0 1 4.659 4.66Z"/><path fill="url(#Q)" d="M701.238 306.129a4.661 4.661 0 0 1-4.66 4.659 4.661 4.661 0 0 1-4.66-4.659 4.662 4.662 0 0 1 4.66-4.66 4.662 4.662 0 0 1 4.66 4.66Z"/><path fill="url(#R)" d="M671.319 306.129a4.66 4.66 0 0 1-9.319 0 4.662 4.662 0 0 1 4.66-4.66 4.661 4.661 0 0 1 4.659 4.66Z"/><defs><radialGradient id="a" cx="0" cy="0" r="1" gradientTransform="matrix(4.66378 0 0 4.66377 233.569 5.542)" gradientUnits="userSpaceOnUse"><stop stop-color="#FFFFB0"/><stop offset=".152" stop-color="#FFF591"/><stop offset=".482" stop-color="#FFDD42"/><stop offset=".743" stop-color="#FFC900"/><stop offset="1" stop-color="#FFCE00"/></radialGradient><radialGradient id="b" cx="0" cy="0" r="1" gradientTransform="matrix(4.66378 0 0 4.66377 203.657 5.542)" gradientUnits="userSpaceOnUse"><stop stop-color="#FFFFB0"/><stop offset=".152" stop-color="#FFF591"/><stop offset=".482" stop-color="#FFDD42"/><stop offset=".743" stop-color="#FFC900"/><stop offset="1" stop-color="#FFCE00"/></radialGradient><radialGradient id="c" cx="0" cy="0" r="1" gradientTransform="matrix(4.66378 0 0 4.66377 127.569 5.542)" gradientUnits="userSpaceOnUse"><stop stop-color="#FFFFB0"/><stop offset=".152" stop-color="#FFF591"/><stop offset=".482" stop-color="#FFDD42"/><stop offset=".743" stop-color="#FFC900"/><stop offset="1" stop-color="#FFCE00"/></radialGradient><radialGradient id="d" cx="0" cy="0" r="1" gradientTransform="matrix(4.66378 0 0 4.66377 97.657 5.542)" gradientUnits="userSpaceOnUse"><stop stop-color="#FFFFB0"/><stop offset=".152" stop-color="#FFF591"/><stop offset=".482" stop-color="#FFDD42"/><stop offset=".743" stop-color="#FFC900"/><stop offset="1" stop-color="#FFCE00"/></radialGradient><radialGradient id="e" cx="0" cy="0" r="1" gradientTransform="matrix(4.66378 0 0 4.66377 333.879 5.542)" gradientUnits="userSpaceOnUse"><stop stop-color="#FFFFB0"/><stop offset=".152" stop-color="#FFF591"/><stop offset=".482" stop-color="#FFDD42"/><stop offset=".743" stop-color="#FFC900"/><stop offset="1" stop-color="#FFCE00"/></radialGradient><radialGradient id="f" cx="0" cy="0" r="1" gradientTransform="matrix(4.66378 0 0 4.66377 303.966 5.542)" gradientUnits="userSpaceOnUse"><stop stop-color="#FFFFB0"/><stop offset=".152" stop-color="#FFF591"/><stop offset=".482" stop-color="#FFDD42"/><stop offset=".743" stop-color="#FFC900"/><stop offset="1" stop-color="#FFCE00"/></radialGradient><radialGradient id="g" cx="0" cy="0" r="1" gradientTransform="matrix(4.66378 0 0 4.66377 424.188 5.542)" gradientUnits="userSpaceOnUse"><stop stop-color="#FFFFB0"/><stop offset=".152" stop-color="#FFF591"/><stop offset=".482" stop-color="#FFDD42"/><stop offset=".743" stop-color="#FFC900"/><stop offset="1" stop-color="#FFCE00"/></radialGradient><radialGradient id="h" cx="0" cy="0" r="1" gradientTransform="matrix(4.66378 0 0 4.66377 394.275 5.542)" gradientUnits="userSpaceOnUse"><stop stop-color="#FFFFB0"/><stop offset=".152" stop-color="#FFF591"/><stop offset=".482" stop-color="#FFDD42"/><stop offset=".743" stop-color="#FFC900"/><stop offset="1" stop-color="#FFCE00"/></radialGradient><radialGradient id="i" cx="0" cy="0" r="1" gradientTransform="matrix(4.66378 0 0 4.66377 514.496 5.542)" gradientUnits="userSpaceOnUse"><stop stop-color="#FFFFB0"/><stop offset=".152" stop-color="#FFF591"/><stop offset=".482" stop-color="#FFDD42"/><stop offset=".743" stop-color="#FFC900"/><stop offset="1" stop-color="#FFCE00"/></radialGradient><radialGradient id="j" cx="0" cy="0" r="1" gradientTransform="matrix(4.66378 0 0 4.66377 484.584 5.542)" gradientUnits="userSpaceOnUse"><stop stop-color="#FFFFB0"/><stop offset=".152" stop-color="#FFF591"/><stop offset=".482" stop-color="#FFDD42"/><stop offset=".743" stop-color="#FFC900"/><stop offset="1" stop-color="#FFCE00"/></radialGradient><radialGradient id="k" cx="0" cy="0" r="1" gradientTransform="matrix(4.66378 0 0 4.66377 614.806 5.542)" gradientUnits="userSpaceOnUse"><stop stop-color="#FFFFB0"/><stop offset=".152" stop-color="#FFF591"/><stop offset=".482" stop-color="#FFDD42"/><stop offset=".743" stop-color="#FFC900"/><stop offset="1" stop-color="#FFCE00"/></radialGradient><radialGradient id="l" cx="0" cy="0" r="1" gradientTransform="matrix(4.66378 0 0 4.66377 584.894 5.542)" gradientUnits="userSpaceOnUse"><stop stop-color="#FFFFB0"/><stop offset=".152" stop-color="#FFF591"/><stop offset=".482" stop-color="#FFDD42"/><stop offset=".743" stop-color="#FFC900"/><stop offset="1" stop-color="#FFCE00"/></radialGradient><radialGradient id="m" cx="0" cy="0" r="1" gradientTransform="matrix(4.66378 0 0 4.66377 722.569 5.542)" gradientUnits="userSpaceOnUse"><stop stop-color="#FFFFB0"/><stop offset=".152" stop-color="#FFF591"/><stop offset=".482" stop-color="#FFDD42"/><stop offset=".743" stop-color="#FFC900"/><stop offset="1" stop-color="#FFCE00"/></radialGradient><radialGradient id="n" cx="0" cy="0" r="1" gradientTransform="matrix(4.66378 0 0 4.66377 692.657 5.542)" gradientUnits="userSpaceOnUse"><stop stop-color="#FFFFB0"/><stop offset=".152" stop-color="#FFF591"/><stop offset=".482" stop-color="#FFDD42"/><stop offset=".743" stop-color="#FFC900"/><stop offset="1" stop-color="#FFCE00"/></radialGradient><radialGradient id="o" cx="0" cy="0" r="1" gradientTransform="matrix(0 4.66378 -4.66377 0 4.771 140.822)" gradientUnits="userSpaceOnUse"><stop stop-color="#FFFFB0"/><stop offset=".152" stop-color="#FFF591"/><stop offset=".482" stop-color="#FFDD42"/><stop offset=".743" stop-color="#FFC900"/><stop offset="1" stop-color="#FFCE00"/></radialGradient><radialGradient id="p" cx="0" cy="0" r="1" gradientTransform="matrix(0 4.66378 -4.66377 0 4.771 110.91)" gradientUnits="userSpaceOnUse"><stop stop-color="#FFFFB0"/><stop offset=".152" stop-color="#FFF591"/><stop offset=".482" stop-color="#FFDD42"/><stop offset=".743" stop-color="#FFC900"/><stop offset="1" stop-color="#FFCE00"/></radialGradient><radialGradient id="q" cx="0" cy="0" r="1" gradientTransform="matrix(0 4.66378 -4.66377 0 812.915 140.822)" gradientUnits="userSpaceOnUse"><stop stop-color="#FFFFB0"/><stop offset=".152" stop-color="#FFF591"/><stop offset=".482" stop-color="#FFDD42"/><stop offset=".743" stop-color="#FFC900"/><stop offset="1" stop-color="#FFCE00"/></radialGradient><radialGradient id="r" cx="0" cy="0" r="1" gradientTransform="matrix(0 4.66378 -4.66377 0 812.915 110.91)" gradientUnits="userSpaceOnUse"><stop stop-color="#FFFFB0"/><stop offset=".152" stop-color="#FFF591"/><stop offset=".482" stop-color="#FFDD42"/><stop offset=".743" stop-color="#FFC900"/><stop offset="1" stop-color="#FFCE00"/></radialGradient><radialGradient id="s" cx="0" cy="0" r="1" gradientTransform="matrix(0 4.66378 -4.66377 0 4.772 51.205)" gradientUnits="userSpaceOnUse"><stop stop-color="#FFFFB0"/><stop offset=".152" stop-color="#FFF591"/><stop offset=".482" stop-color="#FFDD42"/><stop offset=".743" stop-color="#FFC900"/><stop offset="1" stop-color="#FFCE00"/></radialGradient><radialGradient id="t" cx="0" cy="0" r="1" gradientTransform="matrix(0 4.66378 -4.66377 0 14.773 21.205)" gradientUnits="userSpaceOnUse"><stop stop-color="#FFFFB0"/><stop offset=".152" stop-color="#FFF591"/><stop offset=".482" stop-color="#FFDD42"/><stop offset=".743" stop-color="#FFC900"/><stop offset="1" stop-color="#FFCE00"/></radialGradient><radialGradient id="u" cx="0" cy="0" r="1" gradientTransform="matrix(0 4.66378 -4.66377 0 812.915 51.205)" gradientUnits="userSpaceOnUse"><stop stop-color="#FFFFB0"/><stop offset=".152" stop-color="#FFF591"/><stop offset=".482" stop-color="#FFDD42"/><stop offset=".743" stop-color="#FFC900"/><stop offset="1" stop-color="#FFCE00"/></radialGradient><radialGradient id="v" cx="0" cy="0" r="1" gradientTransform="matrix(0 4.66378 -4.66377 0 802.915 21.205)" gradientUnits="userSpaceOnUse"><stop stop-color="#FFFFB0"/><stop offset=".152" stop-color="#FFF591"/><stop offset=".482" stop-color="#FFDD42"/><stop offset=".743" stop-color="#FFC900"/><stop offset="1" stop-color="#FFCE00"/></radialGradient><radialGradient id="w" cx="0" cy="0" r="1" gradientTransform="matrix(0 4.66378 -4.66377 0 4.806 232.285)" gradientUnits="userSpaceOnUse"><stop stop-color="#FFFFB0"/><stop offset=".152" stop-color="#FFF591"/><stop offset=".482" stop-color="#FFDD42"/><stop offset=".743" stop-color="#FFC900"/><stop offset="1" stop-color="#FFCE00"/></radialGradient><radialGradient id="x" cx="0" cy="0" r="1" gradientTransform="matrix(0 4.66378 -4.66377 0 4.806 202.373)" gradientUnits="userSpaceOnUse"><stop stop-color="#FFFFB0"/><stop offset=".152" stop-color="#FFF591"/><stop offset=".482" stop-color="#FFDD42"/><stop offset=".743" stop-color="#FFC900"/><stop offset="1" stop-color="#FFCE00"/></radialGradient><radialGradient id="y" cx="0" cy="0" r="1" gradientTransform="matrix(0 4.66378 -4.66377 0 812.949 232.285)" gradientUnits="userSpaceOnUse"><stop stop-color="#FFFFB0"/><stop offset=".152" stop-color="#FFF591"/><stop offset=".482" stop-color="#FFDD42"/><stop offset=".743" stop-color="#FFC900"/><stop offset="1" stop-color="#FFCE00"/></radialGradient><radialGradient id="z" cx="0" cy="0" r="1" gradientTransform="matrix(0 4.66378 -4.66377 0 812.949 202.373)" gradientUnits="userSpaceOnUse"><stop stop-color="#FFFFB0"/><stop offset=".152" stop-color="#FFF591"/><stop offset=".482" stop-color="#FFDD42"/><stop offset=".743" stop-color="#FFC900"/><stop offset="1" stop-color="#FFCE00"/></radialGradient><radialGradient id="A" cx="0" cy="0" r="1" gradientTransform="matrix(0 4.66378 -4.66377 0 47.84 305.835)" gradientUnits="userSpaceOnUse"><stop stop-color="#FFFFB0"/><stop offset=".152" stop-color="#FFF591"/><stop offset=".482" stop-color="#FFDD42"/><stop offset=".743" stop-color="#FFC900"/><stop offset="1" stop-color="#FFCE00"/></radialGradient><radialGradient id="B" cx="0" cy="0" r="1" gradientTransform="matrix(0 4.66378 -4.66377 0 23.84 289.835)" gradientUnits="userSpaceOnUse"><stop stop-color="#FFFFB0"/><stop offset=".152" stop-color="#FFF591"/><stop offset=".482" stop-color="#FFDD42"/><stop offset=".743" stop-color="#FFC900"/><stop offset="1" stop-color="#FFCE00"/></radialGradient><radialGradient id="C" cx="0" cy="0" r="1" gradientTransform="matrix(0 4.66378 -4.66377 0 760.984 305.835)" gradientUnits="userSpaceOnUse"><stop stop-color="#FFFFB0"/><stop offset=".152" stop-color="#FFF591"/><stop offset=".482" stop-color="#FFDD42"/><stop offset=".743" stop-color="#FFC900"/><stop offset="1" stop-color="#FFCE00"/></radialGradient><radialGradient id="D" cx="0" cy="0" r="1" gradientTransform="matrix(0 4.66378 -4.66377 0 787.984 289.835)" gradientUnits="userSpaceOnUse"><stop stop-color="#FFFFB0"/><stop offset=".152" stop-color="#FFF591"/><stop offset=".482" stop-color="#FFDD42"/><stop offset=".743" stop-color="#FFC900"/><stop offset="1" stop-color="#FFCE00"/></radialGradient><radialGradient id="E" cx="0" cy="0" r="1" gradientTransform="matrix(4.66378 0 0 4.66377 244.73 306.13)" gradientUnits="userSpaceOnUse"><stop stop-color="#FFFFB0"/><stop offset=".152" stop-color="#FFF591"/><stop offset=".482" stop-color="#FFDD42"/><stop offset=".743" stop-color="#FFC900"/><stop offset="1" stop-color="#FFCE00"/></radialGradient><radialGradient id="F" cx="0" cy="0" r="1" gradientTransform="matrix(4.66378 0 0 4.66377 214.818 306.13)" gradientUnits="userSpaceOnUse"><stop stop-color="#FFFFB0"/><stop offset=".152" stop-color="#FFF591"/><stop offset=".482" stop-color="#FFDD42"/><stop offset=".743" stop-color="#FFC900"/><stop offset="1" stop-color="#FFCE00"/></radialGradient><radialGradient id="G" cx="0" cy="0" r="1" gradientTransform="matrix(4.66378 0 0 4.66377 147.569 306.13)" gradientUnits="userSpaceOnUse"><stop stop-color="#FFFFB0"/><stop offset=".152" stop-color="#FFF591"/><stop offset=".482" stop-color="#FFDD42"/><stop offset=".743" stop-color="#FFC900"/><stop offset="1" stop-color="#FFCE00"/></radialGradient><radialGradient id="H" cx="0" cy="0" r="1" gradientTransform="matrix(4.66378 0 0 4.66377 117.657 306.13)" gradientUnits="userSpaceOnUse"><stop stop-color="#FFFFB0"/><stop offset=".152" stop-color="#FFF591"/><stop offset=".482" stop-color="#FFDD42"/><stop offset=".743" stop-color="#FFC900"/><stop offset="1" stop-color="#FFCE00"/></radialGradient><radialGradient id="I" cx="0" cy="0" r="1" gradientTransform="matrix(4.66378 0 0 4.66377 335.039 306.13)" gradientUnits="userSpaceOnUse"><stop stop-color="#FFFFB0"/><stop offset=".152" stop-color="#FFF591"/><stop offset=".482" stop-color="#FFDD42"/><stop offset=".743" stop-color="#FFC900"/><stop offset="1" stop-color="#FFCE00"/></radialGradient><radialGradient id="J" cx="0" cy="0" r="1" gradientTransform="matrix(4.66378 0 0 4.66377 305.127 306.13)" gradientUnits="userSpaceOnUse"><stop stop-color="#FFFFB0"/><stop offset=".152" stop-color="#FFF591"/><stop offset=".482" stop-color="#FFDD42"/><stop offset=".743" stop-color="#FFC900"/><stop offset="1" stop-color="#FFCE00"/></radialGradient><radialGradient id="K" cx="0" cy="0" r="1" gradientTransform="matrix(4.66378 0 0 4.66377 425.348 306.13)" gradientUnits="userSpaceOnUse"><stop stop-color="#FFFFB0"/><stop offset=".152" stop-color="#FFF591"/><stop offset=".482" stop-color="#FFDD42"/><stop offset=".743" stop-color="#FFC900"/><stop offset="1" stop-color="#FFCE00"/></radialGradient><radialGradient id="L" cx="0" cy="0" r="1" gradientTransform="matrix(4.66378 0 0 4.66377 395.436 306.13)" gradientUnits="userSpaceOnUse"><stop stop-color="#FFFFB0"/><stop offset=".152" stop-color="#FFF591"/><stop offset=".482" stop-color="#FFDD42"/><stop offset=".743" stop-color="#FFC900"/><stop offset="1" stop-color="#FFCE00"/></radialGradient><radialGradient id="M" cx="0" cy="0" r="1" gradientTransform="matrix(4.66378 0 0 4.66377 515.658 306.13)" gradientUnits="userSpaceOnUse"><stop stop-color="#FFFFB0"/><stop offset=".152" stop-color="#FFF591"/><stop offset=".482" stop-color="#FFDD42"/><stop offset=".743" stop-color="#FFC900"/><stop offset="1" stop-color="#FFCE00"/></radialGradient><radialGradient id="N" cx="0" cy="0" r="1" gradientTransform="matrix(4.66378 0 0 4.66377 485.745 306.13)" gradientUnits="userSpaceOnUse"><stop stop-color="#FFFFB0"/><stop offset=".152" stop-color="#FFF591"/><stop offset=".482" stop-color="#FFDD42"/><stop offset=".743" stop-color="#FFC900"/><stop offset="1" stop-color="#FFCE00"/></radialGradient><radialGradient id="O" cx="0" cy="0" r="1" gradientTransform="matrix(4.66378 0 0 4.66377 605.967 306.13)" gradientUnits="userSpaceOnUse"><stop stop-color="#FFFFB0"/><stop offset=".152" stop-color="#FFF591"/><stop offset=".482" stop-color="#FFDD42"/><stop offset=".743" stop-color="#FFC900"/><stop offset="1" stop-color="#FFCE00"/></radialGradient><radialGradient id="P" cx="0" cy="0" r="1" gradientTransform="matrix(4.66378 0 0 4.66377 576.054 306.13)" gradientUnits="userSpaceOnUse"><stop stop-color="#FFFFB0"/><stop offset=".152" stop-color="#FFF591"/><stop offset=".482" stop-color="#FFDD42"/><stop offset=".743" stop-color="#FFC900"/><stop offset="1" stop-color="#FFCE00"/></radialGradient><radialGradient id="Q" cx="0" cy="0" r="1" gradientTransform="matrix(4.66378 0 0 4.66377 696.569 306.13)" gradientUnits="userSpaceOnUse"><stop stop-color="#FFFFB0"/><stop offset=".152" stop-color="#FFF591"/><stop offset=".482" stop-color="#FFDD42"/><stop offset=".743" stop-color="#FFC900"/><stop offset="1" stop-color="#FFCE00"/></radialGradient><radialGradient id="R" cx="0" cy="0" r="1" gradientTransform="matrix(4.66378 0 0 4.66377 666.657 306.13)" gradientUnits="userSpaceOnUse"><stop stop-color="#FFFFB0"/><stop offset=".152" stop-color="#FFF591"/><stop offset=".482" stop-color="#FFDD42"/><stop offset=".743" stop-color="#FFC900"/><stop offset="1" stop-color="#FFCE00"/></radialGradient></defs></svg>