<svg width="226" height="89" fill="none" xmlns="http://www.w3.org/2000/svg"><g filter="url(#a)"><path d="M224 86.998H13c-6.075 0-11-4.925-11-11v-74h193c16.016 0 29 12.984 29 29v56z" fill="url(#b)"/></g><path d="M224 84.998H14c-5.523 0-10-4.477-10-10v-73h191c16.016 0 29 12.984 29 29v54z" fill="url(#c)"/><mask id="e" style="mask-type:alpha" maskUnits="userSpaceOnUse" x="4" y="-1" width="220" height="86"><path d="M224 84.998H14c-5.523 0-10-4.477-10-10v-75h188c17.673 0 32 14.327 32 32v53z" fill="url(#d)"/></mask><g mask="url(#e)"><g filter="url(#f)"><path d="M231 86.998H13c-6.075 0-11-4.925-11-11v-82h197c17.673 0 32 14.327 32 32v61z" stroke="url(#g)" stroke-width="6"/></g><g filter="url(#h)"><path d="M231 86.998H13c-6.075 0-11-4.925-11-11v-82h197c17.673 0 32 14.327 32 32v61z" stroke="url(#i)" stroke-width="6"/></g><path d="M224 91.998H8c-6.075 0-11-4.925-11-11v-80h197c16.569 0 30 13.431 30 30v61z" stroke="url(#j)" stroke-width="8"/></g><defs><linearGradient id="b" x1="118" y1="86.998" x2="118" y2="-4.002" gradientUnits="userSpaceOnUse"><stop stop-color="#A95FFF"/><stop offset="1" stop-color="#6B29B8"/></linearGradient><linearGradient id="c" x1="118" y1="89.998" x2="118" y2="-4.002" gradientUnits="userSpaceOnUse"><stop stop-color="#FFC824"/><stop offset="1" stop-color="#FFF13F"/></linearGradient><linearGradient id="d" x1="118" y1="90.118" x2="118" y2="-6.147" gradientUnits="userSpaceOnUse"><stop stop-color="#FFF13F"/><stop offset="1" stop-color="#FFC824"/></linearGradient><linearGradient id="g" x1="118" y1="90.118" x2="118" y2="-6.147" gradientUnits="userSpaceOnUse"><stop stop-color="#7F5100"/><stop offset="1" stop-color="#C09300"/></linearGradient><linearGradient id="i" x1="118" y1="90.118" x2="118" y2="-6.147" gradientUnits="userSpaceOnUse"><stop stop-color="#845300"/><stop offset="1" stop-color="#C09300"/></linearGradient><linearGradient id="j" x1="119" y1="92" x2="118" y2="-6.147" gradientUnits="userSpaceOnUse"><stop stop-color="#C09300" stop-opacity="0"/><stop offset="1" stop-color="#C9A100"/></linearGradient><filter id="a" x=".8" y=".798" width="224.4" height="87.4" filterUnits="userSpaceOnUse" color-interpolation-filters="sRGB"><feFlood flood-opacity="0" result="BackgroundImageFix"/><feBlend in="SourceGraphic" in2="BackgroundImageFix" result="shape"/><feGaussianBlur stdDeviation=".6" result="effect1_foregroundBlur_2001_13636"/></filter><filter id="f" x="-7" y="-15.002" width="247" height="111" filterUnits="userSpaceOnUse" color-interpolation-filters="sRGB"><feFlood flood-opacity="0" result="BackgroundImageFix"/><feBlend in="SourceGraphic" in2="BackgroundImageFix" result="shape"/><feGaussianBlur stdDeviation="3" result="effect1_foregroundBlur_2001_13636"/></filter><filter id="h" x="-7" y="-15.002" width="247" height="111" filterUnits="userSpaceOnUse" color-interpolation-filters="sRGB"><feFlood flood-opacity="0" result="BackgroundImageFix"/><feBlend in="SourceGraphic" in2="BackgroundImageFix" result="shape"/><feGaussianBlur stdDeviation="3" result="effect1_foregroundBlur_2001_13636"/></filter></defs></svg>