<svg width="761" height="253" fill="none" xmlns="http://www.w3.org/2000/svg"><path d="M726.281.96H378.07v5.67h348.211c15.68 0 28.439 12.76 28.439 28.44v183.411c0 15.68-12.759 28.44-28.439 28.44H34.111c-15.68 0-28.44-12.76-28.44-28.44V35.071c0-15.68 12.76-28.44 28.44-28.44h344.1V.96h-344.1C15.27.96 0 16.23 0 35.07v183.41c0 18.84 15.27 34.11 34.11 34.11h692.17c18.84 0 34.11-15.27 34.11-34.11V35.071c.01-18.84-15.27-34.11-34.11-34.11z" fill="url(#a)"/><path d="M726.321 5.21h-348.25v1.42h348.25c15.68 0 28.44 12.76 28.44 28.44v183.411c0 15.68-12.76 28.44-28.44 28.44H34.151c-15.68 0-28.44-12.76-28.44-28.44V35.071c0-15.68 12.76-28.44 28.44-28.44h344.06V5.21H34.151C17.69 5.21 4.29 18.6 4.29 35.07v183.41c0 16.46 13.4 29.86 29.86 29.86h692.17c16.46 0 29.86-13.39 29.86-29.86V35.071c0-16.46-13.39-29.86-29.86-29.86z" fill="url(#b)"/><path d="M726.321.96h-348.25v1.42h348.25c18.03 0 32.69 14.67 32.69 32.69v183.411c0 18.03-14.67 32.69-32.69 32.69H34.151c-18.03 0-32.69-14.67-32.69-32.69V35.071c0-18.03 14.67-32.69 32.69-32.69h344.06V.96H34.151C15.31.96.04 16.23.04 35.07v183.41c0 18.84 15.27 34.11 34.11 34.11h692.17c18.84 0 34.11-15.27 34.11-34.11V35.071c0-18.84-15.27-34.11-34.11-34.11z" fill="url(#c)"/><defs><linearGradient id="a" x1="249.154" y1="-93.524" x2="501.243" y2="447.082" gradientUnits="userSpaceOnUse"><stop stop-color="#FFDC00"/><stop offset=".247" stop-color="#FFFF6B"/><stop offset=".595" stop-color="#FFDC00"/><stop offset="1" stop-color="orange"/></linearGradient><linearGradient id="b" x1="250.993" y1="-89.662" x2="499.479" y2="443.219" gradientUnits="userSpaceOnUse"><stop stop-color="#DA8F00"/><stop offset=".405" stop-color="#FFDC00"/><stop offset="1" stop-color="#FFFF8F"/></linearGradient><linearGradient id="c" x1="249.192" y1="-93.524" x2="501.28" y2="447.082" gradientUnits="userSpaceOnUse"><stop stop-color="#FFFF8F"/><stop offset=".595" stop-color="#FFDC00"/><stop offset="1" stop-color="#DA8F00"/></linearGradient></defs></svg>