<svg xmlns="http://www.w3.org/2000/svg" width="1160" height="424" fill="none"><path stroke="url(#a)" stroke-width="6" d="M40 41c0-14.912 12.088-27 27-27h1026c14.91 0 27 12.088 27 27v316c0 14.912-12.09 27-27 27H67c-14.912 0-27-12.088-27-27V41Z"/><path stroke="url(#b)" stroke-width="10" d="M67 6C47.67 6 32 21.67 32 41v316c0 19.33 15.67 35 35 35h1026c19.33 0 35-15.67 35-35V41c0-19.33-15.67-35-35-35H67Z"/><g filter="url(#c)"><path stroke="url(#d)" stroke-width="2" d="M32 41C32 21.118 48.118 5 68 5h1024c19.88 0 36 16.118 36 36v316c0 19.882-16.12 36-36 36H68c-19.882 0-36-16.118-36-36V41Z"/></g><g filter="url(#e)"><path stroke="url(#f)" d="M32 41C32 21.118 48.118 5 68 5h1024c19.88 0 36 16.118 36 36v316c0 19.882-16.12 36-36 36H68c-19.882 0-36-16.118-36-36V41Z"/></g><path fill="url(#g)" d="m29.785 197.652-25.123-13.99L0 155l27.576 11.306 2.21 31.302v.044Z"/><path fill="url(#h)" d="m0 155 23.068 14.034 5.06 27.716c-.177-.968-13.257-22.371-13.257-22.371L0 155Z"/><path fill="url(#i)" d="m6.629 164.789.64 15.31 15.291 8.116-12.175-11.152-3.756-12.274Z" opacity=".5"/><path fill="url(#j)" d="m29.785 197.608-1.679-.88-5.193-27.386L0 155l27.487 11.263.089.043 2.21 31.302Z"/><path fill="url(#k)" d="M6.629 164.789c.265.264 11.446 6.665 11.446 6.665l4.485 16.761-13.523-9.59-2.408-13.836Z"/><path fill="url(#l)" d="m6.982 165.009 11.048 6.269 4.22 15.772s-5.877-13.397-6.407-14.034c-.553-.616-8.507-7.765-8.86-8.007Z" opacity=".5"/><path fill="url(#m)" d="m29.785 197.608-1.679-.88-5.192-27.386 4.573-3.079.089.043 2.21 31.302Z" opacity=".5"/><path fill="url(#n)" d="m1.237 155.77 20.991 13.66 1.68 5.147-.84-5.565-21.83-13.242Z"/><path fill="url(#o)" d="m29.785 201.326-25.123 13.99L0 244l27.576-11.306 2.21-31.324v-.044Z"/><path fill="url(#p)" d="m0 244 23.068-14.034 5.06-27.716c-.177.967-13.257 22.371-13.257 22.371L0 244Z"/><path fill="url(#q)" d="m6.629 234.211.64-15.31 15.291-8.139-12.175 11.175-3.756 12.274Z" opacity=".5"/><path fill="url(#r)" d="m29.785 201.37-1.679.902-5.193 27.386L0 244l27.487-11.284.089-.022 2.21-31.324Z"/><path fill="url(#s)" d="M6.629 234.211c.265-.264 11.446-6.665 11.446-6.665l4.485-16.762-13.523 9.591-2.408 13.836Z"/><path fill="url(#t)" d="m6.982 233.991 11.048-6.269 4.22-15.772s-5.877 13.396-6.407 14.034c-.553.616-8.507 7.765-8.86 8.007Z" opacity=".5"/><path fill="url(#u)" d="m29.785 201.37-1.679.902-5.192 27.386 4.573 3.058.089-.022 2.21-31.324Z" opacity=".5"/><path fill="url(#v)" d="m1.237 243.23 20.991-13.66 1.68-5.169-.84 5.565-21.83 13.264Z"/><path fill="url(#w)" d="M35 199.214c0-8.71-7.093-15.772-15.843-15.772s-15.843 7.062-15.843 15.772c0 8.711 7.094 15.772 15.843 15.772 8.75 0 15.843-7.061 15.843-15.772Z"/><path fill="url(#x)" d="M7.513 209.817c2.231 2.001 5.17 3.277 8.418 3.277 6.96 0 12.617-5.631 12.617-12.56s-5.656-12.56-12.617-12.56c-6.739 0-12.197 5.279-12.55 11.9 0-.22-.067-.44-.067-.66 0-8.711 7.093-15.772 15.843-15.772S35 190.503 35 199.214s-7.093 15.772-15.843 15.772c-4.618 0-8.75-2.024-11.644-5.169Z" opacity=".5"/><path fill="url(#y)" d="M7.181 203.152c-.751-2.948 4.22-5.368 5.635-1.606 1.414 3.761 4.021 4.509 1.17 5.147-2.85.638-6.031-.506-6.805-3.541Z"/><path fill="url(#z)" d="m1130.21 196.652 25.13-13.99L1160 154l-27.58 11.306-2.21 31.302v.044Z"/><path fill="url(#A)" d="m1160 154-23.07 14.034s-5.23 28.684-5.06 27.716c.18-.968 13.26-22.371 13.26-22.371L1160 154Z"/><path fill="url(#B)" d="m1153.37 163.789-.64 15.31-15.29 8.116 12.17-11.152 3.76-12.274Z" opacity=".5"/><path fill="url(#C)" d="m1130.21 196.608 1.68-.88 5.2-27.386L1160 154l-27.49 11.263-.09.043-2.21 31.302Z"/><path fill="url(#D)" d="M1153.37 163.789c-.26.264-11.44 6.665-11.44 6.665l-4.49 16.761 13.52-9.59 2.41-13.836Z"/><path fill="url(#E)" d="m1153.02 164.009-11.05 6.269-4.22 15.772s5.88-13.397 6.41-14.034c.55-.616 8.5-7.765 8.86-8.007Z" opacity=".5"/><path fill="url(#F)" d="m1130.21 196.608 1.68-.88 5.2-27.386-4.58-3.079-.09.043-2.21 31.302Z" opacity=".5"/><path fill="url(#G)" d="m1158.76 154.77-20.99 13.66-1.68 5.147.84-5.565 21.83-13.242Z"/><path fill="url(#H)" d="m1130.21 200.326 25.13 13.99L1160 243l-27.58-11.306-2.21-31.324v-.044Z"/><path fill="url(#I)" d="m1160 243-23.07-14.034s-5.23-28.684-5.06-27.716c.18.967 13.26 22.371 13.26 22.371L1160 243Z"/><path fill="url(#J)" d="m1153.37 233.211-.64-15.31-15.29-8.139 12.17 11.175 3.76 12.274Z" opacity=".5"/><path fill="url(#K)" d="m1130.21 200.37 1.68.902 5.2 27.386L1160 243l-27.49-11.284-.09-.022-2.21-31.324Z"/><path fill="url(#L)" d="M1153.37 233.211c-.26-.264-11.44-6.665-11.44-6.665l-4.49-16.762 13.52 9.591 2.41 13.836Z"/><path fill="url(#M)" d="m1153.02 232.991-11.05-6.269-4.22-15.772s5.88 13.396 6.41 14.034c.55.616 8.5 7.765 8.86 8.007Z" opacity=".5"/><path fill="url(#N)" d="m1130.21 200.37 1.68.902 5.2 27.386-4.58 3.058-.09-.022-2.21-31.324Z" opacity=".5"/><path fill="url(#O)" d="m1158.76 242.23-20.99-13.66-1.68-5.169.84 5.565 21.83 13.264Z"/><path fill="url(#P)" d="M1125 198.214c0-8.71 7.09-15.772 15.84-15.772s15.85 7.062 15.85 15.772c0 8.711-7.1 15.772-15.85 15.772s-15.84-7.061-15.84-15.772Z"/><path fill="url(#Q)" d="M1152.49 208.817c-2.23 2.001-5.17 3.277-8.42 3.277-6.96 0-12.62-5.631-12.62-12.56s5.66-12.56 12.62-12.56c6.74 0 12.2 5.279 12.55 11.9 0-.22.07-.44.07-.66 0-8.711-7.1-15.772-15.85-15.772s-15.84 7.061-15.84 15.772 7.09 15.772 15.84 15.772c4.62 0 8.75-2.024 11.65-5.169Z" opacity=".5"/><path fill="url(#R)" d="M1152.82 202.152c.75-2.948-4.22-5.368-5.64-1.606-1.41 3.761-4.02 4.509-1.17 5.147 2.85.638 6.04-.506 6.81-3.541Z"/><path fill="#F9BB46" d="M580.334 391.915c-25.808 0-57.151.843-98.334 2.46-.136 0 80.385 3.577 98.334 3.577 17.972 0 98.493-3.554 98.334-3.577-41.183-1.617-72.549-2.46-98.334-2.46Z" opacity=".5"/><path fill="url(#S)" d="M579.992 422.188v-23.166l-19.133 10.41 19.133 12.756Z"/><path fill="#F2C801" d="m579.992 422.188 19.157-12.756s-4.943-7.38-15.558-10.569c-1.594 0-3.599.159-3.599.159v23.166Z"/><path fill="#F9BB46" d="m579.992 399.022 1.367 11.663c.41 3.599 3.166 5.808 7.243 4.533l4.761-1.936-13.371 8.906v-23.166Z" opacity=".8"/><path fill="url(#T)" d="M579.924 381.301h-2.756l-28.86 23.188s-11.549-5.968-26.56-19.202c-9.544.547-16.992.638-27.858-.205-3.986 3.075-10.25 8.656-10.25 8.656-.501 2.688-.296 12.346 0 15.216 2.483 3.781 8.451 11.047 14.624 14.828 5.58.387 14.122.205 16.924-.592 3.576-3.69 5.968-6.856 5.968-6.856s1.594-11.139-2.688-15.125c1.982 0 3.69.068 3.69.068s12.642 10.182 28.359 17.243c5.877-6.469 29.407-33.119 29.407-33.119v-4.1Z"/><path fill="#7A2B0B" d="M523.137 410.434c.479-2.232-.433-5.74-.979-6.332.501.023 1.116 0 1.116 0 .934 1.116 5.376 6.059 5.376 6.059l6.537-.296-12.801-9.18s-5.262 0-5.262.182c0 .183 3.622 9.704 3.622 9.704l2.391-.137Z" opacity=".35"/><path fill="url(#U)" d="M521.11 392.94c2.027 5.08 20.751 19.59 28.131 19.704-2.483-1.891-4.282-8.861-.888-8.155 0 0-14.624-8.109-26.56-19.202.365 2.187-.022 4.419-.683 7.653Z" opacity=".2"/><path fill="url(#V)" d="M549.219 412.644c-10.638-5.467-21.662-13.918-28.131-19.703-5.581.843-17.767 1.07-23.143.273-3.508 7.198 1.982 16.651 4.783 17.904 2.984 0 4.374-.228 7.768-2.529-3.053.388-6.492-.387-6.492-.387s-2.642-3.189-3.508-8.678c-.387 0 11.435-.091 14.715 0 2.984 4.168 2.984 10.546 1.093 16.81-1.48 1.344-10.136 3.189-15.216 3.781-6.674-2.187-13.143-9.658-15.124-11.936l-2.574-5.512c.045 2.62.159 5.08.273 6.31 2.483 3.781 8.451 11.047 14.624 14.828 5.58.388 14.122.205 16.901-.592 3.576-3.69 5.968-6.856 5.968-6.856s1.594-11.139-2.688-15.125c1.982 0 3.69.068 3.69.068s12.642 10.182 28.359 17.243c5.877-6.469 29.407-33.119 29.407-33.119v-2.187c-6.287 6.925-25.717 26.423-30.705 29.407Z"/><path fill="#F9BB46" d="M510.496 408.612c-.957-2.915.022-8.792 4.715-9.088-4.807-.046-14.715 0-14.715 0-1.002 3.394 3.508 8.701 3.508 8.701s3.075.797 6.492.387Z" opacity=".5"/><path fill="url(#W)" d="M502.728 411.118c2.984 0 4.374-.228 7.768-2.529-3.053.387-6.492-.387-6.492-.387s-2.643-3.189-3.508-8.679l-3.052 3.121c1.116 4.214 3.667 7.745 5.284 8.474Z"/><path fill="#7A2B0B" d="m560.721 409.295 7.95-10.341 7.927-7.062h-3.44s-7.015 6.629-7.289 7.084c-.273.456-9.498 10.319-9.498 10.319h4.35Z" opacity=".35"/><path fill="url(#X)" d="m497.945 393.214 2.528 6.31c.342-.023 11.549-.092 14.715 0 0 0 2.369.615 3.28 1.685 1.982 0 3.69.069 3.69.069l-1.048-8.337c-5.58.842-17.79 1.07-23.165.273Z"/><path fill="url(#Y)" d="M579.924 383.192c-6.31 6.97-25.74 26.468-30.705 29.452l1.298 5.877c5.877-6.469 29.407-33.12 29.407-33.12v-2.209Z"/><path fill="url(#Z)" d="m501.065 420.115-2.779 3.69c5.581.387 14.123.205 16.902-.592.205-.388 1.093-6.857 1.093-6.857-1.481 1.321-10.136 3.144-15.216 3.759Z"/><path fill="#F9BB46" d="M497.945 393.214c-1.868-1.663-4.715-4.966-4.055-8.132 5.741.638 18.382.956 27.858.205.706 2.551-.66 7.653-.66 7.653-3.964.934-15.763 1.003-23.143.274Z" opacity=".5"/><path fill="url(#aa)" d="M517.671 386.95c.022.455-1.367.888-3.121.979-1.731.091-3.166-.205-3.189-.661-.023-.455 1.367-.888 3.121-.979 1.731-.068 3.166.205 3.189.661Z"/><path fill="#F9BB46" d="M483.663 393.737c4.92-3.485 10.182-7.197 10.182-7.197s12.346.136 17.972-.798c-7.198 0-13.189-.205-17.904-.66-2.46 1.959-10.25 8.655-10.25 8.655ZM501.066 420.115c5.079-.592 13.735-2.437 15.215-3.781.456-1.526.82-3.075 1.025-4.601-.364 2.118-1.435 3.508-3.097 4.601-3.258 1.184-8.679 2.483-13.166 3.029-3.645-1.252-6.378-3.234-10.433-6.218 2.916 2.733 6.652 5.717 10.456 6.97ZM503.981 408.202c-.706-1.8-1.685-5.33-1.822-7.471.934-.524 9.362-1.276 9.362-1.276l-11.048.045c-.045 2.574 2.711 8.246 3.508 8.702Z"/><path fill="url(#ab)" d="M579.924 381.301h2.756l28.86 23.188s11.548-5.968 26.559-19.202c9.544.547 16.993.638 27.858-.205 3.986 3.075 10.25 8.656 10.25 8.656.501 2.688.296 12.346 0 15.216-2.483 3.781-8.45 11.047-14.623 14.828-5.581.387-14.123.205-16.925-.592-3.576-3.69-5.968-6.856-5.968-6.856s-1.594-11.139 2.688-15.125c-1.981 0-3.667.068-3.667.068s-12.642 10.182-28.359 17.243c-5.877-6.469-29.407-33.119-29.407-33.119v-4.1h-.022Z"/><path fill="#7A2B0B" d="M636.687 410.434c-.638-2.665.456-5.74 1.002-6.332-.501.023-1.116 0-1.116 0-.934 1.116-5.33 6.013-5.33 6.013l-6.332-.228 12.573-9.202s5.262 0 5.262.182c0 .183-3.644 9.681-3.644 9.681l-2.415-.114Z" opacity=".35"/><path fill="url(#ac)" d="M638.76 392.94c-2.027 5.08-20.751 19.59-28.131 19.704 2.482-1.891 4.282-8.861.888-8.155 0 0 14.624-8.109 26.559-19.202-.364 2.187.023 4.419.684 7.653Z" opacity=".2"/><path fill="url(#ad)" d="M610.652 412.644c10.637-5.467 21.662-13.918 28.131-19.703 5.58.843 17.767 1.07 23.142.273 3.508 7.198-1.981 16.651-4.783 17.904-2.984 0-4.373-.228-7.767-2.529 3.052.388 6.491-.387 6.491-.387s2.643-3.189 3.508-8.678c.388 0-11.434-.091-14.714 0-2.984 4.168-2.984 10.546-1.094 16.81 1.481 1.344 10.159 3.189 15.216 3.781 6.674-2.187 13.143-9.658 15.125-11.936l2.574-5.512c-.046 2.62-.16 5.08-.274 6.31-2.482 3.781-8.45 11.047-14.623 14.828-5.581.388-14.123.205-16.924-.592-3.577-3.69-5.968-6.856-5.968-6.856s-1.595-11.139 2.687-15.125c-1.981 0-3.667.068-3.667.068s-12.642 10.182-28.359 17.243c-5.877-6.469-29.406-33.119-29.406-33.119v-2.187c6.286 6.925 25.716 26.423 30.705 29.407Z"/><path fill="#F9BB46" d="M649.374 408.612c.957-2.915-.023-8.792-4.715-9.088 4.806-.046 14.715 0 14.715 0 1.002 3.394-3.508 8.701-3.508 8.701s-3.075.797-6.492.387Z" opacity=".5"/><path fill="url(#ae)" d="M657.142 411.118c-2.984 0-4.374-.228-7.767-2.529 3.052.387 6.491-.387 6.491-.387s2.643-3.189 3.508-8.679l3.052 3.121c-1.138 4.214-3.667 7.745-5.284 8.474Z"/><path fill="#7A2B0B" d="m599.148 409.295-7.949-10.341-7.927-7.062h3.439s7.016 6.629 7.29 7.084c.273.456 9.703 10.319 9.703 10.319h-4.556Z" opacity=".35"/><path fill="url(#af)" d="m661.903 393.214-2.528 6.31c-.342-.023-11.549-.092-14.715 0 0 0-2.369.615-3.28 1.685-1.982 0-3.668.069-3.668.069l1.048-8.337c5.581.842 17.767 1.07 23.143.273Z"/><path fill="url(#ag)" d="M579.924 383.192c6.309 6.97 25.739 26.468 30.705 29.452l-1.299 5.877c-5.876-6.469-29.406-33.12-29.406-33.12v-2.209Z"/><path fill="url(#ah)" d="m658.782 420.115 2.779 3.69c-5.581.387-14.123.205-16.924-.592-.205-.388-1.094-6.857-1.094-6.857 1.504 1.321 10.182 3.144 15.239 3.759Z"/><path fill="#F9BB46" d="M661.903 393.214c1.868-1.663 4.715-4.966 4.054-8.132-5.74.638-18.382.956-27.857.205-.707 2.551.66 7.653.66 7.653 3.986.934 15.785 1.003 23.143.274Z" opacity=".5"/><path fill="url(#ai)" d="M642.199 386.95c-.023.455 1.367.888 3.121.979 1.731.091 3.166-.205 3.189-.661.023-.455-1.367-.888-3.121-.979-1.731-.068-3.166.205-3.189.661Z"/><path fill="#F9BB46" d="M676.207 393.737a7479.493 7479.493 0 0 0-10.182-7.197s-12.346.136-17.972-.798c7.198 0 13.189-.205 17.904-.66 2.437 1.959 10.25 8.655 10.25 8.655ZM658.782 420.115c-5.08-.592-13.735-2.437-15.216-3.781-.456-1.526-.82-3.075-1.025-4.601.364 2.118 1.435 3.508 3.098 4.601 3.257 1.184 8.678 2.483 13.166 3.029 3.644-1.252 6.378-3.234 10.432-6.218-2.893 2.733-6.628 5.717-10.455 6.97ZM655.866 408.202c.707-1.8 1.686-5.33 1.823-7.471-.934-.524-9.362-1.276-9.362-1.276l11.047.045c.069 2.574-2.71 8.246-3.508 8.702Z"/><defs><linearGradient id="a" x1="580" x2="580" y1="91" y2="287" gradientUnits="userSpaceOnUse"><stop stop-color="#BC8307"/><stop offset="1" stop-color="#FFD95E"/></linearGradient><linearGradient id="b" x1="580" x2="580" y1="91" y2="287" gradientUnits="userSpaceOnUse"><stop stop-color="#F6C424"/><stop offset="1" stop-color="#E8A208"/></linearGradient><linearGradient id="d" x1="580" x2="580" y1="85" y2="313" gradientUnits="userSpaceOnUse"><stop stop-color="#FFEAA6"/><stop offset="1" stop-color="#FFC340"/></linearGradient><linearGradient id="f" x1="580" x2="580" y1="85" y2="313" gradientUnits="userSpaceOnUse"><stop stop-color="#FFEAA6"/><stop offset="1" stop-color="#FFC340"/></linearGradient><linearGradient id="g" x1="-15.454" x2="51.311" y1="197.94" y2="149.957" gradientUnits="userSpaceOnUse"><stop stop-color="#D1641B"/><stop offset=".74" stop-color="#FFD043"/><stop offset="1" stop-color="#FFBB41"/></linearGradient><linearGradient id="h" x1="21.809" x2="7.369" y1="169.427" y2="181.546" gradientUnits="userSpaceOnUse"><stop stop-color="#D1641B"/><stop offset=".74" stop-color="#FFD043"/><stop offset="1" stop-color="#FFBB41"/></linearGradient><linearGradient id="i" x1="19.463" x2="-.832" y1="189.386" y2="161.651" gradientUnits="userSpaceOnUse"><stop stop-color="#F29F2B"/><stop offset="1" stop-color="#8D3316"/></linearGradient><linearGradient id="j" x1="26.801" x2="4.549" y1="185.166" y2="142.861" gradientUnits="userSpaceOnUse"><stop stop-color="#D1641B"/><stop offset=".74" stop-color="#FFD043"/><stop offset="1" stop-color="#FFBB41"/></linearGradient><linearGradient id="k" x1="22.498" x2="2.204" y1="187.164" y2="159.431" gradientUnits="userSpaceOnUse"><stop stop-color="#D1641B"/><stop offset=".74" stop-color="#FFD043"/><stop offset="1" stop-color="#FFBB41"/></linearGradient><linearGradient id="l" x1="24.154" x2="4.945" y1="184.627" y2="158.377" gradientUnits="userSpaceOnUse"><stop stop-color="#F2D144"/><stop offset="1" stop-color="#FFF9A4"/></linearGradient><linearGradient id="m" x1="25.009" x2="27.417" y1="165.344" y2="190.888" gradientUnits="userSpaceOnUse"><stop stop-color="#F9C541"/><stop offset="1" stop-color="#D4471D"/></linearGradient><linearGradient id="n" x1="11.507" x2="13.106" y1="154.025" y2="170.984" gradientUnits="userSpaceOnUse"><stop stop-color="#fff"/><stop offset="1" stop-color="#FFFBC6"/></linearGradient><linearGradient id="o" x1="-15.453" x2="51.312" y1="201.055" y2="249.039" gradientUnits="userSpaceOnUse"><stop stop-color="#D1641B"/><stop offset=".74" stop-color="#FFD043"/><stop offset="1" stop-color="#FFBB41"/></linearGradient><linearGradient id="p" x1="21.81" x2="7.368" y1="229.568" y2="217.449" gradientUnits="userSpaceOnUse"><stop stop-color="#D1641B"/><stop offset=".74" stop-color="#FFD043"/><stop offset="1" stop-color="#FFBB41"/></linearGradient><linearGradient id="q" x1="19.462" x2="-.831" y1="209.61" y2="237.342" gradientUnits="userSpaceOnUse"><stop stop-color="#F29F2B"/><stop offset="1" stop-color="#8D3316"/></linearGradient><linearGradient id="r" x1="26.8" x2="4.548" y1="213.829" y2="256.134" gradientUnits="userSpaceOnUse"><stop stop-color="#D1641B"/><stop offset=".74" stop-color="#FFD043"/><stop offset="1" stop-color="#FFBB41"/></linearGradient><linearGradient id="s" x1="22.499" x2="2.205" y1="211.83" y2="239.565" gradientUnits="userSpaceOnUse"><stop stop-color="#D1641B"/><stop offset=".74" stop-color="#FFD043"/><stop offset="1" stop-color="#FFBB41"/></linearGradient><linearGradient id="t" x1="24.153" x2="4.945" y1="214.368" y2="240.618" gradientUnits="userSpaceOnUse"><stop stop-color="#F2D144"/><stop offset="1" stop-color="#FFF9A4"/></linearGradient><linearGradient id="u" x1="25.008" x2="27.417" y1="233.65" y2="208.106" gradientUnits="userSpaceOnUse"><stop stop-color="#F6BA3B"/><stop offset="1" stop-color="#D4471D"/></linearGradient><linearGradient id="v" x1="11.508" x2="13.107" y1="244.971" y2="228.011" gradientUnits="userSpaceOnUse"><stop stop-color="#fff"/><stop offset="1" stop-color="#FFFBC6"/></linearGradient><linearGradient id="x" x1="19" x2="15.982" y1="204" y2="183.003" gradientUnits="userSpaceOnUse"><stop stop-color="#D4471D"/><stop offset="1" stop-color="#FFFB8F"/></linearGradient><linearGradient id="y" x1="11.183" x2="11.183" y1="199.617" y2="206.86" gradientUnits="userSpaceOnUse"><stop stop-color="#fff"/><stop offset="1" stop-color="#FFFBC6"/></linearGradient><linearGradient id="z" x1="1175.45" x2="1108.69" y1="196.94" y2="148.957" gradientUnits="userSpaceOnUse"><stop stop-color="#D1641B"/><stop offset=".74" stop-color="#FFD043"/><stop offset="1" stop-color="#FFBB41"/></linearGradient><linearGradient id="A" x1="1138.19" x2="1152.63" y1="168.427" y2="180.546" gradientUnits="userSpaceOnUse"><stop stop-color="#D1641B"/><stop offset=".74" stop-color="#FFD043"/><stop offset="1" stop-color="#FFBB41"/></linearGradient><linearGradient id="B" x1="1140.54" x2="1160.83" y1="188.386" y2="160.651" gradientUnits="userSpaceOnUse"><stop stop-color="#F29F2B"/><stop offset="1" stop-color="#8D3316"/></linearGradient><linearGradient id="C" x1="1133.2" x2="1155.45" y1="184.166" y2="141.861" gradientUnits="userSpaceOnUse"><stop stop-color="#D1641B"/><stop offset=".74" stop-color="#FFD043"/><stop offset="1" stop-color="#FFBB41"/></linearGradient><linearGradient id="D" x1="1137.5" x2="1157.8" y1="186.164" y2="158.431" gradientUnits="userSpaceOnUse"><stop stop-color="#D1641B"/><stop offset=".74" stop-color="#FFD043"/><stop offset="1" stop-color="#FFBB41"/></linearGradient><linearGradient id="E" x1="1135.85" x2="1155.05" y1="183.627" y2="157.377" gradientUnits="userSpaceOnUse"><stop stop-color="#F2D144"/><stop offset="1" stop-color="#FFF9A4"/></linearGradient><linearGradient id="F" x1="1134.99" x2="1132.58" y1="164.344" y2="189.888" gradientUnits="userSpaceOnUse"><stop stop-color="#F9C541"/><stop offset="1" stop-color="#D4471D"/></linearGradient><linearGradient id="G" x1="1148.49" x2="1146.89" y1="153.025" y2="169.984" gradientUnits="userSpaceOnUse"><stop stop-color="#fff"/><stop offset="1" stop-color="#FFFBC6"/></linearGradient><linearGradient id="H" x1="1175.45" x2="1108.69" y1="200.055" y2="248.039" gradientUnits="userSpaceOnUse"><stop stop-color="#D1641B"/><stop offset=".74" stop-color="#FFD043"/><stop offset="1" stop-color="#FFBB41"/></linearGradient><linearGradient id="I" x1="1138.19" x2="1152.63" y1="228.568" y2="216.449" gradientUnits="userSpaceOnUse"><stop stop-color="#D1641B"/><stop offset=".74" stop-color="#FFD043"/><stop offset="1" stop-color="#FFBB41"/></linearGradient><linearGradient id="J" x1="1140.54" x2="1160.83" y1="208.61" y2="236.342" gradientUnits="userSpaceOnUse"><stop stop-color="#F29F2B"/><stop offset="1" stop-color="#8D3316"/></linearGradient><linearGradient id="K" x1="1133.2" x2="1155.45" y1="212.829" y2="255.134" gradientUnits="userSpaceOnUse"><stop stop-color="#D1641B"/><stop offset=".74" stop-color="#FFD043"/><stop offset="1" stop-color="#FFBB41"/></linearGradient><linearGradient id="L" x1="1137.5" x2="1157.8" y1="210.83" y2="238.565" gradientUnits="userSpaceOnUse"><stop stop-color="#D1641B"/><stop offset=".74" stop-color="#FFD043"/><stop offset="1" stop-color="#FFBB41"/></linearGradient><linearGradient id="M" x1="1135.85" x2="1155.06" y1="213.368" y2="239.618" gradientUnits="userSpaceOnUse"><stop stop-color="#F2D144"/><stop offset="1" stop-color="#FFF9A4"/></linearGradient><linearGradient id="N" x1="1134.99" x2="1132.58" y1="232.65" y2="207.106" gradientUnits="userSpaceOnUse"><stop stop-color="#F6BA3B"/><stop offset="1" stop-color="#D4471D"/></linearGradient><linearGradient id="O" x1="1148.49" x2="1146.89" y1="243.971" y2="227.011" gradientUnits="userSpaceOnUse"><stop stop-color="#fff"/><stop offset="1" stop-color="#FFFBC6"/></linearGradient><linearGradient id="Q" x1="1141" x2="1144.02" y1="203" y2="182.003" gradientUnits="userSpaceOnUse"><stop stop-color="#D4471D"/><stop offset="1" stop-color="#FFFB8F"/></linearGradient><linearGradient id="R" x1="1148.82" x2="1148.82" y1="198.617" y2="205.86" gradientUnits="userSpaceOnUse"><stop stop-color="#fff"/><stop offset="1" stop-color="#FFFBC6"/></linearGradient><linearGradient id="S" x1="560.862" x2="579.988" y1="410.609" y2="410.609" gradientUnits="userSpaceOnUse"><stop stop-color="#7A2B0B"/><stop offset=".936" stop-color="#BC5C08"/></linearGradient><linearGradient id="T" x1="531.645" x2="531.645" y1="389.167" y2="419.947" gradientUnits="userSpaceOnUse"><stop offset=".014" stop-color="#F2D100"/><stop offset="1" stop-color="#ED660B"/></linearGradient><linearGradient id="U" x1="549.581" x2="527.977" y1="397.855" y2="399.561" gradientUnits="userSpaceOnUse"><stop stop-color="#7A2B0B"/><stop offset=".936" stop-color="#BC5C08"/></linearGradient><linearGradient id="V" x1="483.381" x2="579.932" y1="403.593" y2="403.593" gradientUnits="userSpaceOnUse"><stop stop-color="#A33700"/><stop offset="1" stop-color="#D38705"/></linearGradient><linearGradient id="W" x1="497.424" x2="510.49" y1="405.318" y2="405.318" gradientUnits="userSpaceOnUse"><stop stop-color="#7A2B0B"/><stop offset=".936" stop-color="#BC5C08"/></linearGradient><linearGradient id="X" x1="500.873" x2="525.079" y1="397.113" y2="397.113" gradientUnits="userSpaceOnUse"><stop stop-color="#7A2B0B"/><stop offset=".936" stop-color="#BC5C08"/></linearGradient><linearGradient id="Y" x1="550.598" x2="565.223" y1="414.839" y2="399.916" gradientUnits="userSpaceOnUse"><stop stop-color="#7A2B0B"/><stop offset=".936" stop-color="#BC5C08"/></linearGradient><linearGradient id="Z" x1="517.629" x2="502.507" y1="419.738" y2="420.931" gradientUnits="userSpaceOnUse"><stop stop-color="#7A2B0B"/><stop offset=".936" stop-color="#BC5C08"/></linearGradient><linearGradient id="aa" x1="511.377" x2="517.661" y1="387.476" y2="386.878" gradientUnits="userSpaceOnUse"><stop stop-color="#fff"/><stop offset="1" stop-color="#FFFFC4"/></linearGradient><linearGradient id="ab" x1="628.219" x2="628.219" y1="389.167" y2="419.947" gradientUnits="userSpaceOnUse"><stop offset=".014" stop-color="#F2D100"/><stop offset="1" stop-color="#ED660B"/></linearGradient><linearGradient id="ac" x1="610.283" x2="631.887" y1="397.855" y2="399.561" gradientUnits="userSpaceOnUse"><stop stop-color="#7A2B0B"/><stop offset=".936" stop-color="#BC5C08"/></linearGradient><linearGradient id="ad" x1="676.484" x2="579.932" y1="403.593" y2="403.593" gradientUnits="userSpaceOnUse"><stop stop-color="#A33700"/><stop offset="1" stop-color="#D38705"/></linearGradient><linearGradient id="ae" x1="662.44" x2="649.374" y1="405.318" y2="405.318" gradientUnits="userSpaceOnUse"><stop stop-color="#7A2B0B"/><stop offset=".936" stop-color="#BC5C08"/></linearGradient><linearGradient id="af" x1="658.992" x2="634.786" y1="397.113" y2="397.113" gradientUnits="userSpaceOnUse"><stop stop-color="#7A2B0B"/><stop offset=".936" stop-color="#BC5C08"/></linearGradient><linearGradient id="ag" x1="609.266" x2="594.642" y1="414.839" y2="399.916" gradientUnits="userSpaceOnUse"><stop stop-color="#7A2B0B"/><stop offset=".936" stop-color="#BC5C08"/></linearGradient><linearGradient id="ah" x1="642.234" x2="657.357" y1="419.738" y2="420.931" gradientUnits="userSpaceOnUse"><stop stop-color="#7A2B0B"/><stop offset=".936" stop-color="#BC5C08"/></linearGradient><linearGradient id="ai" x1="648.487" x2="642.203" y1="387.476" y2="386.878" gradientUnits="userSpaceOnUse"><stop stop-color="#fff"/><stop offset="1" stop-color="#FFFFC4"/></linearGradient><radialGradient id="w" cx="0" cy="0" r="1" gradientTransform="matrix(0 21.3541 -21.4501 0 10.167 195.981)" gradientUnits="userSpaceOnUse"><stop stop-color="#FFBB41"/><stop offset=".26" stop-color="#FFD043"/><stop offset="1" stop-color="#CF772D"/></radialGradient><radialGradient id="P" cx="0" cy="0" r="1" gradientTransform="matrix(0 21.3541 -21.4501 0 1149.83 194.981)" gradientUnits="userSpaceOnUse"><stop stop-color="#FFBB41"/><stop offset=".26" stop-color="#FFD043"/><stop offset="1" stop-color="#CF772D"/></radialGradient><filter id="c" width="1106" height="398" x="27" y="0" color-interpolation-filters="sRGB" filterUnits="userSpaceOnUse"><feFlood flood-opacity="0" result="BackgroundImageFix"/><feBlend in="SourceGraphic" in2="BackgroundImageFix" result="shape"/><feGaussianBlur result="effect1_foregroundBlur_2003_21003" stdDeviation="2"/></filter><filter id="e" width="1099" height="391" x="30.5" y="3.5" color-interpolation-filters="sRGB" filterUnits="userSpaceOnUse"><feFlood flood-opacity="0" result="BackgroundImageFix"/><feBlend in="SourceGraphic" in2="BackgroundImageFix" result="shape"/><feGaussianBlur result="effect1_foregroundBlur_2003_21003" stdDeviation=".5"/></filter></defs></svg>