<svg width="451" height="412" viewBox="0 0 451 412" fill="none" xmlns="http://www.w3.org/2000/svg">
<path d="M416.28 0.342285H228.07V6.01229H416.28C431.96 6.01229 444.72 18.7723 444.72 34.4523V377.862C444.72 393.542 431.96 406.302 416.28 406.302H34.11C18.43 406.302 5.67 393.542 5.67 377.862V34.4523C5.67 18.7723 18.43 6.01229 34.11 6.01229H228.21V0.342285H34.11C15.27 0.342285 0 15.6123 0 34.4523V377.862C0 396.702 15.27 411.972 34.11 411.972H416.28C435.12 411.972 450.39 396.702 450.39 377.862V34.4523C450.4 15.6123 435.12 0.342285 416.28 0.342285Z" fill="url(#paint0_linear_499_23778)"/>
<path d="M416.32 4.59229H228.07V6.01229H416.32C432 6.01229 444.76 18.7723 444.76 34.4523V377.862C444.76 393.542 432 406.302 416.32 406.302H34.15C18.47 406.302 5.71004 393.542 5.71004 377.862V34.4523C5.71004 18.7723 18.47 6.01229 34.15 6.01229H228.21V4.59229H34.15C17.69 4.59229 4.29004 17.9823 4.29004 34.4523V377.862C4.29004 394.322 17.69 407.722 34.15 407.722H416.32C432.78 407.722 446.18 394.332 446.18 377.862V34.4523C446.18 17.9923 432.79 4.59229 416.32 4.59229Z" fill="url(#paint1_linear_499_23778)"/>
<path d="M416.32 0.342285H228.07V1.76229H416.32C434.35 1.76229 449.01 16.4323 449.01 34.4523V377.862C449.01 395.892 434.34 410.552 416.32 410.552H34.15C16.12 410.552 1.46004 395.882 1.46004 377.862V34.4523C1.46004 16.4223 16.13 1.76229 34.15 1.76229H228.21V0.342285H34.15C15.31 0.342285 0.0400391 15.6123 0.0400391 34.4523V377.862C0.0400391 396.702 15.31 411.972 34.15 411.972H416.32C435.16 411.972 450.43 396.702 450.43 377.862V34.4523C450.43 15.6123 435.16 0.342285 416.32 0.342285Z" fill="url(#paint2_linear_499_23778)"/>
<defs>
<linearGradient id="paint0_linear_499_23778" x1="99.1537" y1="-94.1428" x2="351.242" y2="446.463" gradientUnits="userSpaceOnUse">
<stop stop-color="#FFDC00"/>
<stop offset="0.2469" stop-color="#FFFF6B"/>
<stop offset="0.5953" stop-color="#FFDC00"/>
<stop offset="1" stop-color="#FFA500"/>
</linearGradient>
<linearGradient id="paint1_linear_499_23778" x1="100.992" y1="-90.2805" x2="349.479" y2="442.601" gradientUnits="userSpaceOnUse">
<stop stop-color="#DA8F00"/>
<stop offset="0.4047" stop-color="#FFDC00"/>
<stop offset="1" stop-color="#FFFF8F"/>
</linearGradient>
<linearGradient id="paint2_linear_499_23778" x1="99.1914" y1="-94.1427" x2="351.28" y2="446.463" gradientUnits="userSpaceOnUse">
<stop stop-color="#FFFF8F"/>
<stop offset="0.5953" stop-color="#FFDC00"/>
<stop offset="1" stop-color="#DA8F00"/>
</linearGradient>
</defs>
</svg>
