<svg xmlns="http://www.w3.org/2000/svg" width="920" height="502" fill="none"><path fill="url(#a)" d="M885.908 0H457.876v5.678h428.032c15.671 0 28.425 12.78 28.425 28.482v433.68c0 15.703-12.754 28.482-28.425 28.482H34.092c-15.671 0-28.425-12.779-28.425-28.482V34.16c0-15.703 12.754-28.482 28.425-28.482h423.924V0H34.092C15.262 0 0 15.293 0 34.16v433.68C0 486.708 15.262 502 34.093 502h851.815c18.83 0 34.092-15.292 34.092-34.16V34.16C920.01 15.293 904.738 0 885.908 0Z"/><path fill="url(#b)" d="M886.136 4H457.835v1.413h428.301c15.682 0 28.444 12.701 28.444 28.308V468.28c0 15.607-12.762 28.308-28.444 28.308H33.864c-15.682 0-28.444-12.701-28.444-28.308V33.721c0-15.607 12.762-28.308 28.444-28.308h424.111V4H33.864C17.402 4 4 17.328 4 33.721V468.28C4 484.662 17.402 498 33.864 498h852.272C902.598 498 916 484.672 916 468.279V33.721C916 17.338 902.608 4 886.136 4Z"/><path fill="url(#c)" d="M885.904 0H457.836v1.416h428.068c18.023 0 32.677 14.634 32.677 32.609v433.95c0 17.985-14.664 32.609-32.677 32.609H34.096c-18.023 0-32.677-14.634-32.677-32.609V34.025c0-17.985 14.664-32.609 32.677-32.609h423.88V0H34.096C15.264 0 0 15.232 0 34.025v433.95C0 486.768 15.264 502 34.096 502h851.808C904.737 502 920 486.768 920 467.975V34.025C920 15.232 904.737 0 885.904 0Z"/><defs><linearGradient id="a" x1="329.026" x2="581.807" y1="-4.624" y2="536.392" gradientUnits="userSpaceOnUse"><stop stop-color="#FFDC00"/><stop offset=".247" stop-color="#FFFF6B"/><stop offset=".595" stop-color="#FFDC00"/><stop offset="1" stop-color="orange"/></linearGradient><linearGradient id="b" x1="330.741" x2="577.313" y1="-.432" y2="530.875" gradientUnits="userSpaceOnUse"><stop stop-color="#DA8F00"/><stop offset=".405" stop-color="#FFDC00"/><stop offset="1" stop-color="#FFFF8F"/></linearGradient><linearGradient id="c" x1="329.012" x2="580.133" y1="-4.249" y2="535.404" gradientUnits="userSpaceOnUse"><stop stop-color="#FFFF8F"/><stop offset=".595" stop-color="#FFDC00"/><stop offset="1" stop-color="#DA8F00"/></linearGradient></defs></svg>