<svg width="508" height="461" viewBox="0 0 508 461" fill="none" xmlns="http://www.w3.org/2000/svg">
<path d="M82.3661 4.92229C82.3661 7.49431 80.2785 9.58193 77.7065 9.58193C75.1345 9.58193 73.0469 7.49431 73.0469 4.92229C73.0469 2.35027 75.1345 0.262695 77.7065 0.262695C80.2785 0.262695 82.3661 2.35027 82.3661 4.92229Z" fill="url(#paint0_radial_499_23796)"/>
<path d="M52.4477 4.92229C52.4477 7.49431 50.3601 9.58193 47.7881 9.58193C45.216 9.58193 43.1284 7.49431 43.1284 4.92229C43.1284 2.35027 45.216 0.262695 47.7881 0.262695C50.3601 0.262695 52.4477 2.35027 52.4477 4.92229Z" fill="url(#paint1_radial_499_23796)"/>
<path d="M182.675 4.92229C182.675 7.49431 180.588 9.58193 178.016 9.58193C175.444 9.58193 173.356 7.49431 173.356 4.92229C173.356 2.35027 175.444 0.262695 178.016 0.262695C180.588 0.262695 182.675 2.35027 182.675 4.92229Z" fill="url(#paint2_radial_499_23796)"/>
<path d="M152.757 4.92229C152.757 7.49431 150.669 9.58193 148.097 9.58193C145.525 9.58193 143.438 7.49431 143.438 4.92229C143.438 2.35027 145.525 0.262695 148.097 0.262695C150.669 0.262695 152.757 2.35027 152.757 4.92229Z" fill="url(#paint3_radial_499_23796)"/>
<path d="M272.984 4.92229C272.984 7.49431 270.897 9.58193 268.325 9.58193C265.753 9.58193 263.665 7.49431 263.665 4.92229C263.665 2.35027 265.753 0.262695 268.325 0.262695C270.897 0.262695 272.984 2.35027 272.984 4.92229Z" fill="url(#paint4_radial_499_23796)"/>
<path d="M243.066 4.92229C243.066 7.49431 240.978 9.58193 238.406 9.58193C235.834 9.58193 233.747 7.49431 233.747 4.92229C233.747 2.35027 235.834 0.262695 238.406 0.262695C240.978 0.262695 243.066 2.35027 243.066 4.92229Z" fill="url(#paint5_radial_499_23796)"/>
<path d="M363.293 4.92229C363.293 7.49431 361.206 9.58193 358.634 9.58193C356.062 9.58193 353.974 7.49431 353.974 4.92229C353.974 2.35027 356.062 0.262695 358.634 0.262695C361.206 0.262695 363.293 2.35027 363.293 4.92229Z" fill="url(#paint6_radial_499_23796)"/>
<path d="M333.375 4.92229C333.375 7.49431 331.287 9.58193 328.715 9.58193C326.143 9.58193 324.056 7.49431 324.056 4.92229C324.056 2.35027 326.143 0.262695 328.715 0.262695C331.287 0.262695 333.375 2.35027 333.375 4.92229Z" fill="url(#paint7_radial_499_23796)"/>
<path d="M463.602 4.92229C463.602 7.49431 461.515 9.58193 458.943 9.58193C456.371 9.58193 454.283 7.49431 454.283 4.92229C454.283 2.35027 456.371 0.262695 458.943 0.262695C461.515 0.262695 463.602 2.35027 463.602 4.92229Z" fill="url(#paint8_radial_499_23796)"/>
<path d="M433.684 4.92229C433.684 7.49431 431.596 9.58193 429.024 9.58193C426.452 9.58193 424.365 7.49431 424.365 4.92229C424.365 2.35027 426.452 0.262695 429.024 0.262695C431.596 0.262695 433.684 2.35027 433.684 4.92229Z" fill="url(#paint9_radial_499_23796)"/>
<path d="M4.77204 154.872C2.20002 154.872 0.112407 152.784 0.112407 150.212C0.112408 147.64 2.20002 145.553 4.77204 145.553C7.34406 145.553 9.43164 147.64 9.43164 150.212C9.43164 152.784 7.34406 154.872 4.77204 154.872Z" fill="url(#paint10_radial_499_23796)"/>
<path d="M4.77204 124.954C2.20002 124.954 0.112407 122.866 0.112407 120.294C0.112408 117.722 2.20002 115.634 4.77204 115.634C7.34406 115.634 9.43164 117.722 9.43164 120.294C9.43164 122.866 7.34406 124.954 4.77204 124.954Z" fill="url(#paint11_radial_499_23796)"/>
<path d="M502.916 154.872C500.344 154.872 498.256 152.784 498.256 150.212C498.256 147.64 500.344 145.553 502.916 145.553C505.488 145.553 507.575 147.64 507.575 150.212C507.575 152.784 505.488 154.872 502.916 154.872Z" fill="url(#paint12_radial_499_23796)"/>
<path d="M502.916 124.954C500.344 124.954 498.256 122.866 498.256 120.294C498.256 117.722 500.344 115.634 502.916 115.634C505.488 115.634 507.575 117.722 507.575 120.294C507.575 122.866 505.488 124.954 502.916 124.954Z" fill="url(#paint13_radial_499_23796)"/>
<path d="M4.77351 65.2553C2.20149 65.2553 0.113872 63.1677 0.113872 60.5957C0.113872 58.0236 2.20149 55.936 4.77351 55.936C7.34553 55.936 9.43311 58.0236 9.43311 60.5957C9.43311 63.1677 7.34553 65.2553 4.77351 65.2553Z" fill="url(#paint14_radial_499_23796)"/>
<path d="M502.916 65.2553C500.344 65.2553 498.256 63.1677 498.256 60.5957C498.256 58.0236 500.344 55.936 502.916 55.936C505.488 55.936 507.575 58.0236 507.575 60.5957C507.575 63.1677 505.488 65.2553 502.916 65.2553Z" fill="url(#paint15_radial_499_23796)"/>
<path d="M4.8072 246.335C2.23518 246.335 0.147564 244.247 0.147564 241.675C0.147564 239.103 2.23518 237.016 4.8072 237.016C7.37922 237.016 9.4668 239.103 9.4668 241.675C9.4668 244.247 7.37922 246.335 4.8072 246.335Z" fill="url(#paint16_radial_499_23796)"/>
<path d="M4.8072 216.416C2.23518 216.416 0.147564 214.329 0.147564 211.757C0.147564 209.185 2.23518 207.097 4.8072 207.097C7.37922 207.097 9.4668 209.185 9.4668 211.757C9.4668 214.329 7.37922 216.416 4.8072 216.416Z" fill="url(#paint17_radial_499_23796)"/>
<path d="M502.95 246.335C500.378 246.335 498.29 244.247 498.29 241.675C498.29 239.103 500.378 237.016 502.95 237.016C505.522 237.016 507.609 239.103 507.609 241.675C507.609 244.247 505.522 246.335 502.95 246.335Z" fill="url(#paint18_radial_499_23796)"/>
<path d="M502.95 216.416C500.378 216.416 498.29 214.329 498.29 211.757C498.29 209.185 500.378 207.097 502.95 207.097C505.522 207.097 507.609 209.185 507.609 211.757C507.609 214.329 505.522 216.416 502.95 216.416Z" fill="url(#paint19_radial_499_23796)"/>
<path d="M4.84138 337.797C2.26936 337.797 0.181743 335.71 0.181743 333.138C0.181744 330.566 2.26936 328.478 4.84138 328.478C7.4134 328.478 9.50098 330.566 9.50098 333.138C9.50098 335.71 7.4134 337.797 4.84138 337.797Z" fill="url(#paint20_radial_499_23796)"/>
<path d="M4.84138 307.879C2.26936 307.879 0.181743 305.791 0.181743 303.219C0.181744 300.647 2.26936 298.56 4.84138 298.56C7.4134 298.56 9.50098 300.647 9.50098 303.219C9.50098 305.791 7.4134 307.879 4.84138 307.879Z" fill="url(#paint21_radial_499_23796)"/>
<path d="M4.84138 426.236C2.26936 426.236 0.181743 424.148 0.181743 421.576C0.181744 419.004 2.26936 416.917 4.84138 416.917C7.4134 416.917 9.50098 419.004 9.50098 421.576C9.50098 424.148 7.4134 426.236 4.84138 426.236Z" fill="url(#paint22_radial_499_23796)"/>
<path d="M4.84138 396.317C2.26936 396.317 0.181743 394.23 0.181743 391.658C0.181744 389.086 2.26936 386.998 4.84138 386.998C7.4134 386.998 9.50098 389.086 9.50098 391.658C9.50098 394.23 7.4134 396.317 4.84138 396.317Z" fill="url(#paint23_radial_499_23796)"/>
<path d="M502.985 337.797C500.413 337.797 498.325 335.71 498.325 333.138C498.325 330.566 500.413 328.478 502.985 328.478C505.557 328.478 507.645 330.566 507.645 333.138C507.645 335.71 505.557 337.797 502.985 337.797Z" fill="url(#paint24_radial_499_23796)"/>
<path d="M502.985 307.879C500.413 307.879 498.325 305.791 498.325 303.219C498.325 300.647 500.413 298.56 502.985 298.56C505.557 298.56 507.645 300.647 507.645 303.219C507.645 305.791 505.557 307.879 502.985 307.879Z" fill="url(#paint25_radial_499_23796)"/>
<path d="M502.985 426.236C500.413 426.236 498.325 424.148 498.325 421.576C498.325 419.004 500.413 416.917 502.985 416.917C505.557 416.917 507.645 419.004 507.645 421.576C507.645 424.148 505.557 426.236 502.985 426.236Z" fill="url(#paint26_radial_499_23796)"/>
<path d="M502.985 396.317C500.413 396.317 498.325 394.23 498.325 391.658C498.325 389.086 500.413 386.998 502.985 386.998C505.557 386.998 507.645 389.086 507.645 391.658C507.645 394.23 505.557 396.317 502.985 396.317Z" fill="url(#paint27_radial_499_23796)"/>
<path d="M99.3988 455.511C99.3988 458.083 97.3112 460.17 94.7392 460.17C92.1672 460.17 90.0796 458.083 90.0796 455.511C90.0796 452.939 92.1672 450.851 94.7392 450.851C97.3112 450.851 99.3988 452.939 99.3988 455.511Z" fill="url(#paint28_radial_499_23796)"/>
<path d="M69.4804 455.511C69.4804 458.083 67.3928 460.17 64.8208 460.17C62.2487 460.17 60.1611 458.083 60.1611 455.511C60.1611 452.939 62.2487 450.851 64.8208 450.851C67.3928 450.851 69.4804 452.939 69.4804 455.511Z" fill="url(#paint29_radial_499_23796)"/>
<path d="M189.707 455.511C189.707 458.083 187.62 460.17 185.048 460.17C182.476 460.17 180.388 458.083 180.388 455.511C180.388 452.939 182.476 450.851 185.048 450.851C187.62 450.851 189.707 452.939 189.707 455.511Z" fill="url(#paint30_radial_499_23796)"/>
<path d="M159.789 455.511C159.789 458.083 157.701 460.17 155.129 460.17C152.557 460.17 150.47 458.083 150.47 455.511C150.47 452.939 152.557 450.851 155.129 450.851C157.701 450.851 159.789 452.939 159.789 455.511Z" fill="url(#paint31_radial_499_23796)"/>
<path d="M280.017 455.511C280.017 458.083 277.929 460.17 275.357 460.17C272.785 460.17 270.698 458.083 270.698 455.511C270.698 452.939 272.785 450.851 275.357 450.851C277.929 450.851 280.017 452.939 280.017 455.511Z" fill="url(#paint32_radial_499_23796)"/>
<path d="M250.099 455.511C250.099 458.083 248.011 460.17 245.439 460.17C242.867 460.17 240.779 458.083 240.779 455.511C240.779 452.939 242.867 450.851 245.439 450.851C248.011 450.851 250.099 452.939 250.099 455.511Z" fill="url(#paint33_radial_499_23796)"/>
<path d="M370.326 455.511C370.326 458.083 368.238 460.17 365.666 460.17C363.094 460.17 361.007 458.083 361.007 455.511C361.007 452.939 363.094 450.851 365.666 450.851C368.238 450.851 370.326 452.939 370.326 455.511Z" fill="url(#paint34_radial_499_23796)"/>
<path d="M340.408 455.511C340.408 458.083 338.32 460.17 335.748 460.17C333.176 460.17 331.088 458.083 331.088 455.511C331.088 452.939 333.176 450.851 335.748 450.851C338.32 450.851 340.408 452.939 340.408 455.511Z" fill="url(#paint35_radial_499_23796)"/>
<path d="M460.635 455.511C460.635 458.083 458.548 460.17 455.976 460.17C453.404 460.17 451.316 458.083 451.316 455.511C451.316 452.939 453.404 450.851 455.976 450.851C458.548 450.851 460.635 452.939 460.635 455.511Z" fill="url(#paint36_radial_499_23796)"/>
<path d="M430.717 455.511C430.717 458.083 428.629 460.17 426.057 460.17C423.485 460.17 421.397 458.083 421.397 455.511C421.397 452.939 423.485 450.851 426.057 450.851C428.629 450.851 430.717 452.939 430.717 455.511Z" fill="url(#paint37_radial_499_23796)"/>
<defs>
<radialGradient id="paint0_radial_499_23796" cx="0" cy="0" r="1" gradientUnits="userSpaceOnUse" gradientTransform="translate(77.6979 4.92335) scale(4.66378 4.66377)">
<stop stop-color="#FFFFB0"/>
<stop offset="0.1519" stop-color="#FFF591"/>
<stop offset="0.4819" stop-color="#FFDD42"/>
<stop offset="0.743" stop-color="#FFC900"/>
<stop offset="1" stop-color="#FFCE00"/>
</radialGradient>
<radialGradient id="paint1_radial_499_23796" cx="0" cy="0" r="1" gradientUnits="userSpaceOnUse" gradientTransform="translate(47.7856 4.92335) scale(4.66378 4.66377)">
<stop stop-color="#FFFFB0"/>
<stop offset="0.1519" stop-color="#FFF591"/>
<stop offset="0.4819" stop-color="#FFDD42"/>
<stop offset="0.743" stop-color="#FFC900"/>
<stop offset="1" stop-color="#FFCE00"/>
</radialGradient>
<radialGradient id="paint2_radial_499_23796" cx="0" cy="0" r="1" gradientUnits="userSpaceOnUse" gradientTransform="translate(178.007 4.92335) scale(4.66378 4.66377)">
<stop stop-color="#FFFFB0"/>
<stop offset="0.1519" stop-color="#FFF591"/>
<stop offset="0.4819" stop-color="#FFDD42"/>
<stop offset="0.743" stop-color="#FFC900"/>
<stop offset="1" stop-color="#FFCE00"/>
</radialGradient>
<radialGradient id="paint3_radial_499_23796" cx="0" cy="0" r="1" gradientUnits="userSpaceOnUse" gradientTransform="translate(148.095 4.92335) scale(4.66378 4.66377)">
<stop stop-color="#FFFFB0"/>
<stop offset="0.1519" stop-color="#FFF591"/>
<stop offset="0.4819" stop-color="#FFDD42"/>
<stop offset="0.743" stop-color="#FFC900"/>
<stop offset="1" stop-color="#FFCE00"/>
</radialGradient>
<radialGradient id="paint4_radial_499_23796" cx="0" cy="0" r="1" gradientUnits="userSpaceOnUse" gradientTransform="translate(268.316 4.92335) scale(4.66378 4.66377)">
<stop stop-color="#FFFFB0"/>
<stop offset="0.1519" stop-color="#FFF591"/>
<stop offset="0.4819" stop-color="#FFDD42"/>
<stop offset="0.743" stop-color="#FFC900"/>
<stop offset="1" stop-color="#FFCE00"/>
</radialGradient>
<radialGradient id="paint5_radial_499_23796" cx="0" cy="0" r="1" gradientUnits="userSpaceOnUse" gradientTransform="translate(238.404 4.92335) scale(4.66378 4.66377)">
<stop stop-color="#FFFFB0"/>
<stop offset="0.1519" stop-color="#FFF591"/>
<stop offset="0.4819" stop-color="#FFDD42"/>
<stop offset="0.743" stop-color="#FFC900"/>
<stop offset="1" stop-color="#FFCE00"/>
</radialGradient>
<radialGradient id="paint6_radial_499_23796" cx="0" cy="0" r="1" gradientUnits="userSpaceOnUse" gradientTransform="translate(358.625 4.92335) scale(4.66378 4.66377)">
<stop stop-color="#FFFFB0"/>
<stop offset="0.1519" stop-color="#FFF591"/>
<stop offset="0.4819" stop-color="#FFDD42"/>
<stop offset="0.743" stop-color="#FFC900"/>
<stop offset="1" stop-color="#FFCE00"/>
</radialGradient>
<radialGradient id="paint7_radial_499_23796" cx="0" cy="0" r="1" gradientUnits="userSpaceOnUse" gradientTransform="translate(328.713 4.92335) scale(4.66378 4.66377)">
<stop stop-color="#FFFFB0"/>
<stop offset="0.1519" stop-color="#FFF591"/>
<stop offset="0.4819" stop-color="#FFDD42"/>
<stop offset="0.743" stop-color="#FFC900"/>
<stop offset="1" stop-color="#FFCE00"/>
</radialGradient>
<radialGradient id="paint8_radial_499_23796" cx="0" cy="0" r="1" gradientUnits="userSpaceOnUse" gradientTransform="translate(458.934 4.92335) scale(4.66378 4.66377)">
<stop stop-color="#FFFFB0"/>
<stop offset="0.1519" stop-color="#FFF591"/>
<stop offset="0.4819" stop-color="#FFDD42"/>
<stop offset="0.743" stop-color="#FFC900"/>
<stop offset="1" stop-color="#FFCE00"/>
</radialGradient>
<radialGradient id="paint9_radial_499_23796" cx="0" cy="0" r="1" gradientUnits="userSpaceOnUse" gradientTransform="translate(429.022 4.92335) scale(4.66378 4.66377)">
<stop stop-color="#FFFFB0"/>
<stop offset="0.1519" stop-color="#FFF591"/>
<stop offset="0.4819" stop-color="#FFDD42"/>
<stop offset="0.743" stop-color="#FFC900"/>
<stop offset="1" stop-color="#FFCE00"/>
</radialGradient>
<radialGradient id="paint10_radial_499_23796" cx="0" cy="0" r="1" gradientUnits="userSpaceOnUse" gradientTransform="translate(4.77099 150.204) rotate(90) scale(4.66378 4.66377)">
<stop stop-color="#FFFFB0"/>
<stop offset="0.1519" stop-color="#FFF591"/>
<stop offset="0.4819" stop-color="#FFDD42"/>
<stop offset="0.743" stop-color="#FFC900"/>
<stop offset="1" stop-color="#FFCE00"/>
</radialGradient>
<radialGradient id="paint11_radial_499_23796" cx="0" cy="0" r="1" gradientUnits="userSpaceOnUse" gradientTransform="translate(4.77099 120.291) rotate(90) scale(4.66378 4.66377)">
<stop stop-color="#FFFFB0"/>
<stop offset="0.1519" stop-color="#FFF591"/>
<stop offset="0.4819" stop-color="#FFDD42"/>
<stop offset="0.743" stop-color="#FFC900"/>
<stop offset="1" stop-color="#FFCE00"/>
</radialGradient>
<radialGradient id="paint12_radial_499_23796" cx="0" cy="0" r="1" gradientUnits="userSpaceOnUse" gradientTransform="translate(502.915 150.204) rotate(90) scale(4.66378 4.66377)">
<stop stop-color="#FFFFB0"/>
<stop offset="0.1519" stop-color="#FFF591"/>
<stop offset="0.4819" stop-color="#FFDD42"/>
<stop offset="0.743" stop-color="#FFC900"/>
<stop offset="1" stop-color="#FFCE00"/>
</radialGradient>
<radialGradient id="paint13_radial_499_23796" cx="0" cy="0" r="1" gradientUnits="userSpaceOnUse" gradientTransform="translate(502.915 120.291) rotate(90) scale(4.66378 4.66377)">
<stop stop-color="#FFFFB0"/>
<stop offset="0.1519" stop-color="#FFF591"/>
<stop offset="0.4819" stop-color="#FFDD42"/>
<stop offset="0.743" stop-color="#FFC900"/>
<stop offset="1" stop-color="#FFCE00"/>
</radialGradient>
<radialGradient id="paint14_radial_499_23796" cx="0" cy="0" r="1" gradientUnits="userSpaceOnUse" gradientTransform="translate(4.77245 60.587) rotate(90) scale(4.66378 4.66377)">
<stop stop-color="#FFFFB0"/>
<stop offset="0.1519" stop-color="#FFF591"/>
<stop offset="0.4819" stop-color="#FFDD42"/>
<stop offset="0.743" stop-color="#FFC900"/>
<stop offset="1" stop-color="#FFCE00"/>
</radialGradient>
<radialGradient id="paint15_radial_499_23796" cx="0" cy="0" r="1" gradientUnits="userSpaceOnUse" gradientTransform="translate(502.915 60.587) rotate(90) scale(4.66378 4.66377)">
<stop stop-color="#FFFFB0"/>
<stop offset="0.1519" stop-color="#FFF591"/>
<stop offset="0.4819" stop-color="#FFDD42"/>
<stop offset="0.743" stop-color="#FFC900"/>
<stop offset="1" stop-color="#FFCE00"/>
</radialGradient>
<radialGradient id="paint16_radial_499_23796" cx="0" cy="0" r="1" gradientUnits="userSpaceOnUse" gradientTransform="translate(4.80614 241.667) rotate(90) scale(4.66378 4.66377)">
<stop stop-color="#FFFFB0"/>
<stop offset="0.1519" stop-color="#FFF591"/>
<stop offset="0.4819" stop-color="#FFDD42"/>
<stop offset="0.743" stop-color="#FFC900"/>
<stop offset="1" stop-color="#FFCE00"/>
</radialGradient>
<radialGradient id="paint17_radial_499_23796" cx="0" cy="0" r="1" gradientUnits="userSpaceOnUse" gradientTransform="translate(4.80614 211.754) rotate(90) scale(4.66378 4.66377)">
<stop stop-color="#FFFFB0"/>
<stop offset="0.1519" stop-color="#FFF591"/>
<stop offset="0.4819" stop-color="#FFDD42"/>
<stop offset="0.743" stop-color="#FFC900"/>
<stop offset="1" stop-color="#FFCE00"/>
</radialGradient>
<radialGradient id="paint18_radial_499_23796" cx="0" cy="0" r="1" gradientUnits="userSpaceOnUse" gradientTransform="translate(502.949 241.667) rotate(90) scale(4.66378 4.66377)">
<stop stop-color="#FFFFB0"/>
<stop offset="0.1519" stop-color="#FFF591"/>
<stop offset="0.4819" stop-color="#FFDD42"/>
<stop offset="0.743" stop-color="#FFC900"/>
<stop offset="1" stop-color="#FFCE00"/>
</radialGradient>
<radialGradient id="paint19_radial_499_23796" cx="0" cy="0" r="1" gradientUnits="userSpaceOnUse" gradientTransform="translate(502.949 211.754) rotate(90) scale(4.66378 4.66377)">
<stop stop-color="#FFFFB0"/>
<stop offset="0.1519" stop-color="#FFF591"/>
<stop offset="0.4819" stop-color="#FFDD42"/>
<stop offset="0.743" stop-color="#FFC900"/>
<stop offset="1" stop-color="#FFCE00"/>
</radialGradient>
<radialGradient id="paint20_radial_499_23796" cx="0" cy="0" r="1" gradientUnits="userSpaceOnUse" gradientTransform="translate(4.84032 333.129) rotate(90) scale(4.66378 4.66377)">
<stop stop-color="#FFFFB0"/>
<stop offset="0.1519" stop-color="#FFF591"/>
<stop offset="0.4819" stop-color="#FFDD42"/>
<stop offset="0.743" stop-color="#FFC900"/>
<stop offset="1" stop-color="#FFCE00"/>
</radialGradient>
<radialGradient id="paint21_radial_499_23796" cx="0" cy="0" r="1" gradientUnits="userSpaceOnUse" gradientTransform="translate(4.84032 303.217) rotate(90) scale(4.66378 4.66377)">
<stop stop-color="#FFFFB0"/>
<stop offset="0.1519" stop-color="#FFF591"/>
<stop offset="0.4819" stop-color="#FFDD42"/>
<stop offset="0.743" stop-color="#FFC900"/>
<stop offset="1" stop-color="#FFCE00"/>
</radialGradient>
<radialGradient id="paint22_radial_499_23796" cx="0" cy="0" r="1" gradientUnits="userSpaceOnUse" gradientTransform="translate(4.84032 421.567) rotate(90) scale(4.66378 4.66377)">
<stop stop-color="#FFFFB0"/>
<stop offset="0.1519" stop-color="#FFF591"/>
<stop offset="0.4819" stop-color="#FFDD42"/>
<stop offset="0.743" stop-color="#FFC900"/>
<stop offset="1" stop-color="#FFCE00"/>
</radialGradient>
<radialGradient id="paint23_radial_499_23796" cx="0" cy="0" r="1" gradientUnits="userSpaceOnUse" gradientTransform="translate(4.84032 391.655) rotate(90) scale(4.66378 4.66377)">
<stop stop-color="#FFFFB0"/>
<stop offset="0.1519" stop-color="#FFF591"/>
<stop offset="0.4819" stop-color="#FFDD42"/>
<stop offset="0.743" stop-color="#FFC900"/>
<stop offset="1" stop-color="#FFCE00"/>
</radialGradient>
<radialGradient id="paint24_radial_499_23796" cx="0" cy="0" r="1" gradientUnits="userSpaceOnUse" gradientTransform="translate(502.984 333.129) rotate(90) scale(4.66378 4.66377)">
<stop stop-color="#FFFFB0"/>
<stop offset="0.1519" stop-color="#FFF591"/>
<stop offset="0.4819" stop-color="#FFDD42"/>
<stop offset="0.743" stop-color="#FFC900"/>
<stop offset="1" stop-color="#FFCE00"/>
</radialGradient>
<radialGradient id="paint25_radial_499_23796" cx="0" cy="0" r="1" gradientUnits="userSpaceOnUse" gradientTransform="translate(502.984 303.217) rotate(90) scale(4.66378 4.66377)">
<stop stop-color="#FFFFB0"/>
<stop offset="0.1519" stop-color="#FFF591"/>
<stop offset="0.4819" stop-color="#FFDD42"/>
<stop offset="0.743" stop-color="#FFC900"/>
<stop offset="1" stop-color="#FFCE00"/>
</radialGradient>
<radialGradient id="paint26_radial_499_23796" cx="0" cy="0" r="1" gradientUnits="userSpaceOnUse" gradientTransform="translate(502.984 421.567) rotate(90) scale(4.66378 4.66377)">
<stop stop-color="#FFFFB0"/>
<stop offset="0.1519" stop-color="#FFF591"/>
<stop offset="0.4819" stop-color="#FFDD42"/>
<stop offset="0.743" stop-color="#FFC900"/>
<stop offset="1" stop-color="#FFCE00"/>
</radialGradient>
<radialGradient id="paint27_radial_499_23796" cx="0" cy="0" r="1" gradientUnits="userSpaceOnUse" gradientTransform="translate(502.984 391.655) rotate(90) scale(4.66378 4.66377)">
<stop stop-color="#FFFFB0"/>
<stop offset="0.1519" stop-color="#FFF591"/>
<stop offset="0.4819" stop-color="#FFDD42"/>
<stop offset="0.743" stop-color="#FFC900"/>
<stop offset="1" stop-color="#FFCE00"/>
</radialGradient>
<radialGradient id="paint28_radial_499_23796" cx="0" cy="0" r="1" gradientUnits="userSpaceOnUse" gradientTransform="translate(94.7306 455.512) scale(4.66378 4.66377)">
<stop stop-color="#FFFFB0"/>
<stop offset="0.1519" stop-color="#FFF591"/>
<stop offset="0.4819" stop-color="#FFDD42"/>
<stop offset="0.743" stop-color="#FFC900"/>
<stop offset="1" stop-color="#FFCE00"/>
</radialGradient>
<radialGradient id="paint29_radial_499_23796" cx="0" cy="0" r="1" gradientUnits="userSpaceOnUse" gradientTransform="translate(64.8183 455.512) scale(4.66378 4.66377)">
<stop stop-color="#FFFFB0"/>
<stop offset="0.1519" stop-color="#FFF591"/>
<stop offset="0.4819" stop-color="#FFDD42"/>
<stop offset="0.743" stop-color="#FFC900"/>
<stop offset="1" stop-color="#FFCE00"/>
</radialGradient>
<radialGradient id="paint30_radial_499_23796" cx="0" cy="0" r="1" gradientUnits="userSpaceOnUse" gradientTransform="translate(185.039 455.512) scale(4.66378 4.66377)">
<stop stop-color="#FFFFB0"/>
<stop offset="0.1519" stop-color="#FFF591"/>
<stop offset="0.4819" stop-color="#FFDD42"/>
<stop offset="0.743" stop-color="#FFC900"/>
<stop offset="1" stop-color="#FFCE00"/>
</radialGradient>
<radialGradient id="paint31_radial_499_23796" cx="0" cy="0" r="1" gradientUnits="userSpaceOnUse" gradientTransform="translate(155.127 455.512) scale(4.66378 4.66377)">
<stop stop-color="#FFFFB0"/>
<stop offset="0.1519" stop-color="#FFF591"/>
<stop offset="0.4819" stop-color="#FFDD42"/>
<stop offset="0.743" stop-color="#FFC900"/>
<stop offset="1" stop-color="#FFCE00"/>
</radialGradient>
<radialGradient id="paint32_radial_499_23796" cx="0" cy="0" r="1" gradientUnits="userSpaceOnUse" gradientTransform="translate(275.349 455.512) scale(4.66378 4.66377)">
<stop stop-color="#FFFFB0"/>
<stop offset="0.1519" stop-color="#FFF591"/>
<stop offset="0.4819" stop-color="#FFDD42"/>
<stop offset="0.743" stop-color="#FFC900"/>
<stop offset="1" stop-color="#FFCE00"/>
</radialGradient>
<radialGradient id="paint33_radial_499_23796" cx="0" cy="0" r="1" gradientUnits="userSpaceOnUse" gradientTransform="translate(245.437 455.512) scale(4.66378 4.66377)">
<stop stop-color="#FFFFB0"/>
<stop offset="0.1519" stop-color="#FFF591"/>
<stop offset="0.4819" stop-color="#FFDD42"/>
<stop offset="0.743" stop-color="#FFC900"/>
<stop offset="1" stop-color="#FFCE00"/>
</radialGradient>
<radialGradient id="paint34_radial_499_23796" cx="0" cy="0" r="1" gradientUnits="userSpaceOnUse" gradientTransform="translate(365.658 455.512) scale(4.66378 4.66377)">
<stop stop-color="#FFFFB0"/>
<stop offset="0.1519" stop-color="#FFF591"/>
<stop offset="0.4819" stop-color="#FFDD42"/>
<stop offset="0.743" stop-color="#FFC900"/>
<stop offset="1" stop-color="#FFCE00"/>
</radialGradient>
<radialGradient id="paint35_radial_499_23796" cx="0" cy="0" r="1" gradientUnits="userSpaceOnUse" gradientTransform="translate(335.746 455.512) scale(4.66378 4.66377)">
<stop stop-color="#FFFFB0"/>
<stop offset="0.1519" stop-color="#FFF591"/>
<stop offset="0.4819" stop-color="#FFDD42"/>
<stop offset="0.743" stop-color="#FFC900"/>
<stop offset="1" stop-color="#FFCE00"/>
</radialGradient>
<radialGradient id="paint36_radial_499_23796" cx="0" cy="0" r="1" gradientUnits="userSpaceOnUse" gradientTransform="translate(455.967 455.512) scale(4.66378 4.66377)">
<stop stop-color="#FFFFB0"/>
<stop offset="0.1519" stop-color="#FFF591"/>
<stop offset="0.4819" stop-color="#FFDD42"/>
<stop offset="0.743" stop-color="#FFC900"/>
<stop offset="1" stop-color="#FFCE00"/>
</radialGradient>
<radialGradient id="paint37_radial_499_23796" cx="0" cy="0" r="1" gradientUnits="userSpaceOnUse" gradientTransform="translate(426.055 455.512) scale(4.66378 4.66377)">
<stop stop-color="#FFFFB0"/>
<stop offset="0.1519" stop-color="#FFF591"/>
<stop offset="0.4819" stop-color="#FFDD42"/>
<stop offset="0.743" stop-color="#FFC900"/>
<stop offset="1" stop-color="#FFCE00"/>
</radialGradient>
</defs>
</svg>
