<svg width="1027" height="44" fill="none" xmlns="http://www.w3.org/2000/svg"><rect x="13.099" y="2.34" width="1002" height="39" rx="8" stroke="url(#a)" stroke-width="4"/><path d="M11.22 23.261c-2.716-.013-4.865 1.44-6.126 3.883.343.215.869.558.869.558s-.596-.013-1.114-.04c-.385.881-.665 1.87-.819 2.954 4.047.404 7.561-.397 9.326-4.212-.441-.458-1.155-1.023-2.136-3.143z" fill="url(#b)"/><path opacity=".5" d="M12.088 24.876c.547.861.974 1.218 1.275 1.527-1.771 3.816-5.286 4.617-9.333 4.213 2.276-.929 7.33-4.434 8.058-5.74z" fill="url(#c)"/><path opacity=".25" d="M6.292 25.4c1.106-1.439 3.557-2.152 4.929-2.146.315.687.609 1.205.868 1.615-.693 1.03-2.759 2.544-3.263 2.88 1.226-1.56-.672-3.781-2.534-2.348z" fill="#888"/><path d="M9.75 27.056c-1.848 1.615-3.178 2.402-4.704 3.069 1.463-1.165 2.366-1.79 4.705-3.069z" fill="#BFBFBF"/><path opacity=".3" d="M6.418 29.344c-.61-.29-1.38-.713-1.849-.976a8.59 8.59 0 0 1 .196-.504l2.248 1.117c-.203.12-.4.249-.595.363zM7.755 28.49l-2.541-1.568c.182-.33.378-.64.588-.929l3.494 1.413c-.49.37-1.016.734-1.54 1.083zM9.919 26.935c-.05 0-.098.007-.14.007-.98-.498-2.346-1.245-3.284-1.763.14-.141.28-.27.427-.39l3.438 1.803c-.14.114-.287.229-.441.343z" fill="#D0D0D0"/><path opacity=".2" d="M12.089 24.876c.546.861.973 1.218 1.274 1.527-.33.707-1.127 2.087-2.08 2.712.813-1.325.197-3.162-1.008-2.442l.007-.007c.883-.72 1.569-1.373 1.807-1.79z" fill="#888"/><path d="M11.22 20.058c-2.716.014-4.865-1.44-6.126-3.882.343-.215.869-.559.869-.559s-.596.014-1.114.04a11.291 11.291 0 0 1-.819-2.953c4.047-.404 7.561.397 9.326 4.212-.441.45-1.155 1.023-2.136 3.142z" fill="url(#d)"/><path opacity=".5" d="M12.088 18.443c.547-.86.974-1.218 1.275-1.527-1.771-3.815-5.286-4.616-9.333-4.212 2.276.928 7.33 4.434 8.058 5.74z" fill="url(#e)"/><path opacity=".25" d="M6.292 17.919c1.106 1.44 3.557 2.153 4.929 2.146.315-.686.609-1.204.868-1.615-.693-1.03-2.759-2.543-3.263-2.88 1.226 1.561-.672 3.782-2.534 2.349z" fill="#888"/><path d="M9.75 16.263c-1.848-1.615-3.178-2.402-4.704-3.068 1.463 1.164 2.366 1.79 4.705 3.068z" fill="#BFBFBF"/><path opacity=".3" d="M6.418 13.976c-.602.289-1.38.713-1.849.975.063.168.126.337.196.505l2.248-1.117c-.203-.121-.4-.25-.595-.364zM7.755 14.83l-2.541 1.568c.182.33.378.64.588.928l3.494-1.413c-.49-.37-1.016-.733-1.54-1.083zM9.919 16.378c-.05 0-.098-.007-.14-.007a122.91 122.91 0 0 0-3.284 1.763c.14.141.28.27.427.39l3.438-1.803-.441-.343z" fill="#D0D0D0"/><path opacity=".2" d="M12.089 18.443c.546-.86.973-1.218 1.274-1.527-.33-.707-1.127-2.086-2.08-2.712.813 1.326.197 3.163-1.008 2.443l.007.007c.883.72 1.569 1.372 1.807 1.79z" fill="#888"/><path d="M11.395 20.045C8.055 17.972 3.827 18.679.39 21.68c3.283 2.476 6.875 3.768 10.865 1.864-.098-.579-.357-1.386.14-3.5z" fill="url(#f)"/><path opacity=".5" d="M11.115 21.72c-.07.936.07 1.434.133 1.824-3.983 1.904-7.575.612-10.858-1.864 2.59.532 9.255.626 10.725.04z" fill="url(#g)"/><path opacity=".25" d="M7.531 18.867a7.75 7.75 0 0 1 3.865 1.178c-.161.68-.245 1.224-.273 1.675-1.267.397-4.047.418-4.705.397 2.08-.511 2.36-2.994 1.113-3.25z" fill="#888"/><path d="M7.67 22.097c-2.744.27-4.36.121-6.083-.229 1.883-.013 3.29.068 6.084.23z" fill="#D3D3D3"/><path opacity=".3" d="M3.953 21.976c-.252-.007-.497-.02-.707-.027-.4-.585-.938-1.642-.945-1.655.147-.088.294-.169.448-.25l1.204 1.932zM3.12 19.856c.434-.208.875-.39 1.316-.538l2.157 2.745-2.087-.067-1.386-2.14z" fill="#D0D0D0"/><path opacity=".2" d="M7.566 22.117h-.56c1.778-.087 3.563-.188 4.11-.403-.07.935.07 1.433.133 1.823-.61.29-1.45.707-3.242.895 2.268-1.238.77-2.315-.441-2.315z" fill="#888"/><path d="m12.797 14.853 6.965 6.35-6.965 6.358-6.965-6.357 6.965-6.351z" fill="url(#h)"/><path d="M14.973 27.558h-2.176l6.965-6.354-4.789 6.354z" fill="url(#i)"/><path d="M14.973 14.85h-2.176l6.965 6.354-4.789-6.354z" fill="url(#j)"/><path d="m8.355 23.555-2.542-2.28 4.789-4.294-4.178 4.327 1.931 2.247z" fill="#B9B9B9"/><path d="M12.797 17.26s3.01 2.846 4.353 3.944c-1.343 1.098-2.757 2.384-4.353 3.944-1.596-1.56-4.354-3.944-4.354-3.944l4.354-3.944z" fill="#7C7C7C"/><path d="M8.443 21.204h.436l3.9-3.506v-.438l-4.336 3.944z" fill="url(#k)"/><path d="M12.797 25.148v-.438l3.918-3.506h.435l-4.353 3.944z" fill="#B9B9B9"/><path d="M12.797 17.698s2.711 2.53 3.918 3.506a58.36 58.36 0 0 0-3.918 3.506c-1.439-1.39-3.918-3.506-3.918-3.506l3.918-3.506z" fill="url(#l)"/><path opacity=".3" d="m16.715 21.204-3.918 3.506-.006-2.202s-.026-1.751 0-2.8c.032-1.26.006-2.01.006-2.01l3.918 3.506z" fill="#4F0"/><path opacity=".5" d="M12.797 24.71v-2.2l.87-1.306h3.048l-3.918 3.506z" fill="#115600"/><path d="M8.879 21.204h2.612l1.306-1.315v-2.191l-3.918 3.506z" fill="url(#m)" style="mix-blend-mode:overlay"/><path d="M11.491 21.204v-.439l.218-.438.435-.438.635-2.031.018 2.031-1.306 1.315z" fill="#EEE"/><path d="M14.103 21.204a1.31 1.31 0 0 0-1.306-1.315 1.31 1.31 0 0 0-1.306 1.315 1.31 1.31 0 0 0 1.306 1.315 1.31 1.31 0 0 0 1.306-1.315z" fill="url(#n)"/><path d="M1015.79 23.261c2.72-.013 4.87 1.44 6.13 3.883-.35.215-.87.558-.87.558s.59-.013 1.11-.04c.39.881.67 1.87.82 2.954-4.05.404-7.56-.397-9.32-4.212.44-.458 1.15-1.023 2.13-3.143z" fill="url(#o)"/><path opacity=".5" d="M1014.92 24.876c-.54.861-.97 1.218-1.27 1.527 1.77 3.816 5.28 4.617 9.33 4.213-2.27-.929-7.33-4.434-8.06-5.74z" fill="url(#p)"/><path opacity=".25" d="M1020.72 25.4c-1.11-1.439-3.56-2.152-4.93-2.146-.32.687-.61 1.205-.87 1.615.69 1.03 2.76 2.544 3.26 2.88-1.22-1.56.68-3.781 2.54-2.348z" fill="#888"/><path d="M1017.26 27.056c1.85 1.615 3.18 2.402 4.7 3.069-1.46-1.165-2.36-1.79-4.7-3.069z" fill="#BFBFBF"/><path opacity=".3" d="M1020.59 29.344c.61-.29 1.38-.713 1.85-.976a6.887 6.887 0 0 0-.19-.504L1020 28.98c.2.12.4.249.59.363zM1019.26 28.49l2.54-1.568c-.19-.33-.38-.64-.59-.929l-3.49 1.413c.49.37 1.01.734 1.54 1.083zM1017.09 26.935c.05 0 .1.007.14.007.98-.498 2.35-1.245 3.29-1.763-.14-.141-.28-.27-.43-.39l-3.44 1.803c.14.114.29.229.44.343z" fill="#D0D0D0"/><path opacity=".2" d="M1014.92 24.876c-.54.861-.97 1.218-1.27 1.527.33.707 1.13 2.087 2.08 2.712-.81-1.325-.2-3.162 1.01-2.442l-.01-.007c-.88-.72-1.57-1.373-1.81-1.79z" fill="#888"/><path d="M1015.79 20.058c2.72.014 4.87-1.44 6.13-3.882-.35-.215-.87-.559-.87-.559s.59.014 1.11.04c.39-.874.67-1.87.82-2.953-4.05-.404-7.56.397-9.32 4.212.44.45 1.15 1.023 2.13 3.142z" fill="url(#q)"/><path opacity=".5" d="M1014.92 18.443c-.54-.86-.97-1.218-1.27-1.527 1.77-3.815 5.28-4.616 9.33-4.212-2.27.928-7.33 4.434-8.06 5.74z" fill="url(#r)"/><path opacity=".25" d="M1020.72 17.919c-1.11 1.44-3.56 2.153-4.93 2.146a14.22 14.22 0 0 0-.87-1.615c.69-1.03 2.76-2.543 3.26-2.88-1.22 1.561.68 3.782 2.54 2.349z" fill="#888"/><path d="M1017.26 16.263c1.85-1.615 3.18-2.402 4.7-3.068-1.46 1.164-2.36 1.79-4.7 3.068z" fill="#BFBFBF"/><path opacity=".3" d="M1020.59 13.976c.61.289 1.38.713 1.85.975-.06.168-.12.337-.19.505l-2.25-1.117c.2-.121.4-.25.59-.364zM1019.26 14.83l2.54 1.568c-.19.33-.38.64-.59.928l-3.49-1.413c.49-.37 1.01-.733 1.54-1.083zM1017.09 16.378c.05 0 .1-.007.14-.007.98.498 2.35 1.245 3.29 1.763-.14.141-.28.27-.43.39l-3.44-1.803c.14-.108.29-.222.44-.343z" fill="#D0D0D0"/><path opacity=".2" d="M1014.92 18.443c-.54-.86-.97-1.218-1.27-1.527.33-.707 1.13-2.086 2.08-2.712-.81 1.326-.2 3.163 1.01 2.443l-.01.007c-.88.72-1.57 1.372-1.81 1.79z" fill="#888"/><path d="M1015.62 20.045c3.33-2.073 7.56-1.366 11 1.635-3.28 2.476-6.87 3.768-10.86 1.864.09-.579.35-1.386-.14-3.5z" fill="url(#s)"/><path opacity=".5" d="M1015.9 21.72c.07.936-.07 1.434-.14 1.824 3.99 1.904 7.58.612 10.86-1.864-2.59.532-9.25.626-10.72.04z" fill="url(#t)"/><path opacity=".25" d="M1019.48 18.867c-1.35.047-2.67.431-3.87 1.178.17.68.25 1.224.28 1.675 1.27.397 4.04.418 4.7.397-2.08-.511-2.36-2.994-1.11-3.25z" fill="#888"/><path d="M1019.34 22.097c2.74.27 4.36.121 6.08-.229-1.88-.013-3.29.068-6.08.23z" fill="#D3D3D3"/><path opacity=".3" d="M1023.06 21.976c.25-.007.49-.02.7-.027.4-.585.94-1.642.95-1.655a8.172 8.172 0 0 0-.45-.25l-1.2 1.932zM1023.89 19.856c-.43-.208-.87-.39-1.32-.538l-2.15 2.745 2.08-.067 1.39-2.14z" fill="#D0D0D0"/><path opacity=".2" d="M1019.44 22.117h.56c-1.77-.087-3.56-.188-4.1-.403.07.935-.07 1.433-.14 1.823.61.29 1.45.707 3.24.895-2.26-1.238-.77-2.315.44-2.315z" fill="#888"/><path d="m1015.11 14.853-6.97 6.35 6.97 6.358 6.96-6.357-6.96-6.351z" fill="url(#u)"/><path d="M1012.93 27.558h2.18l-6.97-6.354 4.79 6.354z" fill="url(#v)"/><path d="M1012.93 14.85h2.18l-6.97 6.354 4.79-6.354z" fill="url(#w)"/><path d="m1019.55 23.555 2.54-2.28-4.79-4.294 4.18 4.327-1.93 2.247z" fill="#B9B9B9"/><path d="M1015.11 17.26s-3.01 2.846-4.35 3.944c1.34 1.098 2.75 2.384 4.35 3.944 1.6-1.56 4.35-3.944 4.35-3.944l-4.35-3.944z" fill="#7C7C7C"/><path d="M1019.46 21.204h-.43l-3.9-3.506v-.438l4.33 3.944z" fill="url(#x)"/><path d="M1015.11 25.148v-.438l-3.92-3.506h-.43l4.35 3.944z" fill="#B9B9B9"/><path d="M1015.13 17.698s-2.71 2.53-3.92 3.506c1.21.976 2.49 2.116 3.92 3.506 1.44-1.39 3.92-3.506 3.92-3.506l-3.92-3.506z" fill="url(#y)"/><path opacity=".3" d="m1011.21 21.204 3.92 3.506v-2.202s.03-1.751 0-2.8c-.03-1.26 0-2.01 0-2.01l-3.92 3.506z" fill="#4F0"/><path opacity=".5" d="M1015.13 24.71v-2.2l-.87-1.306h-3.05l3.92 3.506z" fill="#115600"/><path d="M1019.05 21.204h-2.62l-1.3-1.315v-2.191l3.92 3.506z" fill="url(#z)" style="mix-blend-mode:overlay"/><path d="M1016.43 21.204v-.439l-.21-.438-.44-.438-.63-2.031-.02 2.031 1.3 1.315z" fill="#EEE"/><path d="M1013.82 21.204c0-.726.59-1.315 1.31-1.315.72 0 1.3.589 1.3 1.315s-.58 1.315-1.3 1.315c-.72 0-1.31-.589-1.31-1.315z" fill="url(#A)"/><defs><linearGradient id="b" x1="4.728" y1="26.738" x2="15.323" y2="26.529" gradientUnits="userSpaceOnUse"><stop offset=".014" stop-color="#A9A9A9"/><stop offset="1" stop-color="#ACACAC"/></linearGradient><linearGradient id="a" x1="514.099" y1=".34" x2="514.099" y2="43.34" gradientUnits="userSpaceOnUse"><stop stop-color="#A6A6A6"/><stop offset="1" stop-color="#7C7C7C"/></linearGradient><linearGradient id="d" x1="4.728" y1="16.58" x2="15.323" y2="16.79" gradientUnits="userSpaceOnUse"><stop offset=".014" stop-color="#A9A9A9"/><stop offset="1" stop-color="#ACACAC"/></linearGradient><linearGradient id="e" x1="6.235" y1="11.374" x2="10.989" y2="17.419" gradientUnits="userSpaceOnUse"><stop stop-color="#B3B3B3"/><stop offset="1" stop-color="#666"/></linearGradient><linearGradient id="f" x1="3.463" y1="19.086" x2="11.998" y2="25.852" gradientUnits="userSpaceOnUse"><stop offset=".014" stop-color="#A9A9A9"/><stop offset="1" stop-color="#ACACAC"/></linearGradient><linearGradient id="g" x1="1.446" y1="23.938" x2="9.371" y2="21.484" gradientUnits="userSpaceOnUse"><stop stop-color="#B3B3B3"/><stop offset="1" stop-color="#666"/></linearGradient><linearGradient id="h" x1="6.578" y1="21.143" x2="113.777" y2="21.143" gradientUnits="userSpaceOnUse"><stop offset=".014" stop-color="#8F9496"/><stop offset="1" stop-color="#969696"/></linearGradient><linearGradient id="i" x1="16.278" y1="21.206" x2="16.278" y2="27.342" gradientUnits="userSpaceOnUse"><stop offset=".064" stop-color="#7C7C7C"/><stop offset="1" stop-color="#5C5C5C"/></linearGradient><linearGradient id="j" x1="16.279" y1="14.631" x2="16.279" y2="21.204" gradientUnits="userSpaceOnUse"><stop stop-color="#929394"/><stop offset="1" stop-color="#737373"/></linearGradient><linearGradient id="k" x1="8.895" y1="21.429" x2="11.574" y2="18.61" gradientUnits="userSpaceOnUse"><stop stop-color="#5C5C5C"/><stop offset=".936" stop-color="#7C7C7C"/></linearGradient><linearGradient id="m" x1="10.852" y1="21.303" x2="10.852" y2="17.808" gradientUnits="userSpaceOnUse"><stop stop-color="#383B3A"/><stop offset="1" stop-color="#D3D3D3"/></linearGradient><linearGradient id="c" x1="6.235" y1="31.944" x2="10.989" y2="25.9" gradientUnits="userSpaceOnUse"><stop stop-color="#B3B3B3"/><stop offset="1" stop-color="#666"/></linearGradient><linearGradient id="o" x1="1022.28" y1="26.738" x2="1011.69" y2="26.529" gradientUnits="userSpaceOnUse"><stop offset=".014" stop-color="#A9A9A9"/><stop offset="1" stop-color="#ACACAC"/></linearGradient><linearGradient id="p" x1="1020.78" y1="31.944" x2="1016.02" y2="25.9" gradientUnits="userSpaceOnUse"><stop stop-color="#B3B3B3"/><stop offset="1" stop-color="#666"/></linearGradient><linearGradient id="q" x1="1022.28" y1="16.58" x2="1011.69" y2="16.79" gradientUnits="userSpaceOnUse"><stop offset=".014" stop-color="#A9A9A9"/><stop offset="1" stop-color="#ACACAC"/></linearGradient><linearGradient id="r" x1="1020.78" y1="11.374" x2="1016.02" y2="17.419" gradientUnits="userSpaceOnUse"><stop stop-color="#B3B3B3"/><stop offset="1" stop-color="#666"/></linearGradient><linearGradient id="s" x1="1023.55" y1="19.086" x2="1015.01" y2="25.852" gradientUnits="userSpaceOnUse"><stop offset=".014" stop-color="#A9A9A9"/><stop offset="1" stop-color="#ACACAC"/></linearGradient><linearGradient id="t" x1="1025.56" y1="23.938" x2="1017.64" y2="21.484" gradientUnits="userSpaceOnUse"><stop stop-color="#B3B3B3"/><stop offset="1" stop-color="#666"/></linearGradient><linearGradient id="u" x1="1021.33" y1="21.143" x2="914.129" y2="21.143" gradientUnits="userSpaceOnUse"><stop offset=".014" stop-color="#8F9496"/><stop offset="1" stop-color="#969696"/></linearGradient><linearGradient id="v" x1="1011.63" y1="21.206" x2="1011.63" y2="27.342" gradientUnits="userSpaceOnUse"><stop offset=".064" stop-color="#7C7C7C"/><stop offset="1" stop-color="#5C5C5C"/></linearGradient><linearGradient id="w" x1="1011.63" y1="14.631" x2="1011.63" y2="21.204" gradientUnits="userSpaceOnUse"><stop stop-color="#929394"/><stop offset="1" stop-color="#737373"/></linearGradient><linearGradient id="x" x1="1019.01" y1="21.429" x2="1016.33" y2="18.61" gradientUnits="userSpaceOnUse"><stop stop-color="#5C5C5C"/><stop offset=".936" stop-color="#7C7C7C"/></linearGradient><linearGradient id="z" x1="1017.07" y1="21.303" x2="1017.07" y2="17.808" gradientUnits="userSpaceOnUse"><stop stop-color="#383B3A"/><stop offset="1" stop-color="#D3D3D3"/></linearGradient><radialGradient id="l" cx="0" cy="0" r="1" gradientUnits="userSpaceOnUse" gradientTransform="matrix(0 -4.32194 5.28571 0 10.872 19.832)"><stop stop-color="#8DFF00"/><stop offset="1" stop-color="#67AC00"/></radialGradient><radialGradient id="y" cx="0" cy="0" r="1" gradientUnits="userSpaceOnUse" gradientTransform="matrix(0 -4.32194 5.28571 0 1017.05 19.832)"><stop stop-color="#8DFF00"/><stop offset="1" stop-color="#67AC00"/></radialGradient><radialGradient id="A" cx="0" cy="0" r="1" gradientUnits="userSpaceOnUse" gradientTransform="matrix(0 -2.05995 2.24318 0 1014.4 21.989)"><stop stop-color="#8DFF00"/><stop offset="1" stop-color="#097100"/></radialGradient><radialGradient id="n" cx="0" cy="0" r="1" gradientUnits="userSpaceOnUse" gradientTransform="matrix(0 -2.05995 2.24318 0 13.527 21.989)"><stop stop-color="#8DFF00"/><stop offset="1" stop-color="#097100"/></radialGradient></defs></svg>