<svg width="1023" height="47" fill="none" xmlns="http://www.w3.org/2000/svg"><g filter="url(#a)"><rect x="10.813" y="2.34" width="1002" height="39" rx="8" stroke="url(#b)" stroke-width="4" shape-rendering="crispEdges"/></g><path d="m7.844 14.853 7.011 6.35-7.011 6.358-7.012-6.357 7.012-6.351z" fill="#9C4100"/><path d="M10.034 27.558H7.843l7.011-6.354-4.82 6.354z" fill="#6E2D00"/><path d="M10.034 14.85H7.843l7.011 6.354-4.82-6.354z" fill="#BE5000"/><path d="m3.372 23.555-2.559-2.28 4.821-4.294-4.206 4.327 1.944 2.247z" fill="#FF6C02"/><path d="M7.843 17.26s3.03 2.846 4.382 3.944c-1.351 1.098-2.775 2.384-4.382 3.944-1.606-1.56-4.382-3.944-4.382-3.944l4.382-3.944z" fill="#6E2D00"/><path d="M3.46 21.204h.44l3.925-3.506v-.438l-4.364 3.944z" fill="#C15100"/><path d="M7.843 25.148v-.438l3.944-3.506h.438l-4.382 3.944z" fill="#FF6C02"/><path d="M7.843 17.698s2.73 2.53 3.944 3.506a58.617 58.617 0 0 0-3.944 3.506C6.395 23.32 3.9 21.204 3.9 21.204l3.944-3.506z" fill="url(#c)"/><path opacity=".3" d="M11.787 21.204 7.843 24.71l-.006-2.202s-.026-1.751 0-2.8c.032-1.26.006-2.01.006-2.01l3.944 3.506z" fill="#2E51FF"/><path opacity=".5" d="M7.844 24.71v-2.2l.876-1.306h3.068L7.844 24.71z" fill="#000D84"/><path d="M3.9 21.204h2.629l1.314-1.315v-2.191L3.9 21.204z" fill="url(#d)" style="mix-blend-mode:overlay"/><path d="M6.528 21.204v-.439l.22-.438.438-.438.639-2.031.018 2.031-1.315 1.315z" fill="#fff"/><path d="M9.158 21.204a1.315 1.315 0 1 0-2.63 0 1.315 1.315 0 0 0 2.63 0z" fill="url(#e)"/><path d="m1015.82 14.853-7.01 6.35 7.01 6.358 7.02-6.357-7.02-6.351z" fill="#9C4100"/><path d="M1013.63 27.558h2.2l-7.02-6.354 4.82 6.354z" fill="#6E2D00"/><path d="M1013.63 14.85h2.2l-7.02 6.354 4.82-6.354z" fill="#BE5000"/><path d="m1020.3 23.554 2.55-2.28-4.82-4.293 4.21 4.327-1.94 2.246z" fill="#FF6C02"/><path d="M1015.82 17.26s-3.03 2.846-4.38 3.944c1.35 1.098 2.78 2.384 4.38 3.944 1.61-1.56 4.39-3.944 4.39-3.944l-4.39-3.944z" fill="#6E2D00"/><path d="M1020.21 21.204h-.44l-3.93-3.506v-.438l4.37 3.944z" fill="#C15100"/><path d="M1015.83 25.148v-.439l-3.95-3.505h-.44l4.39 3.944z" fill="#FF6C02"/><path d="M1015.82 17.698s-2.72 2.53-3.94 3.505c1.22.977 2.5 2.117 3.94 3.506 1.45-1.389 3.95-3.506 3.95-3.506l-3.95-3.505z" fill="url(#f)"/><path opacity=".3" d="m1011.88 21.203 3.94 3.506.01-2.201s.03-1.752 0-2.801c-.03-1.26-.01-2.01-.01-2.01l-3.94 3.506z" fill="#2E51FF"/><path opacity=".5" d="M1015.82 24.71v-2.2l-.87-1.307h-3.07l3.94 3.506z" fill="#000D84"/><path d="M1019.77 21.203h-2.63l-1.32-1.314v-2.191l3.95 3.505z" fill="url(#g)" style="mix-blend-mode:overlay"/><path d="M1017.14 21.203v-.438l-.22-.438-.44-.438-.64-2.032-.02 2.032 1.32 1.314z" fill="#fff"/><path d="M1014.51 21.204a1.315 1.315 0 1 1 2.63 0 1.315 1.315 0 0 1-2.63 0z" fill="url(#h)"/><defs><radialGradient id="c" cx="0" cy="0" r="1" gradientUnits="userSpaceOnUse" gradientTransform="matrix(0 -4.32194 5.32095 0 5.906 19.832)"><stop stop-color="#2E8CFF"/><stop offset="1" stop-color="#006DDA"/></radialGradient><radialGradient id="e" cx="0" cy="0" r="1" gradientUnits="userSpaceOnUse" gradientTransform="matrix(0 -2.05995 2.25813 0 8.578 21.989)"><stop stop-color="#2E8CFF"/><stop offset="1" stop-color="#03009F"/></radialGradient><radialGradient id="f" cx="0" cy="0" r="1" gradientUnits="userSpaceOnUse" gradientTransform="matrix(0 -4.32194 5.32095 0 1017.76 19.832)"><stop stop-color="#2E8CFF"/><stop offset="1" stop-color="#006DDA"/></radialGradient><radialGradient id="h" cx="0" cy="0" r="1" gradientUnits="userSpaceOnUse" gradientTransform="matrix(0 -2.05995 2.25813 0 1015.09 21.988)"><stop stop-color="#2E8CFF"/><stop offset="1" stop-color="#03009F"/></radialGradient><linearGradient id="b" x1="511.813" y1=".34" x2="511.813" y2="43.34" gradientUnits="userSpaceOnUse"><stop stop-color="#B54B00"/><stop offset="1" stop-color="#6F2E00"/></linearGradient><linearGradient id="d" x1="5.886" y1="21.303" x2="5.886" y2="17.808" gradientUnits="userSpaceOnUse"><stop stop-color="#524E53"/><stop offset="1" stop-color="#E9E9E9"/></linearGradient><linearGradient id="g" x1="1017.78" y1="21.302" x2="1017.78" y2="17.808" gradientUnits="userSpaceOnUse"><stop stop-color="#524E53"/><stop offset="1" stop-color="#E9E9E9"/></linearGradient><filter id="a" x="8.813" y=".34" width="1006" height="46" filterUnits="userSpaceOnUse" color-interpolation-filters="sRGB"><feFlood flood-opacity="0" result="BackgroundImageFix"/><feColorMatrix in="SourceAlpha" values="0 0 0 0 0 0 0 0 0 0 0 0 0 0 0 0 0 0 127 0" result="hardAlpha"/><feOffset dy="3"/><feComposite in2="hardAlpha" operator="out"/><feColorMatrix values="0 0 0 0 0 0 0 0 0 0 0 0 0 0 0 0 0 0 0.25 0"/><feBlend in2="BackgroundImageFix" result="effect1_dropShadow_2002_12030"/><feBlend in="SourceGraphic" in2="effect1_dropShadow_2002_12030" result="shape"/></filter></defs></svg>