<svg width="511" height="512" fill="none" xmlns="http://www.w3.org/2000/svg"><mask id="a" style="mask-type:alpha" maskUnits="userSpaceOnUse" x="-17" y="-30" width="546" height="546"><path d="m280.188 4.844-24.796 238.38 92.001-221.305-67.205-17.075zM230.584 481.749l24.809-238.525-92.058 221.439 67.249 17.086zM493.14 267.801l-237.747-24.577 220.647 91.88 17.1-67.303z" fill="#F9B233"/><path d="m34.975 151.437-17.079 67.216 237.497 24.571-220.418-91.787zM255.789 242.476 143.33-29.929l-73.136 44.06 185.595 228.345zM441.583 471.078 255.789 242.476l112.54 272.585 73.254-43.983z" fill="#F9B233"/><path d="M484.65 56.793 255.789 242.476l272.379-112.179-43.518-73.504zM26.793 428.284l228.996-185.808-272.087 112.069 43.091 73.739z" fill="#F9B233"/></mask><g mask="url(#a)"><circle cx="255.657" cy="242.408" r="236.289" transform="rotate(14.256 255.657 242.408)" fill="url(#b)"/></g><defs><radialGradient id="b" cx="0" cy="0" r="1" gradientUnits="userSpaceOnUse" gradientTransform="rotate(90 6.624 249.032) scale(236.289)"><stop stop-color="#fff"/><stop offset="1" stop-color="#fff" stop-opacity="0"/></radialGradient></defs></svg>