<svg width="38" height="34" fill="none" xmlns="http://www.w3.org/2000/svg"><rect x=".572" y=".449" width="36.855" height="32.973" rx="16.487" fill="#000"/><g fill="#fff"><path d="M3.729 17.75c.53 1.481 1.823 2.783 3.37 3.776 2.042 1.311 4.59 2.126 6.62 2.126h10.558c2.03 0 4.579-.815 6.62-2.126 1.548-.993 2.84-2.295 3.37-3.777l-9.312.018a6.169 6.169 0 0 0-5.957 4.566 6.17 6.17 0 0 0-5.956-4.566l-9.313-.018zM3.729 25.28c.53 1.482 1.823 2.785 3.37 3.778 2.042 1.31 4.59 2.125 6.62 2.125h10.558c2.03 0 4.579-.815 6.62-2.125 1.548-.993 2.84-2.296 3.37-3.777l-9.312.018a6.169 6.169 0 0 0-5.957 4.565 6.17 6.17 0 0 0-5.956-4.566l-9.313-.017zM3.729 8.59c.53-1.483 1.823-2.785 3.37-3.778 2.042-1.31 4.59-2.126 6.62-2.126h10.558c2.03 0 4.579.815 6.62 2.126 1.548.993 2.84 2.295 3.37 3.777l-9.312-.018a6.169 6.169 0 0 1-5.957-4.565 6.17 6.17 0 0 1-5.956 4.565l-9.313.018zM3.729 16.12c.53-1.481 1.823-2.784 3.37-3.777 2.042-1.31 4.59-2.126 6.62-2.126h10.558c2.03 0 4.579.816 6.62 2.126 1.548.993 2.84 2.296 3.37 3.777l-9.312-.017a6.169 6.169 0 0 1-5.957-4.566 6.17 6.17 0 0 1-5.956 4.566l-9.313.017z"/></g></svg>