<svg width="380" height="90" viewBox="0 0 380 90" fill="none" xmlns="http://www.w3.org/2000/svg">
<path d="M0.987049 8.88344C0.460501 4.14451 4.17003 0 8.93812 0H371.051C375.823 0 379.534 4.15106 379.001 8.89326L370.896 81.0272C370.385 85.5708 366.549 89.0096 361.977 89.0223L18.0779 89.9776C13.4824 89.9903 9.61543 86.5389 9.10794 81.9715L0.987049 8.88344Z" fill="#8A4500"/>
<path d="M1.03768 8.92402C0.485072 4.17162 4.19971 0 8.98413 0H371.016C375.8 0 379.515 4.1716 378.962 8.92401L370.823 78.924C370.354 82.9576 366.937 86 362.876 86H17.1236C13.0628 86 9.64624 82.9576 9.17721 78.924L1.03768 8.92402Z" fill="url(#paint0_linear_2001_9161)"/>
<g style="mix-blend-mode:multiply" opacity="0.58" filter="url(#filter0_f_2001_9161)">
<path d="M8.05732 10.1906C7.94243 9.29385 8.64107 8.5 9.54516 8.5H370.455C371.359 8.5 372.058 9.29386 371.943 10.1906L363.231 78.1906C363.135 78.9392 362.498 79.5 361.743 79.5H18.2571C17.5023 79.5 16.8651 78.9392 16.7692 78.1906L8.05732 10.1906Z" stroke="url(#paint1_linear_2001_9161)" stroke-width="5"/>
</g>
<path d="M5.50756 8.40427C5.26579 6.32508 6.89096 4.5 8.98413 4.5H371.016C373.109 4.5 374.734 6.32507 374.492 8.40425L366.353 78.4042C366.148 80.169 364.653 81.5 362.876 81.5H17.1236C15.3471 81.5 13.8523 80.169 13.6471 78.4043L5.50756 8.40427Z" stroke="url(#paint2_linear_2001_9161)" stroke-width="9"/>
<path d="M4.0176 8.57752C3.67222 5.60726 5.99388 3 8.98413 3H371.016C374.006 3 376.328 5.60725 375.982 8.5775L367.843 78.5775C367.55 81.0985 365.414 83 362.876 83H17.1236C14.5857 83 12.4503 81.0985 12.1571 78.5775L4.0176 8.57752Z" stroke="url(#paint3_linear_2001_9161)" stroke-width="6"/>
<g filter="url(#filter1_f_2001_9161)">
<path d="M3.69993 8.61813C3.32822 5.63453 5.6549 3 8.66157 3H371.338C374.345 3 376.672 5.63454 376.3 8.61814L367.704 77.6182C367.392 80.1212 365.265 82 362.742 82H17.2578C14.7355 82 12.608 80.1212 12.2962 77.6181L3.69993 8.61813Z" stroke="url(#paint4_linear_2001_9161)" stroke-width="3"/>
</g>
<g filter="url(#filter2_f_2001_9161)">
<path d="M3.69993 8.61813C3.32822 5.63453 5.6549 3 8.66157 3H371.338C374.345 3 376.672 5.63454 376.3 8.61814L367.704 77.6182C367.392 80.1212 365.265 82 362.742 82H17.2578C14.7355 82 12.608 80.1212 12.2962 77.6181L3.69993 8.61813Z" stroke="url(#paint5_linear_2001_9161)"/>
</g>
<g filter="url(#filter3_dd_2001_9161)">
<mask id="path-8-outside-1_2001_9161" maskUnits="userSpaceOnUse" x="61" y="22" width="263" height="40" fill="black">
<rect fill="white" x="61" y="22" width="263" height="40"/>
<path d="M71.6393 59V52.088H77.9273C79.1433 52.088 80.1193 51.768 80.8553 51.128C81.5913 50.456 81.9593 49.544 81.9593 48.392C81.9593 47.624 81.7833 46.968 81.4313 46.424C81.1113 45.848 80.6473 45.416 80.0393 45.128C79.4633 44.84 78.7593 44.696 77.9273 44.696H71.6393V38.072H77.4953C78.5193 38.072 79.3673 37.816 80.0393 37.304C80.7113 36.792 81.0473 35.992 81.0473 34.904C81.0473 33.816 80.7113 33.016 80.0393 32.504C79.3673 31.992 78.5193 31.736 77.4953 31.736H71.6393V24.824H80.1833C82.2633 24.824 84.0713 25.224 85.6073 26.024C87.1753 26.792 88.3913 27.864 89.2552 29.24C90.1193 30.584 90.5513 32.136 90.5513 33.896C90.5513 36.328 89.6873 38.312 87.9593 39.848C86.2313 41.384 83.7033 42.264 80.3753 42.488L80.2793 39.176C83.8953 39.4 86.6632 40.392 88.5833 42.152C90.5033 43.912 91.4633 46.168 91.4633 48.92C91.4633 50.904 90.9673 52.664 89.9753 54.2C88.9833 55.704 87.5913 56.888 85.7993 57.752C84.0393 58.584 81.9753 59 79.6073 59H71.6393ZM63.8633 59V24.824H73.2713V59H63.8633ZM103.28 45.368V38.744H109.088C110.4 38.744 111.392 38.424 112.064 37.784C112.768 37.144 113.12 36.296 113.12 35.24C113.12 34.184 112.768 33.336 112.064 32.696C111.392 32.056 110.4 31.736 109.088 31.736H103.28V24.824H110.624C112.992 24.824 115.072 25.256 116.864 26.12C118.656 26.984 120.064 28.184 121.088 29.72C122.112 31.256 122.624 33.048 122.624 35.096C122.624 37.144 122.096 38.936 121.04 40.472C120.016 42.008 118.576 43.208 116.72 44.072C114.864 44.936 112.672 45.368 110.144 45.368H103.28ZM95.5039 59V24.824H105.104V59H95.5039ZM113.936 59L104.624 44.408L113.264 42.536L124.832 59H113.936ZM144.181 59.672C141.493 59.672 139.013 59.224 136.741 58.328C134.501 57.432 132.533 56.184 130.837 54.584C129.173 52.984 127.877 51.096 126.949 48.92C126.021 46.744 125.557 44.392 125.557 41.864C125.557 39.304 126.005 36.952 126.901 34.808C127.829 32.664 129.125 30.792 130.789 29.192C132.453 27.592 134.405 26.36 136.645 25.496C138.917 24.6 141.397 24.152 144.085 24.152C146.773 24.152 149.237 24.6 151.477 25.496C153.749 26.36 155.717 27.592 157.381 29.192C159.045 30.792 160.325 32.68 161.221 34.856C162.149 37 162.613 39.352 162.613 41.912C162.613 44.44 162.149 46.792 161.221 48.968C160.325 51.112 159.045 53 157.381 54.632C155.717 56.232 153.765 57.48 151.525 58.376C149.285 59.24 146.837 59.672 144.181 59.672ZM144.085 51.224C145.877 51.224 147.429 50.84 148.741 50.072C150.053 49.304 151.061 48.216 151.765 46.808C152.469 45.4 152.821 43.752 152.821 41.864C152.821 40.456 152.613 39.192 152.197 38.072C151.813 36.92 151.237 35.944 150.469 35.144C149.701 34.312 148.773 33.688 147.685 33.272C146.629 32.824 145.429 32.6 144.085 32.6C142.293 32.6 140.741 32.984 139.429 33.752C138.117 34.488 137.109 35.56 136.405 36.968C135.701 38.344 135.349 39.976 135.349 41.864C135.349 43.304 135.541 44.6 135.925 45.752C136.341 46.904 136.933 47.896 137.701 48.728C138.469 49.528 139.381 50.152 140.437 50.6C141.525 51.016 142.741 51.224 144.085 51.224ZM173.367 59V24.824H182.967V59H173.367ZM163.143 32.984V24.824H193.239V32.984H163.143ZM204.539 59V24.824H214.139V59H204.539ZM194.315 32.984V24.824H224.411V32.984H194.315ZM228.02 59V24.824H237.62V59H228.02ZM235.796 59V51.032H254.132V59H235.796ZM235.796 45.464V37.688H252.356V45.464H235.796ZM235.796 32.792V24.824H253.844V32.792H235.796ZM266.452 45.368V38.744H272.26C273.572 38.744 274.564 38.424 275.236 37.784C275.94 37.144 276.292 36.296 276.292 35.24C276.292 34.184 275.94 33.336 275.236 32.696C274.564 32.056 273.572 31.736 272.26 31.736H266.452V24.824H273.796C276.164 24.824 278.244 25.256 280.036 26.12C281.828 26.984 283.236 28.184 284.26 29.72C285.284 31.256 285.796 33.048 285.796 35.096C285.796 37.144 285.268 38.936 284.212 40.472C283.188 42.008 281.748 43.208 279.892 44.072C278.036 44.936 275.844 45.368 273.316 45.368H266.452ZM258.676 59V24.824H268.276V59H258.676ZM277.108 59L267.796 44.408L276.436 42.536L288.004 59H277.108ZM299.513 47.24L286.505 24.824H297.545L307.385 43.112H299.129L308.969 24.824H319.769L306.665 47.24H299.513ZM298.409 59V43.736H308.009V59H298.409Z"/>
</mask>
<path d="M71.6393 59V52.088H77.9273C79.1433 52.088 80.1193 51.768 80.8553 51.128C81.5913 50.456 81.9593 49.544 81.9593 48.392C81.9593 47.624 81.7833 46.968 81.4313 46.424C81.1113 45.848 80.6473 45.416 80.0393 45.128C79.4633 44.84 78.7593 44.696 77.9273 44.696H71.6393V38.072H77.4953C78.5193 38.072 79.3673 37.816 80.0393 37.304C80.7113 36.792 81.0473 35.992 81.0473 34.904C81.0473 33.816 80.7113 33.016 80.0393 32.504C79.3673 31.992 78.5193 31.736 77.4953 31.736H71.6393V24.824H80.1833C82.2633 24.824 84.0713 25.224 85.6073 26.024C87.1753 26.792 88.3913 27.864 89.2552 29.24C90.1193 30.584 90.5513 32.136 90.5513 33.896C90.5513 36.328 89.6873 38.312 87.9593 39.848C86.2313 41.384 83.7033 42.264 80.3753 42.488L80.2793 39.176C83.8953 39.4 86.6632 40.392 88.5833 42.152C90.5033 43.912 91.4633 46.168 91.4633 48.92C91.4633 50.904 90.9673 52.664 89.9753 54.2C88.9833 55.704 87.5913 56.888 85.7993 57.752C84.0393 58.584 81.9753 59 79.6073 59H71.6393ZM63.8633 59V24.824H73.2713V59H63.8633ZM103.28 45.368V38.744H109.088C110.4 38.744 111.392 38.424 112.064 37.784C112.768 37.144 113.12 36.296 113.12 35.24C113.12 34.184 112.768 33.336 112.064 32.696C111.392 32.056 110.4 31.736 109.088 31.736H103.28V24.824H110.624C112.992 24.824 115.072 25.256 116.864 26.12C118.656 26.984 120.064 28.184 121.088 29.72C122.112 31.256 122.624 33.048 122.624 35.096C122.624 37.144 122.096 38.936 121.04 40.472C120.016 42.008 118.576 43.208 116.72 44.072C114.864 44.936 112.672 45.368 110.144 45.368H103.28ZM95.5039 59V24.824H105.104V59H95.5039ZM113.936 59L104.624 44.408L113.264 42.536L124.832 59H113.936ZM144.181 59.672C141.493 59.672 139.013 59.224 136.741 58.328C134.501 57.432 132.533 56.184 130.837 54.584C129.173 52.984 127.877 51.096 126.949 48.92C126.021 46.744 125.557 44.392 125.557 41.864C125.557 39.304 126.005 36.952 126.901 34.808C127.829 32.664 129.125 30.792 130.789 29.192C132.453 27.592 134.405 26.36 136.645 25.496C138.917 24.6 141.397 24.152 144.085 24.152C146.773 24.152 149.237 24.6 151.477 25.496C153.749 26.36 155.717 27.592 157.381 29.192C159.045 30.792 160.325 32.68 161.221 34.856C162.149 37 162.613 39.352 162.613 41.912C162.613 44.44 162.149 46.792 161.221 48.968C160.325 51.112 159.045 53 157.381 54.632C155.717 56.232 153.765 57.48 151.525 58.376C149.285 59.24 146.837 59.672 144.181 59.672ZM144.085 51.224C145.877 51.224 147.429 50.84 148.741 50.072C150.053 49.304 151.061 48.216 151.765 46.808C152.469 45.4 152.821 43.752 152.821 41.864C152.821 40.456 152.613 39.192 152.197 38.072C151.813 36.92 151.237 35.944 150.469 35.144C149.701 34.312 148.773 33.688 147.685 33.272C146.629 32.824 145.429 32.6 144.085 32.6C142.293 32.6 140.741 32.984 139.429 33.752C138.117 34.488 137.109 35.56 136.405 36.968C135.701 38.344 135.349 39.976 135.349 41.864C135.349 43.304 135.541 44.6 135.925 45.752C136.341 46.904 136.933 47.896 137.701 48.728C138.469 49.528 139.381 50.152 140.437 50.6C141.525 51.016 142.741 51.224 144.085 51.224ZM173.367 59V24.824H182.967V59H173.367ZM163.143 32.984V24.824H193.239V32.984H163.143ZM204.539 59V24.824H214.139V59H204.539ZM194.315 32.984V24.824H224.411V32.984H194.315ZM228.02 59V24.824H237.62V59H228.02ZM235.796 59V51.032H254.132V59H235.796ZM235.796 45.464V37.688H252.356V45.464H235.796ZM235.796 32.792V24.824H253.844V32.792H235.796ZM266.452 45.368V38.744H272.26C273.572 38.744 274.564 38.424 275.236 37.784C275.94 37.144 276.292 36.296 276.292 35.24C276.292 34.184 275.94 33.336 275.236 32.696C274.564 32.056 273.572 31.736 272.26 31.736H266.452V24.824H273.796C276.164 24.824 278.244 25.256 280.036 26.12C281.828 26.984 283.236 28.184 284.26 29.72C285.284 31.256 285.796 33.048 285.796 35.096C285.796 37.144 285.268 38.936 284.212 40.472C283.188 42.008 281.748 43.208 279.892 44.072C278.036 44.936 275.844 45.368 273.316 45.368H266.452ZM258.676 59V24.824H268.276V59H258.676ZM277.108 59L267.796 44.408L276.436 42.536L288.004 59H277.108ZM299.513 47.24L286.505 24.824H297.545L307.385 43.112H299.129L308.969 24.824H319.769L306.665 47.24H299.513ZM298.409 59V43.736H308.009V59H298.409Z" fill="url(#paint6_linear_2001_9161)"/>
<path d="M71.6393 59H69.6393V61H71.6393V59ZM71.6393 52.088V50.088H69.6393V52.088H71.6393ZM80.8553 51.128L82.1676 52.6372L82.1859 52.6213L82.2038 52.605L80.8553 51.128ZM81.4313 46.424L79.6829 47.3953L79.7156 47.4541L79.7521 47.5105L81.4313 46.424ZM80.0393 45.128L79.1448 46.9169L79.1639 46.9264L79.1831 46.9355L80.0393 45.128ZM71.6393 44.696H69.6393V46.696H71.6393V44.696ZM71.6393 38.072V36.072H69.6393V38.072H71.6393ZM80.0393 32.504L81.2513 30.9131L81.2513 30.9131L80.0393 32.504ZM71.6393 31.736H69.6393V33.736H71.6393V31.736ZM71.6393 24.824V22.824H69.6393V24.824H71.6393ZM85.6073 26.024L84.6834 27.7978L84.7053 27.8092L84.7275 27.8201L85.6073 26.024ZM89.2552 29.24L87.5615 30.3035L87.5671 30.3126L87.5729 30.3215L89.2552 29.24ZM87.9593 39.848L89.288 41.3428L89.288 41.3428L87.9593 39.848ZM80.3753 42.488L78.3761 42.5459L78.4363 44.623L80.5096 44.4835L80.3753 42.488ZM80.2793 39.176L80.4029 37.1798L78.2166 37.0444L78.2801 39.2339L80.2793 39.176ZM89.9753 54.2L91.6448 55.3012L91.6501 55.2931L91.6553 55.285L89.9753 54.2ZM85.7993 57.752L86.654 59.5601L86.6609 59.5569L86.6679 59.5535L85.7993 57.752ZM63.8633 59H61.8633V61H63.8633V59ZM63.8633 24.824V22.824H61.8633V24.824H63.8633ZM73.2713 24.824H75.2713V22.824H73.2713V24.824ZM73.2713 59V61H75.2713V59H73.2713ZM73.6393 59V52.088H69.6393V59H73.6393ZM71.6393 54.088H77.9273V50.088H71.6393V54.088ZM77.9273 54.088C79.5023 54.088 80.9843 53.6662 82.1676 52.6372L79.5429 49.6188C79.2542 49.8698 78.7842 50.088 77.9273 50.088V54.088ZM82.2038 52.605C83.4209 51.4937 83.9593 50.0097 83.9593 48.392H79.9593C79.9593 49.0783 79.7616 49.4183 79.5067 49.651L82.2038 52.605ZM83.9593 48.392C83.9593 47.311 83.708 46.2611 83.1104 45.3375L79.7521 47.5105C79.8585 47.6749 79.9593 47.937 79.9593 48.392H83.9593ZM83.1796 45.4527C82.6523 44.5036 81.8723 43.7833 80.8954 43.3205L79.1831 46.9355C79.4222 47.0487 79.5702 47.1924 79.6829 47.3953L83.1796 45.4527ZM80.9337 43.3391C80.011 42.8778 78.9821 42.696 77.9273 42.696V46.696C78.5364 46.696 78.9155 46.8022 79.1448 46.9169L80.9337 43.3391ZM77.9273 42.696H71.6393V46.696H77.9273V42.696ZM73.6393 44.696V38.072H69.6393V44.696H73.6393ZM71.6393 40.072H77.4953V36.072H71.6393V40.072ZM77.4953 40.072C78.8618 40.072 80.1621 39.7248 81.2513 38.8949L78.8272 35.7131C78.5724 35.9072 78.1767 36.072 77.4953 36.072V40.072ZM81.2513 38.8949C82.5578 37.8995 83.0473 36.4195 83.0473 34.904H79.0473C79.0473 35.5645 78.8647 35.6845 78.8272 35.7131L81.2513 38.8949ZM83.0473 34.904C83.0473 33.3885 82.5578 31.9085 81.2513 30.9131L78.8272 34.0949C78.8647 34.1235 79.0473 34.2435 79.0473 34.904H83.0473ZM81.2513 30.9131C80.1621 30.0832 78.8618 29.736 77.4953 29.736V33.736C78.1767 33.736 78.5724 33.9008 78.8272 34.0949L81.2513 30.9131ZM77.4953 29.736H71.6393V33.736H77.4953V29.736ZM73.6393 31.736V24.824H69.6393V31.736H73.6393ZM71.6393 26.824H80.1833V22.824H71.6393V26.824ZM80.1833 26.824C82.0058 26.824 83.4846 27.1735 84.6834 27.7978L86.5311 24.2502C84.6579 23.2745 82.5207 22.824 80.1833 22.824V26.824ZM84.7275 27.8201C85.9872 28.4371 86.9102 29.2663 87.5615 30.3035L90.949 28.1765C89.8723 26.4617 88.3633 25.1469 86.487 24.2279L84.7275 27.8201ZM87.5729 30.3215C88.2087 31.3105 88.5513 32.4791 88.5513 33.896H92.5513C92.5513 31.7929 92.0298 29.8575 90.9376 28.1585L87.5729 30.3215ZM88.5513 33.896C88.5513 35.7904 87.907 37.2185 86.6305 38.3532L89.288 41.3428C91.4675 39.4055 92.5513 36.8656 92.5513 33.896H88.5513ZM86.6305 38.3532C85.3527 39.489 83.3161 40.2855 80.2409 40.4925L80.5096 44.4835C84.0904 44.2425 87.1098 43.279 89.288 41.3428L86.6305 38.3532ZM82.3744 42.4301L82.2784 39.1181L78.2801 39.2339L78.3761 42.5459L82.3744 42.4301ZM80.1556 41.1722C83.491 41.3788 85.7599 42.277 87.2318 43.6263L89.9347 40.6777C87.5666 38.507 84.2995 37.4212 80.4029 37.1798L80.1556 41.1722ZM87.2318 43.6263C88.7129 44.984 89.4633 46.6929 89.4633 48.92H93.4633C93.4633 45.6431 92.2936 42.84 89.9347 40.6777L87.2318 43.6263ZM89.4633 48.92C89.4633 50.5532 89.0606 51.9298 88.2952 53.115L91.6553 55.285C92.8739 53.3982 93.4633 51.2548 93.4633 48.92H89.4633ZM88.3057 53.0988C87.5329 54.2706 86.4322 55.2265 84.9307 55.9505L86.6679 59.5535C88.7503 58.5495 90.4337 57.1374 91.6448 55.3012L88.3057 53.0988ZM84.9445 55.9439C83.5032 56.6252 81.7425 57 79.6073 57V61C82.208 61 84.5753 60.5428 86.654 59.5601L84.9445 55.9439ZM79.6073 57H71.6393V61H79.6073V57ZM65.8633 59V24.824H61.8633V59H65.8633ZM63.8633 26.824H73.2713V22.824H63.8633V26.824ZM71.2713 24.824V59H75.2713V24.824H71.2713ZM73.2713 57H63.8633V61H73.2713V57ZM103.28 45.368H101.28V47.368H103.28V45.368ZM103.28 38.744V36.744H101.28V38.744H103.28ZM112.064 37.784L110.719 36.3041L110.701 36.3197L110.685 36.3357L112.064 37.784ZM112.064 32.696L110.685 34.1443L110.701 34.1603L110.719 34.1759L112.064 32.696ZM103.28 31.736H101.28V33.736H103.28V31.736ZM103.28 24.824V22.824H101.28V24.824H103.28ZM116.864 26.12L117.732 24.3185L117.732 24.3185L116.864 26.12ZM121.088 29.72L119.424 30.8294L119.424 30.8294L121.088 29.72ZM121.04 40.472L119.392 39.3389L119.384 39.3507L119.376 39.3626L121.04 40.472ZM116.72 44.072L117.564 45.8852L117.564 45.8852L116.72 44.072ZM95.5039 59H93.5039V61H95.5039V59ZM95.5039 24.824V22.824H93.5039V24.824H95.5039ZM105.104 24.824H107.104V22.824H105.104V24.824ZM105.104 59V61H107.104V59H105.104ZM113.936 59L112.25 60.0759L112.84 61H113.936V59ZM104.624 44.408L104.2 42.4534L101.392 43.0618L102.938 45.4839L104.624 44.408ZM113.264 42.536L114.9 41.3862L114.137 40.3003L112.84 40.5814L113.264 42.536ZM124.832 59V61H128.681L126.468 57.8502L124.832 59ZM105.28 45.368V38.744H101.28V45.368H105.28ZM103.28 40.744H109.088V36.744H103.28V40.744ZM109.088 40.744C110.7 40.744 112.269 40.3504 113.443 39.2323L110.685 36.3357C110.515 36.4976 110.1 36.744 109.088 36.744V40.744ZM113.409 39.2639C114.579 38.2008 115.12 36.7906 115.12 35.24H111.12C111.12 35.8014 110.957 36.0872 110.719 36.3041L113.409 39.2639ZM115.12 35.24C115.12 33.6894 114.579 32.2792 113.409 31.2161L110.719 34.1759C110.957 34.3928 111.12 34.6786 111.12 35.24H115.12ZM113.443 31.2477C112.269 30.1296 110.7 29.736 109.088 29.736V33.736C110.1 33.736 110.515 33.9824 110.685 34.1443L113.443 31.2477ZM109.088 29.736H103.28V33.736H109.088V29.736ZM105.28 31.736V24.824H101.28V31.736H105.28ZM103.28 26.824H110.624V22.824H103.28V26.824ZM110.624 26.824C112.748 26.824 114.521 27.2107 115.995 27.9215L117.732 24.3185C115.623 23.3013 113.236 22.824 110.624 22.824V26.824ZM115.995 27.9215C117.491 28.6426 118.614 29.6142 119.424 30.8294L122.752 28.6106C121.514 26.7538 119.821 25.3254 117.732 24.3185L115.995 27.9215ZM119.424 30.8294C120.205 32.0014 120.624 33.398 120.624 35.096H124.624C124.624 32.698 124.019 30.5106 122.752 28.6106L119.424 30.8294ZM120.624 35.096C120.624 36.7812 120.196 38.1692 119.392 39.3389L122.688 41.6051C123.996 39.7028 124.624 37.5068 124.624 35.096H120.624ZM119.376 39.3626C118.577 40.5607 117.436 41.5323 115.876 42.2588L117.564 45.8852C119.715 44.8837 121.455 43.4553 122.704 41.5814L119.376 39.3626ZM115.876 42.2588C114.339 42.9744 112.447 43.368 110.144 43.368V47.368C112.897 47.368 115.389 46.8976 117.564 45.8852L115.876 42.2588ZM110.144 43.368H103.28V47.368H110.144V43.368ZM97.5039 59V24.824H93.5039V59H97.5039ZM95.5039 26.824H105.104V22.824H95.5039V26.824ZM103.104 24.824V59H107.104V24.824H103.104ZM105.104 57H95.5039V61H105.104V57ZM115.622 57.9241L106.31 43.3321L102.938 45.4839L112.25 60.0759L115.622 57.9241ZM105.047 46.3626L113.687 44.4906L112.84 40.5814L104.2 42.4534L105.047 46.3626ZM111.627 43.6858L123.195 60.1498L126.468 57.8502L114.9 41.3862L111.627 43.6858ZM124.832 57H113.936V61H124.832V57ZM136.741 58.328L135.998 60.185L136.007 60.1885L136.741 58.328ZM130.837 54.584L129.451 56.0257L129.458 56.0323L129.465 56.0388L130.837 54.584ZM126.949 48.92L125.109 49.7046L125.109 49.7046L126.949 48.92ZM126.901 34.808L125.066 34.0136L125.061 34.0252L125.056 34.0368L126.901 34.808ZM130.789 29.192L129.403 27.7503L129.403 27.7503L130.789 29.192ZM136.645 25.496L137.365 27.362L137.372 27.3593L137.379 27.3565L136.645 25.496ZM151.477 25.496L150.734 27.353L150.75 27.3593L150.766 27.3654L151.477 25.496ZM157.381 29.192L158.767 27.7503L158.767 27.7503L157.381 29.192ZM161.221 34.856L159.372 35.6175L159.379 35.634L159.386 35.6504L161.221 34.856ZM161.221 48.968L159.381 48.1834L159.379 48.1901L159.376 48.1968L161.221 48.968ZM157.381 54.632L158.767 56.0737L158.774 56.0668L158.782 56.0599L157.381 54.632ZM151.525 58.376L152.245 60.242L152.256 60.2375L152.268 60.233L151.525 58.376ZM151.765 46.808L149.976 45.9136L149.976 45.9136L151.765 46.808ZM152.197 38.072L150.3 38.7045L150.31 38.7366L150.322 38.7684L152.197 38.072ZM150.469 35.144L149 36.5006L149.013 36.5149L149.026 36.5291L150.469 35.144ZM147.685 33.272L146.904 35.1132L146.937 35.1272L146.971 35.1401L147.685 33.272ZM139.429 33.752L140.408 35.4963L140.424 35.4873L140.439 35.478L139.429 33.752ZM136.405 36.968L138.186 37.879L138.19 37.8707L138.194 37.8624L136.405 36.968ZM135.925 45.752L134.028 46.3845L134.036 46.408L134.044 46.4313L135.925 45.752ZM137.701 48.728L136.232 50.0846L136.245 50.0989L136.258 50.1131L137.701 48.728ZM140.437 50.6L139.656 52.4412L139.689 52.4552L139.723 52.4681L140.437 50.6ZM144.181 57.672C141.719 57.672 139.491 57.2625 137.475 56.4675L136.007 60.1885C138.535 61.1855 141.267 61.672 144.181 61.672V57.672ZM137.484 56.471C135.469 55.6651 133.716 54.5508 132.21 53.1292L129.465 56.0388C131.35 57.8172 133.533 59.1989 135.998 60.185L137.484 56.471ZM132.223 53.1423C130.758 51.7333 129.614 50.0704 128.789 48.1354L125.109 49.7046C126.14 52.1216 127.588 54.2347 129.451 56.0257L132.223 53.1423ZM128.789 48.1354C127.974 46.2242 127.557 44.1411 127.557 41.864H123.557C123.557 44.6429 124.069 47.2638 125.109 49.7046L128.789 48.1354ZM127.557 41.864C127.557 39.5417 127.962 37.4551 128.746 35.5792L125.056 34.0368C124.048 36.4489 123.557 39.0663 123.557 41.864H127.557ZM128.737 35.6024C129.561 33.6988 130.705 32.0476 132.175 30.6337L129.403 27.7503C127.545 29.5364 126.098 31.6292 125.066 34.0136L128.737 35.6024ZM132.175 30.6337C133.64 29.2254 135.363 28.1342 137.365 27.362L135.925 23.63C133.447 24.5858 131.266 25.9586 129.403 27.7503L132.175 30.6337ZM137.379 27.3565C139.395 26.5615 141.623 26.152 144.085 26.152V22.152C141.171 22.152 138.439 22.6385 135.911 23.6355L137.379 27.3565ZM144.085 26.152C146.548 26.152 148.756 26.5617 150.734 27.353L152.22 23.639C149.718 22.6383 146.999 22.152 144.085 22.152V26.152ZM150.766 27.3654C152.8 28.1389 154.535 29.23 155.995 30.6337L158.767 27.7503C156.899 25.954 154.698 24.5811 152.188 23.6266L150.766 27.3654ZM155.995 30.6337C157.455 32.0377 158.579 33.6928 159.372 35.6175L163.07 34.0945C162.071 31.6672 160.635 29.5463 158.767 27.7503L155.995 30.6337ZM159.386 35.6504C160.195 37.5205 160.613 39.5989 160.613 41.912H164.613C164.613 39.1051 164.103 36.4795 163.057 34.0616L159.386 35.6504ZM160.613 41.912C160.613 44.1891 160.197 46.2722 159.381 48.1834L163.061 49.7526C164.102 47.3118 164.613 44.6909 164.613 41.912H160.613ZM159.376 48.1968C158.583 50.0936 157.455 51.7585 155.981 53.2041L158.782 56.0599C160.636 54.2415 162.067 52.1304 163.066 49.7392L159.376 48.1968ZM155.995 53.1903C154.525 54.6037 152.794 55.7143 150.782 56.519L152.268 60.233C154.736 59.2457 156.909 57.8603 158.767 56.0737L155.995 53.1903ZM150.805 56.51C148.818 57.2765 146.617 57.672 144.181 57.672V61.672C147.057 61.672 149.752 61.2035 152.245 60.242L150.805 56.51ZM144.085 53.224C146.168 53.224 148.082 52.7752 149.751 51.798L147.731 48.346C146.776 48.9048 145.586 49.224 144.085 49.224V53.224ZM149.751 51.798C151.41 50.8269 152.683 49.4442 153.554 47.7024L149.976 45.9136C149.439 46.9878 148.696 47.7811 147.731 48.346L149.751 51.798ZM153.554 47.7024C154.422 45.9667 154.821 44.0012 154.821 41.864H150.821C150.821 43.5028 150.516 44.8333 149.976 45.9136L153.554 47.7024ZM154.821 41.864C154.821 40.2598 154.584 38.7543 154.072 37.3756L150.322 38.7684C150.642 39.6297 150.821 40.6522 150.821 41.864H154.821ZM154.094 37.4395C153.626 36.0332 152.904 34.7927 151.912 33.7589L149.026 36.5291C149.57 37.0953 150.001 37.8068 150.3 38.7045L154.094 37.4395ZM151.939 33.7874C150.956 32.7224 149.767 31.9267 148.399 31.4039L146.971 35.1401C147.78 35.4493 148.447 35.9016 149 36.5006L151.939 33.7874ZM148.466 31.4308C147.124 30.8616 145.652 30.6 144.085 30.6V34.6C145.206 34.6 146.134 34.7864 146.904 35.1132L148.466 31.4308ZM144.085 30.6C142.002 30.6 140.088 31.0488 138.419 32.026L140.439 35.478C141.394 34.9192 142.584 34.6 144.085 34.6V30.6ZM138.451 32.0077C136.773 32.9489 135.49 34.3252 134.616 36.0736L138.194 37.8624C138.728 36.7948 139.461 36.0271 140.408 35.4963L138.451 32.0077ZM134.625 36.057C133.748 37.7708 133.349 39.7284 133.349 41.864H137.349C137.349 40.2236 137.654 38.9172 138.186 37.879L134.625 36.057ZM133.349 41.864C133.349 43.4801 133.564 44.9947 134.028 46.3845L137.822 45.1195C137.518 44.2053 137.349 43.1279 137.349 41.864H133.349ZM134.044 46.4313C134.543 47.8135 135.268 49.041 136.232 50.0846L139.171 47.3714C138.598 46.751 138.139 45.9945 137.806 45.0727L134.044 46.4313ZM136.258 50.1131C137.22 51.115 138.36 51.8912 139.656 52.4412L141.218 48.7588C140.403 48.4128 139.718 47.941 139.144 47.3429L136.258 50.1131ZM139.723 52.4681C141.071 52.9836 142.534 53.224 144.085 53.224V49.224C142.948 49.224 141.979 49.0484 141.151 48.7319L139.723 52.4681ZM173.367 59H171.367V61H173.367V59ZM173.367 24.824V22.824H171.367V24.824H173.367ZM182.967 24.824H184.967V22.824H182.967V24.824ZM182.967 59V61H184.967V59H182.967ZM163.143 32.984H161.143V34.984H163.143V32.984ZM163.143 24.824V22.824H161.143V24.824H163.143ZM193.239 24.824H195.239V22.824H193.239V24.824ZM193.239 32.984V34.984H195.239V32.984H193.239ZM175.367 59V24.824H171.367V59H175.367ZM173.367 26.824H182.967V22.824H173.367V26.824ZM180.967 24.824V59H184.967V24.824H180.967ZM182.967 57H173.367V61H182.967V57ZM165.143 32.984V24.824H161.143V32.984H165.143ZM163.143 26.824H193.239V22.824H163.143V26.824ZM191.239 24.824V32.984H195.239V24.824H191.239ZM193.239 30.984H163.143V34.984H193.239V30.984ZM204.539 59H202.539V61H204.539V59ZM204.539 24.824V22.824H202.539V24.824H204.539ZM214.139 24.824H216.139V22.824H214.139V24.824ZM214.139 59V61H216.139V59H214.139ZM194.315 32.984H192.315V34.984H194.315V32.984ZM194.315 24.824V22.824H192.315V24.824H194.315ZM224.411 24.824H226.411V22.824H224.411V24.824ZM224.411 32.984V34.984H226.411V32.984H224.411ZM206.539 59V24.824H202.539V59H206.539ZM204.539 26.824H214.139V22.824H204.539V26.824ZM212.139 24.824V59H216.139V24.824H212.139ZM214.139 57H204.539V61H214.139V57ZM196.315 32.984V24.824H192.315V32.984H196.315ZM194.315 26.824H224.411V22.824H194.315V26.824ZM222.411 24.824V32.984H226.411V24.824H222.411ZM224.411 30.984H194.315V34.984H224.411V30.984ZM228.02 59H226.02V61H228.02V59ZM228.02 24.824V22.824H226.02V24.824H228.02ZM237.62 24.824H239.62V22.824H237.62V24.824ZM237.62 59V61H239.62V59H237.62ZM235.796 59H233.796V61H235.796V59ZM235.796 51.032V49.032H233.796V51.032H235.796ZM254.132 51.032H256.132V49.032H254.132V51.032ZM254.132 59V61H256.132V59H254.132ZM235.796 45.464H233.796V47.464H235.796V45.464ZM235.796 37.688V35.688H233.796V37.688H235.796ZM252.356 37.688H254.356V35.688H252.356V37.688ZM252.356 45.464V47.464H254.356V45.464H252.356ZM235.796 32.792H233.796V34.792H235.796V32.792ZM235.796 24.824V22.824H233.796V24.824H235.796ZM253.844 24.824H255.844V22.824H253.844V24.824ZM253.844 32.792V34.792H255.844V32.792H253.844ZM230.02 59V24.824H226.02V59H230.02ZM228.02 26.824H237.62V22.824H228.02V26.824ZM235.62 24.824V59H239.62V24.824H235.62ZM237.62 57H228.02V61H237.62V57ZM237.796 59V51.032H233.796V59H237.796ZM235.796 53.032H254.132V49.032H235.796V53.032ZM252.132 51.032V59H256.132V51.032H252.132ZM254.132 57H235.796V61H254.132V57ZM237.796 45.464V37.688H233.796V45.464H237.796ZM235.796 39.688H252.356V35.688H235.796V39.688ZM250.356 37.688V45.464H254.356V37.688H250.356ZM252.356 43.464H235.796V47.464H252.356V43.464ZM237.796 32.792V24.824H233.796V32.792H237.796ZM235.796 26.824H253.844V22.824H235.796V26.824ZM251.844 24.824V32.792H255.844V24.824H251.844ZM253.844 30.792H235.796V34.792H253.844V30.792ZM266.452 45.368H264.452V47.368H266.452V45.368ZM266.452 38.744V36.744H264.452V38.744H266.452ZM275.236 37.784L273.89 36.3041L273.873 36.3197L273.856 36.3357L275.236 37.784ZM275.236 32.696L273.856 34.1443L273.873 34.1603L273.89 34.1759L275.236 32.696ZM266.452 31.736H264.452V33.736H266.452V31.736ZM266.452 24.824V22.824H264.452V24.824H266.452ZM280.036 26.12L280.904 24.3185L280.904 24.3185L280.036 26.12ZM284.26 29.72L282.596 30.8294L282.596 30.8294L284.26 29.72ZM284.212 40.472L282.564 39.3389L282.556 39.3507L282.548 39.3626L284.212 40.472ZM279.892 44.072L280.736 45.8852L280.736 45.8852L279.892 44.072ZM258.676 59H256.676V61H258.676V59ZM258.676 24.824V22.824H256.676V24.824H258.676ZM268.276 24.824H270.276V22.824H268.276V24.824ZM268.276 59V61H270.276V59H268.276ZM277.108 59L275.422 60.0759L276.012 61H277.108V59ZM267.796 44.408L267.372 42.4534L264.564 43.0618L266.11 45.4839L267.796 44.408ZM276.436 42.536L278.072 41.3862L277.309 40.3003L276.012 40.5814L276.436 42.536ZM288.004 59V61H291.853L289.64 57.8502L288.004 59ZM268.452 45.368V38.744H264.452V45.368H268.452ZM266.452 40.744H272.26V36.744H266.452V40.744ZM272.26 40.744C273.872 40.744 275.441 40.3504 276.615 39.2323L273.856 36.3357C273.686 36.4976 273.272 36.744 272.26 36.744V40.744ZM276.581 39.2639C277.75 38.2008 278.292 36.7906 278.292 35.24H274.292C274.292 35.8014 274.129 36.0872 273.89 36.3041L276.581 39.2639ZM278.292 35.24C278.292 33.6894 277.75 32.2792 276.581 31.2161L273.89 34.1759C274.129 34.3928 274.292 34.6786 274.292 35.24H278.292ZM276.615 31.2477C275.441 30.1296 273.872 29.736 272.26 29.736V33.736C273.272 33.736 273.686 33.9824 273.856 34.1443L276.615 31.2477ZM272.26 29.736H266.452V33.736H272.26V29.736ZM268.452 31.736V24.824H264.452V31.736H268.452ZM266.452 26.824H273.796V22.824H266.452V26.824ZM273.796 26.824C275.92 26.824 277.693 27.2107 279.167 27.9215L280.904 24.3185C278.795 23.3013 276.408 22.824 273.796 22.824V26.824ZM279.167 27.9215C280.663 28.6426 281.785 29.6142 282.596 30.8294L285.924 28.6106C284.686 26.7538 282.993 25.3254 280.904 24.3185L279.167 27.9215ZM282.596 30.8294C283.377 32.0014 283.796 33.398 283.796 35.096H287.796C287.796 32.698 287.191 30.5106 285.924 28.6106L282.596 30.8294ZM283.796 35.096C283.796 36.7812 283.368 38.1692 282.564 39.3389L285.86 41.6051C287.168 39.7028 287.796 37.5068 287.796 35.096H283.796ZM282.548 39.3626C281.749 40.5607 280.608 41.5323 279.048 42.2588L280.736 45.8852C282.887 44.8837 284.627 43.4553 285.876 41.5814L282.548 39.3626ZM279.048 42.2588C277.511 42.9744 275.619 43.368 273.316 43.368V47.368C276.069 47.368 278.561 46.8976 280.736 45.8852L279.048 42.2588ZM273.316 43.368H266.452V47.368H273.316V43.368ZM260.676 59V24.824H256.676V59H260.676ZM258.676 26.824H268.276V22.824H258.676V26.824ZM266.276 24.824V59H270.276V24.824H266.276ZM268.276 57H258.676V61H268.276V57ZM278.794 57.9241L269.482 43.3321L266.11 45.4839L275.422 60.0759L278.794 57.9241ZM268.219 46.3626L276.859 44.4906L276.012 40.5814L267.372 42.4534L268.219 46.3626ZM274.799 43.6858L286.367 60.1498L289.64 57.8502L278.072 41.3862L274.799 43.6858ZM288.004 57H277.108V61H288.004V57ZM299.513 47.24L297.783 48.2438L298.361 49.24H299.513V47.24ZM286.505 24.824V22.824H283.032L284.775 25.8278L286.505 24.824ZM297.545 24.824L299.306 23.8764L298.74 22.824H297.545V24.824ZM307.385 43.112V45.112H310.732L309.146 42.1644L307.385 43.112ZM299.129 43.112L297.367 42.1644L295.781 45.112H299.129V43.112ZM308.969 24.824V22.824H307.773L307.207 23.8764L308.969 24.824ZM319.769 24.824L321.495 25.8334L323.254 22.824H319.769V24.824ZM306.665 47.24V49.24H307.812L308.391 48.2494L306.665 47.24ZM298.409 59H296.409V61H298.409V59ZM298.409 43.736V41.736H296.409V43.736H298.409ZM308.009 43.736H310.009V41.736H308.009V43.736ZM308.009 59V61H310.009V59H308.009ZM301.242 46.2362L288.234 23.8202L284.775 25.8278L297.783 48.2438L301.242 46.2362ZM286.505 26.824H297.545V22.824H286.505V26.824ZM295.783 25.7716L305.623 44.0596L309.146 42.1644L299.306 23.8764L295.783 25.7716ZM307.385 41.112H299.129V45.112H307.385V41.112ZM300.89 44.0596L310.73 25.7716L307.207 23.8764L297.367 42.1644L300.89 44.0596ZM308.969 26.824H319.769V22.824H308.969V26.824ZM318.042 23.8146L304.938 46.2306L308.391 48.2494L321.495 25.8334L318.042 23.8146ZM306.665 45.24H299.513V49.24H306.665V45.24ZM300.409 59V43.736H296.409V59H300.409ZM298.409 45.736H308.009V41.736H298.409V45.736ZM306.009 43.736V59H310.009V43.736H306.009ZM308.009 57H298.409V61H308.009V57Z" fill="#5F2B00" mask="url(#path-8-outside-1_2001_9161)"/>
</g>
<defs>
<filter id="filter0_f_2001_9161" x="1.54443" y="2" width="376.911" height="84" filterUnits="userSpaceOnUse" color-interpolation-filters="sRGB">
<feFlood flood-opacity="0" result="BackgroundImageFix"/>
<feBlend mode="normal" in="SourceGraphic" in2="BackgroundImageFix" result="shape"/>
<feGaussianBlur stdDeviation="2" result="effect1_foregroundBlur_2001_9161"/>
</filter>
<filter id="filter1_f_2001_9161" x="0.960644" y="0.3" width="378.079" height="84.4" filterUnits="userSpaceOnUse" color-interpolation-filters="sRGB">
<feFlood flood-opacity="0" result="BackgroundImageFix"/>
<feBlend mode="normal" in="SourceGraphic" in2="BackgroundImageFix" result="shape"/>
<feGaussianBlur stdDeviation="0.6" result="effect1_foregroundBlur_2001_9161"/>
</filter>
<filter id="filter2_f_2001_9161" x="2.46064" y="1.8" width="375.079" height="81.4" filterUnits="userSpaceOnUse" color-interpolation-filters="sRGB">
<feFlood flood-opacity="0" result="BackgroundImageFix"/>
<feBlend mode="normal" in="SourceGraphic" in2="BackgroundImageFix" result="shape"/>
<feGaussianBlur stdDeviation="0.35" result="effect1_foregroundBlur_2001_9161"/>
</filter>
<filter id="filter3_dd_2001_9161" x="57.7633" y="22.052" width="269.591" height="47.72" filterUnits="userSpaceOnUse" color-interpolation-filters="sRGB">
<feFlood flood-opacity="0" result="BackgroundImageFix"/>
<feColorMatrix in="SourceAlpha" type="matrix" values="0 0 0 0 0 0 0 0 0 0 0 0 0 0 0 0 0 0 127 0" result="hardAlpha"/>
<feOffset dy="4"/>
<feGaussianBlur stdDeviation="2.05"/>
<feComposite in2="hardAlpha" operator="out"/>
<feColorMatrix type="matrix" values="0 0 0 0 0.3743 0 0 0 0 0.167686 0 0 0 0 0 0 0 0 1 0"/>
<feBlend mode="normal" in2="BackgroundImageFix" result="effect1_dropShadow_2001_9161"/>
<feColorMatrix in="SourceAlpha" type="matrix" values="0 0 0 0 0 0 0 0 0 0 0 0 0 0 0 0 0 0 127 0" result="hardAlpha"/>
<feOffset dy="4"/>
<feComposite in2="hardAlpha" operator="out"/>
<feColorMatrix type="matrix" values="0 0 0 0 0.372549 0 0 0 0 0.168627 0 0 0 0 0 0 0 0 1 0"/>
<feBlend mode="normal" in2="effect1_dropShadow_2001_9161" result="effect2_dropShadow_2001_9161"/>
<feBlend mode="normal" in="SourceGraphic" in2="effect2_dropShadow_2001_9161" result="shape"/>
</filter>
<linearGradient id="paint0_linear_2001_9161" x1="190" y1="0" x2="190" y2="86" gradientUnits="userSpaceOnUse">
<stop stop-color="#FFF8BF"/>
<stop offset="1" stop-color="#FCF191"/>
</linearGradient>
<linearGradient id="paint1_linear_2001_9161" x1="190" y1="6" x2="190" y2="82" gradientUnits="userSpaceOnUse">
<stop stop-color="#966905"/>
<stop offset="1" stop-color="#C09407"/>
</linearGradient>
<linearGradient id="paint2_linear_2001_9161" x1="190" y1="0" x2="190" y2="86" gradientUnits="userSpaceOnUse">
<stop stop-color="#BC8307"/>
<stop offset="1" stop-color="#FFD95E"/>
</linearGradient>
<linearGradient id="paint3_linear_2001_9161" x1="190" y1="0" x2="190" y2="86" gradientUnits="userSpaceOnUse">
<stop stop-color="#F6C424"/>
<stop offset="1" stop-color="#E8A208"/>
</linearGradient>
<linearGradient id="paint4_linear_2001_9161" x1="190" y1="3" x2="190" y2="82" gradientUnits="userSpaceOnUse">
<stop stop-color="#FFEAA6"/>
<stop offset="1" stop-color="#FFC340"/>
</linearGradient>
<linearGradient id="paint5_linear_2001_9161" x1="190" y1="3" x2="190" y2="82" gradientUnits="userSpaceOnUse">
<stop stop-color="#FFF2C8"/>
<stop offset="1" stop-color="#FFC340"/>
</linearGradient>
<linearGradient id="paint6_linear_2001_9161" x1="189.5" y1="19.5" x2="192" y2="71" gradientUnits="userSpaceOnUse">
<stop stop-color="#FFCE2B"/>
<stop offset="0.125" stop-color="#FFE590"/>
<stop offset="0.245" stop-color="#FFCE2B"/>
<stop offset="0.39" stop-color="#D6A20E"/>
<stop offset="0.435" stop-color="#FFCE2B"/>
<stop offset="0.555" stop-color="#E7A006"/>
<stop offset="0.66" stop-color="#FED34A"/>
<stop offset="0.82" stop-color="#D79300"/>
<stop offset="1" stop-color="#D79300"/>
</linearGradient>
</defs>
</svg>
