<svg width="813" height="811" fill="none" xmlns="http://www.w3.org/2000/svg"><g opacity=".4"><mask id="a" style="mask-type:alpha" maskUnits="userSpaceOnUse" x="-26" y="-47" width="867" height="862"><path d="m446.149 8.15-39.407 376.929 146.219-349.93-106.812-27zM367.312 762.239l39.43-377.16-146.31 350.142 106.88 27.018zM784.599 423.941l-377.857-38.862 350.679 145.282 27.178-106.42zM56.426 239.944 29.283 346.228l377.459 38.851L56.426 239.944z" fill="#FFA2AB"/><path d="M407.373 383.896 228.639-46.834 112.402 22.834l294.971 361.063zM702.658 745.366 407.372 383.897l178.861 431.016 116.425-69.547z" fill="#FFA2AB"/><path d="M771.106 90.293 407.372 383.896 840.27 206.518 771.106 90.293zM43.424 677.7l363.948-293.803-432.434 177.205L43.424 677.7z" fill="#FFA2AB"/></mask><g mask="url(#a)"><circle cx="405.09" cy="383.789" r="373.623" transform="rotate(14.256 405.09 383.789)" fill="url(#b)"/></g><g opacity=".54"><mask id="c" style="mask-type:alpha" maskUnits="userSpaceOnUse" x="-3" y="-24" width="820" height="816"><path d="m301.27 21.017 105.423 364.16 3.775-378.945L301.27 21.017zM512.182 749.558 406.693 385.177l-3.78 379.176 109.269-14.795zM771.657 280.347l-364.964 104.83 379.847 3.968-14.883-108.798zM27.238 381.209l14.863 108.659 364.592-104.691-379.455-3.968z" fill="#FFA2AB"/><path d="M406.831 383.845 78.897 51.125l-81.53 107.923L406.83 383.845zM816.742 608.902 406.831 383.846l328.161 332.937 81.75-107.881zM633.488-23.963 406.831 383.845 741.386 58.01 633.488-23.963z" fill="#FFA2AB"/><path d="m180.05 791.918 226.782-408.074L72.641 709.346l107.409 82.572z" fill="#FFA2AB"/></mask><g mask="url(#c)"><circle cx="404.526" cy="383.824" r="373.623" transform="rotate(-7.75 404.526 383.824)" fill="url(#d)"/></g></g></g><defs><radialGradient id="b" cx="0" cy="0" r="1" gradientUnits="userSpaceOnUse" gradientTransform="rotate(90 10.65 394.44) scale(373.623)"><stop stop-color="#AEAAFF"/><stop offset="1" stop-color="#487DFF" stop-opacity="0"/></radialGradient><radialGradient id="d" cx="0" cy="0" r="1" gradientUnits="userSpaceOnUse" gradientTransform="rotate(90 10.351 394.175) scale(373.623)"><stop stop-color="#AEAAFF"/><stop offset="1" stop-color="#487DFF" stop-opacity="0"/></radialGradient></defs></svg>