<svg width="813" height="811" viewBox="0 0 813 811" fill="none" xmlns="http://www.w3.org/2000/svg">
<g opacity="0.4">
<mask id="mask0_461_13778" style="mask-type:alpha" maskUnits="userSpaceOnUse" x="-26" y="-47" width="867" height="862">
<path d="M446.149 8.14923L406.742 385.079L552.961 35.1493L446.149 8.14923Z" fill="#FFA2AB"/>
<path d="M367.312 762.239L406.742 385.079L260.432 735.221L367.312 762.239Z" fill="#FFA2AB"/>
<path d="M784.599 423.941L406.742 385.079L757.421 530.361L784.599 423.941Z" fill="#FFA2AB"/>
<path d="M56.4263 239.944L29.2834 346.228L406.742 385.079L56.4263 239.944Z" fill="#FFA2AB"/>
<path d="M407.373 383.896L228.639 -46.8334L112.402 22.8334L407.373 383.896Z" fill="#FFA2AB"/>
<path d="M702.658 745.366L407.372 383.897L586.233 814.913L702.658 745.366Z" fill="#FFA2AB"/>
<path d="M771.106 90.293L407.372 383.896L840.27 206.518L771.106 90.293Z" fill="#FFA2AB"/>
<path d="M43.4236 677.7L407.372 383.897L-25.0623 561.102L43.4236 677.7Z" fill="#FFA2AB"/>
</mask>
<g mask="url(#mask0_461_13778)">
<circle cx="405.09" cy="383.789" r="373.623" transform="rotate(14.256 405.09 383.789)" fill="url(#paint0_radial_461_13778)"/>
</g>
<g opacity="0.54">
<mask id="mask1_461_13778" style="mask-type:alpha" maskUnits="userSpaceOnUse" x="-3" y="-24" width="820" height="816">
<path d="M301.27 21.0172L406.693 385.177L410.468 6.23222L301.27 21.0172Z" fill="#FFA2AB"/>
<path d="M512.182 749.558L406.693 385.177L402.913 764.353L512.182 749.558Z" fill="#FFA2AB"/>
<path d="M771.657 280.347L406.693 385.177L786.54 389.145L771.657 280.347Z" fill="#FFA2AB"/>
<path d="M27.2382 381.209L42.1014 489.868L406.693 385.177L27.2382 381.209Z" fill="#FFA2AB"/>
<path d="M406.831 383.845L78.8967 51.1252L-2.63371 159.048L406.831 383.845Z" fill="#FFA2AB"/>
<path d="M816.742 608.902L406.831 383.846L734.992 716.783L816.742 608.902Z" fill="#FFA2AB"/>
<path d="M633.488 -23.9633L406.831 383.845L741.386 58.0102L633.488 -23.9633Z" fill="#FFA2AB"/>
<path d="M180.05 791.918L406.832 383.844L72.6407 709.346L180.05 791.918Z" fill="#FFA2AB"/>
</mask>
<g mask="url(#mask1_461_13778)">
<circle cx="404.526" cy="383.824" r="373.623" transform="rotate(-7.74975 404.526 383.824)" fill="url(#paint1_radial_461_13778)"/>
</g>
</g>
</g>
<defs>
<radialGradient id="paint0_radial_461_13778" cx="0" cy="0" r="1" gradientUnits="userSpaceOnUse" gradientTransform="translate(405.09 383.789) rotate(90) scale(373.623)">
<stop stop-color="#AEAAFF"/>
<stop offset="1" stop-color="#487DFF" stop-opacity="0"/>
</radialGradient>
<radialGradient id="paint1_radial_461_13778" cx="0" cy="0" r="1" gradientUnits="userSpaceOnUse" gradientTransform="translate(404.526 383.824) rotate(90) scale(373.623)">
<stop stop-color="#AEAAFF"/>
<stop offset="1" stop-color="#487DFF" stop-opacity="0"/>
</radialGradient>
</defs>
</svg>
