<svg width="164" height="321" viewBox="0 0 164 321" fill="none" xmlns="http://www.w3.org/2000/svg">
<path d="M85.6086 304.708L91.5 278L105.174 260L112.811 304.996C113.433 308.658 110.611 312 106.896 312H91.4678C87.6331 312 84.7826 308.452 85.6086 304.708Z" fill="#D74600"/>
<path d="M85.6086 304.708L91.5 278L105.174 260L112.811 304.996C113.433 308.658 110.611 312 106.896 312H91.4678C87.6331 312 84.7826 308.452 85.6086 304.708Z" fill="#FFA600"/>
<mask id="mask0_2001_13118" style="mask-type:alpha" maskUnits="userSpaceOnUse" x="85" y="260" width="28" height="52">
<path d="M85.4101 304.664L91.5 278L105.105 260L112.801 304.988C113.427 308.653 110.604 312 106.886 312H91.2595C87.4065 312 84.5522 308.42 85.4101 304.664Z" fill="black"/>
<path d="M85.4101 304.664L91.5 278L105.105 260L112.801 304.988C113.427 308.653 110.604 312 106.886 312H91.2595C87.4065 312 84.5522 308.42 85.4101 304.664Z" fill="#FFA600"/>
</mask>
<g mask="url(#mask0_2001_13118)">
<g opacity="0.65" filter="url(#filter0_f_2001_13118)">
<path d="M81.5118 290.191C77.4546 293.766 78.874 302.096 80.598 305.367C90.7791 295.798 111.187 275.903 111.37 272.867C111.552 269.832 113.512 269.183 114.083 259.698C109.455 272.758 85.569 286.617 81.5118 290.191Z" fill="white"/>
</g>
<g filter="url(#filter1_f_2001_13118)">
<path d="M108.647 265.202C111.584 262.337 111.584 256.128 110.116 253.74C107.179 265.202 88.0901 276.664 86.6217 280.962C85.5834 284.002 85.1533 282.395 85.1533 289.559C88.0901 279.53 105.71 268.068 108.647 265.202Z" fill="#B74F00"/>
</g>
<g filter="url(#filter2_f_2001_13118)">
<path d="M110.391 316.659C114.536 316.393 118.729 292.464 119.238 289.724C114.658 304.076 87.0246 306.864 83.1811 304.076C80.5462 302.164 81.109 314.481 76.2701 319.868C85.2532 314.214 106.247 316.926 110.391 316.659Z" fill="#B74F00"/>
</g>
</g>
<path d="M95.0757 -290V264.61H102.779V-290H95.0757Z" fill="#FFA600"/>
<path d="M96.7732 262.378C90.1297 266.807 87.8461 275.768 92.3097 278C93.4255 275.768 97.4449 272.665 101.159 270.189C107.854 265.725 110.164 253.451 105.7 251.219C105.7 254.195 103.468 257.914 96.7732 262.378Z" fill="#FFA600"/>
<mask id="mask1_2001_13118" style="mask-type:alpha" maskUnits="userSpaceOnUse" x="90" y="251" width="18" height="27">
<path d="M96.7732 262.378C90.1297 266.807 87.8461 275.768 92.3097 278C93.4255 275.768 97.4449 272.665 101.159 270.189C107.854 265.725 110.164 253.451 105.7 251.219C105.7 254.195 103.468 257.914 96.7732 262.378Z" fill="#FFA600"/>
</mask>
<g mask="url(#mask1_2001_13118)">
<g opacity="0.65" filter="url(#filter3_f_2001_13118)">
<path d="M89.1347 267.957C86.903 270.189 88.0188 275.024 89.1347 276.884C94.7141 270.932 105.873 258.583 105.873 256.798C105.873 255.013 106.989 254.566 106.989 248.987C104.757 256.798 91.3665 265.725 89.1347 267.957Z" fill="white"/>
</g>
<g filter="url(#filter4_f_2001_13118)">
<path d="M107.932 264.609C110.164 262.378 110.164 257.542 109.048 255.682C106.816 264.609 92.3099 273.536 91.194 276.884C90.405 279.251 90.0781 278 90.0781 283.579C92.3099 275.768 105.7 266.841 107.932 264.609Z" fill="#B74F00"/>
</g>
</g>
<path d="M96.7732 251.219C90.1297 255.648 87.8461 264.61 92.3097 266.842C93.4255 264.61 97.4449 261.506 101.159 259.03C107.854 254.567 110.164 242.292 105.7 240.061C105.7 243.036 103.468 246.756 96.7732 251.219Z" fill="#FFA600"/>
<mask id="mask2_2001_13118" style="mask-type:alpha" maskUnits="userSpaceOnUse" x="90" y="240" width="18" height="27">
<path d="M96.7732 251.219C90.1297 255.648 87.8461 264.61 92.3097 266.842C93.4255 264.61 97.4449 261.506 101.159 259.03C107.854 254.567 110.164 242.292 105.7 240.061C105.7 243.036 103.468 246.756 96.7732 251.219Z" fill="#FFA600"/>
</mask>
<g mask="url(#mask2_2001_13118)">
<g opacity="0.65" filter="url(#filter5_f_2001_13118)">
<path d="M89.1347 256.798C86.903 259.03 88.0188 263.866 89.1347 265.725C94.7141 259.774 105.873 247.425 105.873 245.64C105.873 243.854 106.989 243.408 106.989 237.828C104.757 245.64 91.3665 254.567 89.1347 256.798Z" fill="white"/>
</g>
<g filter="url(#filter6_f_2001_13118)">
<path d="M107.932 253.451C110.164 251.219 110.164 246.384 109.048 244.524C106.816 253.451 92.3099 262.378 91.194 265.726C90.405 268.093 90.0781 266.842 90.0781 272.421C92.3099 264.61 105.7 255.683 107.932 253.451Z" fill="#B74F00"/>
</g>
</g>
<path d="M96.7732 240.061C90.1297 244.49 87.8461 253.451 92.3097 255.683C93.4255 253.451 97.4449 250.348 101.159 247.872C107.854 243.408 110.164 231.134 105.7 228.902C105.7 231.878 103.468 235.597 96.7732 240.061Z" fill="#FFA600"/>
<mask id="mask3_2001_13118" style="mask-type:alpha" maskUnits="userSpaceOnUse" x="90" y="228" width="18" height="28">
<path d="M96.7732 240.061C90.1297 244.49 87.8461 253.451 92.3097 255.683C93.4255 253.451 97.4449 250.348 101.159 247.872C107.854 243.408 110.164 231.134 105.7 228.902C105.7 231.878 103.468 235.597 96.7732 240.061Z" fill="#FFA600"/>
</mask>
<g mask="url(#mask3_2001_13118)">
<g opacity="0.65" filter="url(#filter7_f_2001_13118)">
<path d="M89.1347 245.64C86.903 247.872 88.0188 252.707 89.1347 254.567C94.7141 248.615 105.873 236.266 105.873 234.481C105.873 232.696 106.989 232.249 106.989 226.67C104.757 234.481 91.3665 243.408 89.1347 245.64Z" fill="white"/>
</g>
<g filter="url(#filter8_f_2001_13118)">
<path d="M107.932 242.293C110.164 240.061 110.164 235.225 109.048 233.366C106.816 242.293 92.3099 251.22 91.194 254.567C90.405 256.934 90.0781 255.683 90.0781 261.263C92.3099 253.451 105.7 244.524 107.932 242.293Z" fill="#B74F00"/>
</g>
</g>
<path d="M96.7732 228.902C90.1297 233.331 87.8461 242.293 92.3097 244.524C93.4255 242.293 97.4449 239.189 101.159 236.713C107.854 232.25 110.164 219.975 105.7 217.743C105.7 220.719 103.468 224.439 96.7732 228.902Z" fill="#FFA600"/>
<mask id="mask4_2001_13118" style="mask-type:alpha" maskUnits="userSpaceOnUse" x="90" y="217" width="18" height="28">
<path d="M96.7732 228.902C90.1297 233.331 87.8461 242.293 92.3097 244.524C93.4255 242.293 97.4449 239.189 101.159 236.713C107.854 232.25 110.164 219.975 105.7 217.743C105.7 220.719 103.468 224.439 96.7732 228.902Z" fill="#FFA600"/>
</mask>
<g mask="url(#mask4_2001_13118)">
<g opacity="0.65" filter="url(#filter9_f_2001_13118)">
<path d="M89.1347 234.481C86.903 236.713 88.0188 241.548 89.1347 243.408C94.7141 237.457 105.873 225.108 105.873 223.322C105.873 221.537 106.989 221.091 106.989 215.511C104.757 223.322 91.3665 232.249 89.1347 234.481Z" fill="white"/>
</g>
<g filter="url(#filter10_f_2001_13118)">
<path d="M107.932 231.134C110.164 228.902 110.164 224.067 109.048 222.207C106.816 231.134 92.3099 240.061 91.194 243.408C90.405 245.776 90.0781 244.524 90.0781 250.104C92.3099 242.293 105.7 233.366 107.932 231.134Z" fill="#B74F00"/>
</g>
</g>
<path d="M96.7732 217.744C90.1297 222.173 87.8461 231.134 92.3097 233.366C93.4255 231.134 97.4449 228.031 101.159 225.555C107.854 221.091 110.164 208.817 105.7 206.585C105.7 209.56 103.468 213.28 96.7732 217.744Z" fill="#FFA600"/>
<mask id="mask5_2001_13118" style="mask-type:alpha" maskUnits="userSpaceOnUse" x="90" y="206" width="18" height="28">
<path d="M96.7732 217.744C90.1297 222.173 87.8461 231.134 92.3097 233.366C93.4255 231.134 97.4449 228.031 101.159 225.555C107.854 221.091 110.164 208.817 105.7 206.585C105.7 209.56 103.468 213.28 96.7732 217.744Z" fill="#FFA600"/>
</mask>
<g mask="url(#mask5_2001_13118)">
<g opacity="0.65" filter="url(#filter11_f_2001_13118)">
<path d="M89.1347 223.323C86.903 225.554 88.0188 230.39 89.1347 232.25C94.7141 226.298 105.873 213.949 105.873 212.164C105.873 210.378 106.989 209.932 106.989 204.353C104.757 212.164 91.3665 221.091 89.1347 223.323Z" fill="white"/>
</g>
<g filter="url(#filter12_f_2001_13118)">
<path d="M107.932 219.975C110.164 217.744 110.164 212.908 109.048 211.048C106.816 219.975 92.3099 228.902 91.194 232.25C90.405 234.617 90.0781 233.366 90.0781 238.945C92.3099 231.134 105.7 222.207 107.932 219.975Z" fill="#B74F00"/>
</g>
</g>
<path d="M96.7732 206.585C90.1297 211.014 87.8461 219.976 92.3097 222.207C93.4255 219.976 97.4449 216.872 101.159 214.396C107.854 209.933 110.164 197.658 105.7 195.426C105.7 198.402 103.468 202.121 96.7732 206.585Z" fill="#FFA600"/>
<mask id="mask6_2001_13118" style="mask-type:alpha" maskUnits="userSpaceOnUse" x="90" y="195" width="18" height="28">
<path d="M96.7732 206.585C90.1297 211.014 87.8461 219.976 92.3097 222.207C93.4255 219.976 97.4449 216.872 101.159 214.396C107.854 209.933 110.164 197.658 105.7 195.426C105.7 198.402 103.468 202.121 96.7732 206.585Z" fill="#FFA600"/>
</mask>
<g mask="url(#mask6_2001_13118)">
<g opacity="0.65" filter="url(#filter13_f_2001_13118)">
<path d="M89.1347 212.164C86.903 214.396 88.0188 219.231 89.1347 221.091C94.7141 215.14 105.873 202.791 105.873 201.005C105.873 199.22 106.989 198.773 106.989 193.194C104.757 201.005 91.3665 209.932 89.1347 212.164Z" fill="white"/>
</g>
<g filter="url(#filter14_f_2001_13118)">
<path d="M107.932 208.817C110.164 206.585 110.164 201.749 109.048 199.89C106.816 208.817 92.3099 217.744 91.194 221.091C90.405 223.458 90.0781 222.207 90.0781 227.787C92.3099 219.975 105.7 211.048 107.932 208.817Z" fill="#B74F00"/>
</g>
</g>
<path d="M96.7732 195.426C90.1297 199.855 87.8461 208.817 92.3097 211.049C93.4255 208.817 97.4449 205.713 101.159 203.237C107.854 198.774 110.164 186.499 105.7 184.268C105.7 187.243 103.468 190.963 96.7732 195.426Z" fill="#FFA600"/>
<mask id="mask7_2001_13118" style="mask-type:alpha" maskUnits="userSpaceOnUse" x="90" y="184" width="18" height="28">
<path d="M96.7732 195.426C90.1297 199.855 87.8461 208.817 92.3097 211.049C93.4255 208.817 97.4449 205.713 101.159 203.237C107.854 198.774 110.164 186.499 105.7 184.268C105.7 187.243 103.468 190.963 96.7732 195.426Z" fill="#FFA600"/>
</mask>
<g mask="url(#mask7_2001_13118)">
<g opacity="0.65" filter="url(#filter15_f_2001_13118)">
<path d="M89.1347 201.005C86.903 203.237 88.0188 208.072 89.1347 209.932C94.7141 203.981 105.873 191.632 105.873 189.846C105.873 188.061 106.989 187.615 106.989 182.035C104.757 189.846 91.3665 198.773 89.1347 201.005Z" fill="white"/>
</g>
<g filter="url(#filter16_f_2001_13118)">
<path d="M107.932 197.658C110.164 195.426 110.164 190.591 109.048 188.731C106.816 197.658 92.3099 206.585 91.194 209.933C90.405 212.3 90.0781 211.049 90.0781 216.628C92.3099 208.817 105.7 199.89 107.932 197.658Z" fill="#B74F00"/>
</g>
</g>
<path d="M96.7732 184.268C90.1297 188.697 87.8461 197.658 92.3097 199.89C93.4255 197.658 97.4449 194.555 101.159 192.079C107.854 187.615 110.164 175.341 105.7 173.109C105.7 176.085 103.468 179.804 96.7732 184.268Z" fill="#FFA600"/>
<mask id="mask8_2001_13118" style="mask-type:alpha" maskUnits="userSpaceOnUse" x="90" y="173" width="18" height="27">
<path d="M96.7732 184.268C90.1297 188.697 87.8461 197.658 92.3097 199.89C93.4255 197.658 97.4449 194.555 101.159 192.079C107.854 187.615 110.164 175.341 105.7 173.109C105.7 176.085 103.468 179.804 96.7732 184.268Z" fill="#FFA600"/>
</mask>
<g mask="url(#mask8_2001_13118)">
<g opacity="0.65" filter="url(#filter17_f_2001_13118)">
<path d="M89.1347 189.847C86.903 192.078 88.0188 196.914 89.1347 198.774C94.7141 192.822 105.873 180.473 105.873 178.688C105.873 176.903 106.989 176.456 106.989 170.877C104.757 178.688 91.3665 187.615 89.1347 189.847Z" fill="white"/>
</g>
<g filter="url(#filter18_f_2001_13118)">
<path d="M107.932 186.5C110.164 184.268 110.164 179.432 109.048 177.573C106.816 186.5 92.3099 195.427 91.194 198.774C90.405 201.141 90.0781 199.89 90.0781 205.469C92.3099 197.658 105.7 188.731 107.932 186.5Z" fill="#B74F00"/>
</g>
</g>
<path d="M96.7732 173.109C90.1297 177.538 87.8461 186.5 92.3097 188.731C93.4255 186.5 97.4449 183.396 101.159 180.92C107.854 176.457 110.164 164.182 105.7 161.95C105.7 164.926 103.468 168.646 96.7732 173.109Z" fill="#FFA600"/>
<mask id="mask9_2001_13118" style="mask-type:alpha" maskUnits="userSpaceOnUse" x="90" y="161" width="18" height="28">
<path d="M96.7732 173.109C90.1297 177.538 87.8461 186.5 92.3097 188.731C93.4255 186.5 97.4449 183.396 101.159 180.92C107.854 176.457 110.164 164.182 105.7 161.95C105.7 164.926 103.468 168.646 96.7732 173.109Z" fill="#FFA600"/>
</mask>
<g mask="url(#mask9_2001_13118)">
<g opacity="0.65" filter="url(#filter19_f_2001_13118)">
<path d="M89.1347 178.688C86.903 180.92 88.0188 185.755 89.1347 187.615C94.7141 181.664 105.873 169.315 105.873 167.529C105.873 165.744 106.989 165.298 106.989 159.718C104.757 167.529 91.3665 176.456 89.1347 178.688Z" fill="white"/>
</g>
<g filter="url(#filter20_f_2001_13118)">
<path d="M107.932 175.341C110.164 173.109 110.164 168.274 109.048 166.414C106.816 175.341 92.3099 184.268 91.194 187.616C90.405 189.983 90.0781 188.731 90.0781 194.311C92.3099 186.5 105.7 177.573 107.932 175.341Z" fill="#B74F00"/>
</g>
</g>
<path d="M96.7732 161.951C90.1297 166.38 87.8461 175.341 92.3097 177.573C93.4255 175.341 97.4449 172.238 101.159 169.762C107.854 165.298 110.164 153.024 105.7 150.792C105.7 153.767 103.468 157.487 96.7732 161.951Z" fill="#FFA600"/>
<mask id="mask10_2001_13118" style="mask-type:alpha" maskUnits="userSpaceOnUse" x="90" y="150" width="18" height="28">
<path d="M96.7732 161.951C90.1297 166.38 87.8461 175.341 92.3097 177.573C93.4255 175.341 97.4449 172.238 101.159 169.762C107.854 165.298 110.164 153.024 105.7 150.792C105.7 153.767 103.468 157.487 96.7732 161.951Z" fill="#FFA600"/>
</mask>
<g mask="url(#mask10_2001_13118)">
<g opacity="0.65" filter="url(#filter21_f_2001_13118)">
<path d="M89.1347 167.53C86.903 169.761 88.0188 174.597 89.1347 176.457C94.7141 170.505 105.873 158.156 105.873 156.371C105.873 154.585 106.989 154.139 106.989 148.56C104.757 156.371 91.3665 165.298 89.1347 167.53Z" fill="white"/>
</g>
<g filter="url(#filter22_f_2001_13118)">
<path d="M107.932 164.182C110.164 161.951 110.164 157.115 109.048 155.255C106.816 164.182 92.3099 173.109 91.194 176.457C90.405 178.824 90.0781 177.573 90.0781 183.152C92.3099 175.341 105.7 166.414 107.932 164.182Z" fill="#B74F00"/>
</g>
</g>
<path d="M96.7732 150.792C90.1297 155.221 87.8461 164.182 92.3097 166.414C93.4255 164.182 97.4449 161.079 101.159 158.603C107.854 154.14 110.164 141.865 105.7 139.633C105.7 142.609 103.468 146.328 96.7732 150.792Z" fill="#FFA600"/>
<mask id="mask11_2001_13118" style="mask-type:alpha" maskUnits="userSpaceOnUse" x="90" y="139" width="18" height="28">
<path d="M96.7732 150.792C90.1297 155.221 87.8461 164.182 92.3097 166.414C93.4255 164.182 97.4449 161.079 101.159 158.603C107.854 154.14 110.164 141.865 105.7 139.633C105.7 142.609 103.468 146.328 96.7732 150.792Z" fill="#FFA600"/>
</mask>
<g mask="url(#mask11_2001_13118)">
<g opacity="0.65" filter="url(#filter23_f_2001_13118)">
<path d="M89.1347 156.371C86.903 158.603 88.0188 163.438 89.1347 165.298C94.7141 159.347 105.873 146.998 105.873 145.212C105.873 143.427 106.989 142.98 106.989 137.401C104.757 145.212 91.3665 154.139 89.1347 156.371Z" fill="white"/>
</g>
<g filter="url(#filter24_f_2001_13118)">
<path d="M107.932 153.024C110.164 150.792 110.164 145.957 109.048 144.097C106.816 153.024 92.3099 161.951 91.194 165.298C90.405 167.666 90.0781 166.414 90.0781 171.994C92.3099 164.183 105.7 155.256 107.932 153.024Z" fill="#B74F00"/>
</g>
</g>
<path d="M96.7732 139.633C90.1297 144.063 87.8461 153.024 92.3097 155.256C93.4255 153.024 97.4449 149.92 101.159 147.445C107.854 142.981 110.164 130.706 105.7 128.475C105.7 131.45 103.468 135.17 96.7732 139.633Z" fill="#FFA600"/>
<mask id="mask12_2001_13118" style="mask-type:alpha" maskUnits="userSpaceOnUse" x="90" y="128" width="18" height="28">
<path d="M96.7732 139.633C90.1297 144.063 87.8461 153.024 92.3097 155.256C93.4255 153.024 97.4449 149.92 101.159 147.445C107.854 142.981 110.164 130.706 105.7 128.475C105.7 131.45 103.468 135.17 96.7732 139.633Z" fill="#FFA600"/>
</mask>
<g mask="url(#mask12_2001_13118)">
<g opacity="0.65" filter="url(#filter25_f_2001_13118)">
<path d="M89.1347 145.212C86.903 147.444 88.0188 152.28 89.1347 154.139C94.7141 148.188 105.873 135.839 105.873 134.054C105.873 132.268 106.989 131.822 106.989 126.242C104.757 134.054 91.3665 142.981 89.1347 145.212Z" fill="white"/>
</g>
<g filter="url(#filter26_f_2001_13118)">
<path d="M107.932 141.865C110.164 139.633 110.164 134.798 109.048 132.938C106.816 141.865 92.3099 150.792 91.194 154.14C90.405 156.507 90.0781 155.256 90.0781 160.835C92.3099 153.024 105.7 144.097 107.932 141.865Z" fill="#B74F00"/>
</g>
</g>
<path d="M96.7732 128.475C90.1297 132.904 87.8461 141.865 92.3097 144.097C93.4255 141.865 97.4449 138.762 101.159 136.286C107.854 131.822 110.164 119.548 105.7 117.316C105.7 120.292 103.468 124.011 96.7732 128.475Z" fill="#FFA600"/>
<mask id="mask13_2001_13118" style="mask-type:alpha" maskUnits="userSpaceOnUse" x="90" y="117" width="18" height="28">
<path d="M96.7732 128.475C90.1297 132.904 87.8461 141.865 92.3097 144.097C93.4255 141.865 97.4449 138.762 101.159 136.286C107.854 131.822 110.164 119.548 105.7 117.316C105.7 120.292 103.468 124.011 96.7732 128.475Z" fill="#FFA600"/>
</mask>
<g mask="url(#mask13_2001_13118)">
<g opacity="0.65" filter="url(#filter27_f_2001_13118)">
<path d="M89.1347 134.054C86.903 136.286 88.0188 141.121 89.1347 142.981C94.7141 137.029 105.873 124.68 105.873 122.895C105.873 121.11 106.989 120.663 106.989 115.084C104.757 122.895 91.3665 131.822 89.1347 134.054Z" fill="white"/>
</g>
<g filter="url(#filter28_f_2001_13118)">
<path d="M107.932 130.707C110.164 128.475 110.164 123.639 109.048 121.78C106.816 130.707 92.3099 139.634 91.194 142.981C90.405 145.348 90.0781 144.097 90.0781 149.677C92.3099 141.865 105.7 132.938 107.932 130.707Z" fill="#B74F00"/>
</g>
</g>
<path d="M96.7732 117.316C90.1297 121.745 87.8461 130.707 92.3097 132.939C93.4255 130.707 97.4449 127.603 101.159 125.127C107.854 120.664 110.164 108.389 105.7 106.157C105.7 109.133 103.468 112.853 96.7732 117.316Z" fill="#FFA600"/>
<mask id="mask14_2001_13118" style="mask-type:alpha" maskUnits="userSpaceOnUse" x="90" y="106" width="18" height="27">
<path d="M96.7732 117.316C90.1297 121.745 87.8461 130.707 92.3097 132.939C93.4255 130.707 97.4449 127.603 101.159 125.127C107.854 120.664 110.164 108.389 105.7 106.157C105.7 109.133 103.468 112.853 96.7732 117.316Z" fill="#FFA600"/>
</mask>
<g mask="url(#mask14_2001_13118)">
<g opacity="0.65" filter="url(#filter29_f_2001_13118)">
<path d="M89.1347 122.895C86.903 125.127 88.0188 129.962 89.1347 131.822C94.7141 125.871 105.873 113.522 105.873 111.736C105.873 109.951 106.989 109.505 106.989 103.925C104.757 111.736 91.3665 120.663 89.1347 122.895Z" fill="white"/>
</g>
<g filter="url(#filter30_f_2001_13118)">
<path d="M107.932 119.548C110.164 117.316 110.164 112.481 109.048 110.621C106.816 119.548 92.3099 128.475 91.194 131.823C90.405 134.19 90.0781 132.938 90.0781 138.518C92.3099 130.707 105.7 121.78 107.932 119.548Z" fill="#B74F00"/>
</g>
</g>
<path d="M96.7732 106.158C90.1297 110.587 87.8461 119.548 92.3097 121.78C93.4255 119.548 97.4449 116.445 101.159 113.969C107.854 109.505 110.164 97.2306 105.7 94.9988C105.7 97.9745 103.468 101.694 96.7732 106.158Z" fill="#FFA600"/>
<mask id="mask15_2001_13118" style="mask-type:alpha" maskUnits="userSpaceOnUse" x="90" y="94" width="18" height="28">
<path d="M96.7732 106.158C90.1297 110.587 87.8461 119.548 92.3097 121.78C93.4255 119.548 97.4449 116.445 101.159 113.969C107.854 109.505 110.164 97.2306 105.7 94.9988C105.7 97.9745 103.468 101.694 96.7732 106.158Z" fill="#FFA600"/>
</mask>
<g mask="url(#mask15_2001_13118)">
<g opacity="0.65" filter="url(#filter31_f_2001_13118)">
<path d="M89.1347 111.736C86.903 113.968 88.0188 118.804 89.1347 120.664C94.7141 114.712 105.873 102.363 105.873 100.578C105.873 98.7923 106.989 98.346 106.989 92.7666C104.757 100.578 91.3665 109.505 89.1347 111.736Z" fill="white"/>
</g>
<g filter="url(#filter32_f_2001_13118)">
<path d="M107.932 108.389C110.164 106.158 110.164 101.322 109.048 99.4623C106.816 108.389 92.3099 117.316 91.194 120.664C90.405 123.031 90.0781 121.78 90.0781 127.359C92.3099 119.548 105.7 110.621 107.932 108.389Z" fill="#B74F00"/>
</g>
</g>
<path d="M96.7732 94.999C90.1297 99.4281 87.8461 108.39 92.3097 110.621C93.4255 108.39 97.4449 105.286 101.159 102.81C107.854 98.3466 110.164 86.072 105.7 83.8402C105.7 86.8159 103.468 90.5355 96.7732 94.999Z" fill="#FFA600"/>
<mask id="mask16_2001_13118" style="mask-type:alpha" maskUnits="userSpaceOnUse" x="90" y="83" width="18" height="28">
<path d="M96.7732 94.999C90.1297 99.4281 87.8461 108.39 92.3097 110.621C93.4255 108.39 97.4449 105.286 101.159 102.81C107.854 98.3466 110.164 86.072 105.7 83.8402C105.7 86.8159 103.468 90.5355 96.7732 94.999Z" fill="#FFA600"/>
</mask>
<g mask="url(#mask16_2001_13118)">
<g opacity="0.65" filter="url(#filter33_f_2001_13118)">
<path d="M89.1347 100.578C86.903 102.81 88.0188 107.645 89.1347 109.505C94.7141 103.554 105.873 91.2045 105.873 89.4191C105.873 87.6337 106.989 87.1874 106.989 81.608C104.757 89.4191 91.3665 98.3462 89.1347 100.578Z" fill="white"/>
</g>
<g filter="url(#filter34_f_2001_13118)">
<path d="M107.932 97.2307C110.164 94.999 110.164 90.1635 109.048 88.3037C106.816 97.2307 92.3099 106.158 91.194 109.505C90.405 111.873 90.0781 110.621 90.0781 116.201C92.3099 108.39 105.7 99.4625 107.932 97.2307Z" fill="#B74F00"/>
</g>
</g>
<path d="M96.7732 83.8404C90.1297 88.2695 87.8461 97.2309 92.3097 99.4627C93.4255 97.2309 97.4449 94.1274 101.159 91.6515C107.854 87.188 110.164 74.9133 105.7 72.6816C105.7 75.6573 103.468 79.3768 96.7732 83.8404Z" fill="#FFA600"/>
<mask id="mask17_2001_13118" style="mask-type:alpha" maskUnits="userSpaceOnUse" x="90" y="72" width="18" height="28">
<path d="M96.7732 83.8404C90.1297 88.2695 87.8461 97.2309 92.3097 99.4627C93.4255 97.2309 97.4449 94.1274 101.159 91.6515C107.854 87.188 110.164 74.9133 105.7 72.6816C105.7 75.6573 103.468 79.3768 96.7732 83.8404Z" fill="#FFA600"/>
</mask>
<g mask="url(#mask17_2001_13118)">
<g opacity="0.65" filter="url(#filter35_f_2001_13118)">
<path d="M89.1347 89.4194C86.903 91.6512 88.0188 96.4866 89.1347 98.3464C94.7141 92.3951 105.873 80.046 105.873 78.2606C105.873 76.4752 106.989 76.0289 106.989 70.4495C104.757 78.2606 91.3665 87.1877 89.1347 89.4194Z" fill="white"/>
</g>
<g filter="url(#filter36_f_2001_13118)">
<path d="M107.932 86.0722C110.164 83.8404 110.164 79.0049 109.048 77.1451C106.816 86.0722 92.3099 94.9992 91.194 98.3468C90.405 100.714 90.0781 99.4627 90.0781 105.042C92.3099 97.2309 105.7 88.3039 107.932 86.0722Z" fill="#B74F00"/>
</g>
</g>
<path d="M96.7732 72.6821C90.1297 77.1112 87.8461 86.0726 92.3097 88.3044C93.4255 86.0726 97.4449 82.9691 101.159 80.4932C107.854 76.0297 110.164 63.7551 105.7 61.5233C105.7 64.499 103.468 68.2186 96.7732 72.6821Z" fill="#FFA600"/>
<mask id="mask18_2001_13118" style="mask-type:alpha" maskUnits="userSpaceOnUse" x="90" y="61" width="18" height="28">
<path d="M96.7732 72.6821C90.1297 77.1112 87.8461 86.0726 92.3097 88.3044C93.4255 86.0726 97.4449 82.9691 101.159 80.4932C107.854 76.0297 110.164 63.7551 105.7 61.5233C105.7 64.499 103.468 68.2186 96.7732 72.6821Z" fill="#FFA600"/>
</mask>
<g mask="url(#mask18_2001_13118)">
<g opacity="0.65" filter="url(#filter37_f_2001_13118)">
<path d="M89.1347 78.2608C86.903 80.4926 88.0188 85.3281 89.1347 87.1879C94.7141 81.2365 105.873 68.8875 105.873 67.1021C105.873 65.3167 106.989 64.8703 106.989 59.2909C104.757 67.1021 91.3665 76.0291 89.1347 78.2608Z" fill="white"/>
</g>
<g filter="url(#filter38_f_2001_13118)">
<path d="M107.932 74.9136C110.164 72.6818 110.164 67.8464 109.048 65.9866C106.816 74.9136 92.3099 83.8406 91.194 87.1883C90.405 89.5554 90.0781 88.3041 90.0781 93.8835C92.3099 86.0724 105.7 77.1454 107.932 74.9136Z" fill="#B74F00"/>
</g>
</g>
<path d="M96.7732 61.5232C90.1297 65.9523 87.8461 74.9137 92.3097 77.1455C93.4255 74.9137 97.4449 71.8102 101.159 69.3343C107.854 64.8708 110.164 52.5961 105.7 50.3644C105.7 53.3401 103.468 57.0596 96.7732 61.5232Z" fill="#FFA600"/>
<mask id="mask19_2001_13118" style="mask-type:alpha" maskUnits="userSpaceOnUse" x="90" y="50" width="18" height="28">
<path d="M96.7732 61.5232C90.1297 65.9523 87.8461 74.9137 92.3097 77.1455C93.4255 74.9137 97.4449 71.8102 101.159 69.3343C107.854 64.8708 110.164 52.5961 105.7 50.3644C105.7 53.3401 103.468 57.0596 96.7732 61.5232Z" fill="#FFA600"/>
</mask>
<g mask="url(#mask19_2001_13118)">
<g opacity="0.65" filter="url(#filter39_f_2001_13118)">
<path d="M89.1347 67.1023C86.903 69.334 88.0188 74.1695 89.1347 76.0293C94.7141 70.0779 105.873 57.7289 105.873 55.9435C105.873 54.1581 106.989 53.7117 106.989 48.1324C104.757 55.9435 91.3665 64.8705 89.1347 67.1023Z" fill="white"/>
</g>
<g filter="url(#filter40_f_2001_13118)">
<path d="M107.932 63.755C110.164 61.5232 110.164 56.6877 109.048 54.8279C106.816 63.755 92.3099 72.682 91.194 76.0296C90.405 78.3968 90.0781 77.1455 90.0781 82.7249C92.3099 74.9137 105.7 65.9867 107.932 63.755Z" fill="#B74F00"/>
</g>
</g>
<path d="M96.7732 50.3646C90.1297 54.7937 87.8461 63.7551 92.3097 65.9869C93.4255 63.7551 97.4449 60.6516 101.159 58.1757C107.854 53.7122 110.164 41.4376 105.7 39.2058C105.7 42.1815 103.468 45.9011 96.7732 50.3646Z" fill="#FFA600"/>
<mask id="mask20_2001_13118" style="mask-type:alpha" maskUnits="userSpaceOnUse" x="90" y="39" width="18" height="27">
<path d="M96.7732 50.3646C90.1297 54.7937 87.8461 63.7551 92.3097 65.9869C93.4255 63.7551 97.4449 60.6516 101.159 58.1757C107.854 53.7122 110.164 41.4376 105.7 39.2058C105.7 42.1815 103.468 45.9011 96.7732 50.3646Z" fill="#FFA600"/>
</mask>
<g mask="url(#mask20_2001_13118)">
<g opacity="0.65" filter="url(#filter41_f_2001_13118)">
<path d="M89.1347 55.9436C86.903 58.1753 88.0188 63.0108 89.1347 64.8706C94.7141 58.9193 105.873 46.5702 105.873 44.7848C105.873 42.9994 106.989 42.553 106.989 36.9737C104.757 44.7848 91.3665 53.7118 89.1347 55.9436Z" fill="white"/>
</g>
<g filter="url(#filter42_f_2001_13118)">
<path d="M107.932 52.5963C110.164 50.3645 110.164 45.529 109.048 43.6693C106.816 52.5963 92.3099 61.5233 91.194 64.8709C90.405 67.2381 90.0781 65.9868 90.0781 71.5662C92.3099 63.7551 105.7 54.828 107.932 52.5963Z" fill="#B74F00"/>
</g>
</g>
<path d="M96.7732 39.2062C90.1297 43.6353 87.8461 52.5967 92.3097 54.8285C93.4255 52.5967 97.4449 49.4932 101.159 47.0173C107.854 42.5538 110.164 30.2792 105.7 28.0474C105.7 31.0231 103.468 34.7427 96.7732 39.2062Z" fill="#FFA600"/>
<mask id="mask21_2001_13118" style="mask-type:alpha" maskUnits="userSpaceOnUse" x="90" y="28" width="18" height="27">
<path d="M96.7732 39.2062C90.1297 43.6353 87.8461 52.5967 92.3097 54.8285C93.4255 52.5967 97.4449 49.4932 101.159 47.0173C107.854 42.5538 110.164 30.2792 105.7 28.0474C105.7 31.0231 103.468 34.7427 96.7732 39.2062Z" fill="#FFA600"/>
</mask>
<g mask="url(#mask21_2001_13118)">
<g opacity="0.65" filter="url(#filter43_f_2001_13118)">
<path d="M89.1347 44.7853C86.903 47.017 88.0188 51.8525 89.1347 53.7123C94.7141 47.7609 105.873 35.4119 105.873 33.6265C105.873 31.8411 106.989 31.3947 106.989 25.8153C104.757 33.6265 91.3665 42.5535 89.1347 44.7853Z" fill="white"/>
</g>
<g filter="url(#filter44_f_2001_13118)">
<path d="M107.932 41.4379C110.164 39.2062 110.164 34.3707 109.048 32.5109C106.816 41.4379 92.3099 50.365 91.194 53.7126C90.405 56.0797 90.0781 54.8285 90.0781 60.4079C92.3099 52.5967 105.7 43.6697 107.932 41.4379Z" fill="#B74F00"/>
</g>
</g>
<path d="M96.7732 28.0476C90.1297 32.4768 87.8461 41.4382 92.3097 43.6699C93.4255 41.4382 97.4449 38.3347 101.159 35.8588C107.854 31.3953 110.164 19.1206 105.7 16.8889C105.7 19.8645 103.468 23.5841 96.7732 28.0476Z" fill="#FFA600"/>
<mask id="mask22_2001_13118" style="mask-type:alpha" maskUnits="userSpaceOnUse" x="90" y="16" width="18" height="28">
<path d="M96.7732 28.0476C90.1297 32.4768 87.8461 41.4382 92.3097 43.6699C93.4255 41.4382 97.4449 38.3347 101.159 35.8588C107.854 31.3953 110.164 19.1206 105.7 16.8889C105.7 19.8645 103.468 23.5841 96.7732 28.0476Z" fill="#FFA600"/>
</mask>
<g mask="url(#mask22_2001_13118)">
<g opacity="0.65" filter="url(#filter45_f_2001_13118)">
<path d="M89.1347 33.6266C86.903 35.8583 88.0188 40.6938 89.1347 42.5536C94.7141 36.6022 105.873 24.2532 105.873 22.4678C105.873 20.6824 106.989 20.236 106.989 14.6566C104.757 22.4678 91.3665 31.3948 89.1347 33.6266Z" fill="white"/>
</g>
<g filter="url(#filter46_f_2001_13118)">
<path d="M107.932 30.2793C110.164 28.0475 110.164 23.212 109.048 21.3522C106.816 30.2793 92.3099 39.2063 91.194 42.5539C90.405 44.921 90.0781 43.6698 90.0781 49.2492C92.3099 41.438 105.7 32.511 107.932 30.2793Z" fill="#B74F00"/>
</g>
</g>
<path d="M96.7732 16.8889C90.1297 21.3181 87.8461 30.2795 92.3097 32.5112C93.4255 30.2795 97.4449 27.176 101.159 24.7001C107.854 20.2366 110.164 7.96192 105.7 5.73016C105.7 8.70584 103.468 12.4254 96.7732 16.8889Z" fill="#FFA600"/>
<mask id="mask23_2001_13118" style="mask-type:alpha" maskUnits="userSpaceOnUse" x="90" y="5" width="18" height="28">
<path d="M96.7732 16.8889C90.1297 21.3181 87.8461 30.2795 92.3097 32.5112C93.4255 30.2795 97.4449 27.176 101.159 24.7001C107.854 20.2366 110.164 7.96192 105.7 5.73016C105.7 8.70584 103.468 12.4254 96.7732 16.8889Z" fill="#FFA600"/>
</mask>
<g mask="url(#mask23_2001_13118)">
<g opacity="0.65" filter="url(#filter47_f_2001_13118)">
<path d="M89.1347 22.4679C86.903 24.6996 88.0188 29.5351 89.1347 31.3949C94.7141 25.4435 105.873 13.0945 105.873 11.3091C105.873 9.52369 106.989 9.07734 106.989 3.49795C104.757 11.3091 91.3665 20.2361 89.1347 22.4679Z" fill="white"/>
</g>
<g filter="url(#filter48_f_2001_13118)">
<path d="M107.932 19.1206C110.164 16.8889 110.164 12.0534 109.048 10.1936C106.816 19.1206 92.3099 28.0476 91.194 31.3953C90.405 33.7624 90.0781 32.5112 90.0781 38.0905C92.3099 30.2794 105.7 21.3524 107.932 19.1206Z" fill="#B74F00"/>
</g>
</g>
<path d="M96.7732 5.73044C90.1297 10.1596 87.8461 19.121 92.3097 21.3527C93.4255 19.121 97.4449 16.0175 101.159 13.5416C107.854 9.07807 110.164 -3.19659 105.7 -5.42834C105.7 -2.45267 103.468 1.26692 96.7732 5.73044Z" fill="#FFA600"/>
<mask id="mask24_2001_13118" style="mask-type:alpha" maskUnits="userSpaceOnUse" x="90" y="-6" width="18" height="28">
<path d="M96.7732 5.73044C90.1297 10.1596 87.8461 19.121 92.3097 21.3527C93.4255 19.121 97.4449 16.0175 101.159 13.5416C107.854 9.07807 110.164 -3.19659 105.7 -5.42834C105.7 -2.45267 103.468 1.26692 96.7732 5.73044Z" fill="#FFA600"/>
</mask>
<g mask="url(#mask24_2001_13118)">
<g opacity="0.65" filter="url(#filter49_f_2001_13118)">
<path d="M89.1347 11.3094C86.903 13.5411 88.0188 18.3766 89.1347 20.2364C94.7141 14.285 105.873 1.93599 105.873 0.150587C105.873 -1.63482 106.989 -2.08117 106.989 -7.66056C104.757 0.150587 91.3665 9.07761 89.1347 11.3094Z" fill="white"/>
</g>
<g filter="url(#filter50_f_2001_13118)">
<path d="M107.932 7.96218C110.164 5.73042 110.164 0.894953 109.048 -0.964844C106.816 7.96218 92.3099 16.8892 91.194 20.2368C90.405 22.604 90.0781 21.3527 90.0781 26.9321C92.3099 19.121 105.7 10.1939 107.932 7.96218Z" fill="#B74F00"/>
</g>
</g>
<path d="M96.7732 -5.42826C90.1297 -0.999139 87.8461 7.96228 92.3097 10.194C93.4255 7.96228 97.4449 4.85878 101.159 2.38289C107.854 -2.08062 110.164 -14.3553 105.7 -16.587C105.7 -13.6114 103.468 -9.89177 96.7732 -5.42826Z" fill="#FFA600"/>
<mask id="mask25_2001_13118" style="mask-type:alpha" maskUnits="userSpaceOnUse" x="90" y="-17" width="18" height="28">
<path d="M96.7732 -5.42826C90.1297 -0.999139 87.8461 7.96228 92.3097 10.194C93.4255 7.96228 97.4449 4.85878 101.159 2.38289C107.854 -2.08062 110.164 -14.3553 105.7 -16.587C105.7 -13.6114 103.468 -9.89177 96.7732 -5.42826Z" fill="#FFA600"/>
</mask>
<g mask="url(#mask25_2001_13118)">
<g opacity="0.65" filter="url(#filter51_f_2001_13118)">
<path d="M89.1347 0.150797C86.903 2.38255 88.0188 7.21802 89.1347 9.07782C94.7141 3.12647 105.873 -9.22258 105.873 -11.008C105.873 -12.7934 106.989 -13.2397 106.989 -18.8191C104.757 -11.008 91.3665 -2.08096 89.1347 0.150797Z" fill="white"/>
</g>
<g filter="url(#filter52_f_2001_13118)">
<path d="M107.932 -3.19645C110.164 -5.42821 110.164 -10.2637 109.048 -12.1235C106.816 -3.19645 92.3099 5.73057 91.194 9.07821C90.405 11.4453 90.0781 10.1941 90.0781 15.7735C92.3099 7.96233 105.7 -0.964695 107.932 -3.19645Z" fill="#B74F00"/>
</g>
</g>
<path opacity="0.5" d="M127.408 314.991C127.408 314.991 138.563 308.278 143.094 307.283L140.696 306.593L123.421 313.949L127.408 314.991Z" fill="#9C0E5B"/>
<path opacity="0.5" d="M48.27 312.662C48.27 312.662 65.8902 315.7 73.6338 319.096L74.899 318.539L52.3041 311.409L48.27 312.662Z" fill="#9C0E5B"/>
<path d="M161.595 290.23C161.595 290.23 158.674 297.878 149.069 304.166C139.55 310.394 116.161 315.03 116.161 315.03L110.225 312.948C110.225 312.948 113.981 307.303 119.473 300.902L120.831 302.275C120.831 302.275 136.126 300.179 138.55 289.043C138.908 287.378 139.073 285.826 139.087 284.393C140.822 283.657 142.531 283.206 144.167 283.126C158.734 282.363 161.595 290.23 161.595 290.23Z" fill="url(#paint0_linear_2001_13118)"/>
<path d="M82.3445 316.874L79.1715 318.738C79.1715 318.738 74.7333 317.763 67.672 316.689C51.4429 314.208 21.2568 311.157 0.0264965 318.168C0.00662412 318.181 0 318.181 0 318.181C0 318.181 11.4399 303.065 16.0966 299.801C20.7732 296.531 46.4947 299.012 59.988 304.889C73.3224 310.699 82.3445 316.874 82.3445 316.874Z" fill="url(#paint1_linear_2001_13118)"/>
<path d="M164 290.111C163.795 291.802 161.529 296.319 151.732 303.894C143.83 310.009 127.157 313.432 121.288 314.48C119.963 314.712 119.188 314.831 119.188 314.831L114.578 314.022C115.386 313.963 116.181 313.903 116.969 313.823C146.453 311.044 161.297 294.827 158.8 290.21C156.217 285.421 151.633 283.491 138.557 289.029C127.084 293.885 113.73 308.868 110.815 312.251C110.431 312.689 110.225 312.941 110.225 312.941L102.29 311.217C102.29 311.217 98.4014 279.737 122.235 273.17C131.86 270.524 145.3 276.712 154.283 282.357C160.118 286.005 164.08 289.441 164 290.111Z" fill="url(#paint2_linear_2001_13118)"/>
<g style="mix-blend-mode:multiply" opacity="0.5">
<path d="M70.4739 315.501L67.6653 316.695C51.4362 314.215 21.2501 311.163 0.0197754 318.174C0.490088 317.916 8.41254 315.282 24.1448 312.782C40.407 310.188 70.4739 315.501 70.4739 315.501Z" fill="#AF4057"/>
</g>
<path d="M84.1462 310.016L80.4698 309.903C80.4698 309.903 77.0186 306.627 71.2623 301.804C57.9081 290.588 31.7759 270.676 8.33314 264.514C8.31326 264.514 8.30664 264.514 8.30664 264.514C8.30664 264.514 16.7325 250.492 31.6434 249.007C37.5853 248.416 60.8094 274.503 70.0766 287.252C79.1317 299.715 84.1462 310.016 84.1462 310.016Z" fill="url(#paint3_linear_2001_13118)"/>
<g style="mix-blend-mode:multiply" opacity="0.5">
<path d="M74.3293 302.322L71.269 301.811C57.9148 290.595 31.7826 270.683 8.33984 264.521C8.91614 264.567 17.7262 266.869 33.6639 273.794C49.8665 280.831 74.3293 302.322 74.3293 302.322Z" fill="#AF4057"/>
</g>
<path d="M84.6429 315.515L79.1714 318.745C79.1714 318.745 55.3776 318.844 44.938 314.626C34.3924 310.354 30.186 303.423 30.186 303.423C30.186 303.423 31.6168 295.125 46.0641 292.969C48.7932 292.565 51.8999 293.135 55.1325 294.316C56.5302 298.654 60.9551 307.734 73.733 307.038C74.2232 307.011 74.7001 306.965 75.144 306.899C80.7546 311.528 84.6429 315.515 84.6429 315.515Z" fill="url(#paint4_linear_2001_13118)"/>
<g style="mix-blend-mode:multiply" opacity="0.6">
<path d="M127.408 314.991C127.408 314.991 121.003 318.387 106.377 320.542C93.9499 322.373 78.7012 318.168 78.7012 318.168C78.7012 318.168 84.5172 314.931 87.3258 313.81C90.141 312.689 112.531 313.167 112.531 313.167L127.408 314.991Z" fill="#A1003D"/>
</g>
<path d="M92.1349 312.238L86.0407 314.898L84.643 315.508C84.643 315.508 66.3339 300.471 52.6154 297.659C38.7975 294.82 34.6309 297.632 32.9351 302.852C31.2526 308.013 49.6544 321.544 80.5559 317.438L76.1707 319.149C76.1707 319.149 53.0989 320.31 42.2817 314.878C32.2727 309.863 28.8878 306.109 27.9935 304.252C27.9074 304.079 27.8412 303.92 27.8014 303.781C27.298 302.163 49.4093 277.687 65.857 278.828C90.4325 280.539 92.1349 312.238 92.1349 312.238Z" fill="url(#paint5_linear_2001_13118)"/>
<g style="mix-blend-mode:color-burn" opacity="0.92">
<path d="M106.761 309.439C106.761 309.439 114.736 303.582 117.028 296.266C119.353 288.857 119.221 282.304 115.611 283.425C112.007 284.546 104.078 302.899 104.721 308.139L106.761 309.439Z" fill="url(#paint6_linear_2001_13118)"/>
</g>
<g style="mix-blend-mode:color-burn" opacity="0.92">
<path d="M89.5781 308.126C89.5781 308.126 84.0072 293.434 75.7866 289.461C67.4932 285.461 65.9962 285.992 65.5325 287.179C65.0688 288.366 73.8855 298.886 77.8732 304.099C81.8146 309.26 87.0476 311.11 87.0476 311.11L89.5781 308.126Z" fill="url(#paint7_linear_2001_13118)"/>
</g>
<g style="mix-blend-mode:multiply" opacity="0.8">
<path d="M164 290.111C163.795 291.802 161.529 296.319 151.732 303.894C143.83 310.009 124.785 313.817 118.916 314.865L114.578 314.029C145.956 311.243 161.297 294.833 158.8 290.223C156.217 285.435 151.633 283.504 138.557 289.043C127.084 293.898 113.73 308.882 110.815 312.265L109.245 311.422C109.245 311.422 128.899 285.342 148.89 282.642C150.845 282.377 152.633 282.297 154.283 282.363C160.118 286.005 164.08 289.441 164 290.111Z" fill="#F09868"/>
</g>
<g style="mix-blend-mode:multiply" opacity="0.8">
<path d="M86.0077 314.274L86.0342 314.898L84.6365 315.508C84.6365 315.508 66.3274 300.471 52.6089 297.659C38.791 294.82 34.6244 297.632 32.9286 302.852C31.2461 308.013 49.6479 321.544 80.5494 317.438L76.1643 319.149C76.1643 319.149 53.0924 320.31 42.2753 314.878C32.2728 309.863 28.8879 306.109 27.9937 304.252C28.7687 302.468 33.3261 294.097 48.9126 295.225C65.1881 296.399 86.0077 314.274 86.0077 314.274Z" fill="#F09868"/>
</g>
<path opacity="0.36" d="M111.431 279.286C111.431 279.286 120.387 276.44 134.98 287.875C134.98 287.875 143.498 282.921 148.897 282.635C148.897 282.635 133.469 274.059 126.335 274.132C119.188 274.205 111.431 279.286 111.431 279.286Z" fill="#FFF8CD"/>
<path opacity="0.36" d="M67.1155 278.941C67.1155 278.941 50.5419 284.115 40.1487 295.55C40.1487 295.55 53.1187 293.732 63.6246 299.635C63.6246 299.635 61.3922 283.511 79.4032 284.035C79.3966 284.042 72.1233 279.564 67.1155 278.941Z" fill="#FFF8CD"/>
<path d="M111.12 318.612C110.722 319.057 88.3527 320.204 87.9221 320.032C87.5909 319.886 86.743 317.816 86.0342 316.045C85.8222 315.548 86.074 315.302 86.0342 314.904C85.968 314.221 85.8819 312.57 87.0411 311.097L87.0477 311.091C88.9621 308.663 91.5587 306.016 91.5587 306.016C91.5587 306.016 100.11 307.078 101.866 306.328C101.866 306.328 111.981 312.762 112.517 313.173C113.061 313.584 111.53 318.174 111.12 318.612Z" fill="url(#paint8_linear_2001_13118)"/>
<path opacity="0.3" d="M111.12 318.612C110.722 319.057 88.3525 320.204 87.9219 320.032C87.5907 319.886 86.0804 317.485 85.948 315.581C85.7294 312.483 86.9416 311.409 87.0343 311.117L86.0606 314.891C99.0372 319.581 112.511 313.167 112.511 313.167C113.06 313.584 111.53 318.174 111.12 318.612Z" fill="#B11F3C"/>
<path opacity="0.66" d="M87.041 311.117C87.041 311.117 92.1416 312.782 99.2029 312.954C106.251 313.127 109.245 311.415 109.245 311.415C109.245 311.415 111.862 312.357 112.524 313.167C112.524 313.167 107.814 315.919 99.236 316.483C90.6578 317.053 86.0341 314.898 86.0341 314.898C85.5903 314.029 87.041 311.117 87.041 311.117Z" fill="#FFF8CD"/>
<defs>
<filter id="filter0_f_2001_13118" x="76.4279" y="257.243" width="40.1105" height="50.5784" filterUnits="userSpaceOnUse" color-interpolation-filters="sRGB">
<feFlood flood-opacity="0" result="BackgroundImageFix"/>
<feBlend mode="normal" in="SourceGraphic" in2="BackgroundImageFix" result="shape"/>
<feGaussianBlur stdDeviation="1.22747" result="effect1_foregroundBlur_2001_13118"/>
</filter>
<filter id="filter1_f_2001_13118" x="82.6984" y="251.285" width="30.8366" height="40.7282" filterUnits="userSpaceOnUse" color-interpolation-filters="sRGB">
<feFlood flood-opacity="0" result="BackgroundImageFix"/>
<feBlend mode="normal" in="SourceGraphic" in2="BackgroundImageFix" result="shape"/>
<feGaussianBlur stdDeviation="1.22747" result="effect1_foregroundBlur_2001_13118"/>
</filter>
<filter id="filter2_f_2001_13118" x="73.8151" y="287.269" width="47.8779" height="35.0538" filterUnits="userSpaceOnUse" color-interpolation-filters="sRGB">
<feFlood flood-opacity="0" result="BackgroundImageFix"/>
<feBlend mode="normal" in="SourceGraphic" in2="BackgroundImageFix" result="shape"/>
<feGaussianBlur stdDeviation="1.22747" result="effect1_foregroundBlur_2001_13118"/>
</filter>
<filter id="filter3_f_2001_13118" x="85.3913" y="246.532" width="24.0524" height="32.8068" filterUnits="userSpaceOnUse" color-interpolation-filters="sRGB">
<feFlood flood-opacity="0" result="BackgroundImageFix"/>
<feBlend mode="normal" in="SourceGraphic" in2="BackgroundImageFix" result="shape"/>
<feGaussianBlur stdDeviation="1.22747" result="effect1_foregroundBlur_2001_13118"/>
</filter>
<filter id="filter4_f_2001_13118" x="87.6232" y="253.228" width="24.6127" height="32.8068" filterUnits="userSpaceOnUse" color-interpolation-filters="sRGB">
<feFlood flood-opacity="0" result="BackgroundImageFix"/>
<feBlend mode="normal" in="SourceGraphic" in2="BackgroundImageFix" result="shape"/>
<feGaussianBlur stdDeviation="1.22747" result="effect1_foregroundBlur_2001_13118"/>
</filter>
<filter id="filter5_f_2001_13118" x="85.3913" y="235.373" width="24.0524" height="32.8068" filterUnits="userSpaceOnUse" color-interpolation-filters="sRGB">
<feFlood flood-opacity="0" result="BackgroundImageFix"/>
<feBlend mode="normal" in="SourceGraphic" in2="BackgroundImageFix" result="shape"/>
<feGaussianBlur stdDeviation="1.22747" result="effect1_foregroundBlur_2001_13118"/>
</filter>
<filter id="filter6_f_2001_13118" x="87.6232" y="242.069" width="24.6127" height="32.8068" filterUnits="userSpaceOnUse" color-interpolation-filters="sRGB">
<feFlood flood-opacity="0" result="BackgroundImageFix"/>
<feBlend mode="normal" in="SourceGraphic" in2="BackgroundImageFix" result="shape"/>
<feGaussianBlur stdDeviation="1.22747" result="effect1_foregroundBlur_2001_13118"/>
</filter>
<filter id="filter7_f_2001_13118" x="85.3913" y="224.215" width="24.0524" height="32.8068" filterUnits="userSpaceOnUse" color-interpolation-filters="sRGB">
<feFlood flood-opacity="0" result="BackgroundImageFix"/>
<feBlend mode="normal" in="SourceGraphic" in2="BackgroundImageFix" result="shape"/>
<feGaussianBlur stdDeviation="1.22747" result="effect1_foregroundBlur_2001_13118"/>
</filter>
<filter id="filter8_f_2001_13118" x="87.6232" y="230.911" width="24.6127" height="32.8068" filterUnits="userSpaceOnUse" color-interpolation-filters="sRGB">
<feFlood flood-opacity="0" result="BackgroundImageFix"/>
<feBlend mode="normal" in="SourceGraphic" in2="BackgroundImageFix" result="shape"/>
<feGaussianBlur stdDeviation="1.22747" result="effect1_foregroundBlur_2001_13118"/>
</filter>
<filter id="filter9_f_2001_13118" x="85.3913" y="213.056" width="24.0524" height="32.8068" filterUnits="userSpaceOnUse" color-interpolation-filters="sRGB">
<feFlood flood-opacity="0" result="BackgroundImageFix"/>
<feBlend mode="normal" in="SourceGraphic" in2="BackgroundImageFix" result="shape"/>
<feGaussianBlur stdDeviation="1.22747" result="effect1_foregroundBlur_2001_13118"/>
</filter>
<filter id="filter10_f_2001_13118" x="87.6232" y="219.752" width="24.6127" height="32.8068" filterUnits="userSpaceOnUse" color-interpolation-filters="sRGB">
<feFlood flood-opacity="0" result="BackgroundImageFix"/>
<feBlend mode="normal" in="SourceGraphic" in2="BackgroundImageFix" result="shape"/>
<feGaussianBlur stdDeviation="1.22747" result="effect1_foregroundBlur_2001_13118"/>
</filter>
<filter id="filter11_f_2001_13118" x="85.3913" y="201.898" width="24.0524" height="32.8068" filterUnits="userSpaceOnUse" color-interpolation-filters="sRGB">
<feFlood flood-opacity="0" result="BackgroundImageFix"/>
<feBlend mode="normal" in="SourceGraphic" in2="BackgroundImageFix" result="shape"/>
<feGaussianBlur stdDeviation="1.22747" result="effect1_foregroundBlur_2001_13118"/>
</filter>
<filter id="filter12_f_2001_13118" x="87.6232" y="208.593" width="24.6127" height="32.8068" filterUnits="userSpaceOnUse" color-interpolation-filters="sRGB">
<feFlood flood-opacity="0" result="BackgroundImageFix"/>
<feBlend mode="normal" in="SourceGraphic" in2="BackgroundImageFix" result="shape"/>
<feGaussianBlur stdDeviation="1.22747" result="effect1_foregroundBlur_2001_13118"/>
</filter>
<filter id="filter13_f_2001_13118" x="85.3913" y="190.739" width="24.0524" height="32.8068" filterUnits="userSpaceOnUse" color-interpolation-filters="sRGB">
<feFlood flood-opacity="0" result="BackgroundImageFix"/>
<feBlend mode="normal" in="SourceGraphic" in2="BackgroundImageFix" result="shape"/>
<feGaussianBlur stdDeviation="1.22747" result="effect1_foregroundBlur_2001_13118"/>
</filter>
<filter id="filter14_f_2001_13118" x="87.6232" y="197.435" width="24.6127" height="32.8068" filterUnits="userSpaceOnUse" color-interpolation-filters="sRGB">
<feFlood flood-opacity="0" result="BackgroundImageFix"/>
<feBlend mode="normal" in="SourceGraphic" in2="BackgroundImageFix" result="shape"/>
<feGaussianBlur stdDeviation="1.22747" result="effect1_foregroundBlur_2001_13118"/>
</filter>
<filter id="filter15_f_2001_13118" x="85.3913" y="179.58" width="24.0524" height="32.8068" filterUnits="userSpaceOnUse" color-interpolation-filters="sRGB">
<feFlood flood-opacity="0" result="BackgroundImageFix"/>
<feBlend mode="normal" in="SourceGraphic" in2="BackgroundImageFix" result="shape"/>
<feGaussianBlur stdDeviation="1.22747" result="effect1_foregroundBlur_2001_13118"/>
</filter>
<filter id="filter16_f_2001_13118" x="87.6232" y="186.276" width="24.6127" height="32.8068" filterUnits="userSpaceOnUse" color-interpolation-filters="sRGB">
<feFlood flood-opacity="0" result="BackgroundImageFix"/>
<feBlend mode="normal" in="SourceGraphic" in2="BackgroundImageFix" result="shape"/>
<feGaussianBlur stdDeviation="1.22747" result="effect1_foregroundBlur_2001_13118"/>
</filter>
<filter id="filter17_f_2001_13118" x="85.3913" y="168.422" width="24.0524" height="32.8068" filterUnits="userSpaceOnUse" color-interpolation-filters="sRGB">
<feFlood flood-opacity="0" result="BackgroundImageFix"/>
<feBlend mode="normal" in="SourceGraphic" in2="BackgroundImageFix" result="shape"/>
<feGaussianBlur stdDeviation="1.22747" result="effect1_foregroundBlur_2001_13118"/>
</filter>
<filter id="filter18_f_2001_13118" x="87.6232" y="175.118" width="24.6127" height="32.8068" filterUnits="userSpaceOnUse" color-interpolation-filters="sRGB">
<feFlood flood-opacity="0" result="BackgroundImageFix"/>
<feBlend mode="normal" in="SourceGraphic" in2="BackgroundImageFix" result="shape"/>
<feGaussianBlur stdDeviation="1.22747" result="effect1_foregroundBlur_2001_13118"/>
</filter>
<filter id="filter19_f_2001_13118" x="85.3913" y="157.263" width="24.0524" height="32.8068" filterUnits="userSpaceOnUse" color-interpolation-filters="sRGB">
<feFlood flood-opacity="0" result="BackgroundImageFix"/>
<feBlend mode="normal" in="SourceGraphic" in2="BackgroundImageFix" result="shape"/>
<feGaussianBlur stdDeviation="1.22747" result="effect1_foregroundBlur_2001_13118"/>
</filter>
<filter id="filter20_f_2001_13118" x="87.6232" y="163.959" width="24.6127" height="32.8068" filterUnits="userSpaceOnUse" color-interpolation-filters="sRGB">
<feFlood flood-opacity="0" result="BackgroundImageFix"/>
<feBlend mode="normal" in="SourceGraphic" in2="BackgroundImageFix" result="shape"/>
<feGaussianBlur stdDeviation="1.22747" result="effect1_foregroundBlur_2001_13118"/>
</filter>
<filter id="filter21_f_2001_13118" x="85.3913" y="146.105" width="24.0524" height="32.8068" filterUnits="userSpaceOnUse" color-interpolation-filters="sRGB">
<feFlood flood-opacity="0" result="BackgroundImageFix"/>
<feBlend mode="normal" in="SourceGraphic" in2="BackgroundImageFix" result="shape"/>
<feGaussianBlur stdDeviation="1.22747" result="effect1_foregroundBlur_2001_13118"/>
</filter>
<filter id="filter22_f_2001_13118" x="87.6232" y="152.8" width="24.6127" height="32.8068" filterUnits="userSpaceOnUse" color-interpolation-filters="sRGB">
<feFlood flood-opacity="0" result="BackgroundImageFix"/>
<feBlend mode="normal" in="SourceGraphic" in2="BackgroundImageFix" result="shape"/>
<feGaussianBlur stdDeviation="1.22747" result="effect1_foregroundBlur_2001_13118"/>
</filter>
<filter id="filter23_f_2001_13118" x="85.3913" y="134.946" width="24.0524" height="32.8068" filterUnits="userSpaceOnUse" color-interpolation-filters="sRGB">
<feFlood flood-opacity="0" result="BackgroundImageFix"/>
<feBlend mode="normal" in="SourceGraphic" in2="BackgroundImageFix" result="shape"/>
<feGaussianBlur stdDeviation="1.22747" result="effect1_foregroundBlur_2001_13118"/>
</filter>
<filter id="filter24_f_2001_13118" x="87.6232" y="141.642" width="24.6127" height="32.8068" filterUnits="userSpaceOnUse" color-interpolation-filters="sRGB">
<feFlood flood-opacity="0" result="BackgroundImageFix"/>
<feBlend mode="normal" in="SourceGraphic" in2="BackgroundImageFix" result="shape"/>
<feGaussianBlur stdDeviation="1.22747" result="effect1_foregroundBlur_2001_13118"/>
</filter>
<filter id="filter25_f_2001_13118" x="85.3913" y="123.788" width="24.0524" height="32.8068" filterUnits="userSpaceOnUse" color-interpolation-filters="sRGB">
<feFlood flood-opacity="0" result="BackgroundImageFix"/>
<feBlend mode="normal" in="SourceGraphic" in2="BackgroundImageFix" result="shape"/>
<feGaussianBlur stdDeviation="1.22747" result="effect1_foregroundBlur_2001_13118"/>
</filter>
<filter id="filter26_f_2001_13118" x="87.6232" y="130.483" width="24.6127" height="32.8068" filterUnits="userSpaceOnUse" color-interpolation-filters="sRGB">
<feFlood flood-opacity="0" result="BackgroundImageFix"/>
<feBlend mode="normal" in="SourceGraphic" in2="BackgroundImageFix" result="shape"/>
<feGaussianBlur stdDeviation="1.22747" result="effect1_foregroundBlur_2001_13118"/>
</filter>
<filter id="filter27_f_2001_13118" x="85.3913" y="112.629" width="24.0524" height="32.8068" filterUnits="userSpaceOnUse" color-interpolation-filters="sRGB">
<feFlood flood-opacity="0" result="BackgroundImageFix"/>
<feBlend mode="normal" in="SourceGraphic" in2="BackgroundImageFix" result="shape"/>
<feGaussianBlur stdDeviation="1.22747" result="effect1_foregroundBlur_2001_13118"/>
</filter>
<filter id="filter28_f_2001_13118" x="87.6232" y="119.325" width="24.6127" height="32.8068" filterUnits="userSpaceOnUse" color-interpolation-filters="sRGB">
<feFlood flood-opacity="0" result="BackgroundImageFix"/>
<feBlend mode="normal" in="SourceGraphic" in2="BackgroundImageFix" result="shape"/>
<feGaussianBlur stdDeviation="1.22747" result="effect1_foregroundBlur_2001_13118"/>
</filter>
<filter id="filter29_f_2001_13118" x="85.3913" y="101.47" width="24.0524" height="32.8068" filterUnits="userSpaceOnUse" color-interpolation-filters="sRGB">
<feFlood flood-opacity="0" result="BackgroundImageFix"/>
<feBlend mode="normal" in="SourceGraphic" in2="BackgroundImageFix" result="shape"/>
<feGaussianBlur stdDeviation="1.22747" result="effect1_foregroundBlur_2001_13118"/>
</filter>
<filter id="filter30_f_2001_13118" x="87.6232" y="108.166" width="24.6127" height="32.8068" filterUnits="userSpaceOnUse" color-interpolation-filters="sRGB">
<feFlood flood-opacity="0" result="BackgroundImageFix"/>
<feBlend mode="normal" in="SourceGraphic" in2="BackgroundImageFix" result="shape"/>
<feGaussianBlur stdDeviation="1.22747" result="effect1_foregroundBlur_2001_13118"/>
</filter>
<filter id="filter31_f_2001_13118" x="85.3913" y="90.3116" width="24.0524" height="32.8068" filterUnits="userSpaceOnUse" color-interpolation-filters="sRGB">
<feFlood flood-opacity="0" result="BackgroundImageFix"/>
<feBlend mode="normal" in="SourceGraphic" in2="BackgroundImageFix" result="shape"/>
<feGaussianBlur stdDeviation="1.22747" result="effect1_foregroundBlur_2001_13118"/>
</filter>
<filter id="filter32_f_2001_13118" x="87.6232" y="97.0073" width="24.6127" height="32.8068" filterUnits="userSpaceOnUse" color-interpolation-filters="sRGB">
<feFlood flood-opacity="0" result="BackgroundImageFix"/>
<feBlend mode="normal" in="SourceGraphic" in2="BackgroundImageFix" result="shape"/>
<feGaussianBlur stdDeviation="1.22747" result="effect1_foregroundBlur_2001_13118"/>
</filter>
<filter id="filter33_f_2001_13118" x="85.3913" y="79.153" width="24.0524" height="32.8068" filterUnits="userSpaceOnUse" color-interpolation-filters="sRGB">
<feFlood flood-opacity="0" result="BackgroundImageFix"/>
<feBlend mode="normal" in="SourceGraphic" in2="BackgroundImageFix" result="shape"/>
<feGaussianBlur stdDeviation="1.22747" result="effect1_foregroundBlur_2001_13118"/>
</filter>
<filter id="filter34_f_2001_13118" x="87.6232" y="85.8488" width="24.6127" height="32.8068" filterUnits="userSpaceOnUse" color-interpolation-filters="sRGB">
<feFlood flood-opacity="0" result="BackgroundImageFix"/>
<feBlend mode="normal" in="SourceGraphic" in2="BackgroundImageFix" result="shape"/>
<feGaussianBlur stdDeviation="1.22747" result="effect1_foregroundBlur_2001_13118"/>
</filter>
<filter id="filter35_f_2001_13118" x="85.3913" y="67.9945" width="24.0524" height="32.8068" filterUnits="userSpaceOnUse" color-interpolation-filters="sRGB">
<feFlood flood-opacity="0" result="BackgroundImageFix"/>
<feBlend mode="normal" in="SourceGraphic" in2="BackgroundImageFix" result="shape"/>
<feGaussianBlur stdDeviation="1.22747" result="effect1_foregroundBlur_2001_13118"/>
</filter>
<filter id="filter36_f_2001_13118" x="87.6232" y="74.6902" width="24.6127" height="32.8068" filterUnits="userSpaceOnUse" color-interpolation-filters="sRGB">
<feFlood flood-opacity="0" result="BackgroundImageFix"/>
<feBlend mode="normal" in="SourceGraphic" in2="BackgroundImageFix" result="shape"/>
<feGaussianBlur stdDeviation="1.22747" result="effect1_foregroundBlur_2001_13118"/>
</filter>
<filter id="filter37_f_2001_13118" x="85.3913" y="56.836" width="24.0524" height="32.8068" filterUnits="userSpaceOnUse" color-interpolation-filters="sRGB">
<feFlood flood-opacity="0" result="BackgroundImageFix"/>
<feBlend mode="normal" in="SourceGraphic" in2="BackgroundImageFix" result="shape"/>
<feGaussianBlur stdDeviation="1.22747" result="effect1_foregroundBlur_2001_13118"/>
</filter>
<filter id="filter38_f_2001_13118" x="87.6232" y="63.5316" width="24.6127" height="32.8068" filterUnits="userSpaceOnUse" color-interpolation-filters="sRGB">
<feFlood flood-opacity="0" result="BackgroundImageFix"/>
<feBlend mode="normal" in="SourceGraphic" in2="BackgroundImageFix" result="shape"/>
<feGaussianBlur stdDeviation="1.22747" result="effect1_foregroundBlur_2001_13118"/>
</filter>
<filter id="filter39_f_2001_13118" x="85.3913" y="45.6774" width="24.0524" height="32.8068" filterUnits="userSpaceOnUse" color-interpolation-filters="sRGB">
<feFlood flood-opacity="0" result="BackgroundImageFix"/>
<feBlend mode="normal" in="SourceGraphic" in2="BackgroundImageFix" result="shape"/>
<feGaussianBlur stdDeviation="1.22747" result="effect1_foregroundBlur_2001_13118"/>
</filter>
<filter id="filter40_f_2001_13118" x="87.6232" y="52.373" width="24.6127" height="32.8068" filterUnits="userSpaceOnUse" color-interpolation-filters="sRGB">
<feFlood flood-opacity="0" result="BackgroundImageFix"/>
<feBlend mode="normal" in="SourceGraphic" in2="BackgroundImageFix" result="shape"/>
<feGaussianBlur stdDeviation="1.22747" result="effect1_foregroundBlur_2001_13118"/>
</filter>
<filter id="filter41_f_2001_13118" x="85.3913" y="34.5187" width="24.0524" height="32.8068" filterUnits="userSpaceOnUse" color-interpolation-filters="sRGB">
<feFlood flood-opacity="0" result="BackgroundImageFix"/>
<feBlend mode="normal" in="SourceGraphic" in2="BackgroundImageFix" result="shape"/>
<feGaussianBlur stdDeviation="1.22747" result="effect1_foregroundBlur_2001_13118"/>
</filter>
<filter id="filter42_f_2001_13118" x="87.6232" y="41.2143" width="24.6127" height="32.8068" filterUnits="userSpaceOnUse" color-interpolation-filters="sRGB">
<feFlood flood-opacity="0" result="BackgroundImageFix"/>
<feBlend mode="normal" in="SourceGraphic" in2="BackgroundImageFix" result="shape"/>
<feGaussianBlur stdDeviation="1.22747" result="effect1_foregroundBlur_2001_13118"/>
</filter>
<filter id="filter43_f_2001_13118" x="85.3913" y="23.3604" width="24.0524" height="32.8068" filterUnits="userSpaceOnUse" color-interpolation-filters="sRGB">
<feFlood flood-opacity="0" result="BackgroundImageFix"/>
<feBlend mode="normal" in="SourceGraphic" in2="BackgroundImageFix" result="shape"/>
<feGaussianBlur stdDeviation="1.22747" result="effect1_foregroundBlur_2001_13118"/>
</filter>
<filter id="filter44_f_2001_13118" x="87.6232" y="30.056" width="24.6127" height="32.8068" filterUnits="userSpaceOnUse" color-interpolation-filters="sRGB">
<feFlood flood-opacity="0" result="BackgroundImageFix"/>
<feBlend mode="normal" in="SourceGraphic" in2="BackgroundImageFix" result="shape"/>
<feGaussianBlur stdDeviation="1.22747" result="effect1_foregroundBlur_2001_13118"/>
</filter>
<filter id="filter45_f_2001_13118" x="85.3913" y="12.2017" width="24.0524" height="32.8068" filterUnits="userSpaceOnUse" color-interpolation-filters="sRGB">
<feFlood flood-opacity="0" result="BackgroundImageFix"/>
<feBlend mode="normal" in="SourceGraphic" in2="BackgroundImageFix" result="shape"/>
<feGaussianBlur stdDeviation="1.22747" result="effect1_foregroundBlur_2001_13118"/>
</filter>
<filter id="filter46_f_2001_13118" x="87.6232" y="18.8973" width="24.6127" height="32.8068" filterUnits="userSpaceOnUse" color-interpolation-filters="sRGB">
<feFlood flood-opacity="0" result="BackgroundImageFix"/>
<feBlend mode="normal" in="SourceGraphic" in2="BackgroundImageFix" result="shape"/>
<feGaussianBlur stdDeviation="1.22747" result="effect1_foregroundBlur_2001_13118"/>
</filter>
<filter id="filter47_f_2001_13118" x="85.3913" y="1.04299" width="24.0524" height="32.8068" filterUnits="userSpaceOnUse" color-interpolation-filters="sRGB">
<feFlood flood-opacity="0" result="BackgroundImageFix"/>
<feBlend mode="normal" in="SourceGraphic" in2="BackgroundImageFix" result="shape"/>
<feGaussianBlur stdDeviation="1.22747" result="effect1_foregroundBlur_2001_13118"/>
</filter>
<filter id="filter48_f_2001_13118" x="87.6232" y="7.73867" width="24.6127" height="32.8068" filterUnits="userSpaceOnUse" color-interpolation-filters="sRGB">
<feFlood flood-opacity="0" result="BackgroundImageFix"/>
<feBlend mode="normal" in="SourceGraphic" in2="BackgroundImageFix" result="shape"/>
<feGaussianBlur stdDeviation="1.22747" result="effect1_foregroundBlur_2001_13118"/>
</filter>
<filter id="filter49_f_2001_13118" x="85.3913" y="-10.1155" width="24.0524" height="32.8068" filterUnits="userSpaceOnUse" color-interpolation-filters="sRGB">
<feFlood flood-opacity="0" result="BackgroundImageFix"/>
<feBlend mode="normal" in="SourceGraphic" in2="BackgroundImageFix" result="shape"/>
<feGaussianBlur stdDeviation="1.22747" result="effect1_foregroundBlur_2001_13118"/>
</filter>
<filter id="filter50_f_2001_13118" x="87.6232" y="-3.41978" width="24.6127" height="32.8068" filterUnits="userSpaceOnUse" color-interpolation-filters="sRGB">
<feFlood flood-opacity="0" result="BackgroundImageFix"/>
<feBlend mode="normal" in="SourceGraphic" in2="BackgroundImageFix" result="shape"/>
<feGaussianBlur stdDeviation="1.22747" result="effect1_foregroundBlur_2001_13118"/>
</filter>
<filter id="filter51_f_2001_13118" x="85.3913" y="-21.2741" width="24.0524" height="32.8068" filterUnits="userSpaceOnUse" color-interpolation-filters="sRGB">
<feFlood flood-opacity="0" result="BackgroundImageFix"/>
<feBlend mode="normal" in="SourceGraphic" in2="BackgroundImageFix" result="shape"/>
<feGaussianBlur stdDeviation="1.22747" result="effect1_foregroundBlur_2001_13118"/>
</filter>
<filter id="filter52_f_2001_13118" x="87.6232" y="-14.5784" width="24.6127" height="32.8068" filterUnits="userSpaceOnUse" color-interpolation-filters="sRGB">
<feFlood flood-opacity="0" result="BackgroundImageFix"/>
<feBlend mode="normal" in="SourceGraphic" in2="BackgroundImageFix" result="shape"/>
<feGaussianBlur stdDeviation="1.22747" result="effect1_foregroundBlur_2001_13118"/>
</filter>
<linearGradient id="paint0_linear_2001_13118" x1="137.048" y1="312.931" x2="134.156" y2="284.11" gradientUnits="userSpaceOnUse">
<stop stop-color="#FFE900"/>
<stop offset="0.0956" stop-color="#F2CD00"/>
<stop offset="0.2376" stop-color="#E3AA00"/>
<stop offset="0.3898" stop-color="#D89100"/>
<stop offset="0.5548" stop-color="#CF7D00"/>
<stop offset="0.7421" stop-color="#CB7300"/>
<stop offset="1" stop-color="#C96F00"/>
</linearGradient>
<linearGradient id="paint1_linear_2001_13118" x1="41.6701" y1="322.502" x2="39.0824" y2="296.71" gradientUnits="userSpaceOnUse">
<stop stop-color="#FF7A45"/>
<stop offset="0.1315" stop-color="#FF854B"/>
<stop offset="0.3064" stop-color="#FF9A4F"/>
<stop offset="0.5057" stop-color="#FFB54D"/>
<stop offset="0.723" stop-color="#FFDE49"/>
<stop offset="0.9525" stop-color="#EEFF45"/>
<stop offset="1" stop-color="#E3FF44"/>
</linearGradient>
<linearGradient id="paint2_linear_2001_13118" x1="134.41" y1="313.309" x2="130.278" y2="272.123" gradientUnits="userSpaceOnUse">
<stop stop-color="#FF7A45"/>
<stop offset="0.1315" stop-color="#FF854B"/>
<stop offset="0.3064" stop-color="#FF9A4F"/>
<stop offset="0.5057" stop-color="#FFB54D"/>
<stop offset="0.723" stop-color="#FFDE49"/>
<stop offset="0.9525" stop-color="#EEFF45"/>
<stop offset="1" stop-color="#E3FF44"/>
</linearGradient>
<linearGradient id="paint3_linear_2001_13118" x1="43.569" y1="293.153" x2="58.3154" y2="260.668" gradientUnits="userSpaceOnUse">
<stop stop-color="#FF7A45"/>
<stop offset="0.1315" stop-color="#FF854B"/>
<stop offset="0.3064" stop-color="#FF9A4F"/>
<stop offset="0.5057" stop-color="#FFB54D"/>
<stop offset="0.723" stop-color="#FFDE49"/>
<stop offset="0.9525" stop-color="#EEFF45"/>
<stop offset="1" stop-color="#E3FF44"/>
</linearGradient>
<linearGradient id="paint4_linear_2001_13118" x1="58.5485" y1="320.808" x2="55.6572" y2="291.991" gradientUnits="userSpaceOnUse">
<stop stop-color="#FFE900"/>
<stop offset="0.0956" stop-color="#F2CD00"/>
<stop offset="0.2376" stop-color="#E3AA00"/>
<stop offset="0.3898" stop-color="#D89100"/>
<stop offset="0.5548" stop-color="#CF7D00"/>
<stop offset="0.7421" stop-color="#CB7300"/>
<stop offset="1" stop-color="#C96F00"/>
</linearGradient>
<linearGradient id="paint5_linear_2001_13118" x1="61.2411" y1="320.652" x2="57.1085" y2="279.463" gradientUnits="userSpaceOnUse">
<stop stop-color="#FF7A45"/>
<stop offset="0.1315" stop-color="#FF854B"/>
<stop offset="0.3064" stop-color="#FF9A4F"/>
<stop offset="0.5057" stop-color="#FFB54D"/>
<stop offset="0.723" stop-color="#FFDE49"/>
<stop offset="0.9525" stop-color="#EEFF45"/>
<stop offset="1" stop-color="#E3FF44"/>
</linearGradient>
<linearGradient id="paint6_linear_2001_13118" x1="112.776" y1="308.837" x2="110.274" y2="283.898" gradientUnits="userSpaceOnUse">
<stop stop-color="#D98B98"/>
<stop offset="0.1652" stop-color="#E1A3AD"/>
<stop offset="0.5475" stop-color="#F1D4D9"/>
<stop offset="0.8378" stop-color="#FBF3F4"/>
<stop offset="1" stop-color="white"/>
</linearGradient>
<linearGradient id="paint7_linear_2001_13118" x1="78.9644" y1="311.924" x2="76.3003" y2="285.372" gradientUnits="userSpaceOnUse">
<stop stop-color="#D98B98"/>
<stop offset="0.1652" stop-color="#E1A3AD"/>
<stop offset="0.5475" stop-color="#F1D4D9"/>
<stop offset="0.8378" stop-color="#FBF3F4"/>
<stop offset="1" stop-color="white"/>
</linearGradient>
<linearGradient id="paint8_linear_2001_13118" x1="99.8181" y1="319.832" x2="98.3629" y2="305.328" gradientUnits="userSpaceOnUse">
<stop stop-color="#FE6845"/>
<stop offset="0.1119" stop-color="#FE8957"/>
<stop offset="0.3775" stop-color="#FFBA55"/>
<stop offset="0.6227" stop-color="#FFD74F"/>
<stop offset="0.838" stop-color="#FFE94A"/>
<stop offset="1" stop-color="#FFF049"/>
</linearGradient>
</defs>
</svg>
