<svg width="2340" height="479" viewBox="0 0 2340 479" fill="none" xmlns="http://www.w3.org/2000/svg">
<mask id="mask0_638_28518" style="mask-type:alpha" maskUnits="userSpaceOnUse" x="0" y="0" width="950" height="471">
<path d="M0 0.345215H950V470.345H0V0.345215Z" fill="#D9D9D9"/>
</mask>
<g mask="url(#mask0_638_28518)">
<path fill-rule="evenodd" clip-rule="evenodd" d="M60 0.345215C26.8629 0.345215 0 27.2081 0 60.3452V170.345C35.8985 170.345 65 199.447 65 235.345C65 271.244 35.8985 300.345 0 300.345V410.345C0 443.482 26.863 470.345 60.0001 470.345H908V420.345H942V470.345H2260C2293.14 470.345 2320 443.482 2320 410.345V300.345C2284.1 300.345 2255 271.244 2255 235.345C2255 199.447 2284.1 170.345 2320 170.345V60.3452C2320 27.2081 2293.14 0.345215 2260 0.345215H942V60.3452H908V0.345215H60ZM908 310.345H942V390.345H908V310.345ZM942 200.345H908V280.345H942V200.345ZM908 90.3452H942V170.345H908V90.3452Z" fill="white"/>
</g>
<path d="M164.893 370.072V315.382H214.645C224.267 315.382 231.989 312.851 237.813 307.787C243.636 302.47 246.548 295.254 246.548 286.139C246.548 280.062 245.155 274.872 242.37 270.567C239.838 266.01 236.167 262.592 231.356 260.313C226.799 258.034 221.228 256.895 214.645 256.895H164.893V204.484H211.227C219.329 204.484 226.039 202.459 231.356 198.407C236.673 194.356 239.332 188.027 239.332 179.418C239.332 170.809 236.673 164.48 231.356 160.429C226.039 156.377 219.329 154.352 211.227 154.352H164.893V99.6623H232.495C248.953 99.6623 263.258 102.827 275.412 109.157C287.818 115.234 297.439 123.716 304.276 134.603C311.112 145.237 314.53 157.517 314.53 171.442C314.53 190.685 307.694 206.383 294.021 218.536C280.349 230.69 260.347 237.652 234.015 239.425L233.255 213.219C261.866 214.992 283.767 222.841 298.959 236.766C314.15 250.692 321.746 268.542 321.746 290.316C321.746 306.014 317.821 319.94 309.972 332.093C302.123 343.993 291.11 353.361 276.931 360.198C263.005 366.781 246.674 370.072 227.938 370.072H164.893ZM103.367 370.072V99.6623H177.806V370.072H103.367Z" fill="black"/>
<path d="M415.242 262.212V209.801H461.197C471.578 209.801 479.427 207.269 484.744 202.205C490.314 197.141 493.099 190.432 493.099 182.076C493.099 173.721 490.314 167.012 484.744 161.948C479.427 156.884 471.578 154.352 461.197 154.352H415.242V99.6623H473.35C492.086 99.6623 508.544 103.08 522.723 109.917C536.901 116.753 548.042 126.247 556.144 138.401C564.246 150.554 568.297 164.733 568.297 180.937C568.297 197.141 564.12 211.32 555.764 223.474C547.662 235.627 536.268 245.121 521.583 251.958C506.898 258.794 489.554 262.212 469.552 262.212H415.242ZM353.716 370.072V99.6623H429.674V370.072H353.716ZM499.555 370.072L425.876 254.616L494.238 239.804L585.768 370.072H499.555Z" fill="black"/>
<path d="M739.235 375.389C717.967 375.389 698.344 371.844 680.368 364.755C662.644 357.666 647.073 347.791 633.654 335.132C620.488 322.472 610.233 307.534 602.891 290.316C595.548 273.099 591.877 254.49 591.877 234.487C591.877 214.232 595.422 195.622 602.511 178.658C609.854 161.694 620.108 146.883 633.274 134.223C646.44 121.563 661.885 111.816 679.608 104.979C697.585 97.8899 717.207 94.3452 738.475 94.3452C759.744 94.3452 779.24 97.8899 796.963 104.979C814.94 111.816 830.511 121.563 843.677 134.223C856.843 146.883 866.971 161.821 874.06 179.038C881.403 196.002 885.074 214.612 885.074 234.867C885.074 254.869 881.403 273.479 874.06 290.696C866.971 307.66 856.843 322.598 843.677 335.511C830.511 348.171 815.066 358.045 797.343 365.135C779.619 371.971 760.25 375.389 739.235 375.389ZM738.475 308.546C752.654 308.546 764.934 305.508 775.315 299.431C785.696 293.355 793.671 284.746 799.242 273.606C804.812 262.465 807.597 249.426 807.597 234.487C807.597 223.347 805.951 213.346 802.66 204.484C799.621 195.369 795.064 187.647 788.987 181.317C782.911 174.734 775.568 169.797 766.96 166.505C758.604 162.96 749.11 161.188 738.475 161.188C724.297 161.188 712.017 164.226 701.636 170.303C691.255 176.126 683.279 184.608 677.709 195.749C672.139 206.636 669.354 219.549 669.354 234.487C669.354 245.881 670.873 256.135 673.911 265.25C677.203 274.365 681.887 282.214 687.963 288.797C694.04 295.127 701.256 300.064 709.611 303.609C718.22 306.901 727.841 308.546 738.475 308.546Z" fill="black"/>
<path d="M1080.04 380V109.59H1156V380H1080.04ZM999.146 174.154V109.59H1237.27V174.154H999.146ZM1326.68 380V109.59H1402.64V380H1326.68ZM1245.79 174.154V109.59H1483.91V174.154H1245.79ZM1512.47 380V109.59H1588.42V380H1512.47ZM1573.99 380V316.955H1719.07V380H1573.99ZM1573.99 272.899V211.374H1705.02V272.899H1573.99ZM1573.99 172.635V109.59H1716.79V172.635H1573.99ZM1816.55 272.14V219.729H1862.51C1872.89 219.729 1880.74 217.197 1886.05 212.133C1891.62 207.069 1894.41 200.36 1894.41 192.004C1894.41 183.649 1891.62 176.939 1886.05 171.876C1880.74 166.812 1872.89 164.28 1862.51 164.28H1816.55V109.59H1874.66C1893.4 109.59 1909.85 113.008 1924.03 119.844C1938.21 126.681 1949.35 136.175 1957.45 148.329C1965.56 160.482 1969.61 174.661 1969.61 190.865C1969.61 207.069 1965.43 221.248 1957.07 233.401C1948.97 245.555 1937.58 255.049 1922.89 261.886C1908.21 268.722 1890.86 272.14 1870.86 272.14H1816.55ZM1755.03 380V109.59H1830.98V380H1755.03ZM1900.87 380L1827.19 264.544L1895.55 249.732L1987.08 380H1900.87ZM2078.14 286.952L1975.22 109.59H2062.57L2140.42 254.29H2075.1L2152.96 109.59H2238.41L2134.73 286.952H2078.14ZM2069.4 380V259.227H2145.36V380H2069.4Z" fill="white"/>
<mask id="mask1_638_28518" style="mask-type:alpha" maskUnits="userSpaceOnUse" x="939" y="0" width="1401" height="471">
<path d="M939 0.345215H2340V470.345H939V0.345215Z" fill="#D9D9D9"/>
</mask>
<g mask="url(#mask1_638_28518)">
<mask id="path-6-inside-1_638_28518" fill="white">
<path fill-rule="evenodd" clip-rule="evenodd" d="M80 0.345215C46.8629 0.345215 20 27.2081 20 60.3452V170.345C55.8985 170.345 85 199.447 85 235.345C85 271.244 55.8985 300.345 20 300.345V410.345C20 443.482 46.863 470.345 80.0001 470.345H908V420.345H942V470.345H2280C2313.14 470.345 2340 443.482 2340 410.345V300.345C2304.1 300.345 2275 271.244 2275 235.345C2275 199.447 2304.1 170.345 2340 170.345V60.3452C2340 27.2081 2313.14 0.345215 2280 0.345215H942V60.3452H908V0.345215H80ZM908 310.345H942V390.345H908V310.345ZM942 200.345H908V280.345H942V200.345ZM908 90.3452H942V170.345H908V90.3452Z"/>
</mask>
<path d="M20 170.345H-10V200.345H20V170.345ZM20 300.345V270.345H-10V300.345H20ZM908 470.345V500.345H938V470.345H908ZM908 420.345V390.345H878V420.345H908ZM942 420.345H972V390.345H942V420.345ZM942 470.345H912V500.345H942V470.345ZM2340 300.345H2370V270.345H2340V300.345ZM2340 170.345V200.345H2370V170.345H2340ZM942 0.345215V-29.6548H912V0.345215H942ZM942 60.3452V90.3452H972V60.3452H942ZM908 60.3452H878V90.3452H908V60.3452ZM908 0.345215H938V-29.6548H908V0.345215ZM942 310.345H972V280.345H942V310.345ZM908 310.345V280.345H878V310.345H908ZM942 390.345V420.345H972V390.345H942ZM908 390.345H878V420.345H908V390.345ZM908 200.345V170.345H878V200.345H908ZM942 200.345H972V170.345H942V200.345ZM908 280.345H878V310.345H908V280.345ZM942 280.345V310.345H972V280.345H942ZM942 90.3452H972V60.3452H942V90.3452ZM908 90.3452V60.3452H878V90.3452H908ZM942 170.345V200.345H972V170.345H942ZM908 170.345H878V200.345H908V170.345ZM50 60.3452C50 43.7767 63.4315 30.3452 80 30.3452V-29.6548C30.2944 -29.6548 -10 10.6396 -10 60.3452H50ZM50 170.345V60.3452H-10V170.345H50ZM115 235.345C115 182.878 72.4671 140.345 20 140.345V200.345C39.33 200.345 55 216.015 55 235.345H115ZM20 330.345C72.4671 330.345 115 287.812 115 235.345H55C55 254.675 39.33 270.345 20 270.345V330.345ZM50 410.345V300.345H-10V410.345H50ZM80.0001 440.345C63.4315 440.345 50 426.914 50 410.345H-10C-10 460.051 30.2945 500.345 80.0001 500.345V440.345ZM908 440.345H80.0001V500.345H908V440.345ZM938 470.345V420.345H878V470.345H938ZM908 450.345H942V390.345H908V450.345ZM912 420.345V470.345H972V420.345H912ZM2280 440.345H942V500.345H2280V440.345ZM2310 410.345C2310 426.914 2296.57 440.345 2280 440.345V500.345C2329.71 500.345 2370 460.051 2370 410.345H2310ZM2310 300.345V410.345H2370V300.345H2310ZM2245 235.345C2245 287.812 2287.53 330.345 2340 330.345V270.345C2320.67 270.345 2305 254.675 2305 235.345H2245ZM2340 140.345C2287.53 140.345 2245 182.878 2245 235.345H2305C2305 216.015 2320.67 200.345 2340 200.345V140.345ZM2310 60.3452V170.345H2370V60.3452H2310ZM2280 30.3452C2296.57 30.3452 2310 43.7767 2310 60.3452H2370C2370 10.6395 2329.71 -29.6548 2280 -29.6548V30.3452ZM942 30.3452H2280V-29.6548H942V30.3452ZM972 60.3452V0.345215H912V60.3452H972ZM908 90.3452H942V30.3452H908V90.3452ZM878 0.345215V60.3452H938V0.345215H878ZM80 30.3452H908V-29.6548H80V30.3452ZM942 280.345H908V340.345H942V280.345ZM972 390.345V310.345H912V390.345H972ZM908 420.345H942V360.345H908V420.345ZM878 310.345V390.345H938V310.345H878ZM908 230.345H942V170.345H908V230.345ZM938 280.345V200.345H878V280.345H938ZM942 250.345H908V310.345H942V250.345ZM912 200.345V280.345H972V200.345H912ZM942 60.3452H908V120.345H942V60.3452ZM972 170.345V90.3452H912V170.345H972ZM908 200.345H942V140.345H908V200.345ZM878 90.3452V170.345H938V90.3452H878Z" fill="white" mask="url(#path-6-inside-1_638_28518)"/>
</g>
</svg>
