<svg xmlns="http://www.w3.org/2000/svg" width="42" height="42" fill="none"><path fill="#4F4F4F" d="M28 30.614c0 1.318-3.134 2.387-7 2.387s-7-1.069-7-2.387c0-3.704 1.734-2.386 7-2.386s7-1.318 7 2.386Z"/><ellipse cx="21" cy="29" fill="#3B3A3A" rx="7" ry="3"/><path fill="#8994A4" d="M33 20c-1.333-1.333-2.706-6.666-12-6.666-7.96 0-10.667 5.333-12 6.666 0-6.627 5.373-12 12-12s12 5.373 12 12Z" opacity=".2"/><circle cx="21" cy="20" r="12" fill="url(#a)" fill-opacity=".8"/><path fill="#fff" d="M30 14c-1.286-1.25-5.18-2.5-9-2.5-3.82 0-7.714 1.25-9 2.5 1.286-2.463 5.18-5 9-5 3.82 0 7.714 2.537 9 5Z" opacity=".6"/><defs><radialGradient id="a" cx="0" cy="0" r="1" gradientTransform="translate(20.99 12.532) scale(17.0697)" gradientUnits="userSpaceOnUse"><stop offset=".12" stop-color="#FFFFA9"/><stop offset=".364" stop-color="#FFFEA7"/><stop offset=".452" stop-color="#FFFCA0"/><stop offset=".515" stop-color="#FFF895"/><stop offset=".565" stop-color="#FFF384"/><stop offset=".608" stop-color="#FFEC6E"/><stop offset=".634" stop-color="#FFE65D"/><stop offset=".769" stop-color="#FEE45C"/><stop offset=".838" stop-color="#FADC5A"/><stop offset=".892" stop-color="#F2CF56"/><stop offset=".938" stop-color="#E8BC50"/><stop offset=".979" stop-color="#DBA448"/><stop offset="1" stop-color="#D39443"/></radialGradient></defs></svg>