<svg width="161" height="123" viewBox="0 0 161 123" fill="none" xmlns="http://www.w3.org/2000/svg">
<g filter="url(#filter0_f_379_27596)">
<path fill-rule="evenodd" clip-rule="evenodd" d="M106.984 47.2362L38.7258 108.735L7.70921 74.3088L75.9674 12.8104L106.984 47.2362ZM90.0008 45.8376L57.6474 74.0041L43.1162 57.3129L75.4696 29.1463L90.0008 45.8376ZM47.2006 90.8717L39.191 98.0197L36.9189 95.5571C39.0415 92.3481 39.1659 85.1488 34.9531 80.7894C31.3874 77.0997 24.0905 75.4002 20.0773 78.659L17.1501 75.2678L25.7733 67.473L47.2006 90.8717Z" fill="#FBD25C" fill-opacity="0.25"/>
</g>
<g filter="url(#filter1_f_379_27596)">
<path d="M102.476 46.663L103.053 47.3064C103.224 47.1532 103.327 46.9386 103.339 46.7096C103.351 46.4806 103.272 46.2561 103.119 46.0855L102.476 46.663ZM38.5601 104.027L37.9167 104.605C38.0698 104.775 38.2845 104.878 38.5135 104.89C38.7425 104.903 38.967 104.824 39.1376 104.671L38.5601 104.027ZM76.252 17.4445L76.8954 16.867C76.5765 16.5116 76.0299 16.4821 75.6745 16.801L76.252 17.4445ZM12.3365 74.8086L11.759 74.1652C11.5884 74.3183 11.4856 74.533 11.4732 74.762C11.4608 74.9909 11.5399 75.2154 11.6931 75.3861L12.3365 74.8086ZM19.5071 82.7981L18.8637 83.3756C19.1826 83.7309 19.7292 83.7605 20.0846 83.4415L19.5071 82.7981ZM31.3897 96.0377L30.8122 95.3943C30.4568 95.7132 30.4273 96.2598 30.7462 96.6152L31.3897 96.0377ZM101.898 46.0195L37.9826 103.384L39.1376 104.671L103.053 47.3064L101.898 46.0195ZM75.6085 18.022L101.832 47.2405L103.119 46.0855L76.8954 16.867L75.6085 18.022ZM12.914 75.452L76.8295 18.0879L75.6745 16.801L11.759 74.1652L12.914 75.452ZM20.1505 82.2206L12.98 74.2311L11.6931 75.3861L18.8637 83.3756L20.1505 82.2206ZM20.0846 83.4415C23.3852 80.4792 28.4624 80.7534 31.4248 84.0541L32.7116 82.8991C29.1114 78.8877 22.941 78.5544 18.9296 82.1546L20.0846 83.4415ZM31.4248 84.0541C34.3871 87.3547 34.1128 92.4319 30.8122 95.3943L31.9672 96.6811C35.9785 93.0809 36.3119 86.9105 32.7116 82.8991L31.4248 84.0541ZM39.2036 103.45L32.0331 95.4602L30.7462 96.6152L37.9167 104.605L39.2036 103.45Z" fill="#FFD24C"/>
<rect x="98.5771" y="46.4524" width="55.8237" height="33.7396" transform="rotate(138.092 98.5771 46.4524)" stroke="#FFD24C" stroke-width="1.72918" stroke-linejoin="round"/>
<path d="M51.9634 89.1125L28.608 63.0898" stroke="#FFD24C" stroke-width="1.72918" stroke-linecap="round" stroke-linejoin="round" stroke-dasharray="5.52 5.52"/>
</g>
<path d="M102.476 46.663L102.861 47.0919C102.974 46.9898 103.043 46.8467 103.051 46.6941C103.059 46.5414 103.007 46.3917 102.905 46.278L102.476 46.663ZM38.5601 104.027L38.1312 104.412C38.2333 104.526 38.3764 104.594 38.529 104.603C38.6817 104.611 38.8314 104.558 38.9451 104.456L38.5601 104.027ZM76.252 17.4445L76.6809 17.0595C76.4683 16.8226 76.1039 16.8029 75.867 17.0155L76.252 17.4445ZM12.3365 74.8086L11.9515 74.3796C11.8378 74.4817 11.7692 74.6249 11.761 74.7775C11.7527 74.9302 11.8055 75.0798 11.9076 75.1936L12.3365 74.8086ZM19.5071 82.7981L19.0781 83.1831C19.2908 83.42 19.6552 83.4397 19.8921 83.227L19.5071 82.7981ZM31.3897 96.0377L31.0047 95.6087C30.7678 95.8214 30.7481 96.1858 30.9607 96.4227L31.3897 96.0377ZM102.091 46.234L38.1751 103.598L38.9451 104.456L102.861 47.0919L102.091 46.234ZM75.823 17.8295L102.047 47.048L102.905 46.278L76.6809 17.0595L75.823 17.8295ZM12.7215 75.2376L76.637 17.8734L75.867 17.0155L11.9515 74.3796L12.7215 75.2376ZM19.9361 82.4131L12.7655 74.4236L11.9076 75.1936L19.0781 83.1831L19.9361 82.4131ZM19.8921 83.227C23.3112 80.1584 28.5706 80.4425 31.6392 83.8616L32.4972 83.0916C29.0033 79.1987 23.015 78.8752 19.1221 82.3691L19.8921 83.227ZM31.6392 83.8616C34.7079 87.2807 34.4238 92.5401 31.0047 95.6087L31.7747 96.4667C35.6676 92.9727 35.9911 86.9845 32.4972 83.0916L31.6392 83.8616ZM38.9891 103.642L31.8186 95.6527L30.9607 96.4227L38.1312 104.412L38.9891 103.642Z" fill="#FFD24C"/>
<rect x="98.5771" y="46.4524" width="55.8237" height="33.7396" transform="rotate(138.092 98.5771 46.4524)" stroke="#FFD24C" stroke-width="1.15279" stroke-linejoin="round"/>
<path d="M51.9634 89.1125L28.608 63.0898" stroke="#FFD24C" stroke-width="1.15279" stroke-linecap="round" stroke-linejoin="round" stroke-dasharray="5.52 5.52"/>
<path d="M102.476 46.663L102.668 46.8774C102.725 46.8264 102.759 46.7548 102.763 46.6785C102.767 46.6022 102.741 46.5274 102.69 46.4705L102.476 46.663ZM38.5601 104.027L38.3457 104.22C38.3967 104.276 38.4683 104.311 38.5446 104.315C38.6209 104.319 38.6958 104.293 38.7526 104.242L38.5601 104.027ZM76.252 17.4445L76.4665 17.252C76.3601 17.1335 76.1779 17.1237 76.0595 17.23L76.252 17.4445ZM12.3365 74.8086L12.144 74.5941C12.0872 74.6452 12.0529 74.7167 12.0488 74.7931C12.0446 74.8694 12.071 74.9442 12.122 75.0011L12.3365 74.8086ZM19.5071 82.7981L19.2926 82.9906C19.3989 83.109 19.5811 83.1189 19.6996 83.0125L19.5071 82.7981ZM31.3897 96.0377L31.1972 95.8232C31.0787 95.9295 31.0689 96.1117 31.1752 96.2302L31.3897 96.0377ZM102.283 46.4485L38.3676 103.813L38.7526 104.242L102.668 46.8774L102.283 46.4485ZM76.0375 17.637L102.261 46.8555L102.69 46.4705L76.4665 17.252L76.0375 17.637ZM12.529 75.0231L76.4445 17.659L76.0595 17.23L12.144 74.5941L12.529 75.0231ZM19.7216 82.6056L12.551 74.6161L12.122 75.0011L19.2926 82.9906L19.7216 82.6056ZM19.6996 83.0125C23.2372 79.8376 28.6787 80.1315 31.8537 83.6691L32.2827 83.2841C28.8951 79.5096 23.0891 79.196 19.3146 82.5836L19.6996 83.0125ZM31.8537 83.6691C35.0287 87.2067 34.7347 92.6482 31.1972 95.8232L31.5822 96.2522C35.3566 92.8646 35.6703 87.0586 32.2827 83.2841L31.8537 83.6691ZM38.7746 103.835L31.6042 95.8452L31.1752 96.2302L38.3457 104.22L38.7746 103.835Z" fill="#FFF5D9"/>
<rect x="98.5771" y="46.4524" width="55.8237" height="33.7396" transform="rotate(138.092 98.5771 46.4524)" stroke="#FFF5D9" stroke-width="0.576394" stroke-linejoin="round"/>
<path d="M51.9634 89.1125L28.608 63.0898" stroke="#FFF5D9" stroke-width="0.576394" stroke-linecap="round" stroke-linejoin="round" stroke-dasharray="5.52 5.52"/>
<g filter="url(#filter2_f_379_27596)">
<path fill-rule="evenodd" clip-rule="evenodd" d="M140.734 33.2151L94.7741 112.77L54.6508 89.5904L100.61 10.0356L140.734 33.2151ZM124.147 37.1234L102.06 73.8964L83.0883 62.5014L105.176 25.7285L124.147 37.1234ZM97.3256 93.1638L91.9114 102.434L88.9905 100.792C90.0197 97.0849 87.9173 90.1983 82.5652 87.351C78.0352 84.9411 70.5699 85.5754 67.7577 89.9133L63.9272 87.5903L69.7255 77.5157L97.3256 93.1638Z" fill="#FBD25C" fill-opacity="0.25"/>
</g>
<g filter="url(#filter3_f_379_27596)">
<path d="M136.268 34.0604L137.016 34.4944C137.131 34.296 137.163 34.0601 137.104 33.8385C137.045 33.6169 136.9 33.4277 136.702 33.3126L136.268 34.0604ZM93.1643 108.343L92.7304 109.091C93.1434 109.33 93.6725 109.19 93.9121 108.777L93.1643 108.343ZM102.31 14.3559L102.744 13.608C102.331 13.3684 101.802 13.5089 101.563 13.9219L102.31 14.3559ZM59.2066 88.6384L58.4588 88.2045C58.2191 88.6175 58.3597 89.1465 58.7726 89.3862L59.2066 88.6384ZM68.492 94.0265L68.058 94.7743C68.2564 94.8894 68.4923 94.9209 68.7139 94.8621C68.9355 94.8032 69.1247 94.6587 69.2398 94.4604L68.492 94.0265ZM83.8791 102.955L83.1313 102.521C83.0162 102.72 82.9846 102.955 83.0435 103.177C83.1023 103.399 83.2468 103.588 83.4452 103.703L83.8791 102.955ZM135.52 33.6265L92.4165 107.909L93.9121 108.777L137.016 34.4944L135.52 33.6265ZM101.876 15.1037L135.834 34.8082L136.702 33.3126L102.744 13.608L101.876 15.1037ZM59.9544 89.0723L103.058 14.7898L101.563 13.9219L58.4588 88.2045L59.9544 89.0723ZM68.9259 93.2787L59.6405 87.8906L58.7726 89.3862L68.058 94.7743L68.9259 93.2787ZM69.2398 94.4604C71.4657 90.6244 76.3799 89.3191 80.2159 91.5451L81.0838 90.0494C76.4217 87.3442 70.4494 88.9305 67.7442 93.5925L69.2398 94.4604ZM80.2159 91.5451C84.0519 93.771 85.3572 98.6851 83.1313 102.521L84.6269 103.389C87.3321 98.727 85.7458 92.7547 81.0838 90.0494L80.2159 91.5451ZM93.5982 107.595L84.313 102.207L83.4452 103.703L92.7304 109.091L93.5982 107.595Z" fill="#FFD24C"/>
<rect x="132.495" y="35.0626" width="55.8237" height="33.7396" transform="rotate(120.125 132.495 35.0626)" stroke="#FFD24C" stroke-width="1.72918" stroke-linejoin="round"/>
<path d="M101.314 90.0212L71.0701 72.4719" stroke="#FFD24C" stroke-width="1.72918" stroke-linecap="round" stroke-linejoin="round" stroke-dasharray="5.52 5.52"/>
</g>
<path d="M136.268 34.0604L136.767 34.3497C136.843 34.2175 136.864 34.0602 136.825 33.9125C136.786 33.7647 136.69 33.6386 136.557 33.5619L136.268 34.0604ZM93.1643 108.343L92.875 108.842C93.1504 109.001 93.5031 108.908 93.6629 108.632L93.1643 108.343ZM102.31 14.3559L102.6 13.8573C102.324 13.6975 101.972 13.7912 101.812 14.0666L102.31 14.3559ZM59.2066 88.6384L58.708 88.3491C58.5483 88.6244 58.642 88.9772 58.9173 89.1369L59.2066 88.6384ZM68.492 94.0265L68.2027 94.525C68.3349 94.6017 68.4922 94.6228 68.6399 94.5835C68.7877 94.5443 68.9138 94.448 68.9905 94.3158L68.492 94.0265ZM83.8791 102.955L83.3805 102.666C83.3038 102.798 83.2828 102.955 83.322 103.103C83.3612 103.251 83.4576 103.377 83.5898 103.454L83.8791 102.955ZM135.77 33.7711L92.6658 108.054L93.6629 108.632L136.767 34.3497L135.77 33.7711ZM102.021 14.8544L135.979 34.559L136.557 33.5619L102.6 13.8573L102.021 14.8544ZM59.7051 88.9277L102.809 14.6451L101.812 14.0666L58.708 88.3491L59.7051 88.9277ZM68.7813 93.5279L59.4959 88.1399L58.9173 89.1369L68.2027 94.525L68.7813 93.5279ZM68.9905 94.3158C71.2963 90.3421 76.3869 88.99 80.3606 91.2958L80.9391 90.2987C76.4148 87.6734 70.6188 89.2128 67.9934 93.7372L68.9905 94.3158ZM80.3606 91.2958C84.3343 93.6016 85.6863 98.6921 83.3805 102.666L84.3776 103.244C87.003 98.72 85.4635 92.924 80.9391 90.2987L80.3606 91.2958ZM93.4536 107.844L84.1684 102.457L83.5898 103.454L92.875 108.842L93.4536 107.844Z" fill="#FFD24C"/>
<rect x="132.495" y="35.0626" width="55.8237" height="33.7396" transform="rotate(120.125 132.495 35.0626)" stroke="#FFD24C" stroke-width="1.15279" stroke-linejoin="round"/>
<path d="M101.314 90.0212L71.0701 72.4719" stroke="#FFD24C" stroke-width="1.15279" stroke-linecap="round" stroke-linejoin="round" stroke-dasharray="5.52 5.52"/>
<path d="M136.268 34.0604L136.517 34.2051C136.556 34.139 136.566 34.0603 136.547 33.9864C136.527 33.9126 136.479 33.8495 136.413 33.8112L136.268 34.0604ZM93.1643 108.343L93.0197 108.592C93.1573 108.672 93.3337 108.625 93.4136 108.488L93.1643 108.343ZM102.31 14.3559L102.455 14.1066C102.317 14.0267 102.141 14.0735 102.061 14.2112L102.31 14.3559ZM59.2066 88.6384L58.9573 88.4938C58.8774 88.6314 58.9243 88.8078 59.0619 88.8877L59.2066 88.6384ZM68.492 94.0265L68.3473 94.2757C68.4134 94.3141 68.4921 94.3246 68.566 94.305C68.6398 94.2854 68.7029 94.2372 68.7413 94.1711L68.492 94.0265ZM83.8791 102.955L83.6298 102.81C83.5914 102.877 83.5809 102.955 83.6005 103.029C83.6202 103.103 83.6683 103.166 83.7344 103.204L83.8791 102.955ZM136.019 33.9158L92.915 108.198L93.4136 108.488L136.517 34.2051L136.019 33.9158ZM102.166 14.6051L136.123 34.3097L136.413 33.8112L102.455 14.1066L102.166 14.6051ZM59.4559 88.783L102.56 14.5005L102.061 14.2112L58.9573 88.4938L59.4559 88.783ZM68.6366 93.7772L59.3512 88.3891L59.0619 88.8877L68.3473 94.2757L68.6366 93.7772ZM68.7413 94.1711C71.1269 90.0597 76.3938 88.6608 80.5052 91.0465L80.7945 90.548C76.4078 88.0025 70.7882 89.4951 68.2427 93.8818L68.7413 94.1711ZM80.5052 91.0465C84.6166 93.4322 86.0155 98.6991 83.6298 102.81L84.1283 103.1C86.6738 98.7131 85.1812 93.0934 80.7945 90.548L80.5052 91.0465ZM93.309 108.094L84.0237 102.706L83.7344 103.204L93.0197 108.592L93.309 108.094Z" fill="#FFF5D9"/>
<rect x="132.495" y="35.0626" width="55.8237" height="33.7396" transform="rotate(120.125 132.495 35.0626)" stroke="#FFF5D9" stroke-width="0.576394" stroke-linejoin="round"/>
<path d="M101.314 90.0212L71.0701 72.4719" stroke="#FFF5D9" stroke-width="0.576394" stroke-linecap="round" stroke-linejoin="round" stroke-dasharray="5.52 5.52"/>
<defs>
<filter id="filter0_f_379_27596" x="0.0183382" y="5.11953" width="114.656" height="111.306" filterUnits="userSpaceOnUse" color-interpolation-filters="sRGB">
<feFlood flood-opacity="0" result="BackgroundImageFix"/>
<feBlend mode="normal" in="SourceGraphic" in2="BackgroundImageFix" result="shape"/>
<feGaussianBlur stdDeviation="3.84545" result="effect1_foregroundBlur_379_27596"/>
</filter>
<filter id="filter1_f_379_27596" x="10.245" y="15.3529" width="94.322" height="90.7657" filterUnits="userSpaceOnUse" color-interpolation-filters="sRGB">
<feFlood flood-opacity="0" result="BackgroundImageFix"/>
<feBlend mode="normal" in="SourceGraphic" in2="BackgroundImageFix" result="shape"/>
<feGaussianBlur stdDeviation="0.613447" result="effect1_foregroundBlur_379_27596"/>
</filter>
<filter id="filter2_f_379_27596" x="46.96" y="2.34475" width="101.464" height="118.116" filterUnits="userSpaceOnUse" color-interpolation-filters="sRGB">
<feFlood flood-opacity="0" result="BackgroundImageFix"/>
<feBlend mode="normal" in="SourceGraphic" in2="BackgroundImageFix" result="shape"/>
<feGaussianBlur stdDeviation="3.84545" result="effect1_foregroundBlur_379_27596"/>
</filter>
<filter id="filter3_f_379_27596" x="57.1149" y="12.2642" width="81.2446" height="98.1703" filterUnits="userSpaceOnUse" color-interpolation-filters="sRGB">
<feFlood flood-opacity="0" result="BackgroundImageFix"/>
<feBlend mode="normal" in="SourceGraphic" in2="BackgroundImageFix" result="shape"/>
<feGaussianBlur stdDeviation="0.613447" result="effect1_foregroundBlur_379_27596"/>
</filter>
</defs>
</svg>
