<svg width="105" height="105" viewBox="0 0 105 105" fill="none" xmlns="http://www.w3.org/2000/svg">
<g filter="url(#filter0_f_379_27731)">
<path d="M42.0267 33.4239C41.9454 30.5059 45.6455 29.1886 47.4264 31.5015L53.9897 40.0252C54.7861 41.0595 56.158 41.4634 57.3879 41.0255L67.5225 37.4174C70.2725 36.4384 72.6687 39.5503 71.0194 41.9588L64.9411 50.8348C64.2035 51.9119 64.2433 53.3415 65.0398 54.3758L71.6031 62.8995C73.384 65.2123 71.1648 68.4529 68.3646 67.6286L58.0447 64.5906C56.7924 64.2219 55.4451 64.7016 54.7075 65.7787L48.6292 74.6547C46.9798 77.0632 43.2121 75.954 43.1308 73.0361L42.831 62.2825C42.7947 60.9775 41.9222 59.8444 40.6699 59.4758L30.35 56.4378C27.5497 55.6134 27.4403 51.6873 30.1903 50.7083L40.3249 47.1002C41.5548 46.6624 42.3628 45.4824 42.3264 44.1775L42.0267 33.4239Z" stroke="#2BA0FF" stroke-width="3.01332" stroke-linejoin="round"/>
<circle cx="52.1935" cy="52.6146" r="34.1668" transform="rotate(-19.5965 52.1935 52.6146)" stroke="#2BA0FF" stroke-width="3.01332"/>
<circle cx="52.1933" cy="52.6146" r="40.7797" transform="rotate(-19.5965 52.1933 52.6146)" stroke="#2BA0FF" stroke-width="3.01332"/>
</g>
<path d="M42.0267 33.4239C41.9454 30.5059 45.6455 29.1886 47.4264 31.5015L53.9897 40.0252C54.7861 41.0595 56.158 41.4634 57.3879 41.0255L67.5225 37.4174C70.2725 36.4384 72.6687 39.5503 71.0194 41.9588L64.9411 50.8348C64.2035 51.9119 64.2433 53.3415 65.0398 54.3758L71.6031 62.8995C73.384 65.2123 71.1648 68.4529 68.3646 67.6286L58.0447 64.5906C56.7924 64.2219 55.4451 64.7016 54.7075 65.7787L48.6292 74.6547C46.9798 77.0632 43.2121 75.954 43.1308 73.0361L42.831 62.2825C42.7947 60.9775 41.9222 59.8444 40.6699 59.4758L30.35 56.4378C27.5497 55.6134 27.4403 51.6873 30.1903 50.7083L40.3249 47.1002C41.5548 46.6624 42.3628 45.4824 42.3264 44.1775L42.0267 33.4239Z" stroke="#2BA0FF" stroke-width="3.01332" stroke-linejoin="round"/>
<circle cx="52.1935" cy="52.6146" r="34.1668" transform="rotate(-19.5965 52.1935 52.6146)" stroke="#2BA0FF" stroke-width="3.01332"/>
<circle cx="52.1933" cy="52.6146" r="40.7797" transform="rotate(-19.5965 52.1933 52.6146)" stroke="#2BA0FF" stroke-width="3.01332"/>
<path d="M42.0267 33.4239C41.9454 30.5059 45.6455 29.1886 47.4264 31.5015L53.9897 40.0252C54.7861 41.0595 56.158 41.4634 57.3879 41.0255L67.5225 37.4174C70.2725 36.4384 72.6687 39.5503 71.0194 41.9588L64.9411 50.8348C64.2035 51.9119 64.2433 53.3415 65.0398 54.3758L71.6031 62.8995C73.384 65.2123 71.1648 68.4529 68.3646 67.6286L58.0447 64.5906C56.7924 64.2219 55.4451 64.7016 54.7075 65.7787L48.6292 74.6547C46.9798 77.0632 43.2121 75.954 43.1308 73.0361L42.831 62.2825C42.7947 60.9775 41.9222 59.8444 40.6699 59.4758L30.35 56.4378C27.5497 55.6134 27.4403 51.6873 30.1903 50.7083L40.3249 47.1002C41.5548 46.6624 42.3628 45.4824 42.3264 44.1775L42.0267 33.4239Z" stroke="#A9D8FF" stroke-width="1.50666" stroke-linejoin="round"/>
<circle cx="52.1935" cy="52.6146" r="34.1668" transform="rotate(-19.5965 52.1935 52.6146)" stroke="#A9D8FF" stroke-width="1.50666"/>
<circle cx="52.1933" cy="52.6146" r="40.7797" transform="rotate(-19.5965 52.1933 52.6146)" stroke="#A9D8FF" stroke-width="1.50666"/>
<defs>
<filter id="filter0_f_379_27731" x="6.88218" y="7.30345" width="90.6223" height="90.6223" filterUnits="userSpaceOnUse" color-interpolation-filters="sRGB">
<feFlood flood-opacity="0" result="BackgroundImageFix"/>
<feBlend mode="normal" in="SourceGraphic" in2="BackgroundImageFix" result="shape"/>
<feGaussianBlur stdDeviation="1.50666" result="effect1_foregroundBlur_379_27731"/>
</filter>
</defs>
</svg>
