<svg width="37" height="23" fill="none" xmlns="http://www.w3.org/2000/svg"><path fill-rule="evenodd" clip-rule="evenodd" d="M36.345 19.572c0 .587-8.057 2.67-17.976 2.67-9.943 0-18-2.254-18-2.67 0-.637 9.135-3.429 9.135-3.429s17.045-.833 18.661-.588c.906.147 8.18 3.625 8.18 4.017z" fill="url(#a)"/><path fill-rule="evenodd" clip-rule="evenodd" d="m10.63 17.857-1.64 3.918s9.697 1.176 17.338-.049v-3.33l-15.698-.54z" fill="#7F668D"/><path fill-rule="evenodd" clip-rule="evenodd" d="M29.071 11.343c0 2.694-1.028 5.192-2.743 7.029-7.86 2.253-15.355-.123-15.673-.515a10.298 10.298 0 0 1-2.302-6.514c0-5.73 4.653-10.384 10.359-10.384 5.706.025 10.36 4.653 10.36 10.384z" fill="#FFFFA9"/><path d="M33.577 20.6c-3.87-4.016-6.343.955-6.343.955s1.568-.122 3.723-.416 2.62-.539 2.62-.539z" fill="#fff"/><defs><radialGradient id="a" cx="0" cy="0" r="1" gradientUnits="userSpaceOnUse" gradientTransform="matrix(13.0247 0 0 11.0514 18.352 18.887)"><stop stop-color="#DDDBF1"/><stop offset="1" stop-color="#B7A3BC"/></radialGradient></defs></svg>